<?xml version="1.0" encoding="UTF-8"?>
<svg xmlns="http://www.w3.org/2000/svg" xmlns:xlink="http://www.w3.org/1999/xlink" width="218pt" height="184pt" viewBox="0 0 218 184" version="1.1">
<g id="surface1">
<path style="fill:none;stroke-width:0.006;stroke-linecap:round;stroke-linejoin:miter;stroke:rgb(100%,49.803922%,45.098039%);stroke-opacity:1;stroke-miterlimit:10;" d="M 0.63002 2.499999 L 2.885012 2.499999 " transform="matrix(72,0,0,-72,5.052601,184.4374)"/>
<path style="fill:none;stroke-width:0.006;stroke-linecap:round;stroke-linejoin:miter;stroke:rgb(100%,49.803922%,45.098039%);stroke-opacity:1;stroke-miterlimit:10;" d="M 2.885012 2.499999 L 2.885012 0.0699856 " transform="matrix(72,0,0,-72,5.052601,184.4374)"/>
<path style="fill:none;stroke-width:0.006;stroke-linecap:round;stroke-linejoin:miter;stroke:rgb(100%,49.803922%,45.098039%);stroke-opacity:1;stroke-miterlimit:10;" d="M 2.885012 0.0699856 L 0.63002 0.0699856 " transform="matrix(72,0,0,-72,5.052601,184.4374)"/>
<path style="fill:none;stroke-width:0.006;stroke-linecap:round;stroke-linejoin:miter;stroke:rgb(100%,49.803922%,45.098039%);stroke-opacity:1;stroke-miterlimit:10;" d="M 0.63002 0.0699856 L 0.63002 0.874999 " transform="matrix(72,0,0,-72,5.052601,184.4374)"/>
<path style="fill:none;stroke-width:0.006;stroke-linecap:round;stroke-linejoin:miter;stroke:rgb(100%,49.803922%,45.098039%);stroke-opacity:1;stroke-miterlimit:10;" d="M 0.00502031 1.439994 L 0.00502031 0.955022 " transform="matrix(72,0,0,-72,5.052601,184.4374)"/>
<path style="fill:none;stroke-width:0.006;stroke-linecap:round;stroke-linejoin:miter;stroke:rgb(100%,49.803922%,45.098039%);stroke-opacity:1;stroke-miterlimit:10;" d="M 0.00502031 1.439994 L 0.545005 1.439994 " transform="matrix(72,0,0,-72,5.052601,184.4374)"/>
<path style="fill:none;stroke-width:0.006;stroke-linecap:round;stroke-linejoin:miter;stroke:rgb(100%,49.803922%,45.098039%);stroke-opacity:1;stroke-miterlimit:10;" d="M 0.545005 1.439994 L 0.63002 1.525009 " transform="matrix(72,0,0,-72,5.052601,184.4374)"/>
<path style="fill:none;stroke-width:0.006;stroke-linecap:round;stroke-linejoin:miter;stroke:rgb(100%,49.803922%,45.098039%);stroke-opacity:1;stroke-miterlimit:10;" d="M 0.63002 1.525009 L 0.63002 2.499999 " transform="matrix(72,0,0,-72,5.052601,184.4374)"/>
<path style="fill:none;stroke-width:0.006;stroke-linecap:round;stroke-linejoin:miter;stroke:rgb(100%,49.803922%,45.098039%);stroke-opacity:1;stroke-miterlimit:10;" d="M 0.00502031 0.955022 L 0.549996 0.955022 " transform="matrix(72,0,0,-72,5.052601,184.4374)"/>
<path style="fill:none;stroke-width:0.006;stroke-linecap:round;stroke-linejoin:miter;stroke:rgb(100%,49.803922%,45.098039%);stroke-opacity:1;stroke-miterlimit:10;" d="M 0.549996 0.955022 L 0.63002 0.874999 " transform="matrix(72,0,0,-72,5.052601,184.4374)"/>
<path style=" stroke:none;fill-rule:evenodd;fill:rgb(45.098039%,45.098039%,87.058824%);fill-opacity:1;" d="M 36.121094 99.117188 C 36.121094 98.492188 35.183594 98.492188 35.183594 99.117188 C 35.183594 99.742188 36.121094 99.742188 36.121094 99.117188 "/>
<path style=" stroke:none;fill-rule:evenodd;fill:rgb(45.098039%,45.098039%,87.058824%);fill-opacity:1;" d="M 40.800781 87.597656 C 40.800781 86.972656 39.863281 86.972656 39.863281 87.597656 C 39.863281 88.222656 40.800781 88.222656 40.800781 87.597656 "/>
<path style=" stroke:none;fill-rule:evenodd;fill:rgb(45.098039%,45.098039%,87.058824%);fill-opacity:1;" d="M 45.121094 85.4375 C 45.121094 84.8125 44.183594 84.8125 44.183594 85.4375 C 44.183594 86.0625 45.121094 86.0625 45.121094 85.4375 "/>
<path style=" stroke:none;fill-rule:evenodd;fill:rgb(45.098039%,45.098039%,87.058824%);fill-opacity:1;" d="M 47.28125 97.316406 C 47.28125 96.695312 46.34375 96.695312 46.34375 97.316406 C 46.34375 97.941406 47.28125 97.941406 47.28125 97.316406 "/>
<path style=" stroke:none;fill-rule:evenodd;fill:rgb(45.098039%,45.098039%,87.058824%);fill-opacity:1;" d="M 54.839844 92.636719 C 54.839844 92.011719 53.90625 92.011719 53.90625 92.636719 C 53.90625 93.261719 54.839844 93.261719 54.839844 92.636719 "/>
<path style=" stroke:none;fill-rule:evenodd;fill:rgb(45.098039%,45.098039%,87.058824%);fill-opacity:1;" d="M 54.839844 97.675781 C 54.839844 97.054688 53.90625 97.054688 53.90625 97.675781 C 53.90625 98.300781 54.839844 98.300781 54.839844 97.675781 "/>
<path style=" stroke:none;fill-rule:evenodd;fill:rgb(45.098039%,45.098039%,87.058824%);fill-opacity:1;" d="M 55.199219 115.316406 C 55.199219 114.695312 54.265625 114.695312 54.265625 115.316406 C 54.265625 115.941406 55.199219 115.941406 55.199219 115.316406 "/>
<path style=" stroke:none;fill-rule:evenodd;fill:rgb(45.098039%,45.098039%,87.058824%);fill-opacity:1;" d="M 57 68.515625 C 57 67.894531 56.066406 67.894531 56.066406 68.515625 C 56.066406 69.140625 57 69.140625 57 68.515625 "/>
<path style=" stroke:none;fill-rule:evenodd;fill:rgb(45.098039%,45.098039%,87.058824%);fill-opacity:1;" d="M 62.402344 92.636719 C 62.402344 92.011719 61.464844 92.011719 61.464844 92.636719 C 61.464844 93.261719 62.402344 93.261719 62.402344 92.636719 "/>
<path style=" stroke:none;fill-rule:evenodd;fill:rgb(45.098039%,45.098039%,87.058824%);fill-opacity:1;" d="M 63.121094 52.316406 C 63.121094 51.695312 62.183594 51.695312 62.183594 52.316406 C 62.183594 52.941406 63.121094 52.941406 63.121094 52.316406 "/>
<path style=" stroke:none;fill-rule:evenodd;fill:rgb(45.098039%,45.098039%,87.058824%);fill-opacity:1;" d="M 63.839844 70.246094 C 63.839844 69.621094 62.90625 69.621094 62.90625 70.246094 C 62.90625 70.871094 63.839844 70.871094 63.839844 70.246094 "/>
<path style=" stroke:none;fill-rule:evenodd;fill:rgb(45.098039%,45.098039%,87.058824%);fill-opacity:1;" d="M 63.839844 74.636719 C 63.839844 74.011719 62.90625 74.011719 62.90625 74.636719 C 62.90625 75.261719 63.839844 75.261719 63.839844 74.636719 "/>
<path style=" stroke:none;fill-rule:evenodd;fill:rgb(45.098039%,45.098039%,87.058824%);fill-opacity:1;" d="M 63.839844 79.03125 C 63.839844 78.40625 62.90625 78.40625 62.90625 79.03125 C 62.90625 79.652344 63.839844 79.652344 63.839844 79.03125 "/>
<path style=" stroke:none;fill-rule:evenodd;fill:rgb(45.098039%,45.098039%,87.058824%);fill-opacity:1;" d="M 65.640625 109.558594 C 65.640625 108.933594 64.703125 108.933594 64.703125 109.558594 C 64.703125 110.179688 65.640625 110.179688 65.640625 109.558594 "/>
<path style=" stroke:none;fill-rule:evenodd;fill:rgb(45.098039%,45.098039%,87.058824%);fill-opacity:1;" d="M 67.800781 96.597656 C 67.800781 95.972656 66.863281 95.972656 66.863281 96.597656 C 66.863281 97.222656 67.800781 97.222656 67.800781 96.597656 "/>
<path style=" stroke:none;fill-rule:evenodd;fill:rgb(45.098039%,45.098039%,87.058824%);fill-opacity:1;" d="M 68.519531 77.15625 C 68.519531 76.535156 67.585938 76.535156 67.585938 77.15625 C 67.585938 77.78125 68.519531 77.78125 68.519531 77.15625 "/>
<path style=" stroke:none;fill-rule:evenodd;fill:rgb(45.098039%,45.098039%,87.058824%);fill-opacity:1;" d="M 70.320312 80.757812 C 70.320312 80.132812 69.382812 80.132812 69.382812 80.757812 C 69.382812 81.382812 70.320312 81.382812 70.320312 80.757812 "/>
<path style=" stroke:none;fill-rule:evenodd;fill:rgb(45.098039%,45.098039%,87.058824%);fill-opacity:1;" d="M 71.402344 136.917969 C 71.402344 136.292969 70.464844 136.292969 70.464844 136.917969 C 70.464844 137.542969 71.402344 137.542969 71.402344 136.917969 "/>
<path style=" stroke:none;fill-rule:evenodd;fill:rgb(45.098039%,45.098039%,87.058824%);fill-opacity:1;" d="M 72.839844 88.316406 C 72.839844 87.695312 71.90625 87.695312 71.90625 88.316406 C 71.90625 88.941406 72.839844 88.941406 72.839844 88.316406 "/>
<path style=" stroke:none;fill-rule:evenodd;fill:rgb(45.098039%,45.098039%,87.058824%);fill-opacity:1;" d="M 72.839844 97.675781 C 72.839844 97.054688 71.90625 97.054688 71.90625 97.675781 C 71.90625 98.300781 72.839844 98.300781 72.839844 97.675781 "/>
<path style=" stroke:none;fill-rule:evenodd;fill:rgb(45.098039%,45.098039%,87.058824%);fill-opacity:1;" d="M 73.199219 72.117188 C 73.199219 71.492188 72.265625 71.492188 72.265625 72.117188 C 72.265625 72.742188 73.199219 72.742188 73.199219 72.117188 "/>
<path style=" stroke:none;fill-rule:evenodd;fill:rgb(45.098039%,45.098039%,87.058824%);fill-opacity:1;" d="M 73.5625 82.917969 C 73.5625 82.292969 72.625 82.292969 72.625 82.917969 C 72.625 83.542969 73.5625 83.542969 73.5625 82.917969 "/>
<path style=" stroke:none;fill-rule:evenodd;fill:rgb(45.098039%,45.098039%,87.058824%);fill-opacity:1;" d="M 73.574219 149.789062 C 73.574219 149.167969 72.640625 149.167969 72.640625 149.789062 C 72.640625 150.414062 73.574219 150.414062 73.574219 149.789062 "/>
<path style=" stroke:none;fill-rule:evenodd;fill:rgb(45.098039%,45.098039%,87.058824%);fill-opacity:1;" d="M 74.28125 19.558594 C 74.28125 18.933594 73.34375 18.933594 73.34375 19.558594 C 73.34375 20.179688 74.28125 20.179688 74.28125 19.558594 "/>
<path style=" stroke:none;fill-rule:evenodd;fill:rgb(45.098039%,45.098039%,87.058824%);fill-opacity:1;" d="M 74.28125 27.835938 C 74.28125 27.214844 73.34375 27.214844 73.34375 27.835938 C 73.34375 28.460938 74.28125 28.460938 74.28125 27.835938 "/>
<path style=" stroke:none;fill-rule:evenodd;fill:rgb(45.098039%,45.098039%,87.058824%);fill-opacity:1;" d="M 74.640625 85.4375 C 74.640625 84.8125 73.703125 84.8125 73.703125 85.4375 C 73.703125 86.0625 74.640625 86.0625 74.640625 85.4375 "/>
<path style=" stroke:none;fill-rule:evenodd;fill:rgb(45.098039%,45.098039%,87.058824%);fill-opacity:1;" d="M 75.71875 100.558594 C 75.71875 99.933594 74.785156 99.933594 74.785156 100.558594 C 74.785156 101.179688 75.71875 101.179688 75.71875 100.558594 "/>
<path style=" stroke:none;fill-rule:evenodd;fill:rgb(45.098039%,45.098039%,87.058824%);fill-opacity:1;" d="M 76.082031 33.957031 C 76.082031 33.332031 75.144531 33.332031 75.144531 33.957031 C 75.144531 34.582031 76.082031 34.582031 76.082031 33.957031 "/>
<path style=" stroke:none;fill-rule:evenodd;fill:rgb(45.098039%,45.098039%,87.058824%);fill-opacity:1;" d="M 76.082031 42.957031 C 76.082031 42.332031 75.144531 42.332031 75.144531 42.957031 C 75.144531 43.582031 76.082031 43.582031 76.082031 42.957031 "/>
<path style=" stroke:none;fill-rule:evenodd;fill:rgb(45.098039%,45.098039%,87.058824%);fill-opacity:1;" d="M 77.535156 175.351562 C 77.535156 174.726562 76.597656 174.726562 76.597656 175.351562 C 76.597656 175.976562 77.535156 175.976562 77.535156 175.351562 "/>
<path style=" stroke:none;fill-rule:evenodd;fill:rgb(45.098039%,45.098039%,87.058824%);fill-opacity:1;" d="M 77.878906 19.558594 C 77.878906 18.933594 76.945312 18.933594 76.945312 19.558594 C 76.945312 20.179688 77.878906 20.179688 77.878906 19.558594 "/>
<path style=" stroke:none;fill-rule:evenodd;fill:rgb(45.098039%,45.098039%,87.058824%);fill-opacity:1;" d="M 79.679688 33.957031 C 79.679688 33.332031 78.746094 33.332031 78.746094 33.957031 C 78.746094 34.582031 79.679688 34.582031 79.679688 33.957031 "/>
<path style=" stroke:none;fill-rule:evenodd;fill:rgb(45.098039%,45.098039%,87.058824%);fill-opacity:1;" d="M 79.933594 80.757812 C 79.933594 80.132812 78.996094 80.132812 78.996094 80.757812 C 78.996094 81.382812 79.933594 81.382812 79.933594 80.757812 "/>
<path style=" stroke:none;fill-rule:evenodd;fill:rgb(45.098039%,45.098039%,87.058824%);fill-opacity:1;" d="M 79.933594 83.277344 C 79.933594 82.652344 78.996094 82.652344 78.996094 83.277344 C 78.996094 83.902344 79.933594 83.902344 79.933594 83.277344 "/>
<path style=" stroke:none;fill-rule:evenodd;fill:rgb(45.098039%,45.098039%,87.058824%);fill-opacity:1;" d="M 80.039062 69.238281 C 80.039062 68.613281 79.105469 68.613281 79.105469 69.238281 C 79.105469 69.863281 80.039062 69.863281 80.039062 69.238281 "/>
<path style=" stroke:none;fill-rule:evenodd;fill:rgb(45.098039%,45.098039%,87.058824%);fill-opacity:1;" d="M 80.039062 109.558594 C 80.039062 108.933594 79.105469 108.933594 79.105469 109.558594 C 79.105469 110.179688 80.039062 110.179688 80.039062 109.558594 "/>
<path style=" stroke:none;fill-rule:evenodd;fill:rgb(45.098039%,45.098039%,87.058824%);fill-opacity:1;" d="M 81.480469 19.558594 C 81.480469 18.933594 80.542969 18.933594 80.542969 19.558594 C 80.542969 20.179688 81.480469 20.179688 81.480469 19.558594 "/>
<path style=" stroke:none;fill-rule:evenodd;fill:rgb(45.098039%,45.098039%,87.058824%);fill-opacity:1;" d="M 81.480469 27.835938 C 81.480469 27.214844 80.542969 27.214844 80.542969 27.835938 C 80.542969 28.460938 81.480469 28.460938 81.480469 27.835938 "/>
<path style=" stroke:none;fill-rule:evenodd;fill:rgb(45.098039%,45.098039%,87.058824%);fill-opacity:1;" d="M 81.839844 61.316406 C 81.839844 60.695312 80.90625 60.695312 80.90625 61.316406 C 80.90625 61.941406 81.839844 61.941406 81.839844 61.316406 "/>
<path style=" stroke:none;fill-rule:evenodd;fill:rgb(45.098039%,45.098039%,87.058824%);fill-opacity:1;" d="M 82.921875 42.957031 C 82.921875 42.332031 81.984375 42.332031 81.984375 42.957031 C 81.984375 43.582031 82.921875 43.582031 82.921875 42.957031 "/>
<path style=" stroke:none;fill-rule:evenodd;fill:rgb(45.098039%,45.098039%,87.058824%);fill-opacity:1;" d="M 83.53125 68.230469 C 83.53125 67.605469 82.597656 67.605469 82.597656 68.230469 C 82.597656 68.851562 83.53125 68.851562 83.53125 68.230469 "/>
<path style=" stroke:none;fill-rule:evenodd;fill:rgb(45.098039%,45.098039%,87.058824%);fill-opacity:1;" d="M 84.359375 76.4375 C 84.359375 75.8125 83.425781 75.8125 83.425781 76.4375 C 83.425781 77.0625 84.359375 77.0625 84.359375 76.4375 "/>
<path style=" stroke:none;fill-rule:evenodd;fill:rgb(45.098039%,45.098039%,87.058824%);fill-opacity:1;" d="M 84.375 143.3125 C 84.375 142.6875 83.4375 142.6875 83.4375 143.3125 C 83.4375 143.933594 84.375 143.933594 84.375 143.3125 "/>
<path style=" stroke:none;fill-rule:evenodd;fill:rgb(45.098039%,45.098039%,87.058824%);fill-opacity:1;" d="M 85.691406 98.039062 C 85.691406 97.414062 84.757812 97.414062 84.757812 98.039062 C 84.757812 98.660156 85.691406 98.660156 85.691406 98.039062 "/>
<path style=" stroke:none;fill-rule:evenodd;fill:rgb(45.098039%,45.098039%,87.058824%);fill-opacity:1;" d="M 85.980469 68.230469 C 85.980469 67.605469 85.042969 67.605469 85.042969 68.230469 C 85.042969 68.851562 85.980469 68.851562 85.980469 68.230469 "/>
<path style=" stroke:none;fill-rule:evenodd;fill:rgb(45.098039%,45.098039%,87.058824%);fill-opacity:1;" d="M 88.210938 98.039062 C 88.210938 97.414062 87.277344 97.414062 87.277344 98.039062 C 87.277344 98.660156 88.210938 98.660156 88.210938 98.039062 "/>
<path style=" stroke:none;fill-rule:evenodd;fill:rgb(45.098039%,45.098039%,87.058824%);fill-opacity:1;" d="M 88.429688 68.230469 C 88.429688 67.605469 87.492188 67.605469 87.492188 68.230469 C 87.492188 68.851562 88.429688 68.851562 88.429688 68.230469 "/>
<path style=" stroke:none;fill-rule:evenodd;fill:rgb(45.098039%,45.098039%,87.058824%);fill-opacity:1;" d="M 88.679688 129.71875 C 88.679688 129.09375 87.746094 129.09375 87.746094 129.71875 C 87.746094 130.339844 88.679688 130.339844 88.679688 129.71875 "/>
<path style=" stroke:none;fill-rule:evenodd;fill:rgb(45.098039%,45.098039%,87.058824%);fill-opacity:1;" d="M 90.839844 98.039062 C 90.839844 97.414062 89.90625 97.414062 89.90625 98.039062 C 89.90625 98.660156 90.839844 98.660156 90.839844 98.039062 "/>
<path style=" stroke:none;fill-rule:evenodd;fill:rgb(45.098039%,45.098039%,87.058824%);fill-opacity:1;" d="M 91.921875 76.796875 C 91.921875 76.171875 90.984375 76.171875 90.984375 76.796875 C 90.984375 77.421875 91.921875 77.421875 91.921875 76.796875 "/>
<path style=" stroke:none;fill-rule:evenodd;fill:rgb(45.098039%,45.098039%,87.058824%);fill-opacity:1;" d="M 93 86.515625 C 93 85.894531 92.066406 85.894531 92.066406 86.515625 C 92.066406 87.140625 93 87.140625 93 86.515625 "/>
<path style=" stroke:none;fill-rule:evenodd;fill:rgb(45.098039%,45.098039%,87.058824%);fill-opacity:1;" d="M 94.441406 110.277344 C 94.441406 109.652344 93.503906 109.652344 93.503906 110.277344 C 93.503906 110.902344 94.441406 110.902344 94.441406 110.277344 "/>
<path style=" stroke:none;fill-rule:evenodd;fill:rgb(45.098039%,45.098039%,87.058824%);fill-opacity:1;" d="M 97.320312 60.597656 C 97.320312 59.972656 96.382812 59.972656 96.382812 60.597656 C 96.382812 61.222656 97.320312 61.222656 97.320312 60.597656 "/>
<path style=" stroke:none;fill-rule:evenodd;fill:rgb(45.098039%,45.098039%,87.058824%);fill-opacity:1;" d="M 98.773438 165.992188 C 98.773438 165.367188 97.839844 165.367188 97.839844 165.992188 C 97.839844 166.613281 98.773438 166.613281 98.773438 165.992188 "/>
<path style=" stroke:none;fill-rule:evenodd;fill:rgb(45.098039%,45.098039%,87.058824%);fill-opacity:1;" d="M 99.136719 150.511719 C 99.136719 149.886719 98.199219 149.886719 98.199219 150.511719 C 98.199219 151.136719 99.136719 151.136719 99.136719 150.511719 "/>
<path style=" stroke:none;fill-rule:evenodd;fill:rgb(45.098039%,45.098039%,87.058824%);fill-opacity:1;" d="M 99.480469 70.675781 C 99.480469 70.054688 98.542969 70.054688 98.542969 70.675781 C 98.542969 71.300781 99.480469 71.300781 99.480469 70.675781 "/>
<path style=" stroke:none;fill-rule:evenodd;fill:rgb(45.098039%,45.098039%,87.058824%);fill-opacity:1;" d="M 99.855469 175.710938 C 99.855469 175.085938 98.917969 175.085938 98.917969 175.710938 C 98.917969 176.335938 99.855469 176.335938 99.855469 175.710938 "/>
<path style=" stroke:none;fill-rule:evenodd;fill:rgb(45.098039%,45.098039%,87.058824%);fill-opacity:1;" d="M 100.199219 53.039062 C 100.199219 52.414062 99.265625 52.414062 99.265625 53.039062 C 99.265625 53.660156 100.199219 53.660156 100.199219 53.039062 "/>
<path style=" stroke:none;fill-rule:evenodd;fill:rgb(45.098039%,45.098039%,87.058824%);fill-opacity:1;" d="M 100.199219 96.238281 C 100.199219 95.613281 99.265625 95.613281 99.265625 96.238281 C 99.265625 96.863281 100.199219 96.863281 100.199219 96.238281 "/>
<path style=" stroke:none;fill-rule:evenodd;fill:rgb(45.098039%,45.098039%,87.058824%);fill-opacity:1;" d="M 100.214844 136.109375 C 100.214844 135.488281 99.277344 135.488281 99.277344 136.109375 C 99.277344 136.734375 100.214844 136.734375 100.214844 136.109375 "/>
<path style=" stroke:none;fill-rule:evenodd;fill:rgb(45.098039%,45.098039%,87.058824%);fill-opacity:1;" d="M 101.65625 171.390625 C 101.65625 170.765625 100.71875 170.765625 100.71875 171.390625 C 100.71875 172.015625 101.65625 172.015625 101.65625 171.390625 "/>
<path style=" stroke:none;fill-rule:evenodd;fill:rgb(45.098039%,45.098039%,87.058824%);fill-opacity:1;" d="M 102 84.355469 C 102 83.734375 101.066406 83.734375 101.066406 84.355469 C 101.066406 84.980469 102 84.980469 102 84.355469 "/>
<path style=" stroke:none;fill-rule:evenodd;fill:rgb(45.098039%,45.098039%,87.058824%);fill-opacity:1;" d="M 102.375 175.351562 C 102.375 174.726562 101.4375 174.726562 101.4375 175.351562 C 101.4375 175.976562 102.375 175.976562 102.375 175.351562 "/>
<path style=" stroke:none;fill-rule:evenodd;fill:rgb(45.098039%,45.098039%,87.058824%);fill-opacity:1;" d="M 102.71875 78.238281 C 102.71875 77.613281 101.785156 77.613281 101.785156 78.238281 C 101.785156 78.863281 102.71875 78.863281 102.71875 78.238281 "/>
<path style=" stroke:none;fill-rule:evenodd;fill:rgb(45.098039%,45.098039%,87.058824%);fill-opacity:1;" d="M 103.441406 96.238281 C 103.441406 95.613281 102.503906 95.613281 102.503906 96.238281 C 102.503906 96.863281 103.441406 96.863281 103.441406 96.238281 "/>
<path style=" stroke:none;fill-rule:evenodd;fill:rgb(45.098039%,45.098039%,87.058824%);fill-opacity:1;" d="M 104.160156 86.515625 C 104.160156 85.894531 103.222656 85.894531 103.222656 86.515625 C 103.222656 87.140625 104.160156 87.140625 104.160156 86.515625 "/>
<path style=" stroke:none;fill-rule:evenodd;fill:rgb(45.098039%,45.098039%,87.058824%);fill-opacity:1;" d="M 106.320312 88.675781 C 106.320312 88.054688 105.382812 88.054688 105.382812 88.675781 C 105.382812 89.300781 106.320312 89.300781 106.320312 88.675781 "/>
<path style=" stroke:none;fill-rule:evenodd;fill:rgb(45.098039%,45.098039%,87.058824%);fill-opacity:1;" d="M 106.679688 68.515625 C 106.679688 67.894531 105.746094 67.894531 105.746094 68.515625 C 105.746094 69.140625 106.679688 69.140625 106.679688 68.515625 "/>
<path style=" stroke:none;fill-rule:evenodd;fill:rgb(45.098039%,45.098039%,87.058824%);fill-opacity:1;" d="M 109.199219 88.675781 C 109.199219 88.054688 108.265625 88.054688 108.265625 88.675781 C 108.265625 89.300781 109.199219 89.300781 109.199219 88.675781 "/>
<path style=" stroke:none;fill-rule:evenodd;fill:rgb(45.098039%,45.098039%,87.058824%);fill-opacity:1;" d="M 109.5625 64.917969 C 109.5625 64.292969 108.625 64.292969 108.625 64.917969 C 108.625 65.542969 109.5625 65.542969 109.5625 64.917969 "/>
<path style=" stroke:none;fill-rule:evenodd;fill:rgb(45.098039%,45.098039%,87.058824%);fill-opacity:1;" d="M 109.8125 92.277344 C 109.8125 91.652344 108.875 91.652344 108.875 92.277344 C 108.875 92.902344 109.8125 92.902344 109.8125 92.277344 "/>
<path style=" stroke:none;fill-rule:evenodd;fill:rgb(45.098039%,45.098039%,87.058824%);fill-opacity:1;" d="M 109.921875 95.515625 C 109.921875 94.894531 108.984375 94.894531 108.984375 95.515625 C 108.984375 96.140625 109.921875 96.140625 109.921875 95.515625 "/>
<path style=" stroke:none;fill-rule:evenodd;fill:rgb(45.098039%,45.098039%,87.058824%);fill-opacity:1;" d="M 110.65625 132.871094 C 110.65625 132.246094 109.71875 132.246094 109.71875 132.871094 C 109.71875 133.496094 110.65625 133.496094 110.65625 132.871094 "/>
<path style=" stroke:none;fill-rule:evenodd;fill:rgb(45.098039%,45.098039%,87.058824%);fill-opacity:1;" d="M 110.863281 101.054688 C 110.863281 100.429688 109.929688 100.429688 109.929688 101.054688 C 109.929688 101.679688 110.863281 101.679688 110.863281 101.054688 "/>
<path style=" stroke:none;fill-rule:evenodd;fill:rgb(45.098039%,45.098039%,87.058824%);fill-opacity:1;" d="M 115.320312 52.316406 C 115.320312 51.695312 114.382812 51.695312 114.382812 52.316406 C 114.382812 52.941406 115.320312 52.941406 115.320312 52.316406 "/>
<path style=" stroke:none;fill-rule:evenodd;fill:rgb(45.098039%,45.098039%,87.058824%);fill-opacity:1;" d="M 117.136719 146.910156 C 117.136719 146.285156 116.199219 146.285156 116.199219 146.910156 C 116.199219 147.535156 117.136719 147.535156 117.136719 146.910156 "/>
<path style=" stroke:none;fill-rule:evenodd;fill:rgb(45.098039%,45.098039%,87.058824%);fill-opacity:1;" d="M 117.136719 157.351562 C 117.136719 156.726562 116.199219 156.726562 116.199219 157.351562 C 116.199219 157.976562 117.136719 157.976562 117.136719 157.351562 "/>
<path style=" stroke:none;fill-rule:evenodd;fill:rgb(45.098039%,45.098039%,87.058824%);fill-opacity:1;" d="M 117.136719 160.589844 C 117.136719 159.96875 116.199219 159.96875 116.199219 160.589844 C 116.199219 161.214844 117.136719 161.214844 117.136719 160.589844 "/>
<path style=" stroke:none;fill-rule:evenodd;fill:rgb(45.098039%,45.098039%,87.058824%);fill-opacity:1;" d="M 117.136719 165.632812 C 117.136719 165.007812 116.199219 165.007812 116.199219 165.632812 C 116.199219 166.253906 117.136719 166.253906 117.136719 165.632812 "/>
<path style=" stroke:none;fill-rule:evenodd;fill:rgb(45.098039%,45.098039%,87.058824%);fill-opacity:1;" d="M 118.921875 71.039062 C 118.921875 70.414062 117.984375 70.414062 117.984375 71.039062 C 117.984375 71.660156 118.921875 71.660156 118.921875 71.039062 "/>
<path style=" stroke:none;fill-rule:evenodd;fill:rgb(45.098039%,45.098039%,87.058824%);fill-opacity:1;" d="M 119.28125 88.675781 C 119.28125 88.054688 118.34375 88.054688 118.34375 88.675781 C 118.34375 89.300781 119.28125 89.300781 119.28125 88.675781 "/>
<path style=" stroke:none;fill-rule:evenodd;fill:rgb(45.098039%,45.098039%,87.058824%);fill-opacity:1;" d="M 120.71875 67.4375 C 120.71875 66.8125 119.785156 66.8125 119.785156 67.4375 C 119.785156 68.0625 120.71875 68.0625 120.71875 67.4375 "/>
<path style=" stroke:none;fill-rule:evenodd;fill:rgb(45.098039%,45.098039%,87.058824%);fill-opacity:1;" d="M 120.71875 103.4375 C 120.71875 102.8125 119.785156 102.8125 119.785156 103.4375 C 119.785156 104.0625 120.71875 104.0625 120.71875 103.4375 "/>
<path style=" stroke:none;fill-rule:evenodd;fill:rgb(45.098039%,45.098039%,87.058824%);fill-opacity:1;" d="M 120.734375 146.910156 C 120.734375 146.285156 119.800781 146.285156 119.800781 146.910156 C 119.800781 147.535156 120.734375 147.535156 120.734375 146.910156 "/>
<path style=" stroke:none;fill-rule:evenodd;fill:rgb(45.098039%,45.098039%,87.058824%);fill-opacity:1;" d="M 124.320312 62.039062 C 124.320312 61.414062 123.382812 61.414062 123.382812 62.039062 C 123.382812 62.660156 124.320312 62.660156 124.320312 62.039062 "/>
<path style=" stroke:none;fill-rule:evenodd;fill:rgb(45.098039%,45.098039%,87.058824%);fill-opacity:1;" d="M 125.039062 77.515625 C 125.039062 76.894531 124.105469 76.894531 124.105469 77.515625 C 124.105469 78.140625 125.039062 78.140625 125.039062 77.515625 "/>
<path style=" stroke:none;fill-rule:evenodd;fill:rgb(45.098039%,45.098039%,87.058824%);fill-opacity:1;" d="M 125.039062 85.4375 C 125.039062 84.8125 124.105469 84.8125 124.105469 85.4375 C 124.105469 86.0625 125.039062 86.0625 125.039062 85.4375 "/>
<path style=" stroke:none;fill-rule:evenodd;fill:rgb(45.098039%,45.098039%,87.058824%);fill-opacity:1;" d="M 125.039062 91.917969 C 125.039062 91.292969 124.105469 91.292969 124.105469 91.917969 C 124.105469 92.542969 125.039062 92.542969 125.039062 91.917969 "/>
<path style=" stroke:none;fill-rule:evenodd;fill:rgb(45.098039%,45.098039%,87.058824%);fill-opacity:1;" d="M 126.480469 19.558594 C 126.480469 18.933594 125.542969 18.933594 125.542969 19.558594 C 125.542969 20.179688 126.480469 20.179688 126.480469 19.558594 "/>
<path style=" stroke:none;fill-rule:evenodd;fill:rgb(45.098039%,45.098039%,87.058824%);fill-opacity:1;" d="M 126.480469 27.835938 C 126.480469 27.214844 125.542969 27.214844 125.542969 27.835938 C 125.542969 28.460938 126.480469 28.460938 126.480469 27.835938 "/>
<path style=" stroke:none;fill-rule:evenodd;fill:rgb(45.098039%,45.098039%,87.058824%);fill-opacity:1;" d="M 127.921875 62.039062 C 127.921875 61.414062 126.984375 61.414062 126.984375 62.039062 C 126.984375 62.660156 127.921875 62.660156 127.921875 62.039062 "/>
<path style=" stroke:none;fill-rule:evenodd;fill:rgb(45.098039%,45.098039%,87.058824%);fill-opacity:1;" d="M 127.921875 72.117188 C 127.921875 71.492188 126.984375 71.492188 126.984375 72.117188 C 126.984375 72.742188 127.921875 72.742188 127.921875 72.117188 "/>
<path style=" stroke:none;fill-rule:evenodd;fill:rgb(45.098039%,45.098039%,87.058824%);fill-opacity:1;" d="M 127.933594 146.910156 C 127.933594 146.285156 127 146.285156 127 146.910156 C 127 147.535156 127.933594 147.535156 127.933594 146.910156 "/>
<path style=" stroke:none;fill-rule:evenodd;fill:rgb(45.098039%,45.098039%,87.058824%);fill-opacity:1;" d="M 127.933594 165.632812 C 127.933594 165.007812 127 165.007812 127 165.632812 C 127 166.253906 127.933594 166.253906 127.933594 165.632812 "/>
<path style=" stroke:none;fill-rule:evenodd;fill:rgb(45.098039%,45.098039%,87.058824%);fill-opacity:1;" d="M 128.28125 33.957031 C 128.28125 33.332031 127.34375 33.332031 127.34375 33.957031 C 127.34375 34.582031 128.28125 34.582031 128.28125 33.957031 "/>
<path style=" stroke:none;fill-rule:evenodd;fill:rgb(45.098039%,45.098039%,87.058824%);fill-opacity:1;" d="M 128.28125 42.957031 C 128.28125 42.332031 127.34375 42.332031 127.34375 42.957031 C 127.34375 43.582031 128.28125 43.582031 128.28125 42.957031 "/>
<path style=" stroke:none;fill-rule:evenodd;fill:rgb(45.098039%,45.098039%,87.058824%);fill-opacity:1;" d="M 128.28125 85.4375 C 128.28125 84.8125 127.34375 84.8125 127.34375 85.4375 C 127.34375 86.0625 128.28125 86.0625 128.28125 85.4375 "/>
<path style=" stroke:none;fill-rule:evenodd;fill:rgb(45.098039%,45.098039%,87.058824%);fill-opacity:1;" d="M 128.28125 91.917969 C 128.28125 91.292969 127.34375 91.292969 127.34375 91.917969 C 127.34375 92.542969 128.28125 92.542969 128.28125 91.917969 "/>
<path style=" stroke:none;fill-rule:evenodd;fill:rgb(45.098039%,45.098039%,87.058824%);fill-opacity:1;" d="M 130.082031 19.558594 C 130.082031 18.933594 129.144531 18.933594 129.144531 19.558594 C 129.144531 20.179688 130.082031 20.179688 130.082031 19.558594 "/>
<path style=" stroke:none;fill-rule:evenodd;fill:rgb(45.098039%,45.098039%,87.058824%);fill-opacity:1;" d="M 131.519531 62.039062 C 131.519531 61.414062 130.585938 61.414062 130.585938 62.039062 C 130.585938 62.660156 131.519531 62.660156 131.519531 62.039062 "/>
<path style=" stroke:none;fill-rule:evenodd;fill:rgb(45.098039%,45.098039%,87.058824%);fill-opacity:1;" d="M 131.519531 72.117188 C 131.519531 71.492188 130.585938 71.492188 130.585938 72.117188 C 130.585938 72.742188 131.519531 72.742188 131.519531 72.117188 "/>
<path style=" stroke:none;fill-rule:evenodd;fill:rgb(45.098039%,45.098039%,87.058824%);fill-opacity:1;" d="M 131.519531 79.675781 C 131.519531 79.054688 130.585938 79.054688 130.585938 79.675781 C 130.585938 80.300781 131.519531 80.300781 131.519531 79.675781 "/>
<path style=" stroke:none;fill-rule:evenodd;fill:rgb(45.098039%,45.098039%,87.058824%);fill-opacity:1;" d="M 131.519531 85.4375 C 131.519531 84.8125 130.585938 84.8125 130.585938 85.4375 C 130.585938 86.0625 131.519531 86.0625 131.519531 85.4375 "/>
<path style=" stroke:none;fill-rule:evenodd;fill:rgb(45.098039%,45.098039%,87.058824%);fill-opacity:1;" d="M 131.519531 91.917969 C 131.519531 91.292969 130.585938 91.292969 130.585938 91.917969 C 130.585938 92.542969 131.519531 92.542969 131.519531 91.917969 "/>
<path style=" stroke:none;fill-rule:evenodd;fill:rgb(45.098039%,45.098039%,87.058824%);fill-opacity:1;" d="M 131.535156 146.910156 C 131.535156 146.285156 130.597656 146.285156 130.597656 146.910156 C 130.597656 147.535156 131.535156 147.535156 131.535156 146.910156 "/>
<path style=" stroke:none;fill-rule:evenodd;fill:rgb(45.098039%,45.098039%,87.058824%);fill-opacity:1;" d="M 131.535156 160.589844 C 131.535156 159.96875 130.597656 159.96875 130.597656 160.589844 C 130.597656 161.214844 131.535156 161.214844 131.535156 160.589844 "/>
<path style=" stroke:none;fill-rule:evenodd;fill:rgb(45.098039%,45.098039%,87.058824%);fill-opacity:1;" d="M 131.535156 165.632812 C 131.535156 165.007812 130.597656 165.007812 130.597656 165.632812 C 130.597656 166.253906 131.535156 166.253906 131.535156 165.632812 "/>
<path style=" stroke:none;fill-rule:evenodd;fill:rgb(45.098039%,45.098039%,87.058824%);fill-opacity:1;" d="M 131.878906 33.957031 C 131.878906 33.332031 130.945312 33.332031 130.945312 33.957031 C 130.945312 34.582031 131.878906 34.582031 131.878906 33.957031 "/>
<path style=" stroke:none;fill-rule:evenodd;fill:rgb(45.098039%,45.098039%,87.058824%);fill-opacity:1;" d="M 133.335938 150.871094 C 133.335938 150.246094 132.398438 150.246094 132.398438 150.871094 C 132.398438 151.496094 133.335938 151.496094 133.335938 150.871094 "/>
<path style=" stroke:none;fill-rule:evenodd;fill:rgb(45.098039%,45.098039%,87.058824%);fill-opacity:1;" d="M 133.679688 19.558594 C 133.679688 18.933594 132.746094 18.933594 132.746094 19.558594 C 132.746094 20.179688 133.679688 20.179688 133.679688 19.558594 "/>
<path style=" stroke:none;fill-rule:evenodd;fill:rgb(45.098039%,45.098039%,87.058824%);fill-opacity:1;" d="M 133.679688 27.835938 C 133.679688 27.214844 132.746094 27.214844 132.746094 27.835938 C 132.746094 28.460938 133.679688 28.460938 133.679688 27.835938 "/>
<path style=" stroke:none;fill-rule:evenodd;fill:rgb(45.098039%,45.098039%,87.058824%);fill-opacity:1;" d="M 135.121094 42.957031 C 135.121094 42.332031 134.183594 42.332031 134.183594 42.957031 C 134.183594 43.582031 135.121094 43.582031 135.121094 42.957031 "/>
<path style=" stroke:none;fill-rule:evenodd;fill:rgb(45.098039%,45.098039%,87.058824%);fill-opacity:1;" d="M 135.121094 62.039062 C 135.121094 61.414062 134.183594 61.414062 134.183594 62.039062 C 134.183594 62.660156 135.121094 62.660156 135.121094 62.039062 "/>
<path style=" stroke:none;fill-rule:evenodd;fill:rgb(45.098039%,45.098039%,87.058824%);fill-opacity:1;" d="M 135.121094 72.117188 C 135.121094 71.492188 134.183594 71.492188 134.183594 72.117188 C 134.183594 72.742188 135.121094 72.742188 135.121094 72.117188 "/>
<path style=" stroke:none;fill-rule:evenodd;fill:rgb(45.098039%,45.098039%,87.058824%);fill-opacity:1;" d="M 135.121094 79.675781 C 135.121094 79.054688 134.183594 79.054688 134.183594 79.675781 C 134.183594 80.300781 135.121094 80.300781 135.121094 79.675781 "/>
<path style=" stroke:none;fill-rule:evenodd;fill:rgb(45.098039%,45.098039%,87.058824%);fill-opacity:1;" d="M 135.121094 85.4375 C 135.121094 84.8125 134.183594 84.8125 134.183594 85.4375 C 134.183594 86.0625 135.121094 86.0625 135.121094 85.4375 "/>
<path style=" stroke:none;fill-rule:evenodd;fill:rgb(45.098039%,45.098039%,87.058824%);fill-opacity:1;" d="M 135.121094 91.917969 C 135.121094 91.292969 134.183594 91.292969 134.183594 91.917969 C 134.183594 92.542969 135.121094 92.542969 135.121094 91.917969 "/>
<path style=" stroke:none;fill-rule:evenodd;fill:rgb(45.098039%,45.098039%,87.058824%);fill-opacity:1;" d="M 135.136719 146.910156 C 135.136719 146.285156 134.199219 146.285156 134.199219 146.910156 C 134.199219 147.535156 135.136719 147.535156 135.136719 146.910156 "/>
<path style=" stroke:none;fill-rule:evenodd;fill:rgb(45.098039%,45.098039%,87.058824%);fill-opacity:1;" d="M 135.136719 160.589844 C 135.136719 159.96875 134.199219 159.96875 134.199219 160.589844 C 134.199219 161.214844 135.136719 161.214844 135.136719 160.589844 "/>
<path style=" stroke:none;fill-rule:evenodd;fill:rgb(45.098039%,45.098039%,87.058824%);fill-opacity:1;" d="M 135.136719 165.632812 C 135.136719 165.007812 134.199219 165.007812 134.199219 165.632812 C 134.199219 166.253906 135.136719 166.253906 135.136719 165.632812 "/>
<path style=" stroke:none;fill-rule:evenodd;fill:rgb(45.098039%,45.098039%,87.058824%);fill-opacity:1;" d="M 138.734375 165.632812 C 138.734375 165.007812 137.800781 165.007812 137.800781 165.632812 C 137.800781 166.253906 138.734375 166.253906 138.734375 165.632812 "/>
<path style=" stroke:none;fill-rule:evenodd;fill:rgb(45.098039%,45.098039%,87.058824%);fill-opacity:1;" d="M 141.601562 76.078125 C 141.601562 75.453125 140.664062 75.453125 140.664062 76.078125 C 140.664062 76.703125 141.601562 76.703125 141.601562 76.078125 "/>
<path style=" stroke:none;fill-rule:evenodd;fill:rgb(45.098039%,45.098039%,87.058824%);fill-opacity:1;" d="M 142.320312 62.039062 C 142.320312 61.414062 141.382812 61.414062 141.382812 62.039062 C 141.382812 62.660156 142.320312 62.660156 142.320312 62.039062 "/>
<path style=" stroke:none;fill-rule:evenodd;fill:rgb(45.098039%,45.098039%,87.058824%);fill-opacity:1;" d="M 142.335938 146.910156 C 142.335938 146.285156 141.398438 146.285156 141.398438 146.910156 C 141.398438 147.535156 142.335938 147.535156 142.335938 146.910156 "/>
<path style=" stroke:none;fill-rule:evenodd;fill:rgb(45.098039%,45.098039%,87.058824%);fill-opacity:1;" d="M 142.335938 165.632812 C 142.335938 165.007812 141.398438 165.007812 141.398438 165.632812 C 141.398438 166.253906 142.335938 166.253906 142.335938 165.632812 "/>
<path style=" stroke:none;fill-rule:evenodd;fill:rgb(45.098039%,45.098039%,87.058824%);fill-opacity:1;" d="M 145.921875 62.039062 C 145.921875 61.414062 144.984375 61.414062 144.984375 62.039062 C 144.984375 62.660156 145.921875 62.660156 145.921875 62.039062 "/>
<path style=" stroke:none;fill-rule:evenodd;fill:rgb(45.098039%,45.098039%,87.058824%);fill-opacity:1;" d="M 145.933594 160.589844 C 145.933594 159.96875 145 159.96875 145 160.589844 C 145 161.214844 145.933594 161.214844 145.933594 160.589844 "/>
<path style=" stroke:none;fill-rule:evenodd;fill:rgb(45.098039%,45.098039%,87.058824%);fill-opacity:1;" d="M 145.933594 165.632812 C 145.933594 165.007812 145 165.007812 145 165.632812 C 145 166.253906 145.933594 166.253906 145.933594 165.632812 "/>
<path style=" stroke:none;fill-rule:evenodd;fill:rgb(45.098039%,45.098039%,87.058824%);fill-opacity:1;" d="M 149.160156 121.796875 C 149.160156 121.171875 148.222656 121.171875 148.222656 121.796875 C 148.222656 122.421875 149.160156 122.421875 149.160156 121.796875 "/>
<path style=" stroke:none;fill-rule:evenodd;fill:rgb(45.098039%,45.098039%,87.058824%);fill-opacity:1;" d="M 149.519531 62.039062 C 149.519531 61.414062 148.585938 61.414062 148.585938 62.039062 C 148.585938 62.660156 149.519531 62.660156 149.519531 62.039062 "/>
<path style=" stroke:none;fill-rule:evenodd;fill:rgb(45.098039%,45.098039%,87.058824%);fill-opacity:1;" d="M 149.535156 160.589844 C 149.535156 159.96875 148.597656 159.96875 148.597656 160.589844 C 148.597656 161.214844 149.535156 161.214844 149.535156 160.589844 "/>
<path style=" stroke:none;fill-rule:evenodd;fill:rgb(45.098039%,45.098039%,87.058824%);fill-opacity:1;" d="M 149.535156 165.632812 C 149.535156 165.007812 148.597656 165.007812 148.597656 165.632812 C 148.597656 166.253906 149.535156 166.253906 149.535156 165.632812 "/>
<path style=" stroke:none;fill-rule:evenodd;fill:rgb(45.098039%,45.098039%,87.058824%);fill-opacity:1;" d="M 152.761719 70.675781 C 152.761719 70.054688 151.824219 70.054688 151.824219 70.675781 C 151.824219 71.300781 152.761719 71.300781 152.761719 70.675781 "/>
<path style=" stroke:none;fill-rule:evenodd;fill:rgb(45.098039%,45.098039%,87.058824%);fill-opacity:1;" d="M 152.761719 127.917969 C 152.761719 127.292969 151.824219 127.292969 151.824219 127.917969 C 151.824219 128.542969 152.761719 128.542969 152.761719 127.917969 "/>
<path style=" stroke:none;fill-rule:evenodd;fill:rgb(45.098039%,45.098039%,87.058824%);fill-opacity:1;" d="M 153.121094 108.117188 C 153.121094 107.492188 152.183594 107.492188 152.183594 108.117188 C 152.183594 108.742188 153.121094 108.742188 153.121094 108.117188 "/>
<path style=" stroke:none;fill-rule:evenodd;fill:rgb(45.098039%,45.098039%,87.058824%);fill-opacity:1;" d="M 153.121094 118.917969 C 153.121094 118.292969 152.183594 118.292969 152.183594 118.917969 C 152.183594 119.542969 153.121094 119.542969 153.121094 118.917969 "/>
<path style=" stroke:none;fill-rule:evenodd;fill:rgb(45.098039%,45.098039%,87.058824%);fill-opacity:1;" d="M 153.136719 160.589844 C 153.136719 159.96875 152.199219 159.96875 152.199219 160.589844 C 152.199219 161.214844 153.136719 161.214844 153.136719 160.589844 "/>
<path style=" stroke:none;fill-rule:evenodd;fill:rgb(45.098039%,45.098039%,87.058824%);fill-opacity:1;" d="M 153.136719 165.632812 C 153.136719 165.007812 152.199219 165.007812 152.199219 165.632812 C 152.199219 166.253906 153.136719 166.253906 153.136719 165.632812 "/>
<path style=" stroke:none;fill-rule:evenodd;fill:rgb(45.098039%,45.098039%,87.058824%);fill-opacity:1;" d="M 156 149.15625 C 156 148.535156 155.066406 148.535156 155.066406 149.15625 C 155.066406 149.78125 156 149.78125 156 149.15625 "/>
<path style=" stroke:none;fill-rule:evenodd;fill:rgb(45.098039%,45.098039%,87.058824%);fill-opacity:1;" d="M 156.734375 165.632812 C 156.734375 165.007812 155.800781 165.007812 155.800781 165.632812 C 155.800781 166.253906 156.734375 166.253906 156.734375 165.632812 "/>
<path style=" stroke:none;fill-rule:evenodd;fill:rgb(45.098039%,45.098039%,87.058824%);fill-opacity:1;" d="M 158.519531 116.039062 C 158.519531 115.414062 157.585938 115.414062 157.585938 116.039062 C 157.585938 116.660156 158.519531 116.660156 158.519531 116.039062 "/>
<path style=" stroke:none;fill-rule:evenodd;fill:rgb(45.098039%,45.098039%,87.058824%);fill-opacity:1;" d="M 158.519531 122.515625 C 158.519531 121.894531 157.585938 121.894531 157.585938 122.515625 C 157.585938 123.140625 158.519531 123.140625 158.519531 122.515625 "/>
<path style=" stroke:none;fill-rule:evenodd;fill:rgb(45.098039%,45.098039%,87.058824%);fill-opacity:1;" d="M 159.960938 54.132812 C 159.960938 53.507812 159.023438 53.507812 159.023438 54.132812 C 159.023438 54.753906 159.960938 54.753906 159.960938 54.132812 "/>
<path style=" stroke:none;fill-rule:evenodd;fill:rgb(45.098039%,45.098039%,87.058824%);fill-opacity:1;" d="M 160.335938 146.910156 C 160.335938 146.285156 159.398438 146.285156 159.398438 146.910156 C 159.398438 147.535156 160.335938 147.535156 160.335938 146.910156 "/>
<path style=" stroke:none;fill-rule:evenodd;fill:rgb(45.098039%,45.098039%,87.058824%);fill-opacity:1;" d="M 160.335938 165.632812 C 160.335938 165.007812 159.398438 165.007812 159.398438 165.632812 C 159.398438 166.253906 160.335938 166.253906 160.335938 165.632812 "/>
<path style=" stroke:none;fill-rule:evenodd;fill:rgb(45.098039%,45.098039%,87.058824%);fill-opacity:1;" d="M 161.761719 9.835938 C 161.761719 9.214844 160.824219 9.214844 160.824219 9.835938 C 160.824219 10.460938 161.761719 10.460938 161.761719 9.835938 "/>
<path style=" stroke:none;fill-rule:evenodd;fill:rgb(45.098039%,45.098039%,87.058824%);fill-opacity:1;" d="M 162.839844 81.117188 C 162.839844 80.492188 161.90625 80.492188 161.90625 81.117188 C 161.90625 81.742188 162.839844 81.742188 162.839844 81.117188 "/>
<path style=" stroke:none;fill-rule:evenodd;fill:rgb(45.098039%,45.098039%,87.058824%);fill-opacity:1;" d="M 163.933594 146.910156 C 163.933594 146.285156 163 146.285156 163 146.910156 C 163 147.535156 163.933594 147.535156 163.933594 146.910156 "/>
<path style=" stroke:none;fill-rule:evenodd;fill:rgb(45.098039%,45.098039%,87.058824%);fill-opacity:1;" d="M 163.933594 154.109375 C 163.933594 153.488281 163 153.488281 163 154.109375 C 163 154.734375 163.933594 154.734375 163.933594 154.109375 "/>
<path style=" stroke:none;fill-rule:evenodd;fill:rgb(45.098039%,45.098039%,87.058824%);fill-opacity:1;" d="M 163.933594 160.589844 C 163.933594 159.96875 163 159.96875 163 160.589844 C 163 161.214844 163.933594 161.214844 163.933594 160.589844 "/>
<path style=" stroke:none;fill-rule:evenodd;fill:rgb(45.098039%,45.098039%,87.058824%);fill-opacity:1;" d="M 163.933594 165.632812 C 163.933594 165.007812 163 165.007812 163 165.632812 C 163 166.253906 163.933594 166.253906 163.933594 165.632812 "/>
<path style=" stroke:none;fill-rule:evenodd;fill:rgb(45.098039%,45.098039%,87.058824%);fill-opacity:1;" d="M 165 78.957031 C 165 78.332031 164.066406 78.332031 164.066406 78.957031 C 164.066406 79.582031 165 79.582031 165 78.957031 "/>
<path style=" stroke:none;fill-rule:evenodd;fill:rgb(45.098039%,45.098039%,87.058824%);fill-opacity:1;" d="M 165.71875 21.71875 C 165.71875 21.09375 164.785156 21.09375 164.785156 21.71875 C 164.785156 22.339844 165.71875 22.339844 165.71875 21.71875 "/>
<path style=" stroke:none;fill-rule:evenodd;fill:rgb(45.098039%,45.098039%,87.058824%);fill-opacity:1;" d="M 165.71875 54.117188 C 165.71875 53.492188 164.785156 53.492188 164.785156 54.117188 C 164.785156 54.742188 165.71875 54.742188 165.71875 54.117188 "/>
<path style=" stroke:none;fill-rule:evenodd;fill:rgb(45.098039%,45.098039%,87.058824%);fill-opacity:1;" d="M 167.519531 102.71875 C 167.519531 102.09375 166.585938 102.09375 166.585938 102.71875 C 166.585938 103.339844 167.519531 103.339844 167.519531 102.71875 "/>
<path style=" stroke:none;fill-rule:evenodd;fill:rgb(45.098039%,45.098039%,87.058824%);fill-opacity:1;" d="M 168.242188 54.046875 C 168.242188 53.421875 167.304688 53.421875 167.304688 54.046875 C 167.304688 54.667969 168.242188 54.667969 168.242188 54.046875 "/>
<path style=" stroke:none;fill-rule:evenodd;fill:rgb(45.098039%,45.098039%,87.058824%);fill-opacity:1;" d="M 169.679688 71.039062 C 169.679688 70.414062 168.746094 70.414062 168.746094 71.039062 C 168.746094 71.660156 169.679688 71.660156 169.679688 71.039062 "/>
<path style=" stroke:none;fill-rule:evenodd;fill:rgb(45.098039%,45.098039%,87.058824%);fill-opacity:1;" d="M 171.480469 19.917969 C 171.480469 19.292969 170.542969 19.292969 170.542969 19.917969 C 170.542969 20.542969 171.480469 20.542969 171.480469 19.917969 "/>
<path style=" stroke:none;fill-rule:evenodd;fill:rgb(45.098039%,45.098039%,87.058824%);fill-opacity:1;" d="M 172.921875 54.476562 C 172.921875 53.851562 171.984375 53.851562 171.984375 54.476562 C 171.984375 55.101562 172.921875 55.101562 172.921875 54.476562 "/>
<path style=" stroke:none;fill-rule:evenodd;fill:rgb(45.098039%,45.098039%,87.058824%);fill-opacity:1;" d="M 174.359375 74.277344 C 174.359375 73.652344 173.425781 73.652344 173.425781 74.277344 C 173.425781 74.902344 174.359375 74.902344 174.359375 74.277344 "/>
<path style=" stroke:none;fill-rule:evenodd;fill:rgb(45.098039%,45.098039%,87.058824%);fill-opacity:1;" d="M 174.359375 77.15625 C 174.359375 76.535156 173.425781 76.535156 173.425781 77.15625 C 173.425781 77.78125 174.359375 77.78125 174.359375 77.15625 "/>
<path style=" stroke:none;fill-rule:evenodd;fill:rgb(45.098039%,45.098039%,87.058824%);fill-opacity:1;" d="M 175.082031 19.917969 C 175.082031 19.292969 174.144531 19.292969 174.144531 19.917969 C 174.144531 20.542969 175.082031 20.542969 175.082031 19.917969 "/>
<path style=" stroke:none;fill-rule:evenodd;fill:rgb(45.098039%,45.098039%,87.058824%);fill-opacity:1;" d="M 176.160156 34.675781 C 176.160156 34.054688 175.222656 34.054688 175.222656 34.675781 C 175.222656 35.300781 176.160156 35.300781 176.160156 34.675781 "/>
<path style=" stroke:none;fill-rule:evenodd;fill:rgb(45.098039%,45.098039%,87.058824%);fill-opacity:1;" d="M 180.480469 34.675781 C 180.480469 34.054688 179.542969 34.054688 179.542969 34.675781 C 179.542969 35.300781 180.480469 35.300781 180.480469 34.675781 "/>
<path style=" stroke:none;fill-rule:evenodd;fill:rgb(45.098039%,45.098039%,87.058824%);fill-opacity:1;" d="M 182.28125 19.917969 C 182.28125 19.292969 181.34375 19.292969 181.34375 19.917969 C 181.34375 20.542969 182.28125 20.542969 182.28125 19.917969 "/>
<path style=" stroke:none;fill-rule:evenodd;fill:rgb(45.098039%,45.098039%,87.058824%);fill-opacity:1;" d="M 184.082031 34.675781 C 184.082031 34.054688 183.144531 34.054688 183.144531 34.675781 C 183.144531 35.300781 184.082031 35.300781 184.082031 34.675781 "/>
<path style=" stroke:none;fill-rule:evenodd;fill:rgb(45.098039%,45.098039%,87.058824%);fill-opacity:1;" d="M 185.878906 19.917969 C 185.878906 19.292969 184.945312 19.292969 184.945312 19.917969 C 184.945312 20.542969 185.878906 20.542969 185.878906 19.917969 "/>
<path style=" stroke:none;fill-rule:evenodd;fill:rgb(45.098039%,45.098039%,87.058824%);fill-opacity:1;" d="M 186.960938 102.355469 C 186.960938 101.734375 186.023438 101.734375 186.023438 102.355469 C 186.023438 102.980469 186.960938 102.980469 186.960938 102.355469 "/>
<path style=" stroke:none;fill-rule:evenodd;fill:rgb(45.098039%,45.098039%,87.058824%);fill-opacity:1;" d="M 188.402344 34.675781 C 188.402344 34.054688 187.464844 34.054688 187.464844 34.675781 C 187.464844 35.300781 188.402344 35.300781 188.402344 34.675781 "/>
<path style=" stroke:none;fill-rule:evenodd;fill:rgb(45.098039%,45.098039%,87.058824%);fill-opacity:1;" d="M 189.121094 62.039062 C 189.121094 61.414062 188.183594 61.414062 188.183594 62.039062 C 188.183594 62.660156 189.121094 62.660156 189.121094 62.039062 "/>
<path style=" stroke:none;fill-rule:evenodd;fill:rgb(45.098039%,45.098039%,87.058824%);fill-opacity:1;" d="M 190.5625 74.277344 C 190.5625 73.652344 189.625 73.652344 189.625 74.277344 C 189.625 74.902344 190.5625 74.902344 190.5625 74.277344 "/>
<path style=" stroke:none;fill-rule:evenodd;fill:rgb(45.098039%,45.098039%,87.058824%);fill-opacity:1;" d="M 190.5625 77.878906 C 190.5625 77.253906 189.625 77.253906 189.625 77.878906 C 189.625 78.5 190.5625 78.5 190.5625 77.878906 "/>
<path style=" stroke:none;fill-rule:evenodd;fill:rgb(45.098039%,45.098039%,87.058824%);fill-opacity:1;" d="M 190.5625 81.476562 C 190.5625 80.851562 189.625 80.851562 189.625 81.476562 C 189.625 82.101562 190.5625 82.101562 190.5625 81.476562 "/>
<path style=" stroke:none;fill-rule:evenodd;fill:rgb(45.098039%,45.098039%,87.058824%);fill-opacity:1;" d="M 190.5625 88.675781 C 190.5625 88.054688 189.625 88.054688 189.625 88.675781 C 189.625 89.300781 190.5625 89.300781 190.5625 88.675781 "/>
<path style=" stroke:none;fill-rule:evenodd;fill:rgb(45.098039%,45.098039%,87.058824%);fill-opacity:1;" d="M 190.5625 92.277344 C 190.5625 91.652344 189.625 91.652344 189.625 92.277344 C 189.625 92.902344 190.5625 92.902344 190.5625 92.277344 "/>
<path style=" stroke:none;fill-rule:evenodd;fill:rgb(45.098039%,45.098039%,87.058824%);fill-opacity:1;" d="M 190.5625 95.878906 C 190.5625 95.253906 189.625 95.253906 189.625 95.878906 C 189.625 96.5 190.5625 96.5 190.5625 95.878906 "/>
<path style=" stroke:none;fill-rule:evenodd;fill:rgb(45.098039%,45.098039%,87.058824%);fill-opacity:1;" d="M 193.082031 19.917969 C 193.082031 19.292969 192.144531 19.292969 192.144531 19.917969 C 192.144531 20.542969 193.082031 20.542969 193.082031 19.917969 "/>
<path style=" stroke:none;fill-rule:evenodd;fill:rgb(45.098039%,45.098039%,87.058824%);fill-opacity:1;" d="M 194.160156 58.4375 C 194.160156 57.8125 193.222656 57.8125 193.222656 58.4375 C 193.222656 59.0625 194.160156 59.0625 194.160156 58.4375 "/>
<path style=" stroke:none;fill-rule:evenodd;fill:rgb(45.098039%,45.098039%,87.058824%);fill-opacity:1;" d="M 194.519531 69.597656 C 194.519531 68.972656 193.585938 68.972656 193.585938 69.597656 C 193.585938 70.222656 194.519531 70.222656 194.519531 69.597656 "/>
<path style=" stroke:none;fill-rule:evenodd;fill:rgb(45.098039%,45.098039%,87.058824%);fill-opacity:1;" d="M 196.320312 81.476562 C 196.320312 80.851562 195.382812 80.851562 195.382812 81.476562 C 195.382812 82.101562 196.320312 82.101562 196.320312 81.476562 "/>
<path style=" stroke:none;fill-rule:evenodd;fill:rgb(45.098039%,45.098039%,87.058824%);fill-opacity:1;" d="M 196.320312 88.675781 C 196.320312 88.054688 195.382812 88.054688 195.382812 88.675781 C 195.382812 89.300781 196.320312 89.300781 196.320312 88.675781 "/>
<path style=" stroke:none;fill-rule:evenodd;fill:rgb(45.098039%,45.098039%,87.058824%);fill-opacity:1;" d="M 196.679688 19.917969 C 196.679688 19.292969 195.746094 19.292969 195.746094 19.917969 C 195.746094 20.542969 196.679688 20.542969 196.679688 19.917969 "/>
<path style=" stroke:none;fill-rule:evenodd;fill:rgb(45.098039%,45.098039%,87.058824%);fill-opacity:1;" d="M 196.679688 55.199219 C 196.679688 54.574219 195.746094 54.574219 195.746094 55.199219 C 195.746094 55.820312 196.679688 55.820312 196.679688 55.199219 "/>
<path style=" stroke:none;fill-rule:evenodd;fill:rgb(45.098039%,45.098039%,87.058824%);fill-opacity:1;" d="M 198.839844 21.71875 C 198.839844 21.09375 197.90625 21.09375 197.90625 21.71875 C 197.90625 22.339844 198.839844 22.339844 198.839844 21.71875 "/>
<path style=" stroke:none;fill-rule:evenodd;fill:rgb(45.098039%,45.098039%,87.058824%);fill-opacity:1;" d="M 87.851562 107.398438 C 87.851562 105.957031 85.691406 105.957031 85.691406 107.398438 C 85.691406 108.835938 87.851562 108.835938 87.851562 107.398438 "/>
<path style=" stroke:none;fill-rule:evenodd;fill:rgb(45.098039%,45.098039%,87.058824%);fill-opacity:1;" d="M 102.253906 107.398438 C 102.253906 105.957031 100.09375 105.957031 100.09375 107.398438 C 100.09375 108.835938 102.253906 108.835938 102.253906 107.398438 "/>
<path style=" stroke:none;fill-rule:evenodd;fill:rgb(45.098039%,45.098039%,87.058824%);fill-opacity:1;" d="M 139.1875 68.515625 C 139.1875 67.078125 137.027344 67.078125 137.027344 68.515625 C 137.027344 69.957031 139.1875 69.957031 139.1875 68.515625 "/>
<path style=" stroke:none;fill-rule:evenodd;fill:rgb(45.098039%,45.098039%,87.058824%);fill-opacity:1;" d="M 139.1875 130.871094 C 139.1875 129.429688 137.027344 129.429688 137.027344 130.871094 C 137.027344 132.308594 139.1875 132.308594 139.1875 130.871094 "/>
<path style=" stroke:none;fill-rule:evenodd;fill:rgb(45.098039%,45.098039%,87.058824%);fill-opacity:1;" d="M 141.148438 175.710938 C 141.148438 174.269531 138.988281 174.269531 138.988281 175.710938 C 138.988281 177.152344 141.148438 177.152344 141.148438 175.710938 "/>
<path style=" stroke:none;fill-rule:evenodd;fill:rgb(45.098039%,45.098039%,87.058824%);fill-opacity:1;" d="M 144.875 68.515625 C 144.875 67.078125 142.714844 67.078125 142.714844 68.515625 C 142.714844 69.957031 144.875 69.957031 144.875 68.515625 "/>
<path style=" stroke:none;fill-rule:evenodd;fill:rgb(45.098039%,45.098039%,87.058824%);fill-opacity:1;" d="M 144.875 130.871094 C 144.875 129.429688 142.714844 129.429688 142.714844 130.871094 C 142.714844 132.308594 144.875 132.308594 144.875 130.871094 "/>
<path style=" stroke:none;fill-rule:evenodd;fill:rgb(45.098039%,45.098039%,87.058824%);fill-opacity:1;" d="M 150.566406 68.515625 C 150.566406 67.078125 148.40625 67.078125 148.40625 68.515625 C 148.40625 69.957031 150.566406 69.957031 150.566406 68.515625 "/>
<path style=" stroke:none;fill-rule:evenodd;fill:rgb(45.098039%,45.098039%,87.058824%);fill-opacity:1;" d="M 150.566406 130.871094 C 150.566406 129.429688 148.40625 129.429688 148.40625 130.871094 C 148.40625 132.308594 150.566406 132.308594 150.566406 130.871094 "/>
<path style=" stroke:none;fill-rule:evenodd;fill:rgb(45.098039%,45.098039%,87.058824%);fill-opacity:1;" d="M 155.546875 175.710938 C 155.546875 174.269531 153.386719 174.269531 153.386719 175.710938 C 153.386719 177.152344 155.546875 177.152344 155.546875 175.710938 "/>
<path style=" stroke:none;fill-rule:evenodd;fill:rgb(45.098039%,45.098039%,87.058824%);fill-opacity:1;" d="M 156.253906 68.515625 C 156.253906 67.078125 154.09375 67.078125 154.09375 68.515625 C 154.09375 69.957031 156.253906 69.957031 156.253906 68.515625 "/>
<path style=" stroke:none;fill-rule:evenodd;fill:rgb(45.098039%,45.098039%,87.058824%);fill-opacity:1;" d="M 156.253906 130.871094 C 156.253906 129.429688 154.09375 129.429688 154.09375 130.871094 C 154.09375 132.308594 156.253906 132.308594 156.253906 130.871094 "/>
<path style=" stroke:none;fill-rule:evenodd;fill:rgb(45.098039%,45.098039%,87.058824%);fill-opacity:1;" d="M 161.941406 68.515625 C 161.941406 67.078125 159.78125 67.078125 159.78125 68.515625 C 159.78125 69.957031 161.941406 69.957031 161.941406 68.515625 "/>
<path style=" stroke:none;fill-rule:evenodd;fill:rgb(45.098039%,45.098039%,87.058824%);fill-opacity:1;" d="M 161.941406 130.871094 C 161.941406 129.429688 159.78125 129.429688 159.78125 130.871094 C 159.78125 132.308594 161.941406 132.308594 161.941406 130.871094 "/>
<path style=" stroke:none;fill-rule:evenodd;fill:rgb(45.098039%,45.098039%,87.058824%);fill-opacity:1;" d="M 167.628906 68.515625 C 167.628906 67.078125 165.46875 67.078125 165.46875 68.515625 C 165.46875 69.957031 167.628906 69.957031 167.628906 68.515625 "/>
<path style=" stroke:none;fill-rule:evenodd;fill:rgb(45.098039%,45.098039%,87.058824%);fill-opacity:1;" d="M 167.628906 130.871094 C 167.628906 129.429688 165.46875 129.429688 165.46875 130.871094 C 165.46875 132.308594 167.628906 132.308594 167.628906 130.871094 "/>
<path style=" stroke:none;fill-rule:evenodd;fill:rgb(45.098039%,45.098039%,87.058824%);fill-opacity:1;" d="M 173.316406 68.515625 C 173.316406 67.078125 171.15625 67.078125 171.15625 68.515625 C 171.15625 69.957031 173.316406 69.957031 173.316406 68.515625 "/>
<path style=" stroke:none;fill-rule:evenodd;fill:rgb(45.098039%,45.098039%,87.058824%);fill-opacity:1;" d="M 173.316406 130.871094 C 173.316406 129.429688 171.15625 129.429688 171.15625 130.871094 C 171.15625 132.308594 173.316406 132.308594 173.316406 130.871094 "/>
<path style=" stroke:none;fill-rule:evenodd;fill:rgb(45.098039%,45.098039%,87.058824%);fill-opacity:1;" d="M 179.003906 68.515625 C 179.003906 67.078125 176.84375 67.078125 176.84375 68.515625 C 176.84375 69.957031 179.003906 69.957031 179.003906 68.515625 "/>
<path style=" stroke:none;fill-rule:evenodd;fill:rgb(45.098039%,45.098039%,87.058824%);fill-opacity:1;" d="M 179.003906 130.871094 C 179.003906 129.429688 176.84375 129.429688 176.84375 130.871094 C 176.84375 132.308594 179.003906 132.308594 179.003906 130.871094 "/>
<path style=" stroke:none;fill-rule:evenodd;fill:rgb(45.098039%,45.098039%,87.058824%);fill-opacity:1;" d="M 184.691406 68.515625 C 184.691406 67.078125 182.53125 67.078125 182.53125 68.515625 C 182.53125 69.957031 184.691406 69.957031 184.691406 68.515625 "/>
<path style=" stroke:none;fill-rule:evenodd;fill:rgb(45.098039%,45.098039%,87.058824%);fill-opacity:1;" d="M 184.691406 130.871094 C 184.691406 129.429688 182.53125 129.429688 182.53125 130.871094 C 182.53125 132.308594 184.691406 132.308594 184.691406 130.871094 "/>
<path style=" stroke:none;fill-rule:evenodd;fill:rgb(45.098039%,45.098039%,87.058824%);fill-opacity:1;" d="M 190.378906 68.515625 C 190.378906 67.078125 188.21875 67.078125 188.21875 68.515625 C 188.21875 69.957031 190.378906 69.957031 190.378906 68.515625 "/>
<path style=" stroke:none;fill-rule:evenodd;fill:rgb(45.098039%,45.098039%,87.058824%);fill-opacity:1;" d="M 190.378906 130.871094 C 190.378906 129.429688 188.21875 129.429688 188.21875 130.871094 C 188.21875 132.308594 190.378906 132.308594 190.378906 130.871094 "/>
<path style=" stroke:none;fill-rule:evenodd;fill:rgb(45.098039%,45.098039%,87.058824%);fill-opacity:1;" d="M 66.074219 16.316406 C 66.074219 14.636719 63.550781 14.636719 63.550781 16.316406 C 63.550781 17.996094 66.074219 17.996094 66.074219 16.316406 "/>
<path style=" stroke:none;fill-rule:evenodd;fill:rgb(45.098039%,45.098039%,87.058824%);fill-opacity:1;" d="M 69.671875 9.117188 C 69.671875 7.4375 67.152344 7.4375 67.152344 9.117188 C 67.152344 10.796875 69.671875 10.796875 69.671875 9.117188 "/>
<path style=" stroke:none;fill-rule:evenodd;fill:rgb(45.098039%,45.098039%,87.058824%);fill-opacity:1;" d="M 73.273438 16.316406 C 73.273438 14.636719 70.753906 14.636719 70.753906 16.316406 C 70.753906 17.996094 73.273438 17.996094 73.273438 16.316406 "/>
<path style=" stroke:none;fill-rule:evenodd;fill:rgb(45.098039%,45.098039%,87.058824%);fill-opacity:1;" d="M 76.871094 9.117188 C 76.871094 7.4375 74.351562 7.4375 74.351562 9.117188 C 74.351562 10.796875 76.871094 10.796875 76.871094 9.117188 "/>
<path style=" stroke:none;fill-rule:evenodd;fill:rgb(45.098039%,45.098039%,87.058824%);fill-opacity:1;" d="M 80.472656 16.316406 C 80.472656 14.636719 77.953125 14.636719 77.953125 16.316406 C 77.953125 17.996094 80.472656 17.996094 80.472656 16.316406 "/>
<path style=" stroke:none;fill-rule:evenodd;fill:rgb(45.098039%,45.098039%,87.058824%);fill-opacity:1;" d="M 84.074219 9.117188 C 84.074219 7.4375 81.550781 7.4375 81.550781 9.117188 C 81.550781 10.796875 84.074219 10.796875 84.074219 9.117188 "/>
<path style=" stroke:none;fill-rule:evenodd;fill:rgb(45.098039%,45.098039%,87.058824%);fill-opacity:1;" d="M 87.671875 16.316406 C 87.671875 14.636719 85.152344 14.636719 85.152344 16.316406 C 85.152344 17.996094 87.671875 17.996094 87.671875 16.316406 "/>
<path style=" stroke:none;fill-rule:evenodd;fill:rgb(45.098039%,45.098039%,87.058824%);fill-opacity:1;" d="M 91.273438 9.117188 C 91.273438 7.4375 88.753906 7.4375 88.753906 9.117188 C 88.753906 10.796875 91.273438 10.796875 91.273438 9.117188 "/>
<path style=" stroke:none;fill-rule:evenodd;fill:rgb(45.098039%,45.098039%,87.058824%);fill-opacity:1;" d="M 103.871094 139.796875 C 103.871094 138.117188 101.351562 138.117188 101.351562 139.796875 C 101.351562 141.476562 103.871094 141.476562 103.871094 139.796875 "/>
<path style=" stroke:none;fill-rule:evenodd;fill:rgb(45.098039%,45.098039%,87.058824%);fill-opacity:1;" d="M 103.871094 146.996094 C 103.871094 145.316406 101.351562 145.316406 101.351562 146.996094 C 101.351562 148.675781 103.871094 148.675781 103.871094 146.996094 "/>
<path style=" stroke:none;fill-rule:evenodd;fill:rgb(45.098039%,45.098039%,87.058824%);fill-opacity:1;" d="M 103.871094 154.199219 C 103.871094 152.515625 101.351562 152.515625 101.351562 154.199219 C 101.351562 155.878906 103.871094 155.878906 103.871094 154.199219 "/>
<path style=" stroke:none;fill-rule:evenodd;fill:rgb(45.098039%,45.098039%,87.058824%);fill-opacity:1;" d="M 103.871094 161.398438 C 103.871094 159.71875 101.351562 159.71875 101.351562 161.398438 C 101.351562 163.078125 103.871094 163.078125 103.871094 161.398438 "/>
<path style=" stroke:none;fill-rule:evenodd;fill:rgb(45.098039%,45.098039%,87.058824%);fill-opacity:1;" d="M 111.074219 143.398438 C 111.074219 141.71875 108.550781 141.71875 108.550781 143.398438 C 108.550781 145.078125 111.074219 145.078125 111.074219 143.398438 "/>
<path style=" stroke:none;fill-rule:evenodd;fill:rgb(45.098039%,45.098039%,87.058824%);fill-opacity:1;" d="M 111.074219 150.597656 C 111.074219 148.917969 108.550781 148.917969 108.550781 150.597656 C 108.550781 152.277344 111.074219 152.277344 111.074219 150.597656 "/>
<path style=" stroke:none;fill-rule:evenodd;fill:rgb(45.098039%,45.098039%,87.058824%);fill-opacity:1;" d="M 111.074219 157.796875 C 111.074219 156.117188 108.550781 156.117188 108.550781 157.796875 C 108.550781 159.476562 111.074219 159.476562 111.074219 157.796875 "/>
<path style=" stroke:none;fill-rule:evenodd;fill:rgb(45.098039%,45.098039%,87.058824%);fill-opacity:1;" d="M 111.074219 164.996094 C 111.074219 163.316406 108.550781 163.316406 108.550781 164.996094 C 108.550781 166.675781 111.074219 166.675781 111.074219 164.996094 "/>
<path style=" stroke:none;fill-rule:evenodd;fill:rgb(45.098039%,45.098039%,87.058824%);fill-opacity:1;" d="M 118.273438 16.316406 C 118.273438 14.636719 115.753906 14.636719 115.753906 16.316406 C 115.753906 17.996094 118.273438 17.996094 118.273438 16.316406 "/>
<path style=" stroke:none;fill-rule:evenodd;fill:rgb(45.098039%,45.098039%,87.058824%);fill-opacity:1;" d="M 121.871094 9.117188 C 121.871094 7.4375 119.351562 7.4375 119.351562 9.117188 C 119.351562 10.796875 121.871094 10.796875 121.871094 9.117188 "/>
<path style=" stroke:none;fill-rule:evenodd;fill:rgb(45.098039%,45.098039%,87.058824%);fill-opacity:1;" d="M 125.472656 16.316406 C 125.472656 14.636719 122.953125 14.636719 122.953125 16.316406 C 122.953125 17.996094 125.472656 17.996094 125.472656 16.316406 "/>
<path style=" stroke:none;fill-rule:evenodd;fill:rgb(45.098039%,45.098039%,87.058824%);fill-opacity:1;" d="M 129.074219 9.117188 C 129.074219 7.4375 126.550781 7.4375 126.550781 9.117188 C 126.550781 10.796875 129.074219 10.796875 129.074219 9.117188 "/>
<path style=" stroke:none;fill-rule:evenodd;fill:rgb(45.098039%,45.098039%,87.058824%);fill-opacity:1;" d="M 132.671875 16.316406 C 132.671875 14.636719 130.152344 14.636719 130.152344 16.316406 C 130.152344 17.996094 132.671875 17.996094 132.671875 16.316406 "/>
<path style=" stroke:none;fill-rule:evenodd;fill:rgb(45.098039%,45.098039%,87.058824%);fill-opacity:1;" d="M 136.273438 9.117188 C 136.273438 7.4375 133.753906 7.4375 133.753906 9.117188 C 133.753906 10.796875 136.273438 10.796875 136.273438 9.117188 "/>
<path style=" stroke:none;fill-rule:evenodd;fill:rgb(45.098039%,45.098039%,87.058824%);fill-opacity:1;" d="M 139.871094 16.316406 C 139.871094 14.636719 137.351562 14.636719 137.351562 16.316406 C 137.351562 17.996094 139.871094 17.996094 139.871094 16.316406 "/>
<path style=" stroke:none;fill-rule:evenodd;fill:rgb(45.098039%,45.098039%,87.058824%);fill-opacity:1;" d="M 143.472656 9.117188 C 143.472656 7.4375 140.953125 7.4375 140.953125 9.117188 C 140.953125 10.796875 143.472656 10.796875 143.472656 9.117188 "/>
<path style=" stroke:none;fill-rule:evenodd;fill:rgb(45.098039%,45.098039%,87.058824%);fill-opacity:1;" d="M 170.472656 16.316406 C 170.472656 14.636719 167.953125 14.636719 167.953125 16.316406 C 167.953125 17.996094 170.472656 17.996094 170.472656 16.316406 "/>
<path style=" stroke:none;fill-rule:evenodd;fill:rgb(45.098039%,45.098039%,87.058824%);fill-opacity:1;" d="M 174.074219 9.117188 C 174.074219 7.4375 171.550781 7.4375 171.550781 9.117188 C 171.550781 10.796875 174.074219 10.796875 174.074219 9.117188 "/>
<path style=" stroke:none;fill-rule:evenodd;fill:rgb(45.098039%,45.098039%,87.058824%);fill-opacity:1;" d="M 177.671875 16.316406 C 177.671875 14.636719 175.152344 14.636719 175.152344 16.316406 C 175.152344 17.996094 177.671875 17.996094 177.671875 16.316406 "/>
<path style=" stroke:none;fill-rule:evenodd;fill:rgb(45.098039%,45.098039%,87.058824%);fill-opacity:1;" d="M 181.273438 9.117188 C 181.273438 7.4375 178.753906 7.4375 178.753906 9.117188 C 178.753906 10.796875 181.273438 10.796875 181.273438 9.117188 "/>
<path style=" stroke:none;fill-rule:evenodd;fill:rgb(45.098039%,45.098039%,87.058824%);fill-opacity:1;" d="M 184.871094 16.316406 C 184.871094 14.636719 182.351562 14.636719 182.351562 16.316406 C 182.351562 17.996094 184.871094 17.996094 184.871094 16.316406 "/>
<path style=" stroke:none;fill-rule:evenodd;fill:rgb(45.098039%,45.098039%,87.058824%);fill-opacity:1;" d="M 188.472656 9.117188 C 188.472656 7.4375 185.953125 7.4375 185.953125 9.117188 C 185.953125 10.796875 188.472656 10.796875 188.472656 9.117188 "/>
<path style=" stroke:none;fill-rule:evenodd;fill:rgb(45.098039%,45.098039%,87.058824%);fill-opacity:1;" d="M 192.074219 16.316406 C 192.074219 14.636719 189.550781 14.636719 189.550781 16.316406 C 189.550781 17.996094 192.074219 17.996094 192.074219 16.316406 "/>
<path style=" stroke:none;fill-rule:evenodd;fill:rgb(45.098039%,45.098039%,87.058824%);fill-opacity:1;" d="M 195.671875 9.117188 C 195.671875 7.4375 193.152344 7.4375 193.152344 9.117188 C 193.152344 10.796875 195.671875 10.796875 195.671875 9.117188 "/>
<path style=" stroke:none;fill-rule:evenodd;fill:rgb(45.098039%,45.098039%,87.058824%);fill-opacity:1;" d="M 44.941406 104.515625 C 44.941406 102.695312 42.203125 102.695312 42.203125 104.515625 C 42.203125 106.339844 44.941406 106.339844 44.941406 104.515625 "/>
<path style=" stroke:none;fill-rule:evenodd;fill:rgb(45.098039%,45.098039%,87.058824%);fill-opacity:1;" d="M 44.941406 111.71875 C 44.941406 109.894531 42.203125 109.894531 42.203125 111.71875 C 42.203125 113.542969 44.941406 113.542969 44.941406 111.71875 "/>
<path style=" stroke:none;fill-rule:evenodd;fill:rgb(45.098039%,45.098039%,87.058824%);fill-opacity:1;" d="M 52.140625 104.515625 C 52.140625 102.695312 49.40625 102.695312 49.40625 104.515625 C 49.40625 106.339844 52.140625 106.339844 52.140625 104.515625 "/>
<path style=" stroke:none;fill-rule:evenodd;fill:rgb(45.098039%,45.098039%,87.058824%);fill-opacity:1;" d="M 52.140625 111.71875 C 52.140625 109.894531 49.40625 109.894531 49.40625 111.71875 C 49.40625 113.542969 52.140625 113.542969 52.140625 111.71875 "/>
<path style=" stroke:none;fill-rule:evenodd;fill:rgb(45.098039%,45.098039%,87.058824%);fill-opacity:1;" d="M 56.820312 64.199219 C 56.820312 62.375 54.085938 62.375 54.085938 64.199219 C 54.085938 66.019531 56.820312 66.019531 56.820312 64.199219 "/>
<path style=" stroke:none;fill-rule:evenodd;fill:rgb(45.098039%,45.098039%,87.058824%);fill-opacity:1;" d="M 56.820312 85.4375 C 56.820312 83.613281 54.085938 83.613281 54.085938 85.4375 C 54.085938 87.261719 56.820312 87.261719 56.820312 85.4375 "/>
<path style=" stroke:none;fill-rule:evenodd;fill:rgb(45.098039%,45.098039%,87.058824%);fill-opacity:1;" d="M 59.339844 104.515625 C 59.339844 102.695312 56.605469 102.695312 56.605469 104.515625 C 56.605469 106.339844 59.339844 106.339844 59.339844 104.515625 "/>
<path style=" stroke:none;fill-rule:evenodd;fill:rgb(45.098039%,45.098039%,87.058824%);fill-opacity:1;" d="M 59.339844 111.71875 C 59.339844 109.894531 56.605469 109.894531 56.605469 111.71875 C 56.605469 113.542969 59.339844 113.542969 59.339844 111.71875 "/>
<path style=" stroke:none;fill-rule:evenodd;fill:rgb(45.098039%,45.098039%,87.058824%);fill-opacity:1;" d="M 59.355469 130.710938 C 59.355469 128.886719 56.617188 128.886719 56.617188 130.710938 C 56.617188 132.535156 59.355469 132.535156 59.355469 130.710938 "/>
<path style=" stroke:none;fill-rule:evenodd;fill:rgb(45.098039%,45.098039%,87.058824%);fill-opacity:1;" d="M 59.355469 137.910156 C 59.355469 136.085938 56.617188 136.085938 56.617188 137.910156 C 56.617188 139.734375 59.355469 139.734375 59.355469 137.910156 "/>
<path style=" stroke:none;fill-rule:evenodd;fill:rgb(45.098039%,45.098039%,87.058824%);fill-opacity:1;" d="M 59.355469 145.109375 C 59.355469 143.285156 56.617188 143.285156 56.617188 145.109375 C 56.617188 146.933594 59.355469 146.933594 59.355469 145.109375 "/>
<path style=" stroke:none;fill-rule:evenodd;fill:rgb(45.098039%,45.098039%,87.058824%);fill-opacity:1;" d="M 59.355469 152.3125 C 59.355469 150.488281 56.617188 150.488281 56.617188 152.3125 C 56.617188 154.136719 59.355469 154.136719 59.355469 152.3125 "/>
<path style=" stroke:none;fill-rule:evenodd;fill:rgb(45.098039%,45.098039%,87.058824%);fill-opacity:1;" d="M 59.355469 159.511719 C 59.355469 157.6875 56.617188 157.6875 56.617188 159.511719 C 56.617188 161.335938 59.355469 161.335938 59.355469 159.511719 "/>
<path style=" stroke:none;fill-rule:evenodd;fill:rgb(45.098039%,45.098039%,87.058824%);fill-opacity:1;" d="M 64.019531 64.199219 C 64.019531 62.375 61.285156 62.375 61.285156 64.199219 C 61.285156 66.019531 64.019531 66.019531 64.019531 64.199219 "/>
<path style=" stroke:none;fill-rule:evenodd;fill:rgb(45.098039%,45.098039%,87.058824%);fill-opacity:1;" d="M 64.019531 85.4375 C 64.019531 83.613281 61.285156 83.613281 61.285156 85.4375 C 61.285156 87.261719 64.019531 87.261719 64.019531 85.4375 "/>
<path style=" stroke:none;fill-rule:evenodd;fill:rgb(45.098039%,45.098039%,87.058824%);fill-opacity:1;" d="M 66.554688 130.710938 C 66.554688 128.886719 63.820312 128.886719 63.820312 130.710938 C 63.820312 132.535156 66.554688 132.535156 66.554688 130.710938 "/>
<path style=" stroke:none;fill-rule:evenodd;fill:rgb(45.098039%,45.098039%,87.058824%);fill-opacity:1;" d="M 66.554688 137.910156 C 66.554688 136.085938 63.820312 136.085938 63.820312 137.910156 C 63.820312 139.734375 66.554688 139.734375 66.554688 137.910156 "/>
<path style=" stroke:none;fill-rule:evenodd;fill:rgb(45.098039%,45.098039%,87.058824%);fill-opacity:1;" d="M 66.554688 145.109375 C 66.554688 143.285156 63.820312 143.285156 63.820312 145.109375 C 63.820312 146.933594 66.554688 146.933594 66.554688 145.109375 "/>
<path style=" stroke:none;fill-rule:evenodd;fill:rgb(45.098039%,45.098039%,87.058824%);fill-opacity:1;" d="M 66.554688 152.3125 C 66.554688 150.488281 63.820312 150.488281 63.820312 152.3125 C 63.820312 154.136719 66.554688 154.136719 66.554688 152.3125 "/>
<path style=" stroke:none;fill-rule:evenodd;fill:rgb(45.098039%,45.098039%,87.058824%);fill-opacity:1;" d="M 66.554688 159.511719 C 66.554688 157.6875 63.820312 157.6875 63.820312 159.511719 C 63.820312 161.335938 66.554688 161.335938 66.554688 159.511719 "/>
<path style=" stroke:none;fill-rule:evenodd;fill:rgb(45.098039%,45.098039%,87.058824%);fill-opacity:1;" d="M 74.511719 133.589844 C 74.511719 131.71875 71.703125 131.71875 71.703125 133.589844 C 71.703125 135.464844 74.511719 135.464844 74.511719 133.589844 "/>
<path style=" stroke:none;fill-rule:evenodd;fill:rgb(45.098039%,45.098039%,87.058824%);fill-opacity:1;" d="M 74.511719 140.789062 C 74.511719 138.917969 71.703125 138.917969 71.703125 140.789062 C 71.703125 142.664062 74.511719 142.664062 74.511719 140.789062 "/>
<path style=" stroke:none;fill-rule:evenodd;fill:rgb(45.098039%,45.098039%,87.058824%);fill-opacity:1;" d="M 74.511719 163.976562 C 74.511719 162.101562 71.703125 162.101562 71.703125 163.976562 C 71.703125 165.847656 74.511719 165.847656 74.511719 163.976562 "/>
<path style=" stroke:none;fill-rule:evenodd;fill:rgb(45.098039%,45.098039%,87.058824%);fill-opacity:1;" d="M 74.511719 171.175781 C 74.511719 169.304688 71.703125 169.304688 71.703125 171.175781 C 71.703125 173.046875 74.511719 173.046875 74.511719 171.175781 "/>
<path style=" stroke:none;fill-rule:evenodd;fill:rgb(45.098039%,45.098039%,87.058824%);fill-opacity:1;" d="M 120.253906 78.238281 C 120.253906 75.835938 116.652344 75.835938 116.652344 78.238281 C 116.652344 80.636719 120.253906 80.636719 120.253906 78.238281 "/>
<path style=" stroke:none;fill-rule:evenodd;fill:rgb(45.098039%,45.098039%,87.058824%);fill-opacity:1;" d="M 182.53125 73.199219 C 182.53125 70.796875 178.933594 70.796875 178.933594 73.199219 C 178.933594 75.597656 182.53125 75.597656 182.53125 73.199219 "/>
<path style=" stroke:none;fill-rule:evenodd;fill:rgb(45.098039%,45.098039%,87.058824%);fill-opacity:1;" d="M 192.972656 100.917969 C 192.972656 98.515625 189.371094 98.515625 189.371094 100.917969 C 189.371094 103.316406 192.972656 103.316406 192.972656 100.917969 "/>
<path style=" stroke:none;fill-rule:evenodd;fill:rgb(45.098039%,45.098039%,87.058824%);fill-opacity:1;" d="M 57.332031 42.964844 C 57.332031 39.941406 52.796875 39.941406 52.796875 42.964844 C 52.796875 45.988281 57.332031 45.988281 57.332031 42.964844 "/>
<path style=" stroke:none;fill-rule:evenodd;fill:rgb(45.098039%,45.098039%,87.058824%);fill-opacity:1;" d="M 95.527344 130.414062 C 95.527344 127.390625 90.992188 127.390625 90.992188 130.414062 C 90.992188 133.441406 95.527344 133.441406 95.527344 130.414062 "/>
<path style=" stroke:none;fill-rule:evenodd;fill:rgb(45.098039%,45.098039%,87.058824%);fill-opacity:1;" d="M 95.527344 174.351562 C 95.527344 171.328125 90.992188 171.328125 90.992188 174.351562 C 90.992188 177.375 95.527344 177.375 95.527344 174.351562 "/>
<path style=" stroke:none;fill-rule:evenodd;fill:rgb(45.098039%,45.098039%,87.058824%);fill-opacity:1;" d="M 101.972656 42.964844 C 101.972656 39.941406 97.4375 39.941406 97.4375 42.964844 C 97.4375 45.988281 101.972656 45.988281 101.972656 42.964844 "/>
<path style=" stroke:none;fill-rule:evenodd;fill:rgb(45.098039%,45.098039%,87.058824%);fill-opacity:1;" d="M 109.53125 42.964844 C 109.53125 39.941406 104.996094 39.941406 104.996094 42.964844 C 104.996094 45.988281 109.53125 45.988281 109.53125 42.964844 "/>
<path style=" stroke:none;fill-rule:evenodd;fill:rgb(45.098039%,45.098039%,87.058824%);fill-opacity:1;" d="M 154.171875 42.964844 C 154.171875 39.941406 149.636719 39.941406 149.636719 42.964844 C 149.636719 45.988281 154.171875 45.988281 154.171875 42.964844 "/>
<path style=" stroke:none;fill-rule:evenodd;fill:rgb(45.098039%,45.098039%,87.058824%);fill-opacity:1;" d="M 161.730469 42.964844 C 161.730469 39.941406 157.195312 39.941406 157.195312 42.964844 C 157.195312 45.988281 161.730469 45.988281 161.730469 42.964844 "/>
<path style=" stroke:none;fill-rule:evenodd;fill:rgb(45.098039%,45.098039%,87.058824%);fill-opacity:1;" d="M 206.371094 42.964844 C 206.371094 39.941406 201.835938 39.941406 201.835938 42.964844 C 201.835938 45.988281 206.371094 45.988281 206.371094 42.964844 "/>
<path style=" stroke:none;fill-rule:evenodd;fill:rgb(45.098039%,45.098039%,87.058824%);fill-opacity:1;" d="M 89.148438 136.199219 C 89.148438 130.148438 80.078125 130.148438 80.078125 136.199219 C 80.078125 142.246094 89.148438 142.246094 89.148438 136.199219 "/>
<path style=" stroke:none;fill-rule:evenodd;fill:rgb(45.098039%,45.098039%,87.058824%);fill-opacity:1;" d="M 89.148438 168.597656 C 89.148438 162.550781 80.078125 162.550781 80.078125 168.597656 C 80.078125 174.644531 89.148438 174.644531 89.148438 168.597656 "/>
<path style=" stroke:none;fill-rule:evenodd;fill:rgb(45.098039%,45.098039%,87.058824%);fill-opacity:1;" d="M 65.820312 34.316406 C 65.820312 28.171875 56.605469 28.171875 56.605469 34.316406 C 56.605469 40.460938 65.820312 40.460938 65.820312 34.316406 "/>
<path style=" stroke:none;fill-rule:evenodd;fill:rgb(45.098039%,45.098039%,87.058824%);fill-opacity:1;" d="M 98.21875 34.316406 C 98.21875 28.171875 89.003906 28.171875 89.003906 34.316406 C 89.003906 40.460938 98.21875 40.460938 98.21875 34.316406 "/>
<path style=" stroke:none;fill-rule:evenodd;fill:rgb(45.098039%,45.098039%,87.058824%);fill-opacity:1;" d="M 118.019531 34.316406 C 118.019531 28.171875 108.804688 28.171875 108.804688 34.316406 C 108.804688 40.460938 118.019531 40.460938 118.019531 34.316406 "/>
<path style=" stroke:none;fill-rule:evenodd;fill:rgb(45.098039%,45.098039%,87.058824%);fill-opacity:1;" d="M 150.421875 34.316406 C 150.421875 28.171875 141.203125 28.171875 141.203125 34.316406 C 141.203125 40.460938 150.421875 40.460938 150.421875 34.316406 "/>
<path style=" stroke:none;fill-rule:evenodd;fill:rgb(45.098039%,45.098039%,87.058824%);fill-opacity:1;" d="M 170.21875 34.316406 C 170.21875 28.171875 161.003906 28.171875 161.003906 34.316406 C 161.003906 40.460938 170.21875 40.460938 170.21875 34.316406 "/>
<path style=" stroke:none;fill-rule:evenodd;fill:rgb(45.098039%,45.098039%,87.058824%);fill-opacity:1;" d="M 202.621094 34.316406 C 202.621094 28.171875 193.40625 28.171875 193.40625 34.316406 C 193.40625 40.460938 202.621094 40.460938 202.621094 34.316406 "/>
</g>
</svg>
