  0
SECTION
  2
HEADER
  9
$ACADVER
  1
AC1009
  9
$EXTMIN
 10
0.0
 20
0.0
 30
0.0
  9
$EXTMAX
 10
1000.0
 20
1000.0
 30
0.0
  9
$FILLMODE
 70
 0
  9
$SPLFRAME
 70
 1
  0
ENDSEC
  0
SECTION
  2
TABLES
  0
TABLE
  2
LAYER
 70
1
  0
LAYER
  2
0
 70
     0
 62
     7
  6
CONTINUOUS
  0
ENDTAB
  0
ENDSEC
  0
SECTION
  2
ENTITIES
  0
POLYLINE
  8
0
 62
     13
 66
     1
 10
0
 20
0
 30
0.0
 40
0.432
 41
0.432
  0
VERTEX
  8
0
 10
0.0387369
 20
1.33382
 30
0.0
 40
0.006
 41
0.006
  0
VERTEX
  8
0
 10
0.0387369
 20
0.848796
 30
0.0
 40
0.006
 41
0.006
  0
SEQEND
 8
0
  0
POLYLINE
  8
0
 62
     13
 66
     1
 10
0
 20
0
 30
0.0
 40
0.432
 41
0.432
  0
VERTEX
  8
0
 10
0.0387369
 20
1.33382
 30
0.0
 40
0.006
 41
0.006
  0
VERTEX
  8
0
 10
0.578776
 20
1.33382
 30
0.0
 40
0.006
 41
0.006
  0
SEQEND
 8
0
  0
POLYLINE
  8
0
 62
     13
 66
     1
 10
0
 20
0
 30
0.0
 40
0.432
 41
0.432
  0
VERTEX
  8
0
 10
0.578776
 20
1.33382
 30
0.0
 40
0.006
 41
0.006
  0
VERTEX
  8
0
 10
0.663738
 20
1.41883
 30
0.0
 40
0.006
 41
0.006
  0
SEQEND
 8
0
  0
POLYLINE
  8
0
 62
     13
 66
     1
 10
0
 20
0
 30
0.0
 40
0.432
 41
0.432
  0
VERTEX
  8
0
 10
0.663738
 20
1.41883
 30
0.0
 40
0.006
 41
0.006
  0
VERTEX
  8
0
 10
0.663738
 20
1.65881
 30
0.0
 40
0.006
 41
0.006
  0
SEQEND
 8
0
  0
POLYLINE
  8
0
 62
     173
 66
     1
 10
0
 20
0
 30
0.0
 70
     1
 40
0
 41
0
  0
VERTEX
  8
0
 10
0.465278
 20
1.07883
 30
0.0
 40
0
 41
0
  0
VERTEX
  8
0
 10
0.458768
 20
1.08534
 30
0.0
 40
0
 41
0
  0
VERTEX
  8
0
 10
0.452257
 20
1.07883
 30
0.0
 40
0
 41
0
  0
VERTEX
  8
0
 10
0.458768
 20
1.07232
 30
0.0
 40
0
 41
0
  0
VERTEX
  8
0
 10
0.465278
 20
1.07883
 30
0.0
 40
0
 41
0
  0
SEQEND
 8
0
  0
POLYLINE
  8
0
 62
     173
 66
     1
 10
0
 20
0
 30
0.0
 70
     1
 40
0
 41
0
  0
VERTEX
  8
0
 10
0.530274
 20
1.23882
 30
0.0
 40
0
 41
0
  0
VERTEX
  8
0
 10
0.523762
 20
1.24533
 30
0.0
 40
0
 41
0
  0
VERTEX
  8
0
 10
0.517253
 20
1.23882
 30
0.0
 40
0
 41
0
  0
VERTEX
  8
0
 10
0.523762
 20
1.23231
 30
0.0
 40
0
 41
0
  0
VERTEX
  8
0
 10
0.530274
 20
1.23882
 30
0.0
 40
0
 41
0
  0
SEQEND
 8
0
  0
POLYLINE
  8
0
 62
     173
 66
     1
 10
0
 20
0
 30
0.0
 70
     1
 40
0
 41
0
  0
VERTEX
  8
0
 10
0.590278
 20
1.26883
 30
0.0
 40
0
 41
0
  0
VERTEX
  8
0
 10
0.583768
 20
1.27534
 30
0.0
 40
0
 41
0
  0
VERTEX
  8
0
 10
0.577257
 20
1.26883
 30
0.0
 40
0
 41
0
  0
VERTEX
  8
0
 10
0.583768
 20
1.26232
 30
0.0
 40
0
 41
0
  0
VERTEX
  8
0
 10
0.590278
 20
1.26883
 30
0.0
 40
0
 41
0
  0
SEQEND
 8
0
  0
POLYLINE
  8
0
 62
     173
 66
     1
 10
0
 20
0
 30
0.0
 70
     1
 40
0
 41
0
  0
VERTEX
  8
0
 10
0.620281
 20
1.10384
 30
0.0
 40
0
 41
0
  0
VERTEX
  8
0
 10
0.613769
 20
1.11035
 30
0.0
 40
0
 41
0
  0
VERTEX
  8
0
 10
0.60726
 20
1.10384
 30
0.0
 40
0
 41
0
  0
VERTEX
  8
0
 10
0.613769
 20
1.09733
 30
0.0
 40
0
 41
0
  0
VERTEX
  8
0
 10
0.620281
 20
1.10384
 30
0.0
 40
0
 41
0
  0
SEQEND
 8
0
  0
POLYLINE
  8
0
 62
     173
 66
     1
 10
0
 20
0
 30
0.0
 70
     1
 40
0
 41
0
  0
VERTEX
  8
0
 10
0.725261
 20
1.16884
 30
0.0
 40
0
 41
0
  0
VERTEX
  8
0
 10
0.71875
 20
1.17535
 30
0.0
 40
0
 41
0
  0
VERTEX
  8
0
 10
0.71224
 20
1.16884
 30
0.0
 40
0
 41
0
  0
VERTEX
  8
0
 10
0.71875
 20
1.16233
 30
0.0
 40
0
 41
0
  0
VERTEX
  8
0
 10
0.725261
 20
1.16884
 30
0.0
 40
0
 41
0
  0
SEQEND
 8
0
  0
POLYLINE
  8
0
 62
     173
 66
     1
 10
0
 20
0
 30
0.0
 70
     1
 40
0
 41
0
  0
VERTEX
  8
0
 10
0.725261
 20
1.0988
 30
0.0
 40
0
 41
0
  0
VERTEX
  8
0
 10
0.71875
 20
1.10531
 30
0.0
 40
0
 41
0
  0
VERTEX
  8
0
 10
0.71224
 20
1.0988
 30
0.0
 40
0
 41
0
  0
VERTEX
  8
0
 10
0.71875
 20
1.09234
 30
0.0
 40
0
 41
0
  0
VERTEX
  8
0
 10
0.725261
 20
1.0988
 30
0.0
 40
0
 41
0
  0
SEQEND
 8
0
  0
POLYLINE
  8
0
 62
     173
 66
     1
 10
0
 20
0
 30
0.0
 70
     1
 40
0
 41
0
  0
VERTEX
  8
0
 10
0.83024
 20
1.16884
 30
0.0
 40
0
 41
0
  0
VERTEX
  8
0
 10
0.823731
 20
1.17535
 30
0.0
 40
0
 41
0
  0
VERTEX
  8
0
 10
0.817275
 20
1.16884
 30
0.0
 40
0
 41
0
  0
VERTEX
  8
0
 10
0.823731
 20
1.16233
 30
0.0
 40
0
 41
0
  0
VERTEX
  8
0
 10
0.83024
 20
1.16884
 30
0.0
 40
0
 41
0
  0
SEQEND
 8
0
  0
POLYLINE
  8
0
 62
     173
 66
     1
 10
0
 20
0
 30
0.0
 70
     1
 40
0
 41
0
  0
VERTEX
  8
0
 10
0.850261
 20
1.47982
 30
0.0
 40
0
 41
0
  0
VERTEX
  8
0
 10
0.84375
 20
1.48633
 30
0.0
 40
0
 41
0
  0
VERTEX
  8
0
 10
0.83724
 20
1.47982
 30
0.0
 40
0
 41
0
  0
VERTEX
  8
0
 10
0.84375
 20
1.47331
 30
0.0
 40
0
 41
0
  0
VERTEX
  8
0
 10
0.850261
 20
1.47982
 30
0.0
 40
0
 41
0
  0
SEQEND
 8
0
  0
POLYLINE
  8
0
 62
     173
 66
     1
 10
0
 20
0
 30
0.0
 70
     1
 40
0
 41
0
  0
VERTEX
  8
0
 10
0.850261
 20
1.41883
 30
0.0
 40
0
 41
0
  0
VERTEX
  8
0
 10
0.84375
 20
1.42535
 30
0.0
 40
0
 41
0
  0
VERTEX
  8
0
 10
0.83724
 20
1.41883
 30
0.0
 40
0
 41
0
  0
VERTEX
  8
0
 10
0.84375
 20
1.41233
 30
0.0
 40
0
 41
0
  0
VERTEX
  8
0
 10
0.850261
 20
1.41883
 30
0.0
 40
0
 41
0
  0
SEQEND
 8
0
  0
POLYLINE
  8
0
 62
     173
 66
     1
 10
0
 20
0
 30
0.0
 70
     1
 40
0
 41
0
  0
VERTEX
  8
0
 10
0.850261
 20
1.3578
 30
0.0
 40
0
 41
0
  0
VERTEX
  8
0
 10
0.84375
 20
1.36431
 30
0.0
 40
0
 41
0
  0
VERTEX
  8
0
 10
0.83724
 20
1.3578
 30
0.0
 40
0
 41
0
  0
VERTEX
  8
0
 10
0.84375
 20
1.35135
 30
0.0
 40
0
 41
0
  0
VERTEX
  8
0
 10
0.850261
 20
1.3578
 30
0.0
 40
0
 41
0
  0
SEQEND
 8
0
  0
POLYLINE
  8
0
 62
     173
 66
     1
 10
0
 20
0
 30
0.0
 70
     1
 40
0
 41
0
  0
VERTEX
  8
0
 10
0.905274
 20
1.11382
 30
0.0
 40
0
 41
0
  0
VERTEX
  8
0
 10
0.898762
 20
1.12033
 30
0.0
 40
0
 41
0
  0
VERTEX
  8
0
 10
0.892253
 20
1.11382
 30
0.0
 40
0
 41
0
  0
VERTEX
  8
0
 10
0.898762
 20
1.10731
 30
0.0
 40
0
 41
0
  0
VERTEX
  8
0
 10
0.905274
 20
1.11382
 30
0.0
 40
0
 41
0
  0
SEQEND
 8
0
  0
POLYLINE
  8
0
 62
     173
 66
     1
 10
0
 20
0
 30
0.0
 70
     1
 40
0
 41
0
  0
VERTEX
  8
0
 10
0.915256
 20
1.38384
 30
0.0
 40
0
 41
0
  0
VERTEX
  8
0
 10
0.908746
 20
1.39035
 30
0.0
 40
0
 41
0
  0
VERTEX
  8
0
 10
0.902235
 20
1.38384
 30
0.0
 40
0
 41
0
  0
VERTEX
  8
0
 10
0.908746
 20
1.37733
 30
0.0
 40
0
 41
0
  0
VERTEX
  8
0
 10
0.915256
 20
1.38384
 30
0.0
 40
0
 41
0
  0
SEQEND
 8
0
  0
POLYLINE
  8
0
 62
     173
 66
     1
 10
0
 20
0
 30
0.0
 70
     1
 40
0
 41
0
  0
VERTEX
  8
0
 10
0.940267
 20
1.94379
 30
0.0
 40
0
 41
0
  0
VERTEX
  8
0
 10
0.933757
 20
1.95031
 30
0.0
 40
0
 41
0
  0
VERTEX
  8
0
 10
0.927246
 20
1.94379
 30
0.0
 40
0
 41
0
  0
VERTEX
  8
0
 10
0.933757
 20
1.93733
 30
0.0
 40
0
 41
0
  0
VERTEX
  8
0
 10
0.940267
 20
1.94379
 30
0.0
 40
0
 41
0
  0
SEQEND
 8
0
  0
POLYLINE
  8
0
 62
     173
 66
     1
 10
0
 20
0
 30
0.0
 70
     1
 40
0
 41
0
  0
VERTEX
  8
0
 10
0.940267
 20
1.33382
 30
0.0
 40
0
 41
0
  0
VERTEX
  8
0
 10
0.933757
 20
1.34033
 30
0.0
 40
0
 41
0
  0
VERTEX
  8
0
 10
0.927246
 20
1.33382
 30
0.0
 40
0
 41
0
  0
VERTEX
  8
0
 10
0.933757
 20
1.32731
 30
0.0
 40
0
 41
0
  0
VERTEX
  8
0
 10
0.940267
 20
1.33382
 30
0.0
 40
0
 41
0
  0
SEQEND
 8
0
  0
POLYLINE
  8
0
 62
     173
 66
     1
 10
0
 20
0
 30
0.0
 70
     1
 40
0
 41
0
  0
VERTEX
  8
0
 10
0.965278
 20
1.87879
 30
0.0
 40
0
 41
0
  0
VERTEX
  8
0
 10
0.958768
 20
1.88531
 30
0.0
 40
0
 41
0
  0
VERTEX
  8
0
 10
0.952257
 20
1.87879
 30
0.0
 40
0
 41
0
  0
VERTEX
  8
0
 10
0.958768
 20
1.87235
 30
0.0
 40
0
 41
0
  0
VERTEX
  8
0
 10
0.965278
 20
1.87879
 30
0.0
 40
0
 41
0
  0
SEQEND
 8
0
  0
POLYLINE
  8
0
 62
     173
 66
     1
 10
0
 20
0
 30
0.0
 70
     1
 40
0
 41
0
  0
VERTEX
  8
0
 10
0.98546
 20
0.375
 30
0.0
 40
0
 41
0
  0
VERTEX
  8
0
 10
0.97895
 20
0.381511
 30
0.0
 40
0
 41
0
  0
VERTEX
  8
0
 10
0.972439
 20
0.375
 30
0.0
 40
0
 41
0
  0
VERTEX
  8
0
 10
0.97895
 20
0.368544
 30
0.0
 40
0
 41
0
  0
VERTEX
  8
0
 10
0.98546
 20
0.375
 30
0.0
 40
0
 41
0
  0
SEQEND
 8
0
  0
POLYLINE
  8
0
 62
     173
 66
     1
 10
0
 20
0
 30
0.0
 70
     1
 40
0
 41
0
  0
VERTEX
  8
0
 10
1.00027
 20
1.26883
 30
0.0
 40
0
 41
0
  0
VERTEX
  8
0
 10
0.993761
 20
1.27534
 30
0.0
 40
0
 41
0
  0
VERTEX
  8
0
 10
0.98725
 20
1.26883
 30
0.0
 40
0
 41
0
  0
VERTEX
  8
0
 10
0.993761
 20
1.26232
 30
0.0
 40
0
 41
0
  0
VERTEX
  8
0
 10
1.00027
 20
1.26883
 30
0.0
 40
0
 41
0
  0
SEQEND
 8
0
  0
POLYLINE
  8
0
 62
     173
 66
     1
 10
0
 20
0
 30
0.0
 70
     1
 40
0
 41
0
  0
VERTEX
  8
0
 10
1.01525
 20
1.05881
 30
0.0
 40
0
 41
0
  0
VERTEX
  8
0
 10
1.00873
 20
1.06532
 30
0.0
 40
0
 41
0
  0
VERTEX
  8
0
 10
1.00228
 20
1.05881
 30
0.0
 40
0
 41
0
  0
VERTEX
  8
0
 10
1.00873
 20
1.0523
 30
0.0
 40
0
 41
0
  0
VERTEX
  8
0
 10
1.01525
 20
1.05881
 30
0.0
 40
0
 41
0
  0
SEQEND
 8
0
  0
POLYLINE
  8
0
 62
     173
 66
     1
 10
0
 20
0
 30
0.0
 70
     1
 40
0
 41
0
  0
VERTEX
  8
0
 10
1.03527
 20
1.94379
 30
0.0
 40
0
 41
0
  0
VERTEX
  8
0
 10
1.02875
 20
1.95031
 30
0.0
 40
0
 41
0
  0
VERTEX
  8
0
 10
1.02224
 20
1.94379
 30
0.0
 40
0
 41
0
  0
VERTEX
  8
0
 10
1.02875
 20
1.93733
 30
0.0
 40
0
 41
0
  0
VERTEX
  8
0
 10
1.03527
 20
1.94379
 30
0.0
 40
0
 41
0
  0
SEQEND
 8
0
  0
POLYLINE
  8
0
 62
     173
 66
     1
 10
0
 20
0
 30
0.0
 70
     1
 40
0
 41
0
  0
VERTEX
  8
0
 10
1.04047
 20
0.0200196
 30
0.0
 40
0
 41
0
  0
VERTEX
  8
0
 10
1.03396
 20
0.02653
 30
0.0
 40
0
 41
0
  0
VERTEX
  8
0
 10
1.02745
 20
0.0200196
 30
0.0
 40
0
 41
0
  0
VERTEX
  8
0
 10
1.03396
 20
0.0135091
 30
0.0
 40
0
 41
0
  0
VERTEX
  8
0
 10
1.04047
 20
0.0200196
 30
0.0
 40
0
 41
0
  0
SEQEND
 8
0
  0
POLYLINE
  8
0
 62
     173
 66
     1
 10
0
 20
0
 30
0.0
 70
     1
 40
0
 41
0
  0
VERTEX
  8
0
 10
1.07378
 20
1.33382
 30
0.0
 40
0
 41
0
  0
VERTEX
  8
0
 10
1.06728
 20
1.34033
 30
0.0
 40
0
 41
0
  0
VERTEX
  8
0
 10
1.06076
 20
1.33382
 30
0.0
 40
0
 41
0
  0
VERTEX
  8
0
 10
1.06728
 20
1.32731
 30
0.0
 40
0
 41
0
  0
VERTEX
  8
0
 10
1.07378
 20
1.33382
 30
0.0
 40
0
 41
0
  0
SEQEND
 8
0
  0
POLYLINE
  8
0
 62
     173
 66
     1
 10
0
 20
0
 30
0.0
 70
     1
 40
0
 41
0
  0
VERTEX
  8
0
 10
1.07378
 20
1.29883
 30
0.0
 40
0
 41
0
  0
VERTEX
  8
0
 10
1.06728
 20
1.30534
 30
0.0
 40
0
 41
0
  0
VERTEX
  8
0
 10
1.06076
 20
1.29883
 30
0.0
 40
0
 41
0
  0
VERTEX
  8
0
 10
1.06728
 20
1.29232
 30
0.0
 40
0
 41
0
  0
VERTEX
  8
0
 10
1.07378
 20
1.29883
 30
0.0
 40
0
 41
0
  0
SEQEND
 8
0
  0
POLYLINE
  8
0
 62
     173
 66
     1
 10
0
 20
0
 30
0.0
 70
     1
 40
0
 41
0
  0
VERTEX
  8
0
 10
1.07525
 20
1.49382
 30
0.0
 40
0
 41
0
  0
VERTEX
  8
0
 10
1.06874
 20
1.50032
 30
0.0
 40
0
 41
0
  0
VERTEX
  8
0
 10
1.06228
 20
1.49382
 30
0.0
 40
0
 41
0
  0
VERTEX
  8
0
 10
1.06874
 20
1.48731
 30
0.0
 40
0
 41
0
  0
VERTEX
  8
0
 10
1.07525
 20
1.49382
 30
0.0
 40
0
 41
0
  0
SEQEND
 8
0
  0
POLYLINE
  8
0
 62
     173
 66
     1
 10
0
 20
0
 30
0.0
 70
     1
 40
0
 41
0
  0
VERTEX
  8
0
 10
1.10026
 20
1.60385
 30
0.0
 40
0
 41
0
  0
VERTEX
  8
0
 10
1.09375
 20
1.61035
 30
0.0
 40
0
 41
0
  0
VERTEX
  8
0
 10
1.08724
 20
1.60385
 30
0.0
 40
0
 41
0
  0
VERTEX
  8
0
 10
1.09375
 20
1.59733
 30
0.0
 40
0
 41
0
  0
VERTEX
  8
0
 10
1.10026
 20
1.60385
 30
0.0
 40
0
 41
0
  0
SEQEND
 8
0
  0
POLYLINE
  8
0
 62
     173
 66
     1
 10
0
 20
0
 30
0.0
 70
     1
 40
0
 41
0
  0
VERTEX
  8
0
 10
1.10525
 20
1.87733
 30
0.0
 40
0
 41
0
  0
VERTEX
  8
0
 10
1.09874
 20
1.88385
 30
0.0
 40
0
 41
0
  0
VERTEX
  8
0
 10
1.09228
 20
1.87733
 30
0.0
 40
0
 41
0
  0
VERTEX
  8
0
 10
1.09874
 20
1.87082
 30
0.0
 40
0
 41
0
  0
VERTEX
  8
0
 10
1.10525
 20
1.87733
 30
0.0
 40
0
 41
0
  0
SEQEND
 8
0
  0
POLYLINE
  8
0
 62
     173
 66
     1
 10
0
 20
0
 30
0.0
 70
     1
 40
0
 41
0
  0
VERTEX
  8
0
 10
1.11523
 20
2.31879
 30
0.0
 40
0
 41
0
  0
VERTEX
  8
0
 10
1.10872
 20
2.32531
 30
0.0
 40
0
 41
0
  0
VERTEX
  8
0
 10
1.10227
 20
2.31879
 30
0.0
 40
0
 41
0
  0
VERTEX
  8
0
 10
1.10872
 20
2.31233
 30
0.0
 40
0
 41
0
  0
VERTEX
  8
0
 10
1.11523
 20
2.31879
 30
0.0
 40
0
 41
0
  0
SEQEND
 8
0
  0
POLYLINE
  8
0
 62
     173
 66
     1
 10
0
 20
0
 30
0.0
 70
     1
 40
0
 41
0
  0
VERTEX
  8
0
 10
1.12375
 20
1.50782
 30
0.0
 40
0
 41
0
  0
VERTEX
  8
0
 10
1.11724
 20
1.51432
 30
0.0
 40
0
 41
0
  0
VERTEX
  8
0
 10
1.11079
 20
1.50782
 30
0.0
 40
0
 41
0
  0
VERTEX
  8
0
 10
1.11724
 20
1.50131
 30
0.0
 40
0
 41
0
  0
VERTEX
  8
0
 10
1.12375
 20
1.50782
 30
0.0
 40
0
 41
0
  0
SEQEND
 8
0
  0
POLYLINE
  8
0
 62
     173
 66
     1
 10
0
 20
0
 30
0.0
 70
     1
 40
0
 41
0
  0
VERTEX
  8
0
 10
1.13525
 20
1.39382
 30
0.0
 40
0
 41
0
  0
VERTEX
  8
0
 10
1.12874
 20
1.40033
 30
0.0
 40
0
 41
0
  0
VERTEX
  8
0
 10
1.12229
 20
1.39382
 30
0.0
 40
0
 41
0
  0
VERTEX
  8
0
 10
1.12874
 20
1.38732
 30
0.0
 40
0
 41
0
  0
VERTEX
  8
0
 10
1.13525
 20
1.39382
 30
0.0
 40
0
 41
0
  0
SEQEND
 8
0
  0
POLYLINE
  8
0
 62
     173
 66
     1
 10
0
 20
0
 30
0.0
 70
     1
 40
0
 41
0
  0
VERTEX
  8
0
 10
1.13547
 20
0.465007
 30
0.0
 40
0
 41
0
  0
VERTEX
  8
0
 10
1.12896
 20
0.471517
 30
0.0
 40
0
 41
0
  0
VERTEX
  8
0
 10
1.12245
 20
0.465007
 30
0.0
 40
0
 41
0
  0
VERTEX
  8
0
 10
1.12896
 20
0.458496
 30
0.0
 40
0
 41
0
  0
VERTEX
  8
0
 10
1.13547
 20
0.465007
 30
0.0
 40
0
 41
0
  0
SEQEND
 8
0
  0
POLYLINE
  8
0
 62
     173
 66
     1
 10
0
 20
0
 30
0.0
 70
     1
 40
0
 41
0
  0
VERTEX
  8
0
 10
1.14524
 20
1.86882
 30
0.0
 40
0
 41
0
  0
VERTEX
  8
0
 10
1.13873
 20
1.87532
 30
0.0
 40
0
 41
0
  0
VERTEX
  8
0
 10
1.13227
 20
1.86882
 30
0.0
 40
0
 41
0
  0
VERTEX
  8
0
 10
1.13873
 20
1.86231
 30
0.0
 40
0
 41
0
  0
VERTEX
  8
0
 10
1.14524
 20
1.86882
 30
0.0
 40
0
 41
0
  0
SEQEND
 8
0
  0
POLYLINE
  8
0
 62
     173
 66
     1
 10
0
 20
0
 30
0.0
 70
     1
 40
0
 41
0
  0
VERTEX
  8
0
 10
1.15375
 20
1.0938
 30
0.0
 40
0
 41
0
  0
VERTEX
  8
0
 10
1.14724
 20
1.10032
 30
0.0
 40
0
 41
0
  0
VERTEX
  8
0
 10
1.14073
 20
1.0938
 30
0.0
 40
0
 41
0
  0
VERTEX
  8
0
 10
1.14724
 20
1.08729
 30
0.0
 40
0
 41
0
  0
VERTEX
  8
0
 10
1.15375
 20
1.0938
 30
0.0
 40
0
 41
0
  0
SEQEND
 8
0
  0
POLYLINE
  8
0
 62
     173
 66
     1
 10
0
 20
0
 30
0.0
 70
     1
 40
0
 41
0
  0
VERTEX
  8
0
 10
1.15777
 20
1.50782
 30
0.0
 40
0
 41
0
  0
VERTEX
  8
0
 10
1.15126
 20
1.51432
 30
0.0
 40
0
 41
0
  0
VERTEX
  8
0
 10
1.14475
 20
1.50782
 30
0.0
 40
0
 41
0
  0
VERTEX
  8
0
 10
1.15126
 20
1.50131
 30
0.0
 40
0
 41
0
  0
VERTEX
  8
0
 10
1.15777
 20
1.50782
 30
0.0
 40
0
 41
0
  0
SEQEND
 8
0
  0
POLYLINE
  8
0
 62
     173
 66
     1
 10
0
 20
0
 30
0.0
 70
     1
 40
0
 41
0
  0
VERTEX
  8
0
 10
1.18527
 20
2.31879
 30
0.0
 40
0
 41
0
  0
VERTEX
  8
0
 10
1.17877
 20
2.32531
 30
0.0
 40
0
 41
0
  0
VERTEX
  8
0
 10
1.17225
 20
2.31879
 30
0.0
 40
0
 41
0
  0
VERTEX
  8
0
 10
1.17877
 20
2.31233
 30
0.0
 40
0
 41
0
  0
VERTEX
  8
0
 10
1.18527
 20
2.31879
 30
0.0
 40
0
 41
0
  0
SEQEND
 8
0
  0
POLYLINE
  8
0
 62
     173
 66
     1
 10
0
 20
0
 30
0.0
 70
     1
 40
0
 41
0
  0
VERTEX
  8
0
 10
1.18875
 20
1.0938
 30
0.0
 40
0
 41
0
  0
VERTEX
  8
0
 10
1.18224
 20
1.10032
 30
0.0
 40
0
 41
0
  0
VERTEX
  8
0
 10
1.17578
 20
1.0938
 30
0.0
 40
0
 41
0
  0
VERTEX
  8
0
 10
1.18224
 20
1.08729
 30
0.0
 40
0
 41
0
  0
VERTEX
  8
0
 10
1.18875
 20
1.0938
 30
0.0
 40
0
 41
0
  0
SEQEND
 8
0
  0
POLYLINE
  8
0
 62
     173
 66
     1
 10
0
 20
0
 30
0.0
 70
     1
 40
0
 41
0
  0
VERTEX
  8
0
 10
1.19179
 20
1.50782
 30
0.0
 40
0
 41
0
  0
VERTEX
  8
0
 10
1.18527
 20
1.51432
 30
0.0
 40
0
 41
0
  0
VERTEX
  8
0
 10
1.17877
 20
1.50782
 30
0.0
 40
0
 41
0
  0
VERTEX
  8
0
 10
1.18527
 20
1.50131
 30
0.0
 40
0
 41
0
  0
VERTEX
  8
0
 10
1.19179
 20
1.50782
 30
0.0
 40
0
 41
0
  0
SEQEND
 8
0
  0
POLYLINE
  8
0
 62
     173
 66
     1
 10
0
 20
0
 30
0.0
 70
     1
 40
0
 41
0
  0
VERTEX
  8
0
 10
1.22526
 20
1.0938
 30
0.0
 40
0
 41
0
  0
VERTEX
  8
0
 10
1.21875
 20
1.10032
 30
0.0
 40
0
 41
0
  0
VERTEX
  8
0
 10
1.21224
 20
1.0938
 30
0.0
 40
0
 41
0
  0
VERTEX
  8
0
 10
1.21875
 20
1.08729
 30
0.0
 40
0
 41
0
  0
VERTEX
  8
0
 10
1.22526
 20
1.0938
 30
0.0
 40
0
 41
0
  0
SEQEND
 8
0
  0
POLYLINE
  8
0
 62
     173
 66
     1
 10
0
 20
0
 30
0.0
 70
     1
 40
0
 41
0
  0
VERTEX
  8
0
 10
1.24023
 20
1.38883
 30
0.0
 40
0
 41
0
  0
VERTEX
  8
0
 10
1.23372
 20
1.39535
 30
0.0
 40
0
 41
0
  0
VERTEX
  8
0
 10
1.22727
 20
1.38883
 30
0.0
 40
0
 41
0
  0
VERTEX
  8
0
 10
1.23372
 20
1.38232
 30
0.0
 40
0
 41
0
  0
VERTEX
  8
0
 10
1.24023
 20
1.38883
 30
0.0
 40
0
 41
0
  0
SEQEND
 8
0
  0
POLYLINE
  8
0
 62
     173
 66
     1
 10
0
 20
0
 30
0.0
 70
     1
 40
0
 41
0
  0
VERTEX
  8
0
 10
1.25526
 20
1.2538
 30
0.0
 40
0
 41
0
  0
VERTEX
  8
0
 10
1.24875
 20
1.26031
 30
0.0
 40
0
 41
0
  0
VERTEX
  8
0
 10
1.24224
 20
1.2538
 30
0.0
 40
0
 41
0
  0
VERTEX
  8
0
 10
1.24875
 20
1.24734
 30
0.0
 40
0
 41
0
  0
VERTEX
  8
0
 10
1.25526
 20
1.2538
 30
0.0
 40
0
 41
0
  0
SEQEND
 8
0
  0
POLYLINE
  8
0
 62
     173
 66
     1
 10
0
 20
0
 30
0.0
 70
     1
 40
0
 41
0
  0
VERTEX
  8
0
 10
1.27528
 20
0.923828
 30
0.0
 40
0
 41
0
  0
VERTEX
  8
0
 10
1.26877
 20
0.930339
 30
0.0
 40
0
 41
0
  0
VERTEX
  8
0
 10
1.26226
 20
0.923828
 30
0.0
 40
0
 41
0
  0
VERTEX
  8
0
 10
1.26877
 20
0.917318
 30
0.0
 40
0
 41
0
  0
VERTEX
  8
0
 10
1.27528
 20
0.923828
 30
0.0
 40
0
 41
0
  0
SEQEND
 8
0
  0
POLYLINE
  8
0
 62
     173
 66
     1
 10
0
 20
0
 30
0.0
 70
     1
 40
0
 41
0
  0
VERTEX
  8
0
 10
1.33545
 20
0.150011
 30
0.0
 40
0
 41
0
  0
VERTEX
  8
0
 10
1.32894
 20
0.156521
 30
0.0
 40
0
 41
0
  0
VERTEX
  8
0
 10
1.32248
 20
0.150011
 30
0.0
 40
0
 41
0
  0
VERTEX
  8
0
 10
1.32894
 20
0.1435
 30
0.0
 40
0
 41
0
  0
VERTEX
  8
0
 10
1.33545
 20
0.150011
 30
0.0
 40
0
 41
0
  0
SEQEND
 8
0
  0
POLYLINE
  8
0
 62
     173
 66
     1
 10
0
 20
0
 30
0.0
 70
     1
 40
0
 41
0
  0
VERTEX
  8
0
 10
1.34044
 20
0.365018
 30
0.0
 40
0
 41
0
  0
VERTEX
  8
0
 10
1.33393
 20
0.371528
 30
0.0
 40
0
 41
0
  0
VERTEX
  8
0
 10
1.32747
 20
0.365018
 30
0.0
 40
0
 41
0
  0
VERTEX
  8
0
 10
1.33393
 20
0.358507
 30
0.0
 40
0
 41
0
  0
VERTEX
  8
0
 10
1.34044
 20
0.365018
 30
0.0
 40
0
 41
0
  0
SEQEND
 8
0
  0
POLYLINE
  8
0
 62
     173
 66
     1
 10
0
 20
0
 30
0.0
 70
     1
 40
0
 41
0
  0
VERTEX
  8
0
 10
1.34527
 20
1.46382
 30
0.0
 40
0
 41
0
  0
VERTEX
  8
0
 10
1.33876
 20
1.47032
 30
0.0
 40
0
 41
0
  0
VERTEX
  8
0
 10
1.33225
 20
1.46382
 30
0.0
 40
0
 41
0
  0
VERTEX
  8
0
 10
1.33876
 20
1.45731
 30
0.0
 40
0
 41
0
  0
VERTEX
  8
0
 10
1.34527
 20
1.46382
 30
0.0
 40
0
 41
0
  0
SEQEND
 8
0
  0
POLYLINE
  8
0
 62
     173
 66
     1
 10
0
 20
0
 30
0.0
 70
     1
 40
0
 41
0
  0
VERTEX
  8
0
 10
1.35048
 20
0.0150282
 30
0.0
 40
0
 41
0
  0
VERTEX
  8
0
 10
1.34397
 20
0.0215386
 30
0.0
 40
0
 41
0
  0
VERTEX
  8
0
 10
1.33746
 20
0.0150282
 30
0.0
 40
0
 41
0
  0
VERTEX
  8
0
 10
1.34397
 20
0.00851779
 30
0.0
 40
0
 41
0
  0
VERTEX
  8
0
 10
1.35048
 20
0.0150282
 30
0.0
 40
0
 41
0
  0
SEQEND
 8
0
  0
POLYLINE
  8
0
 62
     173
 66
     1
 10
0
 20
0
 30
0.0
 70
     1
 40
0
 41
0
  0
VERTEX
  8
0
 10
1.35547
 20
0.564996
 30
0.0
 40
0
 41
0
  0
VERTEX
  8
0
 10
1.34896
 20
0.571506
 30
0.0
 40
0
 41
0
  0
VERTEX
  8
0
 10
1.34245
 20
0.564996
 30
0.0
 40
0
 41
0
  0
VERTEX
  8
0
 10
1.34896
 20
0.558539
 30
0.0
 40
0
 41
0
  0
VERTEX
  8
0
 10
1.35547
 20
0.564996
 30
0.0
 40
0
 41
0
  0
SEQEND
 8
0
  0
POLYLINE
  8
0
 62
     173
 66
     1
 10
0
 20
0
 30
0.0
 70
     1
 40
0
 41
0
  0
VERTEX
  8
0
 10
1.37543
 20
0.0750325
 30
0.0
 40
0
 41
0
  0
VERTEX
  8
0
 10
1.36892
 20
0.0815429
 30
0.0
 40
0
 41
0
  0
VERTEX
  8
0
 10
1.36247
 20
0.0750325
 30
0.0
 40
0
 41
0
  0
VERTEX
  8
0
 10
1.36892
 20
0.0685221
 30
0.0
 40
0
 41
0
  0
VERTEX
  8
0
 10
1.37543
 20
0.0750325
 30
0.0
 40
0
 41
0
  0
SEQEND
 8
0
  0
POLYLINE
  8
0
 62
     173
 66
     1
 10
0
 20
0
 30
0.0
 70
     1
 40
0
 41
0
  0
VERTEX
  8
0
 10
1.38547
 20
0.0200196
 30
0.0
 40
0
 41
0
  0
VERTEX
  8
0
 10
1.37896
 20
0.02653
 30
0.0
 40
0
 41
0
  0
VERTEX
  8
0
 10
1.37245
 20
0.0200196
 30
0.0
 40
0
 41
0
  0
VERTEX
  8
0
 10
1.37896
 20
0.0135091
 30
0.0
 40
0
 41
0
  0
VERTEX
  8
0
 10
1.38547
 20
0.0200196
 30
0.0
 40
0
 41
0
  0
SEQEND
 8
0
  0
POLYLINE
  8
0
 62
     173
 66
     1
 10
0
 20
0
 30
0.0
 70
     1
 40
0
 41
0
  0
VERTEX
  8
0
 10
1.39025
 20
1.36882
 30
0.0
 40
0
 41
0
  0
VERTEX
  8
0
 10
1.38373
 20
1.37533
 30
0.0
 40
0
 41
0
  0
VERTEX
  8
0
 10
1.37728
 20
1.36882
 30
0.0
 40
0
 41
0
  0
VERTEX
  8
0
 10
1.38373
 20
1.3623
 30
0.0
 40
0
 41
0
  0
VERTEX
  8
0
 10
1.39025
 20
1.36882
 30
0.0
 40
0
 41
0
  0
SEQEND
 8
0
  0
POLYLINE
  8
0
 62
     173
 66
     1
 10
0
 20
0
 30
0.0
 70
     1
 40
0
 41
0
  0
VERTEX
  8
0
 10
1.44526
 20
1.50379
 30
0.0
 40
0
 41
0
  0
VERTEX
  8
0
 10
1.43875
 20
1.51031
 30
0.0
 40
0
 41
0
  0
VERTEX
  8
0
 10
1.43224
 20
1.50379
 30
0.0
 40
0
 41
0
  0
VERTEX
  8
0
 10
1.43875
 20
1.49735
 30
0.0
 40
0
 41
0
  0
VERTEX
  8
0
 10
1.44526
 20
1.50379
 30
0.0
 40
0
 41
0
  0
SEQEND
 8
0
  0
POLYLINE
  8
0
 62
     173
 66
     1
 10
0
 20
0
 30
0.0
 70
     1
 40
0
 41
0
  0
VERTEX
  8
0
 10
1.46029
 20
1.62381
 30
0.0
 40
0
 41
0
  0
VERTEX
  8
0
 10
1.45378
 20
1.63032
 30
0.0
 40
0
 41
0
  0
VERTEX
  8
0
 10
1.44726
 20
1.62381
 30
0.0
 40
0
 41
0
  0
VERTEX
  8
0
 10
1.45378
 20
1.61729
 30
0.0
 40
0
 41
0
  0
VERTEX
  8
0
 10
1.46029
 20
1.62381
 30
0.0
 40
0
 41
0
  0
SEQEND
 8
0
  0
POLYLINE
  8
0
 62
     173
 66
     1
 10
0
 20
0
 30
0.0
 70
     1
 40
0
 41
0
  0
VERTEX
  8
0
 10
1.48876
 20
1.17383
 30
0.0
 40
0
 41
0
  0
VERTEX
  8
0
 10
1.48226
 20
1.18034
 30
0.0
 40
0
 41
0
  0
VERTEX
  8
0
 10
1.47575
 20
1.17383
 30
0.0
 40
0
 41
0
  0
VERTEX
  8
0
 10
1.48226
 20
1.16732
 30
0.0
 40
0
 41
0
  0
VERTEX
  8
0
 10
1.48876
 20
1.17383
 30
0.0
 40
0
 41
0
  0
SEQEND
 8
0
  0
POLYLINE
  8
0
 62
     173
 66
     1
 10
0
 20
0
 30
0.0
 70
     1
 40
0
 41
0
  0
VERTEX
  8
0
 10
1.49024
 20
1.1288
 30
0.0
 40
0
 41
0
  0
VERTEX
  8
0
 10
1.48372
 20
1.13531
 30
0.0
 40
0
 41
0
  0
VERTEX
  8
0
 10
1.47726
 20
1.1288
 30
0.0
 40
0
 41
0
  0
VERTEX
  8
0
 10
1.48372
 20
1.12234
 30
0.0
 40
0
 41
0
  0
VERTEX
  8
0
 10
1.49024
 20
1.1288
 30
0.0
 40
0
 41
0
  0
SEQEND
 8
0
  0
POLYLINE
  8
0
 62
     173
 66
     1
 10
0
 20
0
 30
0.0
 70
     1
 40
0
 41
0
  0
VERTEX
  8
0
 10
1.50043
 20
0.610026
 30
0.0
 40
0
 41
0
  0
VERTEX
  8
0
 10
1.49393
 20
0.616536
 30
0.0
 40
0
 41
0
  0
VERTEX
  8
0
 10
1.48747
 20
0.610026
 30
0.0
 40
0
 41
0
  0
VERTEX
  8
0
 10
1.49393
 20
0.603515
 30
0.0
 40
0
 41
0
  0
VERTEX
  8
0
 10
1.50043
 20
0.610026
 30
0.0
 40
0
 41
0
  0
SEQEND
 8
0
  0
POLYLINE
  8
0
 62
     173
 66
     1
 10
0
 20
0
 30
0.0
 70
     1
 40
0
 41
0
  0
VERTEX
  8
0
 10
1.51025
 20
1.51882
 30
0.0
 40
0
 41
0
  0
VERTEX
  8
0
 10
1.50375
 20
1.52533
 30
0.0
 40
0
 41
0
  0
VERTEX
  8
0
 10
1.49729
 20
1.51882
 30
0.0
 40
0
 41
0
  0
VERTEX
  8
0
 10
1.50375
 20
1.51232
 30
0.0
 40
0
 41
0
  0
VERTEX
  8
0
 10
1.51025
 20
1.51882
 30
0.0
 40
0
 41
0
  0
SEQEND
 8
0
  0
POLYLINE
  8
0
 62
     173
 66
     1
 10
0
 20
0
 30
0.0
 70
     1
 40
0
 41
0
  0
VERTEX
  8
0
 10
1.59044
 20
0.415039
 30
0.0
 40
0
 41
0
  0
VERTEX
  8
0
 10
1.58393
 20
0.42155
 30
0.0
 40
0
 41
0
  0
VERTEX
  8
0
 10
1.57747
 20
0.415039
 30
0.0
 40
0
 41
0
  0
VERTEX
  8
0
 10
1.58393
 20
0.408529
 30
0.0
 40
0
 41
0
  0
VERTEX
  8
0
 10
1.59044
 20
0.415039
 30
0.0
 40
0
 41
0
  0
SEQEND
 8
0
  0
POLYLINE
  8
0
 62
     173
 66
     1
 10
0
 20
0
 30
0.0
 70
     1
 40
0
 41
0
  0
VERTEX
  8
0
 10
1.59044
 20
0.270019
 30
0.0
 40
0
 41
0
  0
VERTEX
  8
0
 10
1.58393
 20
0.276531
 30
0.0
 40
0
 41
0
  0
VERTEX
  8
0
 10
1.57747
 20
0.270019
 30
0.0
 40
0
 41
0
  0
VERTEX
  8
0
 10
1.58393
 20
0.26351
 30
0.0
 40
0
 41
0
  0
VERTEX
  8
0
 10
1.59044
 20
0.270019
 30
0.0
 40
0
 41
0
  0
SEQEND
 8
0
  0
POLYLINE
  8
0
 62
     173
 66
     1
 10
0
 20
0
 30
0.0
 70
     1
 40
0
 41
0
  0
VERTEX
  8
0
 10
1.59044
 20
0.225043
 30
0.0
 40
0
 41
0
  0
VERTEX
  8
0
 10
1.58393
 20
0.231554
 30
0.0
 40
0
 41
0
  0
VERTEX
  8
0
 10
1.57747
 20
0.225043
 30
0.0
 40
0
 41
0
  0
VERTEX
  8
0
 10
1.58393
 20
0.218533
 30
0.0
 40
0
 41
0
  0
VERTEX
  8
0
 10
1.59044
 20
0.225043
 30
0.0
 40
0
 41
0
  0
SEQEND
 8
0
  0
POLYLINE
  8
0
 62
     173
 66
     1
 10
0
 20
0
 30
0.0
 70
     1
 40
0
 41
0
  0
VERTEX
  8
0
 10
1.59044
 20
0.155003
 30
0.0
 40
0
 41
0
  0
VERTEX
  8
0
 10
1.58393
 20
0.161512
 30
0.0
 40
0
 41
0
  0
VERTEX
  8
0
 10
1.57747
 20
0.155003
 30
0.0
 40
0
 41
0
  0
VERTEX
  8
0
 10
1.58393
 20
0.148546
 30
0.0
 40
0
 41
0
  0
VERTEX
  8
0
 10
1.59044
 20
0.155003
 30
0.0
 40
0
 41
0
  0
SEQEND
 8
0
  0
POLYLINE
  8
0
 62
     173
 66
     1
 10
0
 20
0
 30
0.0
 70
     1
 40
0
 41
0
  0
VERTEX
  8
0
 10
1.62028
 20
1.2238
 30
0.0
 40
0
 41
0
  0
VERTEX
  8
0
 10
1.61376
 20
1.23031
 30
0.0
 40
0
 41
0
  0
VERTEX
  8
0
 10
1.60726
 20
1.2238
 30
0.0
 40
0
 41
0
  0
VERTEX
  8
0
 10
1.61376
 20
1.21734
 30
0.0
 40
0
 41
0
  0
VERTEX
  8
0
 10
1.62028
 20
1.2238
 30
0.0
 40
0
 41
0
  0
SEQEND
 8
0
  0
POLYLINE
  8
0
 62
     173
 66
     1
 10
0
 20
0
 30
0.0
 70
     1
 40
0
 41
0
  0
VERTEX
  8
0
 10
1.64025
 20
1.51882
 30
0.0
 40
0
 41
0
  0
VERTEX
  8
0
 10
1.63374
 20
1.52533
 30
0.0
 40
0
 41
0
  0
VERTEX
  8
0
 10
1.62728
 20
1.51882
 30
0.0
 40
0
 41
0
  0
VERTEX
  8
0
 10
1.63374
 20
1.51232
 30
0.0
 40
0
 41
0
  0
VERTEX
  8
0
 10
1.64025
 20
1.51882
 30
0.0
 40
0
 41
0
  0
SEQEND
 8
0
  0
POLYLINE
  8
0
 62
     173
 66
     1
 10
0
 20
0
 30
0.0
 70
     1
 40
0
 41
0
  0
VERTEX
  8
0
 10
1.64025
 20
1.01883
 30
0.0
 40
0
 41
0
  0
VERTEX
  8
0
 10
1.63374
 20
1.02534
 30
0.0
 40
0
 41
0
  0
VERTEX
  8
0
 10
1.62728
 20
1.01883
 30
0.0
 40
0
 41
0
  0
VERTEX
  8
0
 10
1.63374
 20
1.01232
 30
0.0
 40
0
 41
0
  0
VERTEX
  8
0
 10
1.64025
 20
1.01883
 30
0.0
 40
0
 41
0
  0
SEQEND
 8
0
  0
POLYLINE
  8
0
 62
     173
 66
     1
 10
0
 20
0
 30
0.0
 70
     1
 40
0
 41
0
  0
VERTEX
  8
0
 10
1.64046
 20
0.415039
 30
0.0
 40
0
 41
0
  0
VERTEX
  8
0
 10
1.63396
 20
0.42155
 30
0.0
 40
0
 41
0
  0
VERTEX
  8
0
 10
1.62744
 20
0.415039
 30
0.0
 40
0
 41
0
  0
VERTEX
  8
0
 10
1.63396
 20
0.408529
 30
0.0
 40
0
 41
0
  0
VERTEX
  8
0
 10
1.64046
 20
0.415039
 30
0.0
 40
0
 41
0
  0
SEQEND
 8
0
  0
POLYLINE
  8
0
 62
     173
 66
     1
 10
0
 20
0
 30
0.0
 70
     1
 40
0
 41
0
  0
VERTEX
  8
0
 10
1.66026
 20
1.94379
 30
0.0
 40
0
 41
0
  0
VERTEX
  8
0
 10
1.65375
 20
1.95031
 30
0.0
 40
0
 41
0
  0
VERTEX
  8
0
 10
1.64725
 20
1.94379
 30
0.0
 40
0
 41
0
  0
VERTEX
  8
0
 10
1.65375
 20
1.93733
 30
0.0
 40
0
 41
0
  0
VERTEX
  8
0
 10
1.66026
 20
1.94379
 30
0.0
 40
0
 41
0
  0
SEQEND
 8
0
  0
POLYLINE
  8
0
 62
     173
 66
     1
 10
0
 20
0
 30
0.0
 70
     1
 40
0
 41
0
  0
VERTEX
  8
0
 10
1.68528
 20
1.87879
 30
0.0
 40
0
 41
0
  0
VERTEX
  8
0
 10
1.67876
 20
1.88531
 30
0.0
 40
0
 41
0
  0
VERTEX
  8
0
 10
1.67225
 20
1.87879
 30
0.0
 40
0
 41
0
  0
VERTEX
  8
0
 10
1.67876
 20
1.87235
 30
0.0
 40
0
 41
0
  0
VERTEX
  8
0
 10
1.68528
 20
1.87879
 30
0.0
 40
0
 41
0
  0
SEQEND
 8
0
  0
POLYLINE
  8
0
 62
     173
 66
     1
 10
0
 20
0
 30
0.0
 70
     1
 40
0
 41
0
  0
VERTEX
  8
0
 10
1.69026
 20
1.59381
 30
0.0
 40
0
 41
0
  0
VERTEX
  8
0
 10
1.68375
 20
1.60032
 30
0.0
 40
0
 41
0
  0
VERTEX
  8
0
 10
1.67725
 20
1.59381
 30
0.0
 40
0
 41
0
  0
VERTEX
  8
0
 10
1.68375
 20
1.58729
 30
0.0
 40
0
 41
0
  0
VERTEX
  8
0
 10
1.69026
 20
1.59381
 30
0.0
 40
0
 41
0
  0
SEQEND
 8
0
  0
POLYLINE
  8
0
 62
     173
 66
     1
 10
0
 20
0
 30
0.0
 70
     1
 40
0
 41
0
  0
VERTEX
  8
0
 10
1.74024
 20
1.59381
 30
0.0
 40
0
 41
0
  0
VERTEX
  8
0
 10
1.73372
 20
1.60032
 30
0.0
 40
0
 41
0
  0
VERTEX
  8
0
 10
1.72726
 20
1.59381
 30
0.0
 40
0
 41
0
  0
VERTEX
  8
0
 10
1.73372
 20
1.58729
 30
0.0
 40
0
 41
0
  0
VERTEX
  8
0
 10
1.74024
 20
1.59381
 30
0.0
 40
0
 41
0
  0
SEQEND
 8
0
  0
POLYLINE
  8
0
 62
     173
 66
     1
 10
0
 20
0
 30
0.0
 70
     1
 40
0
 41
0
  0
VERTEX
  8
0
 10
1.74046
 20
0.415039
 30
0.0
 40
0
 41
0
  0
VERTEX
  8
0
 10
1.73394
 20
0.42155
 30
0.0
 40
0
 41
0
  0
VERTEX
  8
0
 10
1.72749
 20
0.415039
 30
0.0
 40
0
 41
0
  0
VERTEX
  8
0
 10
1.73394
 20
0.408529
 30
0.0
 40
0
 41
0
  0
VERTEX
  8
0
 10
1.74046
 20
0.415039
 30
0.0
 40
0
 41
0
  0
SEQEND
 8
0
  0
POLYLINE
  8
0
 62
     173
 66
     1
 10
0
 20
0
 30
0.0
 70
     1
 40
0
 41
0
  0
VERTEX
  8
0
 10
1.74046
 20
0.155003
 30
0.0
 40
0
 41
0
  0
VERTEX
  8
0
 10
1.73394
 20
0.161512
 30
0.0
 40
0
 41
0
  0
VERTEX
  8
0
 10
1.72749
 20
0.155003
 30
0.0
 40
0
 41
0
  0
VERTEX
  8
0
 10
1.73394
 20
0.148546
 30
0.0
 40
0
 41
0
  0
VERTEX
  8
0
 10
1.74046
 20
0.155003
 30
0.0
 40
0
 41
0
  0
SEQEND
 8
0
  0
POLYLINE
  8
0
 62
     173
 66
     1
 10
0
 20
0
 30
0.0
 70
     1
 40
0
 41
0
  0
VERTEX
  8
0
 10
1.75526
 20
1.94379
 30
0.0
 40
0
 41
0
  0
VERTEX
  8
0
 10
1.74875
 20
1.95031
 30
0.0
 40
0
 41
0
  0
VERTEX
  8
0
 10
1.74224
 20
1.94379
 30
0.0
 40
0
 41
0
  0
VERTEX
  8
0
 10
1.74875
 20
1.93733
 30
0.0
 40
0
 41
0
  0
VERTEX
  8
0
 10
1.75526
 20
1.94379
 30
0.0
 40
0
 41
0
  0
SEQEND
 8
0
  0
POLYLINE
  8
0
 62
     173
 66
     1
 10
0
 20
0
 30
0.0
 70
     1
 40
0
 41
0
  0
VERTEX
  8
0
 10
1.79025
 20
1.59381
 30
0.0
 40
0
 41
0
  0
VERTEX
  8
0
 10
1.78375
 20
1.60032
 30
0.0
 40
0
 41
0
  0
VERTEX
  8
0
 10
1.77724
 20
1.59381
 30
0.0
 40
0
 41
0
  0
VERTEX
  8
0
 10
1.78375
 20
1.58729
 30
0.0
 40
0
 41
0
  0
VERTEX
  8
0
 10
1.79025
 20
1.59381
 30
0.0
 40
0
 41
0
  0
SEQEND
 8
0
  0
POLYLINE
  8
0
 62
     173
 66
     1
 10
0
 20
0
 30
0.0
 70
     1
 40
0
 41
0
  0
VERTEX
  8
0
 10
1.79025
 20
1.45383
 30
0.0
 40
0
 41
0
  0
VERTEX
  8
0
 10
1.78375
 20
1.46035
 30
0.0
 40
0
 41
0
  0
VERTEX
  8
0
 10
1.77724
 20
1.45383
 30
0.0
 40
0
 41
0
  0
VERTEX
  8
0
 10
1.78375
 20
1.44732
 30
0.0
 40
0
 41
0
  0
VERTEX
  8
0
 10
1.79025
 20
1.45383
 30
0.0
 40
0
 41
0
  0
SEQEND
 8
0
  0
POLYLINE
  8
0
 62
     173
 66
     1
 10
0
 20
0
 30
0.0
 70
     1
 40
0
 41
0
  0
VERTEX
  8
0
 10
1.79025
 20
1.3488
 30
0.0
 40
0
 41
0
  0
VERTEX
  8
0
 10
1.78375
 20
1.35531
 30
0.0
 40
0
 41
0
  0
VERTEX
  8
0
 10
1.77724
 20
1.3488
 30
0.0
 40
0
 41
0
  0
VERTEX
  8
0
 10
1.78375
 20
1.34234
 30
0.0
 40
0
 41
0
  0
VERTEX
  8
0
 10
1.79025
 20
1.3488
 30
0.0
 40
0
 41
0
  0
SEQEND
 8
0
  0
POLYLINE
  8
0
 62
     173
 66
     1
 10
0
 20
0
 30
0.0
 70
     1
 40
0
 41
0
  0
VERTEX
  8
0
 10
1.79025
 20
1.26883
 30
0.0
 40
0
 41
0
  0
VERTEX
  8
0
 10
1.78375
 20
1.27534
 30
0.0
 40
0
 41
0
  0
VERTEX
  8
0
 10
1.77724
 20
1.26883
 30
0.0
 40
0
 41
0
  0
VERTEX
  8
0
 10
1.78375
 20
1.26232
 30
0.0
 40
0
 41
0
  0
VERTEX
  8
0
 10
1.79025
 20
1.26883
 30
0.0
 40
0
 41
0
  0
SEQEND
 8
0
  0
POLYLINE
  8
0
 62
     173
 66
     1
 10
0
 20
0
 30
0.0
 70
     1
 40
0
 41
0
  0
VERTEX
  8
0
 10
1.79025
 20
1.17882
 30
0.0
 40
0
 41
0
  0
VERTEX
  8
0
 10
1.78375
 20
1.18533
 30
0.0
 40
0
 41
0
  0
VERTEX
  8
0
 10
1.77724
 20
1.17882
 30
0.0
 40
0
 41
0
  0
VERTEX
  8
0
 10
1.78375
 20
1.17231
 30
0.0
 40
0
 41
0
  0
VERTEX
  8
0
 10
1.79025
 20
1.17882
 30
0.0
 40
0
 41
0
  0
SEQEND
 8
0
  0
POLYLINE
  8
0
 62
     173
 66
     1
 10
0
 20
0
 30
0.0
 70
     1
 40
0
 41
0
  0
VERTEX
  8
0
 10
1.79047
 20
0.415039
 30
0.0
 40
0
 41
0
  0
VERTEX
  8
0
 10
1.78396
 20
0.42155
 30
0.0
 40
0
 41
0
  0
VERTEX
  8
0
 10
1.77746
 20
0.415039
 30
0.0
 40
0
 41
0
  0
VERTEX
  8
0
 10
1.78396
 20
0.408529
 30
0.0
 40
0
 41
0
  0
VERTEX
  8
0
 10
1.79047
 20
0.415039
 30
0.0
 40
0
 41
0
  0
SEQEND
 8
0
  0
POLYLINE
  8
0
 62
     173
 66
     1
 10
0
 20
0
 30
0.0
 70
     1
 40
0
 41
0
  0
VERTEX
  8
0
 10
1.79047
 20
0.225043
 30
0.0
 40
0
 41
0
  0
VERTEX
  8
0
 10
1.78396
 20
0.231554
 30
0.0
 40
0
 41
0
  0
VERTEX
  8
0
 10
1.77746
 20
0.225043
 30
0.0
 40
0
 41
0
  0
VERTEX
  8
0
 10
1.78396
 20
0.218533
 30
0.0
 40
0
 41
0
  0
VERTEX
  8
0
 10
1.79047
 20
0.225043
 30
0.0
 40
0
 41
0
  0
SEQEND
 8
0
  0
POLYLINE
  8
0
 62
     173
 66
     1
 10
0
 20
0
 30
0.0
 70
     1
 40
0
 41
0
  0
VERTEX
  8
0
 10
1.79047
 20
0.155003
 30
0.0
 40
0
 41
0
  0
VERTEX
  8
0
 10
1.78396
 20
0.161512
 30
0.0
 40
0
 41
0
  0
VERTEX
  8
0
 10
1.77746
 20
0.155003
 30
0.0
 40
0
 41
0
  0
VERTEX
  8
0
 10
1.78396
 20
0.148546
 30
0.0
 40
0
 41
0
  0
VERTEX
  8
0
 10
1.79047
 20
0.155003
 30
0.0
 40
0
 41
0
  0
SEQEND
 8
0
  0
POLYLINE
  8
0
 62
     173
 66
     1
 10
0
 20
0
 30
0.0
 70
     1
 40
0
 41
0
  0
VERTEX
  8
0
 10
1.81549
 20
0.360026
 30
0.0
 40
0
 41
0
  0
VERTEX
  8
0
 10
1.80897
 20
0.366536
 30
0.0
 40
0
 41
0
  0
VERTEX
  8
0
 10
1.80246
 20
0.360026
 30
0.0
 40
0
 41
0
  0
VERTEX
  8
0
 10
1.80897
 20
0.353515
 30
0.0
 40
0
 41
0
  0
VERTEX
  8
0
 10
1.81549
 20
0.360026
 30
0.0
 40
0
 41
0
  0
SEQEND
 8
0
  0
POLYLINE
  8
0
 62
     173
 66
     1
 10
0
 20
0
 30
0.0
 70
     1
 40
0
 41
0
  0
VERTEX
  8
0
 10
1.82525
 20
1.87733
 30
0.0
 40
0
 41
0
  0
VERTEX
  8
0
 10
1.81874
 20
1.88385
 30
0.0
 40
0
 41
0
  0
VERTEX
  8
0
 10
1.81228
 20
1.87733
 30
0.0
 40
0
 41
0
  0
VERTEX
  8
0
 10
1.81874
 20
1.87082
 30
0.0
 40
0
 41
0
  0
VERTEX
  8
0
 10
1.82525
 20
1.87733
 30
0.0
 40
0
 41
0
  0
SEQEND
 8
0
  0
POLYLINE
  8
0
 62
     173
 66
     1
 10
0
 20
0
 30
0.0
 70
     1
 40
0
 41
0
  0
VERTEX
  8
0
 10
1.83529
 20
2.31879
 30
0.0
 40
0
 41
0
  0
VERTEX
  8
0
 10
1.82878
 20
2.32531
 30
0.0
 40
0
 41
0
  0
VERTEX
  8
0
 10
1.82226
 20
2.31879
 30
0.0
 40
0
 41
0
  0
VERTEX
  8
0
 10
1.82878
 20
2.31233
 30
0.0
 40
0
 41
0
  0
VERTEX
  8
0
 10
1.83529
 20
2.31879
 30
0.0
 40
0
 41
0
  0
SEQEND
 8
0
  0
POLYLINE
  8
0
 62
     173
 66
     1
 10
0
 20
0
 30
0.0
 70
     1
 40
0
 41
0
  0
VERTEX
  8
0
 10
1.84028
 20
1.59381
 30
0.0
 40
0
 41
0
  0
VERTEX
  8
0
 10
1.83376
 20
1.60032
 30
0.0
 40
0
 41
0
  0
VERTEX
  8
0
 10
1.82726
 20
1.59381
 30
0.0
 40
0
 41
0
  0
VERTEX
  8
0
 10
1.83376
 20
1.58729
 30
0.0
 40
0
 41
0
  0
VERTEX
  8
0
 10
1.84028
 20
1.59381
 30
0.0
 40
0
 41
0
  0
SEQEND
 8
0
  0
POLYLINE
  8
0
 62
     173
 66
     1
 10
0
 20
0
 30
0.0
 70
     1
 40
0
 41
0
  0
VERTEX
  8
0
 10
1.84028
 20
1.45383
 30
0.0
 40
0
 41
0
  0
VERTEX
  8
0
 10
1.83376
 20
1.46035
 30
0.0
 40
0
 41
0
  0
VERTEX
  8
0
 10
1.82726
 20
1.45383
 30
0.0
 40
0
 41
0
  0
VERTEX
  8
0
 10
1.83376
 20
1.44732
 30
0.0
 40
0
 41
0
  0
VERTEX
  8
0
 10
1.84028
 20
1.45383
 30
0.0
 40
0
 41
0
  0
SEQEND
 8
0
  0
POLYLINE
  8
0
 62
     173
 66
     1
 10
0
 20
0
 30
0.0
 70
     1
 40
0
 41
0
  0
VERTEX
  8
0
 10
1.84028
 20
1.3488
 30
0.0
 40
0
 41
0
  0
VERTEX
  8
0
 10
1.83376
 20
1.35531
 30
0.0
 40
0
 41
0
  0
VERTEX
  8
0
 10
1.82726
 20
1.3488
 30
0.0
 40
0
 41
0
  0
VERTEX
  8
0
 10
1.83376
 20
1.34234
 30
0.0
 40
0
 41
0
  0
VERTEX
  8
0
 10
1.84028
 20
1.3488
 30
0.0
 40
0
 41
0
  0
SEQEND
 8
0
  0
POLYLINE
  8
0
 62
     173
 66
     1
 10
0
 20
0
 30
0.0
 70
     1
 40
0
 41
0
  0
VERTEX
  8
0
 10
1.84028
 20
1.26883
 30
0.0
 40
0
 41
0
  0
VERTEX
  8
0
 10
1.83376
 20
1.27534
 30
0.0
 40
0
 41
0
  0
VERTEX
  8
0
 10
1.82726
 20
1.26883
 30
0.0
 40
0
 41
0
  0
VERTEX
  8
0
 10
1.83376
 20
1.26232
 30
0.0
 40
0
 41
0
  0
VERTEX
  8
0
 10
1.84028
 20
1.26883
 30
0.0
 40
0
 41
0
  0
SEQEND
 8
0
  0
POLYLINE
  8
0
 62
     173
 66
     1
 10
0
 20
0
 30
0.0
 70
     1
 40
0
 41
0
  0
VERTEX
  8
0
 10
1.84028
 20
1.17882
 30
0.0
 40
0
 41
0
  0
VERTEX
  8
0
 10
1.83376
 20
1.18533
 30
0.0
 40
0
 41
0
  0
VERTEX
  8
0
 10
1.82726
 20
1.17882
 30
0.0
 40
0
 41
0
  0
VERTEX
  8
0
 10
1.83376
 20
1.17231
 30
0.0
 40
0
 41
0
  0
VERTEX
  8
0
 10
1.84028
 20
1.17882
 30
0.0
 40
0
 41
0
  0
SEQEND
 8
0
  0
POLYLINE
  8
0
 62
     173
 66
     1
 10
0
 20
0
 30
0.0
 70
     1
 40
0
 41
0
  0
VERTEX
  8
0
 10
1.84044
 20
0.415039
 30
0.0
 40
0
 41
0
  0
VERTEX
  8
0
 10
1.83393
 20
0.42155
 30
0.0
 40
0
 41
0
  0
VERTEX
  8
0
 10
1.82747
 20
0.415039
 30
0.0
 40
0
 41
0
  0
VERTEX
  8
0
 10
1.83393
 20
0.408529
 30
0.0
 40
0
 41
0
  0
VERTEX
  8
0
 10
1.84044
 20
0.415039
 30
0.0
 40
0
 41
0
  0
SEQEND
 8
0
  0
POLYLINE
  8
0
 62
     173
 66
     1
 10
0
 20
0
 30
0.0
 70
     1
 40
0
 41
0
  0
VERTEX
  8
0
 10
1.84044
 20
0.225043
 30
0.0
 40
0
 41
0
  0
VERTEX
  8
0
 10
1.83393
 20
0.231554
 30
0.0
 40
0
 41
0
  0
VERTEX
  8
0
 10
1.82747
 20
0.225043
 30
0.0
 40
0
 41
0
  0
VERTEX
  8
0
 10
1.83393
 20
0.218533
 30
0.0
 40
0
 41
0
  0
VERTEX
  8
0
 10
1.84044
 20
0.225043
 30
0.0
 40
0
 41
0
  0
SEQEND
 8
0
  0
POLYLINE
  8
0
 62
     173
 66
     1
 10
0
 20
0
 30
0.0
 70
     1
 40
0
 41
0
  0
VERTEX
  8
0
 10
1.84044
 20
0.155003
 30
0.0
 40
0
 41
0
  0
VERTEX
  8
0
 10
1.83393
 20
0.161512
 30
0.0
 40
0
 41
0
  0
VERTEX
  8
0
 10
1.82747
 20
0.155003
 30
0.0
 40
0
 41
0
  0
VERTEX
  8
0
 10
1.83393
 20
0.148546
 30
0.0
 40
0
 41
0
  0
VERTEX
  8
0
 10
1.84044
 20
0.155003
 30
0.0
 40
0
 41
0
  0
SEQEND
 8
0
  0
POLYLINE
  8
0
 62
     173
 66
     1
 10
0
 20
0
 30
0.0
 70
     1
 40
0
 41
0
  0
VERTEX
  8
0
 10
1.86524
 20
1.86882
 30
0.0
 40
0
 41
0
  0
VERTEX
  8
0
 10
1.85872
 20
1.87532
 30
0.0
 40
0
 41
0
  0
VERTEX
  8
0
 10
1.85226
 20
1.86882
 30
0.0
 40
0
 41
0
  0
VERTEX
  8
0
 10
1.85872
 20
1.86231
 30
0.0
 40
0
 41
0
  0
VERTEX
  8
0
 10
1.86524
 20
1.86882
 30
0.0
 40
0
 41
0
  0
SEQEND
 8
0
  0
POLYLINE
  8
0
 62
     173
 66
     1
 10
0
 20
0
 30
0.0
 70
     1
 40
0
 41
0
  0
VERTEX
  8
0
 10
1.89046
 20
0.155003
 30
0.0
 40
0
 41
0
  0
VERTEX
  8
0
 10
1.88396
 20
0.161512
 30
0.0
 40
0
 41
0
  0
VERTEX
  8
0
 10
1.87744
 20
0.155003
 30
0.0
 40
0
 41
0
  0
VERTEX
  8
0
 10
1.88396
 20
0.148546
 30
0.0
 40
0
 41
0
  0
VERTEX
  8
0
 10
1.89046
 20
0.155003
 30
0.0
 40
0
 41
0
  0
SEQEND
 8
0
  0
POLYLINE
  8
0
 62
     173
 66
     1
 10
0
 20
0
 30
0.0
 70
     1
 40
0
 41
0
  0
VERTEX
  8
0
 10
1.90528
 20
2.31879
 30
0.0
 40
0
 41
0
  0
VERTEX
  8
0
 10
1.89876
 20
2.32531
 30
0.0
 40
0
 41
0
  0
VERTEX
  8
0
 10
1.89225
 20
2.31879
 30
0.0
 40
0
 41
0
  0
VERTEX
  8
0
 10
1.89876
 20
2.31233
 30
0.0
 40
0
 41
0
  0
VERTEX
  8
0
 10
1.90528
 20
2.31879
 30
0.0
 40
0
 41
0
  0
SEQEND
 8
0
  0
POLYLINE
  8
0
 62
     173
 66
     1
 10
0
 20
0
 30
0.0
 70
     1
 40
0
 41
0
  0
VERTEX
  8
0
 10
1.93028
 20
1.39882
 30
0.0
 40
0
 41
0
  0
VERTEX
  8
0
 10
1.92378
 20
1.40533
 30
0.0
 40
0
 41
0
  0
VERTEX
  8
0
 10
1.91726
 20
1.39882
 30
0.0
 40
0
 41
0
  0
VERTEX
  8
0
 10
1.92378
 20
1.39231
 30
0.0
 40
0
 41
0
  0
VERTEX
  8
0
 10
1.93028
 20
1.39882
 30
0.0
 40
0
 41
0
  0
SEQEND
 8
0
  0
POLYLINE
  8
0
 62
     173
 66
     1
 10
0
 20
0
 30
0.0
 70
     1
 40
0
 41
0
  0
VERTEX
  8
0
 10
1.94026
 20
1.59381
 30
0.0
 40
0
 41
0
  0
VERTEX
  8
0
 10
1.93375
 20
1.60032
 30
0.0
 40
0
 41
0
  0
VERTEX
  8
0
 10
1.92725
 20
1.59381
 30
0.0
 40
0
 41
0
  0
VERTEX
  8
0
 10
1.93375
 20
1.58729
 30
0.0
 40
0
 41
0
  0
VERTEX
  8
0
 10
1.94026
 20
1.59381
 30
0.0
 40
0
 41
0
  0
SEQEND
 8
0
  0
POLYLINE
  8
0
 62
     173
 66
     1
 10
0
 20
0
 30
0.0
 70
     1
 40
0
 41
0
  0
VERTEX
  8
0
 10
1.94049
 20
0.415039
 30
0.0
 40
0
 41
0
  0
VERTEX
  8
0
 10
1.93397
 20
0.42155
 30
0.0
 40
0
 41
0
  0
VERTEX
  8
0
 10
1.92746
 20
0.415039
 30
0.0
 40
0
 41
0
  0
VERTEX
  8
0
 10
1.93397
 20
0.408529
 30
0.0
 40
0
 41
0
  0
VERTEX
  8
0
 10
1.94049
 20
0.415039
 30
0.0
 40
0
 41
0
  0
SEQEND
 8
0
  0
POLYLINE
  8
0
 62
     173
 66
     1
 10
0
 20
0
 30
0.0
 70
     1
 40
0
 41
0
  0
VERTEX
  8
0
 10
1.94049
 20
0.155003
 30
0.0
 40
0
 41
0
  0
VERTEX
  8
0
 10
1.93397
 20
0.161512
 30
0.0
 40
0
 41
0
  0
VERTEX
  8
0
 10
1.92746
 20
0.155003
 30
0.0
 40
0
 41
0
  0
VERTEX
  8
0
 10
1.93397
 20
0.148546
 30
0.0
 40
0
 41
0
  0
VERTEX
  8
0
 10
1.94049
 20
0.155003
 30
0.0
 40
0
 41
0
  0
SEQEND
 8
0
  0
POLYLINE
  8
0
 62
     173
 66
     1
 10
0
 20
0
 30
0.0
 70
     1
 40
0
 41
0
  0
VERTEX
  8
0
 10
1.99024
 20
1.59381
 30
0.0
 40
0
 41
0
  0
VERTEX
  8
0
 10
1.98372
 20
1.60032
 30
0.0
 40
0
 41
0
  0
VERTEX
  8
0
 10
1.97726
 20
1.59381
 30
0.0
 40
0
 41
0
  0
VERTEX
  8
0
 10
1.98372
 20
1.58729
 30
0.0
 40
0
 41
0
  0
VERTEX
  8
0
 10
1.99024
 20
1.59381
 30
0.0
 40
0
 41
0
  0
SEQEND
 8
0
  0
POLYLINE
  8
0
 62
     173
 66
     1
 10
0
 20
0
 30
0.0
 70
     1
 40
0
 41
0
  0
VERTEX
  8
0
 10
1.99046
 20
0.225043
 30
0.0
 40
0
 41
0
  0
VERTEX
  8
0
 10
1.98394
 20
0.231554
 30
0.0
 40
0
 41
0
  0
VERTEX
  8
0
 10
1.97749
 20
0.225043
 30
0.0
 40
0
 41
0
  0
VERTEX
  8
0
 10
1.98394
 20
0.218533
 30
0.0
 40
0
 41
0
  0
VERTEX
  8
0
 10
1.99046
 20
0.225043
 30
0.0
 40
0
 41
0
  0
SEQEND
 8
0
  0
POLYLINE
  8
0
 62
     173
 66
     1
 10
0
 20
0
 30
0.0
 70
     1
 40
0
 41
0
  0
VERTEX
  8
0
 10
1.99046
 20
0.155003
 30
0.0
 40
0
 41
0
  0
VERTEX
  8
0
 10
1.98394
 20
0.161512
 30
0.0
 40
0
 41
0
  0
VERTEX
  8
0
 10
1.97749
 20
0.155003
 30
0.0
 40
0
 41
0
  0
VERTEX
  8
0
 10
1.98394
 20
0.148546
 30
0.0
 40
0
 41
0
  0
VERTEX
  8
0
 10
1.99046
 20
0.155003
 30
0.0
 40
0
 41
0
  0
SEQEND
 8
0
  0
POLYLINE
  8
0
 62
     173
 66
     1
 10
0
 20
0
 30
0.0
 70
     1
 40
0
 41
0
  0
VERTEX
  8
0
 10
2.03526
 20
0.763835
 30
0.0
 40
0
 41
0
  0
VERTEX
  8
0
 10
2.02875
 20
0.770344
 30
0.0
 40
0
 41
0
  0
VERTEX
  8
0
 10
2.02225
 20
0.763835
 30
0.0
 40
0
 41
0
  0
VERTEX
  8
0
 10
2.02875
 20
0.757324
 30
0.0
 40
0
 41
0
  0
VERTEX
  8
0
 10
2.03526
 20
0.763835
 30
0.0
 40
0
 41
0
  0
SEQEND
 8
0
  0
POLYLINE
  8
0
 62
     173
 66
     1
 10
0
 20
0
 30
0.0
 70
     1
 40
0
 41
0
  0
VERTEX
  8
0
 10
2.04025
 20
1.59381
 30
0.0
 40
0
 41
0
  0
VERTEX
  8
0
 10
2.03375
 20
1.60032
 30
0.0
 40
0
 41
0
  0
VERTEX
  8
0
 10
2.02724
 20
1.59381
 30
0.0
 40
0
 41
0
  0
VERTEX
  8
0
 10
2.03375
 20
1.58729
 30
0.0
 40
0
 41
0
  0
VERTEX
  8
0
 10
2.04025
 20
1.59381
 30
0.0
 40
0
 41
0
  0
SEQEND
 8
0
  0
POLYLINE
  8
0
 62
     173
 66
     1
 10
0
 20
0
 30
0.0
 70
     1
 40
0
 41
0
  0
VERTEX
  8
0
 10
2.04047
 20
0.225043
 30
0.0
 40
0
 41
0
  0
VERTEX
  8
0
 10
2.03396
 20
0.231554
 30
0.0
 40
0
 41
0
  0
VERTEX
  8
0
 10
2.02746
 20
0.225043
 30
0.0
 40
0
 41
0
  0
VERTEX
  8
0
 10
2.03396
 20
0.218533
 30
0.0
 40
0
 41
0
  0
VERTEX
  8
0
 10
2.04047
 20
0.225043
 30
0.0
 40
0
 41
0
  0
SEQEND
 8
0
  0
POLYLINE
  8
0
 62
     173
 66
     1
 10
0
 20
0
 30
0.0
 70
     1
 40
0
 41
0
  0
VERTEX
  8
0
 10
2.04047
 20
0.155003
 30
0.0
 40
0
 41
0
  0
VERTEX
  8
0
 10
2.03396
 20
0.161512
 30
0.0
 40
0
 41
0
  0
VERTEX
  8
0
 10
2.02746
 20
0.155003
 30
0.0
 40
0
 41
0
  0
VERTEX
  8
0
 10
2.03396
 20
0.148546
 30
0.0
 40
0
 41
0
  0
VERTEX
  8
0
 10
2.04047
 20
0.155003
 30
0.0
 40
0
 41
0
  0
SEQEND
 8
0
  0
POLYLINE
  8
0
 62
     173
 66
     1
 10
0
 20
0
 30
0.0
 70
     1
 40
0
 41
0
  0
VERTEX
  8
0
 10
2.08529
 20
1.47379
 30
0.0
 40
0
 41
0
  0
VERTEX
  8
0
 10
2.07878
 20
1.48031
 30
0.0
 40
0
 41
0
  0
VERTEX
  8
0
 10
2.07226
 20
1.47379
 30
0.0
 40
0
 41
0
  0
VERTEX
  8
0
 10
2.07878
 20
1.46733
 30
0.0
 40
0
 41
0
  0
VERTEX
  8
0
 10
2.08529
 20
1.47379
 30
0.0
 40
0
 41
0
  0
SEQEND
 8
0
  0
POLYLINE
  8
0
 62
     173
 66
     1
 10
0
 20
0
 30
0.0
 70
     1
 40
0
 41
0
  0
VERTEX
  8
0
 10
2.09028
 20
0.953831
 30
0.0
 40
0
 41
0
  0
VERTEX
  8
0
 10
2.08376
 20
0.96034
 30
0.0
 40
0
 41
0
  0
VERTEX
  8
0
 10
2.07726
 20
0.953831
 30
0.0
 40
0
 41
0
  0
VERTEX
  8
0
 10
2.08376
 20
0.947319
 30
0.0
 40
0
 41
0
  0
VERTEX
  8
0
 10
2.09028
 20
0.953831
 30
0.0
 40
0
 41
0
  0
SEQEND
 8
0
  0
POLYLINE
  8
0
 62
     173
 66
     1
 10
0
 20
0
 30
0.0
 70
     1
 40
0
 41
0
  0
VERTEX
  8
0
 10
2.09028
 20
0.803819
 30
0.0
 40
0
 41
0
  0
VERTEX
  8
0
 10
2.08376
 20
0.810331
 30
0.0
 40
0
 41
0
  0
VERTEX
  8
0
 10
2.07726
 20
0.803819
 30
0.0
 40
0
 41
0
  0
VERTEX
  8
0
 10
2.08376
 20
0.79731
 30
0.0
 40
0
 41
0
  0
VERTEX
  8
0
 10
2.09028
 20
0.803819
 30
0.0
 40
0
 41
0
  0
SEQEND
 8
0
  0
POLYLINE
  8
0
 62
     173
 66
     1
 10
0
 20
0
 30
0.0
 70
     1
 40
0
 41
0
  0
VERTEX
  8
0
 10
2.09044
 20
0.225043
 30
0.0
 40
0
 41
0
  0
VERTEX
  8
0
 10
2.08393
 20
0.231554
 30
0.0
 40
0
 41
0
  0
VERTEX
  8
0
 10
2.07747
 20
0.225043
 30
0.0
 40
0
 41
0
  0
VERTEX
  8
0
 10
2.08393
 20
0.218533
 30
0.0
 40
0
 41
0
  0
VERTEX
  8
0
 10
2.09044
 20
0.225043
 30
0.0
 40
0
 41
0
  0
SEQEND
 8
0
  0
POLYLINE
  8
0
 62
     173
 66
     1
 10
0
 20
0
 30
0.0
 70
     1
 40
0
 41
0
  0
VERTEX
  8
0
 10
2.09044
 20
0.155003
 30
0.0
 40
0
 41
0
  0
VERTEX
  8
0
 10
2.08393
 20
0.161512
 30
0.0
 40
0
 41
0
  0
VERTEX
  8
0
 10
2.07747
 20
0.155003
 30
0.0
 40
0
 41
0
  0
VERTEX
  8
0
 10
2.08393
 20
0.148546
 30
0.0
 40
0
 41
0
  0
VERTEX
  8
0
 10
2.09044
 20
0.155003
 30
0.0
 40
0
 41
0
  0
SEQEND
 8
0
  0
POLYLINE
  8
0
 62
     173
 66
     1
 10
0
 20
0
 30
0.0
 70
     1
 40
0
 41
0
  0
VERTEX
  8
0
 10
2.14046
 20
0.155003
 30
0.0
 40
0
 41
0
  0
VERTEX
  8
0
 10
2.13396
 20
0.161512
 30
0.0
 40
0
 41
0
  0
VERTEX
  8
0
 10
2.12744
 20
0.155003
 30
0.0
 40
0
 41
0
  0
VERTEX
  8
0
 10
2.13396
 20
0.148546
 30
0.0
 40
0
 41
0
  0
VERTEX
  8
0
 10
2.14046
 20
0.155003
 30
0.0
 40
0
 41
0
  0
SEQEND
 8
0
  0
POLYLINE
  8
0
 62
     173
 66
     1
 10
0
 20
0
 30
0.0
 70
     1
 40
0
 41
0
  0
VERTEX
  8
0
 10
2.19049
 20
0.415039
 30
0.0
 40
0
 41
0
  0
VERTEX
  8
0
 10
2.18397
 20
0.42155
 30
0.0
 40
0
 41
0
  0
VERTEX
  8
0
 10
2.17746
 20
0.415039
 30
0.0
 40
0
 41
0
  0
VERTEX
  8
0
 10
2.18397
 20
0.408529
 30
0.0
 40
0
 41
0
  0
VERTEX
  8
0
 10
2.19049
 20
0.415039
 30
0.0
 40
0
 41
0
  0
SEQEND
 8
0
  0
POLYLINE
  8
0
 62
     173
 66
     1
 10
0
 20
0
 30
0.0
 70
     1
 40
0
 41
0
  0
VERTEX
  8
0
 10
2.19049
 20
0.155003
 30
0.0
 40
0
 41
0
  0
VERTEX
  8
0
 10
2.18397
 20
0.161512
 30
0.0
 40
0
 41
0
  0
VERTEX
  8
0
 10
2.17746
 20
0.155003
 30
0.0
 40
0
 41
0
  0
VERTEX
  8
0
 10
2.18397
 20
0.148546
 30
0.0
 40
0
 41
0
  0
VERTEX
  8
0
 10
2.19049
 20
0.155003
 30
0.0
 40
0
 41
0
  0
SEQEND
 8
0
  0
POLYLINE
  8
0
 62
     173
 66
     1
 10
0
 20
0
 30
0.0
 70
     1
 40
0
 41
0
  0
VERTEX
  8
0
 10
2.21528
 20
1.87782
 30
0.0
 40
0
 41
0
  0
VERTEX
  8
0
 10
2.20876
 20
1.88433
 30
0.0
 40
0
 41
0
  0
VERTEX
  8
0
 10
2.20226
 20
1.87782
 30
0.0
 40
0
 41
0
  0
VERTEX
  8
0
 10
2.20876
 20
1.87131
 30
0.0
 40
0
 41
0
  0
VERTEX
  8
0
 10
2.21528
 20
1.87782
 30
0.0
 40
0
 41
0
  0
SEQEND
 8
0
  0
POLYLINE
  8
0
 62
     173
 66
     1
 10
0
 20
0
 30
0.0
 70
     1
 40
0
 41
0
  0
VERTEX
  8
0
 10
2.22526
 20
1.32883
 30
0.0
 40
0
 41
0
  0
VERTEX
  8
0
 10
2.21875
 20
1.33534
 30
0.0
 40
0
 41
0
  0
VERTEX
  8
0
 10
2.21224
 20
1.32883
 30
0.0
 40
0
 41
0
  0
VERTEX
  8
0
 10
2.21875
 20
1.32232
 30
0.0
 40
0
 41
0
  0
VERTEX
  8
0
 10
2.22526
 20
1.32883
 30
0.0
 40
0
 41
0
  0
SEQEND
 8
0
  0
POLYLINE
  8
0
 62
     173
 66
     1
 10
0
 20
0
 30
0.0
 70
     1
 40
0
 41
0
  0
VERTEX
  8
0
 10
2.24046
 20
0.415039
 30
0.0
 40
0
 41
0
  0
VERTEX
  8
0
 10
2.23394
 20
0.42155
 30
0.0
 40
0
 41
0
  0
VERTEX
  8
0
 10
2.22749
 20
0.415039
 30
0.0
 40
0
 41
0
  0
VERTEX
  8
0
 10
2.23394
 20
0.408529
 30
0.0
 40
0
 41
0
  0
VERTEX
  8
0
 10
2.24046
 20
0.415039
 30
0.0
 40
0
 41
0
  0
SEQEND
 8
0
  0
POLYLINE
  8
0
 62
     173
 66
     1
 10
0
 20
0
 30
0.0
 70
     1
 40
0
 41
0
  0
VERTEX
  8
0
 10
2.24046
 20
0.314996
 30
0.0
 40
0
 41
0
  0
VERTEX
  8
0
 10
2.23394
 20
0.321506
 30
0.0
 40
0
 41
0
  0
VERTEX
  8
0
 10
2.22749
 20
0.314996
 30
0.0
 40
0
 41
0
  0
VERTEX
  8
0
 10
2.23394
 20
0.308539
 30
0.0
 40
0
 41
0
  0
VERTEX
  8
0
 10
2.24046
 20
0.314996
 30
0.0
 40
0
 41
0
  0
SEQEND
 8
0
  0
POLYLINE
  8
0
 62
     173
 66
     1
 10
0
 20
0
 30
0.0
 70
     1
 40
0
 41
0
  0
VERTEX
  8
0
 10
2.24046
 20
0.225043
 30
0.0
 40
0
 41
0
  0
VERTEX
  8
0
 10
2.23394
 20
0.231554
 30
0.0
 40
0
 41
0
  0
VERTEX
  8
0
 10
2.22749
 20
0.225043
 30
0.0
 40
0
 41
0
  0
VERTEX
  8
0
 10
2.23394
 20
0.218533
 30
0.0
 40
0
 41
0
  0
VERTEX
  8
0
 10
2.24046
 20
0.225043
 30
0.0
 40
0
 41
0
  0
SEQEND
 8
0
  0
POLYLINE
  8
0
 62
     173
 66
     1
 10
0
 20
0
 30
0.0
 70
     1
 40
0
 41
0
  0
VERTEX
  8
0
 10
2.24046
 20
0.155003
 30
0.0
 40
0
 41
0
  0
VERTEX
  8
0
 10
2.23394
 20
0.161512
 30
0.0
 40
0
 41
0
  0
VERTEX
  8
0
 10
2.22749
 20
0.155003
 30
0.0
 40
0
 41
0
  0
VERTEX
  8
0
 10
2.23394
 20
0.148546
 30
0.0
 40
0
 41
0
  0
VERTEX
  8
0
 10
2.24046
 20
0.155003
 30
0.0
 40
0
 41
0
  0
SEQEND
 8
0
  0
POLYLINE
  8
0
 62
     173
 66
     1
 10
0
 20
0
 30
0.0
 70
     1
 40
0
 41
0
  0
VERTEX
  8
0
 10
2.25526
 20
1.35883
 30
0.0
 40
0
 41
0
  0
VERTEX
  8
0
 10
2.24875
 20
1.36534
 30
0.0
 40
0
 41
0
  0
VERTEX
  8
0
 10
2.24224
 20
1.35883
 30
0.0
 40
0
 41
0
  0
VERTEX
  8
0
 10
2.24875
 20
1.35232
 30
0.0
 40
0
 41
0
  0
VERTEX
  8
0
 10
2.25526
 20
1.35883
 30
0.0
 40
0
 41
0
  0
SEQEND
 8
0
  0
POLYLINE
  8
0
 62
     173
 66
     1
 10
0
 20
0
 30
0.0
 70
     1
 40
0
 41
0
  0
VERTEX
  8
0
 10
2.26525
 20
1.87381
 30
0.0
 40
0
 41
0
  0
VERTEX
  8
0
 10
2.25874
 20
1.88032
 30
0.0
 40
0
 41
0
  0
VERTEX
  8
0
 10
2.25228
 20
1.87381
 30
0.0
 40
0
 41
0
  0
VERTEX
  8
0
 10
2.25874
 20
1.86729
 30
0.0
 40
0
 41
0
  0
VERTEX
  8
0
 10
2.26525
 20
1.87381
 30
0.0
 40
0
 41
0
  0
SEQEND
 8
0
  0
POLYLINE
  8
0
 62
     173
 66
     1
 10
0
 20
0
 30
0.0
 70
     1
 40
0
 41
0
  0
VERTEX
  8
0
 10
2.29025
 20
1.02881
 30
0.0
 40
0
 41
0
  0
VERTEX
  8
0
 10
2.28375
 20
1.03532
 30
0.0
 40
0
 41
0
  0
VERTEX
  8
0
 10
2.27724
 20
1.02881
 30
0.0
 40
0
 41
0
  0
VERTEX
  8
0
 10
2.28375
 20
1.0223
 30
0.0
 40
0
 41
0
  0
VERTEX
  8
0
 10
2.29025
 20
1.02881
 30
0.0
 40
0
 41
0
  0
SEQEND
 8
0
  0
POLYLINE
  8
0
 62
     173
 66
     1
 10
0
 20
0
 30
0.0
 70
     1
 40
0
 41
0
  0
VERTEX
  8
0
 10
2.32026
 20
1.46881
 30
0.0
 40
0
 41
0
  0
VERTEX
  8
0
 10
2.31375
 20
1.47532
 30
0.0
 40
0
 41
0
  0
VERTEX
  8
0
 10
2.30724
 20
1.46881
 30
0.0
 40
0
 41
0
  0
VERTEX
  8
0
 10
2.31375
 20
1.46229
 30
0.0
 40
0
 41
0
  0
VERTEX
  8
0
 10
2.32026
 20
1.46881
 30
0.0
 40
0
 41
0
  0
SEQEND
 8
0
  0
POLYLINE
  8
0
 62
     173
 66
     1
 10
0
 20
0
 30
0.0
 70
     1
 40
0
 41
0
  0
VERTEX
  8
0
 10
2.35026
 20
2.00379
 30
0.0
 40
0
 41
0
  0
VERTEX
  8
0
 10
2.34375
 20
2.01031
 30
0.0
 40
0
 41
0
  0
VERTEX
  8
0
 10
2.33724
 20
2.00379
 30
0.0
 40
0
 41
0
  0
VERTEX
  8
0
 10
2.34375
 20
1.99735
 30
0.0
 40
0
 41
0
  0
VERTEX
  8
0
 10
2.35026
 20
2.00379
 30
0.0
 40
0
 41
0
  0
SEQEND
 8
0
  0
POLYLINE
  8
0
 62
     173
 66
     1
 10
0
 20
0
 30
0.0
 70
     1
 40
0
 41
0
  0
VERTEX
  8
0
 10
2.38525
 20
1.42383
 30
0.0
 40
0
 41
0
  0
VERTEX
  8
0
 10
2.37875
 20
1.43033
 30
0.0
 40
0
 41
0
  0
VERTEX
  8
0
 10
2.37229
 20
1.42383
 30
0.0
 40
0
 41
0
  0
VERTEX
  8
0
 10
2.37875
 20
1.41732
 30
0.0
 40
0
 41
0
  0
VERTEX
  8
0
 10
2.38525
 20
1.42383
 30
0.0
 40
0
 41
0
  0
SEQEND
 8
0
  0
POLYLINE
  8
0
 62
     173
 66
     1
 10
0
 20
0
 30
0.0
 70
     1
 40
0
 41
0
  0
VERTEX
  8
0
 10
2.38525
 20
1.38384
 30
0.0
 40
0
 41
0
  0
VERTEX
  8
0
 10
2.37875
 20
1.39035
 30
0.0
 40
0
 41
0
  0
VERTEX
  8
0
 10
2.37229
 20
1.38384
 30
0.0
 40
0
 41
0
  0
VERTEX
  8
0
 10
2.37875
 20
1.37733
 30
0.0
 40
0
 41
0
  0
VERTEX
  8
0
 10
2.38525
 20
1.38384
 30
0.0
 40
0
 41
0
  0
SEQEND
 8
0
  0
POLYLINE
  8
0
 62
     173
 66
     1
 10
0
 20
0
 30
0.0
 70
     1
 40
0
 41
0
  0
VERTEX
  8
0
 10
2.45025
 20
2.00379
 30
0.0
 40
0
 41
0
  0
VERTEX
  8
0
 10
2.44374
 20
2.01031
 30
0.0
 40
0
 41
0
  0
VERTEX
  8
0
 10
2.43728
 20
2.00379
 30
0.0
 40
0
 41
0
  0
VERTEX
  8
0
 10
2.44374
 20
1.99735
 30
0.0
 40
0
 41
0
  0
VERTEX
  8
0
 10
2.45025
 20
2.00379
 30
0.0
 40
0
 41
0
  0
SEQEND
 8
0
  0
POLYLINE
  8
0
 62
     173
 66
     1
 10
0
 20
0
 30
0.0
 70
     1
 40
0
 41
0
  0
VERTEX
  8
0
 10
2.50028
 20
2.00379
 30
0.0
 40
0
 41
0
  0
VERTEX
  8
0
 10
2.49376
 20
2.01031
 30
0.0
 40
0
 41
0
  0
VERTEX
  8
0
 10
2.48725
 20
2.00379
 30
0.0
 40
0
 41
0
  0
VERTEX
  8
0
 10
2.49376
 20
1.99735
 30
0.0
 40
0
 41
0
  0
VERTEX
  8
0
 10
2.50028
 20
2.00379
 30
0.0
 40
0
 41
0
  0
SEQEND
 8
0
  0
POLYLINE
  8
0
 62
     173
 66
     1
 10
0
 20
0
 30
0.0
 70
     1
 40
0
 41
0
  0
VERTEX
  8
0
 10
2.55067
 20
2.0039
 30
0.0
 40
0
 41
0
  0
VERTEX
  8
0
 10
2.54417
 20
2.01042
 30
0.0
 40
0
 41
0
  0
VERTEX
  8
0
 10
2.53765
 20
2.0039
 30
0.0
 40
0
 41
0
  0
VERTEX
  8
0
 10
2.54417
 20
1.9974
 30
0.0
 40
0
 41
0
  0
VERTEX
  8
0
 10
2.55067
 20
2.0039
 30
0.0
 40
0
 41
0
  0
SEQEND
 8
0
  0
POLYLINE
  8
0
 62
     173
 66
     1
 10
0
 20
0
 30
0.0
 70
     1
 40
0
 41
0
  0
VERTEX
  8
0
 10
2.56028
 20
1.0338
 30
0.0
 40
0
 41
0
  0
VERTEX
  8
0
 10
2.55376
 20
1.04031
 30
0.0
 40
0
 41
0
  0
VERTEX
  8
0
 10
2.54725
 20
1.0338
 30
0.0
 40
0
 41
0
  0
VERTEX
  8
0
 10
2.55376
 20
1.02734
 30
0.0
 40
0
 41
0
  0
VERTEX
  8
0
 10
2.56028
 20
1.0338
 30
0.0
 40
0
 41
0
  0
SEQEND
 8
0
  0
POLYLINE
  8
0
 62
     173
 66
     1
 10
0
 20
0
 30
0.0
 70
     1
 40
0
 41
0
  0
VERTEX
  8
0
 10
2.59028
 20
1.59381
 30
0.0
 40
0
 41
0
  0
VERTEX
  8
0
 10
2.58376
 20
1.60032
 30
0.0
 40
0
 41
0
  0
VERTEX
  8
0
 10
2.57726
 20
1.59381
 30
0.0
 40
0
 41
0
  0
VERTEX
  8
0
 10
2.58376
 20
1.58729
 30
0.0
 40
0
 41
0
  0
VERTEX
  8
0
 10
2.59028
 20
1.59381
 30
0.0
 40
0
 41
0
  0
SEQEND
 8
0
  0
POLYLINE
  8
0
 62
     173
 66
     1
 10
0
 20
0
 30
0.0
 70
     1
 40
0
 41
0
  0
VERTEX
  8
0
 10
2.60026
 20
1.99881
 30
0.0
 40
0
 41
0
  0
VERTEX
  8
0
 10
2.59375
 20
2.00532
 30
0.0
 40
0
 41
0
  0
VERTEX
  8
0
 10
2.58724
 20
1.99881
 30
0.0
 40
0
 41
0
  0
VERTEX
  8
0
 10
2.59375
 20
1.99229
 30
0.0
 40
0
 41
0
  0
VERTEX
  8
0
 10
2.60026
 20
1.99881
 30
0.0
 40
0
 41
0
  0
SEQEND
 8
0
  0
POLYLINE
  8
0
 62
     173
 66
     1
 10
0
 20
0
 30
0.0
 70
     1
 40
0
 41
0
  0
VERTEX
  8
0
 10
2.61025
 20
1.42383
 30
0.0
 40
0
 41
0
  0
VERTEX
  8
0
 10
2.60374
 20
1.43033
 30
0.0
 40
0
 41
0
  0
VERTEX
  8
0
 10
2.59728
 20
1.42383
 30
0.0
 40
0
 41
0
  0
VERTEX
  8
0
 10
2.60374
 20
1.41732
 30
0.0
 40
0
 41
0
  0
VERTEX
  8
0
 10
2.61025
 20
1.42383
 30
0.0
 40
0
 41
0
  0
SEQEND
 8
0
  0
POLYLINE
  8
0
 62
     173
 66
     1
 10
0
 20
0
 30
0.0
 70
     1
 40
0
 41
0
  0
VERTEX
  8
0
 10
2.61025
 20
1.37381
 30
0.0
 40
0
 41
0
  0
VERTEX
  8
0
 10
2.60374
 20
1.38032
 30
0.0
 40
0
 41
0
  0
VERTEX
  8
0
 10
2.59728
 20
1.37381
 30
0.0
 40
0
 41
0
  0
VERTEX
  8
0
 10
2.60374
 20
1.3673
 30
0.0
 40
0
 41
0
  0
VERTEX
  8
0
 10
2.61025
 20
1.37381
 30
0.0
 40
0
 41
0
  0
SEQEND
 8
0
  0
POLYLINE
  8
0
 62
     173
 66
     1
 10
0
 20
0
 30
0.0
 70
     1
 40
0
 41
0
  0
VERTEX
  8
0
 10
2.61025
 20
1.32384
 30
0.0
 40
0
 41
0
  0
VERTEX
  8
0
 10
2.60374
 20
1.33035
 30
0.0
 40
0
 41
0
  0
VERTEX
  8
0
 10
2.59728
 20
1.32384
 30
0.0
 40
0
 41
0
  0
VERTEX
  8
0
 10
2.60374
 20
1.31733
 30
0.0
 40
0
 41
0
  0
VERTEX
  8
0
 10
2.61025
 20
1.32384
 30
0.0
 40
0
 41
0
  0
SEQEND
 8
0
  0
POLYLINE
  8
0
 62
     173
 66
     1
 10
0
 20
0
 30
0.0
 70
     1
 40
0
 41
0
  0
VERTEX
  8
0
 10
2.61025
 20
1.2238
 30
0.0
 40
0
 41
0
  0
VERTEX
  8
0
 10
2.60374
 20
1.23031
 30
0.0
 40
0
 41
0
  0
VERTEX
  8
0
 10
2.59728
 20
1.2238
 30
0.0
 40
0
 41
0
  0
VERTEX
  8
0
 10
2.60374
 20
1.21734
 30
0.0
 40
0
 41
0
  0
VERTEX
  8
0
 10
2.61025
 20
1.2238
 30
0.0
 40
0
 41
0
  0
SEQEND
 8
0
  0
POLYLINE
  8
0
 62
     173
 66
     1
 10
0
 20
0
 30
0.0
 70
     1
 40
0
 41
0
  0
VERTEX
  8
0
 10
2.61025
 20
1.17383
 30
0.0
 40
0
 41
0
  0
VERTEX
  8
0
 10
2.60374
 20
1.18034
 30
0.0
 40
0
 41
0
  0
VERTEX
  8
0
 10
2.59728
 20
1.17383
 30
0.0
 40
0
 41
0
  0
VERTEX
  8
0
 10
2.60374
 20
1.16732
 30
0.0
 40
0
 41
0
  0
VERTEX
  8
0
 10
2.61025
 20
1.17383
 30
0.0
 40
0
 41
0
  0
SEQEND
 8
0
  0
POLYLINE
  8
0
 62
     173
 66
     1
 10
0
 20
0
 30
0.0
 70
     1
 40
0
 41
0
  0
VERTEX
  8
0
 10
2.61025
 20
1.12381
 30
0.0
 40
0
 41
0
  0
VERTEX
  8
0
 10
2.60374
 20
1.13032
 30
0.0
 40
0
 41
0
  0
VERTEX
  8
0
 10
2.59728
 20
1.12381
 30
0.0
 40
0
 41
0
  0
VERTEX
  8
0
 10
2.60374
 20
1.1173
 30
0.0
 40
0
 41
0
  0
VERTEX
  8
0
 10
2.61025
 20
1.12381
 30
0.0
 40
0
 41
0
  0
SEQEND
 8
0
  0
POLYLINE
  8
0
 62
     173
 66
     1
 10
0
 20
0
 30
0.0
 70
     1
 40
0
 41
0
  0
VERTEX
  8
0
 10
2.65028
 20
1.51882
 30
0.0
 40
0
 41
0
  0
VERTEX
  8
0
 10
2.64378
 20
1.52533
 30
0.0
 40
0
 41
0
  0
VERTEX
  8
0
 10
2.63726
 20
1.51882
 30
0.0
 40
0
 41
0
  0
VERTEX
  8
0
 10
2.64378
 20
1.51232
 30
0.0
 40
0
 41
0
  0
VERTEX
  8
0
 10
2.65028
 20
1.51882
 30
0.0
 40
0
 41
0
  0
SEQEND
 8
0
  0
POLYLINE
  8
0
 62
     173
 66
     1
 10
0
 20
0
 30
0.0
 70
     1
 40
0
 41
0
  0
VERTEX
  8
0
 10
2.67025
 20
2.34782
 30
0.0
 40
0
 41
0
  0
VERTEX
  8
0
 10
2.66374
 20
2.35433
 30
0.0
 40
0
 41
0
  0
VERTEX
  8
0
 10
2.65728
 20
2.34782
 30
0.0
 40
0
 41
0
  0
VERTEX
  8
0
 10
2.66374
 20
2.34131
 30
0.0
 40
0
 41
0
  0
VERTEX
  8
0
 10
2.67025
 20
2.34782
 30
0.0
 40
0
 41
0
  0
SEQEND
 8
0
  0
POLYLINE
  8
0
 62
     173
 66
     1
 10
0
 20
0
 30
0.0
 70
     1
 40
0
 41
0
  0
VERTEX
  8
0
 10
2.67025
 20
1.87381
 30
0.0
 40
0
 41
0
  0
VERTEX
  8
0
 10
2.66374
 20
1.88032
 30
0.0
 40
0
 41
0
  0
VERTEX
  8
0
 10
2.65728
 20
1.87381
 30
0.0
 40
0
 41
0
  0
VERTEX
  8
0
 10
2.66374
 20
1.86729
 30
0.0
 40
0
 41
0
  0
VERTEX
  8
0
 10
2.67025
 20
1.87381
 30
0.0
 40
0
 41
0
  0
SEQEND
 8
0
  0
POLYLINE
  8
0
 62
     173
 66
     1
 10
0
 20
0
 30
0.0
 70
     1
 40
0
 41
0
  0
VERTEX
  8
0
 10
2.69026
 20
1.32384
 30
0.0
 40
0
 41
0
  0
VERTEX
  8
0
 10
2.68375
 20
1.33035
 30
0.0
 40
0
 41
0
  0
VERTEX
  8
0
 10
2.67725
 20
1.32384
 30
0.0
 40
0
 41
0
  0
VERTEX
  8
0
 10
2.68375
 20
1.31733
 30
0.0
 40
0
 41
0
  0
VERTEX
  8
0
 10
2.69026
 20
1.32384
 30
0.0
 40
0
 41
0
  0
SEQEND
 8
0
  0
POLYLINE
  8
0
 62
     173
 66
     1
 10
0
 20
0
 30
0.0
 70
     1
 40
0
 41
0
  0
VERTEX
  8
0
 10
2.69026
 20
1.2238
 30
0.0
 40
0
 41
0
  0
VERTEX
  8
0
 10
2.68375
 20
1.23031
 30
0.0
 40
0
 41
0
  0
VERTEX
  8
0
 10
2.67725
 20
1.2238
 30
0.0
 40
0
 41
0
  0
VERTEX
  8
0
 10
2.68375
 20
1.21734
 30
0.0
 40
0
 41
0
  0
VERTEX
  8
0
 10
2.69026
 20
1.2238
 30
0.0
 40
0
 41
0
  0
SEQEND
 8
0
  0
POLYLINE
  8
0
 62
     173
 66
     1
 10
0
 20
0
 30
0.0
 70
     1
 40
0
 41
0
  0
VERTEX
  8
0
 10
2.75526
 20
1.81282
 30
0.0
 40
0
 41
0
  0
VERTEX
  8
0
 10
2.74875
 20
1.81933
 30
0.0
 40
0
 41
0
  0
VERTEX
  8
0
 10
2.74224
 20
1.81282
 30
0.0
 40
0
 41
0
  0
VERTEX
  8
0
 10
2.74875
 20
1.80632
 30
0.0
 40
0
 41
0
  0
VERTEX
  8
0
 10
2.75526
 20
1.81282
 30
0.0
 40
0
 41
0
  0
SEQEND
 8
0
  0
POLYLINE
  8
0
 62
     173
 66
     1
 10
0
 20
0
 30
0.0
 70
     1
 40
0
 41
0
  0
VERTEX
  8
0
 10
2.77567
 20
1.89393
 30
0.0
 40
0
 41
0
  0
VERTEX
  8
0
 10
2.76915
 20
1.90044
 30
0.0
 40
0
 41
0
  0
VERTEX
  8
0
 10
2.76264
 20
1.89393
 30
0.0
 40
0
 41
0
  0
VERTEX
  8
0
 10
2.76915
 20
1.88743
 30
0.0
 40
0
 41
0
  0
VERTEX
  8
0
 10
2.77567
 20
1.89393
 30
0.0
 40
0
 41
0
  0
SEQEND
 8
0
  0
POLYLINE
  8
0
 62
     173
 66
     1
 10
0
 20
0
 30
0.0
 70
     1
 40
0
 41
0
  0
VERTEX
  8
0
 10
1.18376
 20
0.963813
 30
0.0
 40
0
 41
0
  0
VERTEX
  8
0
 10
1.17904
 20
0.975097
 30
0.0
 40
0
 41
0
  0
VERTEX
  8
0
 10
1.16873
 20
0.978842
 30
0.0
 40
0
 41
0
  0
VERTEX
  8
0
 10
1.15842
 20
0.975097
 30
0.0
 40
0
 41
0
  0
VERTEX
  8
0
 10
1.15375
 20
0.963813
 30
0.0
 40
0
 41
0
  0
VERTEX
  8
0
 10
1.15842
 20
0.952582
 30
0.0
 40
0
 41
0
  0
VERTEX
  8
0
 10
1.16873
 20
0.948839
 30
0.0
 40
0
 41
0
  0
VERTEX
  8
0
 10
1.17904
 20
0.952582
 30
0.0
 40
0
 41
0
  0
VERTEX
  8
0
 10
1.18376
 20
0.963813
 30
0.0
 40
0
 41
0
  0
SEQEND
 8
0
  0
POLYLINE
  8
0
 62
     173
 66
     1
 10
0
 20
0
 30
0.0
 70
     1
 40
0
 41
0
  0
VERTEX
  8
0
 10
1.38373
 20
0.963813
 30
0.0
 40
0
 41
0
  0
VERTEX
  8
0
 10
1.37902
 20
0.975097
 30
0.0
 40
0
 41
0
  0
VERTEX
  8
0
 10
1.36876
 20
0.978842
 30
0.0
 40
0
 41
0
  0
VERTEX
  8
0
 10
1.35845
 20
0.975097
 30
0.0
 40
0
 41
0
  0
VERTEX
  8
0
 10
1.35379
 20
0.963813
 30
0.0
 40
0
 41
0
  0
VERTEX
  8
0
 10
1.35845
 20
0.952582
 30
0.0
 40
0
 41
0
  0
VERTEX
  8
0
 10
1.36876
 20
0.948839
 30
0.0
 40
0
 41
0
  0
VERTEX
  8
0
 10
1.37902
 20
0.952582
 30
0.0
 40
0
 41
0
  0
VERTEX
  8
0
 10
1.38373
 20
0.963813
 30
0.0
 40
0
 41
0
  0
SEQEND
 8
0
  0
POLYLINE
  8
0
 62
     173
 66
     1
 10
0
 20
0
 30
0.0
 70
     1
 40
0
 41
0
  0
VERTEX
  8
0
 10
1.89675
 20
1.50379
 30
0.0
 40
0
 41
0
  0
VERTEX
  8
0
 10
1.89204
 20
1.51508
 30
0.0
 40
0
 41
0
  0
VERTEX
  8
0
 10
1.88172
 20
1.51882
 30
0.0
 40
0
 41
0
  0
VERTEX
  8
0
 10
1.87142
 20
1.51508
 30
0.0
 40
0
 41
0
  0
VERTEX
  8
0
 10
1.86675
 20
1.50379
 30
0.0
 40
0
 41
0
  0
VERTEX
  8
0
 10
1.87142
 20
1.49257
 30
0.0
 40
0
 41
0
  0
VERTEX
  8
0
 10
1.88172
 20
1.48882
 30
0.0
 40
0
 41
0
  0
VERTEX
  8
0
 10
1.89204
 20
1.49257
 30
0.0
 40
0
 41
0
  0
VERTEX
  8
0
 10
1.89675
 20
1.50379
 30
0.0
 40
0
 41
0
  0
SEQEND
 8
0
  0
POLYLINE
  8
0
 62
     173
 66
     1
 10
0
 20
0
 30
0.0
 70
     1
 40
0
 41
0
  0
VERTEX
  8
0
 10
1.89675
 20
0.637804
 30
0.0
 40
0
 41
0
  0
VERTEX
  8
0
 10
1.89204
 20
0.649089
 30
0.0
 40
0
 41
0
  0
VERTEX
  8
0
 10
1.88172
 20
0.652832
 30
0.0
 40
0
 41
0
  0
VERTEX
  8
0
 10
1.87142
 20
0.649089
 30
0.0
 40
0
 41
0
  0
VERTEX
  8
0
 10
1.86675
 20
0.637804
 30
0.0
 40
0
 41
0
  0
VERTEX
  8
0
 10
1.87142
 20
0.626574
 30
0.0
 40
0
 41
0
  0
VERTEX
  8
0
 10
1.88172
 20
0.622831
 30
0.0
 40
0
 41
0
  0
VERTEX
  8
0
 10
1.89204
 20
0.626574
 30
0.0
 40
0
 41
0
  0
VERTEX
  8
0
 10
1.89675
 20
0.637804
 30
0.0
 40
0
 41
0
  0
SEQEND
 8
0
  0
POLYLINE
  8
0
 62
     173
 66
     1
 10
0
 20
0
 30
0.0
 70
     1
 40
0
 41
0
  0
VERTEX
  8
0
 10
1.92393
 20
0.0150282
 30
0.0
 40
0
 41
0
  0
VERTEX
  8
0
 10
1.91922
 20
0.0262588
 30
0.0
 40
0
 41
0
  0
VERTEX
  8
0
 10
1.9089
 20
0.0300022
 30
0.0
 40
0
 41
0
  0
VERTEX
  8
0
 10
1.8986
 20
0.0262588
 30
0.0
 40
0
 41
0
  0
VERTEX
  8
0
 10
1.89393
 20
0.0150282
 30
0.0
 40
0
 41
0
  0
VERTEX
  8
0
 10
1.8986
 20
0.00379775
 30
0.0
 40
0
 41
0
  0
VERTEX
  8
0
 10
1.9089
 20
5.42535e-05
 30
0.0
 40
0
 41
0
  0
VERTEX
  8
0
 10
1.91922
 20
0.00379775
 30
0.0
 40
0
 41
0
  0
VERTEX
  8
0
 10
1.92393
 20
0.0150282
 30
0.0
 40
0
 41
0
  0
SEQEND
 8
0
  0
POLYLINE
  8
0
 62
     173
 66
     1
 10
0
 20
0
 30
0.0
 70
     1
 40
0
 41
0
  0
VERTEX
  8
0
 10
1.97575
 20
1.50379
 30
0.0
 40
0
 41
0
  0
VERTEX
  8
0
 10
1.97103
 20
1.51508
 30
0.0
 40
0
 41
0
  0
VERTEX
  8
0
 10
1.96072
 20
1.51882
 30
0.0
 40
0
 41
0
  0
VERTEX
  8
0
 10
1.95042
 20
1.51508
 30
0.0
 40
0
 41
0
  0
VERTEX
  8
0
 10
1.94575
 20
1.50379
 30
0.0
 40
0
 41
0
  0
VERTEX
  8
0
 10
1.95042
 20
1.49257
 30
0.0
 40
0
 41
0
  0
VERTEX
  8
0
 10
1.96072
 20
1.48882
 30
0.0
 40
0
 41
0
  0
VERTEX
  8
0
 10
1.97103
 20
1.49257
 30
0.0
 40
0
 41
0
  0
VERTEX
  8
0
 10
1.97575
 20
1.50379
 30
0.0
 40
0
 41
0
  0
SEQEND
 8
0
  0
POLYLINE
  8
0
 62
     173
 66
     1
 10
0
 20
0
 30
0.0
 70
     1
 40
0
 41
0
  0
VERTEX
  8
0
 10
1.97575
 20
0.637804
 30
0.0
 40
0
 41
0
  0
VERTEX
  8
0
 10
1.97103
 20
0.649089
 30
0.0
 40
0
 41
0
  0
VERTEX
  8
0
 10
1.96072
 20
0.652832
 30
0.0
 40
0
 41
0
  0
VERTEX
  8
0
 10
1.95042
 20
0.649089
 30
0.0
 40
0
 41
0
  0
VERTEX
  8
0
 10
1.94575
 20
0.637804
 30
0.0
 40
0
 41
0
  0
VERTEX
  8
0
 10
1.95042
 20
0.626574
 30
0.0
 40
0
 41
0
  0
VERTEX
  8
0
 10
1.96072
 20
0.622831
 30
0.0
 40
0
 41
0
  0
VERTEX
  8
0
 10
1.97103
 20
0.626574
 30
0.0
 40
0
 41
0
  0
VERTEX
  8
0
 10
1.97575
 20
0.637804
 30
0.0
 40
0
 41
0
  0
SEQEND
 8
0
  0
POLYLINE
  8
0
 62
     173
 66
     1
 10
0
 20
0
 30
0.0
 70
     1
 40
0
 41
0
  0
VERTEX
  8
0
 10
2.05474
 20
1.50379
 30
0.0
 40
0
 41
0
  0
VERTEX
  8
0
 10
2.05003
 20
1.51508
 30
0.0
 40
0
 41
0
  0
VERTEX
  8
0
 10
2.03971
 20
1.51882
 30
0.0
 40
0
 41
0
  0
VERTEX
  8
0
 10
2.0294
 20
1.51508
 30
0.0
 40
0
 41
0
  0
VERTEX
  8
0
 10
2.02474
 20
1.50379
 30
0.0
 40
0
 41
0
  0
VERTEX
  8
0
 10
2.0294
 20
1.49257
 30
0.0
 40
0
 41
0
  0
VERTEX
  8
0
 10
2.03971
 20
1.48882
 30
0.0
 40
0
 41
0
  0
VERTEX
  8
0
 10
2.05003
 20
1.49257
 30
0.0
 40
0
 41
0
  0
VERTEX
  8
0
 10
2.05474
 20
1.50379
 30
0.0
 40
0
 41
0
  0
SEQEND
 8
0
  0
POLYLINE
  8
0
 62
     173
 66
     1
 10
0
 20
0
 30
0.0
 70
     1
 40
0
 41
0
  0
VERTEX
  8
0
 10
2.05474
 20
0.637804
 30
0.0
 40
0
 41
0
  0
VERTEX
  8
0
 10
2.05003
 20
0.649089
 30
0.0
 40
0
 41
0
  0
VERTEX
  8
0
 10
2.03971
 20
0.652832
 30
0.0
 40
0
 41
0
  0
VERTEX
  8
0
 10
2.0294
 20
0.649089
 30
0.0
 40
0
 41
0
  0
VERTEX
  8
0
 10
2.02474
 20
0.637804
 30
0.0
 40
0
 41
0
  0
VERTEX
  8
0
 10
2.0294
 20
0.626574
 30
0.0
 40
0
 41
0
  0
VERTEX
  8
0
 10
2.03971
 20
0.622831
 30
0.0
 40
0
 41
0
  0
VERTEX
  8
0
 10
2.05003
 20
0.626574
 30
0.0
 40
0
 41
0
  0
VERTEX
  8
0
 10
2.05474
 20
0.637804
 30
0.0
 40
0
 41
0
  0
SEQEND
 8
0
  0
POLYLINE
  8
0
 62
     173
 66
     1
 10
0
 20
0
 30
0.0
 70
     1
 40
0
 41
0
  0
VERTEX
  8
0
 10
2.12397
 20
0.0150282
 30
0.0
 40
0
 41
0
  0
VERTEX
  8
0
 10
2.11925
 20
0.0262588
 30
0.0
 40
0
 41
0
  0
VERTEX
  8
0
 10
2.10894
 20
0.0300022
 30
0.0
 40
0
 41
0
  0
VERTEX
  8
0
 10
2.09864
 20
0.0262588
 30
0.0
 40
0
 41
0
  0
VERTEX
  8
0
 10
2.09397
 20
0.0150282
 30
0.0
 40
0
 41
0
  0
VERTEX
  8
0
 10
2.09864
 20
0.00379775
 30
0.0
 40
0
 41
0
  0
VERTEX
  8
0
 10
2.10894
 20
5.42535e-05
 30
0.0
 40
0
 41
0
  0
VERTEX
  8
0
 10
2.11925
 20
0.00379775
 30
0.0
 40
0
 41
0
  0
VERTEX
  8
0
 10
2.12397
 20
0.0150282
 30
0.0
 40
0
 41
0
  0
SEQEND
 8
0
  0
POLYLINE
  8
0
 62
     173
 66
     1
 10
0
 20
0
 30
0.0
 70
     1
 40
0
 41
0
  0
VERTEX
  8
0
 10
2.13374
 20
1.50379
 30
0.0
 40
0
 41
0
  0
VERTEX
  8
0
 10
2.12901
 20
1.51508
 30
0.0
 40
0
 41
0
  0
VERTEX
  8
0
 10
2.11876
 20
1.51882
 30
0.0
 40
0
 41
0
  0
VERTEX
  8
0
 10
2.10846
 20
1.51508
 30
0.0
 40
0
 41
0
  0
VERTEX
  8
0
 10
2.10379
 20
1.50379
 30
0.0
 40
0
 41
0
  0
VERTEX
  8
0
 10
2.10846
 20
1.49257
 30
0.0
 40
0
 41
0
  0
VERTEX
  8
0
 10
2.11876
 20
1.48882
 30
0.0
 40
0
 41
0
  0
VERTEX
  8
0
 10
2.12901
 20
1.49257
 30
0.0
 40
0
 41
0
  0
VERTEX
  8
0
 10
2.13374
 20
1.50379
 30
0.0
 40
0
 41
0
  0
SEQEND
 8
0
  0
POLYLINE
  8
0
 62
     173
 66
     1
 10
0
 20
0
 30
0.0
 70
     1
 40
0
 41
0
  0
VERTEX
  8
0
 10
2.13374
 20
0.637804
 30
0.0
 40
0
 41
0
  0
VERTEX
  8
0
 10
2.12901
 20
0.649089
 30
0.0
 40
0
 41
0
  0
VERTEX
  8
0
 10
2.11876
 20
0.652832
 30
0.0
 40
0
 41
0
  0
VERTEX
  8
0
 10
2.10846
 20
0.649089
 30
0.0
 40
0
 41
0
  0
VERTEX
  8
0
 10
2.10379
 20
0.637804
 30
0.0
 40
0
 41
0
  0
VERTEX
  8
0
 10
2.10846
 20
0.626574
 30
0.0
 40
0
 41
0
  0
VERTEX
  8
0
 10
2.11876
 20
0.622831
 30
0.0
 40
0
 41
0
  0
VERTEX
  8
0
 10
2.12901
 20
0.626574
 30
0.0
 40
0
 41
0
  0
VERTEX
  8
0
 10
2.13374
 20
0.637804
 30
0.0
 40
0
 41
0
  0
SEQEND
 8
0
  0
POLYLINE
  8
0
 62
     173
 66
     1
 10
0
 20
0
 30
0.0
 70
     1
 40
0
 41
0
  0
VERTEX
  8
0
 10
2.21278
 20
1.50379
 30
0.0
 40
0
 41
0
  0
VERTEX
  8
0
 10
2.20806
 20
1.51508
 30
0.0
 40
0
 41
0
  0
VERTEX
  8
0
 10
2.19775
 20
1.51882
 30
0.0
 40
0
 41
0
  0
VERTEX
  8
0
 10
2.18744
 20
1.51508
 30
0.0
 40
0
 41
0
  0
VERTEX
  8
0
 10
2.18278
 20
1.50379
 30
0.0
 40
0
 41
0
  0
VERTEX
  8
0
 10
2.18744
 20
1.49257
 30
0.0
 40
0
 41
0
  0
VERTEX
  8
0
 10
2.19775
 20
1.48882
 30
0.0
 40
0
 41
0
  0
VERTEX
  8
0
 10
2.20806
 20
1.49257
 30
0.0
 40
0
 41
0
  0
VERTEX
  8
0
 10
2.21278
 20
1.50379
 30
0.0
 40
0
 41
0
  0
SEQEND
 8
0
  0
POLYLINE
  8
0
 62
     173
 66
     1
 10
0
 20
0
 30
0.0
 70
     1
 40
0
 41
0
  0
VERTEX
  8
0
 10
2.21278
 20
0.637804
 30
0.0
 40
0
 41
0
  0
VERTEX
  8
0
 10
2.20806
 20
0.649089
 30
0.0
 40
0
 41
0
  0
VERTEX
  8
0
 10
2.19775
 20
0.652832
 30
0.0
 40
0
 41
0
  0
VERTEX
  8
0
 10
2.18744
 20
0.649089
 30
0.0
 40
0
 41
0
  0
VERTEX
  8
0
 10
2.18278
 20
0.637804
 30
0.0
 40
0
 41
0
  0
VERTEX
  8
0
 10
2.18744
 20
0.626574
 30
0.0
 40
0
 41
0
  0
VERTEX
  8
0
 10
2.19775
 20
0.622831
 30
0.0
 40
0
 41
0
  0
VERTEX
  8
0
 10
2.20806
 20
0.626574
 30
0.0
 40
0
 41
0
  0
VERTEX
  8
0
 10
2.21278
 20
0.637804
 30
0.0
 40
0
 41
0
  0
SEQEND
 8
0
  0
POLYLINE
  8
0
 62
     173
 66
     1
 10
0
 20
0
 30
0.0
 70
     1
 40
0
 41
0
  0
VERTEX
  8
0
 10
2.29178
 20
1.50379
 30
0.0
 40
0
 41
0
  0
VERTEX
  8
0
 10
2.28706
 20
1.51508
 30
0.0
 40
0
 41
0
  0
VERTEX
  8
0
 10
2.27675
 20
1.51882
 30
0.0
 40
0
 41
0
  0
VERTEX
  8
0
 10
2.26644
 20
1.51508
 30
0.0
 40
0
 41
0
  0
VERTEX
  8
0
 10
2.26178
 20
1.50379
 30
0.0
 40
0
 41
0
  0
VERTEX
  8
0
 10
2.26644
 20
1.49257
 30
0.0
 40
0
 41
0
  0
VERTEX
  8
0
 10
2.27675
 20
1.48882
 30
0.0
 40
0
 41
0
  0
VERTEX
  8
0
 10
2.28706
 20
1.49257
 30
0.0
 40
0
 41
0
  0
VERTEX
  8
0
 10
2.29178
 20
1.50379
 30
0.0
 40
0
 41
0
  0
SEQEND
 8
0
  0
POLYLINE
  8
0
 62
     173
 66
     1
 10
0
 20
0
 30
0.0
 70
     1
 40
0
 41
0
  0
VERTEX
  8
0
 10
2.29178
 20
0.637804
 30
0.0
 40
0
 41
0
  0
VERTEX
  8
0
 10
2.28706
 20
0.649089
 30
0.0
 40
0
 41
0
  0
VERTEX
  8
0
 10
2.27675
 20
0.652832
 30
0.0
 40
0
 41
0
  0
VERTEX
  8
0
 10
2.26644
 20
0.649089
 30
0.0
 40
0
 41
0
  0
VERTEX
  8
0
 10
2.26178
 20
0.637804
 30
0.0
 40
0
 41
0
  0
VERTEX
  8
0
 10
2.26644
 20
0.626574
 30
0.0
 40
0
 41
0
  0
VERTEX
  8
0
 10
2.27675
 20
0.622831
 30
0.0
 40
0
 41
0
  0
VERTEX
  8
0
 10
2.28706
 20
0.626574
 30
0.0
 40
0
 41
0
  0
VERTEX
  8
0
 10
2.29178
 20
0.637804
 30
0.0
 40
0
 41
0
  0
SEQEND
 8
0
  0
POLYLINE
  8
0
 62
     173
 66
     1
 10
0
 20
0
 30
0.0
 70
     1
 40
0
 41
0
  0
VERTEX
  8
0
 10
2.37076
 20
1.50379
 30
0.0
 40
0
 41
0
  0
VERTEX
  8
0
 10
2.36604
 20
1.51508
 30
0.0
 40
0
 41
0
  0
VERTEX
  8
0
 10
2.35574
 20
1.51882
 30
0.0
 40
0
 41
0
  0
VERTEX
  8
0
 10
2.34543
 20
1.51508
 30
0.0
 40
0
 41
0
  0
VERTEX
  8
0
 10
2.34076
 20
1.50379
 30
0.0
 40
0
 41
0
  0
VERTEX
  8
0
 10
2.34543
 20
1.49257
 30
0.0
 40
0
 41
0
  0
VERTEX
  8
0
 10
2.35574
 20
1.48882
 30
0.0
 40
0
 41
0
  0
VERTEX
  8
0
 10
2.36604
 20
1.49257
 30
0.0
 40
0
 41
0
  0
VERTEX
  8
0
 10
2.37076
 20
1.50379
 30
0.0
 40
0
 41
0
  0
SEQEND
 8
0
  0
POLYLINE
  8
0
 62
     173
 66
     1
 10
0
 20
0
 30
0.0
 70
     1
 40
0
 41
0
  0
VERTEX
  8
0
 10
2.37076
 20
0.637804
 30
0.0
 40
0
 41
0
  0
VERTEX
  8
0
 10
2.36604
 20
0.649089
 30
0.0
 40
0
 41
0
  0
VERTEX
  8
0
 10
2.35574
 20
0.652832
 30
0.0
 40
0
 41
0
  0
VERTEX
  8
0
 10
2.34543
 20
0.649089
 30
0.0
 40
0
 41
0
  0
VERTEX
  8
0
 10
2.34076
 20
0.637804
 30
0.0
 40
0
 41
0
  0
VERTEX
  8
0
 10
2.34543
 20
0.626574
 30
0.0
 40
0
 41
0
  0
VERTEX
  8
0
 10
2.35574
 20
0.622831
 30
0.0
 40
0
 41
0
  0
VERTEX
  8
0
 10
2.36604
 20
0.626574
 30
0.0
 40
0
 41
0
  0
VERTEX
  8
0
 10
2.37076
 20
0.637804
 30
0.0
 40
0
 41
0
  0
SEQEND
 8
0
  0
POLYLINE
  8
0
 62
     173
 66
     1
 10
0
 20
0
 30
0.0
 70
     1
 40
0
 41
0
  0
VERTEX
  8
0
 10
2.44976
 20
1.50379
 30
0.0
 40
0
 41
0
  0
VERTEX
  8
0
 10
2.44504
 20
1.51508
 30
0.0
 40
0
 41
0
  0
VERTEX
  8
0
 10
2.43474
 20
1.51882
 30
0.0
 40
0
 41
0
  0
VERTEX
  8
0
 10
2.42443
 20
1.51508
 30
0.0
 40
0
 41
0
  0
VERTEX
  8
0
 10
2.41976
 20
1.50379
 30
0.0
 40
0
 41
0
  0
VERTEX
  8
0
 10
2.42443
 20
1.49257
 30
0.0
 40
0
 41
0
  0
VERTEX
  8
0
 10
2.43474
 20
1.48882
 30
0.0
 40
0
 41
0
  0
VERTEX
  8
0
 10
2.44504
 20
1.49257
 30
0.0
 40
0
 41
0
  0
VERTEX
  8
0
 10
2.44976
 20
1.50379
 30
0.0
 40
0
 41
0
  0
SEQEND
 8
0
  0
POLYLINE
  8
0
 62
     173
 66
     1
 10
0
 20
0
 30
0.0
 70
     1
 40
0
 41
0
  0
VERTEX
  8
0
 10
2.44976
 20
0.637804
 30
0.0
 40
0
 41
0
  0
VERTEX
  8
0
 10
2.44504
 20
0.649089
 30
0.0
 40
0
 41
0
  0
VERTEX
  8
0
 10
2.43474
 20
0.652832
 30
0.0
 40
0
 41
0
  0
VERTEX
  8
0
 10
2.42443
 20
0.649089
 30
0.0
 40
0
 41
0
  0
VERTEX
  8
0
 10
2.41976
 20
0.637804
 30
0.0
 40
0
 41
0
  0
VERTEX
  8
0
 10
2.42443
 20
0.626574
 30
0.0
 40
0
 41
0
  0
VERTEX
  8
0
 10
2.43474
 20
0.622831
 30
0.0
 40
0
 41
0
  0
VERTEX
  8
0
 10
2.44504
 20
0.626574
 30
0.0
 40
0
 41
0
  0
VERTEX
  8
0
 10
2.44976
 20
0.637804
 30
0.0
 40
0
 41
0
  0
SEQEND
 8
0
  0
POLYLINE
  8
0
 62
     173
 66
     1
 10
0
 20
0
 30
0.0
 70
     1
 40
0
 41
0
  0
VERTEX
  8
0
 10
2.52875
 20
1.50379
 30
0.0
 40
0
 41
0
  0
VERTEX
  8
0
 10
2.52403
 20
1.51508
 30
0.0
 40
0
 41
0
  0
VERTEX
  8
0
 10
2.51372
 20
1.51882
 30
0.0
 40
0
 41
0
  0
VERTEX
  8
0
 10
2.50342
 20
1.51508
 30
0.0
 40
0
 41
0
  0
VERTEX
  8
0
 10
2.49875
 20
1.50379
 30
0.0
 40
0
 41
0
  0
VERTEX
  8
0
 10
2.50342
 20
1.49257
 30
0.0
 40
0
 41
0
  0
VERTEX
  8
0
 10
2.51372
 20
1.48882
 30
0.0
 40
0
 41
0
  0
VERTEX
  8
0
 10
2.52403
 20
1.49257
 30
0.0
 40
0
 41
0
  0
VERTEX
  8
0
 10
2.52875
 20
1.50379
 30
0.0
 40
0
 41
0
  0
SEQEND
 8
0
  0
POLYLINE
  8
0
 62
     173
 66
     1
 10
0
 20
0
 30
0.0
 70
     1
 40
0
 41
0
  0
VERTEX
  8
0
 10
2.52875
 20
0.637804
 30
0.0
 40
0
 41
0
  0
VERTEX
  8
0
 10
2.52403
 20
0.649089
 30
0.0
 40
0
 41
0
  0
VERTEX
  8
0
 10
2.51372
 20
0.652832
 30
0.0
 40
0
 41
0
  0
VERTEX
  8
0
 10
2.50342
 20
0.649089
 30
0.0
 40
0
 41
0
  0
VERTEX
  8
0
 10
2.49875
 20
0.637804
 30
0.0
 40
0
 41
0
  0
VERTEX
  8
0
 10
2.50342
 20
0.626574
 30
0.0
 40
0
 41
0
  0
VERTEX
  8
0
 10
2.51372
 20
0.622831
 30
0.0
 40
0
 41
0
  0
VERTEX
  8
0
 10
2.52403
 20
0.626574
 30
0.0
 40
0
 41
0
  0
VERTEX
  8
0
 10
2.52875
 20
0.637804
 30
0.0
 40
0
 41
0
  0
SEQEND
 8
0
  0
POLYLINE
  8
0
 62
     173
 66
     1
 10
0
 20
0
 30
0.0
 70
     1
 40
0
 41
0
  0
VERTEX
  8
0
 10
2.60775
 20
1.50379
 30
0.0
 40
0
 41
0
  0
VERTEX
  8
0
 10
2.60303
 20
1.51508
 30
0.0
 40
0
 41
0
  0
VERTEX
  8
0
 10
2.59272
 20
1.51882
 30
0.0
 40
0
 41
0
  0
VERTEX
  8
0
 10
2.58242
 20
1.51508
 30
0.0
 40
0
 41
0
  0
VERTEX
  8
0
 10
2.57775
 20
1.50379
 30
0.0
 40
0
 41
0
  0
VERTEX
  8
0
 10
2.58242
 20
1.49257
 30
0.0
 40
0
 41
0
  0
VERTEX
  8
0
 10
2.59272
 20
1.48882
 30
0.0
 40
0
 41
0
  0
VERTEX
  8
0
 10
2.60303
 20
1.49257
 30
0.0
 40
0
 41
0
  0
VERTEX
  8
0
 10
2.60775
 20
1.50379
 30
0.0
 40
0
 41
0
  0
SEQEND
 8
0
  0
POLYLINE
  8
0
 62
     173
 66
     1
 10
0
 20
0
 30
0.0
 70
     1
 40
0
 41
0
  0
VERTEX
  8
0
 10
2.60775
 20
0.637804
 30
0.0
 40
0
 41
0
  0
VERTEX
  8
0
 10
2.60303
 20
0.649089
 30
0.0
 40
0
 41
0
  0
VERTEX
  8
0
 10
2.59272
 20
0.652832
 30
0.0
 40
0
 41
0
  0
VERTEX
  8
0
 10
2.58242
 20
0.649089
 30
0.0
 40
0
 41
0
  0
VERTEX
  8
0
 10
2.57775
 20
0.637804
 30
0.0
 40
0
 41
0
  0
VERTEX
  8
0
 10
2.58242
 20
0.626574
 30
0.0
 40
0
 41
0
  0
VERTEX
  8
0
 10
2.59272
 20
0.622831
 30
0.0
 40
0
 41
0
  0
VERTEX
  8
0
 10
2.60303
 20
0.626574
 30
0.0
 40
0
 41
0
  0
VERTEX
  8
0
 10
2.60775
 20
0.637804
 30
0.0
 40
0
 41
0
  0
SEQEND
 8
0
  0
POLYLINE
  8
0
 62
     173
 66
     1
 10
0
 20
0
 30
0.0
 70
     1
 40
0
 41
0
  0
VERTEX
  8
0
 10
0.871257
 20
1.72379
 30
0.0
 40
0
 41
0
  0
VERTEX
  8
0
 10
0.865776
 20
1.73693
 30
0.0
 40
0
 41
0
  0
VERTEX
  8
0
 10
0.853733
 20
1.74132
 30
0.0
 40
0
 41
0
  0
VERTEX
  8
0
 10
0.841689
 20
1.73693
 30
0.0
 40
0
 41
0
  0
VERTEX
  8
0
 10
0.836262
 20
1.72379
 30
0.0
 40
0
 41
0
  0
VERTEX
  8
0
 10
0.841689
 20
1.71072
 30
0.0
 40
0
 41
0
  0
VERTEX
  8
0
 10
0.853733
 20
1.70632
 30
0.0
 40
0
 41
0
  0
VERTEX
  8
0
 10
0.865776
 20
1.71072
 30
0.0
 40
0
 41
0
  0
VERTEX
  8
0
 10
0.871257
 20
1.72379
 30
0.0
 40
0
 41
0
  0
SEQEND
 8
0
  0
POLYLINE
  8
0
 62
     173
 66
     1
 10
0
 20
0
 30
0.0
 70
     1
 40
0
 41
0
  0
VERTEX
  8
0
 10
0.921278
 20
1.82383
 30
0.0
 40
0
 41
0
  0
VERTEX
  8
0
 10
0.915799
 20
1.83697
 30
0.0
 40
0
 41
0
  0
VERTEX
  8
0
 10
0.903754
 20
1.84136
 30
0.0
 40
0
 41
0
  0
VERTEX
  8
0
 10
0.89171
 20
1.83697
 30
0.0
 40
0
 41
0
  0
VERTEX
  8
0
 10
0.886285
 20
1.82383
 30
0.0
 40
0
 41
0
  0
VERTEX
  8
0
 10
0.89171
 20
1.81076
 30
0.0
 40
0
 41
0
  0
VERTEX
  8
0
 10
0.903754
 20
1.80638
 30
0.0
 40
0
 41
0
  0
VERTEX
  8
0
 10
0.915799
 20
1.81076
 30
0.0
 40
0
 41
0
  0
VERTEX
  8
0
 10
0.921278
 20
1.82383
 30
0.0
 40
0
 41
0
  0
SEQEND
 8
0
  0
POLYLINE
  8
0
 62
     173
 66
     1
 10
0
 20
0
 30
0.0
 70
     1
 40
0
 41
0
  0
VERTEX
  8
0
 10
0.971246
 20
1.72379
 30
0.0
 40
0
 41
0
  0
VERTEX
  8
0
 10
0.965767
 20
1.73693
 30
0.0
 40
0
 41
0
  0
VERTEX
  8
0
 10
0.953722
 20
1.74132
 30
0.0
 40
0
 41
0
  0
VERTEX
  8
0
 10
0.941678
 20
1.73693
 30
0.0
 40
0
 41
0
  0
VERTEX
  8
0
 10
0.936253
 20
1.72379
 30
0.0
 40
0
 41
0
  0
VERTEX
  8
0
 10
0.941678
 20
1.71072
 30
0.0
 40
0
 41
0
  0
VERTEX
  8
0
 10
0.953722
 20
1.70632
 30
0.0
 40
0
 41
0
  0
VERTEX
  8
0
 10
0.965767
 20
1.71072
 30
0.0
 40
0
 41
0
  0
VERTEX
  8
0
 10
0.971246
 20
1.72379
 30
0.0
 40
0
 41
0
  0
SEQEND
 8
0
  0
POLYLINE
  8
0
 62
     173
 66
     1
 10
0
 20
0
 30
0.0
 70
     1
 40
0
 41
0
  0
VERTEX
  8
0
 10
1.02127
 20
1.82383
 30
0.0
 40
0
 41
0
  0
VERTEX
  8
0
 10
1.01579
 20
1.83697
 30
0.0
 40
0
 41
0
  0
VERTEX
  8
0
 10
1.00374
 20
1.84136
 30
0.0
 40
0
 41
0
  0
VERTEX
  8
0
 10
0.991699
 20
1.83697
 30
0.0
 40
0
 41
0
  0
VERTEX
  8
0
 10
0.986274
 20
1.82383
 30
0.0
 40
0
 41
0
  0
VERTEX
  8
0
 10
0.991699
 20
1.81076
 30
0.0
 40
0
 41
0
  0
VERTEX
  8
0
 10
1.00374
 20
1.80638
 30
0.0
 40
0
 41
0
  0
VERTEX
  8
0
 10
1.01579
 20
1.81076
 30
0.0
 40
0
 41
0
  0
VERTEX
  8
0
 10
1.02127
 20
1.82383
 30
0.0
 40
0
 41
0
  0
SEQEND
 8
0
  0
POLYLINE
  8
0
 62
     173
 66
     1
 10
0
 20
0
 30
0.0
 70
     1
 40
0
 41
0
  0
VERTEX
  8
0
 10
1.07123
 20
1.72379
 30
0.0
 40
0
 41
0
  0
VERTEX
  8
0
 10
1.06576
 20
1.73693
 30
0.0
 40
0
 41
0
  0
VERTEX
  8
0
 10
1.05371
 20
1.74132
 30
0.0
 40
0
 41
0
  0
VERTEX
  8
0
 10
1.04167
 20
1.73693
 30
0.0
 40
0
 41
0
  0
VERTEX
  8
0
 10
1.03624
 20
1.72379
 30
0.0
 40
0
 41
0
  0
VERTEX
  8
0
 10
1.04167
 20
1.71072
 30
0.0
 40
0
 41
0
  0
VERTEX
  8
0
 10
1.05371
 20
1.70632
 30
0.0
 40
0
 41
0
  0
VERTEX
  8
0
 10
1.06576
 20
1.71072
 30
0.0
 40
0
 41
0
  0
VERTEX
  8
0
 10
1.07123
 20
1.72379
 30
0.0
 40
0
 41
0
  0
SEQEND
 8
0
  0
POLYLINE
  8
0
 62
     173
 66
     1
 10
0
 20
0
 30
0.0
 70
     1
 40
0
 41
0
  0
VERTEX
  8
0
 10
1.12126
 20
1.82383
 30
0.0
 40
0
 41
0
  0
VERTEX
  8
0
 10
1.11578
 20
1.83697
 30
0.0
 40
0
 41
0
  0
VERTEX
  8
0
 10
1.10373
 20
1.84136
 30
0.0
 40
0
 41
0
  0
VERTEX
  8
0
 10
1.09169
 20
1.83697
 30
0.0
 40
0
 41
0
  0
VERTEX
  8
0
 10
1.08626
 20
1.82383
 30
0.0
 40
0
 41
0
  0
VERTEX
  8
0
 10
1.09169
 20
1.81076
 30
0.0
 40
0
 41
0
  0
VERTEX
  8
0
 10
1.10373
 20
1.80638
 30
0.0
 40
0
 41
0
  0
VERTEX
  8
0
 10
1.11578
 20
1.81076
 30
0.0
 40
0
 41
0
  0
VERTEX
  8
0
 10
1.12126
 20
1.82383
 30
0.0
 40
0
 41
0
  0
SEQEND
 8
0
  0
POLYLINE
  8
0
 62
     173
 66
     1
 10
0
 20
0
 30
0.0
 70
     1
 40
0
 41
0
  0
VERTEX
  8
0
 10
1.17128
 20
1.72379
 30
0.0
 40
0
 41
0
  0
VERTEX
  8
0
 10
1.1658
 20
1.73693
 30
0.0
 40
0
 41
0
  0
VERTEX
  8
0
 10
1.15375
 20
1.74132
 30
0.0
 40
0
 41
0
  0
VERTEX
  8
0
 10
1.14171
 20
1.73693
 30
0.0
 40
0
 41
0
  0
VERTEX
  8
0
 10
1.13628
 20
1.72379
 30
0.0
 40
0
 41
0
  0
VERTEX
  8
0
 10
1.14171
 20
1.71072
 30
0.0
 40
0
 41
0
  0
VERTEX
  8
0
 10
1.15375
 20
1.70632
 30
0.0
 40
0
 41
0
  0
VERTEX
  8
0
 10
1.1658
 20
1.71072
 30
0.0
 40
0
 41
0
  0
VERTEX
  8
0
 10
1.17128
 20
1.72379
 30
0.0
 40
0
 41
0
  0
SEQEND
 8
0
  0
POLYLINE
  8
0
 62
     173
 66
     1
 10
0
 20
0
 30
0.0
 70
     1
 40
0
 41
0
  0
VERTEX
  8
0
 10
1.22125
 20
1.82383
 30
0.0
 40
0
 41
0
  0
VERTEX
  8
0
 10
1.21577
 20
1.83697
 30
0.0
 40
0
 41
0
  0
VERTEX
  8
0
 10
1.20372
 20
1.84136
 30
0.0
 40
0
 41
0
  0
VERTEX
  8
0
 10
1.19168
 20
1.83697
 30
0.0
 40
0
 41
0
  0
VERTEX
  8
0
 10
1.18625
 20
1.82383
 30
0.0
 40
0
 41
0
  0
VERTEX
  8
0
 10
1.19168
 20
1.81076
 30
0.0
 40
0
 41
0
  0
VERTEX
  8
0
 10
1.20372
 20
1.80638
 30
0.0
 40
0
 41
0
  0
VERTEX
  8
0
 10
1.21577
 20
1.81076
 30
0.0
 40
0
 41
0
  0
VERTEX
  8
0
 10
1.22125
 20
1.82383
 30
0.0
 40
0
 41
0
  0
SEQEND
 8
0
  0
POLYLINE
  8
0
 62
     173
 66
     1
 10
0
 20
0
 30
0.0
 70
     1
 40
0
 41
0
  0
VERTEX
  8
0
 10
1.40625
 20
0.513835
 30
0.0
 40
0
 41
0
  0
VERTEX
  8
0
 10
1.40076
 20
0.526964
 30
0.0
 40
0
 41
0
  0
VERTEX
  8
0
 10
1.38873
 20
0.531358
 30
0.0
 40
0
 41
0
  0
VERTEX
  8
0
 10
1.37668
 20
0.526964
 30
0.0
 40
0
 41
0
  0
VERTEX
  8
0
 10
1.37126
 20
0.513835
 30
0.0
 40
0
 41
0
  0
VERTEX
  8
0
 10
1.37668
 20
0.50076
 30
0.0
 40
0
 41
0
  0
VERTEX
  8
0
 10
1.38873
 20
0.496365
 30
0.0
 40
0
 41
0
  0
VERTEX
  8
0
 10
1.40076
 20
0.50076
 30
0.0
 40
0
 41
0
  0
VERTEX
  8
0
 10
1.40625
 20
0.513835
 30
0.0
 40
0
 41
0
  0
SEQEND
 8
0
  0
POLYLINE
  8
0
 62
     173
 66
     1
 10
0
 20
0
 30
0.0
 70
     1
 40
0
 41
0
  0
VERTEX
  8
0
 10
1.40625
 20
0.413792
 30
0.0
 40
0
 41
0
  0
VERTEX
  8
0
 10
1.40076
 20
0.426975
 30
0.0
 40
0
 41
0
  0
VERTEX
  8
0
 10
1.38873
 20
0.431369
 30
0.0
 40
0
 41
0
  0
VERTEX
  8
0
 10
1.37668
 20
0.426975
 30
0.0
 40
0
 41
0
  0
VERTEX
  8
0
 10
1.37126
 20
0.413792
 30
0.0
 40
0
 41
0
  0
VERTEX
  8
0
 10
1.37668
 20
0.400717
 30
0.0
 40
0
 41
0
  0
VERTEX
  8
0
 10
1.38873
 20
0.396322
 30
0.0
 40
0
 41
0
  0
VERTEX
  8
0
 10
1.40076
 20
0.400717
 30
0.0
 40
0
 41
0
  0
VERTEX
  8
0
 10
1.40625
 20
0.413792
 30
0.0
 40
0
 41
0
  0
SEQEND
 8
0
  0
POLYLINE
  8
0
 62
     173
 66
     1
 10
0
 20
0
 30
0.0
 70
     1
 40
0
 41
0
  0
VERTEX
  8
0
 10
1.40625
 20
0.313803
 30
0.0
 40
0
 41
0
  0
VERTEX
  8
0
 10
1.40076
 20
0.326932
 30
0.0
 40
0
 41
0
  0
VERTEX
  8
0
 10
1.38873
 20
0.331326
 30
0.0
 40
0
 41
0
  0
VERTEX
  8
0
 10
1.37668
 20
0.326932
 30
0.0
 40
0
 41
0
  0
VERTEX
  8
0
 10
1.37126
 20
0.313803
 30
0.0
 40
0
 41
0
  0
VERTEX
  8
0
 10
1.37668
 20
0.300726
 30
0.0
 40
0
 41
0
  0
VERTEX
  8
0
 10
1.38873
 20
0.296332
 30
0.0
 40
0
 41
0
  0
VERTEX
  8
0
 10
1.40076
 20
0.300726
 30
0.0
 40
0
 41
0
  0
VERTEX
  8
0
 10
1.40625
 20
0.313803
 30
0.0
 40
0
 41
0
  0
SEQEND
 8
0
  0
POLYLINE
  8
0
 62
     173
 66
     1
 10
0
 20
0
 30
0.0
 70
     1
 40
0
 41
0
  0
VERTEX
  8
0
 10
1.40625
 20
0.213812
 30
0.0
 40
0
 41
0
  0
VERTEX
  8
0
 10
1.40076
 20
0.226942
 30
0.0
 40
0
 41
0
  0
VERTEX
  8
0
 10
1.38873
 20
0.231337
 30
0.0
 40
0
 41
0
  0
VERTEX
  8
0
 10
1.37668
 20
0.226942
 30
0.0
 40
0
 41
0
  0
VERTEX
  8
0
 10
1.37126
 20
0.213812
 30
0.0
 40
0
 41
0
  0
VERTEX
  8
0
 10
1.37668
 20
0.200738
 30
0.0
 40
0
 41
0
  0
VERTEX
  8
0
 10
1.38873
 20
0.196343
 30
0.0
 40
0
 41
0
  0
VERTEX
  8
0
 10
1.40076
 20
0.200738
 30
0.0
 40
0
 41
0
  0
VERTEX
  8
0
 10
1.40625
 20
0.213812
 30
0.0
 40
0
 41
0
  0
SEQEND
 8
0
  0
POLYLINE
  8
0
 62
     173
 66
     1
 10
0
 20
0
 30
0.0
 70
     1
 40
0
 41
0
  0
VERTEX
  8
0
 10
1.50624
 20
0.463813
 30
0.0
 40
0
 41
0
  0
VERTEX
  8
0
 10
1.50076
 20
0.476942
 30
0.0
 40
0
 41
0
  0
VERTEX
  8
0
 10
1.48872
 20
0.481337
 30
0.0
 40
0
 41
0
  0
VERTEX
  8
0
 10
1.47667
 20
0.476942
 30
0.0
 40
0
 41
0
  0
VERTEX
  8
0
 10
1.47125
 20
0.463813
 30
0.0
 40
0
 41
0
  0
VERTEX
  8
0
 10
1.47667
 20
0.450737
 30
0.0
 40
0
 41
0
  0
VERTEX
  8
0
 10
1.48872
 20
0.446343
 30
0.0
 40
0
 41
0
  0
VERTEX
  8
0
 10
1.50076
 20
0.450737
 30
0.0
 40
0
 41
0
  0
VERTEX
  8
0
 10
1.50624
 20
0.463813
 30
0.0
 40
0
 41
0
  0
SEQEND
 8
0
  0
POLYLINE
  8
0
 62
     173
 66
     1
 10
0
 20
0
 30
0.0
 70
     1
 40
0
 41
0
  0
VERTEX
  8
0
 10
1.50624
 20
0.363824
 30
0.0
 40
0
 41
0
  0
VERTEX
  8
0
 10
1.50076
 20
0.376953
 30
0.0
 40
0
 41
0
  0
VERTEX
  8
0
 10
1.48872
 20
0.381347
 30
0.0
 40
0
 41
0
  0
VERTEX
  8
0
 10
1.47667
 20
0.376953
 30
0.0
 40
0
 41
0
  0
VERTEX
  8
0
 10
1.47125
 20
0.363824
 30
0.0
 40
0
 41
0
  0
VERTEX
  8
0
 10
1.47667
 20
0.350749
 30
0.0
 40
0
 41
0
  0
VERTEX
  8
0
 10
1.48872
 20
0.346354
 30
0.0
 40
0
 41
0
  0
VERTEX
  8
0
 10
1.50076
 20
0.350749
 30
0.0
 40
0
 41
0
  0
VERTEX
  8
0
 10
1.50624
 20
0.363824
 30
0.0
 40
0
 41
0
  0
SEQEND
 8
0
  0
POLYLINE
  8
0
 62
     173
 66
     1
 10
0
 20
0
 30
0.0
 70
     1
 40
0
 41
0
  0
VERTEX
  8
0
 10
1.50624
 20
0.263835
 30
0.0
 40
0
 41
0
  0
VERTEX
  8
0
 10
1.50076
 20
0.276964
 30
0.0
 40
0
 41
0
  0
VERTEX
  8
0
 10
1.48872
 20
0.281358
 30
0.0
 40
0
 41
0
  0
VERTEX
  8
0
 10
1.47667
 20
0.276964
 30
0.0
 40
0
 41
0
  0
VERTEX
  8
0
 10
1.47125
 20
0.263835
 30
0.0
 40
0
 41
0
  0
VERTEX
  8
0
 10
1.47667
 20
0.25076
 30
0.0
 40
0
 41
0
  0
VERTEX
  8
0
 10
1.48872
 20
0.246365
 30
0.0
 40
0
 41
0
  0
VERTEX
  8
0
 10
1.50076
 20
0.25076
 30
0.0
 40
0
 41
0
  0
VERTEX
  8
0
 10
1.50624
 20
0.263835
 30
0.0
 40
0
 41
0
  0
SEQEND
 8
0
  0
POLYLINE
  8
0
 62
     173
 66
     1
 10
0
 20
0
 30
0.0
 70
     1
 40
0
 41
0
  0
VERTEX
  8
0
 10
1.50624
 20
0.163792
 30
0.0
 40
0
 41
0
  0
VERTEX
  8
0
 10
1.50076
 20
0.176975
 30
0.0
 40
0
 41
0
  0
VERTEX
  8
0
 10
1.48872
 20
0.181369
 30
0.0
 40
0
 41
0
  0
VERTEX
  8
0
 10
1.47667
 20
0.176975
 30
0.0
 40
0
 41
0
  0
VERTEX
  8
0
 10
1.47125
 20
0.163792
 30
0.0
 40
0
 41
0
  0
VERTEX
  8
0
 10
1.47667
 20
0.150717
 30
0.0
 40
0
 41
0
  0
VERTEX
  8
0
 10
1.48872
 20
0.146322
 30
0.0
 40
0
 41
0
  0
VERTEX
  8
0
 10
1.50076
 20
0.150717
 30
0.0
 40
0
 41
0
  0
VERTEX
  8
0
 10
1.50624
 20
0.163792
 30
0.0
 40
0
 41
0
  0
SEQEND
 8
0
  0
POLYLINE
  8
0
 62
     173
 66
     1
 10
0
 20
0
 30
0.0
 70
     1
 40
0
 41
0
  0
VERTEX
  8
0
 10
1.59125
 20
1.72379
 30
0.0
 40
0
 41
0
  0
VERTEX
  8
0
 10
1.58578
 20
1.73693
 30
0.0
 40
0
 41
0
  0
VERTEX
  8
0
 10
1.57374
 20
1.74132
 30
0.0
 40
0
 41
0
  0
VERTEX
  8
0
 10
1.56168
 20
1.73693
 30
0.0
 40
0
 41
0
  0
VERTEX
  8
0
 10
1.55626
 20
1.72379
 30
0.0
 40
0
 41
0
  0
VERTEX
  8
0
 10
1.56168
 20
1.71072
 30
0.0
 40
0
 41
0
  0
VERTEX
  8
0
 10
1.57374
 20
1.70632
 30
0.0
 40
0
 41
0
  0
VERTEX
  8
0
 10
1.58578
 20
1.71072
 30
0.0
 40
0
 41
0
  0
VERTEX
  8
0
 10
1.59125
 20
1.72379
 30
0.0
 40
0
 41
0
  0
SEQEND
 8
0
  0
POLYLINE
  8
0
 62
     173
 66
     1
 10
0
 20
0
 30
0.0
 70
     1
 40
0
 41
0
  0
VERTEX
  8
0
 10
1.64128
 20
1.82383
 30
0.0
 40
0
 41
0
  0
VERTEX
  8
0
 10
1.63579
 20
1.83697
 30
0.0
 40
0
 41
0
  0
VERTEX
  8
0
 10
1.62375
 20
1.84136
 30
0.0
 40
0
 41
0
  0
VERTEX
  8
0
 10
1.61171
 20
1.83697
 30
0.0
 40
0
 41
0
  0
VERTEX
  8
0
 10
1.60628
 20
1.82383
 30
0.0
 40
0
 41
0
  0
VERTEX
  8
0
 10
1.61171
 20
1.81076
 30
0.0
 40
0
 41
0
  0
VERTEX
  8
0
 10
1.62375
 20
1.80638
 30
0.0
 40
0
 41
0
  0
VERTEX
  8
0
 10
1.63579
 20
1.81076
 30
0.0
 40
0
 41
0
  0
VERTEX
  8
0
 10
1.64128
 20
1.82383
 30
0.0
 40
0
 41
0
  0
SEQEND
 8
0
  0
POLYLINE
  8
0
 62
     173
 66
     1
 10
0
 20
0
 30
0.0
 70
     1
 40
0
 41
0
  0
VERTEX
  8
0
 10
1.69125
 20
1.72379
 30
0.0
 40
0
 41
0
  0
VERTEX
  8
0
 10
1.68576
 20
1.73693
 30
0.0
 40
0
 41
0
  0
VERTEX
  8
0
 10
1.67372
 20
1.74132
 30
0.0
 40
0
 41
0
  0
VERTEX
  8
0
 10
1.66168
 20
1.73693
 30
0.0
 40
0
 41
0
  0
VERTEX
  8
0
 10
1.65625
 20
1.72379
 30
0.0
 40
0
 41
0
  0
VERTEX
  8
0
 10
1.66168
 20
1.71072
 30
0.0
 40
0
 41
0
  0
VERTEX
  8
0
 10
1.67372
 20
1.70632
 30
0.0
 40
0
 41
0
  0
VERTEX
  8
0
 10
1.68576
 20
1.71072
 30
0.0
 40
0
 41
0
  0
VERTEX
  8
0
 10
1.69125
 20
1.72379
 30
0.0
 40
0
 41
0
  0
SEQEND
 8
0
  0
POLYLINE
  8
0
 62
     173
 66
     1
 10
0
 20
0
 30
0.0
 70
     1
 40
0
 41
0
  0
VERTEX
  8
0
 10
1.74126
 20
1.82383
 30
0.0
 40
0
 41
0
  0
VERTEX
  8
0
 10
1.73579
 20
1.83697
 30
0.0
 40
0
 41
0
  0
VERTEX
  8
0
 10
1.72374
 20
1.84136
 30
0.0
 40
0
 41
0
  0
VERTEX
  8
0
 10
1.71169
 20
1.83697
 30
0.0
 40
0
 41
0
  0
VERTEX
  8
0
 10
1.70628
 20
1.82383
 30
0.0
 40
0
 41
0
  0
VERTEX
  8
0
 10
1.71169
 20
1.81076
 30
0.0
 40
0
 41
0
  0
VERTEX
  8
0
 10
1.72374
 20
1.80638
 30
0.0
 40
0
 41
0
  0
VERTEX
  8
0
 10
1.73579
 20
1.81076
 30
0.0
 40
0
 41
0
  0
VERTEX
  8
0
 10
1.74126
 20
1.82383
 30
0.0
 40
0
 41
0
  0
SEQEND
 8
0
  0
POLYLINE
  8
0
 62
     173
 66
     1
 10
0
 20
0
 30
0.0
 70
     1
 40
0
 41
0
  0
VERTEX
  8
0
 10
1.79129
 20
1.72379
 30
0.0
 40
0
 41
0
  0
VERTEX
  8
0
 10
1.78581
 20
1.73693
 30
0.0
 40
0
 41
0
  0
VERTEX
  8
0
 10
1.77376
 20
1.74132
 30
0.0
 40
0
 41
0
  0
VERTEX
  8
0
 10
1.76167
 20
1.73693
 30
0.0
 40
0
 41
0
  0
VERTEX
  8
0
 10
1.75624
 20
1.72379
 30
0.0
 40
0
 41
0
  0
VERTEX
  8
0
 10
1.76167
 20
1.71072
 30
0.0
 40
0
 41
0
  0
VERTEX
  8
0
 10
1.77376
 20
1.70632
 30
0.0
 40
0
 41
0
  0
VERTEX
  8
0
 10
1.78581
 20
1.71072
 30
0.0
 40
0
 41
0
  0
VERTEX
  8
0
 10
1.79129
 20
1.72379
 30
0.0
 40
0
 41
0
  0
SEQEND
 8
0
  0
POLYLINE
  8
0
 62
     173
 66
     1
 10
0
 20
0
 30
0.0
 70
     1
 40
0
 41
0
  0
VERTEX
  8
0
 10
1.84125
 20
1.82383
 30
0.0
 40
0
 41
0
  0
VERTEX
  8
0
 10
1.83578
 20
1.83697
 30
0.0
 40
0
 41
0
  0
VERTEX
  8
0
 10
1.82374
 20
1.84136
 30
0.0
 40
0
 41
0
  0
VERTEX
  8
0
 10
1.81168
 20
1.83697
 30
0.0
 40
0
 41
0
  0
VERTEX
  8
0
 10
1.80626
 20
1.82383
 30
0.0
 40
0
 41
0
  0
VERTEX
  8
0
 10
1.81168
 20
1.81076
 30
0.0
 40
0
 41
0
  0
VERTEX
  8
0
 10
1.82374
 20
1.80638
 30
0.0
 40
0
 41
0
  0
VERTEX
  8
0
 10
1.83578
 20
1.81076
 30
0.0
 40
0
 41
0
  0
VERTEX
  8
0
 10
1.84125
 20
1.82383
 30
0.0
 40
0
 41
0
  0
SEQEND
 8
0
  0
POLYLINE
  8
0
 62
     173
 66
     1
 10
0
 20
0
 30
0.0
 70
     1
 40
0
 41
0
  0
VERTEX
  8
0
 10
1.89128
 20
1.72379
 30
0.0
 40
0
 41
0
  0
VERTEX
  8
0
 10
1.88579
 20
1.73693
 30
0.0
 40
0
 41
0
  0
VERTEX
  8
0
 10
1.87375
 20
1.74132
 30
0.0
 40
0
 41
0
  0
VERTEX
  8
0
 10
1.86171
 20
1.73693
 30
0.0
 40
0
 41
0
  0
VERTEX
  8
0
 10
1.85628
 20
1.72379
 30
0.0
 40
0
 41
0
  0
VERTEX
  8
0
 10
1.86171
 20
1.71072
 30
0.0
 40
0
 41
0
  0
VERTEX
  8
0
 10
1.87375
 20
1.70632
 30
0.0
 40
0
 41
0
  0
VERTEX
  8
0
 10
1.88579
 20
1.71072
 30
0.0
 40
0
 41
0
  0
VERTEX
  8
0
 10
1.89128
 20
1.72379
 30
0.0
 40
0
 41
0
  0
SEQEND
 8
0
  0
POLYLINE
  8
0
 62
     173
 66
     1
 10
0
 20
0
 30
0.0
 70
     1
 40
0
 41
0
  0
VERTEX
  8
0
 10
1.94125
 20
1.82383
 30
0.0
 40
0
 41
0
  0
VERTEX
  8
0
 10
1.93576
 20
1.83697
 30
0.0
 40
0
 41
0
  0
VERTEX
  8
0
 10
1.92372
 20
1.84136
 30
0.0
 40
0
 41
0
  0
VERTEX
  8
0
 10
1.91168
 20
1.83697
 30
0.0
 40
0
 41
0
  0
VERTEX
  8
0
 10
1.90625
 20
1.82383
 30
0.0
 40
0
 41
0
  0
VERTEX
  8
0
 10
1.91168
 20
1.81076
 30
0.0
 40
0
 41
0
  0
VERTEX
  8
0
 10
1.92372
 20
1.80638
 30
0.0
 40
0
 41
0
  0
VERTEX
  8
0
 10
1.93576
 20
1.81076
 30
0.0
 40
0
 41
0
  0
VERTEX
  8
0
 10
1.94125
 20
1.82383
 30
0.0
 40
0
 41
0
  0
SEQEND
 8
0
  0
POLYLINE
  8
0
 62
     173
 66
     1
 10
0
 20
0
 30
0.0
 70
     1
 40
0
 41
0
  0
VERTEX
  8
0
 10
2.31125
 20
1.72379
 30
0.0
 40
0
 41
0
  0
VERTEX
  8
0
 10
2.30578
 20
1.73693
 30
0.0
 40
0
 41
0
  0
VERTEX
  8
0
 10
2.29372
 20
1.74132
 30
0.0
 40
0
 41
0
  0
VERTEX
  8
0
 10
2.28168
 20
1.73693
 30
0.0
 40
0
 41
0
  0
VERTEX
  8
0
 10
2.27626
 20
1.72379
 30
0.0
 40
0
 41
0
  0
VERTEX
  8
0
 10
2.28168
 20
1.71072
 30
0.0
 40
0
 41
0
  0
VERTEX
  8
0
 10
2.29372
 20
1.70632
 30
0.0
 40
0
 41
0
  0
VERTEX
  8
0
 10
2.30578
 20
1.71072
 30
0.0
 40
0
 41
0
  0
VERTEX
  8
0
 10
2.31125
 20
1.72379
 30
0.0
 40
0
 41
0
  0
SEQEND
 8
0
  0
POLYLINE
  8
0
 62
     173
 66
     1
 10
0
 20
0
 30
0.0
 70
     1
 40
0
 41
0
  0
VERTEX
  8
0
 10
2.36128
 20
1.82383
 30
0.0
 40
0
 41
0
  0
VERTEX
  8
0
 10
2.35579
 20
1.83697
 30
0.0
 40
0
 41
0
  0
VERTEX
  8
0
 10
2.34375
 20
1.84136
 30
0.0
 40
0
 41
0
  0
VERTEX
  8
0
 10
2.33171
 20
1.83697
 30
0.0
 40
0
 41
0
  0
VERTEX
  8
0
 10
2.32628
 20
1.82383
 30
0.0
 40
0
 41
0
  0
VERTEX
  8
0
 10
2.33171
 20
1.81076
 30
0.0
 40
0
 41
0
  0
VERTEX
  8
0
 10
2.34375
 20
1.80638
 30
0.0
 40
0
 41
0
  0
VERTEX
  8
0
 10
2.35579
 20
1.81076
 30
0.0
 40
0
 41
0
  0
VERTEX
  8
0
 10
2.36128
 20
1.82383
 30
0.0
 40
0
 41
0
  0
SEQEND
 8
0
  0
POLYLINE
  8
0
 62
     173
 66
     1
 10
0
 20
0
 30
0.0
 70
     1
 40
0
 41
0
  0
VERTEX
  8
0
 10
2.41124
 20
1.72379
 30
0.0
 40
0
 41
0
  0
VERTEX
  8
0
 10
2.40576
 20
1.73693
 30
0.0
 40
0
 41
0
  0
VERTEX
  8
0
 10
2.39372
 20
1.74132
 30
0.0
 40
0
 41
0
  0
VERTEX
  8
0
 10
2.38167
 20
1.73693
 30
0.0
 40
0
 41
0
  0
VERTEX
  8
0
 10
2.37625
 20
1.72379
 30
0.0
 40
0
 41
0
  0
VERTEX
  8
0
 10
2.38167
 20
1.71072
 30
0.0
 40
0
 41
0
  0
VERTEX
  8
0
 10
2.39372
 20
1.70632
 30
0.0
 40
0
 41
0
  0
VERTEX
  8
0
 10
2.40576
 20
1.71072
 30
0.0
 40
0
 41
0
  0
VERTEX
  8
0
 10
2.41124
 20
1.72379
 30
0.0
 40
0
 41
0
  0
SEQEND
 8
0
  0
POLYLINE
  8
0
 62
     173
 66
     1
 10
0
 20
0
 30
0.0
 70
     1
 40
0
 41
0
  0
VERTEX
  8
0
 10
2.46126
 20
1.82383
 30
0.0
 40
0
 41
0
  0
VERTEX
  8
0
 10
2.45578
 20
1.83697
 30
0.0
 40
0
 41
0
  0
VERTEX
  8
0
 10
2.44374
 20
1.84136
 30
0.0
 40
0
 41
0
  0
VERTEX
  8
0
 10
2.43169
 20
1.83697
 30
0.0
 40
0
 41
0
  0
VERTEX
  8
0
 10
2.42626
 20
1.82383
 30
0.0
 40
0
 41
0
  0
VERTEX
  8
0
 10
2.43169
 20
1.81076
 30
0.0
 40
0
 41
0
  0
VERTEX
  8
0
 10
2.44374
 20
1.80638
 30
0.0
 40
0
 41
0
  0
VERTEX
  8
0
 10
2.45578
 20
1.81076
 30
0.0
 40
0
 41
0
  0
VERTEX
  8
0
 10
2.46126
 20
1.82383
 30
0.0
 40
0
 41
0
  0
SEQEND
 8
0
  0
POLYLINE
  8
0
 62
     173
 66
     1
 10
0
 20
0
 30
0.0
 70
     1
 40
0
 41
0
  0
VERTEX
  8
0
 10
2.51129
 20
1.72379
 30
0.0
 40
0
 41
0
  0
VERTEX
  8
0
 10
2.50581
 20
1.73693
 30
0.0
 40
0
 41
0
  0
VERTEX
  8
0
 10
2.49376
 20
1.74132
 30
0.0
 40
0
 41
0
  0
VERTEX
  8
0
 10
2.48167
 20
1.73693
 30
0.0
 40
0
 41
0
  0
VERTEX
  8
0
 10
2.47624
 20
1.72379
 30
0.0
 40
0
 41
0
  0
VERTEX
  8
0
 10
2.48167
 20
1.71072
 30
0.0
 40
0
 41
0
  0
VERTEX
  8
0
 10
2.49376
 20
1.70632
 30
0.0
 40
0
 41
0
  0
VERTEX
  8
0
 10
2.50581
 20
1.71072
 30
0.0
 40
0
 41
0
  0
VERTEX
  8
0
 10
2.51129
 20
1.72379
 30
0.0
 40
0
 41
0
  0
SEQEND
 8
0
  0
POLYLINE
  8
0
 62
     173
 66
     1
 10
0
 20
0
 30
0.0
 70
     1
 40
0
 41
0
  0
VERTEX
  8
0
 10
2.56125
 20
1.82383
 30
0.0
 40
0
 41
0
  0
VERTEX
  8
0
 10
2.55578
 20
1.83697
 30
0.0
 40
0
 41
0
  0
VERTEX
  8
0
 10
2.54372
 20
1.84136
 30
0.0
 40
0
 41
0
  0
VERTEX
  8
0
 10
2.53168
 20
1.83697
 30
0.0
 40
0
 41
0
  0
VERTEX
  8
0
 10
2.52626
 20
1.82383
 30
0.0
 40
0
 41
0
  0
VERTEX
  8
0
 10
2.53168
 20
1.81076
 30
0.0
 40
0
 41
0
  0
VERTEX
  8
0
 10
2.54372
 20
1.80638
 30
0.0
 40
0
 41
0
  0
VERTEX
  8
0
 10
2.55578
 20
1.81076
 30
0.0
 40
0
 41
0
  0
VERTEX
  8
0
 10
2.56125
 20
1.82383
 30
0.0
 40
0
 41
0
  0
SEQEND
 8
0
  0
POLYLINE
  8
0
 62
     173
 66
     1
 10
0
 20
0
 30
0.0
 70
     1
 40
0
 41
0
  0
VERTEX
  8
0
 10
2.61128
 20
1.72379
 30
0.0
 40
0
 41
0
  0
VERTEX
  8
0
 10
2.60579
 20
1.73693
 30
0.0
 40
0
 41
0
  0
VERTEX
  8
0
 10
2.59375
 20
1.74132
 30
0.0
 40
0
 41
0
  0
VERTEX
  8
0
 10
2.58171
 20
1.73693
 30
0.0
 40
0
 41
0
  0
VERTEX
  8
0
 10
2.57628
 20
1.72379
 30
0.0
 40
0
 41
0
  0
VERTEX
  8
0
 10
2.58171
 20
1.71072
 30
0.0
 40
0
 41
0
  0
VERTEX
  8
0
 10
2.59375
 20
1.70632
 30
0.0
 40
0
 41
0
  0
VERTEX
  8
0
 10
2.60579
 20
1.71072
 30
0.0
 40
0
 41
0
  0
VERTEX
  8
0
 10
2.61128
 20
1.72379
 30
0.0
 40
0
 41
0
  0
SEQEND
 8
0
  0
POLYLINE
  8
0
 62
     173
 66
     1
 10
0
 20
0
 30
0.0
 70
     1
 40
0
 41
0
  0
VERTEX
  8
0
 10
2.66124
 20
1.82383
 30
0.0
 40
0
 41
0
  0
VERTEX
  8
0
 10
2.65576
 20
1.83697
 30
0.0
 40
0
 41
0
  0
VERTEX
  8
0
 10
2.64372
 20
1.84136
 30
0.0
 40
0
 41
0
  0
VERTEX
  8
0
 10
2.63167
 20
1.83697
 30
0.0
 40
0
 41
0
  0
VERTEX
  8
0
 10
2.62625
 20
1.82383
 30
0.0
 40
0
 41
0
  0
VERTEX
  8
0
 10
2.63167
 20
1.81076
 30
0.0
 40
0
 41
0
  0
VERTEX
  8
0
 10
2.64372
 20
1.80638
 30
0.0
 40
0
 41
0
  0
VERTEX
  8
0
 10
2.65576
 20
1.81076
 30
0.0
 40
0
 41
0
  0
VERTEX
  8
0
 10
2.66124
 20
1.82383
 30
0.0
 40
0
 41
0
  0
SEQEND
 8
0
  0
POLYLINE
  8
0
 62
     173
 66
     1
 10
0
 20
0
 30
0.0
 70
     1
 40
0
 41
0
  0
VERTEX
  8
0
 10
0.587782
 20
1.0038
 30
0.0
 40
0
 41
0
  0
VERTEX
  8
0
 10
0.581814
 20
1.01807
 30
0.0
 40
0
 41
0
  0
VERTEX
  8
0
 10
0.568739
 20
1.02284
 30
0.0
 40
0
 41
0
  0
VERTEX
  8
0
 10
0.555664
 20
1.01807
 30
0.0
 40
0
 41
0
  0
VERTEX
  8
0
 10
0.54975
 20
1.0038
 30
0.0
 40
0
 41
0
  0
VERTEX
  8
0
 10
0.555664
 20
0.989583
 30
0.0
 40
0
 41
0
  0
VERTEX
  8
0
 10
0.568739
 20
0.98481
 30
0.0
 40
0
 41
0
  0
VERTEX
  8
0
 10
0.581814
 20
0.989583
 30
0.0
 40
0
 41
0
  0
VERTEX
  8
0
 10
0.587782
 20
1.0038
 30
0.0
 40
0
 41
0
  0
SEQEND
 8
0
  0
POLYLINE
  8
0
 62
     173
 66
     1
 10
0
 20
0
 30
0.0
 70
     1
 40
0
 41
0
  0
VERTEX
  8
0
 10
0.587782
 20
0.903808
 30
0.0
 40
0
 41
0
  0
VERTEX
  8
0
 10
0.581814
 20
0.918078
 30
0.0
 40
0
 41
0
  0
VERTEX
  8
0
 10
0.568739
 20
0.922851
 30
0.0
 40
0
 41
0
  0
VERTEX
  8
0
 10
0.555664
 20
0.918078
 30
0.0
 40
0
 41
0
  0
VERTEX
  8
0
 10
0.54975
 20
0.903808
 30
0.0
 40
0
 41
0
  0
VERTEX
  8
0
 10
0.555664
 20
0.889594
 30
0.0
 40
0
 41
0
  0
VERTEX
  8
0
 10
0.568739
 20
0.884819
 30
0.0
 40
0
 41
0
  0
VERTEX
  8
0
 10
0.581814
 20
0.889594
 30
0.0
 40
0
 41
0
  0
VERTEX
  8
0
 10
0.587782
 20
0.903808
 30
0.0
 40
0
 41
0
  0
SEQEND
 8
0
  0
POLYLINE
  8
0
 62
     173
 66
     1
 10
0
 20
0
 30
0.0
 70
     1
 40
0
 41
0
  0
VERTEX
  8
0
 10
0.687771
 20
1.0038
 30
0.0
 40
0
 41
0
  0
VERTEX
  8
0
 10
0.681803
 20
1.01807
 30
0.0
 40
0
 41
0
  0
VERTEX
  8
0
 10
0.668728
 20
1.02284
 30
0.0
 40
0
 41
0
  0
VERTEX
  8
0
 10
0.655653
 20
1.01807
 30
0.0
 40
0
 41
0
  0
VERTEX
  8
0
 10
0.64974
 20
1.0038
 30
0.0
 40
0
 41
0
  0
VERTEX
  8
0
 10
0.655653
 20
0.989583
 30
0.0
 40
0
 41
0
  0
VERTEX
  8
0
 10
0.668728
 20
0.98481
 30
0.0
 40
0
 41
0
  0
VERTEX
  8
0
 10
0.681803
 20
0.989583
 30
0.0
 40
0
 41
0
  0
VERTEX
  8
0
 10
0.687771
 20
1.0038
 30
0.0
 40
0
 41
0
  0
SEQEND
 8
0
  0
POLYLINE
  8
0
 62
     173
 66
     1
 10
0
 20
0
 30
0.0
 70
     1
 40
0
 41
0
  0
VERTEX
  8
0
 10
0.687771
 20
0.903808
 30
0.0
 40
0
 41
0
  0
VERTEX
  8
0
 10
0.681803
 20
0.918078
 30
0.0
 40
0
 41
0
  0
VERTEX
  8
0
 10
0.668728
 20
0.922851
 30
0.0
 40
0
 41
0
  0
VERTEX
  8
0
 10
0.655653
 20
0.918078
 30
0.0
 40
0
 41
0
  0
VERTEX
  8
0
 10
0.64974
 20
0.903808
 30
0.0
 40
0
 41
0
  0
VERTEX
  8
0
 10
0.655653
 20
0.889594
 30
0.0
 40
0
 41
0
  0
VERTEX
  8
0
 10
0.668728
 20
0.884819
 30
0.0
 40
0
 41
0
  0
VERTEX
  8
0
 10
0.681803
 20
0.889594
 30
0.0
 40
0
 41
0
  0
VERTEX
  8
0
 10
0.687771
 20
0.903808
 30
0.0
 40
0
 41
0
  0
SEQEND
 8
0
  0
POLYLINE
  8
0
 62
     173
 66
     1
 10
0
 20
0
 30
0.0
 70
     1
 40
0
 41
0
  0
VERTEX
  8
0
 10
0.752767
 20
1.56381
 30
0.0
 40
0
 41
0
  0
VERTEX
  8
0
 10
0.746799
 20
1.57807
 30
0.0
 40
0
 41
0
  0
VERTEX
  8
0
 10
0.733724
 20
1.58285
 30
0.0
 40
0
 41
0
  0
VERTEX
  8
0
 10
0.720649
 20
1.57807
 30
0.0
 40
0
 41
0
  0
VERTEX
  8
0
 10
0.714735
 20
1.56381
 30
0.0
 40
0
 41
0
  0
VERTEX
  8
0
 10
0.720649
 20
1.54958
 30
0.0
 40
0
 41
0
  0
VERTEX
  8
0
 10
0.733724
 20
1.54482
 30
0.0
 40
0
 41
0
  0
VERTEX
  8
0
 10
0.746799
 20
1.54958
 30
0.0
 40
0
 41
0
  0
VERTEX
  8
0
 10
0.752767
 20
1.56381
 30
0.0
 40
0
 41
0
  0
SEQEND
 8
0
  0
POLYLINE
  8
0
 62
     173
 66
     1
 10
0
 20
0
 30
0.0
 70
     1
 40
0
 41
0
  0
VERTEX
  8
0
 10
0.752767
 20
1.26883
 30
0.0
 40
0
 41
0
  0
VERTEX
  8
0
 10
0.746799
 20
1.28309
 30
0.0
 40
0
 41
0
  0
VERTEX
  8
0
 10
0.733724
 20
1.28787
 30
0.0
 40
0
 41
0
  0
VERTEX
  8
0
 10
0.720649
 20
1.28309
 30
0.0
 40
0
 41
0
  0
VERTEX
  8
0
 10
0.714735
 20
1.26883
 30
0.0
 40
0
 41
0
  0
VERTEX
  8
0
 10
0.720649
 20
1.25461
 30
0.0
 40
0
 41
0
  0
VERTEX
  8
0
 10
0.733724
 20
1.24984
 30
0.0
 40
0
 41
0
  0
VERTEX
  8
0
 10
0.746799
 20
1.25461
 30
0.0
 40
0
 41
0
  0
VERTEX
  8
0
 10
0.752767
 20
1.26883
 30
0.0
 40
0
 41
0
  0
SEQEND
 8
0
  0
POLYLINE
  8
0
 62
     173
 66
     1
 10
0
 20
0
 30
0.0
 70
     1
 40
0
 41
0
  0
VERTEX
  8
0
 10
0.787761
 20
1.0038
 30
0.0
 40
0
 41
0
  0
VERTEX
  8
0
 10
0.781793
 20
1.01807
 30
0.0
 40
0
 41
0
  0
VERTEX
  8
0
 10
0.768772
 20
1.02284
 30
0.0
 40
0
 41
0
  0
VERTEX
  8
0
 10
0.755697
 20
1.01807
 30
0.0
 40
0
 41
0
  0
VERTEX
  8
0
 10
0.749783
 20
1.0038
 30
0.0
 40
0
 41
0
  0
VERTEX
  8
0
 10
0.755697
 20
0.989583
 30
0.0
 40
0
 41
0
  0
VERTEX
  8
0
 10
0.768772
 20
0.98481
 30
0.0
 40
0
 41
0
  0
VERTEX
  8
0
 10
0.781793
 20
0.989583
 30
0.0
 40
0
 41
0
  0
VERTEX
  8
0
 10
0.787761
 20
1.0038
 30
0.0
 40
0
 41
0
  0
SEQEND
 8
0
  0
POLYLINE
  8
0
 62
     173
 66
     1
 10
0
 20
0
 30
0.0
 70
     1
 40
0
 41
0
  0
VERTEX
  8
0
 10
0.787761
 20
0.903808
 30
0.0
 40
0
 41
0
  0
VERTEX
  8
0
 10
0.781793
 20
0.918078
 30
0.0
 40
0
 41
0
  0
VERTEX
  8
0
 10
0.768772
 20
0.922851
 30
0.0
 40
0
 41
0
  0
VERTEX
  8
0
 10
0.755697
 20
0.918078
 30
0.0
 40
0
 41
0
  0
VERTEX
  8
0
 10
0.749783
 20
0.903808
 30
0.0
 40
0
 41
0
  0
VERTEX
  8
0
 10
0.755697
 20
0.889594
 30
0.0
 40
0
 41
0
  0
VERTEX
  8
0
 10
0.768772
 20
0.884819
 30
0.0
 40
0
 41
0
  0
VERTEX
  8
0
 10
0.781793
 20
0.889594
 30
0.0
 40
0
 41
0
  0
VERTEX
  8
0
 10
0.787761
 20
0.903808
 30
0.0
 40
0
 41
0
  0
SEQEND
 8
0
  0
POLYLINE
  8
0
 62
     173
 66
     1
 10
0
 20
0
 30
0.0
 70
     1
 40
0
 41
0
  0
VERTEX
  8
0
 10
0.787978
 20
0.640028
 30
0.0
 40
0
 41
0
  0
VERTEX
  8
0
 10
0.78201
 20
0.654297
 30
0.0
 40
0
 41
0
  0
VERTEX
  8
0
 10
0.768935
 20
0.659071
 30
0.0
 40
0
 41
0
  0
VERTEX
  8
0
 10
0.75586
 20
0.654297
 30
0.0
 40
0
 41
0
  0
VERTEX
  8
0
 10
0.749946
 20
0.640028
 30
0.0
 40
0
 41
0
  0
VERTEX
  8
0
 10
0.75586
 20
0.625814
 30
0.0
 40
0
 41
0
  0
VERTEX
  8
0
 10
0.768935
 20
0.621039
 30
0.0
 40
0
 41
0
  0
VERTEX
  8
0
 10
0.78201
 20
0.625814
 30
0.0
 40
0
 41
0
  0
VERTEX
  8
0
 10
0.787978
 20
0.640028
 30
0.0
 40
0
 41
0
  0
SEQEND
 8
0
  0
POLYLINE
  8
0
 62
     173
 66
     1
 10
0
 20
0
 30
0.0
 70
     1
 40
0
 41
0
  0
VERTEX
  8
0
 10
0.787978
 20
0.540039
 30
0.0
 40
0
 41
0
  0
VERTEX
  8
0
 10
0.78201
 20
0.554308
 30
0.0
 40
0
 41
0
  0
VERTEX
  8
0
 10
0.768935
 20
0.559082
 30
0.0
 40
0
 41
0
  0
VERTEX
  8
0
 10
0.75586
 20
0.554308
 30
0.0
 40
0
 41
0
  0
VERTEX
  8
0
 10
0.749946
 20
0.540039
 30
0.0
 40
0
 41
0
  0
VERTEX
  8
0
 10
0.75586
 20
0.525825
 30
0.0
 40
0
 41
0
  0
VERTEX
  8
0
 10
0.768935
 20
0.52105
 30
0.0
 40
0
 41
0
  0
VERTEX
  8
0
 10
0.78201
 20
0.525825
 30
0.0
 40
0
 41
0
  0
VERTEX
  8
0
 10
0.787978
 20
0.540039
 30
0.0
 40
0
 41
0
  0
SEQEND
 8
0
  0
POLYLINE
  8
0
 62
     173
 66
     1
 10
0
 20
0
 30
0.0
 70
     1
 40
0
 41
0
  0
VERTEX
  8
0
 10
0.787978
 20
0.439996
 30
0.0
 40
0
 41
0
  0
VERTEX
  8
0
 10
0.78201
 20
0.454264
 30
0.0
 40
0
 41
0
  0
VERTEX
  8
0
 10
0.768935
 20
0.459039
 30
0.0
 40
0
 41
0
  0
VERTEX
  8
0
 10
0.75586
 20
0.454264
 30
0.0
 40
0
 41
0
  0
VERTEX
  8
0
 10
0.749946
 20
0.439996
 30
0.0
 40
0
 41
0
  0
VERTEX
  8
0
 10
0.75586
 20
0.425782
 30
0.0
 40
0
 41
0
  0
VERTEX
  8
0
 10
0.768935
 20
0.421007
 30
0.0
 40
0
 41
0
  0
VERTEX
  8
0
 10
0.78201
 20
0.425782
 30
0.0
 40
0
 41
0
  0
VERTEX
  8
0
 10
0.787978
 20
0.439996
 30
0.0
 40
0
 41
0
  0
SEQEND
 8
0
  0
POLYLINE
  8
0
 62
     173
 66
     1
 10
0
 20
0
 30
0.0
 70
     1
 40
0
 41
0
  0
VERTEX
  8
0
 10
0.787978
 20
0.340007
 30
0.0
 40
0
 41
0
  0
VERTEX
  8
0
 10
0.78201
 20
0.354275
 30
0.0
 40
0
 41
0
  0
VERTEX
  8
0
 10
0.768935
 20
0.35905
 30
0.0
 40
0
 41
0
  0
VERTEX
  8
0
 10
0.75586
 20
0.354275
 30
0.0
 40
0
 41
0
  0
VERTEX
  8
0
 10
0.749946
 20
0.340007
 30
0.0
 40
0
 41
0
  0
VERTEX
  8
0
 10
0.75586
 20
0.325792
 30
0.0
 40
0
 41
0
  0
VERTEX
  8
0
 10
0.768935
 20
0.321018
 30
0.0
 40
0
 41
0
  0
VERTEX
  8
0
 10
0.78201
 20
0.325792
 30
0.0
 40
0
 41
0
  0
VERTEX
  8
0
 10
0.787978
 20
0.340007
 30
0.0
 40
0
 41
0
  0
SEQEND
 8
0
  0
POLYLINE
  8
0
 62
     173
 66
     1
 10
0
 20
0
 30
0.0
 70
     1
 40
0
 41
0
  0
VERTEX
  8
0
 10
0.787978
 20
0.240018
 30
0.0
 40
0
 41
0
  0
VERTEX
  8
0
 10
0.78201
 20
0.254286
 30
0.0
 40
0
 41
0
  0
VERTEX
  8
0
 10
0.768935
 20
0.25906
 30
0.0
 40
0
 41
0
  0
VERTEX
  8
0
 10
0.75586
 20
0.254286
 30
0.0
 40
0
 41
0
  0
VERTEX
  8
0
 10
0.749946
 20
0.240018
 30
0.0
 40
0
 41
0
  0
VERTEX
  8
0
 10
0.75586
 20
0.225803
 30
0.0
 40
0
 41
0
  0
VERTEX
  8
0
 10
0.768935
 20
0.221029
 30
0.0
 40
0
 41
0
  0
VERTEX
  8
0
 10
0.78201
 20
0.225803
 30
0.0
 40
0
 41
0
  0
VERTEX
  8
0
 10
0.787978
 20
0.240018
 30
0.0
 40
0
 41
0
  0
SEQEND
 8
0
  0
POLYLINE
  8
0
 62
     173
 66
     1
 10
0
 20
0
 30
0.0
 70
     1
 40
0
 41
0
  0
VERTEX
  8
0
 10
0.852756
 20
1.56381
 30
0.0
 40
0
 41
0
  0
VERTEX
  8
0
 10
0.846789
 20
1.57807
 30
0.0
 40
0
 41
0
  0
VERTEX
  8
0
 10
0.833768
 20
1.58285
 30
0.0
 40
0
 41
0
  0
VERTEX
  8
0
 10
0.820692
 20
1.57807
 30
0.0
 40
0
 41
0
  0
VERTEX
  8
0
 10
0.814779
 20
1.56381
 30
0.0
 40
0
 41
0
  0
VERTEX
  8
0
 10
0.820692
 20
1.54958
 30
0.0
 40
0
 41
0
  0
VERTEX
  8
0
 10
0.833768
 20
1.54482
 30
0.0
 40
0
 41
0
  0
VERTEX
  8
0
 10
0.846789
 20
1.54958
 30
0.0
 40
0
 41
0
  0
VERTEX
  8
0
 10
0.852756
 20
1.56381
 30
0.0
 40
0
 41
0
  0
SEQEND
 8
0
  0
POLYLINE
  8
0
 62
     173
 66
     1
 10
0
 20
0
 30
0.0
 70
     1
 40
0
 41
0
  0
VERTEX
  8
0
 10
0.852756
 20
1.26883
 30
0.0
 40
0
 41
0
  0
VERTEX
  8
0
 10
0.846789
 20
1.28309
 30
0.0
 40
0
 41
0
  0
VERTEX
  8
0
 10
0.833768
 20
1.28787
 30
0.0
 40
0
 41
0
  0
VERTEX
  8
0
 10
0.820692
 20
1.28309
 30
0.0
 40
0
 41
0
  0
VERTEX
  8
0
 10
0.814779
 20
1.26883
 30
0.0
 40
0
 41
0
  0
VERTEX
  8
0
 10
0.820692
 20
1.25461
 30
0.0
 40
0
 41
0
  0
VERTEX
  8
0
 10
0.833768
 20
1.24984
 30
0.0
 40
0
 41
0
  0
VERTEX
  8
0
 10
0.846789
 20
1.25461
 30
0.0
 40
0
 41
0
  0
VERTEX
  8
0
 10
0.852756
 20
1.26883
 30
0.0
 40
0
 41
0
  0
SEQEND
 8
0
  0
POLYLINE
  8
0
 62
     173
 66
     1
 10
0
 20
0
 30
0.0
 70
     1
 40
0
 41
0
  0
VERTEX
  8
0
 10
0.887967
 20
0.640028
 30
0.0
 40
0
 41
0
  0
VERTEX
  8
0
 10
0.881999
 20
0.654297
 30
0.0
 40
0
 41
0
  0
VERTEX
  8
0
 10
0.868924
 20
0.659071
 30
0.0
 40
0
 41
0
  0
VERTEX
  8
0
 10
0.855849
 20
0.654297
 30
0.0
 40
0
 41
0
  0
VERTEX
  8
0
 10
0.849935
 20
0.640028
 30
0.0
 40
0
 41
0
  0
VERTEX
  8
0
 10
0.855849
 20
0.625814
 30
0.0
 40
0
 41
0
  0
VERTEX
  8
0
 10
0.868924
 20
0.621039
 30
0.0
 40
0
 41
0
  0
VERTEX
  8
0
 10
0.881999
 20
0.625814
 30
0.0
 40
0
 41
0
  0
VERTEX
  8
0
 10
0.887967
 20
0.640028
 30
0.0
 40
0
 41
0
  0
SEQEND
 8
0
  0
POLYLINE
  8
0
 62
     173
 66
     1
 10
0
 20
0
 30
0.0
 70
     1
 40
0
 41
0
  0
VERTEX
  8
0
 10
0.887967
 20
0.540039
 30
0.0
 40
0
 41
0
  0
VERTEX
  8
0
 10
0.881999
 20
0.554308
 30
0.0
 40
0
 41
0
  0
VERTEX
  8
0
 10
0.868924
 20
0.559082
 30
0.0
 40
0
 41
0
  0
VERTEX
  8
0
 10
0.855849
 20
0.554308
 30
0.0
 40
0
 41
0
  0
VERTEX
  8
0
 10
0.849935
 20
0.540039
 30
0.0
 40
0
 41
0
  0
VERTEX
  8
0
 10
0.855849
 20
0.525825
 30
0.0
 40
0
 41
0
  0
VERTEX
  8
0
 10
0.868924
 20
0.52105
 30
0.0
 40
0
 41
0
  0
VERTEX
  8
0
 10
0.881999
 20
0.525825
 30
0.0
 40
0
 41
0
  0
VERTEX
  8
0
 10
0.887967
 20
0.540039
 30
0.0
 40
0
 41
0
  0
SEQEND
 8
0
  0
POLYLINE
  8
0
 62
     173
 66
     1
 10
0
 20
0
 30
0.0
 70
     1
 40
0
 41
0
  0
VERTEX
  8
0
 10
0.887967
 20
0.439996
 30
0.0
 40
0
 41
0
  0
VERTEX
  8
0
 10
0.881999
 20
0.454264
 30
0.0
 40
0
 41
0
  0
VERTEX
  8
0
 10
0.868924
 20
0.459039
 30
0.0
 40
0
 41
0
  0
VERTEX
  8
0
 10
0.855849
 20
0.454264
 30
0.0
 40
0
 41
0
  0
VERTEX
  8
0
 10
0.849935
 20
0.439996
 30
0.0
 40
0
 41
0
  0
VERTEX
  8
0
 10
0.855849
 20
0.425782
 30
0.0
 40
0
 41
0
  0
VERTEX
  8
0
 10
0.868924
 20
0.421007
 30
0.0
 40
0
 41
0
  0
VERTEX
  8
0
 10
0.881999
 20
0.425782
 30
0.0
 40
0
 41
0
  0
VERTEX
  8
0
 10
0.887967
 20
0.439996
 30
0.0
 40
0
 41
0
  0
SEQEND
 8
0
  0
POLYLINE
  8
0
 62
     173
 66
     1
 10
0
 20
0
 30
0.0
 70
     1
 40
0
 41
0
  0
VERTEX
  8
0
 10
0.887967
 20
0.340007
 30
0.0
 40
0
 41
0
  0
VERTEX
  8
0
 10
0.881999
 20
0.354275
 30
0.0
 40
0
 41
0
  0
VERTEX
  8
0
 10
0.868924
 20
0.35905
 30
0.0
 40
0
 41
0
  0
VERTEX
  8
0
 10
0.855849
 20
0.354275
 30
0.0
 40
0
 41
0
  0
VERTEX
  8
0
 10
0.849935
 20
0.340007
 30
0.0
 40
0
 41
0
  0
VERTEX
  8
0
 10
0.855849
 20
0.325792
 30
0.0
 40
0
 41
0
  0
VERTEX
  8
0
 10
0.868924
 20
0.321018
 30
0.0
 40
0
 41
0
  0
VERTEX
  8
0
 10
0.881999
 20
0.325792
 30
0.0
 40
0
 41
0
  0
VERTEX
  8
0
 10
0.887967
 20
0.340007
 30
0.0
 40
0
 41
0
  0
SEQEND
 8
0
  0
POLYLINE
  8
0
 62
     173
 66
     1
 10
0
 20
0
 30
0.0
 70
     1
 40
0
 41
0
  0
VERTEX
  8
0
 10
0.887967
 20
0.240018
 30
0.0
 40
0
 41
0
  0
VERTEX
  8
0
 10
0.881999
 20
0.254286
 30
0.0
 40
0
 41
0
  0
VERTEX
  8
0
 10
0.868924
 20
0.25906
 30
0.0
 40
0
 41
0
  0
VERTEX
  8
0
 10
0.855849
 20
0.254286
 30
0.0
 40
0
 41
0
  0
VERTEX
  8
0
 10
0.849935
 20
0.240018
 30
0.0
 40
0
 41
0
  0
VERTEX
  8
0
 10
0.855849
 20
0.225803
 30
0.0
 40
0
 41
0
  0
VERTEX
  8
0
 10
0.868924
 20
0.221029
 30
0.0
 40
0
 41
0
  0
VERTEX
  8
0
 10
0.881999
 20
0.225803
 30
0.0
 40
0
 41
0
  0
VERTEX
  8
0
 10
0.887967
 20
0.240018
 30
0.0
 40
0
 41
0
  0
SEQEND
 8
0
  0
POLYLINE
  8
0
 62
     173
 66
     1
 10
0
 20
0
 30
0.0
 70
     1
 40
0
 41
0
  0
VERTEX
  8
0
 10
0.998481
 20
0.600043
 30
0.0
 40
0
 41
0
  0
VERTEX
  8
0
 10
0.99235
 20
0.614692
 30
0.0
 40
0
 41
0
  0
VERTEX
  8
0
 10
0.97895
 20
0.619575
 30
0.0
 40
0
 41
0
  0
VERTEX
  8
0
 10
0.965549
 20
0.614692
 30
0.0
 40
0
 41
0
  0
VERTEX
  8
0
 10
0.959472
 20
0.600043
 30
0.0
 40
0
 41
0
  0
VERTEX
  8
0
 10
0.965549
 20
0.585394
 30
0.0
 40
0
 41
0
  0
VERTEX
  8
0
 10
0.97895
 20
0.580513
 30
0.0
 40
0
 41
0
  0
VERTEX
  8
0
 10
0.99235
 20
0.585394
 30
0.0
 40
0
 41
0
  0
VERTEX
  8
0
 10
0.998481
 20
0.600043
 30
0.0
 40
0
 41
0
  0
SEQEND
 8
0
  0
POLYLINE
  8
0
 62
     173
 66
     1
 10
0
 20
0
 30
0.0
 70
     1
 40
0
 41
0
  0
VERTEX
  8
0
 10
0.998481
 20
0.5
 30
0.0
 40
0
 41
0
  0
VERTEX
  8
0
 10
0.99235
 20
0.514649
 30
0.0
 40
0
 41
0
  0
VERTEX
  8
0
 10
0.97895
 20
0.519532
 30
0.0
 40
0
 41
0
  0
VERTEX
  8
0
 10
0.965549
 20
0.514649
 30
0.0
 40
0
 41
0
  0
VERTEX
  8
0
 10
0.959472
 20
0.5
 30
0.0
 40
0
 41
0
  0
VERTEX
  8
0
 10
0.965549
 20
0.485406
 30
0.0
 40
0
 41
0
  0
VERTEX
  8
0
 10
0.97895
 20
0.480524
 30
0.0
 40
0
 41
0
  0
VERTEX
  8
0
 10
0.99235
 20
0.485406
 30
0.0
 40
0
 41
0
  0
VERTEX
  8
0
 10
0.998481
 20
0.5
 30
0.0
 40
0
 41
0
  0
SEQEND
 8
0
  0
POLYLINE
  8
0
 62
     173
 66
     1
 10
0
 20
0
 30
0.0
 70
     1
 40
0
 41
0
  0
VERTEX
  8
0
 10
0.998481
 20
0.178006
 30
0.0
 40
0
 41
0
  0
VERTEX
  8
0
 10
0.99235
 20
0.192654
 30
0.0
 40
0
 41
0
  0
VERTEX
  8
0
 10
0.97895
 20
0.197538
 30
0.0
 40
0
 41
0
  0
VERTEX
  8
0
 10
0.965549
 20
0.192654
 30
0.0
 40
0
 41
0
  0
VERTEX
  8
0
 10
0.959472
 20
0.178006
 30
0.0
 40
0
 41
0
  0
VERTEX
  8
0
 10
0.965549
 20
0.163411
 30
0.0
 40
0
 41
0
  0
VERTEX
  8
0
 10
0.97895
 20
0.158529
 30
0.0
 40
0
 41
0
  0
VERTEX
  8
0
 10
0.99235
 20
0.163411
 30
0.0
 40
0
 41
0
  0
VERTEX
  8
0
 10
0.998481
 20
0.178006
 30
0.0
 40
0
 41
0
  0
SEQEND
 8
0
  0
POLYLINE
  8
0
 62
     173
 66
     1
 10
0
 20
0
 30
0.0
 70
     1
 40
0
 41
0
  0
VERTEX
  8
0
 10
0.998481
 20
0.0780165
 30
0.0
 40
0
 41
0
  0
VERTEX
  8
0
 10
0.99235
 20
0.092665
 30
0.0
 40
0
 41
0
  0
VERTEX
  8
0
 10
0.97895
 20
0.0975478
 30
0.0
 40
0
 41
0
  0
VERTEX
  8
0
 10
0.965549
 20
0.092665
 30
0.0
 40
0
 41
0
  0
VERTEX
  8
0
 10
0.959472
 20
0.0780165
 30
0.0
 40
0
 41
0
  0
VERTEX
  8
0
 10
0.965549
 20
0.0634224
 30
0.0
 40
0
 41
0
  0
VERTEX
  8
0
 10
0.97895
 20
0.0585394
 30
0.0
 40
0
 41
0
  0
VERTEX
  8
0
 10
0.99235
 20
0.0634224
 30
0.0
 40
0
 41
0
  0
VERTEX
  8
0
 10
0.998481
 20
0.0780165
 30
0.0
 40
0
 41
0
  0
SEQEND
 8
0
  0
POLYLINE
  8
0
 62
     173
 66
     1
 10
0
 20
0
 30
0.0
 70
     1
 40
0
 41
0
  0
VERTEX
  8
0
 10
1.63374
 20
1.36882
 30
0.0
 40
0
 41
0
  0
VERTEX
  8
0
 10
1.62592
 20
1.38759
 30
0.0
 40
0
 41
0
  0
VERTEX
  8
0
 10
1.60872
 20
1.39382
 30
0.0
 40
0
 41
0
  0
VERTEX
  8
0
 10
1.59153
 20
1.38759
 30
0.0
 40
0
 41
0
  0
VERTEX
  8
0
 10
1.58376
 20
1.36882
 30
0.0
 40
0
 41
0
  0
VERTEX
  8
0
 10
1.59153
 20
1.3501
 30
0.0
 40
0
 41
0
  0
VERTEX
  8
0
 10
1.60872
 20
1.34386
 30
0.0
 40
0
 41
0
  0
VERTEX
  8
0
 10
1.62592
 20
1.3501
 30
0.0
 40
0
 41
0
  0
VERTEX
  8
0
 10
1.63374
 20
1.36882
 30
0.0
 40
0
 41
0
  0
SEQEND
 8
0
  0
POLYLINE
  8
0
 62
     173
 66
     1
 10
0
 20
0
 30
0.0
 70
     1
 40
0
 41
0
  0
VERTEX
  8
0
 10
2.49875
 20
1.43881
 30
0.0
 40
0
 41
0
  0
VERTEX
  8
0
 10
2.49094
 20
1.45757
 30
0.0
 40
0
 41
0
  0
VERTEX
  8
0
 10
2.47374
 20
1.46386
 30
0.0
 40
0
 41
0
  0
VERTEX
  8
0
 10
2.45654
 20
1.45757
 30
0.0
 40
0
 41
0
  0
VERTEX
  8
0
 10
2.44879
 20
1.43881
 30
0.0
 40
0
 41
0
  0
VERTEX
  8
0
 10
2.45654
 20
1.42008
 30
0.0
 40
0
 41
0
  0
VERTEX
  8
0
 10
2.47374
 20
1.41385
 30
0.0
 40
0
 41
0
  0
VERTEX
  8
0
 10
2.49094
 20
1.42008
 30
0.0
 40
0
 41
0
  0
VERTEX
  8
0
 10
2.49875
 20
1.43881
 30
0.0
 40
0
 41
0
  0
SEQEND
 8
0
  0
POLYLINE
  8
0
 62
     173
 66
     1
 10
0
 20
0
 30
0.0
 70
     1
 40
0
 41
0
  0
VERTEX
  8
0
 10
2.64378
 20
1.05382
 30
0.0
 40
0
 41
0
  0
VERTEX
  8
0
 10
2.6359
 20
1.07259
 30
0.0
 40
0
 41
0
  0
VERTEX
  8
0
 10
2.61876
 20
1.07883
 30
0.0
 40
0
 41
0
  0
VERTEX
  8
0
 10
2.60157
 20
1.07259
 30
0.0
 40
0
 41
0
  0
VERTEX
  8
0
 10
2.59375
 20
1.05382
 30
0.0
 40
0
 41
0
  0
VERTEX
  8
0
 10
2.60157
 20
1.0351
 30
0.0
 40
0
 41
0
  0
VERTEX
  8
0
 10
2.61876
 20
1.02886
 30
0.0
 40
0
 41
0
  0
VERTEX
  8
0
 10
2.6359
 20
1.0351
 30
0.0
 40
0
 41
0
  0
VERTEX
  8
0
 10
2.64378
 20
1.05382
 30
0.0
 40
0
 41
0
  0
SEQEND
 8
0
  0
POLYLINE
  8
0
 62
     173
 66
     1
 10
0
 20
0
 30
0.0
 70
     1
 40
0
 41
0
  0
VERTEX
  8
0
 10
0.750651
 20
2.1939
 30
0.0
 40
0
 41
0
  0
VERTEX
  8
0
 10
0.740776
 20
2.21756
 30
0.0
 40
0
 41
0
  0
VERTEX
  8
0
 10
0.719129
 20
2.22542
 30
0.0
 40
0
 41
0
  0
VERTEX
  8
0
 10
0.697483
 20
2.21756
 30
0.0
 40
0
 41
0
  0
VERTEX
  8
0
 10
0.687663
 20
2.1939
 30
0.0
 40
0
 41
0
  0
VERTEX
  8
0
 10
0.697483
 20
2.17031
 30
0.0
 40
0
 41
0
  0
VERTEX
  8
0
 10
0.719129
 20
2.16243
 30
0.0
 40
0
 41
0
  0
VERTEX
  8
0
 10
0.740776
 20
2.17031
 30
0.0
 40
0
 41
0
  0
VERTEX
  8
0
 10
0.750651
 20
2.1939
 30
0.0
 40
0
 41
0
  0
SEQEND
 8
0
  0
POLYLINE
  8
0
 62
     173
 66
     1
 10
0
 20
0
 30
0.0
 70
     1
 40
0
 41
0
  0
VERTEX
  8
0
 10
1.29037
 20
0.644097
 30
0.0
 40
0
 41
0
  0
VERTEX
  8
0
 10
1.28049
 20
0.667751
 30
0.0
 40
0
 41
0
  0
VERTEX
  8
0
 10
1.25884
 20
0.675672
 30
0.0
 40
0
 41
0
  0
VERTEX
  8
0
 10
1.2372
 20
0.667751
 30
0.0
 40
0
 41
0
  0
VERTEX
  8
0
 10
1.22738
 20
0.644097
 30
0.0
 40
0
 41
0
  0
VERTEX
  8
0
 10
1.2372
 20
0.620497
 30
0.0
 40
0
 41
0
  0
VERTEX
  8
0
 10
1.25884
 20
0.612631
 30
0.0
 40
0
 41
0
  0
VERTEX
  8
0
 10
1.28049
 20
0.620497
 30
0.0
 40
0
 41
0
  0
VERTEX
  8
0
 10
1.29037
 20
0.644097
 30
0.0
 40
0
 41
0
  0
SEQEND
 8
0
  0
POLYLINE
  8
0
 62
     173
 66
     1
 10
0
 20
0
 30
0.0
 70
     1
 40
0
 41
0
  0
VERTEX
  8
0
 10
1.29037
 20
0.0339085
 30
0.0
 40
0
 41
0
  0
VERTEX
  8
0
 10
1.28049
 20
0.0575629
 30
0.0
 40
0
 41
0
  0
VERTEX
  8
0
 10
1.25884
 20
0.0654297
 30
0.0
 40
0
 41
0
  0
VERTEX
  8
0
 10
1.2372
 20
0.0575629
 30
0.0
 40
0
 41
0
  0
VERTEX
  8
0
 10
1.22738
 20
0.0339085
 30
0.0
 40
0
 41
0
  0
VERTEX
  8
0
 10
1.2372
 20
0.0103082
 30
0.0
 40
0
 41
0
  0
VERTEX
  8
0
 10
1.25884
 20
0.0024414
 30
0.0
 40
0
 41
0
  0
VERTEX
  8
0
 10
1.28049
 20
0.0103082
 30
0.0
 40
0
 41
0
  0
VERTEX
  8
0
 10
1.29037
 20
0.0339085
 30
0.0
 40
0
 41
0
  0
SEQEND
 8
0
  0
POLYLINE
  8
0
 62
     173
 66
     1
 10
0
 20
0
 30
0.0
 70
     1
 40
0
 41
0
  0
VERTEX
  8
0
 10
1.37066
 20
2.1939
 30
0.0
 40
0
 41
0
  0
VERTEX
  8
0
 10
1.36079
 20
2.21756
 30
0.0
 40
0
 41
0
  0
VERTEX
  8
0
 10
1.33914
 20
2.22542
 30
0.0
 40
0
 41
0
  0
VERTEX
  8
0
 10
1.31749
 20
2.21756
 30
0.0
 40
0
 41
0
  0
VERTEX
  8
0
 10
1.30767
 20
2.1939
 30
0.0
 40
0
 41
0
  0
VERTEX
  8
0
 10
1.31749
 20
2.17031
 30
0.0
 40
0
 41
0
  0
VERTEX
  8
0
 10
1.33914
 20
2.16243
 30
0.0
 40
0
 41
0
  0
VERTEX
  8
0
 10
1.36079
 20
2.17031
 30
0.0
 40
0
 41
0
  0
VERTEX
  8
0
 10
1.37066
 20
2.1939
 30
0.0
 40
0
 41
0
  0
SEQEND
 8
0
  0
POLYLINE
  8
0
 62
     173
 66
     1
 10
0
 20
0
 30
0.0
 70
     1
 40
0
 41
0
  0
VERTEX
  8
0
 10
1.47065
 20
2.1939
 30
0.0
 40
0
 41
0
  0
VERTEX
  8
0
 10
1.46078
 20
2.21756
 30
0.0
 40
0
 41
0
  0
VERTEX
  8
0
 10
1.43912
 20
2.22542
 30
0.0
 40
0
 41
0
  0
VERTEX
  8
0
 10
1.41749
 20
2.21756
 30
0.0
 40
0
 41
0
  0
VERTEX
  8
0
 10
1.40767
 20
2.1939
 30
0.0
 40
0
 41
0
  0
VERTEX
  8
0
 10
1.41749
 20
2.17031
 30
0.0
 40
0
 41
0
  0
VERTEX
  8
0
 10
1.43912
 20
2.16243
 30
0.0
 40
0
 41
0
  0
VERTEX
  8
0
 10
1.46078
 20
2.17031
 30
0.0
 40
0
 41
0
  0
VERTEX
  8
0
 10
1.47065
 20
2.1939
 30
0.0
 40
0
 41
0
  0
SEQEND
 8
0
  0
POLYLINE
  8
0
 62
     173
 66
     1
 10
0
 20
0
 30
0.0
 70
     1
 40
0
 41
0
  0
VERTEX
  8
0
 10
2.09065
 20
2.1939
 30
0.0
 40
0
 41
0
  0
VERTEX
  8
0
 10
2.08078
 20
2.21756
 30
0.0
 40
0
 41
0
  0
VERTEX
  8
0
 10
2.05914
 20
2.22542
 30
0.0
 40
0
 41
0
  0
VERTEX
  8
0
 10
2.03749
 20
2.21756
 30
0.0
 40
0
 41
0
  0
VERTEX
  8
0
 10
2.02767
 20
2.1939
 30
0.0
 40
0
 41
0
  0
VERTEX
  8
0
 10
2.03749
 20
2.17031
 30
0.0
 40
0
 41
0
  0
VERTEX
  8
0
 10
2.05914
 20
2.16243
 30
0.0
 40
0
 41
0
  0
VERTEX
  8
0
 10
2.08078
 20
2.17031
 30
0.0
 40
0
 41
0
  0
VERTEX
  8
0
 10
2.09065
 20
2.1939
 30
0.0
 40
0
 41
0
  0
SEQEND
 8
0
  0
POLYLINE
  8
0
 62
     173
 66
     1
 10
0
 20
0
 30
0.0
 70
     1
 40
0
 41
0
  0
VERTEX
  8
0
 10
2.19065
 20
2.1939
 30
0.0
 40
0
 41
0
  0
VERTEX
  8
0
 10
2.18078
 20
2.21756
 30
0.0
 40
0
 41
0
  0
VERTEX
  8
0
 10
2.15913
 20
2.22542
 30
0.0
 40
0
 41
0
  0
VERTEX
  8
0
 10
2.13747
 20
2.21756
 30
0.0
 40
0
 41
0
  0
VERTEX
  8
0
 10
2.12765
 20
2.1939
 30
0.0
 40
0
 41
0
  0
VERTEX
  8
0
 10
2.13747
 20
2.17031
 30
0.0
 40
0
 41
0
  0
VERTEX
  8
0
 10
2.15913
 20
2.16243
 30
0.0
 40
0
 41
0
  0
VERTEX
  8
0
 10
2.18078
 20
2.17031
 30
0.0
 40
0
 41
0
  0
VERTEX
  8
0
 10
2.19065
 20
2.1939
 30
0.0
 40
0
 41
0
  0
SEQEND
 8
0
  0
POLYLINE
  8
0
 62
     173
 66
     1
 10
0
 20
0
 30
0.0
 70
     1
 40
0
 41
0
  0
VERTEX
  8
0
 10
2.81065
 20
2.1939
 30
0.0
 40
0
 41
0
  0
VERTEX
  8
0
 10
2.80078
 20
2.21756
 30
0.0
 40
0
 41
0
  0
VERTEX
  8
0
 10
2.77914
 20
2.22542
 30
0.0
 40
0
 41
0
  0
VERTEX
  8
0
 10
2.75749
 20
2.21756
 30
0.0
 40
0
 41
0
  0
VERTEX
  8
0
 10
2.74767
 20
2.1939
 30
0.0
 40
0
 41
0
  0
VERTEX
  8
0
 10
2.75749
 20
2.17031
 30
0.0
 40
0
 41
0
  0
VERTEX
  8
0
 10
2.77914
 20
2.16243
 30
0.0
 40
0
 41
0
  0
VERTEX
  8
0
 10
2.80078
 20
2.17031
 30
0.0
 40
0
 41
0
  0
VERTEX
  8
0
 10
2.81065
 20
2.1939
 30
0.0
 40
0
 41
0
  0
SEQEND
 8
0
  0
POLYLINE
  8
0
 62
     173
 66
     1
 10
0
 20
0
 30
0.0
 70
     1
 40
0
 41
0
  0
VERTEX
  8
0
 10
1.20177
 20
0.563803
 30
0.0
 40
0
 41
0
  0
VERTEX
  8
0
 10
1.19634
 20
0.591417
 30
0.0
 40
0
 41
0
  0
VERTEX
  8
0
 10
1.18207
 20
0.611111
 30
0.0
 40
0
 41
0
  0
VERTEX
  8
0
 10
1.16184
 20
0.622939
 30
0.0
 40
0
 41
0
  0
VERTEX
  8
0
 10
1.13873
 20
0.626844
 30
0.0
 40
0
 41
0
  0
VERTEX
  8
0
 10
1.11561
 20
0.622939
 30
0.0
 40
0
 41
0
  0
VERTEX
  8
0
 10
1.09538
 20
0.611111
 30
0.0
 40
0
 41
0
  0
VERTEX
  8
0
 10
1.08111
 20
0.591417
 30
0.0
 40
0
 41
0
  0
VERTEX
  8
0
 10
1.07574
 20
0.563803
 30
0.0
 40
0
 41
0
  0
VERTEX
  8
0
 10
1.08111
 20
0.536296
 30
0.0
 40
0
 41
0
  0
VERTEX
  8
0
 10
1.09538
 20
0.516601
 30
0.0
 40
0
 41
0
  0
VERTEX
  8
0
 10
1.11561
 20
0.504775
 30
0.0
 40
0
 41
0
  0
VERTEX
  8
0
 10
1.13873
 20
0.500814
 30
0.0
 40
0
 41
0
  0
VERTEX
  8
0
 10
1.16184
 20
0.504775
 30
0.0
 40
0
 41
0
  0
VERTEX
  8
0
 10
1.18207
 20
0.516601
 30
0.0
 40
0
 41
0
  0
VERTEX
  8
0
 10
1.19634
 20
0.536296
 30
0.0
 40
0
 41
0
  0
VERTEX
  8
0
 10
1.20177
 20
0.563803
 30
0.0
 40
0
 41
0
  0
SEQEND
 8
0
  0
POLYLINE
  8
0
 62
     173
 66
     1
 10
0
 20
0
 30
0.0
 70
     1
 40
0
 41
0
  0
VERTEX
  8
0
 10
1.20177
 20
0.113824
 30
0.0
 40
0
 41
0
  0
VERTEX
  8
0
 10
1.19634
 20
0.141385
 30
0.0
 40
0
 41
0
  0
VERTEX
  8
0
 10
1.18207
 20
0.161079
 30
0.0
 40
0
 41
0
  0
VERTEX
  8
0
 10
1.16184
 20
0.172906
 30
0.0
 40
0
 41
0
  0
VERTEX
  8
0
 10
1.13873
 20
0.176813
 30
0.0
 40
0
 41
0
  0
VERTEX
  8
0
 10
1.11561
 20
0.172906
 30
0.0
 40
0
 41
0
  0
VERTEX
  8
0
 10
1.09538
 20
0.161079
 30
0.0
 40
0
 41
0
  0
VERTEX
  8
0
 10
1.08111
 20
0.141385
 30
0.0
 40
0
 41
0
  0
VERTEX
  8
0
 10
1.07574
 20
0.113824
 30
0.0
 40
0
 41
0
  0
VERTEX
  8
0
 10
1.08111
 20
0.0863172
 30
0.0
 40
0
 41
0
  0
VERTEX
  8
0
 10
1.09538
 20
0.0666233
 30
0.0
 40
0
 41
0
  0
VERTEX
  8
0
 10
1.11561
 20
0.054796
 30
0.0
 40
0
 41
0
  0
VERTEX
  8
0
 10
1.13873
 20
0.0508356
 30
0.0
 40
0
 41
0
  0
VERTEX
  8
0
 10
1.16184
 20
0.054796
 30
0.0
 40
0
 41
0
  0
VERTEX
  8
0
 10
1.18207
 20
0.0666233
 30
0.0
 40
0
 41
0
  0
VERTEX
  8
0
 10
1.19634
 20
0.0863172
 30
0.0
 40
0
 41
0
  0
VERTEX
  8
0
 10
1.20177
 20
0.113824
 30
0.0
 40
0
 41
0
  0
SEQEND
 8
0
  0
POLYLINE
  8
0
 62
     173
 66
     1
 10
0
 20
0
 30
0.0
 70
     1
 40
0
 41
0
  0
VERTEX
  8
0
 10
0.867785
 20
2.07383
 30
0.0
 40
0
 41
0
  0
VERTEX
  8
0
 10
0.86225
 20
2.10183
 30
0.0
 40
0
 41
0
  0
VERTEX
  8
0
 10
0.847765
 20
2.12185
 30
0.0
 40
0
 41
0
  0
VERTEX
  8
0
 10
0.827257
 20
2.13385
 30
0.0
 40
0
 41
0
  0
VERTEX
  8
0
 10
0.803765
 20
2.13781
 30
0.0
 40
0
 41
0
  0
VERTEX
  8
0
 10
0.780219
 20
2.13385
 30
0.0
 40
0
 41
0
  0
VERTEX
  8
0
 10
0.759711
 20
2.12185
 30
0.0
 40
0
 41
0
  0
VERTEX
  8
0
 10
0.745226
 20
2.10183
 30
0.0
 40
0
 41
0
  0
VERTEX
  8
0
 10
0.739746
 20
2.07383
 30
0.0
 40
0
 41
0
  0
VERTEX
  8
0
 10
0.745226
 20
2.04585
 30
0.0
 40
0
 41
0
  0
VERTEX
  8
0
 10
0.759711
 20
2.02588
 30
0.0
 40
0
 41
0
  0
VERTEX
  8
0
 10
0.780219
 20
2.01383
 30
0.0
 40
0
 41
0
  0
VERTEX
  8
0
 10
0.803765
 20
2.00987
 30
0.0
 40
0
 41
0
  0
VERTEX
  8
0
 10
0.827257
 20
2.01383
 30
0.0
 40
0
 41
0
  0
VERTEX
  8
0
 10
0.847765
 20
2.02588
 30
0.0
 40
0
 41
0
  0
VERTEX
  8
0
 10
0.86225
 20
2.04585
 30
0.0
 40
0
 41
0
  0
VERTEX
  8
0
 10
0.867785
 20
2.07383
 30
0.0
 40
0
 41
0
  0
SEQEND
 8
0
  0
POLYLINE
  8
0
 62
     173
 66
     1
 10
0
 20
0
 30
0.0
 70
     1
 40
0
 41
0
  0
VERTEX
  8
0
 10
1.31776
 20
2.07383
 30
0.0
 40
0
 41
0
  0
VERTEX
  8
0
 10
1.31223
 20
2.10183
 30
0.0
 40
0
 41
0
  0
VERTEX
  8
0
 10
1.29774
 20
2.12185
 30
0.0
 40
0
 41
0
  0
VERTEX
  8
0
 10
1.27723
 20
2.13385
 30
0.0
 40
0
 41
0
  0
VERTEX
  8
0
 10
1.25374
 20
2.13781
 30
0.0
 40
0
 41
0
  0
VERTEX
  8
0
 10
1.23025
 20
2.13385
 30
0.0
 40
0
 41
0
  0
VERTEX
  8
0
 10
1.20974
 20
2.12185
 30
0.0
 40
0
 41
0
  0
VERTEX
  8
0
 10
1.19526
 20
2.10183
 30
0.0
 40
0
 41
0
  0
VERTEX
  8
0
 10
1.18978
 20
2.07383
 30
0.0
 40
0
 41
0
  0
VERTEX
  8
0
 10
1.19526
 20
2.04585
 30
0.0
 40
0
 41
0
  0
VERTEX
  8
0
 10
1.20974
 20
2.02588
 30
0.0
 40
0
 41
0
  0
VERTEX
  8
0
 10
1.23025
 20
2.01383
 30
0.0
 40
0
 41
0
  0
VERTEX
  8
0
 10
1.25374
 20
2.00987
 30
0.0
 40
0
 41
0
  0
VERTEX
  8
0
 10
1.27723
 20
2.01383
 30
0.0
 40
0
 41
0
  0
VERTEX
  8
0
 10
1.29774
 20
2.02588
 30
0.0
 40
0
 41
0
  0
VERTEX
  8
0
 10
1.31223
 20
2.04585
 30
0.0
 40
0
 41
0
  0
VERTEX
  8
0
 10
1.31776
 20
2.07383
 30
0.0
 40
0
 41
0
  0
SEQEND
 8
0
  0
POLYLINE
  8
0
 62
     173
 66
     1
 10
0
 20
0
 30
0.0
 70
     1
 40
0
 41
0
  0
VERTEX
  8
0
 10
1.58778
 20
2.07383
 30
0.0
 40
0
 41
0
  0
VERTEX
  8
0
 10
1.58225
 20
2.10183
 30
0.0
 40
0
 41
0
  0
VERTEX
  8
0
 10
1.56776
 20
2.12185
 30
0.0
 40
0
 41
0
  0
VERTEX
  8
0
 10
1.54725
 20
2.13385
 30
0.0
 40
0
 41
0
  0
VERTEX
  8
0
 10
1.52376
 20
2.13781
 30
0.0
 40
0
 41
0
  0
VERTEX
  8
0
 10
1.50022
 20
2.13385
 30
0.0
 40
0
 41
0
  0
VERTEX
  8
0
 10
1.47971
 20
2.12185
 30
0.0
 40
0
 41
0
  0
VERTEX
  8
0
 10
1.46522
 20
2.10183
 30
0.0
 40
0
 41
0
  0
VERTEX
  8
0
 10
1.45975
 20
2.07383
 30
0.0
 40
0
 41
0
  0
VERTEX
  8
0
 10
1.46522
 20
2.04585
 30
0.0
 40
0
 41
0
  0
VERTEX
  8
0
 10
1.47971
 20
2.02588
 30
0.0
 40
0
 41
0
  0
VERTEX
  8
0
 10
1.50022
 20
2.01383
 30
0.0
 40
0
 41
0
  0
VERTEX
  8
0
 10
1.52376
 20
2.00987
 30
0.0
 40
0
 41
0
  0
VERTEX
  8
0
 10
1.54725
 20
2.01383
 30
0.0
 40
0
 41
0
  0
VERTEX
  8
0
 10
1.56776
 20
2.02588
 30
0.0
 40
0
 41
0
  0
VERTEX
  8
0
 10
1.58225
 20
2.04585
 30
0.0
 40
0
 41
0
  0
VERTEX
  8
0
 10
1.58778
 20
2.07383
 30
0.0
 40
0
 41
0
  0
SEQEND
 8
0
  0
POLYLINE
  8
0
 62
     173
 66
     1
 10
0
 20
0
 30
0.0
 70
     1
 40
0
 41
0
  0
VERTEX
  8
0
 10
2.03776
 20
2.07383
 30
0.0
 40
0
 41
0
  0
VERTEX
  8
0
 10
2.03222
 20
2.10183
 30
0.0
 40
0
 41
0
  0
VERTEX
  8
0
 10
2.01774
 20
2.12185
 30
0.0
 40
0
 41
0
  0
VERTEX
  8
0
 10
1.99724
 20
2.13385
 30
0.0
 40
0
 41
0
  0
VERTEX
  8
0
 10
1.97374
 20
2.13781
 30
0.0
 40
0
 41
0
  0
VERTEX
  8
0
 10
1.95025
 20
2.13385
 30
0.0
 40
0
 41
0
  0
VERTEX
  8
0
 10
1.92974
 20
2.12185
 30
0.0
 40
0
 41
0
  0
VERTEX
  8
0
 10
1.91525
 20
2.10183
 30
0.0
 40
0
 41
0
  0
VERTEX
  8
0
 10
1.90978
 20
2.07383
 30
0.0
 40
0
 41
0
  0
VERTEX
  8
0
 10
1.91525
 20
2.04585
 30
0.0
 40
0
 41
0
  0
VERTEX
  8
0
 10
1.92974
 20
2.02588
 30
0.0
 40
0
 41
0
  0
VERTEX
  8
0
 10
1.95025
 20
2.01383
 30
0.0
 40
0
 41
0
  0
VERTEX
  8
0
 10
1.97374
 20
2.00987
 30
0.0
 40
0
 41
0
  0
VERTEX
  8
0
 10
1.99724
 20
2.01383
 30
0.0
 40
0
 41
0
  0
VERTEX
  8
0
 10
2.01774
 20
2.02588
 30
0.0
 40
0
 41
0
  0
VERTEX
  8
0
 10
2.03222
 20
2.04585
 30
0.0
 40
0
 41
0
  0
VERTEX
  8
0
 10
2.03776
 20
2.07383
 30
0.0
 40
0
 41
0
  0
SEQEND
 8
0
  0
POLYLINE
  8
0
 62
     173
 66
     1
 10
0
 20
0
 30
0.0
 70
     1
 40
0
 41
0
  0
VERTEX
  8
0
 10
2.30778
 20
2.07383
 30
0.0
 40
0
 41
0
  0
VERTEX
  8
0
 10
2.30225
 20
2.10183
 30
0.0
 40
0
 41
0
  0
VERTEX
  8
0
 10
2.28776
 20
2.12185
 30
0.0
 40
0
 41
0
  0
VERTEX
  8
0
 10
2.26725
 20
2.13385
 30
0.0
 40
0
 41
0
  0
VERTEX
  8
0
 10
2.24376
 20
2.13781
 30
0.0
 40
0
 41
0
  0
VERTEX
  8
0
 10
2.22021
 20
2.13385
 30
0.0
 40
0
 41
0
  0
VERTEX
  8
0
 10
2.19971
 20
2.12185
 30
0.0
 40
0
 41
0
  0
VERTEX
  8
0
 10
2.18522
 20
2.10183
 30
0.0
 40
0
 41
0
  0
VERTEX
  8
0
 10
2.17974
 20
2.07383
 30
0.0
 40
0
 41
0
  0
VERTEX
  8
0
 10
2.18522
 20
2.04585
 30
0.0
 40
0
 41
0
  0
VERTEX
  8
0
 10
2.19971
 20
2.02588
 30
0.0
 40
0
 41
0
  0
VERTEX
  8
0
 10
2.22021
 20
2.01383
 30
0.0
 40
0
 41
0
  0
VERTEX
  8
0
 10
2.24376
 20
2.00987
 30
0.0
 40
0
 41
0
  0
VERTEX
  8
0
 10
2.26725
 20
2.01383
 30
0.0
 40
0
 41
0
  0
VERTEX
  8
0
 10
2.28776
 20
2.02588
 30
0.0
 40
0
 41
0
  0
VERTEX
  8
0
 10
2.30225
 20
2.04585
 30
0.0
 40
0
 41
0
  0
VERTEX
  8
0
 10
2.30778
 20
2.07383
 30
0.0
 40
0
 41
0
  0
SEQEND
 8
0
  0
POLYLINE
  8
0
 62
     173
 66
     1
 10
0
 20
0
 30
0.0
 70
     1
 40
0
 41
0
  0
VERTEX
  8
0
 10
2.75776
 20
2.07383
 30
0.0
 40
0
 41
0
  0
VERTEX
  8
0
 10
2.75222
 20
2.10183
 30
0.0
 40
0
 41
0
  0
VERTEX
  8
0
 10
2.73774
 20
2.12185
 30
0.0
 40
0
 41
0
  0
VERTEX
  8
0
 10
2.71724
 20
2.13385
 30
0.0
 40
0
 41
0
  0
VERTEX
  8
0
 10
2.69374
 20
2.13781
 30
0.0
 40
0
 41
0
  0
VERTEX
  8
0
 10
2.67025
 20
2.13385
 30
0.0
 40
0
 41
0
  0
VERTEX
  8
0
 10
2.64974
 20
2.12185
 30
0.0
 40
0
 41
0
  0
VERTEX
  8
0
 10
2.63525
 20
2.10183
 30
0.0
 40
0
 41
0
  0
VERTEX
  8
0
 10
2.62978
 20
2.07383
 30
0.0
 40
0
 41
0
  0
VERTEX
  8
0
 10
2.63525
 20
2.04585
 30
0.0
 40
0
 41
0
  0
VERTEX
  8
0
 10
2.64974
 20
2.02588
 30
0.0
 40
0
 41
0
  0
VERTEX
  8
0
 10
2.67025
 20
2.01383
 30
0.0
 40
0
 41
0
  0
VERTEX
  8
0
 10
2.69374
 20
2.00987
 30
0.0
 40
0
 41
0
  0
VERTEX
  8
0
 10
2.71724
 20
2.01383
 30
0.0
 40
0
 41
0
  0
VERTEX
  8
0
 10
2.73774
 20
2.02588
 30
0.0
 40
0
 41
0
  0
VERTEX
  8
0
 10
2.75222
 20
2.04585
 30
0.0
 40
0
 41
0
  0
VERTEX
  8
0
 10
2.75776
 20
2.07383
 30
0.0
 40
0
 41
0
  0
SEQEND
 8
0
  0
ENDSEC
  0
EOF
