  0
SECTION
  2
HEADER
  9
$ACADVER
  1
AC1009
  9
$EXTMIN
 10
0.0
 20
0.0
 30
0.0
  9
$EXTMAX
 10
1000.0
 20
1000.0
 30
0.0
  9
$FILLMODE
 70
 0
  9
$SPLFRAME
 70
 1
  0
ENDSEC
  0
SECTION
  2
TABLES
  0
TABLE
  2
LAYER
 70
1
  0
LAYER
  2
0
 70
     0
 62
     7
  6
CONTINUOUS
  0
ENDTAB
  0
ENDSEC
  0
SECTION
  2
ENTITIES
  0
POLYLINE
  8
0
 62
     13
 66
     1
 10
0
 20
0
 30
0.0
 40
0.432
 41
0.432
  0
VERTEX
  8
0
 10
0.663792
 20
2.47125
 30
0.0
 40
0.006
 41
0.006
  0
VERTEX
  8
0
 10
2.91878
 20
2.47125
 30
0.0
 40
0.006
 41
0.006
  0
SEQEND
 8
0
  0
POLYLINE
  8
0
 62
     13
 66
     1
 10
0
 20
0
 30
0.0
 40
0.432
 41
0.432
  0
VERTEX
  8
0
 10
2.91878
 20
2.47125
 30
0.0
 40
0.006
 41
0.006
  0
VERTEX
  8
0
 10
2.91878
 20
0.0412326
 30
0.0
 40
0.006
 41
0.006
  0
SEQEND
 8
0
  0
POLYLINE
  8
0
 62
     13
 66
     1
 10
0
 20
0
 30
0.0
 40
0.432
 41
0.432
  0
VERTEX
  8
0
 10
2.91878
 20
0.0412326
 30
0.0
 40
0.006
 41
0.006
  0
VERTEX
  8
0
 10
0.663792
 20
0.0412326
 30
0.0
 40
0.006
 41
0.006
  0
SEQEND
 8
0
  0
POLYLINE
  8
0
 62
     13
 66
     1
 10
0
 20
0
 30
0.0
 40
0.432
 41
0.432
  0
VERTEX
  8
0
 10
0.663792
 20
0.0412326
 30
0.0
 40
0.006
 41
0.006
  0
VERTEX
  8
0
 10
0.663792
 20
0.846246
 30
0.0
 40
0.006
 41
0.006
  0
SEQEND
 8
0
  0
POLYLINE
  8
0
 62
     13
 66
     1
 10
0
 20
0
 30
0.0
 40
0.432
 41
0.432
  0
VERTEX
  8
0
 10
0.0387912
 20
1.41124
 30
0.0
 40
0.006
 41
0.006
  0
VERTEX
  8
0
 10
0.0387912
 20
0.926269
 30
0.0
 40
0.006
 41
0.006
  0
SEQEND
 8
0
  0
POLYLINE
  8
0
 62
     13
 66
     1
 10
0
 20
0
 30
0.0
 40
0.432
 41
0.432
  0
VERTEX
  8
0
 10
0.0387912
 20
1.41124
 30
0.0
 40
0.006
 41
0.006
  0
VERTEX
  8
0
 10
0.578776
 20
1.41124
 30
0.0
 40
0.006
 41
0.006
  0
SEQEND
 8
0
  0
POLYLINE
  8
0
 62
     13
 66
     1
 10
0
 20
0
 30
0.0
 40
0.432
 41
0.432
  0
VERTEX
  8
0
 10
0.578776
 20
1.41124
 30
0.0
 40
0.006
 41
0.006
  0
VERTEX
  8
0
 10
0.663792
 20
1.49625
 30
0.0
 40
0.006
 41
0.006
  0
SEQEND
 8
0
  0
POLYLINE
  8
0
 62
     13
 66
     1
 10
0
 20
0
 30
0.0
 40
0.432
 41
0.432
  0
VERTEX
  8
0
 10
0.663792
 20
1.49625
 30
0.0
 40
0.006
 41
0.006
  0
VERTEX
  8
0
 10
0.663792
 20
2.47125
 30
0.0
 40
0.006
 41
0.006
  0
SEQEND
 8
0
  0
POLYLINE
  8
0
 62
     13
 66
     1
 10
0
 20
0
 30
0.0
 40
0.432
 41
0.432
  0
VERTEX
  8
0
 10
0.0387912
 20
0.926269
 30
0.0
 40
0.006
 41
0.006
  0
VERTEX
  8
0
 10
0.583768
 20
0.926269
 30
0.0
 40
0.006
 41
0.006
  0
SEQEND
 8
0
  0
POLYLINE
  8
0
 62
     13
 66
     1
 10
0
 20
0
 30
0.0
 40
0.432
 41
0.432
  0
VERTEX
  8
0
 10
0.583768
 20
0.926269
 30
0.0
 40
0.006
 41
0.006
  0
VERTEX
  8
0
 10
0.663792
 20
0.846246
 30
0.0
 40
0.006
 41
0.006
  0
SEQEND
 8
0
  0
POLYLINE
  8
0
 62
     173
 66
     1
 10
0
 20
0
 30
0.0
 70
     1
 40
0
 41
0
  0
VERTEX
  8
0
 10
0.465278
 20
1.15625
 30
0.0
 40
0
 41
0
  0
VERTEX
  8
0
 10
0.458768
 20
1.16276
 30
0.0
 40
0
 41
0
  0
VERTEX
  8
0
 10
0.452257
 20
1.15625
 30
0.0
 40
0
 41
0
  0
VERTEX
  8
0
 10
0.458768
 20
1.14974
 30
0.0
 40
0
 41
0
  0
VERTEX
  8
0
 10
0.465278
 20
1.15625
 30
0.0
 40
0
 41
0
  0
SEQEND
 8
0
  0
POLYLINE
  8
0
 62
     173
 66
     1
 10
0
 20
0
 30
0.0
 70
     1
 40
0
 41
0
  0
VERTEX
  8
0
 10
0.530274
 20
1.31624
 30
0.0
 40
0
 41
0
  0
VERTEX
  8
0
 10
0.523762
 20
1.32275
 30
0.0
 40
0
 41
0
  0
VERTEX
  8
0
 10
0.517253
 20
1.31624
 30
0.0
 40
0
 41
0
  0
VERTEX
  8
0
 10
0.523762
 20
1.30973
 30
0.0
 40
0
 41
0
  0
VERTEX
  8
0
 10
0.530274
 20
1.31624
 30
0.0
 40
0
 41
0
  0
SEQEND
 8
0
  0
POLYLINE
  8
0
 62
     173
 66
     1
 10
0
 20
0
 30
0.0
 70
     1
 40
0
 41
0
  0
VERTEX
  8
0
 10
0.590278
 20
1.34625
 30
0.0
 40
0
 41
0
  0
VERTEX
  8
0
 10
0.583768
 20
1.35276
 30
0.0
 40
0
 41
0
  0
VERTEX
  8
0
 10
0.577257
 20
1.34625
 30
0.0
 40
0
 41
0
  0
VERTEX
  8
0
 10
0.583768
 20
1.33973
 30
0.0
 40
0
 41
0
  0
VERTEX
  8
0
 10
0.590278
 20
1.34625
 30
0.0
 40
0
 41
0
  0
SEQEND
 8
0
  0
POLYLINE
  8
0
 62
     173
 66
     1
 10
0
 20
0
 30
0.0
 70
     1
 40
0
 41
0
  0
VERTEX
  8
0
 10
0.620281
 20
1.18126
 30
0.0
 40
0
 41
0
  0
VERTEX
  8
0
 10
0.613769
 20
1.18777
 30
0.0
 40
0
 41
0
  0
VERTEX
  8
0
 10
0.60726
 20
1.18126
 30
0.0
 40
0
 41
0
  0
VERTEX
  8
0
 10
0.613769
 20
1.17475
 30
0.0
 40
0
 41
0
  0
VERTEX
  8
0
 10
0.620281
 20
1.18126
 30
0.0
 40
0
 41
0
  0
SEQEND
 8
0
  0
POLYLINE
  8
0
 62
     173
 66
     1
 10
0
 20
0
 30
0.0
 70
     1
 40
0
 41
0
  0
VERTEX
  8
0
 10
0.725261
 20
1.24626
 30
0.0
 40
0
 41
0
  0
VERTEX
  8
0
 10
0.71875
 20
1.25277
 30
0.0
 40
0
 41
0
  0
VERTEX
  8
0
 10
0.712294
 20
1.24626
 30
0.0
 40
0
 41
0
  0
VERTEX
  8
0
 10
0.71875
 20
1.23975
 30
0.0
 40
0
 41
0
  0
VERTEX
  8
0
 10
0.725261
 20
1.24626
 30
0.0
 40
0
 41
0
  0
SEQEND
 8
0
  0
POLYLINE
  8
0
 62
     173
 66
     1
 10
0
 20
0
 30
0.0
 70
     1
 40
0
 41
0
  0
VERTEX
  8
0
 10
0.725261
 20
1.17627
 30
0.0
 40
0
 41
0
  0
VERTEX
  8
0
 10
0.71875
 20
1.18278
 30
0.0
 40
0
 41
0
  0
VERTEX
  8
0
 10
0.712294
 20
1.17627
 30
0.0
 40
0
 41
0
  0
VERTEX
  8
0
 10
0.71875
 20
1.16976
 30
0.0
 40
0
 41
0
  0
VERTEX
  8
0
 10
0.725261
 20
1.17627
 30
0.0
 40
0
 41
0
  0
SEQEND
 8
0
  0
POLYLINE
  8
0
 62
     173
 66
     1
 10
0
 20
0
 30
0.0
 70
     1
 40
0
 41
0
  0
VERTEX
  8
0
 10
0.730251
 20
0.931261
 30
0.0
 40
0
 41
0
  0
VERTEX
  8
0
 10
0.723742
 20
0.937771
 30
0.0
 40
0
 41
0
  0
VERTEX
  8
0
 10
0.717285
 20
0.931261
 30
0.0
 40
0
 41
0
  0
VERTEX
  8
0
 10
0.723742
 20
0.92475
 30
0.0
 40
0
 41
0
  0
VERTEX
  8
0
 10
0.730251
 20
0.931261
 30
0.0
 40
0
 41
0
  0
SEQEND
 8
0
  0
POLYLINE
  8
0
 62
     173
 66
     1
 10
0
 20
0
 30
0.0
 70
     1
 40
0
 41
0
  0
VERTEX
  8
0
 10
0.755262
 20
1.58128
 30
0.0
 40
0
 41
0
  0
VERTEX
  8
0
 10
0.748753
 20
1.58778
 30
0.0
 40
0
 41
0
  0
VERTEX
  8
0
 10
0.742296
 20
1.58128
 30
0.0
 40
0
 41
0
  0
VERTEX
  8
0
 10
0.748753
 20
1.57476
 30
0.0
 40
0
 41
0
  0
VERTEX
  8
0
 10
0.755262
 20
1.58128
 30
0.0
 40
0
 41
0
  0
SEQEND
 8
0
  0
POLYLINE
  8
0
 62
     173
 66
     1
 10
0
 20
0
 30
0.0
 70
     1
 40
0
 41
0
  0
VERTEX
  8
0
 10
0.830296
 20
1.24626
 30
0.0
 40
0
 41
0
  0
VERTEX
  8
0
 10
0.823785
 20
1.25277
 30
0.0
 40
0
 41
0
  0
VERTEX
  8
0
 10
0.817275
 20
1.24626
 30
0.0
 40
0
 41
0
  0
VERTEX
  8
0
 10
0.823785
 20
1.23975
 30
0.0
 40
0
 41
0
  0
VERTEX
  8
0
 10
0.830296
 20
1.24626
 30
0.0
 40
0
 41
0
  0
SEQEND
 8
0
  0
POLYLINE
  8
0
 62
     173
 66
     1
 10
0
 20
0
 30
0.0
 70
     1
 40
0
 41
0
  0
VERTEX
  8
0
 10
0.840278
 20
1.80626
 30
0.0
 40
0
 41
0
  0
VERTEX
  8
0
 10
0.833768
 20
1.81278
 30
0.0
 40
0
 41
0
  0
VERTEX
  8
0
 10
0.827257
 20
1.80626
 30
0.0
 40
0
 41
0
  0
VERTEX
  8
0
 10
0.833768
 20
1.79975
 30
0.0
 40
0
 41
0
  0
VERTEX
  8
0
 10
0.840278
 20
1.80626
 30
0.0
 40
0
 41
0
  0
SEQEND
 8
0
  0
POLYLINE
  8
0
 62
     173
 66
     1
 10
0
 20
0
 30
0.0
 70
     1
 40
0
 41
0
  0
VERTEX
  8
0
 10
0.850261
 20
1.55724
 30
0.0
 40
0
 41
0
  0
VERTEX
  8
0
 10
0.84375
 20
1.56375
 30
0.0
 40
0
 41
0
  0
VERTEX
  8
0
 10
0.837294
 20
1.55724
 30
0.0
 40
0
 41
0
  0
VERTEX
  8
0
 10
0.84375
 20
1.55072
 30
0.0
 40
0
 41
0
  0
VERTEX
  8
0
 10
0.850261
 20
1.55724
 30
0.0
 40
0
 41
0
  0
SEQEND
 8
0
  0
POLYLINE
  8
0
 62
     173
 66
     1
 10
0
 20
0
 30
0.0
 70
     1
 40
0
 41
0
  0
VERTEX
  8
0
 10
0.850261
 20
1.49625
 30
0.0
 40
0
 41
0
  0
VERTEX
  8
0
 10
0.84375
 20
1.50276
 30
0.0
 40
0
 41
0
  0
VERTEX
  8
0
 10
0.837294
 20
1.49625
 30
0.0
 40
0
 41
0
  0
VERTEX
  8
0
 10
0.84375
 20
1.48975
 30
0.0
 40
0
 41
0
  0
VERTEX
  8
0
 10
0.850261
 20
1.49625
 30
0.0
 40
0
 41
0
  0
SEQEND
 8
0
  0
POLYLINE
  8
0
 62
     173
 66
     1
 10
0
 20
0
 30
0.0
 70
     1
 40
0
 41
0
  0
VERTEX
  8
0
 10
0.850261
 20
1.43522
 30
0.0
 40
0
 41
0
  0
VERTEX
  8
0
 10
0.84375
 20
1.44174
 30
0.0
 40
0
 41
0
  0
VERTEX
  8
0
 10
0.837294
 20
1.43522
 30
0.0
 40
0
 41
0
  0
VERTEX
  8
0
 10
0.84375
 20
1.42876
 30
0.0
 40
0
 41
0
  0
VERTEX
  8
0
 10
0.850261
 20
1.43522
 30
0.0
 40
0
 41
0
  0
SEQEND
 8
0
  0
POLYLINE
  8
0
 62
     173
 66
     1
 10
0
 20
0
 30
0.0
 70
     1
 40
0
 41
0
  0
VERTEX
  8
0
 10
0.875271
 20
1.01123
 30
0.0
 40
0
 41
0
  0
VERTEX
  8
0
 10
0.868761
 20
1.01774
 30
0.0
 40
0
 41
0
  0
VERTEX
  8
0
 10
0.86225
 20
1.01123
 30
0.0
 40
0
 41
0
  0
VERTEX
  8
0
 10
0.868761
 20
1.00478
 30
0.0
 40
0
 41
0
  0
VERTEX
  8
0
 10
0.875271
 20
1.01123
 30
0.0
 40
0
 41
0
  0
SEQEND
 8
0
  0
POLYLINE
  8
0
 62
     173
 66
     1
 10
0
 20
0
 30
0.0
 70
     1
 40
0
 41
0
  0
VERTEX
  8
0
 10
0.905274
 20
1.19124
 30
0.0
 40
0
 41
0
  0
VERTEX
  8
0
 10
0.898762
 20
1.19775
 30
0.0
 40
0
 41
0
  0
VERTEX
  8
0
 10
0.892253
 20
1.19124
 30
0.0
 40
0
 41
0
  0
VERTEX
  8
0
 10
0.898762
 20
1.18473
 30
0.0
 40
0
 41
0
  0
VERTEX
  8
0
 10
0.905274
 20
1.19124
 30
0.0
 40
0
 41
0
  0
SEQEND
 8
0
  0
POLYLINE
  8
0
 62
     173
 66
     1
 10
0
 20
0
 30
0.0
 70
     1
 40
0
 41
0
  0
VERTEX
  8
0
 10
0.915256
 20
1.46126
 30
0.0
 40
0
 41
0
  0
VERTEX
  8
0
 10
0.908746
 20
1.46778
 30
0.0
 40
0
 41
0
  0
VERTEX
  8
0
 10
0.902289
 20
1.46126
 30
0.0
 40
0
 41
0
  0
VERTEX
  8
0
 10
0.908746
 20
1.45475
 30
0.0
 40
0
 41
0
  0
VERTEX
  8
0
 10
0.915256
 20
1.46126
 30
0.0
 40
0
 41
0
  0
SEQEND
 8
0
  0
POLYLINE
  8
0
 62
     173
 66
     1
 10
0
 20
0
 30
0.0
 70
     1
 40
0
 41
0
  0
VERTEX
  8
0
 10
0.940267
 20
1.41124
 30
0.0
 40
0
 41
0
  0
VERTEX
  8
0
 10
0.933757
 20
1.41775
 30
0.0
 40
0
 41
0
  0
VERTEX
  8
0
 10
0.927246
 20
1.41124
 30
0.0
 40
0
 41
0
  0
VERTEX
  8
0
 10
0.933757
 20
1.40474
 30
0.0
 40
0
 41
0
  0
VERTEX
  8
0
 10
0.940267
 20
1.41124
 30
0.0
 40
0
 41
0
  0
SEQEND
 8
0
  0
POLYLINE
  8
0
 62
     173
 66
     1
 10
0
 20
0
 30
0.0
 70
     1
 40
0
 41
0
  0
VERTEX
  8
0
 10
0.955296
 20
0.631239
 30
0.0
 40
0
 41
0
  0
VERTEX
  8
0
 10
0.948785
 20
0.63775
 30
0.0
 40
0
 41
0
  0
VERTEX
  8
0
 10
0.942275
 20
0.631239
 30
0.0
 40
0
 41
0
  0
VERTEX
  8
0
 10
0.948785
 20
0.624729
 30
0.0
 40
0
 41
0
  0
VERTEX
  8
0
 10
0.955296
 20
0.631239
 30
0.0
 40
0
 41
0
  0
SEQEND
 8
0
  0
POLYLINE
  8
0
 62
     173
 66
     1
 10
0
 20
0
 30
0.0
 70
     1
 40
0
 41
0
  0
VERTEX
  8
0
 10
0.975261
 20
1.30626
 30
0.0
 40
0
 41
0
  0
VERTEX
  8
0
 10
0.96875
 20
1.31277
 30
0.0
 40
0
 41
0
  0
VERTEX
  8
0
 10
0.962294
 20
1.30626
 30
0.0
 40
0
 41
0
  0
VERTEX
  8
0
 10
0.96875
 20
1.29975
 30
0.0
 40
0
 41
0
  0
VERTEX
  8
0
 10
0.975261
 20
1.30626
 30
0.0
 40
0
 41
0
  0
SEQEND
 8
0
  0
POLYLINE
  8
0
 62
     173
 66
     1
 10
0
 20
0
 30
0.0
 70
     1
 40
0
 41
0
  0
VERTEX
  8
0
 10
0.975261
 20
1.17627
 30
0.0
 40
0
 41
0
  0
VERTEX
  8
0
 10
0.96875
 20
1.18278
 30
0.0
 40
0
 41
0
  0
VERTEX
  8
0
 10
0.962294
 20
1.17627
 30
0.0
 40
0
 41
0
  0
VERTEX
  8
0
 10
0.96875
 20
1.16976
 30
0.0
 40
0
 41
0
  0
VERTEX
  8
0
 10
0.975261
 20
1.17627
 30
0.0
 40
0
 41
0
  0
SEQEND
 8
0
  0
POLYLINE
  8
0
 62
     173
 66
     1
 10
0
 20
0
 30
0.0
 70
     1
 40
0
 41
0
  0
VERTEX
  8
0
 10
0.980251
 20
1.53125
 30
0.0
 40
0
 41
0
  0
VERTEX
  8
0
 10
0.973742
 20
1.53776
 30
0.0
 40
0
 41
0
  0
VERTEX
  8
0
 10
0.967285
 20
1.53125
 30
0.0
 40
0
 41
0
  0
VERTEX
  8
0
 10
0.973742
 20
1.52474
 30
0.0
 40
0
 41
0
  0
VERTEX
  8
0
 10
0.980251
 20
1.53125
 30
0.0
 40
0
 41
0
  0
SEQEND
 8
0
  0
POLYLINE
  8
0
 62
     173
 66
     1
 10
0
 20
0
 30
0.0
 70
     1
 40
0
 41
0
  0
VERTEX
  8
0
 10
0.985297
 20
1.38124
 30
0.0
 40
0
 41
0
  0
VERTEX
  8
0
 10
0.978788
 20
1.38775
 30
0.0
 40
0
 41
0
  0
VERTEX
  8
0
 10
0.972276
 20
1.38124
 30
0.0
 40
0
 41
0
  0
VERTEX
  8
0
 10
0.978788
 20
1.37473
 30
0.0
 40
0
 41
0
  0
VERTEX
  8
0
 10
0.985297
 20
1.38124
 30
0.0
 40
0
 41
0
  0
SEQEND
 8
0
  0
POLYLINE
  8
0
 62
     173
 66
     1
 10
0
 20
0
 30
0.0
 70
     1
 40
0
 41
0
  0
VERTEX
  8
0
 10
0.98546
 20
0.452474
 30
0.0
 40
0
 41
0
  0
VERTEX
  8
0
 10
0.97895
 20
0.458985
 30
0.0
 40
0
 41
0
  0
VERTEX
  8
0
 10
0.972493
 20
0.452474
 30
0.0
 40
0
 41
0
  0
VERTEX
  8
0
 10
0.97895
 20
0.445964
 30
0.0
 40
0
 41
0
  0
VERTEX
  8
0
 10
0.98546
 20
0.452474
 30
0.0
 40
0
 41
0
  0
SEQEND
 8
0
  0
POLYLINE
  8
0
 62
     173
 66
     1
 10
0
 20
0
 30
0.0
 70
     1
 40
0
 41
0
  0
VERTEX
  8
0
 10
0.995281
 20
2.26124
 30
0.0
 40
0
 41
0
  0
VERTEX
  8
0
 10
0.988769
 20
2.26774
 30
0.0
 40
0
 41
0
  0
VERTEX
  8
0
 10
0.98226
 20
2.26124
 30
0.0
 40
0
 41
0
  0
VERTEX
  8
0
 10
0.988769
 20
2.25478
 30
0.0
 40
0
 41
0
  0
VERTEX
  8
0
 10
0.995281
 20
2.26124
 30
0.0
 40
0
 41
0
  0
SEQEND
 8
0
  0
POLYLINE
  8
0
 62
     173
 66
     1
 10
0
 20
0
 30
0.0
 70
     1
 40
0
 41
0
  0
VERTEX
  8
0
 10
0.995281
 20
2.14626
 30
0.0
 40
0
 41
0
  0
VERTEX
  8
0
 10
0.988769
 20
2.15278
 30
0.0
 40
0
 41
0
  0
VERTEX
  8
0
 10
0.98226
 20
2.14626
 30
0.0
 40
0
 41
0
  0
VERTEX
  8
0
 10
0.988769
 20
2.13976
 30
0.0
 40
0
 41
0
  0
VERTEX
  8
0
 10
0.995281
 20
2.14626
 30
0.0
 40
0
 41
0
  0
SEQEND
 8
0
  0
POLYLINE
  8
0
 62
     173
 66
     1
 10
0
 20
0
 30
0.0
 70
     1
 40
0
 41
0
  0
VERTEX
  8
0
 10
1.00027
 20
1.34625
 30
0.0
 40
0
 41
0
  0
VERTEX
  8
0
 10
0.993761
 20
1.35276
 30
0.0
 40
0
 41
0
  0
VERTEX
  8
0
 10
0.98725
 20
1.34625
 30
0.0
 40
0
 41
0
  0
VERTEX
  8
0
 10
0.993761
 20
1.33973
 30
0.0
 40
0
 41
0
  0
VERTEX
  8
0
 10
1.00027
 20
1.34625
 30
0.0
 40
0
 41
0
  0
SEQEND
 8
0
  0
POLYLINE
  8
0
 62
     173
 66
     1
 10
0
 20
0
 30
0.0
 70
     1
 40
0
 41
0
  0
VERTEX
  8
0
 10
1.01525
 20
1.13623
 30
0.0
 40
0
 41
0
  0
VERTEX
  8
0
 10
1.00873
 20
1.14274
 30
0.0
 40
0
 41
0
  0
VERTEX
  8
0
 10
1.00228
 20
1.13623
 30
0.0
 40
0
 41
0
  0
VERTEX
  8
0
 10
1.00873
 20
1.12978
 30
0.0
 40
0
 41
0
  0
VERTEX
  8
0
 10
1.01525
 20
1.13623
 30
0.0
 40
0
 41
0
  0
SEQEND
 8
0
  0
POLYLINE
  8
0
 62
     173
 66
     1
 10
0
 20
0
 30
0.0
 70
     1
 40
0
 41
0
  0
VERTEX
  8
0
 10
1.02029
 20
2.06125
 30
0.0
 40
0
 41
0
  0
VERTEX
  8
0
 10
1.01378
 20
2.06776
 30
0.0
 40
0
 41
0
  0
VERTEX
  8
0
 10
1.00727
 20
2.06125
 30
0.0
 40
0
 41
0
  0
VERTEX
  8
0
 10
1.01378
 20
2.05474
 30
0.0
 40
0
 41
0
  0
VERTEX
  8
0
 10
1.02029
 20
2.06125
 30
0.0
 40
0
 41
0
  0
SEQEND
 8
0
  0
POLYLINE
  8
0
 62
     173
 66
     1
 10
0
 20
0
 30
0.0
 70
     1
 40
0
 41
0
  0
VERTEX
  8
0
 10
1.02029
 20
1.93625
 30
0.0
 40
0
 41
0
  0
VERTEX
  8
0
 10
1.01378
 20
1.94276
 30
0.0
 40
0
 41
0
  0
VERTEX
  8
0
 10
1.00727
 20
1.93625
 30
0.0
 40
0
 41
0
  0
VERTEX
  8
0
 10
1.01378
 20
1.92974
 30
0.0
 40
0
 41
0
  0
VERTEX
  8
0
 10
1.02029
 20
1.93625
 30
0.0
 40
0
 41
0
  0
SEQEND
 8
0
  0
POLYLINE
  8
0
 62
     173
 66
     1
 10
0
 20
0
 30
0.0
 70
     1
 40
0
 41
0
  0
VERTEX
  8
0
 10
1.04047
 20
0.0974393
 30
0.0
 40
0
 41
0
  0
VERTEX
  8
0
 10
1.03396
 20
0.10395
 30
0.0
 40
0
 41
0
  0
VERTEX
  8
0
 10
1.02745
 20
0.0974393
 30
0.0
 40
0
 41
0
  0
VERTEX
  8
0
 10
1.03396
 20
0.0909289
 30
0.0
 40
0
 41
0
  0
VERTEX
  8
0
 10
1.04047
 20
0.0974393
 30
0.0
 40
0
 41
0
  0
SEQEND
 8
0
  0
POLYLINE
  8
0
 62
     173
 66
     1
 10
0
 20
0
 30
0.0
 70
     1
 40
0
 41
0
  0
VERTEX
  8
0
 10
1.04525
 20
2.26124
 30
0.0
 40
0
 41
0
  0
VERTEX
  8
0
 10
1.03874
 20
2.26774
 30
0.0
 40
0
 41
0
  0
VERTEX
  8
0
 10
1.03228
 20
2.26124
 30
0.0
 40
0
 41
0
  0
VERTEX
  8
0
 10
1.03874
 20
2.25478
 30
0.0
 40
0
 41
0
  0
VERTEX
  8
0
 10
1.04525
 20
2.26124
 30
0.0
 40
0
 41
0
  0
SEQEND
 8
0
  0
POLYLINE
  8
0
 62
     173
 66
     1
 10
0
 20
0
 30
0.0
 70
     1
 40
0
 41
0
  0
VERTEX
  8
0
 10
1.07026
 20
2.06125
 30
0.0
 40
0
 41
0
  0
VERTEX
  8
0
 10
1.06375
 20
2.06776
 30
0.0
 40
0
 41
0
  0
VERTEX
  8
0
 10
1.05729
 20
2.06125
 30
0.0
 40
0
 41
0
  0
VERTEX
  8
0
 10
1.06375
 20
2.05474
 30
0.0
 40
0
 41
0
  0
VERTEX
  8
0
 10
1.07026
 20
2.06125
 30
0.0
 40
0
 41
0
  0
SEQEND
 8
0
  0
POLYLINE
  8
0
 62
     173
 66
     1
 10
0
 20
0
 30
0.0
 70
     1
 40
0
 41
0
  0
VERTEX
  8
0
 10
1.07378
 20
1.41124
 30
0.0
 40
0
 41
0
  0
VERTEX
  8
0
 10
1.06728
 20
1.41775
 30
0.0
 40
0
 41
0
  0
VERTEX
  8
0
 10
1.06076
 20
1.41124
 30
0.0
 40
0
 41
0
  0
VERTEX
  8
0
 10
1.06728
 20
1.40474
 30
0.0
 40
0
 41
0
  0
VERTEX
  8
0
 10
1.07378
 20
1.41124
 30
0.0
 40
0
 41
0
  0
SEQEND
 8
0
  0
POLYLINE
  8
0
 62
     173
 66
     1
 10
0
 20
0
 30
0.0
 70
     1
 40
0
 41
0
  0
VERTEX
  8
0
 10
1.07378
 20
1.37625
 30
0.0
 40
0
 41
0
  0
VERTEX
  8
0
 10
1.06728
 20
1.38276
 30
0.0
 40
0
 41
0
  0
VERTEX
  8
0
 10
1.06076
 20
1.37625
 30
0.0
 40
0
 41
0
  0
VERTEX
  8
0
 10
1.06728
 20
1.36974
 30
0.0
 40
0
 41
0
  0
VERTEX
  8
0
 10
1.07378
 20
1.37625
 30
0.0
 40
0
 41
0
  0
SEQEND
 8
0
  0
POLYLINE
  8
0
 62
     173
 66
     1
 10
0
 20
0
 30
0.0
 70
     1
 40
0
 41
0
  0
VERTEX
  8
0
 10
1.07525
 20
1.57124
 30
0.0
 40
0
 41
0
  0
VERTEX
  8
0
 10
1.06874
 20
1.57775
 30
0.0
 40
0
 41
0
  0
VERTEX
  8
0
 10
1.06228
 20
1.57124
 30
0.0
 40
0
 41
0
  0
VERTEX
  8
0
 10
1.06874
 20
1.56472
 30
0.0
 40
0
 41
0
  0
VERTEX
  8
0
 10
1.07525
 20
1.57124
 30
0.0
 40
0
 41
0
  0
SEQEND
 8
0
  0
POLYLINE
  8
0
 62
     173
 66
     1
 10
0
 20
0
 30
0.0
 70
     1
 40
0
 41
0
  0
VERTEX
  8
0
 10
1.07525
 20
1.01123
 30
0.0
 40
0
 41
0
  0
VERTEX
  8
0
 10
1.06874
 20
1.01774
 30
0.0
 40
0
 41
0
  0
VERTEX
  8
0
 10
1.06228
 20
1.01123
 30
0.0
 40
0
 41
0
  0
VERTEX
  8
0
 10
1.06874
 20
1.00478
 30
0.0
 40
0
 41
0
  0
VERTEX
  8
0
 10
1.07525
 20
1.01123
 30
0.0
 40
0
 41
0
  0
SEQEND
 8
0
  0
POLYLINE
  8
0
 62
     173
 66
     1
 10
0
 20
0
 30
0.0
 70
     1
 40
0
 41
0
  0
VERTEX
  8
0
 10
1.09527
 20
2.26124
 30
0.0
 40
0
 41
0
  0
VERTEX
  8
0
 10
1.08876
 20
2.26774
 30
0.0
 40
0
 41
0
  0
VERTEX
  8
0
 10
1.08225
 20
2.26124
 30
0.0
 40
0
 41
0
  0
VERTEX
  8
0
 10
1.08876
 20
2.25478
 30
0.0
 40
0
 41
0
  0
VERTEX
  8
0
 10
1.09527
 20
2.26124
 30
0.0
 40
0
 41
0
  0
SEQEND
 8
0
  0
POLYLINE
  8
0
 62
     173
 66
     1
 10
0
 20
0
 30
0.0
 70
     1
 40
0
 41
0
  0
VERTEX
  8
0
 10
1.09527
 20
2.14626
 30
0.0
 40
0
 41
0
  0
VERTEX
  8
0
 10
1.08876
 20
2.15278
 30
0.0
 40
0
 41
0
  0
VERTEX
  8
0
 10
1.08225
 20
2.14626
 30
0.0
 40
0
 41
0
  0
VERTEX
  8
0
 10
1.08876
 20
2.13976
 30
0.0
 40
0
 41
0
  0
VERTEX
  8
0
 10
1.09527
 20
2.14626
 30
0.0
 40
0
 41
0
  0
SEQEND
 8
0
  0
POLYLINE
  8
0
 62
     173
 66
     1
 10
0
 20
0
 30
0.0
 70
     1
 40
0
 41
0
  0
VERTEX
  8
0
 10
1.10026
 20
1.68126
 30
0.0
 40
0
 41
0
  0
VERTEX
  8
0
 10
1.09375
 20
1.68778
 30
0.0
 40
0
 41
0
  0
VERTEX
  8
0
 10
1.08729
 20
1.68126
 30
0.0
 40
0
 41
0
  0
VERTEX
  8
0
 10
1.09375
 20
1.67475
 30
0.0
 40
0
 41
0
  0
VERTEX
  8
0
 10
1.10026
 20
1.68126
 30
0.0
 40
0
 41
0
  0
SEQEND
 8
0
  0
POLYLINE
  8
0
 62
     173
 66
     1
 10
0
 20
0
 30
0.0
 70
     1
 40
0
 41
0
  0
VERTEX
  8
0
 10
1.11529
 20
1.93625
 30
0.0
 40
0
 41
0
  0
VERTEX
  8
0
 10
1.10878
 20
1.94276
 30
0.0
 40
0
 41
0
  0
VERTEX
  8
0
 10
1.10227
 20
1.93625
 30
0.0
 40
0
 41
0
  0
VERTEX
  8
0
 10
1.10878
 20
1.92974
 30
0.0
 40
0
 41
0
  0
VERTEX
  8
0
 10
1.11529
 20
1.93625
 30
0.0
 40
0
 41
0
  0
SEQEND
 8
0
  0
POLYLINE
  8
0
 62
     173
 66
     1
 10
0
 20
0
 30
0.0
 70
     1
 40
0
 41
0
  0
VERTEX
  8
0
 10
1.12375
 20
1.58524
 30
0.0
 40
0
 41
0
  0
VERTEX
  8
0
 10
1.11724
 20
1.59174
 30
0.0
 40
0
 41
0
  0
VERTEX
  8
0
 10
1.11079
 20
1.58524
 30
0.0
 40
0
 41
0
  0
VERTEX
  8
0
 10
1.11724
 20
1.57878
 30
0.0
 40
0
 41
0
  0
VERTEX
  8
0
 10
1.12375
 20
1.58524
 30
0.0
 40
0
 41
0
  0
SEQEND
 8
0
  0
POLYLINE
  8
0
 62
     173
 66
     1
 10
0
 20
0
 30
0.0
 70
     1
 40
0
 41
0
  0
VERTEX
  8
0
 10
1.13525
 20
1.47125
 30
0.0
 40
0
 41
0
  0
VERTEX
  8
0
 10
1.12874
 20
1.47775
 30
0.0
 40
0
 41
0
  0
VERTEX
  8
0
 10
1.12229
 20
1.47125
 30
0.0
 40
0
 41
0
  0
VERTEX
  8
0
 10
1.12874
 20
1.46474
 30
0.0
 40
0
 41
0
  0
VERTEX
  8
0
 10
1.13525
 20
1.47125
 30
0.0
 40
0
 41
0
  0
SEQEND
 8
0
  0
POLYLINE
  8
0
 62
     173
 66
     1
 10
0
 20
0
 30
0.0
 70
     1
 40
0
 41
0
  0
VERTEX
  8
0
 10
1.13547
 20
0.542426
 30
0.0
 40
0
 41
0
  0
VERTEX
  8
0
 10
1.12896
 20
0.548936
 30
0.0
 40
0
 41
0
  0
VERTEX
  8
0
 10
1.12245
 20
0.542426
 30
0.0
 40
0
 41
0
  0
VERTEX
  8
0
 10
1.12896
 20
0.535969
 30
0.0
 40
0
 41
0
  0
VERTEX
  8
0
 10
1.13547
 20
0.542426
 30
0.0
 40
0
 41
0
  0
SEQEND
 8
0
  0
POLYLINE
  8
0
 62
     173
 66
     1
 10
0
 20
0
 30
0.0
 70
     1
 40
0
 41
0
  0
VERTEX
  8
0
 10
1.15375
 20
1.17122
 30
0.0
 40
0
 41
0
  0
VERTEX
  8
0
 10
1.14724
 20
1.17773
 30
0.0
 40
0
 41
0
  0
VERTEX
  8
0
 10
1.14079
 20
1.17122
 30
0.0
 40
0
 41
0
  0
VERTEX
  8
0
 10
1.14724
 20
1.16477
 30
0.0
 40
0
 41
0
  0
VERTEX
  8
0
 10
1.15375
 20
1.17122
 30
0.0
 40
0
 41
0
  0
SEQEND
 8
0
  0
POLYLINE
  8
0
 62
     173
 66
     1
 10
0
 20
0
 30
0.0
 70
     1
 40
0
 41
0
  0
VERTEX
  8
0
 10
1.15777
 20
1.58524
 30
0.0
 40
0
 41
0
  0
VERTEX
  8
0
 10
1.15126
 20
1.59174
 30
0.0
 40
0
 41
0
  0
VERTEX
  8
0
 10
1.14475
 20
1.58524
 30
0.0
 40
0
 41
0
  0
VERTEX
  8
0
 10
1.15126
 20
1.57878
 30
0.0
 40
0
 41
0
  0
VERTEX
  8
0
 10
1.15777
 20
1.58524
 30
0.0
 40
0
 41
0
  0
SEQEND
 8
0
  0
POLYLINE
  8
0
 62
     173
 66
     1
 10
0
 20
0
 30
0.0
 70
     1
 40
0
 41
0
  0
VERTEX
  8
0
 10
1.18875
 20
1.17122
 30
0.0
 40
0
 41
0
  0
VERTEX
  8
0
 10
1.18224
 20
1.17773
 30
0.0
 40
0
 41
0
  0
VERTEX
  8
0
 10
1.17578
 20
1.17122
 30
0.0
 40
0
 41
0
  0
VERTEX
  8
0
 10
1.18224
 20
1.16477
 30
0.0
 40
0
 41
0
  0
VERTEX
  8
0
 10
1.18875
 20
1.17122
 30
0.0
 40
0
 41
0
  0
SEQEND
 8
0
  0
POLYLINE
  8
0
 62
     173
 66
     1
 10
0
 20
0
 30
0.0
 70
     1
 40
0
 41
0
  0
VERTEX
  8
0
 10
1.19179
 20
1.58524
 30
0.0
 40
0
 41
0
  0
VERTEX
  8
0
 10
1.18527
 20
1.59174
 30
0.0
 40
0
 41
0
  0
VERTEX
  8
0
 10
1.17877
 20
1.58524
 30
0.0
 40
0
 41
0
  0
VERTEX
  8
0
 10
1.18527
 20
1.57878
 30
0.0
 40
0
 41
0
  0
VERTEX
  8
0
 10
1.19179
 20
1.58524
 30
0.0
 40
0
 41
0
  0
SEQEND
 8
0
  0
POLYLINE
  8
0
 62
     173
 66
     1
 10
0
 20
0
 30
0.0
 70
     1
 40
0
 41
0
  0
VERTEX
  8
0
 10
1.19526
 20
0.731228
 30
0.0
 40
0
 41
0
  0
VERTEX
  8
0
 10
1.18875
 20
0.737739
 30
0.0
 40
0
 41
0
  0
VERTEX
  8
0
 10
1.18229
 20
0.731228
 30
0.0
 40
0
 41
0
  0
VERTEX
  8
0
 10
1.18875
 20
0.724772
 30
0.0
 40
0
 41
0
  0
VERTEX
  8
0
 10
1.19526
 20
0.731228
 30
0.0
 40
0
 41
0
  0
SEQEND
 8
0
  0
POLYLINE
  8
0
 62
     173
 66
     1
 10
0
 20
0
 30
0.0
 70
     1
 40
0
 41
0
  0
VERTEX
  8
0
 10
1.22526
 20
1.17122
 30
0.0
 40
0
 41
0
  0
VERTEX
  8
0
 10
1.21875
 20
1.17773
 30
0.0
 40
0
 41
0
  0
VERTEX
  8
0
 10
1.21229
 20
1.17122
 30
0.0
 40
0
 41
0
  0
VERTEX
  8
0
 10
1.21875
 20
1.16477
 30
0.0
 40
0
 41
0
  0
VERTEX
  8
0
 10
1.22526
 20
1.17122
 30
0.0
 40
0
 41
0
  0
SEQEND
 8
0
  0
POLYLINE
  8
0
 62
     173
 66
     1
 10
0
 20
0
 30
0.0
 70
     1
 40
0
 41
0
  0
VERTEX
  8
0
 10
1.24029
 20
1.46625
 30
0.0
 40
0
 41
0
  0
VERTEX
  8
0
 10
1.23378
 20
1.47276
 30
0.0
 40
0
 41
0
  0
VERTEX
  8
0
 10
1.22727
 20
1.46625
 30
0.0
 40
0
 41
0
  0
VERTEX
  8
0
 10
1.23378
 20
1.45975
 30
0.0
 40
0
 41
0
  0
VERTEX
  8
0
 10
1.24029
 20
1.46625
 30
0.0
 40
0
 41
0
  0
SEQEND
 8
0
  0
POLYLINE
  8
0
 62
     173
 66
     1
 10
0
 20
0
 30
0.0
 70
     1
 40
0
 41
0
  0
VERTEX
  8
0
 10
1.25526
 20
1.33127
 30
0.0
 40
0
 41
0
  0
VERTEX
  8
0
 10
1.24875
 20
1.33778
 30
0.0
 40
0
 41
0
  0
VERTEX
  8
0
 10
1.2423
 20
1.33127
 30
0.0
 40
0
 41
0
  0
VERTEX
  8
0
 10
1.24875
 20
1.32476
 30
0.0
 40
0
 41
0
  0
VERTEX
  8
0
 10
1.25526
 20
1.33127
 30
0.0
 40
0
 41
0
  0
SEQEND
 8
0
  0
POLYLINE
  8
0
 62
     173
 66
     1
 10
0
 20
0
 30
0.0
 70
     1
 40
0
 41
0
  0
VERTEX
  8
0
 10
1.27528
 20
1.00125
 30
0.0
 40
0
 41
0
  0
VERTEX
  8
0
 10
1.26877
 20
1.00776
 30
0.0
 40
0
 41
0
  0
VERTEX
  8
0
 10
1.26226
 20
1.00125
 30
0.0
 40
0
 41
0
  0
VERTEX
  8
0
 10
1.26877
 20
0.994738
 30
0.0
 40
0
 41
0
  0
VERTEX
  8
0
 10
1.27528
 20
1.00125
 30
0.0
 40
0
 41
0
  0
SEQEND
 8
0
  0
POLYLINE
  8
0
 62
     173
 66
     1
 10
0
 20
0
 30
0.0
 70
     1
 40
0
 41
0
  0
VERTEX
  8
0
 10
1.31527
 20
1.69125
 30
0.0
 40
0
 41
0
  0
VERTEX
  8
0
 10
1.30876
 20
1.69775
 30
0.0
 40
0
 41
0
  0
VERTEX
  8
0
 10
1.30225
 20
1.69125
 30
0.0
 40
0
 41
0
  0
VERTEX
  8
0
 10
1.30876
 20
1.68474
 30
0.0
 40
0
 41
0
  0
VERTEX
  8
0
 10
1.31527
 20
1.69125
 30
0.0
 40
0
 41
0
  0
SEQEND
 8
0
  0
POLYLINE
  8
0
 62
     173
 66
     1
 10
0
 20
0
 30
0.0
 70
     1
 40
0
 41
0
  0
VERTEX
  8
0
 10
1.33545
 20
0.227431
 30
0.0
 40
0
 41
0
  0
VERTEX
  8
0
 10
1.32894
 20
0.233942
 30
0.0
 40
0
 41
0
  0
VERTEX
  8
0
 10
1.32248
 20
0.227431
 30
0.0
 40
0
 41
0
  0
VERTEX
  8
0
 10
1.32894
 20
0.220975
 30
0.0
 40
0
 41
0
  0
VERTEX
  8
0
 10
1.33545
 20
0.227431
 30
0.0
 40
0
 41
0
  0
SEQEND
 8
0
  0
POLYLINE
  8
0
 62
     173
 66
     1
 10
0
 20
0
 30
0.0
 70
     1
 40
0
 41
0
  0
VERTEX
  8
0
 10
1.34049
 20
0.442437
 30
0.0
 40
0
 41
0
  0
VERTEX
  8
0
 10
1.33398
 20
0.448947
 30
0.0
 40
0
 41
0
  0
VERTEX
  8
0
 10
1.32747
 20
0.442437
 30
0.0
 40
0
 41
0
  0
VERTEX
  8
0
 10
1.33398
 20
0.435926
 30
0.0
 40
0
 41
0
  0
VERTEX
  8
0
 10
1.34049
 20
0.442437
 30
0.0
 40
0
 41
0
  0
SEQEND
 8
0
  0
POLYLINE
  8
0
 62
     173
 66
     1
 10
0
 20
0
 30
0.0
 70
     1
 40
0
 41
0
  0
VERTEX
  8
0
 10
1.34527
 20
1.55126
 30
0.0
 40
0
 41
0
  0
VERTEX
  8
0
 10
1.33876
 20
1.55778
 30
0.0
 40
0
 41
0
  0
VERTEX
  8
0
 10
1.33225
 20
1.55126
 30
0.0
 40
0
 41
0
  0
VERTEX
  8
0
 10
1.33876
 20
1.54476
 30
0.0
 40
0
 41
0
  0
VERTEX
  8
0
 10
1.34527
 20
1.55126
 30
0.0
 40
0
 41
0
  0
SEQEND
 8
0
  0
POLYLINE
  8
0
 62
     173
 66
     1
 10
0
 20
0
 30
0.0
 70
     1
 40
0
 41
0
  0
VERTEX
  8
0
 10
1.35048
 20
0.0924479
 30
0.0
 40
0
 41
0
  0
VERTEX
  8
0
 10
1.34397
 20
0.0989583
 30
0.0
 40
0
 41
0
  0
VERTEX
  8
0
 10
1.33746
 20
0.0924479
 30
0.0
 40
0
 41
0
  0
VERTEX
  8
0
 10
1.34397
 20
0.0859375
 30
0.0
 40
0
 41
0
  0
VERTEX
  8
0
 10
1.35048
 20
0.0924479
 30
0.0
 40
0
 41
0
  0
SEQEND
 8
0
  0
POLYLINE
  8
0
 62
     173
 66
     1
 10
0
 20
0
 30
0.0
 70
     1
 40
0
 41
0
  0
VERTEX
  8
0
 10
1.35525
 20
1.79622
 30
0.0
 40
0
 41
0
  0
VERTEX
  8
0
 10
1.34874
 20
1.80274
 30
0.0
 40
0
 41
0
  0
VERTEX
  8
0
 10
1.34228
 20
1.79622
 30
0.0
 40
0
 41
0
  0
VERTEX
  8
0
 10
1.34874
 20
1.78976
 30
0.0
 40
0
 41
0
  0
VERTEX
  8
0
 10
1.35525
 20
1.79622
 30
0.0
 40
0
 41
0
  0
SEQEND
 8
0
  0
POLYLINE
  8
0
 62
     173
 66
     1
 10
0
 20
0
 30
0.0
 70
     1
 40
0
 41
0
  0
VERTEX
  8
0
 10
1.35525
 20
1.19623
 30
0.0
 40
0
 41
0
  0
VERTEX
  8
0
 10
1.34874
 20
1.20275
 30
0.0
 40
0
 41
0
  0
VERTEX
  8
0
 10
1.34228
 20
1.19623
 30
0.0
 40
0
 41
0
  0
VERTEX
  8
0
 10
1.34874
 20
1.18973
 30
0.0
 40
0
 41
0
  0
VERTEX
  8
0
 10
1.35525
 20
1.19623
 30
0.0
 40
0
 41
0
  0
SEQEND
 8
0
  0
POLYLINE
  8
0
 62
     173
 66
     1
 10
0
 20
0
 30
0.0
 70
     1
 40
0
 41
0
  0
VERTEX
  8
0
 10
1.35547
 20
0.642469
 30
0.0
 40
0
 41
0
  0
VERTEX
  8
0
 10
1.34896
 20
0.648981
 30
0.0
 40
0
 41
0
  0
VERTEX
  8
0
 10
1.34245
 20
0.642469
 30
0.0
 40
0
 41
0
  0
VERTEX
  8
0
 10
1.34896
 20
0.63596
 30
0.0
 40
0
 41
0
  0
VERTEX
  8
0
 10
1.35547
 20
0.642469
 30
0.0
 40
0
 41
0
  0
SEQEND
 8
0
  0
POLYLINE
  8
0
 62
     173
 66
     1
 10
0
 20
0
 30
0.0
 70
     1
 40
0
 41
0
  0
VERTEX
  8
0
 10
1.37549
 20
0.152453
 30
0.0
 40
0
 41
0
  0
VERTEX
  8
0
 10
1.36898
 20
0.158963
 30
0.0
 40
0
 41
0
  0
VERTEX
  8
0
 10
1.36247
 20
0.152453
 30
0.0
 40
0
 41
0
  0
VERTEX
  8
0
 10
1.36898
 20
0.145942
 30
0.0
 40
0
 41
0
  0
VERTEX
  8
0
 10
1.37549
 20
0.152453
 30
0.0
 40
0
 41
0
  0
SEQEND
 8
0
  0
POLYLINE
  8
0
 62
     173
 66
     1
 10
0
 20
0
 30
0.0
 70
     1
 40
0
 41
0
  0
VERTEX
  8
0
 10
1.38026
 20
1.36127
 30
0.0
 40
0
 41
0
  0
VERTEX
  8
0
 10
1.37375
 20
1.36778
 30
0.0
 40
0
 41
0
  0
VERTEX
  8
0
 10
1.3673
 20
1.36127
 30
0.0
 40
0
 41
0
  0
VERTEX
  8
0
 10
1.37375
 20
1.35476
 30
0.0
 40
0
 41
0
  0
VERTEX
  8
0
 10
1.38026
 20
1.36127
 30
0.0
 40
0
 41
0
  0
SEQEND
 8
0
  0
POLYLINE
  8
0
 62
     173
 66
     1
 10
0
 20
0
 30
0.0
 70
     1
 40
0
 41
0
  0
VERTEX
  8
0
 10
1.38547
 20
0.0974393
 30
0.0
 40
0
 41
0
  0
VERTEX
  8
0
 10
1.37896
 20
0.10395
 30
0.0
 40
0
 41
0
  0
VERTEX
  8
0
 10
1.37245
 20
0.0974393
 30
0.0
 40
0
 41
0
  0
VERTEX
  8
0
 10
1.37896
 20
0.0909289
 30
0.0
 40
0
 41
0
  0
VERTEX
  8
0
 10
1.38547
 20
0.0974393
 30
0.0
 40
0
 41
0
  0
SEQEND
 8
0
  0
POLYLINE
  8
0
 62
     173
 66
     1
 10
0
 20
0
 30
0.0
 70
     1
 40
0
 41
0
  0
VERTEX
  8
0
 10
1.39025
 20
1.44624
 30
0.0
 40
0
 41
0
  0
VERTEX
  8
0
 10
1.38373
 20
1.45275
 30
0.0
 40
0
 41
0
  0
VERTEX
  8
0
 10
1.37728
 20
1.44624
 30
0.0
 40
0
 41
0
  0
VERTEX
  8
0
 10
1.38373
 20
1.43972
 30
0.0
 40
0
 41
0
  0
VERTEX
  8
0
 10
1.39025
 20
1.44624
 30
0.0
 40
0
 41
0
  0
SEQEND
 8
0
  0
POLYLINE
  8
0
 62
     173
 66
     1
 10
0
 20
0
 30
0.0
 70
     1
 40
0
 41
0
  0
VERTEX
  8
0
 10
1.40028
 20
1.19623
 30
0.0
 40
0
 41
0
  0
VERTEX
  8
0
 10
1.39378
 20
1.20275
 30
0.0
 40
0
 41
0
  0
VERTEX
  8
0
 10
1.38726
 20
1.19623
 30
0.0
 40
0
 41
0
  0
VERTEX
  8
0
 10
1.39378
 20
1.18973
 30
0.0
 40
0
 41
0
  0
VERTEX
  8
0
 10
1.40028
 20
1.19623
 30
0.0
 40
0
 41
0
  0
SEQEND
 8
0
  0
POLYLINE
  8
0
 62
     173
 66
     1
 10
0
 20
0
 30
0.0
 70
     1
 40
0
 41
0
  0
VERTEX
  8
0
 10
1.41026
 20
1.33127
 30
0.0
 40
0
 41
0
  0
VERTEX
  8
0
 10
1.40375
 20
1.33778
 30
0.0
 40
0
 41
0
  0
VERTEX
  8
0
 10
1.39725
 20
1.33127
 30
0.0
 40
0
 41
0
  0
VERTEX
  8
0
 10
1.40375
 20
1.32476
 30
0.0
 40
0
 41
0
  0
VERTEX
  8
0
 10
1.41026
 20
1.33127
 30
0.0
 40
0
 41
0
  0
SEQEND
 8
0
  0
POLYLINE
  8
0
 62
     173
 66
     1
 10
0
 20
0
 30
0.0
 70
     1
 40
0
 41
0
  0
VERTEX
  8
0
 10
1.44026
 20
1.30127
 30
0.0
 40
0
 41
0
  0
VERTEX
  8
0
 10
1.43375
 20
1.30778
 30
0.0
 40
0
 41
0
  0
VERTEX
  8
0
 10
1.42725
 20
1.30127
 30
0.0
 40
0
 41
0
  0
VERTEX
  8
0
 10
1.43375
 20
1.29476
 30
0.0
 40
0
 41
0
  0
VERTEX
  8
0
 10
1.44026
 20
1.30127
 30
0.0
 40
0
 41
0
  0
SEQEND
 8
0
  0
POLYLINE
  8
0
 62
     173
 66
     1
 10
0
 20
0
 30
0.0
 70
     1
 40
0
 41
0
  0
VERTEX
  8
0
 10
1.44526
 20
1.58128
 30
0.0
 40
0
 41
0
  0
VERTEX
  8
0
 10
1.43875
 20
1.58778
 30
0.0
 40
0
 41
0
  0
VERTEX
  8
0
 10
1.43229
 20
1.58128
 30
0.0
 40
0
 41
0
  0
VERTEX
  8
0
 10
1.43875
 20
1.57476
 30
0.0
 40
0
 41
0
  0
VERTEX
  8
0
 10
1.44526
 20
1.58128
 30
0.0
 40
0
 41
0
  0
SEQEND
 8
0
  0
POLYLINE
  8
0
 62
     173
 66
     1
 10
0
 20
0
 30
0.0
 70
     1
 40
0
 41
0
  0
VERTEX
  8
0
 10
1.48025
 20
1.30127
 30
0.0
 40
0
 41
0
  0
VERTEX
  8
0
 10
1.47374
 20
1.30778
 30
0.0
 40
0
 41
0
  0
VERTEX
  8
0
 10
1.46729
 20
1.30127
 30
0.0
 40
0
 41
0
  0
VERTEX
  8
0
 10
1.47374
 20
1.29476
 30
0.0
 40
0
 41
0
  0
VERTEX
  8
0
 10
1.48025
 20
1.30127
 30
0.0
 40
0
 41
0
  0
SEQEND
 8
0
  0
POLYLINE
  8
0
 62
     173
 66
     1
 10
0
 20
0
 30
0.0
 70
     1
 40
0
 41
0
  0
VERTEX
  8
0
 10
1.48529
 20
1.63124
 30
0.0
 40
0
 41
0
  0
VERTEX
  8
0
 10
1.47879
 20
1.63775
 30
0.0
 40
0
 41
0
  0
VERTEX
  8
0
 10
1.47228
 20
1.63124
 30
0.0
 40
0
 41
0
  0
VERTEX
  8
0
 10
1.47879
 20
1.62472
 30
0.0
 40
0
 41
0
  0
VERTEX
  8
0
 10
1.48529
 20
1.63124
 30
0.0
 40
0
 41
0
  0
SEQEND
 8
0
  0
POLYLINE
  8
0
 62
     173
 66
     1
 10
0
 20
0
 30
0.0
 70
     1
 40
0
 41
0
  0
VERTEX
  8
0
 10
1.48876
 20
1.25125
 30
0.0
 40
0
 41
0
  0
VERTEX
  8
0
 10
1.48226
 20
1.25776
 30
0.0
 40
0
 41
0
  0
VERTEX
  8
0
 10
1.47575
 20
1.25125
 30
0.0
 40
0
 41
0
  0
VERTEX
  8
0
 10
1.48226
 20
1.24474
 30
0.0
 40
0
 41
0
  0
VERTEX
  8
0
 10
1.48876
 20
1.25125
 30
0.0
 40
0
 41
0
  0
SEQEND
 8
0
  0
POLYLINE
  8
0
 62
     173
 66
     1
 10
0
 20
0
 30
0.0
 70
     1
 40
0
 41
0
  0
VERTEX
  8
0
 10
1.49029
 20
1.20627
 30
0.0
 40
0
 41
0
  0
VERTEX
  8
0
 10
1.48378
 20
1.21278
 30
0.0
 40
0
 41
0
  0
VERTEX
  8
0
 10
1.47726
 20
1.20627
 30
0.0
 40
0
 41
0
  0
VERTEX
  8
0
 10
1.48378
 20
1.19976
 30
0.0
 40
0
 41
0
  0
VERTEX
  8
0
 10
1.49029
 20
1.20627
 30
0.0
 40
0
 41
0
  0
SEQEND
 8
0
  0
POLYLINE
  8
0
 62
     173
 66
     1
 10
0
 20
0
 30
0.0
 70
     1
 40
0
 41
0
  0
VERTEX
  8
0
 10
1.50049
 20
0.687446
 30
0.0
 40
0
 41
0
  0
VERTEX
  8
0
 10
1.49397
 20
0.693956
 30
0.0
 40
0
 41
0
  0
VERTEX
  8
0
 10
1.48747
 20
0.687446
 30
0.0
 40
0
 41
0
  0
VERTEX
  8
0
 10
1.49397
 20
0.680935
 30
0.0
 40
0
 41
0
  0
VERTEX
  8
0
 10
1.50049
 20
0.687446
 30
0.0
 40
0
 41
0
  0
SEQEND
 8
0
  0
POLYLINE
  8
0
 62
     173
 66
     1
 10
0
 20
0
 30
0.0
 70
     1
 40
0
 41
0
  0
VERTEX
  8
0
 10
1.50336
 20
1.12934
 30
0.0
 40
0
 41
0
  0
VERTEX
  8
0
 10
1.49685
 20
1.13585
 30
0.0
 40
0
 41
0
  0
VERTEX
  8
0
 10
1.4904
 20
1.12934
 30
0.0
 40
0
 41
0
  0
VERTEX
  8
0
 10
1.49685
 20
1.12283
 30
0.0
 40
0
 41
0
  0
VERTEX
  8
0
 10
1.50336
 20
1.12934
 30
0.0
 40
0
 41
0
  0
SEQEND
 8
0
  0
POLYLINE
  8
0
 62
     173
 66
     1
 10
0
 20
0
 30
0.0
 70
     1
 40
0
 41
0
  0
VERTEX
  8
0
 10
1.56526
 20
1.80626
 30
0.0
 40
0
 41
0
  0
VERTEX
  8
0
 10
1.55875
 20
1.81278
 30
0.0
 40
0
 41
0
  0
VERTEX
  8
0
 10
1.55225
 20
1.80626
 30
0.0
 40
0
 41
0
  0
VERTEX
  8
0
 10
1.55875
 20
1.79975
 30
0.0
 40
0
 41
0
  0
VERTEX
  8
0
 10
1.56526
 20
1.80626
 30
0.0
 40
0
 41
0
  0
SEQEND
 8
0
  0
POLYLINE
  8
0
 62
     173
 66
     1
 10
0
 20
0
 30
0.0
 70
     1
 40
0
 41
0
  0
VERTEX
  8
0
 10
1.5905
 20
0.492458
 30
0.0
 40
0
 41
0
  0
VERTEX
  8
0
 10
1.58399
 20
0.498969
 30
0.0
 40
0
 41
0
  0
VERTEX
  8
0
 10
1.57747
 20
0.492458
 30
0.0
 40
0
 41
0
  0
VERTEX
  8
0
 10
1.58399
 20
0.485949
 30
0.0
 40
0
 41
0
  0
VERTEX
  8
0
 10
1.5905
 20
0.492458
 30
0.0
 40
0
 41
0
  0
SEQEND
 8
0
  0
POLYLINE
  8
0
 62
     173
 66
     1
 10
0
 20
0
 30
0.0
 70
     1
 40
0
 41
0
  0
VERTEX
  8
0
 10
1.5905
 20
0.347439
 30
0.0
 40
0
 41
0
  0
VERTEX
  8
0
 10
1.58399
 20
0.35395
 30
0.0
 40
0
 41
0
  0
VERTEX
  8
0
 10
1.57747
 20
0.347439
 30
0.0
 40
0
 41
0
  0
VERTEX
  8
0
 10
1.58399
 20
0.340929
 30
0.0
 40
0
 41
0
  0
VERTEX
  8
0
 10
1.5905
 20
0.347439
 30
0.0
 40
0
 41
0
  0
SEQEND
 8
0
  0
POLYLINE
  8
0
 62
     173
 66
     1
 10
0
 20
0
 30
0.0
 70
     1
 40
0
 41
0
  0
VERTEX
  8
0
 10
1.5905
 20
0.302463
 30
0.0
 40
0
 41
0
  0
VERTEX
  8
0
 10
1.58399
 20
0.308974
 30
0.0
 40
0
 41
0
  0
VERTEX
  8
0
 10
1.57747
 20
0.302463
 30
0.0
 40
0
 41
0
  0
VERTEX
  8
0
 10
1.58399
 20
0.295953
 30
0.0
 40
0
 41
0
  0
VERTEX
  8
0
 10
1.5905
 20
0.302463
 30
0.0
 40
0
 41
0
  0
SEQEND
 8
0
  0
POLYLINE
  8
0
 62
     173
 66
     1
 10
0
 20
0
 30
0.0
 70
     1
 40
0
 41
0
  0
VERTEX
  8
0
 10
1.5905
 20
0.232422
 30
0.0
 40
0
 41
0
  0
VERTEX
  8
0
 10
1.58399
 20
0.238932
 30
0.0
 40
0
 41
0
  0
VERTEX
  8
0
 10
1.57747
 20
0.232422
 30
0.0
 40
0
 41
0
  0
VERTEX
  8
0
 10
1.58399
 20
0.225965
 30
0.0
 40
0
 41
0
  0
VERTEX
  8
0
 10
1.5905
 20
0.232422
 30
0.0
 40
0
 41
0
  0
SEQEND
 8
0
  0
POLYLINE
  8
0
 62
     173
 66
     1
 10
0
 20
0
 30
0.0
 70
     1
 40
0
 41
0
  0
VERTEX
  8
0
 10
1.61529
 20
1.54622
 30
0.0
 40
0
 41
0
  0
VERTEX
  8
0
 10
1.60878
 20
1.55274
 30
0.0
 40
0
 41
0
  0
VERTEX
  8
0
 10
1.60226
 20
1.54622
 30
0.0
 40
0
 41
0
  0
VERTEX
  8
0
 10
1.60878
 20
1.53976
 30
0.0
 40
0
 41
0
  0
VERTEX
  8
0
 10
1.61529
 20
1.54622
 30
0.0
 40
0
 41
0
  0
SEQEND
 8
0
  0
POLYLINE
  8
0
 62
     173
 66
     1
 10
0
 20
0
 30
0.0
 70
     1
 40
0
 41
0
  0
VERTEX
  8
0
 10
1.62028
 20
1.30127
 30
0.0
 40
0
 41
0
  0
VERTEX
  8
0
 10
1.61376
 20
1.30778
 30
0.0
 40
0
 41
0
  0
VERTEX
  8
0
 10
1.60726
 20
1.30127
 30
0.0
 40
0
 41
0
  0
VERTEX
  8
0
 10
1.61376
 20
1.29476
 30
0.0
 40
0
 41
0
  0
VERTEX
  8
0
 10
1.62028
 20
1.30127
 30
0.0
 40
0
 41
0
  0
SEQEND
 8
0
  0
POLYLINE
  8
0
 62
     173
 66
     1
 10
0
 20
0
 30
0.0
 70
     1
 40
0
 41
0
  0
VERTEX
  8
0
 10
1.64025
 20
1.59625
 30
0.0
 40
0
 41
0
  0
VERTEX
  8
0
 10
1.63374
 20
1.60275
 30
0.0
 40
0
 41
0
  0
VERTEX
  8
0
 10
1.62728
 20
1.59625
 30
0.0
 40
0
 41
0
  0
VERTEX
  8
0
 10
1.63374
 20
1.58974
 30
0.0
 40
0
 41
0
  0
VERTEX
  8
0
 10
1.64025
 20
1.59625
 30
0.0
 40
0
 41
0
  0
SEQEND
 8
0
  0
POLYLINE
  8
0
 62
     173
 66
     1
 10
0
 20
0
 30
0.0
 70
     1
 40
0
 41
0
  0
VERTEX
  8
0
 10
1.64025
 20
1.09625
 30
0.0
 40
0
 41
0
  0
VERTEX
  8
0
 10
1.63374
 20
1.10276
 30
0.0
 40
0
 41
0
  0
VERTEX
  8
0
 10
1.62728
 20
1.09625
 30
0.0
 40
0
 41
0
  0
VERTEX
  8
0
 10
1.63374
 20
1.08973
 30
0.0
 40
0
 41
0
  0
VERTEX
  8
0
 10
1.64025
 20
1.09625
 30
0.0
 40
0
 41
0
  0
SEQEND
 8
0
  0
POLYLINE
  8
0
 62
     173
 66
     1
 10
0
 20
0
 30
0.0
 70
     1
 40
0
 41
0
  0
VERTEX
  8
0
 10
1.64046
 20
0.492458
 30
0.0
 40
0
 41
0
  0
VERTEX
  8
0
 10
1.63396
 20
0.498969
 30
0.0
 40
0
 41
0
  0
VERTEX
  8
0
 10
1.6275
 20
0.492458
 30
0.0
 40
0
 41
0
  0
VERTEX
  8
0
 10
1.63396
 20
0.485949
 30
0.0
 40
0
 41
0
  0
VERTEX
  8
0
 10
1.64046
 20
0.492458
 30
0.0
 40
0
 41
0
  0
SEQEND
 8
0
  0
POLYLINE
  8
0
 62
     173
 66
     1
 10
0
 20
0
 30
0.0
 70
     1
 40
0
 41
0
  0
VERTEX
  8
0
 10
1.69026
 20
1.67122
 30
0.0
 40
0
 41
0
  0
VERTEX
  8
0
 10
1.68375
 20
1.67774
 30
0.0
 40
0
 41
0
  0
VERTEX
  8
0
 10
1.67725
 20
1.67122
 30
0.0
 40
0
 41
0
  0
VERTEX
  8
0
 10
1.68375
 20
1.66476
 30
0.0
 40
0
 41
0
  0
VERTEX
  8
0
 10
1.69026
 20
1.67122
 30
0.0
 40
0
 41
0
  0
SEQEND
 8
0
  0
POLYLINE
  8
0
 62
     173
 66
     1
 10
0
 20
0
 30
0.0
 70
     1
 40
0
 41
0
  0
VERTEX
  8
0
 10
1.70025
 20
1.45628
 30
0.0
 40
0
 41
0
  0
VERTEX
  8
0
 10
1.69374
 20
1.46278
 30
0.0
 40
0
 41
0
  0
VERTEX
  8
0
 10
1.68728
 20
1.45628
 30
0.0
 40
0
 41
0
  0
VERTEX
  8
0
 10
1.69374
 20
1.44976
 30
0.0
 40
0
 41
0
  0
VERTEX
  8
0
 10
1.70025
 20
1.45628
 30
0.0
 40
0
 41
0
  0
SEQEND
 8
0
  0
POLYLINE
  8
0
 62
     173
 66
     1
 10
0
 20
0
 30
0.0
 70
     1
 40
0
 41
0
  0
VERTEX
  8
0
 10
1.70025
 20
1.34625
 30
0.0
 40
0
 41
0
  0
VERTEX
  8
0
 10
1.69374
 20
1.35276
 30
0.0
 40
0
 41
0
  0
VERTEX
  8
0
 10
1.68728
 20
1.34625
 30
0.0
 40
0
 41
0
  0
VERTEX
  8
0
 10
1.69374
 20
1.33973
 30
0.0
 40
0
 41
0
  0
VERTEX
  8
0
 10
1.70025
 20
1.34625
 30
0.0
 40
0
 41
0
  0
SEQEND
 8
0
  0
POLYLINE
  8
0
 62
     173
 66
     1
 10
0
 20
0
 30
0.0
 70
     1
 40
0
 41
0
  0
VERTEX
  8
0
 10
1.70025
 20
1.25624
 30
0.0
 40
0
 41
0
  0
VERTEX
  8
0
 10
1.69374
 20
1.26275
 30
0.0
 40
0
 41
0
  0
VERTEX
  8
0
 10
1.68728
 20
1.25624
 30
0.0
 40
0
 41
0
  0
VERTEX
  8
0
 10
1.69374
 20
1.24973
 30
0.0
 40
0
 41
0
  0
VERTEX
  8
0
 10
1.70025
 20
1.25624
 30
0.0
 40
0
 41
0
  0
SEQEND
 8
0
  0
POLYLINE
  8
0
 62
     173
 66
     1
 10
0
 20
0
 30
0.0
 70
     1
 40
0
 41
0
  0
VERTEX
  8
0
 10
1.72026
 20
2.26124
 30
0.0
 40
0
 41
0
  0
VERTEX
  8
0
 10
1.71376
 20
2.26774
 30
0.0
 40
0
 41
0
  0
VERTEX
  8
0
 10
1.70725
 20
2.26124
 30
0.0
 40
0
 41
0
  0
VERTEX
  8
0
 10
1.71376
 20
2.25478
 30
0.0
 40
0
 41
0
  0
VERTEX
  8
0
 10
1.72026
 20
2.26124
 30
0.0
 40
0
 41
0
  0
SEQEND
 8
0
  0
POLYLINE
  8
0
 62
     173
 66
     1
 10
0
 20
0
 30
0.0
 70
     1
 40
0
 41
0
  0
VERTEX
  8
0
 10
1.72026
 20
2.14626
 30
0.0
 40
0
 41
0
  0
VERTEX
  8
0
 10
1.71376
 20
2.15278
 30
0.0
 40
0
 41
0
  0
VERTEX
  8
0
 10
1.70725
 20
2.14626
 30
0.0
 40
0
 41
0
  0
VERTEX
  8
0
 10
1.71376
 20
2.13976
 30
0.0
 40
0
 41
0
  0
VERTEX
  8
0
 10
1.72026
 20
2.14626
 30
0.0
 40
0
 41
0
  0
SEQEND
 8
0
  0
POLYLINE
  8
0
 62
     173
 66
     1
 10
0
 20
0
 30
0.0
 70
     1
 40
0
 41
0
  0
VERTEX
  8
0
 10
1.74029
 20
1.67122
 30
0.0
 40
0
 41
0
  0
VERTEX
  8
0
 10
1.73378
 20
1.67774
 30
0.0
 40
0
 41
0
  0
VERTEX
  8
0
 10
1.72726
 20
1.67122
 30
0.0
 40
0
 41
0
  0
VERTEX
  8
0
 10
1.73378
 20
1.66476
 30
0.0
 40
0
 41
0
  0
VERTEX
  8
0
 10
1.74029
 20
1.67122
 30
0.0
 40
0
 41
0
  0
SEQEND
 8
0
  0
POLYLINE
  8
0
 62
     173
 66
     1
 10
0
 20
0
 30
0.0
 70
     1
 40
0
 41
0
  0
VERTEX
  8
0
 10
1.74029
 20
1.53125
 30
0.0
 40
0
 41
0
  0
VERTEX
  8
0
 10
1.73378
 20
1.53776
 30
0.0
 40
0
 41
0
  0
VERTEX
  8
0
 10
1.72726
 20
1.53125
 30
0.0
 40
0
 41
0
  0
VERTEX
  8
0
 10
1.73378
 20
1.52474
 30
0.0
 40
0
 41
0
  0
VERTEX
  8
0
 10
1.74029
 20
1.53125
 30
0.0
 40
0
 41
0
  0
SEQEND
 8
0
  0
POLYLINE
  8
0
 62
     173
 66
     1
 10
0
 20
0
 30
0.0
 70
     1
 40
0
 41
0
  0
VERTEX
  8
0
 10
1.74046
 20
0.492458
 30
0.0
 40
0
 41
0
  0
VERTEX
  8
0
 10
1.73394
 20
0.498969
 30
0.0
 40
0
 41
0
  0
VERTEX
  8
0
 10
1.72749
 20
0.492458
 30
0.0
 40
0
 41
0
  0
VERTEX
  8
0
 10
1.73394
 20
0.485949
 30
0.0
 40
0
 41
0
  0
VERTEX
  8
0
 10
1.74046
 20
0.492458
 30
0.0
 40
0
 41
0
  0
SEQEND
 8
0
  0
POLYLINE
  8
0
 62
     173
 66
     1
 10
0
 20
0
 30
0.0
 70
     1
 40
0
 41
0
  0
VERTEX
  8
0
 10
1.74046
 20
0.232422
 30
0.0
 40
0
 41
0
  0
VERTEX
  8
0
 10
1.73394
 20
0.238932
 30
0.0
 40
0
 41
0
  0
VERTEX
  8
0
 10
1.72749
 20
0.232422
 30
0.0
 40
0
 41
0
  0
VERTEX
  8
0
 10
1.73394
 20
0.225965
 30
0.0
 40
0
 41
0
  0
VERTEX
  8
0
 10
1.74046
 20
0.232422
 30
0.0
 40
0
 41
0
  0
SEQEND
 8
0
  0
POLYLINE
  8
0
 62
     173
 66
     1
 10
0
 20
0
 30
0.0
 70
     1
 40
0
 41
0
  0
VERTEX
  8
0
 10
1.74528
 20
2.06125
 30
0.0
 40
0
 41
0
  0
VERTEX
  8
0
 10
1.73876
 20
2.06776
 30
0.0
 40
0
 41
0
  0
VERTEX
  8
0
 10
1.73226
 20
2.06125
 30
0.0
 40
0
 41
0
  0
VERTEX
  8
0
 10
1.73876
 20
2.05474
 30
0.0
 40
0
 41
0
  0
VERTEX
  8
0
 10
1.74528
 20
2.06125
 30
0.0
 40
0
 41
0
  0
SEQEND
 8
0
  0
POLYLINE
  8
0
 62
     173
 66
     1
 10
0
 20
0
 30
0.0
 70
     1
 40
0
 41
0
  0
VERTEX
  8
0
 10
1.74528
 20
1.93625
 30
0.0
 40
0
 41
0
  0
VERTEX
  8
0
 10
1.73876
 20
1.94276
 30
0.0
 40
0
 41
0
  0
VERTEX
  8
0
 10
1.73226
 20
1.93625
 30
0.0
 40
0
 41
0
  0
VERTEX
  8
0
 10
1.73876
 20
1.92974
 30
0.0
 40
0
 41
0
  0
VERTEX
  8
0
 10
1.74528
 20
1.93625
 30
0.0
 40
0
 41
0
  0
SEQEND
 8
0
  0
POLYLINE
  8
0
 62
     173
 66
     1
 10
0
 20
0
 30
0.0
 70
     1
 40
0
 41
0
  0
VERTEX
  8
0
 10
1.74528
 20
1.34625
 30
0.0
 40
0
 41
0
  0
VERTEX
  8
0
 10
1.73876
 20
1.35276
 30
0.0
 40
0
 41
0
  0
VERTEX
  8
0
 10
1.73226
 20
1.34625
 30
0.0
 40
0
 41
0
  0
VERTEX
  8
0
 10
1.73876
 20
1.33973
 30
0.0
 40
0
 41
0
  0
VERTEX
  8
0
 10
1.74528
 20
1.34625
 30
0.0
 40
0
 41
0
  0
SEQEND
 8
0
  0
POLYLINE
  8
0
 62
     173
 66
     1
 10
0
 20
0
 30
0.0
 70
     1
 40
0
 41
0
  0
VERTEX
  8
0
 10
1.74528
 20
1.25624
 30
0.0
 40
0
 41
0
  0
VERTEX
  8
0
 10
1.73876
 20
1.26275
 30
0.0
 40
0
 41
0
  0
VERTEX
  8
0
 10
1.73226
 20
1.25624
 30
0.0
 40
0
 41
0
  0
VERTEX
  8
0
 10
1.73876
 20
1.24973
 30
0.0
 40
0
 41
0
  0
VERTEX
  8
0
 10
1.74528
 20
1.25624
 30
0.0
 40
0
 41
0
  0
SEQEND
 8
0
  0
POLYLINE
  8
0
 62
     173
 66
     1
 10
0
 20
0
 30
0.0
 70
     1
 40
0
 41
0
  0
VERTEX
  8
0
 10
1.77029
 20
2.26124
 30
0.0
 40
0
 41
0
  0
VERTEX
  8
0
 10
1.76378
 20
2.26774
 30
0.0
 40
0
 41
0
  0
VERTEX
  8
0
 10
1.75726
 20
2.26124
 30
0.0
 40
0
 41
0
  0
VERTEX
  8
0
 10
1.76378
 20
2.25478
 30
0.0
 40
0
 41
0
  0
VERTEX
  8
0
 10
1.77029
 20
2.26124
 30
0.0
 40
0
 41
0
  0
SEQEND
 8
0
  0
POLYLINE
  8
0
 62
     173
 66
     1
 10
0
 20
0
 30
0.0
 70
     1
 40
0
 41
0
  0
VERTEX
  8
0
 10
1.79025
 20
1.67122
 30
0.0
 40
0
 41
0
  0
VERTEX
  8
0
 10
1.78375
 20
1.67774
 30
0.0
 40
0
 41
0
  0
VERTEX
  8
0
 10
1.77729
 20
1.67122
 30
0.0
 40
0
 41
0
  0
VERTEX
  8
0
 10
1.78375
 20
1.66476
 30
0.0
 40
0
 41
0
  0
VERTEX
  8
0
 10
1.79025
 20
1.67122
 30
0.0
 40
0
 41
0
  0
SEQEND
 8
0
  0
POLYLINE
  8
0
 62
     173
 66
     1
 10
0
 20
0
 30
0.0
 70
     1
 40
0
 41
0
  0
VERTEX
  8
0
 10
1.79025
 20
1.53125
 30
0.0
 40
0
 41
0
  0
VERTEX
  8
0
 10
1.78375
 20
1.53776
 30
0.0
 40
0
 41
0
  0
VERTEX
  8
0
 10
1.77729
 20
1.53125
 30
0.0
 40
0
 41
0
  0
VERTEX
  8
0
 10
1.78375
 20
1.52474
 30
0.0
 40
0
 41
0
  0
VERTEX
  8
0
 10
1.79025
 20
1.53125
 30
0.0
 40
0
 41
0
  0
SEQEND
 8
0
  0
POLYLINE
  8
0
 62
     173
 66
     1
 10
0
 20
0
 30
0.0
 70
     1
 40
0
 41
0
  0
VERTEX
  8
0
 10
1.79025
 20
1.42626
 30
0.0
 40
0
 41
0
  0
VERTEX
  8
0
 10
1.78375
 20
1.43278
 30
0.0
 40
0
 41
0
  0
VERTEX
  8
0
 10
1.77729
 20
1.42626
 30
0.0
 40
0
 41
0
  0
VERTEX
  8
0
 10
1.78375
 20
1.41976
 30
0.0
 40
0
 41
0
  0
VERTEX
  8
0
 10
1.79025
 20
1.42626
 30
0.0
 40
0
 41
0
  0
SEQEND
 8
0
  0
POLYLINE
  8
0
 62
     173
 66
     1
 10
0
 20
0
 30
0.0
 70
     1
 40
0
 41
0
  0
VERTEX
  8
0
 10
1.79025
 20
1.34625
 30
0.0
 40
0
 41
0
  0
VERTEX
  8
0
 10
1.78375
 20
1.35276
 30
0.0
 40
0
 41
0
  0
VERTEX
  8
0
 10
1.77729
 20
1.34625
 30
0.0
 40
0
 41
0
  0
VERTEX
  8
0
 10
1.78375
 20
1.33973
 30
0.0
 40
0
 41
0
  0
VERTEX
  8
0
 10
1.79025
 20
1.34625
 30
0.0
 40
0
 41
0
  0
SEQEND
 8
0
  0
POLYLINE
  8
0
 62
     173
 66
     1
 10
0
 20
0
 30
0.0
 70
     1
 40
0
 41
0
  0
VERTEX
  8
0
 10
1.79025
 20
1.25624
 30
0.0
 40
0
 41
0
  0
VERTEX
  8
0
 10
1.78375
 20
1.26275
 30
0.0
 40
0
 41
0
  0
VERTEX
  8
0
 10
1.77729
 20
1.25624
 30
0.0
 40
0
 41
0
  0
VERTEX
  8
0
 10
1.78375
 20
1.24973
 30
0.0
 40
0
 41
0
  0
VERTEX
  8
0
 10
1.79025
 20
1.25624
 30
0.0
 40
0
 41
0
  0
SEQEND
 8
0
  0
POLYLINE
  8
0
 62
     173
 66
     1
 10
0
 20
0
 30
0.0
 70
     1
 40
0
 41
0
  0
VERTEX
  8
0
 10
1.79047
 20
0.492458
 30
0.0
 40
0
 41
0
  0
VERTEX
  8
0
 10
1.78396
 20
0.498969
 30
0.0
 40
0
 41
0
  0
VERTEX
  8
0
 10
1.77746
 20
0.492458
 30
0.0
 40
0
 41
0
  0
VERTEX
  8
0
 10
1.78396
 20
0.485949
 30
0.0
 40
0
 41
0
  0
VERTEX
  8
0
 10
1.79047
 20
0.492458
 30
0.0
 40
0
 41
0
  0
SEQEND
 8
0
  0
POLYLINE
  8
0
 62
     173
 66
     1
 10
0
 20
0
 30
0.0
 70
     1
 40
0
 41
0
  0
VERTEX
  8
0
 10
1.79047
 20
0.302463
 30
0.0
 40
0
 41
0
  0
VERTEX
  8
0
 10
1.78396
 20
0.308974
 30
0.0
 40
0
 41
0
  0
VERTEX
  8
0
 10
1.77746
 20
0.302463
 30
0.0
 40
0
 41
0
  0
VERTEX
  8
0
 10
1.78396
 20
0.295953
 30
0.0
 40
0
 41
0
  0
VERTEX
  8
0
 10
1.79047
 20
0.302463
 30
0.0
 40
0
 41
0
  0
SEQEND
 8
0
  0
POLYLINE
  8
0
 62
     173
 66
     1
 10
0
 20
0
 30
0.0
 70
     1
 40
0
 41
0
  0
VERTEX
  8
0
 10
1.79047
 20
0.232422
 30
0.0
 40
0
 41
0
  0
VERTEX
  8
0
 10
1.78396
 20
0.238932
 30
0.0
 40
0
 41
0
  0
VERTEX
  8
0
 10
1.77746
 20
0.232422
 30
0.0
 40
0
 41
0
  0
VERTEX
  8
0
 10
1.78396
 20
0.225965
 30
0.0
 40
0
 41
0
  0
VERTEX
  8
0
 10
1.79047
 20
0.232422
 30
0.0
 40
0
 41
0
  0
SEQEND
 8
0
  0
POLYLINE
  8
0
 62
     173
 66
     1
 10
0
 20
0
 30
0.0
 70
     1
 40
0
 41
0
  0
VERTEX
  8
0
 10
1.79525
 20
2.06125
 30
0.0
 40
0
 41
0
  0
VERTEX
  8
0
 10
1.78874
 20
2.06776
 30
0.0
 40
0
 41
0
  0
VERTEX
  8
0
 10
1.78228
 20
2.06125
 30
0.0
 40
0
 41
0
  0
VERTEX
  8
0
 10
1.78874
 20
2.05474
 30
0.0
 40
0
 41
0
  0
VERTEX
  8
0
 10
1.79525
 20
2.06125
 30
0.0
 40
0
 41
0
  0
SEQEND
 8
0
  0
POLYLINE
  8
0
 62
     173
 66
     1
 10
0
 20
0
 30
0.0
 70
     1
 40
0
 41
0
  0
VERTEX
  8
0
 10
1.81549
 20
0.437446
 30
0.0
 40
0
 41
0
  0
VERTEX
  8
0
 10
1.80897
 20
0.443956
 30
0.0
 40
0
 41
0
  0
VERTEX
  8
0
 10
1.80246
 20
0.437446
 30
0.0
 40
0
 41
0
  0
VERTEX
  8
0
 10
1.80897
 20
0.430935
 30
0.0
 40
0
 41
0
  0
VERTEX
  8
0
 10
1.81549
 20
0.437446
 30
0.0
 40
0
 41
0
  0
SEQEND
 8
0
  0
POLYLINE
  8
0
 62
     173
 66
     1
 10
0
 20
0
 30
0.0
 70
     1
 40
0
 41
0
  0
VERTEX
  8
0
 10
1.82026
 20
2.26124
 30
0.0
 40
0
 41
0
  0
VERTEX
  8
0
 10
1.81375
 20
2.26774
 30
0.0
 40
0
 41
0
  0
VERTEX
  8
0
 10
1.80729
 20
2.26124
 30
0.0
 40
0
 41
0
  0
VERTEX
  8
0
 10
1.81375
 20
2.25478
 30
0.0
 40
0
 41
0
  0
VERTEX
  8
0
 10
1.82026
 20
2.26124
 30
0.0
 40
0
 41
0
  0
SEQEND
 8
0
  0
POLYLINE
  8
0
 62
     173
 66
     1
 10
0
 20
0
 30
0.0
 70
     1
 40
0
 41
0
  0
VERTEX
  8
0
 10
1.82026
 20
2.14626
 30
0.0
 40
0
 41
0
  0
VERTEX
  8
0
 10
1.81375
 20
2.15278
 30
0.0
 40
0
 41
0
  0
VERTEX
  8
0
 10
1.80729
 20
2.14626
 30
0.0
 40
0
 41
0
  0
VERTEX
  8
0
 10
1.81375
 20
2.13976
 30
0.0
 40
0
 41
0
  0
VERTEX
  8
0
 10
1.82026
 20
2.14626
 30
0.0
 40
0
 41
0
  0
SEQEND
 8
0
  0
POLYLINE
  8
0
 62
     173
 66
     1
 10
0
 20
0
 30
0.0
 70
     1
 40
0
 41
0
  0
VERTEX
  8
0
 10
1.84028
 20
1.93625
 30
0.0
 40
0
 41
0
  0
VERTEX
  8
0
 10
1.83376
 20
1.94276
 30
0.0
 40
0
 41
0
  0
VERTEX
  8
0
 10
1.82726
 20
1.93625
 30
0.0
 40
0
 41
0
  0
VERTEX
  8
0
 10
1.83376
 20
1.92974
 30
0.0
 40
0
 41
0
  0
VERTEX
  8
0
 10
1.84028
 20
1.93625
 30
0.0
 40
0
 41
0
  0
SEQEND
 8
0
  0
POLYLINE
  8
0
 62
     173
 66
     1
 10
0
 20
0
 30
0.0
 70
     1
 40
0
 41
0
  0
VERTEX
  8
0
 10
1.84028
 20
1.67122
 30
0.0
 40
0
 41
0
  0
VERTEX
  8
0
 10
1.83376
 20
1.67774
 30
0.0
 40
0
 41
0
  0
VERTEX
  8
0
 10
1.82726
 20
1.67122
 30
0.0
 40
0
 41
0
  0
VERTEX
  8
0
 10
1.83376
 20
1.66476
 30
0.0
 40
0
 41
0
  0
VERTEX
  8
0
 10
1.84028
 20
1.67122
 30
0.0
 40
0
 41
0
  0
SEQEND
 8
0
  0
POLYLINE
  8
0
 62
     173
 66
     1
 10
0
 20
0
 30
0.0
 70
     1
 40
0
 41
0
  0
VERTEX
  8
0
 10
1.84028
 20
1.53125
 30
0.0
 40
0
 41
0
  0
VERTEX
  8
0
 10
1.83376
 20
1.53776
 30
0.0
 40
0
 41
0
  0
VERTEX
  8
0
 10
1.82726
 20
1.53125
 30
0.0
 40
0
 41
0
  0
VERTEX
  8
0
 10
1.83376
 20
1.52474
 30
0.0
 40
0
 41
0
  0
VERTEX
  8
0
 10
1.84028
 20
1.53125
 30
0.0
 40
0
 41
0
  0
SEQEND
 8
0
  0
POLYLINE
  8
0
 62
     173
 66
     1
 10
0
 20
0
 30
0.0
 70
     1
 40
0
 41
0
  0
VERTEX
  8
0
 10
1.84028
 20
1.42626
 30
0.0
 40
0
 41
0
  0
VERTEX
  8
0
 10
1.83376
 20
1.43278
 30
0.0
 40
0
 41
0
  0
VERTEX
  8
0
 10
1.82726
 20
1.42626
 30
0.0
 40
0
 41
0
  0
VERTEX
  8
0
 10
1.83376
 20
1.41976
 30
0.0
 40
0
 41
0
  0
VERTEX
  8
0
 10
1.84028
 20
1.42626
 30
0.0
 40
0
 41
0
  0
SEQEND
 8
0
  0
POLYLINE
  8
0
 62
     173
 66
     1
 10
0
 20
0
 30
0.0
 70
     1
 40
0
 41
0
  0
VERTEX
  8
0
 10
1.84028
 20
1.34625
 30
0.0
 40
0
 41
0
  0
VERTEX
  8
0
 10
1.83376
 20
1.35276
 30
0.0
 40
0
 41
0
  0
VERTEX
  8
0
 10
1.82726
 20
1.34625
 30
0.0
 40
0
 41
0
  0
VERTEX
  8
0
 10
1.83376
 20
1.33973
 30
0.0
 40
0
 41
0
  0
VERTEX
  8
0
 10
1.84028
 20
1.34625
 30
0.0
 40
0
 41
0
  0
SEQEND
 8
0
  0
POLYLINE
  8
0
 62
     173
 66
     1
 10
0
 20
0
 30
0.0
 70
     1
 40
0
 41
0
  0
VERTEX
  8
0
 10
1.84028
 20
1.25624
 30
0.0
 40
0
 41
0
  0
VERTEX
  8
0
 10
1.83376
 20
1.26275
 30
0.0
 40
0
 41
0
  0
VERTEX
  8
0
 10
1.82726
 20
1.25624
 30
0.0
 40
0
 41
0
  0
VERTEX
  8
0
 10
1.83376
 20
1.24973
 30
0.0
 40
0
 41
0
  0
VERTEX
  8
0
 10
1.84028
 20
1.25624
 30
0.0
 40
0
 41
0
  0
SEQEND
 8
0
  0
POLYLINE
  8
0
 62
     173
 66
     1
 10
0
 20
0
 30
0.0
 70
     1
 40
0
 41
0
  0
VERTEX
  8
0
 10
1.8405
 20
0.492458
 30
0.0
 40
0
 41
0
  0
VERTEX
  8
0
 10
1.83399
 20
0.498969
 30
0.0
 40
0
 41
0
  0
VERTEX
  8
0
 10
1.82747
 20
0.492458
 30
0.0
 40
0
 41
0
  0
VERTEX
  8
0
 10
1.83399
 20
0.485949
 30
0.0
 40
0
 41
0
  0
VERTEX
  8
0
 10
1.8405
 20
0.492458
 30
0.0
 40
0
 41
0
  0
SEQEND
 8
0
  0
POLYLINE
  8
0
 62
     173
 66
     1
 10
0
 20
0
 30
0.0
 70
     1
 40
0
 41
0
  0
VERTEX
  8
0
 10
1.8405
 20
0.302463
 30
0.0
 40
0
 41
0
  0
VERTEX
  8
0
 10
1.83399
 20
0.308974
 30
0.0
 40
0
 41
0
  0
VERTEX
  8
0
 10
1.82747
 20
0.302463
 30
0.0
 40
0
 41
0
  0
VERTEX
  8
0
 10
1.83399
 20
0.295953
 30
0.0
 40
0
 41
0
  0
VERTEX
  8
0
 10
1.8405
 20
0.302463
 30
0.0
 40
0
 41
0
  0
SEQEND
 8
0
  0
POLYLINE
  8
0
 62
     173
 66
     1
 10
0
 20
0
 30
0.0
 70
     1
 40
0
 41
0
  0
VERTEX
  8
0
 10
1.8405
 20
0.232422
 30
0.0
 40
0
 41
0
  0
VERTEX
  8
0
 10
1.83399
 20
0.238932
 30
0.0
 40
0
 41
0
  0
VERTEX
  8
0
 10
1.82747
 20
0.232422
 30
0.0
 40
0
 41
0
  0
VERTEX
  8
0
 10
1.83399
 20
0.225965
 30
0.0
 40
0
 41
0
  0
VERTEX
  8
0
 10
1.8405
 20
0.232422
 30
0.0
 40
0
 41
0
  0
SEQEND
 8
0
  0
POLYLINE
  8
0
 62
     173
 66
     1
 10
0
 20
0
 30
0.0
 70
     1
 40
0
 41
0
  0
VERTEX
  8
0
 10
1.89046
 20
0.232422
 30
0.0
 40
0
 41
0
  0
VERTEX
  8
0
 10
1.88396
 20
0.238932
 30
0.0
 40
0
 41
0
  0
VERTEX
  8
0
 10
1.8775
 20
0.232422
 30
0.0
 40
0
 41
0
  0
VERTEX
  8
0
 10
1.88396
 20
0.225965
 30
0.0
 40
0
 41
0
  0
VERTEX
  8
0
 10
1.89046
 20
0.232422
 30
0.0
 40
0
 41
0
  0
SEQEND
 8
0
  0
POLYLINE
  8
0
 62
     173
 66
     1
 10
0
 20
0
 30
0.0
 70
     1
 40
0
 41
0
  0
VERTEX
  8
0
 10
1.93028
 20
1.47624
 30
0.0
 40
0
 41
0
  0
VERTEX
  8
0
 10
1.92378
 20
1.48275
 30
0.0
 40
0
 41
0
  0
VERTEX
  8
0
 10
1.91726
 20
1.47624
 30
0.0
 40
0
 41
0
  0
VERTEX
  8
0
 10
1.92378
 20
1.46972
 30
0.0
 40
0
 41
0
  0
VERTEX
  8
0
 10
1.93028
 20
1.47624
 30
0.0
 40
0
 41
0
  0
SEQEND
 8
0
  0
POLYLINE
  8
0
 62
     173
 66
     1
 10
0
 20
0
 30
0.0
 70
     1
 40
0
 41
0
  0
VERTEX
  8
0
 10
1.94026
 20
1.67122
 30
0.0
 40
0
 41
0
  0
VERTEX
  8
0
 10
1.93375
 20
1.67774
 30
0.0
 40
0
 41
0
  0
VERTEX
  8
0
 10
1.92725
 20
1.67122
 30
0.0
 40
0
 41
0
  0
VERTEX
  8
0
 10
1.93375
 20
1.66476
 30
0.0
 40
0
 41
0
  0
VERTEX
  8
0
 10
1.94026
 20
1.67122
 30
0.0
 40
0
 41
0
  0
SEQEND
 8
0
  0
POLYLINE
  8
0
 62
     173
 66
     1
 10
0
 20
0
 30
0.0
 70
     1
 40
0
 41
0
  0
VERTEX
  8
0
 10
1.94049
 20
0.492458
 30
0.0
 40
0
 41
0
  0
VERTEX
  8
0
 10
1.93397
 20
0.498969
 30
0.0
 40
0
 41
0
  0
VERTEX
  8
0
 10
1.92746
 20
0.492458
 30
0.0
 40
0
 41
0
  0
VERTEX
  8
0
 10
1.93397
 20
0.485949
 30
0.0
 40
0
 41
0
  0
VERTEX
  8
0
 10
1.94049
 20
0.492458
 30
0.0
 40
0
 41
0
  0
SEQEND
 8
0
  0
POLYLINE
  8
0
 62
     173
 66
     1
 10
0
 20
0
 30
0.0
 70
     1
 40
0
 41
0
  0
VERTEX
  8
0
 10
1.94049
 20
0.232422
 30
0.0
 40
0
 41
0
  0
VERTEX
  8
0
 10
1.93397
 20
0.238932
 30
0.0
 40
0
 41
0
  0
VERTEX
  8
0
 10
1.92746
 20
0.232422
 30
0.0
 40
0
 41
0
  0
VERTEX
  8
0
 10
1.93397
 20
0.225965
 30
0.0
 40
0
 41
0
  0
VERTEX
  8
0
 10
1.94049
 20
0.232422
 30
0.0
 40
0
 41
0
  0
SEQEND
 8
0
  0
POLYLINE
  8
0
 62
     173
 66
     1
 10
0
 20
0
 30
0.0
 70
     1
 40
0
 41
0
  0
VERTEX
  8
0
 10
1.99029
 20
1.67122
 30
0.0
 40
0
 41
0
  0
VERTEX
  8
0
 10
1.98378
 20
1.67774
 30
0.0
 40
0
 41
0
  0
VERTEX
  8
0
 10
1.97726
 20
1.67122
 30
0.0
 40
0
 41
0
  0
VERTEX
  8
0
 10
1.98378
 20
1.66476
 30
0.0
 40
0
 41
0
  0
VERTEX
  8
0
 10
1.99029
 20
1.67122
 30
0.0
 40
0
 41
0
  0
SEQEND
 8
0
  0
POLYLINE
  8
0
 62
     173
 66
     1
 10
0
 20
0
 30
0.0
 70
     1
 40
0
 41
0
  0
VERTEX
  8
0
 10
1.99046
 20
0.302463
 30
0.0
 40
0
 41
0
  0
VERTEX
  8
0
 10
1.98394
 20
0.308974
 30
0.0
 40
0
 41
0
  0
VERTEX
  8
0
 10
1.97749
 20
0.302463
 30
0.0
 40
0
 41
0
  0
VERTEX
  8
0
 10
1.98394
 20
0.295953
 30
0.0
 40
0
 41
0
  0
VERTEX
  8
0
 10
1.99046
 20
0.302463
 30
0.0
 40
0
 41
0
  0
SEQEND
 8
0
  0
POLYLINE
  8
0
 62
     173
 66
     1
 10
0
 20
0
 30
0.0
 70
     1
 40
0
 41
0
  0
VERTEX
  8
0
 10
1.99046
 20
0.232422
 30
0.0
 40
0
 41
0
  0
VERTEX
  8
0
 10
1.98394
 20
0.238932
 30
0.0
 40
0
 41
0
  0
VERTEX
  8
0
 10
1.97749
 20
0.232422
 30
0.0
 40
0
 41
0
  0
VERTEX
  8
0
 10
1.98394
 20
0.225965
 30
0.0
 40
0
 41
0
  0
VERTEX
  8
0
 10
1.99046
 20
0.232422
 30
0.0
 40
0
 41
0
  0
SEQEND
 8
0
  0
POLYLINE
  8
0
 62
     173
 66
     1
 10
0
 20
0
 30
0.0
 70
     1
 40
0
 41
0
  0
VERTEX
  8
0
 10
2.03526
 20
0.841254
 30
0.0
 40
0
 41
0
  0
VERTEX
  8
0
 10
2.02875
 20
0.847765
 30
0.0
 40
0
 41
0
  0
VERTEX
  8
0
 10
2.02225
 20
0.841254
 30
0.0
 40
0
 41
0
  0
VERTEX
  8
0
 10
2.02875
 20
0.834744
 30
0.0
 40
0
 41
0
  0
VERTEX
  8
0
 10
2.03526
 20
0.841254
 30
0.0
 40
0
 41
0
  0
SEQEND
 8
0
  0
POLYLINE
  8
0
 62
     173
 66
     1
 10
0
 20
0
 30
0.0
 70
     1
 40
0
 41
0
  0
VERTEX
  8
0
 10
2.04025
 20
1.67122
 30
0.0
 40
0
 41
0
  0
VERTEX
  8
0
 10
2.03375
 20
1.67774
 30
0.0
 40
0
 41
0
  0
VERTEX
  8
0
 10
2.02729
 20
1.67122
 30
0.0
 40
0
 41
0
  0
VERTEX
  8
0
 10
2.03375
 20
1.66476
 30
0.0
 40
0
 41
0
  0
VERTEX
  8
0
 10
2.04025
 20
1.67122
 30
0.0
 40
0
 41
0
  0
SEQEND
 8
0
  0
POLYLINE
  8
0
 62
     173
 66
     1
 10
0
 20
0
 30
0.0
 70
     1
 40
0
 41
0
  0
VERTEX
  8
0
 10
2.04047
 20
0.302463
 30
0.0
 40
0
 41
0
  0
VERTEX
  8
0
 10
2.03396
 20
0.308974
 30
0.0
 40
0
 41
0
  0
VERTEX
  8
0
 10
2.02746
 20
0.302463
 30
0.0
 40
0
 41
0
  0
VERTEX
  8
0
 10
2.03396
 20
0.295953
 30
0.0
 40
0
 41
0
  0
VERTEX
  8
0
 10
2.04047
 20
0.302463
 30
0.0
 40
0
 41
0
  0
SEQEND
 8
0
  0
POLYLINE
  8
0
 62
     173
 66
     1
 10
0
 20
0
 30
0.0
 70
     1
 40
0
 41
0
  0
VERTEX
  8
0
 10
2.04047
 20
0.232422
 30
0.0
 40
0
 41
0
  0
VERTEX
  8
0
 10
2.03396
 20
0.238932
 30
0.0
 40
0
 41
0
  0
VERTEX
  8
0
 10
2.02746
 20
0.232422
 30
0.0
 40
0
 41
0
  0
VERTEX
  8
0
 10
2.03396
 20
0.225965
 30
0.0
 40
0
 41
0
  0
VERTEX
  8
0
 10
2.04047
 20
0.232422
 30
0.0
 40
0
 41
0
  0
SEQEND
 8
0
  0
POLYLINE
  8
0
 62
     173
 66
     1
 10
0
 20
0
 30
0.0
 70
     1
 40
0
 41
0
  0
VERTEX
  8
0
 10
2.08529
 20
1.55126
 30
0.0
 40
0
 41
0
  0
VERTEX
  8
0
 10
2.07878
 20
1.55778
 30
0.0
 40
0
 41
0
  0
VERTEX
  8
0
 10
2.07226
 20
1.55126
 30
0.0
 40
0
 41
0
  0
VERTEX
  8
0
 10
2.07878
 20
1.54476
 30
0.0
 40
0
 41
0
  0
VERTEX
  8
0
 10
2.08529
 20
1.55126
 30
0.0
 40
0
 41
0
  0
SEQEND
 8
0
  0
POLYLINE
  8
0
 62
     173
 66
     1
 10
0
 20
0
 30
0.0
 70
     1
 40
0
 41
0
  0
VERTEX
  8
0
 10
2.08529
 20
0.756239
 30
0.0
 40
0
 41
0
  0
VERTEX
  8
0
 10
2.07878
 20
0.76275
 30
0.0
 40
0
 41
0
  0
VERTEX
  8
0
 10
2.07226
 20
0.756239
 30
0.0
 40
0
 41
0
  0
VERTEX
  8
0
 10
2.07878
 20
0.749729
 30
0.0
 40
0
 41
0
  0
VERTEX
  8
0
 10
2.08529
 20
0.756239
 30
0.0
 40
0
 41
0
  0
SEQEND
 8
0
  0
POLYLINE
  8
0
 62
     173
 66
     1
 10
0
 20
0
 30
0.0
 70
     1
 40
0
 41
0
  0
VERTEX
  8
0
 10
2.09028
 20
1.03125
 30
0.0
 40
0
 41
0
  0
VERTEX
  8
0
 10
2.08376
 20
1.03776
 30
0.0
 40
0
 41
0
  0
VERTEX
  8
0
 10
2.07726
 20
1.03125
 30
0.0
 40
0
 41
0
  0
VERTEX
  8
0
 10
2.08376
 20
1.02474
 30
0.0
 40
0
 41
0
  0
VERTEX
  8
0
 10
2.09028
 20
1.03125
 30
0.0
 40
0
 41
0
  0
SEQEND
 8
0
  0
POLYLINE
  8
0
 62
     173
 66
     1
 10
0
 20
0
 30
0.0
 70
     1
 40
0
 41
0
  0
VERTEX
  8
0
 10
2.09028
 20
0.881239
 30
0.0
 40
0
 41
0
  0
VERTEX
  8
0
 10
2.08376
 20
0.88775
 30
0.0
 40
0
 41
0
  0
VERTEX
  8
0
 10
2.07726
 20
0.881239
 30
0.0
 40
0
 41
0
  0
VERTEX
  8
0
 10
2.08376
 20
0.874729
 30
0.0
 40
0
 41
0
  0
VERTEX
  8
0
 10
2.09028
 20
0.881239
 30
0.0
 40
0
 41
0
  0
SEQEND
 8
0
  0
POLYLINE
  8
0
 62
     173
 66
     1
 10
0
 20
0
 30
0.0
 70
     1
 40
0
 41
0
  0
VERTEX
  8
0
 10
2.0905
 20
0.302463
 30
0.0
 40
0
 41
0
  0
VERTEX
  8
0
 10
2.08399
 20
0.308974
 30
0.0
 40
0
 41
0
  0
VERTEX
  8
0
 10
2.07747
 20
0.302463
 30
0.0
 40
0
 41
0
  0
VERTEX
  8
0
 10
2.08399
 20
0.295953
 30
0.0
 40
0
 41
0
  0
VERTEX
  8
0
 10
2.0905
 20
0.302463
 30
0.0
 40
0
 41
0
  0
SEQEND
 8
0
  0
POLYLINE
  8
0
 62
     173
 66
     1
 10
0
 20
0
 30
0.0
 70
     1
 40
0
 41
0
  0
VERTEX
  8
0
 10
2.0905
 20
0.232422
 30
0.0
 40
0
 41
0
  0
VERTEX
  8
0
 10
2.08399
 20
0.238932
 30
0.0
 40
0
 41
0
  0
VERTEX
  8
0
 10
2.07747
 20
0.232422
 30
0.0
 40
0
 41
0
  0
VERTEX
  8
0
 10
2.08399
 20
0.225965
 30
0.0
 40
0
 41
0
  0
VERTEX
  8
0
 10
2.0905
 20
0.232422
 30
0.0
 40
0
 41
0
  0
SEQEND
 8
0
  0
POLYLINE
  8
0
 62
     173
 66
     1
 10
0
 20
0
 30
0.0
 70
     1
 40
0
 41
0
  0
VERTEX
  8
0
 10
2.13026
 20
0.461262
 30
0.0
 40
0
 41
0
  0
VERTEX
  8
0
 10
2.12375
 20
0.467774
 30
0.0
 40
0
 41
0
  0
VERTEX
  8
0
 10
2.11729
 20
0.461262
 30
0.0
 40
0
 41
0
  0
VERTEX
  8
0
 10
2.12375
 20
0.454753
 30
0.0
 40
0
 41
0
  0
VERTEX
  8
0
 10
2.13026
 20
0.461262
 30
0.0
 40
0
 41
0
  0
SEQEND
 8
0
  0
POLYLINE
  8
0
 62
     173
 66
     1
 10
0
 20
0
 30
0.0
 70
     1
 40
0
 41
0
  0
VERTEX
  8
0
 10
2.14046
 20
0.232422
 30
0.0
 40
0
 41
0
  0
VERTEX
  8
0
 10
2.13396
 20
0.238932
 30
0.0
 40
0
 41
0
  0
VERTEX
  8
0
 10
2.1275
 20
0.232422
 30
0.0
 40
0
 41
0
  0
VERTEX
  8
0
 10
2.13396
 20
0.225965
 30
0.0
 40
0
 41
0
  0
VERTEX
  8
0
 10
2.14046
 20
0.232422
 30
0.0
 40
0
 41
0
  0
SEQEND
 8
0
  0
POLYLINE
  8
0
 62
     173
 66
     1
 10
0
 20
0
 30
0.0
 70
     1
 40
0
 41
0
  0
VERTEX
  8
0
 10
2.16525
 20
0.921224
 30
0.0
 40
0
 41
0
  0
VERTEX
  8
0
 10
2.15875
 20
0.927735
 30
0.0
 40
0
 41
0
  0
VERTEX
  8
0
 10
2.15229
 20
0.921224
 30
0.0
 40
0
 41
0
  0
VERTEX
  8
0
 10
2.15875
 20
0.914768
 30
0.0
 40
0
 41
0
  0
VERTEX
  8
0
 10
2.16525
 20
0.921224
 30
0.0
 40
0
 41
0
  0
SEQEND
 8
0
  0
POLYLINE
  8
0
 62
     173
 66
     1
 10
0
 20
0
 30
0.0
 70
     1
 40
0
 41
0
  0
VERTEX
  8
0
 10
2.16525
 20
0.831272
 30
0.0
 40
0
 41
0
  0
VERTEX
  8
0
 10
2.15875
 20
0.837782
 30
0.0
 40
0
 41
0
  0
VERTEX
  8
0
 10
2.15229
 20
0.831272
 30
0.0
 40
0
 41
0
  0
VERTEX
  8
0
 10
2.15875
 20
0.824761
 30
0.0
 40
0
 41
0
  0
VERTEX
  8
0
 10
2.16525
 20
0.831272
 30
0.0
 40
0
 41
0
  0
SEQEND
 8
0
  0
POLYLINE
  8
0
 62
     173
 66
     1
 10
0
 20
0
 30
0.0
 70
     1
 40
0
 41
0
  0
VERTEX
  8
0
 10
2.18528
 20
1.78103
 30
0.0
 40
0
 41
0
  0
VERTEX
  8
0
 10
2.17876
 20
1.78754
 30
0.0
 40
0
 41
0
  0
VERTEX
  8
0
 10
2.17225
 20
1.78103
 30
0.0
 40
0
 41
0
  0
VERTEX
  8
0
 10
2.17876
 20
1.77458
 30
0.0
 40
0
 41
0
  0
VERTEX
  8
0
 10
2.18528
 20
1.78103
 30
0.0
 40
0
 41
0
  0
SEQEND
 8
0
  0
POLYLINE
  8
0
 62
     173
 66
     1
 10
0
 20
0
 30
0.0
 70
     1
 40
0
 41
0
  0
VERTEX
  8
0
 10
2.19049
 20
0.492458
 30
0.0
 40
0
 41
0
  0
VERTEX
  8
0
 10
2.18397
 20
0.498969
 30
0.0
 40
0
 41
0
  0
VERTEX
  8
0
 10
2.17746
 20
0.492458
 30
0.0
 40
0
 41
0
  0
VERTEX
  8
0
 10
2.18397
 20
0.485949
 30
0.0
 40
0
 41
0
  0
VERTEX
  8
0
 10
2.19049
 20
0.492458
 30
0.0
 40
0
 41
0
  0
SEQEND
 8
0
  0
POLYLINE
  8
0
 62
     173
 66
     1
 10
0
 20
0
 30
0.0
 70
     1
 40
0
 41
0
  0
VERTEX
  8
0
 10
2.19049
 20
0.232422
 30
0.0
 40
0
 41
0
  0
VERTEX
  8
0
 10
2.18397
 20
0.238932
 30
0.0
 40
0
 41
0
  0
VERTEX
  8
0
 10
2.17746
 20
0.232422
 30
0.0
 40
0
 41
0
  0
VERTEX
  8
0
 10
2.18397
 20
0.225965
 30
0.0
 40
0
 41
0
  0
VERTEX
  8
0
 10
2.19049
 20
0.232422
 30
0.0
 40
0
 41
0
  0
SEQEND
 8
0
  0
POLYLINE
  8
0
 62
     173
 66
     1
 10
0
 20
0
 30
0.0
 70
     1
 40
0
 41
0
  0
VERTEX
  8
0
 10
2.21029
 20
2.39626
 30
0.0
 40
0
 41
0
  0
VERTEX
  8
0
 10
2.20378
 20
2.40278
 30
0.0
 40
0
 41
0
  0
VERTEX
  8
0
 10
2.19726
 20
2.39626
 30
0.0
 40
0
 41
0
  0
VERTEX
  8
0
 10
2.20378
 20
2.38976
 30
0.0
 40
0
 41
0
  0
VERTEX
  8
0
 10
2.21029
 20
2.39626
 30
0.0
 40
0
 41
0
  0
SEQEND
 8
0
  0
POLYLINE
  8
0
 62
     173
 66
     1
 10
0
 20
0
 30
0.0
 70
     1
 40
0
 41
0
  0
VERTEX
  8
0
 10
2.22526
 20
1.40625
 30
0.0
 40
0
 41
0
  0
VERTEX
  8
0
 10
2.21875
 20
1.41276
 30
0.0
 40
0
 41
0
  0
VERTEX
  8
0
 10
2.21229
 20
1.40625
 30
0.0
 40
0
 41
0
  0
VERTEX
  8
0
 10
2.21875
 20
1.39974
 30
0.0
 40
0
 41
0
  0
VERTEX
  8
0
 10
2.22526
 20
1.40625
 30
0.0
 40
0
 41
0
  0
SEQEND
 8
0
  0
POLYLINE
  8
0
 62
     173
 66
     1
 10
0
 20
0
 30
0.0
 70
     1
 40
0
 41
0
  0
VERTEX
  8
0
 10
2.24046
 20
0.492458
 30
0.0
 40
0
 41
0
  0
VERTEX
  8
0
 10
2.23394
 20
0.498969
 30
0.0
 40
0
 41
0
  0
VERTEX
  8
0
 10
2.22749
 20
0.492458
 30
0.0
 40
0
 41
0
  0
VERTEX
  8
0
 10
2.23394
 20
0.485949
 30
0.0
 40
0
 41
0
  0
VERTEX
  8
0
 10
2.24046
 20
0.492458
 30
0.0
 40
0
 41
0
  0
SEQEND
 8
0
  0
POLYLINE
  8
0
 62
     173
 66
     1
 10
0
 20
0
 30
0.0
 70
     1
 40
0
 41
0
  0
VERTEX
  8
0
 10
2.24046
 20
0.392469
 30
0.0
 40
0
 41
0
  0
VERTEX
  8
0
 10
2.23394
 20
0.398981
 30
0.0
 40
0
 41
0
  0
VERTEX
  8
0
 10
2.22749
 20
0.392469
 30
0.0
 40
0
 41
0
  0
VERTEX
  8
0
 10
2.23394
 20
0.38596
 30
0.0
 40
0
 41
0
  0
VERTEX
  8
0
 10
2.24046
 20
0.392469
 30
0.0
 40
0
 41
0
  0
SEQEND
 8
0
  0
POLYLINE
  8
0
 62
     173
 66
     1
 10
0
 20
0
 30
0.0
 70
     1
 40
0
 41
0
  0
VERTEX
  8
0
 10
2.24046
 20
0.302463
 30
0.0
 40
0
 41
0
  0
VERTEX
  8
0
 10
2.23394
 20
0.308974
 30
0.0
 40
0
 41
0
  0
VERTEX
  8
0
 10
2.22749
 20
0.302463
 30
0.0
 40
0
 41
0
  0
VERTEX
  8
0
 10
2.23394
 20
0.295953
 30
0.0
 40
0
 41
0
  0
VERTEX
  8
0
 10
2.24046
 20
0.302463
 30
0.0
 40
0
 41
0
  0
SEQEND
 8
0
  0
POLYLINE
  8
0
 62
     173
 66
     1
 10
0
 20
0
 30
0.0
 70
     1
 40
0
 41
0
  0
VERTEX
  8
0
 10
2.24046
 20
0.232422
 30
0.0
 40
0
 41
0
  0
VERTEX
  8
0
 10
2.23394
 20
0.238932
 30
0.0
 40
0
 41
0
  0
VERTEX
  8
0
 10
2.22749
 20
0.232422
 30
0.0
 40
0
 41
0
  0
VERTEX
  8
0
 10
2.23394
 20
0.225965
 30
0.0
 40
0
 41
0
  0
VERTEX
  8
0
 10
2.24046
 20
0.232422
 30
0.0
 40
0
 41
0
  0
SEQEND
 8
0
  0
POLYLINE
  8
0
 62
     173
 66
     1
 10
0
 20
0
 30
0.0
 70
     1
 40
0
 41
0
  0
VERTEX
  8
0
 10
2.25526
 20
1.43625
 30
0.0
 40
0
 41
0
  0
VERTEX
  8
0
 10
2.24875
 20
1.44276
 30
0.0
 40
0
 41
0
  0
VERTEX
  8
0
 10
2.24229
 20
1.43625
 30
0.0
 40
0
 41
0
  0
VERTEX
  8
0
 10
2.24875
 20
1.42974
 30
0.0
 40
0
 41
0
  0
VERTEX
  8
0
 10
2.25526
 20
1.43625
 30
0.0
 40
0
 41
0
  0
SEQEND
 8
0
  0
POLYLINE
  8
0
 62
     173
 66
     1
 10
0
 20
0
 30
0.0
 70
     1
 40
0
 41
0
  0
VERTEX
  8
0
 10
2.26525
 20
2.23122
 30
0.0
 40
0
 41
0
  0
VERTEX
  8
0
 10
2.25874
 20
2.23774
 30
0.0
 40
0
 41
0
  0
VERTEX
  8
0
 10
2.25228
 20
2.23122
 30
0.0
 40
0
 41
0
  0
VERTEX
  8
0
 10
2.25874
 20
2.22478
 30
0.0
 40
0
 41
0
  0
VERTEX
  8
0
 10
2.26525
 20
2.23122
 30
0.0
 40
0
 41
0
  0
SEQEND
 8
0
  0
POLYLINE
  8
0
 62
     173
 66
     1
 10
0
 20
0
 30
0.0
 70
     1
 40
0
 41
0
  0
VERTEX
  8
0
 10
2.26525
 20
1.78125
 30
0.0
 40
0
 41
0
  0
VERTEX
  8
0
 10
2.25874
 20
1.78776
 30
0.0
 40
0
 41
0
  0
VERTEX
  8
0
 10
2.25228
 20
1.78125
 30
0.0
 40
0
 41
0
  0
VERTEX
  8
0
 10
2.25874
 20
1.77474
 30
0.0
 40
0
 41
0
  0
VERTEX
  8
0
 10
2.26525
 20
1.78125
 30
0.0
 40
0
 41
0
  0
SEQEND
 8
0
  0
POLYLINE
  8
0
 62
     173
 66
     1
 10
0
 20
0
 30
0.0
 70
     1
 40
0
 41
0
  0
VERTEX
  8
0
 10
2.29025
 20
1.10623
 30
0.0
 40
0
 41
0
  0
VERTEX
  8
0
 10
2.28375
 20
1.11274
 30
0.0
 40
0
 41
0
  0
VERTEX
  8
0
 10
2.27729
 20
1.10623
 30
0.0
 40
0
 41
0
  0
VERTEX
  8
0
 10
2.28375
 20
1.09977
 30
0.0
 40
0
 41
0
  0
VERTEX
  8
0
 10
2.29025
 20
1.10623
 30
0.0
 40
0
 41
0
  0
SEQEND
 8
0
  0
POLYLINE
  8
0
 62
     173
 66
     1
 10
0
 20
0
 30
0.0
 70
     1
 40
0
 41
0
  0
VERTEX
  8
0
 10
2.30029
 20
1.78222
 30
0.0
 40
0
 41
0
  0
VERTEX
  8
0
 10
2.29378
 20
1.78874
 30
0.0
 40
0
 41
0
  0
VERTEX
  8
0
 10
2.28728
 20
1.78222
 30
0.0
 40
0
 41
0
  0
VERTEX
  8
0
 10
2.29378
 20
1.77576
 30
0.0
 40
0
 41
0
  0
VERTEX
  8
0
 10
2.30029
 20
1.78222
 30
0.0
 40
0
 41
0
  0
SEQEND
 8
0
  0
POLYLINE
  8
0
 62
     173
 66
     1
 10
0
 20
0
 30
0.0
 70
     1
 40
0
 41
0
  0
VERTEX
  8
0
 10
2.32026
 20
1.54622
 30
0.0
 40
0
 41
0
  0
VERTEX
  8
0
 10
2.31375
 20
1.55274
 30
0.0
 40
0
 41
0
  0
VERTEX
  8
0
 10
2.30729
 20
1.54622
 30
0.0
 40
0
 41
0
  0
VERTEX
  8
0
 10
2.31375
 20
1.53976
 30
0.0
 40
0
 41
0
  0
VERTEX
  8
0
 10
2.32026
 20
1.54622
 30
0.0
 40
0
 41
0
  0
SEQEND
 8
0
  0
POLYLINE
  8
0
 62
     173
 66
     1
 10
0
 20
0
 30
0.0
 70
     1
 40
0
 41
0
  0
VERTEX
  8
0
 10
2.34526
 20
2.25624
 30
0.0
 40
0
 41
0
  0
VERTEX
  8
0
 10
2.33876
 20
2.26275
 30
0.0
 40
0
 41
0
  0
VERTEX
  8
0
 10
2.33225
 20
2.25624
 30
0.0
 40
0
 41
0
  0
VERTEX
  8
0
 10
2.33876
 20
2.24972
 30
0.0
 40
0
 41
0
  0
VERTEX
  8
0
 10
2.34526
 20
2.25624
 30
0.0
 40
0
 41
0
  0
SEQEND
 8
0
  0
POLYLINE
  8
0
 62
     173
 66
     1
 10
0
 20
0
 30
0.0
 70
     1
 40
0
 41
0
  0
VERTEX
  8
0
 10
2.36529
 20
1.77626
 30
0.0
 40
0
 41
0
  0
VERTEX
  8
0
 10
2.35878
 20
1.78276
 30
0.0
 40
0
 41
0
  0
VERTEX
  8
0
 10
2.35226
 20
1.77626
 30
0.0
 40
0
 41
0
  0
VERTEX
  8
0
 10
2.35878
 20
1.76975
 30
0.0
 40
0
 41
0
  0
VERTEX
  8
0
 10
2.36529
 20
1.77626
 30
0.0
 40
0
 41
0
  0
SEQEND
 8
0
  0
POLYLINE
  8
0
 62
     173
 66
     1
 10
0
 20
0
 30
0.0
 70
     1
 40
0
 41
0
  0
VERTEX
  8
0
 10
2.38525
 20
1.50125
 30
0.0
 40
0
 41
0
  0
VERTEX
  8
0
 10
2.37875
 20
1.50776
 30
0.0
 40
0
 41
0
  0
VERTEX
  8
0
 10
2.37229
 20
1.50125
 30
0.0
 40
0
 41
0
  0
VERTEX
  8
0
 10
2.37875
 20
1.49474
 30
0.0
 40
0
 41
0
  0
VERTEX
  8
0
 10
2.38525
 20
1.50125
 30
0.0
 40
0
 41
0
  0
SEQEND
 8
0
  0
POLYLINE
  8
0
 62
     173
 66
     1
 10
0
 20
0
 30
0.0
 70
     1
 40
0
 41
0
  0
VERTEX
  8
0
 10
2.38525
 20
1.46126
 30
0.0
 40
0
 41
0
  0
VERTEX
  8
0
 10
2.37875
 20
1.46778
 30
0.0
 40
0
 41
0
  0
VERTEX
  8
0
 10
2.37229
 20
1.46126
 30
0.0
 40
0
 41
0
  0
VERTEX
  8
0
 10
2.37875
 20
1.45475
 30
0.0
 40
0
 41
0
  0
VERTEX
  8
0
 10
2.38525
 20
1.46126
 30
0.0
 40
0
 41
0
  0
SEQEND
 8
0
  0
POLYLINE
  8
0
 62
     173
 66
     1
 10
0
 20
0
 30
0.0
 70
     1
 40
0
 41
0
  0
VERTEX
  8
0
 10
2.39529
 20
2.25624
 30
0.0
 40
0
 41
0
  0
VERTEX
  8
0
 10
2.38878
 20
2.26275
 30
0.0
 40
0
 41
0
  0
VERTEX
  8
0
 10
2.38226
 20
2.25624
 30
0.0
 40
0
 41
0
  0
VERTEX
  8
0
 10
2.38878
 20
2.24972
 30
0.0
 40
0
 41
0
  0
VERTEX
  8
0
 10
2.39529
 20
2.25624
 30
0.0
 40
0
 41
0
  0
SEQEND
 8
0
  0
POLYLINE
  8
0
 62
     173
 66
     1
 10
0
 20
0
 30
0.0
 70
     1
 40
0
 41
0
  0
VERTEX
  8
0
 10
2.41026
 20
2.05126
 30
0.0
 40
0
 41
0
  0
VERTEX
  8
0
 10
2.40375
 20
2.05778
 30
0.0
 40
0
 41
0
  0
VERTEX
  8
0
 10
2.39725
 20
2.05126
 30
0.0
 40
0
 41
0
  0
VERTEX
  8
0
 10
2.40375
 20
2.04476
 30
0.0
 40
0
 41
0
  0
VERTEX
  8
0
 10
2.41026
 20
2.05126
 30
0.0
 40
0
 41
0
  0
SEQEND
 8
0
  0
POLYLINE
  8
0
 62
     173
 66
     1
 10
0
 20
0
 30
0.0
 70
     1
 40
0
 41
0
  0
VERTEX
  8
0
 10
2.47026
 20
2.05126
 30
0.0
 40
0
 41
0
  0
VERTEX
  8
0
 10
2.46376
 20
2.05778
 30
0.0
 40
0
 41
0
  0
VERTEX
  8
0
 10
2.45725
 20
2.05126
 30
0.0
 40
0
 41
0
  0
VERTEX
  8
0
 10
2.46376
 20
2.04476
 30
0.0
 40
0
 41
0
  0
VERTEX
  8
0
 10
2.47026
 20
2.05126
 30
0.0
 40
0
 41
0
  0
SEQEND
 8
0
  0
POLYLINE
  8
0
 62
     173
 66
     1
 10
0
 20
0
 30
0.0
 70
     1
 40
0
 41
0
  0
VERTEX
  8
0
 10
2.49528
 20
2.25624
 30
0.0
 40
0
 41
0
  0
VERTEX
  8
0
 10
2.48876
 20
2.26275
 30
0.0
 40
0
 41
0
  0
VERTEX
  8
0
 10
2.48226
 20
2.25624
 30
0.0
 40
0
 41
0
  0
VERTEX
  8
0
 10
2.48876
 20
2.24972
 30
0.0
 40
0
 41
0
  0
VERTEX
  8
0
 10
2.49528
 20
2.25624
 30
0.0
 40
0
 41
0
  0
SEQEND
 8
0
  0
POLYLINE
  8
0
 62
     173
 66
     1
 10
0
 20
0
 30
0.0
 70
     1
 40
0
 41
0
  0
VERTEX
  8
0
 10
2.52029
 20
2.05126
 30
0.0
 40
0
 41
0
  0
VERTEX
  8
0
 10
2.51378
 20
2.05778
 30
0.0
 40
0
 41
0
  0
VERTEX
  8
0
 10
2.50726
 20
2.05126
 30
0.0
 40
0
 41
0
  0
VERTEX
  8
0
 10
2.51378
 20
2.04476
 30
0.0
 40
0
 41
0
  0
VERTEX
  8
0
 10
2.52029
 20
2.05126
 30
0.0
 40
0
 41
0
  0
SEQEND
 8
0
  0
POLYLINE
  8
0
 62
     173
 66
     1
 10
0
 20
0
 30
0.0
 70
     1
 40
0
 41
0
  0
VERTEX
  8
0
 10
2.54525
 20
2.25624
 30
0.0
 40
0
 41
0
  0
VERTEX
  8
0
 10
2.53874
 20
2.26275
 30
0.0
 40
0
 41
0
  0
VERTEX
  8
0
 10
2.53228
 20
2.25624
 30
0.0
 40
0
 41
0
  0
VERTEX
  8
0
 10
2.53874
 20
2.24972
 30
0.0
 40
0
 41
0
  0
VERTEX
  8
0
 10
2.54525
 20
2.25624
 30
0.0
 40
0
 41
0
  0
SEQEND
 8
0
  0
POLYLINE
  8
0
 62
     173
 66
     1
 10
0
 20
0
 30
0.0
 70
     1
 40
0
 41
0
  0
VERTEX
  8
0
 10
2.56028
 20
1.11127
 30
0.0
 40
0
 41
0
  0
VERTEX
  8
0
 10
2.55376
 20
1.11778
 30
0.0
 40
0
 41
0
  0
VERTEX
  8
0
 10
2.54725
 20
1.11127
 30
0.0
 40
0
 41
0
  0
VERTEX
  8
0
 10
2.55376
 20
1.10476
 30
0.0
 40
0
 41
0
  0
VERTEX
  8
0
 10
2.56028
 20
1.11127
 30
0.0
 40
0
 41
0
  0
SEQEND
 8
0
  0
POLYLINE
  8
0
 62
     173
 66
     1
 10
0
 20
0
 30
0.0
 70
     1
 40
0
 41
0
  0
VERTEX
  8
0
 10
2.58029
 20
2.05126
 30
0.0
 40
0
 41
0
  0
VERTEX
  8
0
 10
2.57379
 20
2.05778
 30
0.0
 40
0
 41
0
  0
VERTEX
  8
0
 10
2.56728
 20
2.05126
 30
0.0
 40
0
 41
0
  0
VERTEX
  8
0
 10
2.57379
 20
2.04476
 30
0.0
 40
0
 41
0
  0
VERTEX
  8
0
 10
2.58029
 20
2.05126
 30
0.0
 40
0
 41
0
  0
SEQEND
 8
0
  0
POLYLINE
  8
0
 62
     173
 66
     1
 10
0
 20
0
 30
0.0
 70
     1
 40
0
 41
0
  0
VERTEX
  8
0
 10
2.59028
 20
1.67122
 30
0.0
 40
0
 41
0
  0
VERTEX
  8
0
 10
2.58376
 20
1.67774
 30
0.0
 40
0
 41
0
  0
VERTEX
  8
0
 10
2.57726
 20
1.67122
 30
0.0
 40
0
 41
0
  0
VERTEX
  8
0
 10
2.58376
 20
1.66476
 30
0.0
 40
0
 41
0
  0
VERTEX
  8
0
 10
2.59028
 20
1.67122
 30
0.0
 40
0
 41
0
  0
SEQEND
 8
0
  0
POLYLINE
  8
0
 62
     173
 66
     1
 10
0
 20
0
 30
0.0
 70
     1
 40
0
 41
0
  0
VERTEX
  8
0
 10
2.61029
 20
1.50125
 30
0.0
 40
0
 41
0
  0
VERTEX
  8
0
 10
2.60379
 20
1.50776
 30
0.0
 40
0
 41
0
  0
VERTEX
  8
0
 10
2.59728
 20
1.50125
 30
0.0
 40
0
 41
0
  0
VERTEX
  8
0
 10
2.60379
 20
1.49474
 30
0.0
 40
0
 41
0
  0
VERTEX
  8
0
 10
2.61029
 20
1.50125
 30
0.0
 40
0
 41
0
  0
SEQEND
 8
0
  0
POLYLINE
  8
0
 62
     173
 66
     1
 10
0
 20
0
 30
0.0
 70
     1
 40
0
 41
0
  0
VERTEX
  8
0
 10
2.61029
 20
1.45122
 30
0.0
 40
0
 41
0
  0
VERTEX
  8
0
 10
2.60379
 20
1.45774
 30
0.0
 40
0
 41
0
  0
VERTEX
  8
0
 10
2.59728
 20
1.45122
 30
0.0
 40
0
 41
0
  0
VERTEX
  8
0
 10
2.60379
 20
1.44476
 30
0.0
 40
0
 41
0
  0
VERTEX
  8
0
 10
2.61029
 20
1.45122
 30
0.0
 40
0
 41
0
  0
SEQEND
 8
0
  0
POLYLINE
  8
0
 62
     173
 66
     1
 10
0
 20
0
 30
0.0
 70
     1
 40
0
 41
0
  0
VERTEX
  8
0
 10
2.61029
 20
1.40126
 30
0.0
 40
0
 41
0
  0
VERTEX
  8
0
 10
2.60379
 20
1.40776
 30
0.0
 40
0
 41
0
  0
VERTEX
  8
0
 10
2.59728
 20
1.40126
 30
0.0
 40
0
 41
0
  0
VERTEX
  8
0
 10
2.60379
 20
1.39475
 30
0.0
 40
0
 41
0
  0
VERTEX
  8
0
 10
2.61029
 20
1.40126
 30
0.0
 40
0
 41
0
  0
SEQEND
 8
0
  0
POLYLINE
  8
0
 62
     173
 66
     1
 10
0
 20
0
 30
0.0
 70
     1
 40
0
 41
0
  0
VERTEX
  8
0
 10
2.61029
 20
1.30127
 30
0.0
 40
0
 41
0
  0
VERTEX
  8
0
 10
2.60379
 20
1.30778
 30
0.0
 40
0
 41
0
  0
VERTEX
  8
0
 10
2.59728
 20
1.30127
 30
0.0
 40
0
 41
0
  0
VERTEX
  8
0
 10
2.60379
 20
1.29476
 30
0.0
 40
0
 41
0
  0
VERTEX
  8
0
 10
2.61029
 20
1.30127
 30
0.0
 40
0
 41
0
  0
SEQEND
 8
0
  0
POLYLINE
  8
0
 62
     173
 66
     1
 10
0
 20
0
 30
0.0
 70
     1
 40
0
 41
0
  0
VERTEX
  8
0
 10
2.61029
 20
1.25125
 30
0.0
 40
0
 41
0
  0
VERTEX
  8
0
 10
2.60379
 20
1.25776
 30
0.0
 40
0
 41
0
  0
VERTEX
  8
0
 10
2.59728
 20
1.25125
 30
0.0
 40
0
 41
0
  0
VERTEX
  8
0
 10
2.60379
 20
1.24474
 30
0.0
 40
0
 41
0
  0
VERTEX
  8
0
 10
2.61029
 20
1.25125
 30
0.0
 40
0
 41
0
  0
SEQEND
 8
0
  0
POLYLINE
  8
0
 62
     173
 66
     1
 10
0
 20
0
 30
0.0
 70
     1
 40
0
 41
0
  0
VERTEX
  8
0
 10
2.61029
 20
1.20123
 30
0.0
 40
0
 41
0
  0
VERTEX
  8
0
 10
2.60379
 20
1.20774
 30
0.0
 40
0
 41
0
  0
VERTEX
  8
0
 10
2.59728
 20
1.20123
 30
0.0
 40
0
 41
0
  0
VERTEX
  8
0
 10
2.60379
 20
1.19477
 30
0.0
 40
0
 41
0
  0
VERTEX
  8
0
 10
2.61029
 20
1.20123
 30
0.0
 40
0
 41
0
  0
SEQEND
 8
0
  0
POLYLINE
  8
0
 62
     173
 66
     1
 10
0
 20
0
 30
0.0
 70
     1
 40
0
 41
0
  0
VERTEX
  8
0
 10
2.64529
 20
2.25624
 30
0.0
 40
0
 41
0
  0
VERTEX
  8
0
 10
2.63878
 20
2.26275
 30
0.0
 40
0
 41
0
  0
VERTEX
  8
0
 10
2.63226
 20
2.25624
 30
0.0
 40
0
 41
0
  0
VERTEX
  8
0
 10
2.63878
 20
2.24972
 30
0.0
 40
0
 41
0
  0
VERTEX
  8
0
 10
2.64529
 20
2.25624
 30
0.0
 40
0
 41
0
  0
SEQEND
 8
0
  0
POLYLINE
  8
0
 62
     173
 66
     1
 10
0
 20
0
 30
0.0
 70
     1
 40
0
 41
0
  0
VERTEX
  8
0
 10
2.66026
 20
1.72125
 30
0.0
 40
0
 41
0
  0
VERTEX
  8
0
 10
2.65375
 20
1.72775
 30
0.0
 40
0
 41
0
  0
VERTEX
  8
0
 10
2.64725
 20
1.72125
 30
0.0
 40
0
 41
0
  0
VERTEX
  8
0
 10
2.65375
 20
1.71474
 30
0.0
 40
0
 41
0
  0
VERTEX
  8
0
 10
2.66026
 20
1.72125
 30
0.0
 40
0
 41
0
  0
SEQEND
 8
0
  0
POLYLINE
  8
0
 62
     173
 66
     1
 10
0
 20
0
 30
0.0
 70
     1
 40
0
 41
0
  0
VERTEX
  8
0
 10
2.66525
 20
1.56625
 30
0.0
 40
0
 41
0
  0
VERTEX
  8
0
 10
2.65875
 20
1.57275
 30
0.0
 40
0
 41
0
  0
VERTEX
  8
0
 10
2.65229
 20
1.56625
 30
0.0
 40
0
 41
0
  0
VERTEX
  8
0
 10
2.65875
 20
1.55974
 30
0.0
 40
0
 41
0
  0
VERTEX
  8
0
 10
2.66525
 20
1.56625
 30
0.0
 40
0
 41
0
  0
SEQEND
 8
0
  0
POLYLINE
  8
0
 62
     173
 66
     1
 10
0
 20
0
 30
0.0
 70
     1
 40
0
 41
0
  0
VERTEX
  8
0
 10
2.69026
 20
1.40126
 30
0.0
 40
0
 41
0
  0
VERTEX
  8
0
 10
2.68375
 20
1.40776
 30
0.0
 40
0
 41
0
  0
VERTEX
  8
0
 10
2.67725
 20
1.40126
 30
0.0
 40
0
 41
0
  0
VERTEX
  8
0
 10
2.68375
 20
1.39475
 30
0.0
 40
0
 41
0
  0
VERTEX
  8
0
 10
2.69026
 20
1.40126
 30
0.0
 40
0
 41
0
  0
SEQEND
 8
0
  0
POLYLINE
  8
0
 62
     173
 66
     1
 10
0
 20
0
 30
0.0
 70
     1
 40
0
 41
0
  0
VERTEX
  8
0
 10
2.69026
 20
1.30127
 30
0.0
 40
0
 41
0
  0
VERTEX
  8
0
 10
2.68375
 20
1.30778
 30
0.0
 40
0
 41
0
  0
VERTEX
  8
0
 10
2.67725
 20
1.30127
 30
0.0
 40
0
 41
0
  0
VERTEX
  8
0
 10
2.68375
 20
1.29476
 30
0.0
 40
0
 41
0
  0
VERTEX
  8
0
 10
2.69026
 20
1.30127
 30
0.0
 40
0
 41
0
  0
SEQEND
 8
0
  0
POLYLINE
  8
0
 62
     173
 66
     1
 10
0
 20
0
 30
0.0
 70
     1
 40
0
 41
0
  0
VERTEX
  8
0
 10
2.69526
 20
2.25624
 30
0.0
 40
0
 41
0
  0
VERTEX
  8
0
 10
2.68875
 20
2.26275
 30
0.0
 40
0
 41
0
  0
VERTEX
  8
0
 10
2.68229
 20
2.25624
 30
0.0
 40
0
 41
0
  0
VERTEX
  8
0
 10
2.68875
 20
2.24972
 30
0.0
 40
0
 41
0
  0
VERTEX
  8
0
 10
2.69526
 20
2.25624
 30
0.0
 40
0
 41
0
  0
SEQEND
 8
0
  0
POLYLINE
  8
0
 62
     173
 66
     1
 10
0
 20
0
 30
0.0
 70
     1
 40
0
 41
0
  0
VERTEX
  8
0
 10
2.69526
 20
1.76622
 30
0.0
 40
0
 41
0
  0
VERTEX
  8
0
 10
2.68875
 20
1.77274
 30
0.0
 40
0
 41
0
  0
VERTEX
  8
0
 10
2.68229
 20
1.76622
 30
0.0
 40
0
 41
0
  0
VERTEX
  8
0
 10
2.68875
 20
1.75976
 30
0.0
 40
0
 41
0
  0
VERTEX
  8
0
 10
2.69526
 20
1.76622
 30
0.0
 40
0
 41
0
  0
SEQEND
 8
0
  0
POLYLINE
  8
0
 62
     173
 66
     1
 10
0
 20
0
 30
0.0
 70
     1
 40
0
 41
0
  0
VERTEX
  8
0
 10
2.72526
 20
2.23122
 30
0.0
 40
0
 41
0
  0
VERTEX
  8
0
 10
2.71875
 20
2.23774
 30
0.0
 40
0
 41
0
  0
VERTEX
  8
0
 10
2.71229
 20
2.23122
 30
0.0
 40
0
 41
0
  0
VERTEX
  8
0
 10
2.71875
 20
2.22478
 30
0.0
 40
0
 41
0
  0
VERTEX
  8
0
 10
2.72526
 20
2.23122
 30
0.0
 40
0
 41
0
  0
SEQEND
 8
0
  0
POLYLINE
  8
0
 62
     173
 66
     1
 10
0
 20
0
 30
0.0
 70
     1
 40
0
 41
0
  0
VERTEX
  8
0
 10
1.18376
 20
1.04123
 30
0.0
 40
0
 41
0
  0
VERTEX
  8
0
 10
1.17904
 20
1.05252
 30
0.0
 40
0
 41
0
  0
VERTEX
  8
0
 10
1.16873
 20
1.05626
 30
0.0
 40
0
 41
0
  0
VERTEX
  8
0
 10
1.15842
 20
1.05252
 30
0.0
 40
0
 41
0
  0
VERTEX
  8
0
 10
1.15375
 20
1.04123
 30
0.0
 40
0
 41
0
  0
VERTEX
  8
0
 10
1.15842
 20
1.03
 30
0.0
 40
0
 41
0
  0
VERTEX
  8
0
 10
1.16873
 20
1.02626
 30
0.0
 40
0
 41
0
  0
VERTEX
  8
0
 10
1.17904
 20
1.03
 30
0.0
 40
0
 41
0
  0
VERTEX
  8
0
 10
1.18376
 20
1.04123
 30
0.0
 40
0
 41
0
  0
SEQEND
 8
0
  0
POLYLINE
  8
0
 62
     173
 66
     1
 10
0
 20
0
 30
0.0
 70
     1
 40
0
 41
0
  0
VERTEX
  8
0
 10
1.38379
 20
1.04123
 30
0.0
 40
0
 41
0
  0
VERTEX
  8
0
 10
1.37907
 20
1.05252
 30
0.0
 40
0
 41
0
  0
VERTEX
  8
0
 10
1.36876
 20
1.05626
 30
0.0
 40
0
 41
0
  0
VERTEX
  8
0
 10
1.35845
 20
1.05252
 30
0.0
 40
0
 41
0
  0
VERTEX
  8
0
 10
1.35379
 20
1.04123
 30
0.0
 40
0
 41
0
  0
VERTEX
  8
0
 10
1.35845
 20
1.03
 30
0.0
 40
0
 41
0
  0
VERTEX
  8
0
 10
1.36876
 20
1.02626
 30
0.0
 40
0
 41
0
  0
VERTEX
  8
0
 10
1.37907
 20
1.03
 30
0.0
 40
0
 41
0
  0
VERTEX
  8
0
 10
1.38379
 20
1.04123
 30
0.0
 40
0
 41
0
  0
SEQEND
 8
0
  0
POLYLINE
  8
0
 62
     173
 66
     1
 10
0
 20
0
 30
0.0
 70
     1
 40
0
 41
0
  0
VERTEX
  8
0
 10
1.89675
 20
1.58128
 30
0.0
 40
0
 41
0
  0
VERTEX
  8
0
 10
1.89204
 20
1.5925
 30
0.0
 40
0
 41
0
  0
VERTEX
  8
0
 10
1.88172
 20
1.59625
 30
0.0
 40
0
 41
0
  0
VERTEX
  8
0
 10
1.87142
 20
1.5925
 30
0.0
 40
0
 41
0
  0
VERTEX
  8
0
 10
1.86675
 20
1.58128
 30
0.0
 40
0
 41
0
  0
VERTEX
  8
0
 10
1.87142
 20
1.57004
 30
0.0
 40
0
 41
0
  0
VERTEX
  8
0
 10
1.88172
 20
1.56629
 30
0.0
 40
0
 41
0
  0
VERTEX
  8
0
 10
1.89204
 20
1.57004
 30
0.0
 40
0
 41
0
  0
VERTEX
  8
0
 10
1.89675
 20
1.58128
 30
0.0
 40
0
 41
0
  0
SEQEND
 8
0
  0
POLYLINE
  8
0
 62
     173
 66
     1
 10
0
 20
0
 30
0.0
 70
     1
 40
0
 41
0
  0
VERTEX
  8
0
 10
1.89675
 20
0.715224
 30
0.0
 40
0
 41
0
  0
VERTEX
  8
0
 10
1.89204
 20
0.726508
 30
0.0
 40
0
 41
0
  0
VERTEX
  8
0
 10
1.88172
 20
0.730251
 30
0.0
 40
0
 41
0
  0
VERTEX
  8
0
 10
1.87142
 20
0.726508
 30
0.0
 40
0
 41
0
  0
VERTEX
  8
0
 10
1.86675
 20
0.715224
 30
0.0
 40
0
 41
0
  0
VERTEX
  8
0
 10
1.87142
 20
0.703993
 30
0.0
 40
0
 41
0
  0
VERTEX
  8
0
 10
1.88172
 20
0.70025
 30
0.0
 40
0
 41
0
  0
VERTEX
  8
0
 10
1.89204
 20
0.703993
 30
0.0
 40
0
 41
0
  0
VERTEX
  8
0
 10
1.89675
 20
0.715224
 30
0.0
 40
0
 41
0
  0
SEQEND
 8
0
  0
POLYLINE
  8
0
 62
     173
 66
     1
 10
0
 20
0
 30
0.0
 70
     1
 40
0
 41
0
  0
VERTEX
  8
0
 10
1.92399
 20
0.0924479
 30
0.0
 40
0
 41
0
  0
VERTEX
  8
0
 10
1.91928
 20
0.103733
 30
0.0
 40
0
 41
0
  0
VERTEX
  8
0
 10
1.90896
 20
0.107476
 30
0.0
 40
0
 41
0
  0
VERTEX
  8
0
 10
1.89865
 20
0.103733
 30
0.0
 40
0
 41
0
  0
VERTEX
  8
0
 10
1.89399
 20
0.0924479
 30
0.0
 40
0
 41
0
  0
VERTEX
  8
0
 10
1.89865
 20
0.0812175
 30
0.0
 40
0
 41
0
  0
VERTEX
  8
0
 10
1.90896
 20
0.077474
 30
0.0
 40
0
 41
0
  0
VERTEX
  8
0
 10
1.91928
 20
0.0812175
 30
0.0
 40
0
 41
0
  0
VERTEX
  8
0
 10
1.92399
 20
0.0924479
 30
0.0
 40
0
 41
0
  0
SEQEND
 8
0
  0
POLYLINE
  8
0
 62
     173
 66
     1
 10
0
 20
0
 30
0.0
 70
     1
 40
0
 41
0
  0
VERTEX
  8
0
 10
1.97575
 20
1.58128
 30
0.0
 40
0
 41
0
  0
VERTEX
  8
0
 10
1.97103
 20
1.5925
 30
0.0
 40
0
 41
0
  0
VERTEX
  8
0
 10
1.96072
 20
1.59625
 30
0.0
 40
0
 41
0
  0
VERTEX
  8
0
 10
1.95042
 20
1.5925
 30
0.0
 40
0
 41
0
  0
VERTEX
  8
0
 10
1.94575
 20
1.58128
 30
0.0
 40
0
 41
0
  0
VERTEX
  8
0
 10
1.95042
 20
1.57004
 30
0.0
 40
0
 41
0
  0
VERTEX
  8
0
 10
1.96072
 20
1.56629
 30
0.0
 40
0
 41
0
  0
VERTEX
  8
0
 10
1.97103
 20
1.57004
 30
0.0
 40
0
 41
0
  0
VERTEX
  8
0
 10
1.97575
 20
1.58128
 30
0.0
 40
0
 41
0
  0
SEQEND
 8
0
  0
POLYLINE
  8
0
 62
     173
 66
     1
 10
0
 20
0
 30
0.0
 70
     1
 40
0
 41
0
  0
VERTEX
  8
0
 10
1.97575
 20
0.715224
 30
0.0
 40
0
 41
0
  0
VERTEX
  8
0
 10
1.97103
 20
0.726508
 30
0.0
 40
0
 41
0
  0
VERTEX
  8
0
 10
1.96072
 20
0.730251
 30
0.0
 40
0
 41
0
  0
VERTEX
  8
0
 10
1.95042
 20
0.726508
 30
0.0
 40
0
 41
0
  0
VERTEX
  8
0
 10
1.94575
 20
0.715224
 30
0.0
 40
0
 41
0
  0
VERTEX
  8
0
 10
1.95042
 20
0.703993
 30
0.0
 40
0
 41
0
  0
VERTEX
  8
0
 10
1.96072
 20
0.70025
 30
0.0
 40
0
 41
0
  0
VERTEX
  8
0
 10
1.97103
 20
0.703993
 30
0.0
 40
0
 41
0
  0
VERTEX
  8
0
 10
1.97575
 20
0.715224
 30
0.0
 40
0
 41
0
  0
SEQEND
 8
0
  0
POLYLINE
  8
0
 62
     173
 66
     1
 10
0
 20
0
 30
0.0
 70
     1
 40
0
 41
0
  0
VERTEX
  8
0
 10
2.05479
 20
1.58128
 30
0.0
 40
0
 41
0
  0
VERTEX
  8
0
 10
2.05007
 20
1.5925
 30
0.0
 40
0
 41
0
  0
VERTEX
  8
0
 10
2.03976
 20
1.59625
 30
0.0
 40
0
 41
0
  0
VERTEX
  8
0
 10
2.02946
 20
1.5925
 30
0.0
 40
0
 41
0
  0
VERTEX
  8
0
 10
2.02479
 20
1.58128
 30
0.0
 40
0
 41
0
  0
VERTEX
  8
0
 10
2.02946
 20
1.57004
 30
0.0
 40
0
 41
0
  0
VERTEX
  8
0
 10
2.03976
 20
1.56629
 30
0.0
 40
0
 41
0
  0
VERTEX
  8
0
 10
2.05007
 20
1.57004
 30
0.0
 40
0
 41
0
  0
VERTEX
  8
0
 10
2.05479
 20
1.58128
 30
0.0
 40
0
 41
0
  0
SEQEND
 8
0
  0
POLYLINE
  8
0
 62
     173
 66
     1
 10
0
 20
0
 30
0.0
 70
     1
 40
0
 41
0
  0
VERTEX
  8
0
 10
2.05479
 20
0.715224
 30
0.0
 40
0
 41
0
  0
VERTEX
  8
0
 10
2.05007
 20
0.726508
 30
0.0
 40
0
 41
0
  0
VERTEX
  8
0
 10
2.03976
 20
0.730251
 30
0.0
 40
0
 41
0
  0
VERTEX
  8
0
 10
2.02946
 20
0.726508
 30
0.0
 40
0
 41
0
  0
VERTEX
  8
0
 10
2.02479
 20
0.715224
 30
0.0
 40
0
 41
0
  0
VERTEX
  8
0
 10
2.02946
 20
0.703993
 30
0.0
 40
0
 41
0
  0
VERTEX
  8
0
 10
2.03976
 20
0.70025
 30
0.0
 40
0
 41
0
  0
VERTEX
  8
0
 10
2.05007
 20
0.703993
 30
0.0
 40
0
 41
0
  0
VERTEX
  8
0
 10
2.05479
 20
0.715224
 30
0.0
 40
0
 41
0
  0
SEQEND
 8
0
  0
POLYLINE
  8
0
 62
     173
 66
     1
 10
0
 20
0
 30
0.0
 70
     1
 40
0
 41
0
  0
VERTEX
  8
0
 10
2.12397
 20
0.0924479
 30
0.0
 40
0
 41
0
  0
VERTEX
  8
0
 10
2.11925
 20
0.103733
 30
0.0
 40
0
 41
0
  0
VERTEX
  8
0
 10
2.10894
 20
0.107476
 30
0.0
 40
0
 41
0
  0
VERTEX
  8
0
 10
2.09864
 20
0.103733
 30
0.0
 40
0
 41
0
  0
VERTEX
  8
0
 10
2.09397
 20
0.0924479
 30
0.0
 40
0
 41
0
  0
VERTEX
  8
0
 10
2.09864
 20
0.0812175
 30
0.0
 40
0
 41
0
  0
VERTEX
  8
0
 10
2.10894
 20
0.077474
 30
0.0
 40
0
 41
0
  0
VERTEX
  8
0
 10
2.11925
 20
0.0812175
 30
0.0
 40
0
 41
0
  0
VERTEX
  8
0
 10
2.12397
 20
0.0924479
 30
0.0
 40
0
 41
0
  0
SEQEND
 8
0
  0
POLYLINE
  8
0
 62
     173
 66
     1
 10
0
 20
0
 30
0.0
 70
     1
 40
0
 41
0
  0
VERTEX
  8
0
 10
2.13379
 20
1.58128
 30
0.0
 40
0
 41
0
  0
VERTEX
  8
0
 10
2.12907
 20
1.5925
 30
0.0
 40
0
 41
0
  0
VERTEX
  8
0
 10
2.11876
 20
1.59625
 30
0.0
 40
0
 41
0
  0
VERTEX
  8
0
 10
2.10846
 20
1.5925
 30
0.0
 40
0
 41
0
  0
VERTEX
  8
0
 10
2.10379
 20
1.58128
 30
0.0
 40
0
 41
0
  0
VERTEX
  8
0
 10
2.10846
 20
1.57004
 30
0.0
 40
0
 41
0
  0
VERTEX
  8
0
 10
2.11876
 20
1.56629
 30
0.0
 40
0
 41
0
  0
VERTEX
  8
0
 10
2.12907
 20
1.57004
 30
0.0
 40
0
 41
0
  0
VERTEX
  8
0
 10
2.13379
 20
1.58128
 30
0.0
 40
0
 41
0
  0
SEQEND
 8
0
  0
POLYLINE
  8
0
 62
     173
 66
     1
 10
0
 20
0
 30
0.0
 70
     1
 40
0
 41
0
  0
VERTEX
  8
0
 10
2.13379
 20
0.715224
 30
0.0
 40
0
 41
0
  0
VERTEX
  8
0
 10
2.12907
 20
0.726508
 30
0.0
 40
0
 41
0
  0
VERTEX
  8
0
 10
2.11876
 20
0.730251
 30
0.0
 40
0
 41
0
  0
VERTEX
  8
0
 10
2.10846
 20
0.726508
 30
0.0
 40
0
 41
0
  0
VERTEX
  8
0
 10
2.10379
 20
0.715224
 30
0.0
 40
0
 41
0
  0
VERTEX
  8
0
 10
2.10846
 20
0.703993
 30
0.0
 40
0
 41
0
  0
VERTEX
  8
0
 10
2.11876
 20
0.70025
 30
0.0
 40
0
 41
0
  0
VERTEX
  8
0
 10
2.12907
 20
0.703993
 30
0.0
 40
0
 41
0
  0
VERTEX
  8
0
 10
2.13379
 20
0.715224
 30
0.0
 40
0
 41
0
  0
SEQEND
 8
0
  0
POLYLINE
  8
0
 62
     173
 66
     1
 10
0
 20
0
 30
0.0
 70
     1
 40
0
 41
0
  0
VERTEX
  8
0
 10
2.21278
 20
1.58128
 30
0.0
 40
0
 41
0
  0
VERTEX
  8
0
 10
2.20806
 20
1.5925
 30
0.0
 40
0
 41
0
  0
VERTEX
  8
0
 10
2.19775
 20
1.59625
 30
0.0
 40
0
 41
0
  0
VERTEX
  8
0
 10
2.18744
 20
1.5925
 30
0.0
 40
0
 41
0
  0
VERTEX
  8
0
 10
2.18278
 20
1.58128
 30
0.0
 40
0
 41
0
  0
VERTEX
  8
0
 10
2.18744
 20
1.57004
 30
0.0
 40
0
 41
0
  0
VERTEX
  8
0
 10
2.19775
 20
1.56629
 30
0.0
 40
0
 41
0
  0
VERTEX
  8
0
 10
2.20806
 20
1.57004
 30
0.0
 40
0
 41
0
  0
VERTEX
  8
0
 10
2.21278
 20
1.58128
 30
0.0
 40
0
 41
0
  0
SEQEND
 8
0
  0
POLYLINE
  8
0
 62
     173
 66
     1
 10
0
 20
0
 30
0.0
 70
     1
 40
0
 41
0
  0
VERTEX
  8
0
 10
2.21278
 20
0.715224
 30
0.0
 40
0
 41
0
  0
VERTEX
  8
0
 10
2.20806
 20
0.726508
 30
0.0
 40
0
 41
0
  0
VERTEX
  8
0
 10
2.19775
 20
0.730251
 30
0.0
 40
0
 41
0
  0
VERTEX
  8
0
 10
2.18744
 20
0.726508
 30
0.0
 40
0
 41
0
  0
VERTEX
  8
0
 10
2.18278
 20
0.715224
 30
0.0
 40
0
 41
0
  0
VERTEX
  8
0
 10
2.18744
 20
0.703993
 30
0.0
 40
0
 41
0
  0
VERTEX
  8
0
 10
2.19775
 20
0.70025
 30
0.0
 40
0
 41
0
  0
VERTEX
  8
0
 10
2.20806
 20
0.703993
 30
0.0
 40
0
 41
0
  0
VERTEX
  8
0
 10
2.21278
 20
0.715224
 30
0.0
 40
0
 41
0
  0
SEQEND
 8
0
  0
POLYLINE
  8
0
 62
     173
 66
     1
 10
0
 20
0
 30
0.0
 70
     1
 40
0
 41
0
  0
VERTEX
  8
0
 10
2.29178
 20
1.58128
 30
0.0
 40
0
 41
0
  0
VERTEX
  8
0
 10
2.28706
 20
1.5925
 30
0.0
 40
0
 41
0
  0
VERTEX
  8
0
 10
2.27675
 20
1.59625
 30
0.0
 40
0
 41
0
  0
VERTEX
  8
0
 10
2.26644
 20
1.5925
 30
0.0
 40
0
 41
0
  0
VERTEX
  8
0
 10
2.26178
 20
1.58128
 30
0.0
 40
0
 41
0
  0
VERTEX
  8
0
 10
2.26644
 20
1.57004
 30
0.0
 40
0
 41
0
  0
VERTEX
  8
0
 10
2.27675
 20
1.56629
 30
0.0
 40
0
 41
0
  0
VERTEX
  8
0
 10
2.28706
 20
1.57004
 30
0.0
 40
0
 41
0
  0
VERTEX
  8
0
 10
2.29178
 20
1.58128
 30
0.0
 40
0
 41
0
  0
SEQEND
 8
0
  0
POLYLINE
  8
0
 62
     173
 66
     1
 10
0
 20
0
 30
0.0
 70
     1
 40
0
 41
0
  0
VERTEX
  8
0
 10
2.29178
 20
0.715224
 30
0.0
 40
0
 41
0
  0
VERTEX
  8
0
 10
2.28706
 20
0.726508
 30
0.0
 40
0
 41
0
  0
VERTEX
  8
0
 10
2.27675
 20
0.730251
 30
0.0
 40
0
 41
0
  0
VERTEX
  8
0
 10
2.26644
 20
0.726508
 30
0.0
 40
0
 41
0
  0
VERTEX
  8
0
 10
2.26178
 20
0.715224
 30
0.0
 40
0
 41
0
  0
VERTEX
  8
0
 10
2.26644
 20
0.703993
 30
0.0
 40
0
 41
0
  0
VERTEX
  8
0
 10
2.27675
 20
0.70025
 30
0.0
 40
0
 41
0
  0
VERTEX
  8
0
 10
2.28706
 20
0.703993
 30
0.0
 40
0
 41
0
  0
VERTEX
  8
0
 10
2.29178
 20
0.715224
 30
0.0
 40
0
 41
0
  0
SEQEND
 8
0
  0
POLYLINE
  8
0
 62
     173
 66
     1
 10
0
 20
0
 30
0.0
 70
     1
 40
0
 41
0
  0
VERTEX
  8
0
 10
2.37076
 20
1.58128
 30
0.0
 40
0
 41
0
  0
VERTEX
  8
0
 10
2.36604
 20
1.5925
 30
0.0
 40
0
 41
0
  0
VERTEX
  8
0
 10
2.35574
 20
1.59625
 30
0.0
 40
0
 41
0
  0
VERTEX
  8
0
 10
2.34543
 20
1.5925
 30
0.0
 40
0
 41
0
  0
VERTEX
  8
0
 10
2.34076
 20
1.58128
 30
0.0
 40
0
 41
0
  0
VERTEX
  8
0
 10
2.34543
 20
1.57004
 30
0.0
 40
0
 41
0
  0
VERTEX
  8
0
 10
2.35574
 20
1.56629
 30
0.0
 40
0
 41
0
  0
VERTEX
  8
0
 10
2.36604
 20
1.57004
 30
0.0
 40
0
 41
0
  0
VERTEX
  8
0
 10
2.37076
 20
1.58128
 30
0.0
 40
0
 41
0
  0
SEQEND
 8
0
  0
POLYLINE
  8
0
 62
     173
 66
     1
 10
0
 20
0
 30
0.0
 70
     1
 40
0
 41
0
  0
VERTEX
  8
0
 10
2.37076
 20
0.715224
 30
0.0
 40
0
 41
0
  0
VERTEX
  8
0
 10
2.36604
 20
0.726508
 30
0.0
 40
0
 41
0
  0
VERTEX
  8
0
 10
2.35574
 20
0.730251
 30
0.0
 40
0
 41
0
  0
VERTEX
  8
0
 10
2.34543
 20
0.726508
 30
0.0
 40
0
 41
0
  0
VERTEX
  8
0
 10
2.34076
 20
0.715224
 30
0.0
 40
0
 41
0
  0
VERTEX
  8
0
 10
2.34543
 20
0.703993
 30
0.0
 40
0
 41
0
  0
VERTEX
  8
0
 10
2.35574
 20
0.70025
 30
0.0
 40
0
 41
0
  0
VERTEX
  8
0
 10
2.36604
 20
0.703993
 30
0.0
 40
0
 41
0
  0
VERTEX
  8
0
 10
2.37076
 20
0.715224
 30
0.0
 40
0
 41
0
  0
SEQEND
 8
0
  0
POLYLINE
  8
0
 62
     173
 66
     1
 10
0
 20
0
 30
0.0
 70
     1
 40
0
 41
0
  0
VERTEX
  8
0
 10
2.44976
 20
1.58128
 30
0.0
 40
0
 41
0
  0
VERTEX
  8
0
 10
2.44504
 20
1.5925
 30
0.0
 40
0
 41
0
  0
VERTEX
  8
0
 10
2.43474
 20
1.59625
 30
0.0
 40
0
 41
0
  0
VERTEX
  8
0
 10
2.42443
 20
1.5925
 30
0.0
 40
0
 41
0
  0
VERTEX
  8
0
 10
2.41976
 20
1.58128
 30
0.0
 40
0
 41
0
  0
VERTEX
  8
0
 10
2.42443
 20
1.57004
 30
0.0
 40
0
 41
0
  0
VERTEX
  8
0
 10
2.43474
 20
1.56629
 30
0.0
 40
0
 41
0
  0
VERTEX
  8
0
 10
2.44504
 20
1.57004
 30
0.0
 40
0
 41
0
  0
VERTEX
  8
0
 10
2.44976
 20
1.58128
 30
0.0
 40
0
 41
0
  0
SEQEND
 8
0
  0
POLYLINE
  8
0
 62
     173
 66
     1
 10
0
 20
0
 30
0.0
 70
     1
 40
0
 41
0
  0
VERTEX
  8
0
 10
2.44976
 20
0.715224
 30
0.0
 40
0
 41
0
  0
VERTEX
  8
0
 10
2.44504
 20
0.726508
 30
0.0
 40
0
 41
0
  0
VERTEX
  8
0
 10
2.43474
 20
0.730251
 30
0.0
 40
0
 41
0
  0
VERTEX
  8
0
 10
2.42443
 20
0.726508
 30
0.0
 40
0
 41
0
  0
VERTEX
  8
0
 10
2.41976
 20
0.715224
 30
0.0
 40
0
 41
0
  0
VERTEX
  8
0
 10
2.42443
 20
0.703993
 30
0.0
 40
0
 41
0
  0
VERTEX
  8
0
 10
2.43474
 20
0.70025
 30
0.0
 40
0
 41
0
  0
VERTEX
  8
0
 10
2.44504
 20
0.703993
 30
0.0
 40
0
 41
0
  0
VERTEX
  8
0
 10
2.44976
 20
0.715224
 30
0.0
 40
0
 41
0
  0
SEQEND
 8
0
  0
POLYLINE
  8
0
 62
     173
 66
     1
 10
0
 20
0
 30
0.0
 70
     1
 40
0
 41
0
  0
VERTEX
  8
0
 10
2.52875
 20
1.58128
 30
0.0
 40
0
 41
0
  0
VERTEX
  8
0
 10
2.52403
 20
1.5925
 30
0.0
 40
0
 41
0
  0
VERTEX
  8
0
 10
2.51372
 20
1.59625
 30
0.0
 40
0
 41
0
  0
VERTEX
  8
0
 10
2.50342
 20
1.5925
 30
0.0
 40
0
 41
0
  0
VERTEX
  8
0
 10
2.49875
 20
1.58128
 30
0.0
 40
0
 41
0
  0
VERTEX
  8
0
 10
2.50342
 20
1.57004
 30
0.0
 40
0
 41
0
  0
VERTEX
  8
0
 10
2.51372
 20
1.56629
 30
0.0
 40
0
 41
0
  0
VERTEX
  8
0
 10
2.52403
 20
1.57004
 30
0.0
 40
0
 41
0
  0
VERTEX
  8
0
 10
2.52875
 20
1.58128
 30
0.0
 40
0
 41
0
  0
SEQEND
 8
0
  0
POLYLINE
  8
0
 62
     173
 66
     1
 10
0
 20
0
 30
0.0
 70
     1
 40
0
 41
0
  0
VERTEX
  8
0
 10
2.52875
 20
0.715224
 30
0.0
 40
0
 41
0
  0
VERTEX
  8
0
 10
2.52403
 20
0.726508
 30
0.0
 40
0
 41
0
  0
VERTEX
  8
0
 10
2.51372
 20
0.730251
 30
0.0
 40
0
 41
0
  0
VERTEX
  8
0
 10
2.50342
 20
0.726508
 30
0.0
 40
0
 41
0
  0
VERTEX
  8
0
 10
2.49875
 20
0.715224
 30
0.0
 40
0
 41
0
  0
VERTEX
  8
0
 10
2.50342
 20
0.703993
 30
0.0
 40
0
 41
0
  0
VERTEX
  8
0
 10
2.51372
 20
0.70025
 30
0.0
 40
0
 41
0
  0
VERTEX
  8
0
 10
2.52403
 20
0.703993
 30
0.0
 40
0
 41
0
  0
VERTEX
  8
0
 10
2.52875
 20
0.715224
 30
0.0
 40
0
 41
0
  0
SEQEND
 8
0
  0
POLYLINE
  8
0
 62
     173
 66
     1
 10
0
 20
0
 30
0.0
 70
     1
 40
0
 41
0
  0
VERTEX
  8
0
 10
2.60775
 20
1.58128
 30
0.0
 40
0
 41
0
  0
VERTEX
  8
0
 10
2.60303
 20
1.5925
 30
0.0
 40
0
 41
0
  0
VERTEX
  8
0
 10
2.59272
 20
1.59625
 30
0.0
 40
0
 41
0
  0
VERTEX
  8
0
 10
2.58242
 20
1.5925
 30
0.0
 40
0
 41
0
  0
VERTEX
  8
0
 10
2.57775
 20
1.58128
 30
0.0
 40
0
 41
0
  0
VERTEX
  8
0
 10
2.58242
 20
1.57004
 30
0.0
 40
0
 41
0
  0
VERTEX
  8
0
 10
2.59272
 20
1.56629
 30
0.0
 40
0
 41
0
  0
VERTEX
  8
0
 10
2.60303
 20
1.57004
 30
0.0
 40
0
 41
0
  0
VERTEX
  8
0
 10
2.60775
 20
1.58128
 30
0.0
 40
0
 41
0
  0
SEQEND
 8
0
  0
POLYLINE
  8
0
 62
     173
 66
     1
 10
0
 20
0
 30
0.0
 70
     1
 40
0
 41
0
  0
VERTEX
  8
0
 10
2.60775
 20
0.715224
 30
0.0
 40
0
 41
0
  0
VERTEX
  8
0
 10
2.60303
 20
0.726508
 30
0.0
 40
0
 41
0
  0
VERTEX
  8
0
 10
2.59272
 20
0.730251
 30
0.0
 40
0
 41
0
  0
VERTEX
  8
0
 10
2.58242
 20
0.726508
 30
0.0
 40
0
 41
0
  0
VERTEX
  8
0
 10
2.57775
 20
0.715224
 30
0.0
 40
0
 41
0
  0
VERTEX
  8
0
 10
2.58242
 20
0.703993
 30
0.0
 40
0
 41
0
  0
VERTEX
  8
0
 10
2.59272
 20
0.70025
 30
0.0
 40
0
 41
0
  0
VERTEX
  8
0
 10
2.60303
 20
0.703993
 30
0.0
 40
0
 41
0
  0
VERTEX
  8
0
 10
2.60775
 20
0.715224
 30
0.0
 40
0
 41
0
  0
SEQEND
 8
0
  0
POLYLINE
  8
0
 62
     173
 66
     1
 10
0
 20
0
 30
0.0
 70
     1
 40
0
 41
0
  0
VERTEX
  8
0
 10
0.881293
 20
2.30626
 30
0.0
 40
0
 41
0
  0
VERTEX
  8
0
 10
0.875814
 20
2.31939
 30
0.0
 40
0
 41
0
  0
VERTEX
  8
0
 10
0.863769
 20
2.32379
 30
0.0
 40
0
 41
0
  0
VERTEX
  8
0
 10
0.851671
 20
2.31939
 30
0.0
 40
0
 41
0
  0
VERTEX
  8
0
 10
0.846246
 20
2.30626
 30
0.0
 40
0
 41
0
  0
VERTEX
  8
0
 10
0.851671
 20
2.29318
 30
0.0
 40
0
 41
0
  0
VERTEX
  8
0
 10
0.863769
 20
2.28879
 30
0.0
 40
0
 41
0
  0
VERTEX
  8
0
 10
0.875814
 20
2.29318
 30
0.0
 40
0
 41
0
  0
VERTEX
  8
0
 10
0.881293
 20
2.30626
 30
0.0
 40
0
 41
0
  0
SEQEND
 8
0
  0
POLYLINE
  8
0
 62
     173
 66
     1
 10
0
 20
0
 30
0.0
 70
     1
 40
0
 41
0
  0
VERTEX
  8
0
 10
0.931261
 20
2.40625
 30
0.0
 40
0
 41
0
  0
VERTEX
  8
0
 10
0.925782
 20
2.41938
 30
0.0
 40
0
 41
0
  0
VERTEX
  8
0
 10
0.913738
 20
2.42378
 30
0.0
 40
0
 41
0
  0
VERTEX
  8
0
 10
0.901693
 20
2.41938
 30
0.0
 40
0
 41
0
  0
VERTEX
  8
0
 10
0.896268
 20
2.40625
 30
0.0
 40
0
 41
0
  0
VERTEX
  8
0
 10
0.901693
 20
2.39318
 30
0.0
 40
0
 41
0
  0
VERTEX
  8
0
 10
0.913738
 20
2.38878
 30
0.0
 40
0
 41
0
  0
VERTEX
  8
0
 10
0.925782
 20
2.39318
 30
0.0
 40
0
 41
0
  0
VERTEX
  8
0
 10
0.931261
 20
2.40625
 30
0.0
 40
0
 41
0
  0
SEQEND
 8
0
  0
POLYLINE
  8
0
 62
     173
 66
     1
 10
0
 20
0
 30
0.0
 70
     1
 40
0
 41
0
  0
VERTEX
  8
0
 10
0.981282
 20
2.30626
 30
0.0
 40
0
 41
0
  0
VERTEX
  8
0
 10
0.975803
 20
2.31939
 30
0.0
 40
0
 41
0
  0
VERTEX
  8
0
 10
0.963758
 20
2.32379
 30
0.0
 40
0
 41
0
  0
VERTEX
  8
0
 10
0.951714
 20
2.31939
 30
0.0
 40
0
 41
0
  0
VERTEX
  8
0
 10
0.946289
 20
2.30626
 30
0.0
 40
0
 41
0
  0
VERTEX
  8
0
 10
0.951714
 20
2.29318
 30
0.0
 40
0
 41
0
  0
VERTEX
  8
0
 10
0.963758
 20
2.28879
 30
0.0
 40
0
 41
0
  0
VERTEX
  8
0
 10
0.975803
 20
2.29318
 30
0.0
 40
0
 41
0
  0
VERTEX
  8
0
 10
0.981282
 20
2.30626
 30
0.0
 40
0
 41
0
  0
SEQEND
 8
0
  0
POLYLINE
  8
0
 62
     173
 66
     1
 10
0
 20
0
 30
0.0
 70
     1
 40
0
 41
0
  0
VERTEX
  8
0
 10
1.03125
 20
2.40625
 30
0.0
 40
0
 41
0
  0
VERTEX
  8
0
 10
1.02577
 20
2.41938
 30
0.0
 40
0
 41
0
  0
VERTEX
  8
0
 10
1.01373
 20
2.42378
 30
0.0
 40
0
 41
0
  0
VERTEX
  8
0
 10
1.00168
 20
2.41938
 30
0.0
 40
0
 41
0
  0
VERTEX
  8
0
 10
0.996257
 20
2.40625
 30
0.0
 40
0
 41
0
  0
VERTEX
  8
0
 10
1.00168
 20
2.39318
 30
0.0
 40
0
 41
0
  0
VERTEX
  8
0
 10
1.01373
 20
2.38878
 30
0.0
 40
0
 41
0
  0
VERTEX
  8
0
 10
1.02577
 20
2.39318
 30
0.0
 40
0
 41
0
  0
VERTEX
  8
0
 10
1.03125
 20
2.40625
 30
0.0
 40
0
 41
0
  0
SEQEND
 8
0
  0
POLYLINE
  8
0
 62
     173
 66
     1
 10
0
 20
0
 30
0.0
 70
     1
 40
0
 41
0
  0
VERTEX
  8
0
 10
1.08127
 20
2.30626
 30
0.0
 40
0
 41
0
  0
VERTEX
  8
0
 10
1.07579
 20
2.31939
 30
0.0
 40
0
 41
0
  0
VERTEX
  8
0
 10
1.06375
 20
2.32379
 30
0.0
 40
0
 41
0
  0
VERTEX
  8
0
 10
1.0517
 20
2.31939
 30
0.0
 40
0
 41
0
  0
VERTEX
  8
0
 10
1.04628
 20
2.30626
 30
0.0
 40
0
 41
0
  0
VERTEX
  8
0
 10
1.0517
 20
2.29318
 30
0.0
 40
0
 41
0
  0
VERTEX
  8
0
 10
1.06375
 20
2.28879
 30
0.0
 40
0
 41
0
  0
VERTEX
  8
0
 10
1.07579
 20
2.29318
 30
0.0
 40
0
 41
0
  0
VERTEX
  8
0
 10
1.08127
 20
2.30626
 30
0.0
 40
0
 41
0
  0
SEQEND
 8
0
  0
POLYLINE
  8
0
 62
     173
 66
     1
 10
0
 20
0
 30
0.0
 70
     1
 40
0
 41
0
  0
VERTEX
  8
0
 10
1.13129
 20
2.40625
 30
0.0
 40
0
 41
0
  0
VERTEX
  8
0
 10
1.12581
 20
2.41938
 30
0.0
 40
0
 41
0
  0
VERTEX
  8
0
 10
1.11377
 20
2.42378
 30
0.0
 40
0
 41
0
  0
VERTEX
  8
0
 10
1.10167
 20
2.41938
 30
0.0
 40
0
 41
0
  0
VERTEX
  8
0
 10
1.09625
 20
2.40625
 30
0.0
 40
0
 41
0
  0
VERTEX
  8
0
 10
1.10167
 20
2.39318
 30
0.0
 40
0
 41
0
  0
VERTEX
  8
0
 10
1.11377
 20
2.38878
 30
0.0
 40
0
 41
0
  0
VERTEX
  8
0
 10
1.12581
 20
2.39318
 30
0.0
 40
0
 41
0
  0
VERTEX
  8
0
 10
1.13129
 20
2.40625
 30
0.0
 40
0
 41
0
  0
SEQEND
 8
0
  0
POLYLINE
  8
0
 62
     173
 66
     1
 10
0
 20
0
 30
0.0
 70
     1
 40
0
 41
0
  0
VERTEX
  8
0
 10
1.18126
 20
2.30626
 30
0.0
 40
0
 41
0
  0
VERTEX
  8
0
 10
1.17578
 20
2.31939
 30
0.0
 40
0
 41
0
  0
VERTEX
  8
0
 10
1.16374
 20
2.32379
 30
0.0
 40
0
 41
0
  0
VERTEX
  8
0
 10
1.15169
 20
2.31939
 30
0.0
 40
0
 41
0
  0
VERTEX
  8
0
 10
1.14627
 20
2.30626
 30
0.0
 40
0
 41
0
  0
VERTEX
  8
0
 10
1.15169
 20
2.29318
 30
0.0
 40
0
 41
0
  0
VERTEX
  8
0
 10
1.16374
 20
2.28879
 30
0.0
 40
0
 41
0
  0
VERTEX
  8
0
 10
1.17578
 20
2.29318
 30
0.0
 40
0
 41
0
  0
VERTEX
  8
0
 10
1.18126
 20
2.30626
 30
0.0
 40
0
 41
0
  0
SEQEND
 8
0
  0
POLYLINE
  8
0
 62
     173
 66
     1
 10
0
 20
0
 30
0.0
 70
     1
 40
0
 41
0
  0
VERTEX
  8
0
 10
1.23128
 20
2.40625
 30
0.0
 40
0
 41
0
  0
VERTEX
  8
0
 10
1.2258
 20
2.41938
 30
0.0
 40
0
 41
0
  0
VERTEX
  8
0
 10
1.21376
 20
2.42378
 30
0.0
 40
0
 41
0
  0
VERTEX
  8
0
 10
1.20171
 20
2.41938
 30
0.0
 40
0
 41
0
  0
VERTEX
  8
0
 10
1.19629
 20
2.40625
 30
0.0
 40
0
 41
0
  0
VERTEX
  8
0
 10
1.20171
 20
2.39318
 30
0.0
 40
0
 41
0
  0
VERTEX
  8
0
 10
1.21376
 20
2.38878
 30
0.0
 40
0
 41
0
  0
VERTEX
  8
0
 10
1.2258
 20
2.39318
 30
0.0
 40
0
 41
0
  0
VERTEX
  8
0
 10
1.23128
 20
2.40625
 30
0.0
 40
0
 41
0
  0
SEQEND
 8
0
  0
POLYLINE
  8
0
 62
     173
 66
     1
 10
0
 20
0
 30
0.0
 70
     1
 40
0
 41
0
  0
VERTEX
  8
0
 10
1.40625
 20
0.591254
 30
0.0
 40
0
 41
0
  0
VERTEX
  8
0
 10
1.40076
 20
0.604383
 30
0.0
 40
0
 41
0
  0
VERTEX
  8
0
 10
1.38873
 20
0.608778
 30
0.0
 40
0
 41
0
  0
VERTEX
  8
0
 10
1.37668
 20
0.604383
 30
0.0
 40
0
 41
0
  0
VERTEX
  8
0
 10
1.37126
 20
0.591254
 30
0.0
 40
0
 41
0
  0
VERTEX
  8
0
 10
1.37668
 20
0.578179
 30
0.0
 40
0
 41
0
  0
VERTEX
  8
0
 10
1.38873
 20
0.573785
 30
0.0
 40
0
 41
0
  0
VERTEX
  8
0
 10
1.40076
 20
0.578179
 30
0.0
 40
0
 41
0
  0
VERTEX
  8
0
 10
1.40625
 20
0.591254
 30
0.0
 40
0
 41
0
  0
SEQEND
 8
0
  0
POLYLINE
  8
0
 62
     173
 66
     1
 10
0
 20
0
 30
0.0
 70
     1
 40
0
 41
0
  0
VERTEX
  8
0
 10
1.40625
 20
0.491265
 30
0.0
 40
0
 41
0
  0
VERTEX
  8
0
 10
1.40076
 20
0.504394
 30
0.0
 40
0
 41
0
  0
VERTEX
  8
0
 10
1.38873
 20
0.508789
 30
0.0
 40
0
 41
0
  0
VERTEX
  8
0
 10
1.37668
 20
0.504394
 30
0.0
 40
0
 41
0
  0
VERTEX
  8
0
 10
1.37126
 20
0.491265
 30
0.0
 40
0
 41
0
  0
VERTEX
  8
0
 10
1.37668
 20
0.47819
 30
0.0
 40
0
 41
0
  0
VERTEX
  8
0
 10
1.38873
 20
0.473796
 30
0.0
 40
0
 41
0
  0
VERTEX
  8
0
 10
1.40076
 20
0.47819
 30
0.0
 40
0
 41
0
  0
VERTEX
  8
0
 10
1.40625
 20
0.491265
 30
0.0
 40
0
 41
0
  0
SEQEND
 8
0
  0
POLYLINE
  8
0
 62
     173
 66
     1
 10
0
 20
0
 30
0.0
 70
     1
 40
0
 41
0
  0
VERTEX
  8
0
 10
1.40625
 20
0.391222
 30
0.0
 40
0
 41
0
  0
VERTEX
  8
0
 10
1.40076
 20
0.404406
 30
0.0
 40
0
 41
0
  0
VERTEX
  8
0
 10
1.38873
 20
0.4088
 30
0.0
 40
0
 41
0
  0
VERTEX
  8
0
 10
1.37668
 20
0.404406
 30
0.0
 40
0
 41
0
  0
VERTEX
  8
0
 10
1.37126
 20
0.391222
 30
0.0
 40
0
 41
0
  0
VERTEX
  8
0
 10
1.37668
 20
0.378147
 30
0.0
 40
0
 41
0
  0
VERTEX
  8
0
 10
1.38873
 20
0.373753
 30
0.0
 40
0
 41
0
  0
VERTEX
  8
0
 10
1.40076
 20
0.378147
 30
0.0
 40
0
 41
0
  0
VERTEX
  8
0
 10
1.40625
 20
0.391222
 30
0.0
 40
0
 41
0
  0
SEQEND
 8
0
  0
POLYLINE
  8
0
 62
     173
 66
     1
 10
0
 20
0
 30
0.0
 70
     1
 40
0
 41
0
  0
VERTEX
  8
0
 10
1.40625
 20
0.291233
 30
0.0
 40
0
 41
0
  0
VERTEX
  8
0
 10
1.40076
 20
0.304363
 30
0.0
 40
0
 41
0
  0
VERTEX
  8
0
 10
1.38873
 20
0.308757
 30
0.0
 40
0
 41
0
  0
VERTEX
  8
0
 10
1.37668
 20
0.304363
 30
0.0
 40
0
 41
0
  0
VERTEX
  8
0
 10
1.37126
 20
0.291233
 30
0.0
 40
0
 41
0
  0
VERTEX
  8
0
 10
1.37668
 20
0.278157
 30
0.0
 40
0
 41
0
  0
VERTEX
  8
0
 10
1.38873
 20
0.273762
 30
0.0
 40
0
 41
0
  0
VERTEX
  8
0
 10
1.40076
 20
0.278157
 30
0.0
 40
0
 41
0
  0
VERTEX
  8
0
 10
1.40625
 20
0.291233
 30
0.0
 40
0
 41
0
  0
SEQEND
 8
0
  0
POLYLINE
  8
0
 62
     173
 66
     1
 10
0
 20
0
 30
0.0
 70
     1
 40
0
 41
0
  0
VERTEX
  8
0
 10
1.50629
 20
0.541233
 30
0.0
 40
0
 41
0
  0
VERTEX
  8
0
 10
1.50082
 20
0.554363
 30
0.0
 40
0
 41
0
  0
VERTEX
  8
0
 10
1.48876
 20
0.558757
 30
0.0
 40
0
 41
0
  0
VERTEX
  8
0
 10
1.47667
 20
0.554363
 30
0.0
 40
0
 41
0
  0
VERTEX
  8
0
 10
1.47125
 20
0.541233
 30
0.0
 40
0
 41
0
  0
VERTEX
  8
0
 10
1.47667
 20
0.528157
 30
0.0
 40
0
 41
0
  0
VERTEX
  8
0
 10
1.48876
 20
0.523762
 30
0.0
 40
0
 41
0
  0
VERTEX
  8
0
 10
1.50082
 20
0.528157
 30
0.0
 40
0
 41
0
  0
VERTEX
  8
0
 10
1.50629
 20
0.541233
 30
0.0
 40
0
 41
0
  0
SEQEND
 8
0
  0
POLYLINE
  8
0
 62
     173
 66
     1
 10
0
 20
0
 30
0.0
 70
     1
 40
0
 41
0
  0
VERTEX
  8
0
 10
1.50629
 20
0.441243
 30
0.0
 40
0
 41
0
  0
VERTEX
  8
0
 10
1.50082
 20
0.454372
 30
0.0
 40
0
 41
0
  0
VERTEX
  8
0
 10
1.48876
 20
0.458768
 30
0.0
 40
0
 41
0
  0
VERTEX
  8
0
 10
1.47667
 20
0.454372
 30
0.0
 40
0
 41
0
  0
VERTEX
  8
0
 10
1.47125
 20
0.441243
 30
0.0
 40
0
 41
0
  0
VERTEX
  8
0
 10
1.47667
 20
0.428168
 30
0.0
 40
0
 41
0
  0
VERTEX
  8
0
 10
1.48876
 20
0.423774
 30
0.0
 40
0
 41
0
  0
VERTEX
  8
0
 10
1.50082
 20
0.428168
 30
0.0
 40
0
 41
0
  0
VERTEX
  8
0
 10
1.50629
 20
0.441243
 30
0.0
 40
0
 41
0
  0
SEQEND
 8
0
  0
POLYLINE
  8
0
 62
     173
 66
     1
 10
0
 20
0
 30
0.0
 70
     1
 40
0
 41
0
  0
VERTEX
  8
0
 10
1.50629
 20
0.341254
 30
0.0
 40
0
 41
0
  0
VERTEX
  8
0
 10
1.50082
 20
0.354383
 30
0.0
 40
0
 41
0
  0
VERTEX
  8
0
 10
1.48876
 20
0.358778
 30
0.0
 40
0
 41
0
  0
VERTEX
  8
0
 10
1.47667
 20
0.354383
 30
0.0
 40
0
 41
0
  0
VERTEX
  8
0
 10
1.47125
 20
0.341254
 30
0.0
 40
0
 41
0
  0
VERTEX
  8
0
 10
1.47667
 20
0.328179
 30
0.0
 40
0
 41
0
  0
VERTEX
  8
0
 10
1.48876
 20
0.323785
 30
0.0
 40
0
 41
0
  0
VERTEX
  8
0
 10
1.50082
 20
0.328179
 30
0.0
 40
0
 41
0
  0
VERTEX
  8
0
 10
1.50629
 20
0.341254
 30
0.0
 40
0
 41
0
  0
SEQEND
 8
0
  0
POLYLINE
  8
0
 62
     173
 66
     1
 10
0
 20
0
 30
0.0
 70
     1
 40
0
 41
0
  0
VERTEX
  8
0
 10
1.50629
 20
0.241265
 30
0.0
 40
0
 41
0
  0
VERTEX
  8
0
 10
1.50082
 20
0.254394
 30
0.0
 40
0
 41
0
  0
VERTEX
  8
0
 10
1.48876
 20
0.258789
 30
0.0
 40
0
 41
0
  0
VERTEX
  8
0
 10
1.47667
 20
0.254394
 30
0.0
 40
0
 41
0
  0
VERTEX
  8
0
 10
1.47125
 20
0.241265
 30
0.0
 40
0
 41
0
  0
VERTEX
  8
0
 10
1.47667
 20
0.22819
 30
0.0
 40
0
 41
0
  0
VERTEX
  8
0
 10
1.48876
 20
0.223796
 30
0.0
 40
0
 41
0
  0
VERTEX
  8
0
 10
1.50082
 20
0.22819
 30
0.0
 40
0
 41
0
  0
VERTEX
  8
0
 10
1.50629
 20
0.241265
 30
0.0
 40
0
 41
0
  0
SEQEND
 8
0
  0
POLYLINE
  8
0
 62
     173
 66
     1
 10
0
 20
0
 30
0.0
 70
     1
 40
0
 41
0
  0
VERTEX
  8
0
 10
1.60628
 20
2.30626
 30
0.0
 40
0
 41
0
  0
VERTEX
  8
0
 10
1.60081
 20
2.31939
 30
0.0
 40
0
 41
0
  0
VERTEX
  8
0
 10
1.58876
 20
2.32379
 30
0.0
 40
0
 41
0
  0
VERTEX
  8
0
 10
1.57671
 20
2.31939
 30
0.0
 40
0
 41
0
  0
VERTEX
  8
0
 10
1.57129
 20
2.30626
 30
0.0
 40
0
 41
0
  0
VERTEX
  8
0
 10
1.57671
 20
2.29318
 30
0.0
 40
0
 41
0
  0
VERTEX
  8
0
 10
1.58876
 20
2.28879
 30
0.0
 40
0
 41
0
  0
VERTEX
  8
0
 10
1.60081
 20
2.29318
 30
0.0
 40
0
 41
0
  0
VERTEX
  8
0
 10
1.60628
 20
2.30626
 30
0.0
 40
0
 41
0
  0
SEQEND
 8
0
  0
POLYLINE
  8
0
 62
     173
 66
     1
 10
0
 20
0
 30
0.0
 70
     1
 40
0
 41
0
  0
VERTEX
  8
0
 10
1.65625
 20
2.40625
 30
0.0
 40
0
 41
0
  0
VERTEX
  8
0
 10
1.65076
 20
2.41938
 30
0.0
 40
0
 41
0
  0
VERTEX
  8
0
 10
1.63872
 20
2.42378
 30
0.0
 40
0
 41
0
  0
VERTEX
  8
0
 10
1.62668
 20
2.41938
 30
0.0
 40
0
 41
0
  0
VERTEX
  8
0
 10
1.62125
 20
2.40625
 30
0.0
 40
0
 41
0
  0
VERTEX
  8
0
 10
1.62668
 20
2.39318
 30
0.0
 40
0
 41
0
  0
VERTEX
  8
0
 10
1.63872
 20
2.38878
 30
0.0
 40
0
 41
0
  0
VERTEX
  8
0
 10
1.65076
 20
2.39318
 30
0.0
 40
0
 41
0
  0
VERTEX
  8
0
 10
1.65625
 20
2.40625
 30
0.0
 40
0
 41
0
  0
SEQEND
 8
0
  0
POLYLINE
  8
0
 62
     173
 66
     1
 10
0
 20
0
 30
0.0
 70
     1
 40
0
 41
0
  0
VERTEX
  8
0
 10
1.70628
 20
2.30626
 30
0.0
 40
0
 41
0
  0
VERTEX
  8
0
 10
1.70079
 20
2.31939
 30
0.0
 40
0
 41
0
  0
VERTEX
  8
0
 10
1.68875
 20
2.32379
 30
0.0
 40
0
 41
0
  0
VERTEX
  8
0
 10
1.67671
 20
2.31939
 30
0.0
 40
0
 41
0
  0
VERTEX
  8
0
 10
1.67128
 20
2.30626
 30
0.0
 40
0
 41
0
  0
VERTEX
  8
0
 10
1.67671
 20
2.29318
 30
0.0
 40
0
 41
0
  0
VERTEX
  8
0
 10
1.68875
 20
2.28879
 30
0.0
 40
0
 41
0
  0
VERTEX
  8
0
 10
1.70079
 20
2.29318
 30
0.0
 40
0
 41
0
  0
VERTEX
  8
0
 10
1.70628
 20
2.30626
 30
0.0
 40
0
 41
0
  0
SEQEND
 8
0
  0
POLYLINE
  8
0
 62
     173
 66
     1
 10
0
 20
0
 30
0.0
 70
     1
 40
0
 41
0
  0
VERTEX
  8
0
 10
1.75629
 20
2.40625
 30
0.0
 40
0
 41
0
  0
VERTEX
  8
0
 10
1.75082
 20
2.41938
 30
0.0
 40
0
 41
0
  0
VERTEX
  8
0
 10
1.73876
 20
2.42378
 30
0.0
 40
0
 41
0
  0
VERTEX
  8
0
 10
1.72667
 20
2.41938
 30
0.0
 40
0
 41
0
  0
VERTEX
  8
0
 10
1.72125
 20
2.40625
 30
0.0
 40
0
 41
0
  0
VERTEX
  8
0
 10
1.72667
 20
2.39318
 30
0.0
 40
0
 41
0
  0
VERTEX
  8
0
 10
1.73876
 20
2.38878
 30
0.0
 40
0
 41
0
  0
VERTEX
  8
0
 10
1.75082
 20
2.39318
 30
0.0
 40
0
 41
0
  0
VERTEX
  8
0
 10
1.75629
 20
2.40625
 30
0.0
 40
0
 41
0
  0
SEQEND
 8
0
  0
POLYLINE
  8
0
 62
     173
 66
     1
 10
0
 20
0
 30
0.0
 70
     1
 40
0
 41
0
  0
VERTEX
  8
0
 10
1.80626
 20
2.30626
 30
0.0
 40
0
 41
0
  0
VERTEX
  8
0
 10
1.80078
 20
2.31939
 30
0.0
 40
0
 41
0
  0
VERTEX
  8
0
 10
1.78874
 20
2.32379
 30
0.0
 40
0
 41
0
  0
VERTEX
  8
0
 10
1.77669
 20
2.31939
 30
0.0
 40
0
 41
0
  0
VERTEX
  8
0
 10
1.77126
 20
2.30626
 30
0.0
 40
0
 41
0
  0
VERTEX
  8
0
 10
1.77669
 20
2.29318
 30
0.0
 40
0
 41
0
  0
VERTEX
  8
0
 10
1.78874
 20
2.28879
 30
0.0
 40
0
 41
0
  0
VERTEX
  8
0
 10
1.80078
 20
2.29318
 30
0.0
 40
0
 41
0
  0
VERTEX
  8
0
 10
1.80626
 20
2.30626
 30
0.0
 40
0
 41
0
  0
SEQEND
 8
0
  0
POLYLINE
  8
0
 62
     173
 66
     1
 10
0
 20
0
 30
0.0
 70
     1
 40
0
 41
0
  0
VERTEX
  8
0
 10
1.85628
 20
2.40625
 30
0.0
 40
0
 41
0
  0
VERTEX
  8
0
 10
1.85081
 20
2.41938
 30
0.0
 40
0
 41
0
  0
VERTEX
  8
0
 10
1.83876
 20
2.42378
 30
0.0
 40
0
 41
0
  0
VERTEX
  8
0
 10
1.82671
 20
2.41938
 30
0.0
 40
0
 41
0
  0
VERTEX
  8
0
 10
1.82129
 20
2.40625
 30
0.0
 40
0
 41
0
  0
VERTEX
  8
0
 10
1.82671
 20
2.39318
 30
0.0
 40
0
 41
0
  0
VERTEX
  8
0
 10
1.83876
 20
2.38878
 30
0.0
 40
0
 41
0
  0
VERTEX
  8
0
 10
1.85081
 20
2.39318
 30
0.0
 40
0
 41
0
  0
VERTEX
  8
0
 10
1.85628
 20
2.40625
 30
0.0
 40
0
 41
0
  0
SEQEND
 8
0
  0
POLYLINE
  8
0
 62
     173
 66
     1
 10
0
 20
0
 30
0.0
 70
     1
 40
0
 41
0
  0
VERTEX
  8
0
 10
1.90625
 20
2.30626
 30
0.0
 40
0
 41
0
  0
VERTEX
  8
0
 10
1.90076
 20
2.31939
 30
0.0
 40
0
 41
0
  0
VERTEX
  8
0
 10
1.88872
 20
2.32379
 30
0.0
 40
0
 41
0
  0
VERTEX
  8
0
 10
1.87668
 20
2.31939
 30
0.0
 40
0
 41
0
  0
VERTEX
  8
0
 10
1.87125
 20
2.30626
 30
0.0
 40
0
 41
0
  0
VERTEX
  8
0
 10
1.87668
 20
2.29318
 30
0.0
 40
0
 41
0
  0
VERTEX
  8
0
 10
1.88872
 20
2.28879
 30
0.0
 40
0
 41
0
  0
VERTEX
  8
0
 10
1.90076
 20
2.29318
 30
0.0
 40
0
 41
0
  0
VERTEX
  8
0
 10
1.90625
 20
2.30626
 30
0.0
 40
0
 41
0
  0
SEQEND
 8
0
  0
POLYLINE
  8
0
 62
     173
 66
     1
 10
0
 20
0
 30
0.0
 70
     1
 40
0
 41
0
  0
VERTEX
  8
0
 10
1.95628
 20
2.40625
 30
0.0
 40
0
 41
0
  0
VERTEX
  8
0
 10
1.95079
 20
2.41938
 30
0.0
 40
0
 41
0
  0
VERTEX
  8
0
 10
1.93875
 20
2.42378
 30
0.0
 40
0
 41
0
  0
VERTEX
  8
0
 10
1.92671
 20
2.41938
 30
0.0
 40
0
 41
0
  0
VERTEX
  8
0
 10
1.92128
 20
2.40625
 30
0.0
 40
0
 41
0
  0
VERTEX
  8
0
 10
1.92671
 20
2.39318
 30
0.0
 40
0
 41
0
  0
VERTEX
  8
0
 10
1.93875
 20
2.38878
 30
0.0
 40
0
 41
0
  0
VERTEX
  8
0
 10
1.95079
 20
2.39318
 30
0.0
 40
0
 41
0
  0
VERTEX
  8
0
 10
1.95628
 20
2.40625
 30
0.0
 40
0
 41
0
  0
SEQEND
 8
0
  0
POLYLINE
  8
0
 62
     173
 66
     1
 10
0
 20
0
 30
0.0
 70
     1
 40
0
 41
0
  0
VERTEX
  8
0
 10
2.33128
 20
2.30626
 30
0.0
 40
0
 41
0
  0
VERTEX
  8
0
 10
2.32579
 20
2.31939
 30
0.0
 40
0
 41
0
  0
VERTEX
  8
0
 10
2.31375
 20
2.32379
 30
0.0
 40
0
 41
0
  0
VERTEX
  8
0
 10
2.30171
 20
2.31939
 30
0.0
 40
0
 41
0
  0
VERTEX
  8
0
 10
2.29628
 20
2.30626
 30
0.0
 40
0
 41
0
  0
VERTEX
  8
0
 10
2.30171
 20
2.29318
 30
0.0
 40
0
 41
0
  0
VERTEX
  8
0
 10
2.31375
 20
2.28879
 30
0.0
 40
0
 41
0
  0
VERTEX
  8
0
 10
2.32579
 20
2.29318
 30
0.0
 40
0
 41
0
  0
VERTEX
  8
0
 10
2.33128
 20
2.30626
 30
0.0
 40
0
 41
0
  0
SEQEND
 8
0
  0
POLYLINE
  8
0
 62
     173
 66
     1
 10
0
 20
0
 30
0.0
 70
     1
 40
0
 41
0
  0
VERTEX
  8
0
 10
2.38129
 20
2.40625
 30
0.0
 40
0
 41
0
  0
VERTEX
  8
0
 10
2.37582
 20
2.41938
 30
0.0
 40
0
 41
0
  0
VERTEX
  8
0
 10
2.36376
 20
2.42378
 30
0.0
 40
0
 41
0
  0
VERTEX
  8
0
 10
2.35167
 20
2.41938
 30
0.0
 40
0
 41
0
  0
VERTEX
  8
0
 10
2.34625
 20
2.40625
 30
0.0
 40
0
 41
0
  0
VERTEX
  8
0
 10
2.35167
 20
2.39318
 30
0.0
 40
0
 41
0
  0
VERTEX
  8
0
 10
2.36376
 20
2.38878
 30
0.0
 40
0
 41
0
  0
VERTEX
  8
0
 10
2.37582
 20
2.39318
 30
0.0
 40
0
 41
0
  0
VERTEX
  8
0
 10
2.38129
 20
2.40625
 30
0.0
 40
0
 41
0
  0
SEQEND
 8
0
  0
POLYLINE
  8
0
 62
     173
 66
     1
 10
0
 20
0
 30
0.0
 70
     1
 40
0
 41
0
  0
VERTEX
  8
0
 10
2.43126
 20
2.30626
 30
0.0
 40
0
 41
0
  0
VERTEX
  8
0
 10
2.42578
 20
2.31939
 30
0.0
 40
0
 41
0
  0
VERTEX
  8
0
 10
2.41374
 20
2.32379
 30
0.0
 40
0
 41
0
  0
VERTEX
  8
0
 10
2.40169
 20
2.31939
 30
0.0
 40
0
 41
0
  0
VERTEX
  8
0
 10
2.39626
 20
2.30626
 30
0.0
 40
0
 41
0
  0
VERTEX
  8
0
 10
2.40169
 20
2.29318
 30
0.0
 40
0
 41
0
  0
VERTEX
  8
0
 10
2.41374
 20
2.28879
 30
0.0
 40
0
 41
0
  0
VERTEX
  8
0
 10
2.42578
 20
2.29318
 30
0.0
 40
0
 41
0
  0
VERTEX
  8
0
 10
2.43126
 20
2.30626
 30
0.0
 40
0
 41
0
  0
SEQEND
 8
0
  0
POLYLINE
  8
0
 62
     173
 66
     1
 10
0
 20
0
 30
0.0
 70
     1
 40
0
 41
0
  0
VERTEX
  8
0
 10
2.48128
 20
2.40625
 30
0.0
 40
0
 41
0
  0
VERTEX
  8
0
 10
2.47581
 20
2.41938
 30
0.0
 40
0
 41
0
  0
VERTEX
  8
0
 10
2.46376
 20
2.42378
 30
0.0
 40
0
 41
0
  0
VERTEX
  8
0
 10
2.45171
 20
2.41938
 30
0.0
 40
0
 41
0
  0
VERTEX
  8
0
 10
2.44629
 20
2.40625
 30
0.0
 40
0
 41
0
  0
VERTEX
  8
0
 10
2.45171
 20
2.39318
 30
0.0
 40
0
 41
0
  0
VERTEX
  8
0
 10
2.46376
 20
2.38878
 30
0.0
 40
0
 41
0
  0
VERTEX
  8
0
 10
2.47581
 20
2.39318
 30
0.0
 40
0
 41
0
  0
VERTEX
  8
0
 10
2.48128
 20
2.40625
 30
0.0
 40
0
 41
0
  0
SEQEND
 8
0
  0
POLYLINE
  8
0
 62
     173
 66
     1
 10
0
 20
0
 30
0.0
 70
     1
 40
0
 41
0
  0
VERTEX
  8
0
 10
2.53125
 20
2.30626
 30
0.0
 40
0
 41
0
  0
VERTEX
  8
0
 10
2.52576
 20
2.31939
 30
0.0
 40
0
 41
0
  0
VERTEX
  8
0
 10
2.51372
 20
2.32379
 30
0.0
 40
0
 41
0
  0
VERTEX
  8
0
 10
2.50168
 20
2.31939
 30
0.0
 40
0
 41
0
  0
VERTEX
  8
0
 10
2.49625
 20
2.30626
 30
0.0
 40
0
 41
0
  0
VERTEX
  8
0
 10
2.50168
 20
2.29318
 30
0.0
 40
0
 41
0
  0
VERTEX
  8
0
 10
2.51372
 20
2.28879
 30
0.0
 40
0
 41
0
  0
VERTEX
  8
0
 10
2.52576
 20
2.29318
 30
0.0
 40
0
 41
0
  0
VERTEX
  8
0
 10
2.53125
 20
2.30626
 30
0.0
 40
0
 41
0
  0
SEQEND
 8
0
  0
POLYLINE
  8
0
 62
     173
 66
     1
 10
0
 20
0
 30
0.0
 70
     1
 40
0
 41
0
  0
VERTEX
  8
0
 10
2.58128
 20
2.40625
 30
0.0
 40
0
 41
0
  0
VERTEX
  8
0
 10
2.57579
 20
2.41938
 30
0.0
 40
0
 41
0
  0
VERTEX
  8
0
 10
2.56375
 20
2.42378
 30
0.0
 40
0
 41
0
  0
VERTEX
  8
0
 10
2.55171
 20
2.41938
 30
0.0
 40
0
 41
0
  0
VERTEX
  8
0
 10
2.54628
 20
2.40625
 30
0.0
 40
0
 41
0
  0
VERTEX
  8
0
 10
2.55171
 20
2.39318
 30
0.0
 40
0
 41
0
  0
VERTEX
  8
0
 10
2.56375
 20
2.38878
 30
0.0
 40
0
 41
0
  0
VERTEX
  8
0
 10
2.57579
 20
2.39318
 30
0.0
 40
0
 41
0
  0
VERTEX
  8
0
 10
2.58128
 20
2.40625
 30
0.0
 40
0
 41
0
  0
SEQEND
 8
0
  0
POLYLINE
  8
0
 62
     173
 66
     1
 10
0
 20
0
 30
0.0
 70
     1
 40
0
 41
0
  0
VERTEX
  8
0
 10
2.63129
 20
2.30626
 30
0.0
 40
0
 41
0
  0
VERTEX
  8
0
 10
2.62582
 20
2.31939
 30
0.0
 40
0
 41
0
  0
VERTEX
  8
0
 10
2.61376
 20
2.32379
 30
0.0
 40
0
 41
0
  0
VERTEX
  8
0
 10
2.60167
 20
2.31939
 30
0.0
 40
0
 41
0
  0
VERTEX
  8
0
 10
2.59625
 20
2.30626
 30
0.0
 40
0
 41
0
  0
VERTEX
  8
0
 10
2.60167
 20
2.29318
 30
0.0
 40
0
 41
0
  0
VERTEX
  8
0
 10
2.61376
 20
2.28879
 30
0.0
 40
0
 41
0
  0
VERTEX
  8
0
 10
2.62582
 20
2.29318
 30
0.0
 40
0
 41
0
  0
VERTEX
  8
0
 10
2.63129
 20
2.30626
 30
0.0
 40
0
 41
0
  0
SEQEND
 8
0
  0
POLYLINE
  8
0
 62
     173
 66
     1
 10
0
 20
0
 30
0.0
 70
     1
 40
0
 41
0
  0
VERTEX
  8
0
 10
2.68126
 20
2.40625
 30
0.0
 40
0
 41
0
  0
VERTEX
  8
0
 10
2.67578
 20
2.41938
 30
0.0
 40
0
 41
0
  0
VERTEX
  8
0
 10
2.66374
 20
2.42378
 30
0.0
 40
0
 41
0
  0
VERTEX
  8
0
 10
2.65169
 20
2.41938
 30
0.0
 40
0
 41
0
  0
VERTEX
  8
0
 10
2.64626
 20
2.40625
 30
0.0
 40
0
 41
0
  0
VERTEX
  8
0
 10
2.65169
 20
2.39318
 30
0.0
 40
0
 41
0
  0
VERTEX
  8
0
 10
2.66374
 20
2.38878
 30
0.0
 40
0
 41
0
  0
VERTEX
  8
0
 10
2.67578
 20
2.39318
 30
0.0
 40
0
 41
0
  0
VERTEX
  8
0
 10
2.68126
 20
2.40625
 30
0.0
 40
0
 41
0
  0
SEQEND
 8
0
  0
POLYLINE
  8
0
 62
     173
 66
     1
 10
0
 20
0
 30
0.0
 70
     1
 40
0
 41
0
  0
VERTEX
  8
0
 10
0.587782
 20
1.08127
 30
0.0
 40
0
 41
0
  0
VERTEX
  8
0
 10
0.581814
 20
1.09554
 30
0.0
 40
0
 41
0
  0
VERTEX
  8
0
 10
0.568739
 20
1.10026
 30
0.0
 40
0
 41
0
  0
VERTEX
  8
0
 10
0.555664
 20
1.09554
 30
0.0
 40
0
 41
0
  0
VERTEX
  8
0
 10
0.54975
 20
1.08127
 30
0.0
 40
0
 41
0
  0
VERTEX
  8
0
 10
0.555664
 20
1.06706
 30
0.0
 40
0
 41
0
  0
VERTEX
  8
0
 10
0.568739
 20
1.06228
 30
0.0
 40
0
 41
0
  0
VERTEX
  8
0
 10
0.581814
 20
1.06706
 30
0.0
 40
0
 41
0
  0
VERTEX
  8
0
 10
0.587782
 20
1.08127
 30
0.0
 40
0
 41
0
  0
SEQEND
 8
0
  0
POLYLINE
  8
0
 62
     173
 66
     1
 10
0
 20
0
 30
0.0
 70
     1
 40
0
 41
0
  0
VERTEX
  8
0
 10
0.587782
 20
0.981228
 30
0.0
 40
0
 41
0
  0
VERTEX
  8
0
 10
0.581814
 20
0.995497
 30
0.0
 40
0
 41
0
  0
VERTEX
  8
0
 10
0.568739
 20
1.00027
 30
0.0
 40
0
 41
0
  0
VERTEX
  8
0
 10
0.555664
 20
0.995497
 30
0.0
 40
0
 41
0
  0
VERTEX
  8
0
 10
0.54975
 20
0.981228
 30
0.0
 40
0
 41
0
  0
VERTEX
  8
0
 10
0.555664
 20
0.967014
 30
0.0
 40
0
 41
0
  0
VERTEX
  8
0
 10
0.568739
 20
0.96224
 30
0.0
 40
0
 41
0
  0
VERTEX
  8
0
 10
0.581814
 20
0.967014
 30
0.0
 40
0
 41
0
  0
VERTEX
  8
0
 10
0.587782
 20
0.981228
 30
0.0
 40
0
 41
0
  0
SEQEND
 8
0
  0
POLYLINE
  8
0
 62
     173
 66
     1
 10
0
 20
0
 30
0.0
 70
     1
 40
0
 41
0
  0
VERTEX
  8
0
 10
0.687771
 20
1.08127
 30
0.0
 40
0
 41
0
  0
VERTEX
  8
0
 10
0.681803
 20
1.09554
 30
0.0
 40
0
 41
0
  0
VERTEX
  8
0
 10
0.668782
 20
1.10026
 30
0.0
 40
0
 41
0
  0
VERTEX
  8
0
 10
0.655707
 20
1.09554
 30
0.0
 40
0
 41
0
  0
VERTEX
  8
0
 10
0.649794
 20
1.08127
 30
0.0
 40
0
 41
0
  0
VERTEX
  8
0
 10
0.655707
 20
1.06706
 30
0.0
 40
0
 41
0
  0
VERTEX
  8
0
 10
0.668782
 20
1.06228
 30
0.0
 40
0
 41
0
  0
VERTEX
  8
0
 10
0.681803
 20
1.06706
 30
0.0
 40
0
 41
0
  0
VERTEX
  8
0
 10
0.687771
 20
1.08127
 30
0.0
 40
0
 41
0
  0
SEQEND
 8
0
  0
POLYLINE
  8
0
 62
     173
 66
     1
 10
0
 20
0
 30
0.0
 70
     1
 40
0
 41
0
  0
VERTEX
  8
0
 10
0.687771
 20
0.981228
 30
0.0
 40
0
 41
0
  0
VERTEX
  8
0
 10
0.681803
 20
0.995497
 30
0.0
 40
0
 41
0
  0
VERTEX
  8
0
 10
0.668782
 20
1.00027
 30
0.0
 40
0
 41
0
  0
VERTEX
  8
0
 10
0.655707
 20
0.995497
 30
0.0
 40
0
 41
0
  0
VERTEX
  8
0
 10
0.649794
 20
0.981228
 30
0.0
 40
0
 41
0
  0
VERTEX
  8
0
 10
0.655707
 20
0.967014
 30
0.0
 40
0
 41
0
  0
VERTEX
  8
0
 10
0.668782
 20
0.96224
 30
0.0
 40
0
 41
0
  0
VERTEX
  8
0
 10
0.681803
 20
0.967014
 30
0.0
 40
0
 41
0
  0
VERTEX
  8
0
 10
0.687771
 20
0.981228
 30
0.0
 40
0
 41
0
  0
SEQEND
 8
0
  0
POLYLINE
  8
0
 62
     173
 66
     1
 10
0
 20
0
 30
0.0
 70
     1
 40
0
 41
0
  0
VERTEX
  8
0
 10
0.752767
 20
1.64122
 30
0.0
 40
0
 41
0
  0
VERTEX
  8
0
 10
0.746799
 20
1.65549
 30
0.0
 40
0
 41
0
  0
VERTEX
  8
0
 10
0.733778
 20
1.66026
 30
0.0
 40
0
 41
0
  0
VERTEX
  8
0
 10
0.720703
 20
1.65549
 30
0.0
 40
0
 41
0
  0
VERTEX
  8
0
 10
0.714789
 20
1.64122
 30
0.0
 40
0
 41
0
  0
VERTEX
  8
0
 10
0.720703
 20
1.62701
 30
0.0
 40
0
 41
0
  0
VERTEX
  8
0
 10
0.733778
 20
1.62229
 30
0.0
 40
0
 41
0
  0
VERTEX
  8
0
 10
0.746799
 20
1.62701
 30
0.0
 40
0
 41
0
  0
VERTEX
  8
0
 10
0.752767
 20
1.64122
 30
0.0
 40
0
 41
0
  0
SEQEND
 8
0
  0
POLYLINE
  8
0
 62
     173
 66
     1
 10
0
 20
0
 30
0.0
 70
     1
 40
0
 41
0
  0
VERTEX
  8
0
 10
0.752767
 20
1.34625
 30
0.0
 40
0
 41
0
  0
VERTEX
  8
0
 10
0.746799
 20
1.36051
 30
0.0
 40
0
 41
0
  0
VERTEX
  8
0
 10
0.733778
 20
1.36529
 30
0.0
 40
0
 41
0
  0
VERTEX
  8
0
 10
0.720703
 20
1.36051
 30
0.0
 40
0
 41
0
  0
VERTEX
  8
0
 10
0.714789
 20
1.34625
 30
0.0
 40
0
 41
0
  0
VERTEX
  8
0
 10
0.720703
 20
1.33203
 30
0.0
 40
0
 41
0
  0
VERTEX
  8
0
 10
0.733778
 20
1.32726
 30
0.0
 40
0
 41
0
  0
VERTEX
  8
0
 10
0.746799
 20
1.33203
 30
0.0
 40
0
 41
0
  0
VERTEX
  8
0
 10
0.752767
 20
1.34625
 30
0.0
 40
0
 41
0
  0
SEQEND
 8
0
  0
POLYLINE
  8
0
 62
     173
 66
     1
 10
0
 20
0
 30
0.0
 70
     1
 40
0
 41
0
  0
VERTEX
  8
0
 10
0.787761
 20
1.08127
 30
0.0
 40
0
 41
0
  0
VERTEX
  8
0
 10
0.781793
 20
1.09554
 30
0.0
 40
0
 41
0
  0
VERTEX
  8
0
 10
0.768772
 20
1.10026
 30
0.0
 40
0
 41
0
  0
VERTEX
  8
0
 10
0.755697
 20
1.09554
 30
0.0
 40
0
 41
0
  0
VERTEX
  8
0
 10
0.749783
 20
1.08127
 30
0.0
 40
0
 41
0
  0
VERTEX
  8
0
 10
0.755697
 20
1.06706
 30
0.0
 40
0
 41
0
  0
VERTEX
  8
0
 10
0.768772
 20
1.06228
 30
0.0
 40
0
 41
0
  0
VERTEX
  8
0
 10
0.781793
 20
1.06706
 30
0.0
 40
0
 41
0
  0
VERTEX
  8
0
 10
0.787761
 20
1.08127
 30
0.0
 40
0
 41
0
  0
SEQEND
 8
0
  0
POLYLINE
  8
0
 62
     173
 66
     1
 10
0
 20
0
 30
0.0
 70
     1
 40
0
 41
0
  0
VERTEX
  8
0
 10
0.787761
 20
0.981228
 30
0.0
 40
0
 41
0
  0
VERTEX
  8
0
 10
0.781793
 20
0.995497
 30
0.0
 40
0
 41
0
  0
VERTEX
  8
0
 10
0.768772
 20
1.00027
 30
0.0
 40
0
 41
0
  0
VERTEX
  8
0
 10
0.755697
 20
0.995497
 30
0.0
 40
0
 41
0
  0
VERTEX
  8
0
 10
0.749783
 20
0.981228
 30
0.0
 40
0
 41
0
  0
VERTEX
  8
0
 10
0.755697
 20
0.967014
 30
0.0
 40
0
 41
0
  0
VERTEX
  8
0
 10
0.768772
 20
0.96224
 30
0.0
 40
0
 41
0
  0
VERTEX
  8
0
 10
0.781793
 20
0.967014
 30
0.0
 40
0
 41
0
  0
VERTEX
  8
0
 10
0.787761
 20
0.981228
 30
0.0
 40
0
 41
0
  0
SEQEND
 8
0
  0
POLYLINE
  8
0
 62
     173
 66
     1
 10
0
 20
0
 30
0.0
 70
     1
 40
0
 41
0
  0
VERTEX
  8
0
 10
0.787978
 20
0.717449
 30
0.0
 40
0
 41
0
  0
VERTEX
  8
0
 10
0.78201
 20
0.731717
 30
0.0
 40
0
 41
0
  0
VERTEX
  8
0
 10
0.768935
 20
0.73649
 30
0.0
 40
0
 41
0
  0
VERTEX
  8
0
 10
0.75586
 20
0.731717
 30
0.0
 40
0
 41
0
  0
VERTEX
  8
0
 10
0.749946
 20
0.717449
 30
0.0
 40
0
 41
0
  0
VERTEX
  8
0
 10
0.75586
 20
0.703233
 30
0.0
 40
0
 41
0
  0
VERTEX
  8
0
 10
0.768935
 20
0.69846
 30
0.0
 40
0
 41
0
  0
VERTEX
  8
0
 10
0.78201
 20
0.703233
 30
0.0
 40
0
 41
0
  0
VERTEX
  8
0
 10
0.787978
 20
0.717449
 30
0.0
 40
0
 41
0
  0
SEQEND
 8
0
  0
POLYLINE
  8
0
 62
     173
 66
     1
 10
0
 20
0
 30
0.0
 70
     1
 40
0
 41
0
  0
VERTEX
  8
0
 10
0.787978
 20
0.617458
 30
0.0
 40
0
 41
0
  0
VERTEX
  8
0
 10
0.78201
 20
0.631728
 30
0.0
 40
0
 41
0
  0
VERTEX
  8
0
 10
0.768935
 20
0.636501
 30
0.0
 40
0
 41
0
  0
VERTEX
  8
0
 10
0.75586
 20
0.631728
 30
0.0
 40
0
 41
0
  0
VERTEX
  8
0
 10
0.749946
 20
0.617458
 30
0.0
 40
0
 41
0
  0
VERTEX
  8
0
 10
0.75586
 20
0.603244
 30
0.0
 40
0
 41
0
  0
VERTEX
  8
0
 10
0.768935
 20
0.598469
 30
0.0
 40
0
 41
0
  0
VERTEX
  8
0
 10
0.78201
 20
0.603244
 30
0.0
 40
0
 41
0
  0
VERTEX
  8
0
 10
0.787978
 20
0.617458
 30
0.0
 40
0
 41
0
  0
SEQEND
 8
0
  0
POLYLINE
  8
0
 62
     173
 66
     1
 10
0
 20
0
 30
0.0
 70
     1
 40
0
 41
0
  0
VERTEX
  8
0
 10
0.787978
 20
0.517469
 30
0.0
 40
0
 41
0
  0
VERTEX
  8
0
 10
0.78201
 20
0.531739
 30
0.0
 40
0
 41
0
  0
VERTEX
  8
0
 10
0.768935
 20
0.536512
 30
0.0
 40
0
 41
0
  0
VERTEX
  8
0
 10
0.75586
 20
0.531739
 30
0.0
 40
0
 41
0
  0
VERTEX
  8
0
 10
0.749946
 20
0.517469
 30
0.0
 40
0
 41
0
  0
VERTEX
  8
0
 10
0.75586
 20
0.503256
 30
0.0
 40
0
 41
0
  0
VERTEX
  8
0
 10
0.768935
 20
0.498481
 30
0.0
 40
0
 41
0
  0
VERTEX
  8
0
 10
0.78201
 20
0.503256
 30
0.0
 40
0
 41
0
  0
VERTEX
  8
0
 10
0.787978
 20
0.517469
 30
0.0
 40
0
 41
0
  0
SEQEND
 8
0
  0
POLYLINE
  8
0
 62
     173
 66
     1
 10
0
 20
0
 30
0.0
 70
     1
 40
0
 41
0
  0
VERTEX
  8
0
 10
0.787978
 20
0.417426
 30
0.0
 40
0
 41
0
  0
VERTEX
  8
0
 10
0.78201
 20
0.431694
 30
0.0
 40
0
 41
0
  0
VERTEX
  8
0
 10
0.768935
 20
0.436469
 30
0.0
 40
0
 41
0
  0
VERTEX
  8
0
 10
0.75586
 20
0.431694
 30
0.0
 40
0
 41
0
  0
VERTEX
  8
0
 10
0.749946
 20
0.417426
 30
0.0
 40
0
 41
0
  0
VERTEX
  8
0
 10
0.75586
 20
0.403212
 30
0.0
 40
0
 41
0
  0
VERTEX
  8
0
 10
0.768935
 20
0.398438
 30
0.0
 40
0
 41
0
  0
VERTEX
  8
0
 10
0.78201
 20
0.403212
 30
0.0
 40
0
 41
0
  0
VERTEX
  8
0
 10
0.787978
 20
0.417426
 30
0.0
 40
0
 41
0
  0
SEQEND
 8
0
  0
POLYLINE
  8
0
 62
     173
 66
     1
 10
0
 20
0
 30
0.0
 70
     1
 40
0
 41
0
  0
VERTEX
  8
0
 10
0.787978
 20
0.317437
 30
0.0
 40
0
 41
0
  0
VERTEX
  8
0
 10
0.78201
 20
0.331706
 30
0.0
 40
0
 41
0
  0
VERTEX
  8
0
 10
0.768935
 20
0.336481
 30
0.0
 40
0
 41
0
  0
VERTEX
  8
0
 10
0.75586
 20
0.331706
 30
0.0
 40
0
 41
0
  0
VERTEX
  8
0
 10
0.749946
 20
0.317437
 30
0.0
 40
0
 41
0
  0
VERTEX
  8
0
 10
0.75586
 20
0.303222
 30
0.0
 40
0
 41
0
  0
VERTEX
  8
0
 10
0.768935
 20
0.298449
 30
0.0
 40
0
 41
0
  0
VERTEX
  8
0
 10
0.78201
 20
0.303222
 30
0.0
 40
0
 41
0
  0
VERTEX
  8
0
 10
0.787978
 20
0.317437
 30
0.0
 40
0
 41
0
  0
SEQEND
 8
0
  0
POLYLINE
  8
0
 62
     173
 66
     1
 10
0
 20
0
 30
0.0
 70
     1
 40
0
 41
0
  0
VERTEX
  8
0
 10
0.852756
 20
1.64122
 30
0.0
 40
0
 41
0
  0
VERTEX
  8
0
 10
0.846789
 20
1.65549
 30
0.0
 40
0
 41
0
  0
VERTEX
  8
0
 10
0.833768
 20
1.66026
 30
0.0
 40
0
 41
0
  0
VERTEX
  8
0
 10
0.820692
 20
1.65549
 30
0.0
 40
0
 41
0
  0
VERTEX
  8
0
 10
0.814779
 20
1.64122
 30
0.0
 40
0
 41
0
  0
VERTEX
  8
0
 10
0.820692
 20
1.62701
 30
0.0
 40
0
 41
0
  0
VERTEX
  8
0
 10
0.833768
 20
1.62229
 30
0.0
 40
0
 41
0
  0
VERTEX
  8
0
 10
0.846789
 20
1.62701
 30
0.0
 40
0
 41
0
  0
VERTEX
  8
0
 10
0.852756
 20
1.64122
 30
0.0
 40
0
 41
0
  0
SEQEND
 8
0
  0
POLYLINE
  8
0
 62
     173
 66
     1
 10
0
 20
0
 30
0.0
 70
     1
 40
0
 41
0
  0
VERTEX
  8
0
 10
0.852756
 20
1.34625
 30
0.0
 40
0
 41
0
  0
VERTEX
  8
0
 10
0.846789
 20
1.36051
 30
0.0
 40
0
 41
0
  0
VERTEX
  8
0
 10
0.833768
 20
1.36529
 30
0.0
 40
0
 41
0
  0
VERTEX
  8
0
 10
0.820692
 20
1.36051
 30
0.0
 40
0
 41
0
  0
VERTEX
  8
0
 10
0.814779
 20
1.34625
 30
0.0
 40
0
 41
0
  0
VERTEX
  8
0
 10
0.820692
 20
1.33203
 30
0.0
 40
0
 41
0
  0
VERTEX
  8
0
 10
0.833768
 20
1.32726
 30
0.0
 40
0
 41
0
  0
VERTEX
  8
0
 10
0.846789
 20
1.33203
 30
0.0
 40
0
 41
0
  0
VERTEX
  8
0
 10
0.852756
 20
1.34625
 30
0.0
 40
0
 41
0
  0
SEQEND
 8
0
  0
POLYLINE
  8
0
 62
     173
 66
     1
 10
0
 20
0
 30
0.0
 70
     1
 40
0
 41
0
  0
VERTEX
  8
0
 10
0.887967
 20
0.717449
 30
0.0
 40
0
 41
0
  0
VERTEX
  8
0
 10
0.881999
 20
0.731717
 30
0.0
 40
0
 41
0
  0
VERTEX
  8
0
 10
0.868978
 20
0.73649
 30
0.0
 40
0
 41
0
  0
VERTEX
  8
0
 10
0.855903
 20
0.731717
 30
0.0
 40
0
 41
0
  0
VERTEX
  8
0
 10
0.849989
 20
0.717449
 30
0.0
 40
0
 41
0
  0
VERTEX
  8
0
 10
0.855903
 20
0.703233
 30
0.0
 40
0
 41
0
  0
VERTEX
  8
0
 10
0.868978
 20
0.69846
 30
0.0
 40
0
 41
0
  0
VERTEX
  8
0
 10
0.881999
 20
0.703233
 30
0.0
 40
0
 41
0
  0
VERTEX
  8
0
 10
0.887967
 20
0.717449
 30
0.0
 40
0
 41
0
  0
SEQEND
 8
0
  0
POLYLINE
  8
0
 62
     173
 66
     1
 10
0
 20
0
 30
0.0
 70
     1
 40
0
 41
0
  0
VERTEX
  8
0
 10
0.887967
 20
0.617458
 30
0.0
 40
0
 41
0
  0
VERTEX
  8
0
 10
0.881999
 20
0.631728
 30
0.0
 40
0
 41
0
  0
VERTEX
  8
0
 10
0.868978
 20
0.636501
 30
0.0
 40
0
 41
0
  0
VERTEX
  8
0
 10
0.855903
 20
0.631728
 30
0.0
 40
0
 41
0
  0
VERTEX
  8
0
 10
0.849989
 20
0.617458
 30
0.0
 40
0
 41
0
  0
VERTEX
  8
0
 10
0.855903
 20
0.603244
 30
0.0
 40
0
 41
0
  0
VERTEX
  8
0
 10
0.868978
 20
0.598469
 30
0.0
 40
0
 41
0
  0
VERTEX
  8
0
 10
0.881999
 20
0.603244
 30
0.0
 40
0
 41
0
  0
VERTEX
  8
0
 10
0.887967
 20
0.617458
 30
0.0
 40
0
 41
0
  0
SEQEND
 8
0
  0
POLYLINE
  8
0
 62
     173
 66
     1
 10
0
 20
0
 30
0.0
 70
     1
 40
0
 41
0
  0
VERTEX
  8
0
 10
0.887967
 20
0.517469
 30
0.0
 40
0
 41
0
  0
VERTEX
  8
0
 10
0.881999
 20
0.531739
 30
0.0
 40
0
 41
0
  0
VERTEX
  8
0
 10
0.868978
 20
0.536512
 30
0.0
 40
0
 41
0
  0
VERTEX
  8
0
 10
0.855903
 20
0.531739
 30
0.0
 40
0
 41
0
  0
VERTEX
  8
0
 10
0.849989
 20
0.517469
 30
0.0
 40
0
 41
0
  0
VERTEX
  8
0
 10
0.855903
 20
0.503256
 30
0.0
 40
0
 41
0
  0
VERTEX
  8
0
 10
0.868978
 20
0.498481
 30
0.0
 40
0
 41
0
  0
VERTEX
  8
0
 10
0.881999
 20
0.503256
 30
0.0
 40
0
 41
0
  0
VERTEX
  8
0
 10
0.887967
 20
0.517469
 30
0.0
 40
0
 41
0
  0
SEQEND
 8
0
  0
POLYLINE
  8
0
 62
     173
 66
     1
 10
0
 20
0
 30
0.0
 70
     1
 40
0
 41
0
  0
VERTEX
  8
0
 10
0.887967
 20
0.417426
 30
0.0
 40
0
 41
0
  0
VERTEX
  8
0
 10
0.881999
 20
0.431694
 30
0.0
 40
0
 41
0
  0
VERTEX
  8
0
 10
0.868978
 20
0.436469
 30
0.0
 40
0
 41
0
  0
VERTEX
  8
0
 10
0.855903
 20
0.431694
 30
0.0
 40
0
 41
0
  0
VERTEX
  8
0
 10
0.849989
 20
0.417426
 30
0.0
 40
0
 41
0
  0
VERTEX
  8
0
 10
0.855903
 20
0.403212
 30
0.0
 40
0
 41
0
  0
VERTEX
  8
0
 10
0.868978
 20
0.398438
 30
0.0
 40
0
 41
0
  0
VERTEX
  8
0
 10
0.881999
 20
0.403212
 30
0.0
 40
0
 41
0
  0
VERTEX
  8
0
 10
0.887967
 20
0.417426
 30
0.0
 40
0
 41
0
  0
SEQEND
 8
0
  0
POLYLINE
  8
0
 62
     173
 66
     1
 10
0
 20
0
 30
0.0
 70
     1
 40
0
 41
0
  0
VERTEX
  8
0
 10
0.887967
 20
0.317437
 30
0.0
 40
0
 41
0
  0
VERTEX
  8
0
 10
0.881999
 20
0.331706
 30
0.0
 40
0
 41
0
  0
VERTEX
  8
0
 10
0.868978
 20
0.336481
 30
0.0
 40
0
 41
0
  0
VERTEX
  8
0
 10
0.855903
 20
0.331706
 30
0.0
 40
0
 41
0
  0
VERTEX
  8
0
 10
0.849989
 20
0.317437
 30
0.0
 40
0
 41
0
  0
VERTEX
  8
0
 10
0.855903
 20
0.303222
 30
0.0
 40
0
 41
0
  0
VERTEX
  8
0
 10
0.868978
 20
0.298449
 30
0.0
 40
0
 41
0
  0
VERTEX
  8
0
 10
0.881999
 20
0.303222
 30
0.0
 40
0
 41
0
  0
VERTEX
  8
0
 10
0.887967
 20
0.317437
 30
0.0
 40
0
 41
0
  0
SEQEND
 8
0
  0
POLYLINE
  8
0
 62
     173
 66
     1
 10
0
 20
0
 30
0.0
 70
     1
 40
0
 41
0
  0
VERTEX
  8
0
 10
0.998481
 20
0.677463
 30
0.0
 40
0
 41
0
  0
VERTEX
  8
0
 10
0.99235
 20
0.692111
 30
0.0
 40
0
 41
0
  0
VERTEX
  8
0
 10
0.97895
 20
0.696994
 30
0.0
 40
0
 41
0
  0
VERTEX
  8
0
 10
0.965549
 20
0.692111
 30
0.0
 40
0
 41
0
  0
VERTEX
  8
0
 10
0.959472
 20
0.677463
 30
0.0
 40
0
 41
0
  0
VERTEX
  8
0
 10
0.965549
 20
0.662815
 30
0.0
 40
0
 41
0
  0
VERTEX
  8
0
 10
0.97895
 20
0.657932
 30
0.0
 40
0
 41
0
  0
VERTEX
  8
0
 10
0.99235
 20
0.662815
 30
0.0
 40
0
 41
0
  0
VERTEX
  8
0
 10
0.998481
 20
0.677463
 30
0.0
 40
0
 41
0
  0
SEQEND
 8
0
  0
POLYLINE
  8
0
 62
     173
 66
     1
 10
0
 20
0
 30
0.0
 70
     1
 40
0
 41
0
  0
VERTEX
  8
0
 10
0.998481
 20
0.577474
 30
0.0
 40
0
 41
0
  0
VERTEX
  8
0
 10
0.99235
 20
0.592122
 30
0.0
 40
0
 41
0
  0
VERTEX
  8
0
 10
0.97895
 20
0.597006
 30
0.0
 40
0
 41
0
  0
VERTEX
  8
0
 10
0.965549
 20
0.592122
 30
0.0
 40
0
 41
0
  0
VERTEX
  8
0
 10
0.959472
 20
0.577474
 30
0.0
 40
0
 41
0
  0
VERTEX
  8
0
 10
0.965549
 20
0.562825
 30
0.0
 40
0
 41
0
  0
VERTEX
  8
0
 10
0.97895
 20
0.557943
 30
0.0
 40
0
 41
0
  0
VERTEX
  8
0
 10
0.99235
 20
0.562825
 30
0.0
 40
0
 41
0
  0
VERTEX
  8
0
 10
0.998481
 20
0.577474
 30
0.0
 40
0
 41
0
  0
SEQEND
 8
0
  0
POLYLINE
  8
0
 62
     173
 66
     1
 10
0
 20
0
 30
0.0
 70
     1
 40
0
 41
0
  0
VERTEX
  8
0
 10
0.998481
 20
0.255425
 30
0.0
 40
0
 41
0
  0
VERTEX
  8
0
 10
0.99235
 20
0.270074
 30
0.0
 40
0
 41
0
  0
VERTEX
  8
0
 10
0.97895
 20
0.274957
 30
0.0
 40
0
 41
0
  0
VERTEX
  8
0
 10
0.965549
 20
0.270074
 30
0.0
 40
0
 41
0
  0
VERTEX
  8
0
 10
0.959472
 20
0.255425
 30
0.0
 40
0
 41
0
  0
VERTEX
  8
0
 10
0.965549
 20
0.240831
 30
0.0
 40
0
 41
0
  0
VERTEX
  8
0
 10
0.97895
 20
0.235949
 30
0.0
 40
0
 41
0
  0
VERTEX
  8
0
 10
0.99235
 20
0.240831
 30
0.0
 40
0
 41
0
  0
VERTEX
  8
0
 10
0.998481
 20
0.255425
 30
0.0
 40
0
 41
0
  0
SEQEND
 8
0
  0
POLYLINE
  8
0
 62
     173
 66
     1
 10
0
 20
0
 30
0.0
 70
     1
 40
0
 41
0
  0
VERTEX
  8
0
 10
0.998481
 20
0.155436
 30
0.0
 40
0
 41
0
  0
VERTEX
  8
0
 10
0.99235
 20
0.170085
 30
0.0
 40
0
 41
0
  0
VERTEX
  8
0
 10
0.97895
 20
0.174968
 30
0.0
 40
0
 41
0
  0
VERTEX
  8
0
 10
0.965549
 20
0.170085
 30
0.0
 40
0
 41
0
  0
VERTEX
  8
0
 10
0.959472
 20
0.155436
 30
0.0
 40
0
 41
0
  0
VERTEX
  8
0
 10
0.965549
 20
0.140842
 30
0.0
 40
0
 41
0
  0
VERTEX
  8
0
 10
0.97895
 20
0.135959
 30
0.0
 40
0
 41
0
  0
VERTEX
  8
0
 10
0.99235
 20
0.140842
 30
0.0
 40
0
 41
0
  0
VERTEX
  8
0
 10
0.998481
 20
0.155436
 30
0.0
 40
0
 41
0
  0
SEQEND
 8
0
  0
POLYLINE
  8
0
 62
     173
 66
     1
 10
0
 20
0
 30
0.0
 70
     1
 40
0
 41
0
  0
VERTEX
  8
0
 10
1.63379
 20
1.44624
 30
0.0
 40
0
 41
0
  0
VERTEX
  8
0
 10
1.62592
 20
1.465
 30
0.0
 40
0
 41
0
  0
VERTEX
  8
0
 10
1.60878
 20
1.47131
 30
0.0
 40
0
 41
0
  0
VERTEX
  8
0
 10
1.59158
 20
1.465
 30
0.0
 40
0
 41
0
  0
VERTEX
  8
0
 10
1.58376
 20
1.44624
 30
0.0
 40
0
 41
0
  0
VERTEX
  8
0
 10
1.59158
 20
1.42751
 30
0.0
 40
0
 41
0
  0
VERTEX
  8
0
 10
1.60878
 20
1.42128
 30
0.0
 40
0
 41
0
  0
VERTEX
  8
0
 10
1.62592
 20
1.42751
 30
0.0
 40
0
 41
0
  0
VERTEX
  8
0
 10
1.63379
 20
1.44624
 30
0.0
 40
0
 41
0
  0
SEQEND
 8
0
  0
POLYLINE
  8
0
 62
     173
 66
     1
 10
0
 20
0
 30
0.0
 70
     1
 40
0
 41
0
  0
VERTEX
  8
0
 10
2.49875
 20
1.51622
 30
0.0
 40
0
 41
0
  0
VERTEX
  8
0
 10
2.49094
 20
1.535
 30
0.0
 40
0
 41
0
  0
VERTEX
  8
0
 10
2.47374
 20
1.54129
 30
0.0
 40
0
 41
0
  0
VERTEX
  8
0
 10
2.45654
 20
1.535
 30
0.0
 40
0
 41
0
  0
VERTEX
  8
0
 10
2.44879
 20
1.51622
 30
0.0
 40
0
 41
0
  0
VERTEX
  8
0
 10
2.45654
 20
1.4975
 30
0.0
 40
0
 41
0
  0
VERTEX
  8
0
 10
2.47374
 20
1.49126
 30
0.0
 40
0
 41
0
  0
VERTEX
  8
0
 10
2.49094
 20
1.4975
 30
0.0
 40
0
 41
0
  0
VERTEX
  8
0
 10
2.49875
 20
1.51622
 30
0.0
 40
0
 41
0
  0
SEQEND
 8
0
  0
POLYLINE
  8
0
 62
     173
 66
     1
 10
0
 20
0
 30
0.0
 70
     1
 40
0
 41
0
  0
VERTEX
  8
0
 10
2.64378
 20
1.13124
 30
0.0
 40
0
 41
0
  0
VERTEX
  8
0
 10
2.6359
 20
1.15001
 30
0.0
 40
0
 41
0
  0
VERTEX
  8
0
 10
2.61876
 20
1.1563
 30
0.0
 40
0
 41
0
  0
VERTEX
  8
0
 10
2.60157
 20
1.15001
 30
0.0
 40
0
 41
0
  0
VERTEX
  8
0
 10
2.59375
 20
1.13124
 30
0.0
 40
0
 41
0
  0
VERTEX
  8
0
 10
2.60157
 20
1.11252
 30
0.0
 40
0
 41
0
  0
VERTEX
  8
0
 10
2.61876
 20
1.10628
 30
0.0
 40
0
 41
0
  0
VERTEX
  8
0
 10
2.6359
 20
1.11252
 30
0.0
 40
0
 41
0
  0
VERTEX
  8
0
 10
2.64378
 20
1.13124
 30
0.0
 40
0
 41
0
  0
SEQEND
 8
0
  0
POLYLINE
  8
0
 62
     173
 66
     1
 10
0
 20
0
 30
0.0
 70
     1
 40
0
 41
0
  0
VERTEX
  8
0
 10
0.759874
 20
1.93614
 30
0.0
 40
0
 41
0
  0
VERTEX
  8
0
 10
0.75
 20
1.95979
 30
0.0
 40
0
 41
0
  0
VERTEX
  8
0
 10
0.728353
 20
1.96767
 30
0.0
 40
0
 41
0
  0
VERTEX
  8
0
 10
0.706706
 20
1.95979
 30
0.0
 40
0
 41
0
  0
VERTEX
  8
0
 10
0.696886
 20
1.93614
 30
0.0
 40
0
 41
0
  0
VERTEX
  8
0
 10
0.706706
 20
1.91254
 30
0.0
 40
0
 41
0
  0
VERTEX
  8
0
 10
0.728353
 20
1.90468
 30
0.0
 40
0
 41
0
  0
VERTEX
  8
0
 10
0.75
 20
1.91254
 30
0.0
 40
0
 41
0
  0
VERTEX
  8
0
 10
0.759874
 20
1.93614
 30
0.0
 40
0
 41
0
  0
SEQEND
 8
0
  0
POLYLINE
  8
0
 62
     173
 66
     1
 10
0
 20
0
 30
0.0
 70
     1
 40
0
 41
0
  0
VERTEX
  8
0
 10
1.29037
 20
0.721571
 30
0.0
 40
0
 41
0
  0
VERTEX
  8
0
 10
1.28049
 20
0.745226
 30
0.0
 40
0
 41
0
  0
VERTEX
  8
0
 10
1.25884
 20
0.753093
 30
0.0
 40
0
 41
0
  0
VERTEX
  8
0
 10
1.2372
 20
0.745226
 30
0.0
 40
0
 41
0
  0
VERTEX
  8
0
 10
1.22738
 20
0.721571
 30
0.0
 40
0
 41
0
  0
VERTEX
  8
0
 10
1.2372
 20
0.697971
 30
0.0
 40
0
 41
0
  0
VERTEX
  8
0
 10
1.25884
 20
0.69005
 30
0.0
 40
0
 41
0
  0
VERTEX
  8
0
 10
1.28049
 20
0.697971
 30
0.0
 40
0
 41
0
  0
VERTEX
  8
0
 10
1.29037
 20
0.721571
 30
0.0
 40
0
 41
0
  0
SEQEND
 8
0
  0
POLYLINE
  8
0
 62
     173
 66
     1
 10
0
 20
0
 30
0.0
 70
     1
 40
0
 41
0
  0
VERTEX
  8
0
 10
1.29037
 20
0.111328
 30
0.0
 40
0
 41
0
  0
VERTEX
  8
0
 10
1.28049
 20
0.134983
 30
0.0
 40
0
 41
0
  0
VERTEX
  8
0
 10
1.25884
 20
0.14285
 30
0.0
 40
0
 41
0
  0
VERTEX
  8
0
 10
1.2372
 20
0.134983
 30
0.0
 40
0
 41
0
  0
VERTEX
  8
0
 10
1.22738
 20
0.111328
 30
0.0
 40
0
 41
0
  0
VERTEX
  8
0
 10
1.2372
 20
0.0877279
 30
0.0
 40
0
 41
0
  0
VERTEX
  8
0
 10
1.25884
 20
0.0798611
 30
0.0
 40
0
 41
0
  0
VERTEX
  8
0
 10
1.28049
 20
0.0877279
 30
0.0
 40
0
 41
0
  0
VERTEX
  8
0
 10
1.29037
 20
0.111328
 30
0.0
 40
0
 41
0
  0
SEQEND
 8
0
  0
POLYLINE
  8
0
 62
     173
 66
     1
 10
0
 20
0
 30
0.0
 70
     1
 40
0
 41
0
  0
VERTEX
  8
0
 10
1.37988
 20
1.93614
 30
0.0
 40
0
 41
0
  0
VERTEX
  8
0
 10
1.37001
 20
1.95979
 30
0.0
 40
0
 41
0
  0
VERTEX
  8
0
 10
1.34836
 20
1.96767
 30
0.0
 40
0
 41
0
  0
VERTEX
  8
0
 10
1.32671
 20
1.95979
 30
0.0
 40
0
 41
0
  0
VERTEX
  8
0
 10
1.31689
 20
1.93614
 30
0.0
 40
0
 41
0
  0
VERTEX
  8
0
 10
1.32671
 20
1.91254
 30
0.0
 40
0
 41
0
  0
VERTEX
  8
0
 10
1.34836
 20
1.90468
 30
0.0
 40
0
 41
0
  0
VERTEX
  8
0
 10
1.37001
 20
1.91254
 30
0.0
 40
0
 41
0
  0
VERTEX
  8
0
 10
1.37988
 20
1.93614
 30
0.0
 40
0
 41
0
  0
SEQEND
 8
0
  0
POLYLINE
  8
0
 62
     173
 66
     1
 10
0
 20
0
 30
0.0
 70
     1
 40
0
 41
0
  0
VERTEX
  8
0
 10
1.48486
 20
1.93614
 30
0.0
 40
0
 41
0
  0
VERTEX
  8
0
 10
1.47499
 20
1.95979
 30
0.0
 40
0
 41
0
  0
VERTEX
  8
0
 10
1.45335
 20
1.96767
 30
0.0
 40
0
 41
0
  0
VERTEX
  8
0
 10
1.43169
 20
1.95979
 30
0.0
 40
0
 41
0
  0
VERTEX
  8
0
 10
1.42188
 20
1.93614
 30
0.0
 40
0
 41
0
  0
VERTEX
  8
0
 10
1.43169
 20
1.91254
 30
0.0
 40
0
 41
0
  0
VERTEX
  8
0
 10
1.45335
 20
1.90468
 30
0.0
 40
0
 41
0
  0
VERTEX
  8
0
 10
1.47499
 20
1.91254
 30
0.0
 40
0
 41
0
  0
VERTEX
  8
0
 10
1.48486
 20
1.93614
 30
0.0
 40
0
 41
0
  0
SEQEND
 8
0
  0
POLYLINE
  8
0
 62
     173
 66
     1
 10
0
 20
0
 30
0.0
 70
     1
 40
0
 41
0
  0
VERTEX
  8
0
 10
2.10487
 20
1.93614
 30
0.0
 40
0
 41
0
  0
VERTEX
  8
0
 10
2.095
 20
1.95979
 30
0.0
 40
0
 41
0
  0
VERTEX
  8
0
 10
2.07335
 20
1.96767
 30
0.0
 40
0
 41
0
  0
VERTEX
  8
0
 10
2.05171
 20
1.95979
 30
0.0
 40
0
 41
0
  0
VERTEX
  8
0
 10
2.04189
 20
1.93614
 30
0.0
 40
0
 41
0
  0
VERTEX
  8
0
 10
2.05171
 20
1.91254
 30
0.0
 40
0
 41
0
  0
VERTEX
  8
0
 10
2.07335
 20
1.90468
 30
0.0
 40
0
 41
0
  0
VERTEX
  8
0
 10
2.095
 20
1.91254
 30
0.0
 40
0
 41
0
  0
VERTEX
  8
0
 10
2.10487
 20
1.93614
 30
0.0
 40
0
 41
0
  0
SEQEND
 8
0
  0
POLYLINE
  8
0
 62
     173
 66
     1
 10
0
 20
0
 30
0.0
 70
     1
 40
0
 41
0
  0
VERTEX
  8
0
 10
2.20985
 20
1.93614
 30
0.0
 40
0
 41
0
  0
VERTEX
  8
0
 10
2.19997
 20
1.95979
 30
0.0
 40
0
 41
0
  0
VERTEX
  8
0
 10
2.17833
 20
1.96767
 30
0.0
 40
0
 41
0
  0
VERTEX
  8
0
 10
2.15668
 20
1.95979
 30
0.0
 40
0
 41
0
  0
VERTEX
  8
0
 10
2.14686
 20
1.93614
 30
0.0
 40
0
 41
0
  0
VERTEX
  8
0
 10
2.15668
 20
1.91254
 30
0.0
 40
0
 41
0
  0
VERTEX
  8
0
 10
2.17833
 20
1.90468
 30
0.0
 40
0
 41
0
  0
VERTEX
  8
0
 10
2.19997
 20
1.91254
 30
0.0
 40
0
 41
0
  0
VERTEX
  8
0
 10
2.20985
 20
1.93614
 30
0.0
 40
0
 41
0
  0
SEQEND
 8
0
  0
POLYLINE
  8
0
 62
     173
 66
     1
 10
0
 20
0
 30
0.0
 70
     1
 40
0
 41
0
  0
VERTEX
  8
0
 10
2.82986
 20
1.93614
 30
0.0
 40
0
 41
0
  0
VERTEX
  8
0
 10
2.81999
 20
1.95979
 30
0.0
 40
0
 41
0
  0
VERTEX
  8
0
 10
2.79833
 20
1.96767
 30
0.0
 40
0
 41
0
  0
VERTEX
  8
0
 10
2.77669
 20
1.95979
 30
0.0
 40
0
 41
0
  0
VERTEX
  8
0
 10
2.76687
 20
1.93614
 30
0.0
 40
0
 41
0
  0
VERTEX
  8
0
 10
2.77669
 20
1.91254
 30
0.0
 40
0
 41
0
  0
VERTEX
  8
0
 10
2.79833
 20
1.90468
 30
0.0
 40
0
 41
0
  0
VERTEX
  8
0
 10
2.81999
 20
1.91254
 30
0.0
 40
0
 41
0
  0
VERTEX
  8
0
 10
2.82986
 20
1.93614
 30
0.0
 40
0
 41
0
  0
SEQEND
 8
0
  0
POLYLINE
  8
0
 62
     173
 66
     1
 10
0
 20
0
 30
0.0
 70
     1
 40
0
 41
0
  0
VERTEX
  8
0
 10
1.20177
 20
0.641222
 30
0.0
 40
0
 41
0
  0
VERTEX
  8
0
 10
1.19634
 20
0.668837
 30
0.0
 40
0
 41
0
  0
VERTEX
  8
0
 10
1.18207
 20
0.688531
 30
0.0
 40
0
 41
0
  0
VERTEX
  8
0
 10
1.16189
 20
0.700358
 30
0.0
 40
0
 41
0
  0
VERTEX
  8
0
 10
1.13878
 20
0.704264
 30
0.0
 40
0
 41
0
  0
VERTEX
  8
0
 10
1.11561
 20
0.700358
 30
0.0
 40
0
 41
0
  0
VERTEX
  8
0
 10
1.09543
 20
0.688531
 30
0.0
 40
0
 41
0
  0
VERTEX
  8
0
 10
1.08116
 20
0.668837
 30
0.0
 40
0
 41
0
  0
VERTEX
  8
0
 10
1.07579
 20
0.641222
 30
0.0
 40
0
 41
0
  0
VERTEX
  8
0
 10
1.08116
 20
0.613715
 30
0.0
 40
0
 41
0
  0
VERTEX
  8
0
 10
1.09543
 20
0.594021
 30
0.0
 40
0
 41
0
  0
VERTEX
  8
0
 10
1.11561
 20
0.582194
 30
0.0
 40
0
 41
0
  0
VERTEX
  8
0
 10
1.13878
 20
0.578233
 30
0.0
 40
0
 41
0
  0
VERTEX
  8
0
 10
1.16189
 20
0.582194
 30
0.0
 40
0
 41
0
  0
VERTEX
  8
0
 10
1.18207
 20
0.594021
 30
0.0
 40
0
 41
0
  0
VERTEX
  8
0
 10
1.19634
 20
0.613715
 30
0.0
 40
0
 41
0
  0
VERTEX
  8
0
 10
1.20177
 20
0.641222
 30
0.0
 40
0
 41
0
  0
SEQEND
 8
0
  0
POLYLINE
  8
0
 62
     173
 66
     1
 10
0
 20
0
 30
0.0
 70
     1
 40
0
 41
0
  0
VERTEX
  8
0
 10
1.20177
 20
0.191243
 30
0.0
 40
0
 41
0
  0
VERTEX
  8
0
 10
1.19634
 20
0.218804
 30
0.0
 40
0
 41
0
  0
VERTEX
  8
0
 10
1.18207
 20
0.238499
 30
0.0
 40
0
 41
0
  0
VERTEX
  8
0
 10
1.16189
 20
0.250325
 30
0.0
 40
0
 41
0
  0
VERTEX
  8
0
 10
1.13878
 20
0.254232
 30
0.0
 40
0
 41
0
  0
VERTEX
  8
0
 10
1.11561
 20
0.250325
 30
0.0
 40
0
 41
0
  0
VERTEX
  8
0
 10
1.09543
 20
0.238499
 30
0.0
 40
0
 41
0
  0
VERTEX
  8
0
 10
1.08116
 20
0.218804
 30
0.0
 40
0
 41
0
  0
VERTEX
  8
0
 10
1.07579
 20
0.191243
 30
0.0
 40
0
 41
0
  0
VERTEX
  8
0
 10
1.08116
 20
0.163737
 30
0.0
 40
0
 41
0
  0
VERTEX
  8
0
 10
1.09543
 20
0.144043
 30
0.0
 40
0
 41
0
  0
VERTEX
  8
0
 10
1.11561
 20
0.132216
 30
0.0
 40
0
 41
0
  0
VERTEX
  8
0
 10
1.13878
 20
0.128255
 30
0.0
 40
0
 41
0
  0
VERTEX
  8
0
 10
1.16189
 20
0.132216
 30
0.0
 40
0
 41
0
  0
VERTEX
  8
0
 10
1.18207
 20
0.144043
 30
0.0
 40
0
 41
0
  0
VERTEX
  8
0
 10
1.19634
 20
0.163737
 30
0.0
 40
0
 41
0
  0
VERTEX
  8
0
 10
1.20177
 20
0.191243
 30
0.0
 40
0
 41
0
  0
SEQEND
 8
0
  0
POLYLINE
  8
0
 62
     173
 66
     1
 10
0
 20
0
 30
0.0
 70
     1
 40
0
 41
0
  0
VERTEX
  8
0
 10
0.877767
 20
2.05626
 30
0.0
 40
0
 41
0
  0
VERTEX
  8
0
 10
0.872233
 20
2.08431
 30
0.0
 40
0
 41
0
  0
VERTEX
  8
0
 10
0.857747
 20
2.10428
 30
0.0
 40
0
 41
0
  0
VERTEX
  8
0
 10
0.83724
 20
2.11632
 30
0.0
 40
0
 41
0
  0
VERTEX
  8
0
 10
0.813747
 20
2.12028
 30
0.0
 40
0
 41
0
  0
VERTEX
  8
0
 10
0.790256
 20
2.11632
 30
0.0
 40
0
 41
0
  0
VERTEX
  8
0
 10
0.769749
 20
2.10428
 30
0.0
 40
0
 41
0
  0
VERTEX
  8
0
 10
0.755262
 20
2.08431
 30
0.0
 40
0
 41
0
  0
VERTEX
  8
0
 10
0.749783
 20
2.05626
 30
0.0
 40
0
 41
0
  0
VERTEX
  8
0
 10
0.755262
 20
2.02826
 30
0.0
 40
0
 41
0
  0
VERTEX
  8
0
 10
0.769749
 20
2.00831
 30
0.0
 40
0
 41
0
  0
VERTEX
  8
0
 10
0.790256
 20
1.99625
 30
0.0
 40
0
 41
0
  0
VERTEX
  8
0
 10
0.813747
 20
1.99229
 30
0.0
 40
0
 41
0
  0
VERTEX
  8
0
 10
0.83724
 20
1.99625
 30
0.0
 40
0
 41
0
  0
VERTEX
  8
0
 10
0.857747
 20
2.00831
 30
0.0
 40
0
 41
0
  0
VERTEX
  8
0
 10
0.872233
 20
2.02826
 30
0.0
 40
0
 41
0
  0
VERTEX
  8
0
 10
0.877767
 20
2.05626
 30
0.0
 40
0
 41
0
  0
SEQEND
 8
0
  0
POLYLINE
  8
0
 62
     173
 66
     1
 10
0
 20
0
 30
0.0
 70
     1
 40
0
 41
0
  0
VERTEX
  8
0
 10
1.32775
 20
2.05626
 30
0.0
 40
0
 41
0
  0
VERTEX
  8
0
 10
1.32221
 20
2.08431
 30
0.0
 40
0
 41
0
  0
VERTEX
  8
0
 10
1.30773
 20
2.10428
 30
0.0
 40
0
 41
0
  0
VERTEX
  8
0
 10
1.28722
 20
2.11632
 30
0.0
 40
0
 41
0
  0
VERTEX
  8
0
 10
1.26373
 20
2.12028
 30
0.0
 40
0
 41
0
  0
VERTEX
  8
0
 10
1.24023
 20
2.11632
 30
0.0
 40
0
 41
0
  0
VERTEX
  8
0
 10
1.21973
 20
2.10428
 30
0.0
 40
0
 41
0
  0
VERTEX
  8
0
 10
1.20524
 20
2.08431
 30
0.0
 40
0
 41
0
  0
VERTEX
  8
0
 10
1.19976
 20
2.05626
 30
0.0
 40
0
 41
0
  0
VERTEX
  8
0
 10
1.20524
 20
2.02826
 30
0.0
 40
0
 41
0
  0
VERTEX
  8
0
 10
1.21973
 20
2.00831
 30
0.0
 40
0
 41
0
  0
VERTEX
  8
0
 10
1.24023
 20
1.99625
 30
0.0
 40
0
 41
0
  0
VERTEX
  8
0
 10
1.26373
 20
1.99229
 30
0.0
 40
0
 41
0
  0
VERTEX
  8
0
 10
1.28722
 20
1.99625
 30
0.0
 40
0
 41
0
  0
VERTEX
  8
0
 10
1.30773
 20
2.00831
 30
0.0
 40
0
 41
0
  0
VERTEX
  8
0
 10
1.32221
 20
2.02826
 30
0.0
 40
0
 41
0
  0
VERTEX
  8
0
 10
1.32775
 20
2.05626
 30
0.0
 40
0
 41
0
  0
SEQEND
 8
0
  0
POLYLINE
  8
0
 62
     173
 66
     1
 10
0
 20
0
 30
0.0
 70
     1
 40
0
 41
0
  0
VERTEX
  8
0
 10
1.60275
 20
2.05626
 30
0.0
 40
0
 41
0
  0
VERTEX
  8
0
 10
1.59722
 20
2.08431
 30
0.0
 40
0
 41
0
  0
VERTEX
  8
0
 10
1.58274
 20
2.10428
 30
0.0
 40
0
 41
0
  0
VERTEX
  8
0
 10
1.56222
 20
2.11632
 30
0.0
 40
0
 41
0
  0
VERTEX
  8
0
 10
1.53874
 20
2.12028
 30
0.0
 40
0
 41
0
  0
VERTEX
  8
0
 10
1.51525
 20
2.11632
 30
0.0
 40
0
 41
0
  0
VERTEX
  8
0
 10
1.49474
 20
2.10428
 30
0.0
 40
0
 41
0
  0
VERTEX
  8
0
 10
1.48025
 20
2.08431
 30
0.0
 40
0
 41
0
  0
VERTEX
  8
0
 10
1.47478
 20
2.05626
 30
0.0
 40
0
 41
0
  0
VERTEX
  8
0
 10
1.48025
 20
2.02826
 30
0.0
 40
0
 41
0
  0
VERTEX
  8
0
 10
1.49474
 20
2.00831
 30
0.0
 40
0
 41
0
  0
VERTEX
  8
0
 10
1.51525
 20
1.99625
 30
0.0
 40
0
 41
0
  0
VERTEX
  8
0
 10
1.53874
 20
1.99229
 30
0.0
 40
0
 41
0
  0
VERTEX
  8
0
 10
1.56222
 20
1.99625
 30
0.0
 40
0
 41
0
  0
VERTEX
  8
0
 10
1.58274
 20
2.00831
 30
0.0
 40
0
 41
0
  0
VERTEX
  8
0
 10
1.59722
 20
2.02826
 30
0.0
 40
0
 41
0
  0
VERTEX
  8
0
 10
1.60275
 20
2.05626
 30
0.0
 40
0
 41
0
  0
SEQEND
 8
0
  0
POLYLINE
  8
0
 62
     173
 66
     1
 10
0
 20
0
 30
0.0
 70
     1
 40
0
 41
0
  0
VERTEX
  8
0
 10
2.05279
 20
2.05626
 30
0.0
 40
0
 41
0
  0
VERTEX
  8
0
 10
2.04725
 20
2.08431
 30
0.0
 40
0
 41
0
  0
VERTEX
  8
0
 10
2.03276
 20
2.10428
 30
0.0
 40
0
 41
0
  0
VERTEX
  8
0
 10
2.01226
 20
2.11632
 30
0.0
 40
0
 41
0
  0
VERTEX
  8
0
 10
1.98876
 20
2.12028
 30
0.0
 40
0
 41
0
  0
VERTEX
  8
0
 10
1.96522
 20
2.11632
 30
0.0
 40
0
 41
0
  0
VERTEX
  8
0
 10
1.94472
 20
2.10428
 30
0.0
 40
0
 41
0
  0
VERTEX
  8
0
 10
1.93024
 20
2.08431
 30
0.0
 40
0
 41
0
  0
VERTEX
  8
0
 10
1.92475
 20
2.05626
 30
0.0
 40
0
 41
0
  0
VERTEX
  8
0
 10
1.93024
 20
2.02826
 30
0.0
 40
0
 41
0
  0
VERTEX
  8
0
 10
1.94472
 20
2.00831
 30
0.0
 40
0
 41
0
  0
VERTEX
  8
0
 10
1.96522
 20
1.99625
 30
0.0
 40
0
 41
0
  0
VERTEX
  8
0
 10
1.98876
 20
1.99229
 30
0.0
 40
0
 41
0
  0
VERTEX
  8
0
 10
2.01226
 20
1.99625
 30
0.0
 40
0
 41
0
  0
VERTEX
  8
0
 10
2.03276
 20
2.00831
 30
0.0
 40
0
 41
0
  0
VERTEX
  8
0
 10
2.04725
 20
2.02826
 30
0.0
 40
0
 41
0
  0
VERTEX
  8
0
 10
2.05279
 20
2.05626
 30
0.0
 40
0
 41
0
  0
SEQEND
 8
0
  0
POLYLINE
  8
0
 62
     173
 66
     1
 10
0
 20
0
 30
0.0
 70
     1
 40
0
 41
0
  0
VERTEX
  8
0
 10
2.32775
 20
2.05626
 30
0.0
 40
0
 41
0
  0
VERTEX
  8
0
 10
2.32221
 20
2.08431
 30
0.0
 40
0
 41
0
  0
VERTEX
  8
0
 10
2.30772
 20
2.10428
 30
0.0
 40
0
 41
0
  0
VERTEX
  8
0
 10
2.28722
 20
2.11632
 30
0.0
 40
0
 41
0
  0
VERTEX
  8
0
 10
2.26372
 20
2.12028
 30
0.0
 40
0
 41
0
  0
VERTEX
  8
0
 10
2.24024
 20
2.11632
 30
0.0
 40
0
 41
0
  0
VERTEX
  8
0
 10
2.21972
 20
2.10428
 30
0.0
 40
0
 41
0
  0
VERTEX
  8
0
 10
2.20524
 20
2.08431
 30
0.0
 40
0
 41
0
  0
VERTEX
  8
0
 10
2.19976
 20
2.05626
 30
0.0
 40
0
 41
0
  0
VERTEX
  8
0
 10
2.20524
 20
2.02826
 30
0.0
 40
0
 41
0
  0
VERTEX
  8
0
 10
2.21972
 20
2.00831
 30
0.0
 40
0
 41
0
  0
VERTEX
  8
0
 10
2.24024
 20
1.99625
 30
0.0
 40
0
 41
0
  0
VERTEX
  8
0
 10
2.26372
 20
1.99229
 30
0.0
 40
0
 41
0
  0
VERTEX
  8
0
 10
2.28722
 20
1.99625
 30
0.0
 40
0
 41
0
  0
VERTEX
  8
0
 10
2.30772
 20
2.00831
 30
0.0
 40
0
 41
0
  0
VERTEX
  8
0
 10
2.32221
 20
2.02826
 30
0.0
 40
0
 41
0
  0
VERTEX
  8
0
 10
2.32775
 20
2.05626
 30
0.0
 40
0
 41
0
  0
SEQEND
 8
0
  0
POLYLINE
  8
0
 62
     173
 66
     1
 10
0
 20
0
 30
0.0
 70
     1
 40
0
 41
0
  0
VERTEX
  8
0
 10
2.77778
 20
2.05626
 30
0.0
 40
0
 41
0
  0
VERTEX
  8
0
 10
2.77225
 20
2.08431
 30
0.0
 40
0
 41
0
  0
VERTEX
  8
0
 10
2.75776
 20
2.10428
 30
0.0
 40
0
 41
0
  0
VERTEX
  8
0
 10
2.73725
 20
2.11632
 30
0.0
 40
0
 41
0
  0
VERTEX
  8
0
 10
2.71376
 20
2.12028
 30
0.0
 40
0
 41
0
  0
VERTEX
  8
0
 10
2.69026
 20
2.11632
 30
0.0
 40
0
 41
0
  0
VERTEX
  8
0
 10
2.66976
 20
2.10428
 30
0.0
 40
0
 41
0
  0
VERTEX
  8
0
 10
2.65528
 20
2.08431
 30
0.0
 40
0
 41
0
  0
VERTEX
  8
0
 10
2.64979
 20
2.05626
 30
0.0
 40
0
 41
0
  0
VERTEX
  8
0
 10
2.65528
 20
2.02826
 30
0.0
 40
0
 41
0
  0
VERTEX
  8
0
 10
2.66976
 20
2.00831
 30
0.0
 40
0
 41
0
  0
VERTEX
  8
0
 10
2.69026
 20
1.99625
 30
0.0
 40
0
 41
0
  0
VERTEX
  8
0
 10
2.71376
 20
1.99229
 30
0.0
 40
0
 41
0
  0
VERTEX
  8
0
 10
2.73725
 20
1.99625
 30
0.0
 40
0
 41
0
  0
VERTEX
  8
0
 10
2.75776
 20
2.00831
 30
0.0
 40
0
 41
0
  0
VERTEX
  8
0
 10
2.77225
 20
2.02826
 30
0.0
 40
0
 41
0
  0
VERTEX
  8
0
 10
2.77778
 20
2.05626
 30
0.0
 40
0
 41
0
  0
SEQEND
 8
0
  0
ENDSEC
  0
EOF
