  0
SECTION
  2
HEADER
  9
$ACADVER
  1
AC1009
  9
$EXTMIN
 10
0.0
 20
0.0
 30
0.0
  9
$EXTMAX
 10
1000.0
 20
1000.0
 30
0.0
  9
$FILLMODE
 70
 0
  9
$SPLFRAME
 70
 1
  0
ENDSEC
  0
SECTION
  2
TABLES
  0
TABLE
  2
LAYER
 70
1
  0
LAYER
  2
0
 70
     0
 62
     7
  6
CONTINUOUS
  0
ENDTAB
  0
ENDSEC
  0
SECTION
  2
ENTITIES
  0
POLYLINE
  8
0
 62
     13
 66
     1
 10
0
 20
0
 30
0.0
 40
0.432
 41
0.432
  0
VERTEX
  8
0
 10
0.0387369
 20
1.33377
 30
0.0
 40
0.006
 41
0.006
  0
VERTEX
  8
0
 10
0.0387369
 20
0.848796
 30
0.0
 40
0.006
 41
0.006
  0
SEQEND
 8
0
  0
POLYLINE
  8
0
 62
     13
 66
     1
 10
0
 20
0
 30
0.0
 40
0.432
 41
0.432
  0
VERTEX
  8
0
 10
0.0387369
 20
1.33377
 30
0.0
 40
0.006
 41
0.006
  0
VERTEX
  8
0
 10
0.578776
 20
1.33377
 30
0.0
 40
0.006
 41
0.006
  0
SEQEND
 8
0
  0
POLYLINE
  8
0
 62
     13
 66
     1
 10
0
 20
0
 30
0.0
 40
0.432
 41
0.432
  0
VERTEX
  8
0
 10
0.578776
 20
1.33377
 30
0.0
 40
0.006
 41
0.006
  0
VERTEX
  8
0
 10
0.663738
 20
1.41878
 30
0.0
 40
0.006
 41
0.006
  0
SEQEND
 8
0
  0
POLYLINE
  8
0
 62
     13
 66
     1
 10
0
 20
0
 30
0.0
 40
0.432
 41
0.432
  0
VERTEX
  8
0
 10
0.663738
 20
1.41878
 30
0.0
 40
0.006
 41
0.006
  0
VERTEX
  8
0
 10
0.663738
 20
1.65886
 30
0.0
 40
0.006
 41
0.006
  0
SEQEND
 8
0
  0
POLYLINE
  8
0
 62
     173
 66
     1
 10
0
 20
0
 30
0.0
 70
     1
 40
0
 41
0
  0
VERTEX
  8
0
 10
0.465278
 20
1.07883
 30
0.0
 40
0
 41
0
  0
VERTEX
  8
0
 10
0.458768
 20
1.08534
 30
0.0
 40
0
 41
0
  0
VERTEX
  8
0
 10
0.452257
 20
1.07883
 30
0.0
 40
0
 41
0
  0
VERTEX
  8
0
 10
0.458768
 20
1.07232
 30
0.0
 40
0
 41
0
  0
VERTEX
  8
0
 10
0.465278
 20
1.07883
 30
0.0
 40
0
 41
0
  0
SEQEND
 8
0
  0
POLYLINE
  8
0
 62
     173
 66
     1
 10
0
 20
0
 30
0.0
 70
     1
 40
0
 41
0
  0
VERTEX
  8
0
 10
0.530274
 20
1.23882
 30
0.0
 40
0
 41
0
  0
VERTEX
  8
0
 10
0.523762
 20
1.24533
 30
0.0
 40
0
 41
0
  0
VERTEX
  8
0
 10
0.517253
 20
1.23882
 30
0.0
 40
0
 41
0
  0
VERTEX
  8
0
 10
0.523762
 20
1.23231
 30
0.0
 40
0
 41
0
  0
VERTEX
  8
0
 10
0.530274
 20
1.23882
 30
0.0
 40
0
 41
0
  0
SEQEND
 8
0
  0
POLYLINE
  8
0
 62
     173
 66
     1
 10
0
 20
0
 30
0.0
 70
     1
 40
0
 41
0
  0
VERTEX
  8
0
 10
0.590278
 20
1.26877
 30
0.0
 40
0
 41
0
  0
VERTEX
  8
0
 10
0.583768
 20
1.27528
 30
0.0
 40
0
 41
0
  0
VERTEX
  8
0
 10
0.577257
 20
1.26877
 30
0.0
 40
0
 41
0
  0
VERTEX
  8
0
 10
0.583768
 20
1.26226
 30
0.0
 40
0
 41
0
  0
VERTEX
  8
0
 10
0.590278
 20
1.26877
 30
0.0
 40
0
 41
0
  0
SEQEND
 8
0
  0
POLYLINE
  8
0
 62
     173
 66
     1
 10
0
 20
0
 30
0.0
 70
     1
 40
0
 41
0
  0
VERTEX
  8
0
 10
0.620226
 20
1.10384
 30
0.0
 40
0
 41
0
  0
VERTEX
  8
0
 10
0.613715
 20
1.11035
 30
0.0
 40
0
 41
0
  0
VERTEX
  8
0
 10
0.60726
 20
1.10384
 30
0.0
 40
0
 41
0
  0
VERTEX
  8
0
 10
0.613715
 20
1.09733
 30
0.0
 40
0
 41
0
  0
VERTEX
  8
0
 10
0.620226
 20
1.10384
 30
0.0
 40
0
 41
0
  0
SEQEND
 8
0
  0
POLYLINE
  8
0
 62
     173
 66
     1
 10
0
 20
0
 30
0.0
 70
     1
 40
0
 41
0
  0
VERTEX
  8
0
 10
0.725261
 20
1.16878
 30
0.0
 40
0
 41
0
  0
VERTEX
  8
0
 10
0.71875
 20
1.17529
 30
0.0
 40
0
 41
0
  0
VERTEX
  8
0
 10
0.71224
 20
1.16878
 30
0.0
 40
0
 41
0
  0
VERTEX
  8
0
 10
0.71875
 20
1.16227
 30
0.0
 40
0
 41
0
  0
VERTEX
  8
0
 10
0.725261
 20
1.16878
 30
0.0
 40
0
 41
0
  0
SEQEND
 8
0
  0
POLYLINE
  8
0
 62
     173
 66
     1
 10
0
 20
0
 30
0.0
 70
     1
 40
0
 41
0
  0
VERTEX
  8
0
 10
0.725261
 20
1.09885
 30
0.0
 40
0
 41
0
  0
VERTEX
  8
0
 10
0.71875
 20
1.10536
 30
0.0
 40
0
 41
0
  0
VERTEX
  8
0
 10
0.71224
 20
1.09885
 30
0.0
 40
0
 41
0
  0
VERTEX
  8
0
 10
0.71875
 20
1.09234
 30
0.0
 40
0
 41
0
  0
VERTEX
  8
0
 10
0.725261
 20
1.09885
 30
0.0
 40
0
 41
0
  0
SEQEND
 8
0
  0
POLYLINE
  8
0
 62
     173
 66
     1
 10
0
 20
0
 30
0.0
 70
     1
 40
0
 41
0
  0
VERTEX
  8
0
 10
0.730251
 20
0.853842
 30
0.0
 40
0
 41
0
  0
VERTEX
  8
0
 10
0.723742
 20
0.860351
 30
0.0
 40
0
 41
0
  0
VERTEX
  8
0
 10
0.717231
 20
0.853842
 30
0.0
 40
0
 41
0
  0
VERTEX
  8
0
 10
0.723742
 20
0.847331
 30
0.0
 40
0
 41
0
  0
VERTEX
  8
0
 10
0.730251
 20
0.853842
 30
0.0
 40
0
 41
0
  0
SEQEND
 8
0
  0
POLYLINE
  8
0
 62
     173
 66
     1
 10
0
 20
0
 30
0.0
 70
     1
 40
0
 41
0
  0
VERTEX
  8
0
 10
0.755262
 20
1.50379
 30
0.0
 40
0
 41
0
  0
VERTEX
  8
0
 10
0.748753
 20
1.51031
 30
0.0
 40
0
 41
0
  0
VERTEX
  8
0
 10
0.742242
 20
1.50379
 30
0.0
 40
0
 41
0
  0
VERTEX
  8
0
 10
0.748753
 20
1.49729
 30
0.0
 40
0
 41
0
  0
VERTEX
  8
0
 10
0.755262
 20
1.50379
 30
0.0
 40
0
 41
0
  0
SEQEND
 8
0
  0
POLYLINE
  8
0
 62
     173
 66
     1
 10
0
 20
0
 30
0.0
 70
     1
 40
0
 41
0
  0
VERTEX
  8
0
 10
0.83024
 20
1.16878
 30
0.0
 40
0
 41
0
  0
VERTEX
  8
0
 10
0.823731
 20
1.17529
 30
0.0
 40
0
 41
0
  0
VERTEX
  8
0
 10
0.817275
 20
1.16878
 30
0.0
 40
0
 41
0
  0
VERTEX
  8
0
 10
0.823731
 20
1.16227
 30
0.0
 40
0
 41
0
  0
VERTEX
  8
0
 10
0.83024
 20
1.16878
 30
0.0
 40
0
 41
0
  0
SEQEND
 8
0
  0
POLYLINE
  8
0
 62
     173
 66
     1
 10
0
 20
0
 30
0.0
 70
     1
 40
0
 41
0
  0
VERTEX
  8
0
 10
0.840278
 20
1.72885
 30
0.0
 40
0
 41
0
  0
VERTEX
  8
0
 10
0.833768
 20
1.73535
 30
0.0
 40
0
 41
0
  0
VERTEX
  8
0
 10
0.827257
 20
1.72885
 30
0.0
 40
0
 41
0
  0
VERTEX
  8
0
 10
0.833768
 20
1.72233
 30
0.0
 40
0
 41
0
  0
VERTEX
  8
0
 10
0.840278
 20
1.72885
 30
0.0
 40
0
 41
0
  0
SEQEND
 8
0
  0
POLYLINE
  8
0
 62
     173
 66
     1
 10
0
 20
0
 30
0.0
 70
     1
 40
0
 41
0
  0
VERTEX
  8
0
 10
0.850261
 20
1.47976
 30
0.0
 40
0
 41
0
  0
VERTEX
  8
0
 10
0.84375
 20
1.48628
 30
0.0
 40
0
 41
0
  0
VERTEX
  8
0
 10
0.83724
 20
1.47976
 30
0.0
 40
0
 41
0
  0
VERTEX
  8
0
 10
0.84375
 20
1.47336
 30
0.0
 40
0
 41
0
  0
VERTEX
  8
0
 10
0.850261
 20
1.47976
 30
0.0
 40
0
 41
0
  0
SEQEND
 8
0
  0
POLYLINE
  8
0
 62
     173
 66
     1
 10
0
 20
0
 30
0.0
 70
     1
 40
0
 41
0
  0
VERTEX
  8
0
 10
0.850261
 20
1.41878
 30
0.0
 40
0
 41
0
  0
VERTEX
  8
0
 10
0.84375
 20
1.42529
 30
0.0
 40
0
 41
0
  0
VERTEX
  8
0
 10
0.83724
 20
1.41878
 30
0.0
 40
0
 41
0
  0
VERTEX
  8
0
 10
0.84375
 20
1.41228
 30
0.0
 40
0
 41
0
  0
VERTEX
  8
0
 10
0.850261
 20
1.41878
 30
0.0
 40
0
 41
0
  0
SEQEND
 8
0
  0
POLYLINE
  8
0
 62
     173
 66
     1
 10
0
 20
0
 30
0.0
 70
     1
 40
0
 41
0
  0
VERTEX
  8
0
 10
0.850261
 20
1.3578
 30
0.0
 40
0
 41
0
  0
VERTEX
  8
0
 10
0.84375
 20
1.36431
 30
0.0
 40
0
 41
0
  0
VERTEX
  8
0
 10
0.83724
 20
1.3578
 30
0.0
 40
0
 41
0
  0
VERTEX
  8
0
 10
0.84375
 20
1.35129
 30
0.0
 40
0
 41
0
  0
VERTEX
  8
0
 10
0.850261
 20
1.3578
 30
0.0
 40
0
 41
0
  0
SEQEND
 8
0
  0
POLYLINE
  8
0
 62
     173
 66
     1
 10
0
 20
0
 30
0.0
 70
     1
 40
0
 41
0
  0
VERTEX
  8
0
 10
0.875271
 20
0.933757
 30
0.0
 40
0
 41
0
  0
VERTEX
  8
0
 10
0.868761
 20
0.940267
 30
0.0
 40
0
 41
0
  0
VERTEX
  8
0
 10
0.86225
 20
0.933757
 30
0.0
 40
0
 41
0
  0
VERTEX
  8
0
 10
0.868761
 20
0.927354
 30
0.0
 40
0
 41
0
  0
VERTEX
  8
0
 10
0.875271
 20
0.933757
 30
0.0
 40
0
 41
0
  0
SEQEND
 8
0
  0
POLYLINE
  8
0
 62
     173
 66
     1
 10
0
 20
0
 30
0.0
 70
     1
 40
0
 41
0
  0
VERTEX
  8
0
 10
0.905274
 20
1.11382
 30
0.0
 40
0
 41
0
  0
VERTEX
  8
0
 10
0.898762
 20
1.12033
 30
0.0
 40
0
 41
0
  0
VERTEX
  8
0
 10
0.892253
 20
1.11382
 30
0.0
 40
0
 41
0
  0
VERTEX
  8
0
 10
0.898762
 20
1.10731
 30
0.0
 40
0
 41
0
  0
VERTEX
  8
0
 10
0.905274
 20
1.11382
 30
0.0
 40
0
 41
0
  0
SEQEND
 8
0
  0
POLYLINE
  8
0
 62
     173
 66
     1
 10
0
 20
0
 30
0.0
 70
     1
 40
0
 41
0
  0
VERTEX
  8
0
 10
0.915256
 20
1.38379
 30
0.0
 40
0
 41
0
  0
VERTEX
  8
0
 10
0.908746
 20
1.39031
 30
0.0
 40
0
 41
0
  0
VERTEX
  8
0
 10
0.902235
 20
1.38379
 30
0.0
 40
0
 41
0
  0
VERTEX
  8
0
 10
0.908746
 20
1.37728
 30
0.0
 40
0
 41
0
  0
VERTEX
  8
0
 10
0.915256
 20
1.38379
 30
0.0
 40
0
 41
0
  0
SEQEND
 8
0
  0
POLYLINE
  8
0
 62
     173
 66
     1
 10
0
 20
0
 30
0.0
 70
     1
 40
0
 41
0
  0
VERTEX
  8
0
 10
0.940267
 20
1.33377
 30
0.0
 40
0
 41
0
  0
VERTEX
  8
0
 10
0.933757
 20
1.34028
 30
0.0
 40
0
 41
0
  0
VERTEX
  8
0
 10
0.927246
 20
1.33377
 30
0.0
 40
0
 41
0
  0
VERTEX
  8
0
 10
0.933757
 20
1.32726
 30
0.0
 40
0
 41
0
  0
VERTEX
  8
0
 10
0.940267
 20
1.33377
 30
0.0
 40
0
 41
0
  0
SEQEND
 8
0
  0
POLYLINE
  8
0
 62
     173
 66
     1
 10
0
 20
0
 30
0.0
 70
     1
 40
0
 41
0
  0
VERTEX
  8
0
 10
0.95524
 20
0.553765
 30
0.0
 40
0
 41
0
  0
VERTEX
  8
0
 10
0.948731
 20
0.560275
 30
0.0
 40
0
 41
0
  0
VERTEX
  8
0
 10
0.942275
 20
0.553765
 30
0.0
 40
0
 41
0
  0
VERTEX
  8
0
 10
0.948731
 20
0.54731
 30
0.0
 40
0
 41
0
  0
VERTEX
  8
0
 10
0.95524
 20
0.553765
 30
0.0
 40
0
 41
0
  0
SEQEND
 8
0
  0
POLYLINE
  8
0
 62
     173
 66
     1
 10
0
 20
0
 30
0.0
 70
     1
 40
0
 41
0
  0
VERTEX
  8
0
 10
0.975261
 20
1.22884
 30
0.0
 40
0
 41
0
  0
VERTEX
  8
0
 10
0.96875
 20
1.23535
 30
0.0
 40
0
 41
0
  0
VERTEX
  8
0
 10
0.96224
 20
1.22884
 30
0.0
 40
0
 41
0
  0
VERTEX
  8
0
 10
0.96875
 20
1.22233
 30
0.0
 40
0
 41
0
  0
VERTEX
  8
0
 10
0.975261
 20
1.22884
 30
0.0
 40
0
 41
0
  0
SEQEND
 8
0
  0
POLYLINE
  8
0
 62
     173
 66
     1
 10
0
 20
0
 30
0.0
 70
     1
 40
0
 41
0
  0
VERTEX
  8
0
 10
0.975261
 20
1.09885
 30
0.0
 40
0
 41
0
  0
VERTEX
  8
0
 10
0.96875
 20
1.10536
 30
0.0
 40
0
 41
0
  0
VERTEX
  8
0
 10
0.96224
 20
1.09885
 30
0.0
 40
0
 41
0
  0
VERTEX
  8
0
 10
0.96875
 20
1.09234
 30
0.0
 40
0
 41
0
  0
VERTEX
  8
0
 10
0.975261
 20
1.09885
 30
0.0
 40
0
 41
0
  0
SEQEND
 8
0
  0
POLYLINE
  8
0
 62
     173
 66
     1
 10
0
 20
0
 30
0.0
 70
     1
 40
0
 41
0
  0
VERTEX
  8
0
 10
0.980251
 20
1.45383
 30
0.0
 40
0
 41
0
  0
VERTEX
  8
0
 10
0.973742
 20
1.46035
 30
0.0
 40
0
 41
0
  0
VERTEX
  8
0
 10
0.967231
 20
1.45383
 30
0.0
 40
0
 41
0
  0
VERTEX
  8
0
 10
0.973742
 20
1.44732
 30
0.0
 40
0
 41
0
  0
VERTEX
  8
0
 10
0.980251
 20
1.45383
 30
0.0
 40
0
 41
0
  0
SEQEND
 8
0
  0
POLYLINE
  8
0
 62
     173
 66
     1
 10
0
 20
0
 30
0.0
 70
     1
 40
0
 41
0
  0
VERTEX
  8
0
 10
0.985243
 20
1.30377
 30
0.0
 40
0
 41
0
  0
VERTEX
  8
0
 10
0.978733
 20
1.31027
 30
0.0
 40
0
 41
0
  0
VERTEX
  8
0
 10
0.972276
 20
1.30377
 30
0.0
 40
0
 41
0
  0
VERTEX
  8
0
 10
0.978733
 20
1.29731
 30
0.0
 40
0
 41
0
  0
VERTEX
  8
0
 10
0.985243
 20
1.30377
 30
0.0
 40
0
 41
0
  0
SEQEND
 8
0
  0
POLYLINE
  8
0
 62
     173
 66
     1
 10
0
 20
0
 30
0.0
 70
     1
 40
0
 41
0
  0
VERTEX
  8
0
 10
0.98546
 20
0.375
 30
0.0
 40
0
 41
0
  0
VERTEX
  8
0
 10
0.97895
 20
0.381511
 30
0.0
 40
0
 41
0
  0
VERTEX
  8
0
 10
0.972439
 20
0.375
 30
0.0
 40
0
 41
0
  0
VERTEX
  8
0
 10
0.97895
 20
0.36849
 30
0.0
 40
0
 41
0
  0
VERTEX
  8
0
 10
0.98546
 20
0.375
 30
0.0
 40
0
 41
0
  0
SEQEND
 8
0
  0
POLYLINE
  8
0
 62
     173
 66
     1
 10
0
 20
0
 30
0.0
 70
     1
 40
0
 41
0
  0
VERTEX
  8
0
 10
0.995226
 20
2.18375
 30
0.0
 40
0
 41
0
  0
VERTEX
  8
0
 10
0.988715
 20
2.19026
 30
0.0
 40
0
 41
0
  0
VERTEX
  8
0
 10
0.98226
 20
2.18375
 30
0.0
 40
0
 41
0
  0
VERTEX
  8
0
 10
0.988715
 20
2.17736
 30
0.0
 40
0
 41
0
  0
VERTEX
  8
0
 10
0.995226
 20
2.18375
 30
0.0
 40
0
 41
0
  0
SEQEND
 8
0
  0
POLYLINE
  8
0
 62
     173
 66
     1
 10
0
 20
0
 30
0.0
 70
     1
 40
0
 41
0
  0
VERTEX
  8
0
 10
0.995226
 20
2.06885
 30
0.0
 40
0
 41
0
  0
VERTEX
  8
0
 10
0.988715
 20
2.07536
 30
0.0
 40
0
 41
0
  0
VERTEX
  8
0
 10
0.98226
 20
2.06885
 30
0.0
 40
0
 41
0
  0
VERTEX
  8
0
 10
0.988715
 20
2.06233
 30
0.0
 40
0
 41
0
  0
VERTEX
  8
0
 10
0.995226
 20
2.06885
 30
0.0
 40
0
 41
0
  0
SEQEND
 8
0
  0
POLYLINE
  8
0
 62
     173
 66
     1
 10
0
 20
0
 30
0.0
 70
     1
 40
0
 41
0
  0
VERTEX
  8
0
 10
1.00027
 20
1.26877
 30
0.0
 40
0
 41
0
  0
VERTEX
  8
0
 10
0.993761
 20
1.27528
 30
0.0
 40
0
 41
0
  0
VERTEX
  8
0
 10
0.98725
 20
1.26877
 30
0.0
 40
0
 41
0
  0
VERTEX
  8
0
 10
0.993761
 20
1.26226
 30
0.0
 40
0
 41
0
  0
VERTEX
  8
0
 10
1.00027
 20
1.26877
 30
0.0
 40
0
 41
0
  0
SEQEND
 8
0
  0
POLYLINE
  8
0
 62
     173
 66
     1
 10
0
 20
0
 30
0.0
 70
     1
 40
0
 41
0
  0
VERTEX
  8
0
 10
1.01525
 20
1.05876
 30
0.0
 40
0
 41
0
  0
VERTEX
  8
0
 10
1.00873
 20
1.06527
 30
0.0
 40
0
 41
0
  0
VERTEX
  8
0
 10
1.00228
 20
1.05876
 30
0.0
 40
0
 41
0
  0
VERTEX
  8
0
 10
1.00873
 20
1.05235
 30
0.0
 40
0
 41
0
  0
VERTEX
  8
0
 10
1.01525
 20
1.05876
 30
0.0
 40
0
 41
0
  0
SEQEND
 8
0
  0
POLYLINE
  8
0
 62
     173
 66
     1
 10
0
 20
0
 30
0.0
 70
     1
 40
0
 41
0
  0
VERTEX
  8
0
 10
1.02024
 20
1.98383
 30
0.0
 40
0
 41
0
  0
VERTEX
  8
0
 10
1.01373
 20
1.99035
 30
0.0
 40
0
 41
0
  0
VERTEX
  8
0
 10
1.00727
 20
1.98383
 30
0.0
 40
0
 41
0
  0
VERTEX
  8
0
 10
1.01373
 20
1.97732
 30
0.0
 40
0
 41
0
  0
VERTEX
  8
0
 10
1.02024
 20
1.98383
 30
0.0
 40
0
 41
0
  0
SEQEND
 8
0
  0
POLYLINE
  8
0
 62
     173
 66
     1
 10
0
 20
0
 30
0.0
 70
     1
 40
0
 41
0
  0
VERTEX
  8
0
 10
1.02024
 20
1.85883
 30
0.0
 40
0
 41
0
  0
VERTEX
  8
0
 10
1.01373
 20
1.86535
 30
0.0
 40
0
 41
0
  0
VERTEX
  8
0
 10
1.00727
 20
1.85883
 30
0.0
 40
0
 41
0
  0
VERTEX
  8
0
 10
1.01373
 20
1.85232
 30
0.0
 40
0
 41
0
  0
VERTEX
  8
0
 10
1.02024
 20
1.85883
 30
0.0
 40
0
 41
0
  0
SEQEND
 8
0
  0
POLYLINE
  8
0
 62
     173
 66
     1
 10
0
 20
0
 30
0.0
 70
     1
 40
0
 41
0
  0
VERTEX
  8
0
 10
1.04047
 20
0.0199653
 30
0.0
 40
0
 41
0
  0
VERTEX
  8
0
 10
1.03396
 20
0.0264757
 30
0.0
 40
0
 41
0
  0
VERTEX
  8
0
 10
1.02745
 20
0.0199653
 30
0.0
 40
0
 41
0
  0
VERTEX
  8
0
 10
1.03396
 20
0.0135634
 30
0.0
 40
0
 41
0
  0
VERTEX
  8
0
 10
1.04047
 20
0.0199653
 30
0.0
 40
0
 41
0
  0
SEQEND
 8
0
  0
POLYLINE
  8
0
 62
     173
 66
     1
 10
0
 20
0
 30
0.0
 70
     1
 40
0
 41
0
  0
VERTEX
  8
0
 10
1.04525
 20
2.18375
 30
0.0
 40
0
 41
0
  0
VERTEX
  8
0
 10
1.03874
 20
2.19026
 30
0.0
 40
0
 41
0
  0
VERTEX
  8
0
 10
1.03223
 20
2.18375
 30
0.0
 40
0
 41
0
  0
VERTEX
  8
0
 10
1.03874
 20
2.17736
 30
0.0
 40
0
 41
0
  0
VERTEX
  8
0
 10
1.04525
 20
2.18375
 30
0.0
 40
0
 41
0
  0
SEQEND
 8
0
  0
POLYLINE
  8
0
 62
     173
 66
     1
 10
0
 20
0
 30
0.0
 70
     1
 40
0
 41
0
  0
VERTEX
  8
0
 10
1.07026
 20
1.98383
 30
0.0
 40
0
 41
0
  0
VERTEX
  8
0
 10
1.06375
 20
1.99035
 30
0.0
 40
0
 41
0
  0
VERTEX
  8
0
 10
1.05724
 20
1.98383
 30
0.0
 40
0
 41
0
  0
VERTEX
  8
0
 10
1.06375
 20
1.97732
 30
0.0
 40
0
 41
0
  0
VERTEX
  8
0
 10
1.07026
 20
1.98383
 30
0.0
 40
0
 41
0
  0
SEQEND
 8
0
  0
POLYLINE
  8
0
 62
     173
 66
     1
 10
0
 20
0
 30
0.0
 70
     1
 40
0
 41
0
  0
VERTEX
  8
0
 10
1.07373
 20
1.33377
 30
0.0
 40
0
 41
0
  0
VERTEX
  8
0
 10
1.06722
 20
1.34028
 30
0.0
 40
0
 41
0
  0
VERTEX
  8
0
 10
1.06076
 20
1.33377
 30
0.0
 40
0
 41
0
  0
VERTEX
  8
0
 10
1.06722
 20
1.32726
 30
0.0
 40
0
 41
0
  0
VERTEX
  8
0
 10
1.07373
 20
1.33377
 30
0.0
 40
0
 41
0
  0
SEQEND
 8
0
  0
POLYLINE
  8
0
 62
     173
 66
     1
 10
0
 20
0
 30
0.0
 70
     1
 40
0
 41
0
  0
VERTEX
  8
0
 10
1.07373
 20
1.29877
 30
0.0
 40
0
 41
0
  0
VERTEX
  8
0
 10
1.06722
 20
1.30528
 30
0.0
 40
0
 41
0
  0
VERTEX
  8
0
 10
1.06076
 20
1.29877
 30
0.0
 40
0
 41
0
  0
VERTEX
  8
0
 10
1.06722
 20
1.29226
 30
0.0
 40
0
 41
0
  0
VERTEX
  8
0
 10
1.07373
 20
1.29877
 30
0.0
 40
0
 41
0
  0
SEQEND
 8
0
  0
POLYLINE
  8
0
 62
     173
 66
     1
 10
0
 20
0
 30
0.0
 70
     1
 40
0
 41
0
  0
VERTEX
  8
0
 10
1.07525
 20
1.49382
 30
0.0
 40
0
 41
0
  0
VERTEX
  8
0
 10
1.06874
 20
1.50032
 30
0.0
 40
0
 41
0
  0
VERTEX
  8
0
 10
1.06223
 20
1.49382
 30
0.0
 40
0
 41
0
  0
VERTEX
  8
0
 10
1.06874
 20
1.48731
 30
0.0
 40
0
 41
0
  0
VERTEX
  8
0
 10
1.07525
 20
1.49382
 30
0.0
 40
0
 41
0
  0
SEQEND
 8
0
  0
POLYLINE
  8
0
 62
     173
 66
     1
 10
0
 20
0
 30
0.0
 70
     1
 40
0
 41
0
  0
VERTEX
  8
0
 10
1.07525
 20
0.933757
 30
0.0
 40
0
 41
0
  0
VERTEX
  8
0
 10
1.06874
 20
0.940267
 30
0.0
 40
0
 41
0
  0
VERTEX
  8
0
 10
1.06223
 20
0.933757
 30
0.0
 40
0
 41
0
  0
VERTEX
  8
0
 10
1.06874
 20
0.927354
 30
0.0
 40
0
 41
0
  0
VERTEX
  8
0
 10
1.07525
 20
0.933757
 30
0.0
 40
0
 41
0
  0
SEQEND
 8
0
  0
POLYLINE
  8
0
 62
     173
 66
     1
 10
0
 20
0
 30
0.0
 70
     1
 40
0
 41
0
  0
VERTEX
  8
0
 10
1.09527
 20
2.18375
 30
0.0
 40
0
 41
0
  0
VERTEX
  8
0
 10
1.08876
 20
2.19026
 30
0.0
 40
0
 41
0
  0
VERTEX
  8
0
 10
1.08225
 20
2.18375
 30
0.0
 40
0
 41
0
  0
VERTEX
  8
0
 10
1.08876
 20
2.17736
 30
0.0
 40
0
 41
0
  0
VERTEX
  8
0
 10
1.09527
 20
2.18375
 30
0.0
 40
0
 41
0
  0
SEQEND
 8
0
  0
POLYLINE
  8
0
 62
     173
 66
     1
 10
0
 20
0
 30
0.0
 70
     1
 40
0
 41
0
  0
VERTEX
  8
0
 10
1.09527
 20
2.06885
 30
0.0
 40
0
 41
0
  0
VERTEX
  8
0
 10
1.08876
 20
2.07536
 30
0.0
 40
0
 41
0
  0
VERTEX
  8
0
 10
1.08225
 20
2.06885
 30
0.0
 40
0
 41
0
  0
VERTEX
  8
0
 10
1.08876
 20
2.06233
 30
0.0
 40
0
 41
0
  0
VERTEX
  8
0
 10
1.09527
 20
2.06885
 30
0.0
 40
0
 41
0
  0
SEQEND
 8
0
  0
POLYLINE
  8
0
 62
     173
 66
     1
 10
0
 20
0
 30
0.0
 70
     1
 40
0
 41
0
  0
VERTEX
  8
0
 10
1.10026
 20
1.60385
 30
0.0
 40
0
 41
0
  0
VERTEX
  8
0
 10
1.09375
 20
1.61035
 30
0.0
 40
0
 41
0
  0
VERTEX
  8
0
 10
1.08724
 20
1.60385
 30
0.0
 40
0
 41
0
  0
VERTEX
  8
0
 10
1.09375
 20
1.59733
 30
0.0
 40
0
 41
0
  0
VERTEX
  8
0
 10
1.10026
 20
1.60385
 30
0.0
 40
0
 41
0
  0
SEQEND
 8
0
  0
POLYLINE
  8
0
 62
     173
 66
     1
 10
0
 20
0
 30
0.0
 70
     1
 40
0
 41
0
  0
VERTEX
  8
0
 10
1.11523
 20
1.85883
 30
0.0
 40
0
 41
0
  0
VERTEX
  8
0
 10
1.10872
 20
1.86535
 30
0.0
 40
0
 41
0
  0
VERTEX
  8
0
 10
1.10227
 20
1.85883
 30
0.0
 40
0
 41
0
  0
VERTEX
  8
0
 10
1.10872
 20
1.85232
 30
0.0
 40
0
 41
0
  0
VERTEX
  8
0
 10
1.11523
 20
1.85883
 30
0.0
 40
0
 41
0
  0
SEQEND
 8
0
  0
POLYLINE
  8
0
 62
     173
 66
     1
 10
0
 20
0
 30
0.0
 70
     1
 40
0
 41
0
  0
VERTEX
  8
0
 10
1.12375
 20
1.50776
 30
0.0
 40
0
 41
0
  0
VERTEX
  8
0
 10
1.11724
 20
1.51426
 30
0.0
 40
0
 41
0
  0
VERTEX
  8
0
 10
1.11073
 20
1.50776
 30
0.0
 40
0
 41
0
  0
VERTEX
  8
0
 10
1.11724
 20
1.50131
 30
0.0
 40
0
 41
0
  0
VERTEX
  8
0
 10
1.12375
 20
1.50776
 30
0.0
 40
0
 41
0
  0
SEQEND
 8
0
  0
POLYLINE
  8
0
 62
     173
 66
     1
 10
0
 20
0
 30
0.0
 70
     1
 40
0
 41
0
  0
VERTEX
  8
0
 10
1.13525
 20
1.39378
 30
0.0
 40
0
 41
0
  0
VERTEX
  8
0
 10
1.12874
 20
1.40028
 30
0.0
 40
0
 41
0
  0
VERTEX
  8
0
 10
1.12223
 20
1.39378
 30
0.0
 40
0
 41
0
  0
VERTEX
  8
0
 10
1.12874
 20
1.38726
 30
0.0
 40
0
 41
0
  0
VERTEX
  8
0
 10
1.13525
 20
1.39378
 30
0.0
 40
0
 41
0
  0
SEQEND
 8
0
  0
POLYLINE
  8
0
 62
     173
 66
     1
 10
0
 20
0
 30
0.0
 70
     1
 40
0
 41
0
  0
VERTEX
  8
0
 10
1.13547
 20
0.465007
 30
0.0
 40
0
 41
0
  0
VERTEX
  8
0
 10
1.12896
 20
0.471517
 30
0.0
 40
0
 41
0
  0
VERTEX
  8
0
 10
1.12245
 20
0.465007
 30
0.0
 40
0
 41
0
  0
VERTEX
  8
0
 10
1.12896
 20
0.458496
 30
0.0
 40
0
 41
0
  0
VERTEX
  8
0
 10
1.13547
 20
0.465007
 30
0.0
 40
0
 41
0
  0
SEQEND
 8
0
  0
POLYLINE
  8
0
 62
     173
 66
     1
 10
0
 20
0
 30
0.0
 70
     1
 40
0
 41
0
  0
VERTEX
  8
0
 10
1.15375
 20
1.09386
 30
0.0
 40
0
 41
0
  0
VERTEX
  8
0
 10
1.14724
 20
1.10032
 30
0.0
 40
0
 41
0
  0
VERTEX
  8
0
 10
1.14073
 20
1.09386
 30
0.0
 40
0
 41
0
  0
VERTEX
  8
0
 10
1.14724
 20
1.08735
 30
0.0
 40
0
 41
0
  0
VERTEX
  8
0
 10
1.15375
 20
1.09386
 30
0.0
 40
0
 41
0
  0
SEQEND
 8
0
  0
POLYLINE
  8
0
 62
     173
 66
     1
 10
0
 20
0
 30
0.0
 70
     1
 40
0
 41
0
  0
VERTEX
  8
0
 10
1.15777
 20
1.50776
 30
0.0
 40
0
 41
0
  0
VERTEX
  8
0
 10
1.15126
 20
1.51426
 30
0.0
 40
0
 41
0
  0
VERTEX
  8
0
 10
1.14475
 20
1.50776
 30
0.0
 40
0
 41
0
  0
VERTEX
  8
0
 10
1.15126
 20
1.50131
 30
0.0
 40
0
 41
0
  0
VERTEX
  8
0
 10
1.15777
 20
1.50776
 30
0.0
 40
0
 41
0
  0
SEQEND
 8
0
  0
POLYLINE
  8
0
 62
     173
 66
     1
 10
0
 20
0
 30
0.0
 70
     1
 40
0
 41
0
  0
VERTEX
  8
0
 10
1.18875
 20
1.09386
 30
0.0
 40
0
 41
0
  0
VERTEX
  8
0
 10
1.18224
 20
1.10032
 30
0.0
 40
0
 41
0
  0
VERTEX
  8
0
 10
1.17573
 20
1.09386
 30
0.0
 40
0
 41
0
  0
VERTEX
  8
0
 10
1.18224
 20
1.08735
 30
0.0
 40
0
 41
0
  0
VERTEX
  8
0
 10
1.18875
 20
1.09386
 30
0.0
 40
0
 41
0
  0
SEQEND
 8
0
  0
POLYLINE
  8
0
 62
     173
 66
     1
 10
0
 20
0
 30
0.0
 70
     1
 40
0
 41
0
  0
VERTEX
  8
0
 10
1.19173
 20
1.50776
 30
0.0
 40
0
 41
0
  0
VERTEX
  8
0
 10
1.18522
 20
1.51426
 30
0.0
 40
0
 41
0
  0
VERTEX
  8
0
 10
1.17877
 20
1.50776
 30
0.0
 40
0
 41
0
  0
VERTEX
  8
0
 10
1.18522
 20
1.50131
 30
0.0
 40
0
 41
0
  0
VERTEX
  8
0
 10
1.19173
 20
1.50776
 30
0.0
 40
0
 41
0
  0
SEQEND
 8
0
  0
POLYLINE
  8
0
 62
     173
 66
     1
 10
0
 20
0
 30
0.0
 70
     1
 40
0
 41
0
  0
VERTEX
  8
0
 10
1.19526
 20
0.653754
 30
0.0
 40
0
 41
0
  0
VERTEX
  8
0
 10
1.18875
 20
0.660265
 30
0.0
 40
0
 41
0
  0
VERTEX
  8
0
 10
1.18224
 20
0.653754
 30
0.0
 40
0
 41
0
  0
VERTEX
  8
0
 10
1.18875
 20
0.647299
 30
0.0
 40
0
 41
0
  0
VERTEX
  8
0
 10
1.19526
 20
0.653754
 30
0.0
 40
0
 41
0
  0
SEQEND
 8
0
  0
POLYLINE
  8
0
 62
     173
 66
     1
 10
0
 20
0
 30
0.0
 70
     1
 40
0
 41
0
  0
VERTEX
  8
0
 10
1.22526
 20
1.09386
 30
0.0
 40
0
 41
0
  0
VERTEX
  8
0
 10
1.21875
 20
1.10032
 30
0.0
 40
0
 41
0
  0
VERTEX
  8
0
 10
1.21224
 20
1.09386
 30
0.0
 40
0
 41
0
  0
VERTEX
  8
0
 10
1.21875
 20
1.08735
 30
0.0
 40
0
 41
0
  0
VERTEX
  8
0
 10
1.22526
 20
1.09386
 30
0.0
 40
0
 41
0
  0
SEQEND
 8
0
  0
POLYLINE
  8
0
 62
     173
 66
     1
 10
0
 20
0
 30
0.0
 70
     1
 40
0
 41
0
  0
VERTEX
  8
0
 10
1.24023
 20
1.38878
 30
0.0
 40
0
 41
0
  0
VERTEX
  8
0
 10
1.23372
 20
1.39529
 30
0.0
 40
0
 41
0
  0
VERTEX
  8
0
 10
1.22727
 20
1.38878
 30
0.0
 40
0
 41
0
  0
VERTEX
  8
0
 10
1.23372
 20
1.38227
 30
0.0
 40
0
 41
0
  0
VERTEX
  8
0
 10
1.24023
 20
1.38878
 30
0.0
 40
0
 41
0
  0
SEQEND
 8
0
  0
POLYLINE
  8
0
 62
     173
 66
     1
 10
0
 20
0
 30
0.0
 70
     1
 40
0
 41
0
  0
VERTEX
  8
0
 10
1.25526
 20
1.2538
 30
0.0
 40
0
 41
0
  0
VERTEX
  8
0
 10
1.24875
 20
1.26031
 30
0.0
 40
0
 41
0
  0
VERTEX
  8
0
 10
1.24224
 20
1.2538
 30
0.0
 40
0
 41
0
  0
VERTEX
  8
0
 10
1.24875
 20
1.24729
 30
0.0
 40
0
 41
0
  0
VERTEX
  8
0
 10
1.25526
 20
1.2538
 30
0.0
 40
0
 41
0
  0
SEQEND
 8
0
  0
POLYLINE
  8
0
 62
     173
 66
     1
 10
0
 20
0
 30
0.0
 70
     1
 40
0
 41
0
  0
VERTEX
  8
0
 10
1.27523
 20
0.923774
 30
0.0
 40
0
 41
0
  0
VERTEX
  8
0
 10
1.26872
 20
0.930285
 30
0.0
 40
0
 41
0
  0
VERTEX
  8
0
 10
1.26226
 20
0.923774
 30
0.0
 40
0
 41
0
  0
VERTEX
  8
0
 10
1.26872
 20
0.917264
 30
0.0
 40
0
 41
0
  0
VERTEX
  8
0
 10
1.27523
 20
0.923774
 30
0.0
 40
0
 41
0
  0
SEQEND
 8
0
  0
POLYLINE
  8
0
 62
     173
 66
     1
 10
0
 20
0
 30
0.0
 70
     1
 40
0
 41
0
  0
VERTEX
  8
0
 10
1.31527
 20
1.61382
 30
0.0
 40
0
 41
0
  0
VERTEX
  8
0
 10
1.30876
 20
1.62033
 30
0.0
 40
0
 41
0
  0
VERTEX
  8
0
 10
1.30225
 20
1.61382
 30
0.0
 40
0
 41
0
  0
VERTEX
  8
0
 10
1.30876
 20
1.60732
 30
0.0
 40
0
 41
0
  0
VERTEX
  8
0
 10
1.31527
 20
1.61382
 30
0.0
 40
0
 41
0
  0
SEQEND
 8
0
  0
POLYLINE
  8
0
 62
     173
 66
     1
 10
0
 20
0
 30
0.0
 70
     1
 40
0
 41
0
  0
VERTEX
  8
0
 10
1.33545
 20
0.150011
 30
0.0
 40
0
 41
0
  0
VERTEX
  8
0
 10
1.32894
 20
0.156521
 30
0.0
 40
0
 41
0
  0
VERTEX
  8
0
 10
1.32243
 20
0.150011
 30
0.0
 40
0
 41
0
  0
VERTEX
  8
0
 10
1.32894
 20
0.143554
 30
0.0
 40
0
 41
0
  0
VERTEX
  8
0
 10
1.33545
 20
0.150011
 30
0.0
 40
0
 41
0
  0
SEQEND
 8
0
  0
POLYLINE
  8
0
 62
     173
 66
     1
 10
0
 20
0
 30
0.0
 70
     1
 40
0
 41
0
  0
VERTEX
  8
0
 10
1.34044
 20
0.364963
 30
0.0
 40
0
 41
0
  0
VERTEX
  8
0
 10
1.33393
 20
0.371474
 30
0.0
 40
0
 41
0
  0
VERTEX
  8
0
 10
1.32747
 20
0.364963
 30
0.0
 40
0
 41
0
  0
VERTEX
  8
0
 10
1.33393
 20
0.358507
 30
0.0
 40
0
 41
0
  0
VERTEX
  8
0
 10
1.34044
 20
0.364963
 30
0.0
 40
0
 41
0
  0
SEQEND
 8
0
  0
POLYLINE
  8
0
 62
     173
 66
     1
 10
0
 20
0
 30
0.0
 70
     1
 40
0
 41
0
  0
VERTEX
  8
0
 10
1.34527
 20
1.47385
 30
0.0
 40
0
 41
0
  0
VERTEX
  8
0
 10
1.33876
 20
1.48036
 30
0.0
 40
0
 41
0
  0
VERTEX
  8
0
 10
1.33225
 20
1.47385
 30
0.0
 40
0
 41
0
  0
VERTEX
  8
0
 10
1.33876
 20
1.46733
 30
0.0
 40
0
 41
0
  0
VERTEX
  8
0
 10
1.34527
 20
1.47385
 30
0.0
 40
0
 41
0
  0
SEQEND
 8
0
  0
POLYLINE
  8
0
 62
     173
 66
     1
 10
0
 20
0
 30
0.0
 70
     1
 40
0
 41
0
  0
VERTEX
  8
0
 10
1.35048
 20
0.0150282
 30
0.0
 40
0
 41
0
  0
VERTEX
  8
0
 10
1.34397
 20
0.0215386
 30
0.0
 40
0
 41
0
  0
VERTEX
  8
0
 10
1.33746
 20
0.0150282
 30
0.0
 40
0
 41
0
  0
VERTEX
  8
0
 10
1.34397
 20
0.00851779
 30
0.0
 40
0
 41
0
  0
VERTEX
  8
0
 10
1.35048
 20
0.0150282
 30
0.0
 40
0
 41
0
  0
SEQEND
 8
0
  0
POLYLINE
  8
0
 62
     173
 66
     1
 10
0
 20
0
 30
0.0
 70
     1
 40
0
 41
0
  0
VERTEX
  8
0
 10
1.35525
 20
1.71886
 30
0.0
 40
0
 41
0
  0
VERTEX
  8
0
 10
1.34874
 20
1.72532
 30
0.0
 40
0
 41
0
  0
VERTEX
  8
0
 10
1.34223
 20
1.71886
 30
0.0
 40
0
 41
0
  0
VERTEX
  8
0
 10
1.34874
 20
1.71235
 30
0.0
 40
0
 41
0
  0
VERTEX
  8
0
 10
1.35525
 20
1.71886
 30
0.0
 40
0
 41
0
  0
SEQEND
 8
0
  0
POLYLINE
  8
0
 62
     173
 66
     1
 10
0
 20
0
 30
0.0
 70
     1
 40
0
 41
0
  0
VERTEX
  8
0
 10
1.35547
 20
0.564996
 30
0.0
 40
0
 41
0
  0
VERTEX
  8
0
 10
1.34896
 20
0.571506
 30
0.0
 40
0
 41
0
  0
VERTEX
  8
0
 10
1.34245
 20
0.564996
 30
0.0
 40
0
 41
0
  0
VERTEX
  8
0
 10
1.34896
 20
0.558485
 30
0.0
 40
0
 41
0
  0
VERTEX
  8
0
 10
1.35547
 20
0.564996
 30
0.0
 40
0
 41
0
  0
SEQEND
 8
0
  0
POLYLINE
  8
0
 62
     173
 66
     1
 10
0
 20
0
 30
0.0
 70
     1
 40
0
 41
0
  0
VERTEX
  8
0
 10
1.37527
 20
1.09386
 30
0.0
 40
0
 41
0
  0
VERTEX
  8
0
 10
1.36876
 20
1.10032
 30
0.0
 40
0
 41
0
  0
VERTEX
  8
0
 10
1.36225
 20
1.09386
 30
0.0
 40
0
 41
0
  0
VERTEX
  8
0
 10
1.36876
 20
1.08735
 30
0.0
 40
0
 41
0
  0
VERTEX
  8
0
 10
1.37527
 20
1.09386
 30
0.0
 40
0
 41
0
  0
SEQEND
 8
0
  0
POLYLINE
  8
0
 62
     173
 66
     1
 10
0
 20
0
 30
0.0
 70
     1
 40
0
 41
0
  0
VERTEX
  8
0
 10
1.37543
 20
0.0749783
 30
0.0
 40
0
 41
0
  0
VERTEX
  8
0
 10
1.36892
 20
0.0814887
 30
0.0
 40
0
 41
0
  0
VERTEX
  8
0
 10
1.36247
 20
0.0749783
 30
0.0
 40
0
 41
0
  0
VERTEX
  8
0
 10
1.36892
 20
0.0684679
 30
0.0
 40
0
 41
0
  0
VERTEX
  8
0
 10
1.37543
 20
0.0749783
 30
0.0
 40
0
 41
0
  0
SEQEND
 8
0
  0
POLYLINE
  8
0
 62
     173
 66
     1
 10
0
 20
0
 30
0.0
 70
     1
 40
0
 41
0
  0
VERTEX
  8
0
 10
1.38026
 20
1.2838
 30
0.0
 40
0
 41
0
  0
VERTEX
  8
0
 10
1.37375
 20
1.29031
 30
0.0
 40
0
 41
0
  0
VERTEX
  8
0
 10
1.36724
 20
1.2838
 30
0.0
 40
0
 41
0
  0
VERTEX
  8
0
 10
1.37375
 20
1.27729
 30
0.0
 40
0
 41
0
  0
VERTEX
  8
0
 10
1.38026
 20
1.2838
 30
0.0
 40
0
 41
0
  0
SEQEND
 8
0
  0
POLYLINE
  8
0
 62
     173
 66
     1
 10
0
 20
0
 30
0.0
 70
     1
 40
0
 41
0
  0
VERTEX
  8
0
 10
1.38547
 20
0.0199653
 30
0.0
 40
0
 41
0
  0
VERTEX
  8
0
 10
1.37896
 20
0.0264757
 30
0.0
 40
0
 41
0
  0
VERTEX
  8
0
 10
1.37245
 20
0.0199653
 30
0.0
 40
0
 41
0
  0
VERTEX
  8
0
 10
1.37896
 20
0.0135634
 30
0.0
 40
0
 41
0
  0
VERTEX
  8
0
 10
1.38547
 20
0.0199653
 30
0.0
 40
0
 41
0
  0
SEQEND
 8
0
  0
POLYLINE
  8
0
 62
     173
 66
     1
 10
0
 20
0
 30
0.0
 70
     1
 40
0
 41
0
  0
VERTEX
  8
0
 10
1.39025
 20
1.36882
 30
0.0
 40
0
 41
0
  0
VERTEX
  8
0
 10
1.38373
 20
1.37533
 30
0.0
 40
0
 41
0
  0
VERTEX
  8
0
 10
1.37728
 20
1.36882
 30
0.0
 40
0
 41
0
  0
VERTEX
  8
0
 10
1.38373
 20
1.3623
 30
0.0
 40
0
 41
0
  0
VERTEX
  8
0
 10
1.39025
 20
1.36882
 30
0.0
 40
0
 41
0
  0
SEQEND
 8
0
  0
POLYLINE
  8
0
 62
     173
 66
     1
 10
0
 20
0
 30
0.0
 70
     1
 40
0
 41
0
  0
VERTEX
  8
0
 10
1.41026
 20
1.2538
 30
0.0
 40
0
 41
0
  0
VERTEX
  8
0
 10
1.40375
 20
1.26031
 30
0.0
 40
0
 41
0
  0
VERTEX
  8
0
 10
1.39725
 20
1.2538
 30
0.0
 40
0
 41
0
  0
VERTEX
  8
0
 10
1.40375
 20
1.24729
 30
0.0
 40
0
 41
0
  0
VERTEX
  8
0
 10
1.41026
 20
1.2538
 30
0.0
 40
0
 41
0
  0
SEQEND
 8
0
  0
POLYLINE
  8
0
 62
     173
 66
     1
 10
0
 20
0
 30
0.0
 70
     1
 40
0
 41
0
  0
VERTEX
  8
0
 10
1.41026
 20
1.09386
 30
0.0
 40
0
 41
0
  0
VERTEX
  8
0
 10
1.40375
 20
1.10032
 30
0.0
 40
0
 41
0
  0
VERTEX
  8
0
 10
1.39725
 20
1.09386
 30
0.0
 40
0
 41
0
  0
VERTEX
  8
0
 10
1.40375
 20
1.08735
 30
0.0
 40
0
 41
0
  0
VERTEX
  8
0
 10
1.41026
 20
1.09386
 30
0.0
 40
0
 41
0
  0
SEQEND
 8
0
  0
POLYLINE
  8
0
 62
     173
 66
     1
 10
0
 20
0
 30
0.0
 70
     1
 40
0
 41
0
  0
VERTEX
  8
0
 10
1.44026
 20
1.22385
 30
0.0
 40
0
 41
0
  0
VERTEX
  8
0
 10
1.43375
 20
1.23036
 30
0.0
 40
0
 41
0
  0
VERTEX
  8
0
 10
1.42725
 20
1.22385
 30
0.0
 40
0
 41
0
  0
VERTEX
  8
0
 10
1.43375
 20
1.21734
 30
0.0
 40
0
 41
0
  0
VERTEX
  8
0
 10
1.44026
 20
1.22385
 30
0.0
 40
0
 41
0
  0
SEQEND
 8
0
  0
POLYLINE
  8
0
 62
     173
 66
     1
 10
0
 20
0
 30
0.0
 70
     1
 40
0
 41
0
  0
VERTEX
  8
0
 10
1.44526
 20
1.50379
 30
0.0
 40
0
 41
0
  0
VERTEX
  8
0
 10
1.43875
 20
1.51031
 30
0.0
 40
0
 41
0
  0
VERTEX
  8
0
 10
1.43224
 20
1.50379
 30
0.0
 40
0
 41
0
  0
VERTEX
  8
0
 10
1.43875
 20
1.49729
 30
0.0
 40
0
 41
0
  0
VERTEX
  8
0
 10
1.44526
 20
1.50379
 30
0.0
 40
0
 41
0
  0
SEQEND
 8
0
  0
POLYLINE
  8
0
 62
     173
 66
     1
 10
0
 20
0
 30
0.0
 70
     1
 40
0
 41
0
  0
VERTEX
  8
0
 10
1.48025
 20
1.22385
 30
0.0
 40
0
 41
0
  0
VERTEX
  8
0
 10
1.47374
 20
1.23036
 30
0.0
 40
0
 41
0
  0
VERTEX
  8
0
 10
1.46724
 20
1.22385
 30
0.0
 40
0
 41
0
  0
VERTEX
  8
0
 10
1.47374
 20
1.21734
 30
0.0
 40
0
 41
0
  0
VERTEX
  8
0
 10
1.48025
 20
1.22385
 30
0.0
 40
0
 41
0
  0
SEQEND
 8
0
  0
POLYLINE
  8
0
 62
     173
 66
     1
 10
0
 20
0
 30
0.0
 70
     1
 40
0
 41
0
  0
VERTEX
  8
0
 10
1.48525
 20
1.55376
 30
0.0
 40
0
 41
0
  0
VERTEX
  8
0
 10
1.47874
 20
1.56028
 30
0.0
 40
0
 41
0
  0
VERTEX
  8
0
 10
1.47228
 20
1.55376
 30
0.0
 40
0
 41
0
  0
VERTEX
  8
0
 10
1.47874
 20
1.54731
 30
0.0
 40
0
 41
0
  0
VERTEX
  8
0
 10
1.48525
 20
1.55376
 30
0.0
 40
0
 41
0
  0
SEQEND
 8
0
  0
POLYLINE
  8
0
 62
     173
 66
     1
 10
0
 20
0
 30
0.0
 70
     1
 40
0
 41
0
  0
VERTEX
  8
0
 10
1.48876
 20
1.17377
 30
0.0
 40
0
 41
0
  0
VERTEX
  8
0
 10
1.48226
 20
1.18028
 30
0.0
 40
0
 41
0
  0
VERTEX
  8
0
 10
1.47575
 20
1.17377
 30
0.0
 40
0
 41
0
  0
VERTEX
  8
0
 10
1.48226
 20
1.16726
 30
0.0
 40
0
 41
0
  0
VERTEX
  8
0
 10
1.48876
 20
1.17377
 30
0.0
 40
0
 41
0
  0
SEQEND
 8
0
  0
POLYLINE
  8
0
 62
     173
 66
     1
 10
0
 20
0
 30
0.0
 70
     1
 40
0
 41
0
  0
VERTEX
  8
0
 10
1.49024
 20
1.1288
 30
0.0
 40
0
 41
0
  0
VERTEX
  8
0
 10
1.48372
 20
1.13531
 30
0.0
 40
0
 41
0
  0
VERTEX
  8
0
 10
1.47726
 20
1.1288
 30
0.0
 40
0
 41
0
  0
VERTEX
  8
0
 10
1.48372
 20
1.12229
 30
0.0
 40
0
 41
0
  0
VERTEX
  8
0
 10
1.49024
 20
1.1288
 30
0.0
 40
0
 41
0
  0
SEQEND
 8
0
  0
POLYLINE
  8
0
 62
     173
 66
     1
 10
0
 20
0
 30
0.0
 70
     1
 40
0
 41
0
  0
VERTEX
  8
0
 10
1.50043
 20
0.609972
 30
0.0
 40
0
 41
0
  0
VERTEX
  8
0
 10
1.49393
 20
0.616482
 30
0.0
 40
0
 41
0
  0
VERTEX
  8
0
 10
1.48747
 20
0.609972
 30
0.0
 40
0
 41
0
  0
VERTEX
  8
0
 10
1.49393
 20
0.603461
 30
0.0
 40
0
 41
0
  0
VERTEX
  8
0
 10
1.50043
 20
0.609972
 30
0.0
 40
0
 41
0
  0
SEQEND
 8
0
  0
POLYLINE
  8
0
 62
     173
 66
     1
 10
0
 20
0
 30
0.0
 70
     1
 40
0
 41
0
  0
VERTEX
  8
0
 10
1.56526
 20
1.72885
 30
0.0
 40
0
 41
0
  0
VERTEX
  8
0
 10
1.55875
 20
1.73535
 30
0.0
 40
0
 41
0
  0
VERTEX
  8
0
 10
1.55225
 20
1.72885
 30
0.0
 40
0
 41
0
  0
VERTEX
  8
0
 10
1.55875
 20
1.72233
 30
0.0
 40
0
 41
0
  0
VERTEX
  8
0
 10
1.56526
 20
1.72885
 30
0.0
 40
0
 41
0
  0
SEQEND
 8
0
  0
POLYLINE
  8
0
 62
     173
 66
     1
 10
0
 20
0
 30
0.0
 70
     1
 40
0
 41
0
  0
VERTEX
  8
0
 10
1.59044
 20
0.415039
 30
0.0
 40
0
 41
0
  0
VERTEX
  8
0
 10
1.58393
 20
0.42155
 30
0.0
 40
0
 41
0
  0
VERTEX
  8
0
 10
1.57747
 20
0.415039
 30
0.0
 40
0
 41
0
  0
VERTEX
  8
0
 10
1.58393
 20
0.408529
 30
0.0
 40
0
 41
0
  0
VERTEX
  8
0
 10
1.59044
 20
0.415039
 30
0.0
 40
0
 41
0
  0
SEQEND
 8
0
  0
POLYLINE
  8
0
 62
     173
 66
     1
 10
0
 20
0
 30
0.0
 70
     1
 40
0
 41
0
  0
VERTEX
  8
0
 10
1.59044
 20
0.269965
 30
0.0
 40
0
 41
0
  0
VERTEX
  8
0
 10
1.58393
 20
0.276476
 30
0.0
 40
0
 41
0
  0
VERTEX
  8
0
 10
1.57747
 20
0.269965
 30
0.0
 40
0
 41
0
  0
VERTEX
  8
0
 10
1.58393
 20
0.263564
 30
0.0
 40
0
 41
0
  0
VERTEX
  8
0
 10
1.59044
 20
0.269965
 30
0.0
 40
0
 41
0
  0
SEQEND
 8
0
  0
POLYLINE
  8
0
 62
     173
 66
     1
 10
0
 20
0
 30
0.0
 70
     1
 40
0
 41
0
  0
VERTEX
  8
0
 10
1.59044
 20
0.224989
 30
0.0
 40
0
 41
0
  0
VERTEX
  8
0
 10
1.58393
 20
0.2315
 30
0.0
 40
0
 41
0
  0
VERTEX
  8
0
 10
1.57747
 20
0.224989
 30
0.0
 40
0
 41
0
  0
VERTEX
  8
0
 10
1.58393
 20
0.218479
 30
0.0
 40
0
 41
0
  0
VERTEX
  8
0
 10
1.59044
 20
0.224989
 30
0.0
 40
0
 41
0
  0
SEQEND
 8
0
  0
POLYLINE
  8
0
 62
     173
 66
     1
 10
0
 20
0
 30
0.0
 70
     1
 40
0
 41
0
  0
VERTEX
  8
0
 10
1.59044
 20
0.155057
 30
0.0
 40
0
 41
0
  0
VERTEX
  8
0
 10
1.58393
 20
0.161512
 30
0.0
 40
0
 41
0
  0
VERTEX
  8
0
 10
1.57747
 20
0.155057
 30
0.0
 40
0
 41
0
  0
VERTEX
  8
0
 10
1.58393
 20
0.148546
 30
0.0
 40
0
 41
0
  0
VERTEX
  8
0
 10
1.59044
 20
0.155057
 30
0.0
 40
0
 41
0
  0
SEQEND
 8
0
  0
POLYLINE
  8
0
 62
     173
 66
     1
 10
0
 20
0
 30
0.0
 70
     1
 40
0
 41
0
  0
VERTEX
  8
0
 10
1.61524
 20
1.46886
 30
0.0
 40
0
 41
0
  0
VERTEX
  8
0
 10
1.60872
 20
1.47532
 30
0.0
 40
0
 41
0
  0
VERTEX
  8
0
 10
1.60226
 20
1.46886
 30
0.0
 40
0
 41
0
  0
VERTEX
  8
0
 10
1.60872
 20
1.46235
 30
0.0
 40
0
 41
0
  0
VERTEX
  8
0
 10
1.61524
 20
1.46886
 30
0.0
 40
0
 41
0
  0
SEQEND
 8
0
  0
POLYLINE
  8
0
 62
     173
 66
     1
 10
0
 20
0
 30
0.0
 70
     1
 40
0
 41
0
  0
VERTEX
  8
0
 10
1.62022
 20
1.22385
 30
0.0
 40
0
 41
0
  0
VERTEX
  8
0
 10
1.61372
 20
1.23036
 30
0.0
 40
0
 41
0
  0
VERTEX
  8
0
 10
1.60726
 20
1.22385
 30
0.0
 40
0
 41
0
  0
VERTEX
  8
0
 10
1.61372
 20
1.21734
 30
0.0
 40
0
 41
0
  0
VERTEX
  8
0
 10
1.62022
 20
1.22385
 30
0.0
 40
0
 41
0
  0
SEQEND
 8
0
  0
POLYLINE
  8
0
 62
     173
 66
     1
 10
0
 20
0
 30
0.0
 70
     1
 40
0
 41
0
  0
VERTEX
  8
0
 10
1.64025
 20
1.51878
 30
0.0
 40
0
 41
0
  0
VERTEX
  8
0
 10
1.63374
 20
1.52528
 30
0.0
 40
0
 41
0
  0
VERTEX
  8
0
 10
1.62728
 20
1.51878
 30
0.0
 40
0
 41
0
  0
VERTEX
  8
0
 10
1.63374
 20
1.51226
 30
0.0
 40
0
 41
0
  0
VERTEX
  8
0
 10
1.64025
 20
1.51878
 30
0.0
 40
0
 41
0
  0
SEQEND
 8
0
  0
POLYLINE
  8
0
 62
     173
 66
     1
 10
0
 20
0
 30
0.0
 70
     1
 40
0
 41
0
  0
VERTEX
  8
0
 10
1.64025
 20
1.01877
 30
0.0
 40
0
 41
0
  0
VERTEX
  8
0
 10
1.63374
 20
1.02528
 30
0.0
 40
0
 41
0
  0
VERTEX
  8
0
 10
1.62728
 20
1.01877
 30
0.0
 40
0
 41
0
  0
VERTEX
  8
0
 10
1.63374
 20
1.01226
 30
0.0
 40
0
 41
0
  0
VERTEX
  8
0
 10
1.64025
 20
1.01877
 30
0.0
 40
0
 41
0
  0
SEQEND
 8
0
  0
POLYLINE
  8
0
 62
     173
 66
     1
 10
0
 20
0
 30
0.0
 70
     1
 40
0
 41
0
  0
VERTEX
  8
0
 10
1.64046
 20
0.415039
 30
0.0
 40
0
 41
0
  0
VERTEX
  8
0
 10
1.63396
 20
0.42155
 30
0.0
 40
0
 41
0
  0
VERTEX
  8
0
 10
1.62744
 20
0.415039
 30
0.0
 40
0
 41
0
  0
VERTEX
  8
0
 10
1.63396
 20
0.408529
 30
0.0
 40
0
 41
0
  0
VERTEX
  8
0
 10
1.64046
 20
0.415039
 30
0.0
 40
0
 41
0
  0
SEQEND
 8
0
  0
POLYLINE
  8
0
 62
     173
 66
     1
 10
0
 20
0
 30
0.0
 70
     1
 40
0
 41
0
  0
VERTEX
  8
0
 10
1.69026
 20
1.59386
 30
0.0
 40
0
 41
0
  0
VERTEX
  8
0
 10
1.68375
 20
1.60032
 30
0.0
 40
0
 41
0
  0
VERTEX
  8
0
 10
1.67725
 20
1.59386
 30
0.0
 40
0
 41
0
  0
VERTEX
  8
0
 10
1.68375
 20
1.58735
 30
0.0
 40
0
 41
0
  0
VERTEX
  8
0
 10
1.69026
 20
1.59386
 30
0.0
 40
0
 41
0
  0
SEQEND
 8
0
  0
POLYLINE
  8
0
 62
     173
 66
     1
 10
0
 20
0
 30
0.0
 70
     1
 40
0
 41
0
  0
VERTEX
  8
0
 10
1.70025
 20
1.3788
 30
0.0
 40
0
 41
0
  0
VERTEX
  8
0
 10
1.69374
 20
1.38531
 30
0.0
 40
0
 41
0
  0
VERTEX
  8
0
 10
1.68722
 20
1.3788
 30
0.0
 40
0
 41
0
  0
VERTEX
  8
0
 10
1.69374
 20
1.37229
 30
0.0
 40
0
 41
0
  0
VERTEX
  8
0
 10
1.70025
 20
1.3788
 30
0.0
 40
0
 41
0
  0
SEQEND
 8
0
  0
POLYLINE
  8
0
 62
     173
 66
     1
 10
0
 20
0
 30
0.0
 70
     1
 40
0
 41
0
  0
VERTEX
  8
0
 10
1.70025
 20
1.26877
 30
0.0
 40
0
 41
0
  0
VERTEX
  8
0
 10
1.69374
 20
1.27528
 30
0.0
 40
0
 41
0
  0
VERTEX
  8
0
 10
1.68722
 20
1.26877
 30
0.0
 40
0
 41
0
  0
VERTEX
  8
0
 10
1.69374
 20
1.26226
 30
0.0
 40
0
 41
0
  0
VERTEX
  8
0
 10
1.70025
 20
1.26877
 30
0.0
 40
0
 41
0
  0
SEQEND
 8
0
  0
POLYLINE
  8
0
 62
     173
 66
     1
 10
0
 20
0
 30
0.0
 70
     1
 40
0
 41
0
  0
VERTEX
  8
0
 10
1.70025
 20
1.17877
 30
0.0
 40
0
 41
0
  0
VERTEX
  8
0
 10
1.69374
 20
1.18527
 30
0.0
 40
0
 41
0
  0
VERTEX
  8
0
 10
1.68722
 20
1.17877
 30
0.0
 40
0
 41
0
  0
VERTEX
  8
0
 10
1.69374
 20
1.17231
 30
0.0
 40
0
 41
0
  0
VERTEX
  8
0
 10
1.70025
 20
1.17877
 30
0.0
 40
0
 41
0
  0
SEQEND
 8
0
  0
POLYLINE
  8
0
 62
     173
 66
     1
 10
0
 20
0
 30
0.0
 70
     1
 40
0
 41
0
  0
VERTEX
  8
0
 10
1.72026
 20
2.18375
 30
0.0
 40
0
 41
0
  0
VERTEX
  8
0
 10
1.71376
 20
2.19026
 30
0.0
 40
0
 41
0
  0
VERTEX
  8
0
 10
1.70725
 20
2.18375
 30
0.0
 40
0
 41
0
  0
VERTEX
  8
0
 10
1.71376
 20
2.17736
 30
0.0
 40
0
 41
0
  0
VERTEX
  8
0
 10
1.72026
 20
2.18375
 30
0.0
 40
0
 41
0
  0
SEQEND
 8
0
  0
POLYLINE
  8
0
 62
     173
 66
     1
 10
0
 20
0
 30
0.0
 70
     1
 40
0
 41
0
  0
VERTEX
  8
0
 10
1.72026
 20
2.06885
 30
0.0
 40
0
 41
0
  0
VERTEX
  8
0
 10
1.71376
 20
2.07536
 30
0.0
 40
0
 41
0
  0
VERTEX
  8
0
 10
1.70725
 20
2.06885
 30
0.0
 40
0
 41
0
  0
VERTEX
  8
0
 10
1.71376
 20
2.06233
 30
0.0
 40
0
 41
0
  0
VERTEX
  8
0
 10
1.72026
 20
2.06885
 30
0.0
 40
0
 41
0
  0
SEQEND
 8
0
  0
POLYLINE
  8
0
 62
     173
 66
     1
 10
0
 20
0
 30
0.0
 70
     1
 40
0
 41
0
  0
VERTEX
  8
0
 10
1.74024
 20
1.59386
 30
0.0
 40
0
 41
0
  0
VERTEX
  8
0
 10
1.73372
 20
1.60032
 30
0.0
 40
0
 41
0
  0
VERTEX
  8
0
 10
1.72726
 20
1.59386
 30
0.0
 40
0
 41
0
  0
VERTEX
  8
0
 10
1.73372
 20
1.58735
 30
0.0
 40
0
 41
0
  0
VERTEX
  8
0
 10
1.74024
 20
1.59386
 30
0.0
 40
0
 41
0
  0
SEQEND
 8
0
  0
POLYLINE
  8
0
 62
     173
 66
     1
 10
0
 20
0
 30
0.0
 70
     1
 40
0
 41
0
  0
VERTEX
  8
0
 10
1.74024
 20
1.45383
 30
0.0
 40
0
 41
0
  0
VERTEX
  8
0
 10
1.73372
 20
1.46035
 30
0.0
 40
0
 41
0
  0
VERTEX
  8
0
 10
1.72726
 20
1.45383
 30
0.0
 40
0
 41
0
  0
VERTEX
  8
0
 10
1.73372
 20
1.44732
 30
0.0
 40
0
 41
0
  0
VERTEX
  8
0
 10
1.74024
 20
1.45383
 30
0.0
 40
0
 41
0
  0
SEQEND
 8
0
  0
POLYLINE
  8
0
 62
     173
 66
     1
 10
0
 20
0
 30
0.0
 70
     1
 40
0
 41
0
  0
VERTEX
  8
0
 10
1.74046
 20
0.415039
 30
0.0
 40
0
 41
0
  0
VERTEX
  8
0
 10
1.73394
 20
0.42155
 30
0.0
 40
0
 41
0
  0
VERTEX
  8
0
 10
1.72743
 20
0.415039
 30
0.0
 40
0
 41
0
  0
VERTEX
  8
0
 10
1.73394
 20
0.408529
 30
0.0
 40
0
 41
0
  0
VERTEX
  8
0
 10
1.74046
 20
0.415039
 30
0.0
 40
0
 41
0
  0
SEQEND
 8
0
  0
POLYLINE
  8
0
 62
     173
 66
     1
 10
0
 20
0
 30
0.0
 70
     1
 40
0
 41
0
  0
VERTEX
  8
0
 10
1.74046
 20
0.155057
 30
0.0
 40
0
 41
0
  0
VERTEX
  8
0
 10
1.73394
 20
0.161512
 30
0.0
 40
0
 41
0
  0
VERTEX
  8
0
 10
1.72743
 20
0.155057
 30
0.0
 40
0
 41
0
  0
VERTEX
  8
0
 10
1.73394
 20
0.148546
 30
0.0
 40
0
 41
0
  0
VERTEX
  8
0
 10
1.74046
 20
0.155057
 30
0.0
 40
0
 41
0
  0
SEQEND
 8
0
  0
POLYLINE
  8
0
 62
     173
 66
     1
 10
0
 20
0
 30
0.0
 70
     1
 40
0
 41
0
  0
VERTEX
  8
0
 10
1.74522
 20
1.98383
 30
0.0
 40
0
 41
0
  0
VERTEX
  8
0
 10
1.73872
 20
1.99035
 30
0.0
 40
0
 41
0
  0
VERTEX
  8
0
 10
1.73226
 20
1.98383
 30
0.0
 40
0
 41
0
  0
VERTEX
  8
0
 10
1.73872
 20
1.97732
 30
0.0
 40
0
 41
0
  0
VERTEX
  8
0
 10
1.74522
 20
1.98383
 30
0.0
 40
0
 41
0
  0
SEQEND
 8
0
  0
POLYLINE
  8
0
 62
     173
 66
     1
 10
0
 20
0
 30
0.0
 70
     1
 40
0
 41
0
  0
VERTEX
  8
0
 10
1.74522
 20
1.85883
 30
0.0
 40
0
 41
0
  0
VERTEX
  8
0
 10
1.73872
 20
1.86535
 30
0.0
 40
0
 41
0
  0
VERTEX
  8
0
 10
1.73226
 20
1.85883
 30
0.0
 40
0
 41
0
  0
VERTEX
  8
0
 10
1.73872
 20
1.85232
 30
0.0
 40
0
 41
0
  0
VERTEX
  8
0
 10
1.74522
 20
1.85883
 30
0.0
 40
0
 41
0
  0
SEQEND
 8
0
  0
POLYLINE
  8
0
 62
     173
 66
     1
 10
0
 20
0
 30
0.0
 70
     1
 40
0
 41
0
  0
VERTEX
  8
0
 10
1.74522
 20
1.26877
 30
0.0
 40
0
 41
0
  0
VERTEX
  8
0
 10
1.73872
 20
1.27528
 30
0.0
 40
0
 41
0
  0
VERTEX
  8
0
 10
1.73226
 20
1.26877
 30
0.0
 40
0
 41
0
  0
VERTEX
  8
0
 10
1.73872
 20
1.26226
 30
0.0
 40
0
 41
0
  0
VERTEX
  8
0
 10
1.74522
 20
1.26877
 30
0.0
 40
0
 41
0
  0
SEQEND
 8
0
  0
POLYLINE
  8
0
 62
     173
 66
     1
 10
0
 20
0
 30
0.0
 70
     1
 40
0
 41
0
  0
VERTEX
  8
0
 10
1.74522
 20
1.17877
 30
0.0
 40
0
 41
0
  0
VERTEX
  8
0
 10
1.73872
 20
1.18527
 30
0.0
 40
0
 41
0
  0
VERTEX
  8
0
 10
1.73226
 20
1.17877
 30
0.0
 40
0
 41
0
  0
VERTEX
  8
0
 10
1.73872
 20
1.17231
 30
0.0
 40
0
 41
0
  0
VERTEX
  8
0
 10
1.74522
 20
1.17877
 30
0.0
 40
0
 41
0
  0
SEQEND
 8
0
  0
POLYLINE
  8
0
 62
     173
 66
     1
 10
0
 20
0
 30
0.0
 70
     1
 40
0
 41
0
  0
VERTEX
  8
0
 10
1.77024
 20
2.18375
 30
0.0
 40
0
 41
0
  0
VERTEX
  8
0
 10
1.76372
 20
2.19026
 30
0.0
 40
0
 41
0
  0
VERTEX
  8
0
 10
1.75726
 20
2.18375
 30
0.0
 40
0
 41
0
  0
VERTEX
  8
0
 10
1.76372
 20
2.17736
 30
0.0
 40
0
 41
0
  0
VERTEX
  8
0
 10
1.77024
 20
2.18375
 30
0.0
 40
0
 41
0
  0
SEQEND
 8
0
  0
POLYLINE
  8
0
 62
     173
 66
     1
 10
0
 20
0
 30
0.0
 70
     1
 40
0
 41
0
  0
VERTEX
  8
0
 10
1.79025
 20
1.59386
 30
0.0
 40
0
 41
0
  0
VERTEX
  8
0
 10
1.78375
 20
1.60032
 30
0.0
 40
0
 41
0
  0
VERTEX
  8
0
 10
1.77724
 20
1.59386
 30
0.0
 40
0
 41
0
  0
VERTEX
  8
0
 10
1.78375
 20
1.58735
 30
0.0
 40
0
 41
0
  0
VERTEX
  8
0
 10
1.79025
 20
1.59386
 30
0.0
 40
0
 41
0
  0
SEQEND
 8
0
  0
POLYLINE
  8
0
 62
     173
 66
     1
 10
0
 20
0
 30
0.0
 70
     1
 40
0
 41
0
  0
VERTEX
  8
0
 10
1.79025
 20
1.45383
 30
0.0
 40
0
 41
0
  0
VERTEX
  8
0
 10
1.78375
 20
1.46035
 30
0.0
 40
0
 41
0
  0
VERTEX
  8
0
 10
1.77724
 20
1.45383
 30
0.0
 40
0
 41
0
  0
VERTEX
  8
0
 10
1.78375
 20
1.44732
 30
0.0
 40
0
 41
0
  0
VERTEX
  8
0
 10
1.79025
 20
1.45383
 30
0.0
 40
0
 41
0
  0
SEQEND
 8
0
  0
POLYLINE
  8
0
 62
     173
 66
     1
 10
0
 20
0
 30
0.0
 70
     1
 40
0
 41
0
  0
VERTEX
  8
0
 10
1.79025
 20
1.34885
 30
0.0
 40
0
 41
0
  0
VERTEX
  8
0
 10
1.78375
 20
1.35536
 30
0.0
 40
0
 41
0
  0
VERTEX
  8
0
 10
1.77724
 20
1.34885
 30
0.0
 40
0
 41
0
  0
VERTEX
  8
0
 10
1.78375
 20
1.34234
 30
0.0
 40
0
 41
0
  0
VERTEX
  8
0
 10
1.79025
 20
1.34885
 30
0.0
 40
0
 41
0
  0
SEQEND
 8
0
  0
POLYLINE
  8
0
 62
     173
 66
     1
 10
0
 20
0
 30
0.0
 70
     1
 40
0
 41
0
  0
VERTEX
  8
0
 10
1.79025
 20
1.26877
 30
0.0
 40
0
 41
0
  0
VERTEX
  8
0
 10
1.78375
 20
1.27528
 30
0.0
 40
0
 41
0
  0
VERTEX
  8
0
 10
1.77724
 20
1.26877
 30
0.0
 40
0
 41
0
  0
VERTEX
  8
0
 10
1.78375
 20
1.26226
 30
0.0
 40
0
 41
0
  0
VERTEX
  8
0
 10
1.79025
 20
1.26877
 30
0.0
 40
0
 41
0
  0
SEQEND
 8
0
  0
POLYLINE
  8
0
 62
     173
 66
     1
 10
0
 20
0
 30
0.0
 70
     1
 40
0
 41
0
  0
VERTEX
  8
0
 10
1.79025
 20
1.17877
 30
0.0
 40
0
 41
0
  0
VERTEX
  8
0
 10
1.78375
 20
1.18527
 30
0.0
 40
0
 41
0
  0
VERTEX
  8
0
 10
1.77724
 20
1.17877
 30
0.0
 40
0
 41
0
  0
VERTEX
  8
0
 10
1.78375
 20
1.17231
 30
0.0
 40
0
 41
0
  0
VERTEX
  8
0
 10
1.79025
 20
1.17877
 30
0.0
 40
0
 41
0
  0
SEQEND
 8
0
  0
POLYLINE
  8
0
 62
     173
 66
     1
 10
0
 20
0
 30
0.0
 70
     1
 40
0
 41
0
  0
VERTEX
  8
0
 10
1.79047
 20
0.415039
 30
0.0
 40
0
 41
0
  0
VERTEX
  8
0
 10
1.78396
 20
0.42155
 30
0.0
 40
0
 41
0
  0
VERTEX
  8
0
 10
1.77746
 20
0.415039
 30
0.0
 40
0
 41
0
  0
VERTEX
  8
0
 10
1.78396
 20
0.408529
 30
0.0
 40
0
 41
0
  0
VERTEX
  8
0
 10
1.79047
 20
0.415039
 30
0.0
 40
0
 41
0
  0
SEQEND
 8
0
  0
POLYLINE
  8
0
 62
     173
 66
     1
 10
0
 20
0
 30
0.0
 70
     1
 40
0
 41
0
  0
VERTEX
  8
0
 10
1.79047
 20
0.224989
 30
0.0
 40
0
 41
0
  0
VERTEX
  8
0
 10
1.78396
 20
0.2315
 30
0.0
 40
0
 41
0
  0
VERTEX
  8
0
 10
1.77746
 20
0.224989
 30
0.0
 40
0
 41
0
  0
VERTEX
  8
0
 10
1.78396
 20
0.218479
 30
0.0
 40
0
 41
0
  0
VERTEX
  8
0
 10
1.79047
 20
0.224989
 30
0.0
 40
0
 41
0
  0
SEQEND
 8
0
  0
POLYLINE
  8
0
 62
     173
 66
     1
 10
0
 20
0
 30
0.0
 70
     1
 40
0
 41
0
  0
VERTEX
  8
0
 10
1.79047
 20
0.155057
 30
0.0
 40
0
 41
0
  0
VERTEX
  8
0
 10
1.78396
 20
0.161512
 30
0.0
 40
0
 41
0
  0
VERTEX
  8
0
 10
1.77746
 20
0.155057
 30
0.0
 40
0
 41
0
  0
VERTEX
  8
0
 10
1.78396
 20
0.148546
 30
0.0
 40
0
 41
0
  0
VERTEX
  8
0
 10
1.79047
 20
0.155057
 30
0.0
 40
0
 41
0
  0
SEQEND
 8
0
  0
POLYLINE
  8
0
 62
     173
 66
     1
 10
0
 20
0
 30
0.0
 70
     1
 40
0
 41
0
  0
VERTEX
  8
0
 10
1.79525
 20
1.98383
 30
0.0
 40
0
 41
0
  0
VERTEX
  8
0
 10
1.78874
 20
1.99035
 30
0.0
 40
0
 41
0
  0
VERTEX
  8
0
 10
1.78222
 20
1.98383
 30
0.0
 40
0
 41
0
  0
VERTEX
  8
0
 10
1.78874
 20
1.97732
 30
0.0
 40
0
 41
0
  0
VERTEX
  8
0
 10
1.79525
 20
1.98383
 30
0.0
 40
0
 41
0
  0
SEQEND
 8
0
  0
POLYLINE
  8
0
 62
     173
 66
     1
 10
0
 20
0
 30
0.0
 70
     1
 40
0
 41
0
  0
VERTEX
  8
0
 10
1.81543
 20
0.359972
 30
0.0
 40
0
 41
0
  0
VERTEX
  8
0
 10
1.80892
 20
0.366482
 30
0.0
 40
0
 41
0
  0
VERTEX
  8
0
 10
1.80246
 20
0.359972
 30
0.0
 40
0
 41
0
  0
VERTEX
  8
0
 10
1.80892
 20
0.353461
 30
0.0
 40
0
 41
0
  0
VERTEX
  8
0
 10
1.81543
 20
0.359972
 30
0.0
 40
0
 41
0
  0
SEQEND
 8
0
  0
POLYLINE
  8
0
 62
     173
 66
     1
 10
0
 20
0
 30
0.0
 70
     1
 40
0
 41
0
  0
VERTEX
  8
0
 10
1.82026
 20
2.18375
 30
0.0
 40
0
 41
0
  0
VERTEX
  8
0
 10
1.81375
 20
2.19026
 30
0.0
 40
0
 41
0
  0
VERTEX
  8
0
 10
1.80724
 20
2.18375
 30
0.0
 40
0
 41
0
  0
VERTEX
  8
0
 10
1.81375
 20
2.17736
 30
0.0
 40
0
 41
0
  0
VERTEX
  8
0
 10
1.82026
 20
2.18375
 30
0.0
 40
0
 41
0
  0
SEQEND
 8
0
  0
POLYLINE
  8
0
 62
     173
 66
     1
 10
0
 20
0
 30
0.0
 70
     1
 40
0
 41
0
  0
VERTEX
  8
0
 10
1.82026
 20
2.06885
 30
0.0
 40
0
 41
0
  0
VERTEX
  8
0
 10
1.81375
 20
2.07536
 30
0.0
 40
0
 41
0
  0
VERTEX
  8
0
 10
1.80724
 20
2.06885
 30
0.0
 40
0
 41
0
  0
VERTEX
  8
0
 10
1.81375
 20
2.06233
 30
0.0
 40
0
 41
0
  0
VERTEX
  8
0
 10
1.82026
 20
2.06885
 30
0.0
 40
0
 41
0
  0
SEQEND
 8
0
  0
POLYLINE
  8
0
 62
     173
 66
     1
 10
0
 20
0
 30
0.0
 70
     1
 40
0
 41
0
  0
VERTEX
  8
0
 10
1.84028
 20
1.85883
 30
0.0
 40
0
 41
0
  0
VERTEX
  8
0
 10
1.83376
 20
1.86535
 30
0.0
 40
0
 41
0
  0
VERTEX
  8
0
 10
1.82726
 20
1.85883
 30
0.0
 40
0
 41
0
  0
VERTEX
  8
0
 10
1.83376
 20
1.85232
 30
0.0
 40
0
 41
0
  0
VERTEX
  8
0
 10
1.84028
 20
1.85883
 30
0.0
 40
0
 41
0
  0
SEQEND
 8
0
  0
POLYLINE
  8
0
 62
     173
 66
     1
 10
0
 20
0
 30
0.0
 70
     1
 40
0
 41
0
  0
VERTEX
  8
0
 10
1.84028
 20
1.59386
 30
0.0
 40
0
 41
0
  0
VERTEX
  8
0
 10
1.83376
 20
1.60032
 30
0.0
 40
0
 41
0
  0
VERTEX
  8
0
 10
1.82726
 20
1.59386
 30
0.0
 40
0
 41
0
  0
VERTEX
  8
0
 10
1.83376
 20
1.58735
 30
0.0
 40
0
 41
0
  0
VERTEX
  8
0
 10
1.84028
 20
1.59386
 30
0.0
 40
0
 41
0
  0
SEQEND
 8
0
  0
POLYLINE
  8
0
 62
     173
 66
     1
 10
0
 20
0
 30
0.0
 70
     1
 40
0
 41
0
  0
VERTEX
  8
0
 10
1.84028
 20
1.45383
 30
0.0
 40
0
 41
0
  0
VERTEX
  8
0
 10
1.83376
 20
1.46035
 30
0.0
 40
0
 41
0
  0
VERTEX
  8
0
 10
1.82726
 20
1.45383
 30
0.0
 40
0
 41
0
  0
VERTEX
  8
0
 10
1.83376
 20
1.44732
 30
0.0
 40
0
 41
0
  0
VERTEX
  8
0
 10
1.84028
 20
1.45383
 30
0.0
 40
0
 41
0
  0
SEQEND
 8
0
  0
POLYLINE
  8
0
 62
     173
 66
     1
 10
0
 20
0
 30
0.0
 70
     1
 40
0
 41
0
  0
VERTEX
  8
0
 10
1.84028
 20
1.34885
 30
0.0
 40
0
 41
0
  0
VERTEX
  8
0
 10
1.83376
 20
1.35536
 30
0.0
 40
0
 41
0
  0
VERTEX
  8
0
 10
1.82726
 20
1.34885
 30
0.0
 40
0
 41
0
  0
VERTEX
  8
0
 10
1.83376
 20
1.34234
 30
0.0
 40
0
 41
0
  0
VERTEX
  8
0
 10
1.84028
 20
1.34885
 30
0.0
 40
0
 41
0
  0
SEQEND
 8
0
  0
POLYLINE
  8
0
 62
     173
 66
     1
 10
0
 20
0
 30
0.0
 70
     1
 40
0
 41
0
  0
VERTEX
  8
0
 10
1.84028
 20
1.26877
 30
0.0
 40
0
 41
0
  0
VERTEX
  8
0
 10
1.83376
 20
1.27528
 30
0.0
 40
0
 41
0
  0
VERTEX
  8
0
 10
1.82726
 20
1.26877
 30
0.0
 40
0
 41
0
  0
VERTEX
  8
0
 10
1.83376
 20
1.26226
 30
0.0
 40
0
 41
0
  0
VERTEX
  8
0
 10
1.84028
 20
1.26877
 30
0.0
 40
0
 41
0
  0
SEQEND
 8
0
  0
POLYLINE
  8
0
 62
     173
 66
     1
 10
0
 20
0
 30
0.0
 70
     1
 40
0
 41
0
  0
VERTEX
  8
0
 10
1.84028
 20
1.17877
 30
0.0
 40
0
 41
0
  0
VERTEX
  8
0
 10
1.83376
 20
1.18527
 30
0.0
 40
0
 41
0
  0
VERTEX
  8
0
 10
1.82726
 20
1.17877
 30
0.0
 40
0
 41
0
  0
VERTEX
  8
0
 10
1.83376
 20
1.17231
 30
0.0
 40
0
 41
0
  0
VERTEX
  8
0
 10
1.84028
 20
1.17877
 30
0.0
 40
0
 41
0
  0
SEQEND
 8
0
  0
POLYLINE
  8
0
 62
     173
 66
     1
 10
0
 20
0
 30
0.0
 70
     1
 40
0
 41
0
  0
VERTEX
  8
0
 10
1.84044
 20
0.415039
 30
0.0
 40
0
 41
0
  0
VERTEX
  8
0
 10
1.83393
 20
0.42155
 30
0.0
 40
0
 41
0
  0
VERTEX
  8
0
 10
1.82747
 20
0.415039
 30
0.0
 40
0
 41
0
  0
VERTEX
  8
0
 10
1.83393
 20
0.408529
 30
0.0
 40
0
 41
0
  0
VERTEX
  8
0
 10
1.84044
 20
0.415039
 30
0.0
 40
0
 41
0
  0
SEQEND
 8
0
  0
POLYLINE
  8
0
 62
     173
 66
     1
 10
0
 20
0
 30
0.0
 70
     1
 40
0
 41
0
  0
VERTEX
  8
0
 10
1.84044
 20
0.224989
 30
0.0
 40
0
 41
0
  0
VERTEX
  8
0
 10
1.83393
 20
0.2315
 30
0.0
 40
0
 41
0
  0
VERTEX
  8
0
 10
1.82747
 20
0.224989
 30
0.0
 40
0
 41
0
  0
VERTEX
  8
0
 10
1.83393
 20
0.218479
 30
0.0
 40
0
 41
0
  0
VERTEX
  8
0
 10
1.84044
 20
0.224989
 30
0.0
 40
0
 41
0
  0
SEQEND
 8
0
  0
POLYLINE
  8
0
 62
     173
 66
     1
 10
0
 20
0
 30
0.0
 70
     1
 40
0
 41
0
  0
VERTEX
  8
0
 10
1.84044
 20
0.155057
 30
0.0
 40
0
 41
0
  0
VERTEX
  8
0
 10
1.83393
 20
0.161512
 30
0.0
 40
0
 41
0
  0
VERTEX
  8
0
 10
1.82747
 20
0.155057
 30
0.0
 40
0
 41
0
  0
VERTEX
  8
0
 10
1.83393
 20
0.148546
 30
0.0
 40
0
 41
0
  0
VERTEX
  8
0
 10
1.84044
 20
0.155057
 30
0.0
 40
0
 41
0
  0
SEQEND
 8
0
  0
POLYLINE
  8
0
 62
     173
 66
     1
 10
0
 20
0
 30
0.0
 70
     1
 40
0
 41
0
  0
VERTEX
  8
0
 10
1.89046
 20
0.155057
 30
0.0
 40
0
 41
0
  0
VERTEX
  8
0
 10
1.88396
 20
0.161512
 30
0.0
 40
0
 41
0
  0
VERTEX
  8
0
 10
1.87744
 20
0.155057
 30
0.0
 40
0
 41
0
  0
VERTEX
  8
0
 10
1.88396
 20
0.148546
 30
0.0
 40
0
 41
0
  0
VERTEX
  8
0
 10
1.89046
 20
0.155057
 30
0.0
 40
0
 41
0
  0
SEQEND
 8
0
  0
POLYLINE
  8
0
 62
     173
 66
     1
 10
0
 20
0
 30
0.0
 70
     1
 40
0
 41
0
  0
VERTEX
  8
0
 10
1.93024
 20
1.39876
 30
0.0
 40
0
 41
0
  0
VERTEX
  8
0
 10
1.92372
 20
1.40528
 30
0.0
 40
0
 41
0
  0
VERTEX
  8
0
 10
1.91726
 20
1.39876
 30
0.0
 40
0
 41
0
  0
VERTEX
  8
0
 10
1.92372
 20
1.39231
 30
0.0
 40
0
 41
0
  0
VERTEX
  8
0
 10
1.93024
 20
1.39876
 30
0.0
 40
0
 41
0
  0
SEQEND
 8
0
  0
POLYLINE
  8
0
 62
     173
 66
     1
 10
0
 20
0
 30
0.0
 70
     1
 40
0
 41
0
  0
VERTEX
  8
0
 10
1.94026
 20
1.59386
 30
0.0
 40
0
 41
0
  0
VERTEX
  8
0
 10
1.93375
 20
1.60032
 30
0.0
 40
0
 41
0
  0
VERTEX
  8
0
 10
1.92725
 20
1.59386
 30
0.0
 40
0
 41
0
  0
VERTEX
  8
0
 10
1.93375
 20
1.58735
 30
0.0
 40
0
 41
0
  0
VERTEX
  8
0
 10
1.94026
 20
1.59386
 30
0.0
 40
0
 41
0
  0
SEQEND
 8
0
  0
POLYLINE
  8
0
 62
     173
 66
     1
 10
0
 20
0
 30
0.0
 70
     1
 40
0
 41
0
  0
VERTEX
  8
0
 10
1.94043
 20
0.415039
 30
0.0
 40
0
 41
0
  0
VERTEX
  8
0
 10
1.93392
 20
0.42155
 30
0.0
 40
0
 41
0
  0
VERTEX
  8
0
 10
1.92746
 20
0.415039
 30
0.0
 40
0
 41
0
  0
VERTEX
  8
0
 10
1.93392
 20
0.408529
 30
0.0
 40
0
 41
0
  0
VERTEX
  8
0
 10
1.94043
 20
0.415039
 30
0.0
 40
0
 41
0
  0
SEQEND
 8
0
  0
POLYLINE
  8
0
 62
     173
 66
     1
 10
0
 20
0
 30
0.0
 70
     1
 40
0
 41
0
  0
VERTEX
  8
0
 10
1.94043
 20
0.155057
 30
0.0
 40
0
 41
0
  0
VERTEX
  8
0
 10
1.93392
 20
0.161512
 30
0.0
 40
0
 41
0
  0
VERTEX
  8
0
 10
1.92746
 20
0.155057
 30
0.0
 40
0
 41
0
  0
VERTEX
  8
0
 10
1.93392
 20
0.148546
 30
0.0
 40
0
 41
0
  0
VERTEX
  8
0
 10
1.94043
 20
0.155057
 30
0.0
 40
0
 41
0
  0
SEQEND
 8
0
  0
POLYLINE
  8
0
 62
     173
 66
     1
 10
0
 20
0
 30
0.0
 70
     1
 40
0
 41
0
  0
VERTEX
  8
0
 10
1.99024
 20
1.59386
 30
0.0
 40
0
 41
0
  0
VERTEX
  8
0
 10
1.98372
 20
1.60032
 30
0.0
 40
0
 41
0
  0
VERTEX
  8
0
 10
1.97726
 20
1.59386
 30
0.0
 40
0
 41
0
  0
VERTEX
  8
0
 10
1.98372
 20
1.58735
 30
0.0
 40
0
 41
0
  0
VERTEX
  8
0
 10
1.99024
 20
1.59386
 30
0.0
 40
0
 41
0
  0
SEQEND
 8
0
  0
POLYLINE
  8
0
 62
     173
 66
     1
 10
0
 20
0
 30
0.0
 70
     1
 40
0
 41
0
  0
VERTEX
  8
0
 10
1.99046
 20
0.224989
 30
0.0
 40
0
 41
0
  0
VERTEX
  8
0
 10
1.98394
 20
0.2315
 30
0.0
 40
0
 41
0
  0
VERTEX
  8
0
 10
1.97743
 20
0.224989
 30
0.0
 40
0
 41
0
  0
VERTEX
  8
0
 10
1.98394
 20
0.218479
 30
0.0
 40
0
 41
0
  0
VERTEX
  8
0
 10
1.99046
 20
0.224989
 30
0.0
 40
0
 41
0
  0
SEQEND
 8
0
  0
POLYLINE
  8
0
 62
     173
 66
     1
 10
0
 20
0
 30
0.0
 70
     1
 40
0
 41
0
  0
VERTEX
  8
0
 10
1.99046
 20
0.155057
 30
0.0
 40
0
 41
0
  0
VERTEX
  8
0
 10
1.98394
 20
0.161512
 30
0.0
 40
0
 41
0
  0
VERTEX
  8
0
 10
1.97743
 20
0.155057
 30
0.0
 40
0
 41
0
  0
VERTEX
  8
0
 10
1.98394
 20
0.148546
 30
0.0
 40
0
 41
0
  0
VERTEX
  8
0
 10
1.99046
 20
0.155057
 30
0.0
 40
0
 41
0
  0
SEQEND
 8
0
  0
POLYLINE
  8
0
 62
     173
 66
     1
 10
0
 20
0
 30
0.0
 70
     1
 40
0
 41
0
  0
VERTEX
  8
0
 10
2.03526
 20
0.763781
 30
0.0
 40
0
 41
0
  0
VERTEX
  8
0
 10
2.02875
 20
0.77029
 30
0.0
 40
0
 41
0
  0
VERTEX
  8
0
 10
2.02225
 20
0.763781
 30
0.0
 40
0
 41
0
  0
VERTEX
  8
0
 10
2.02875
 20
0.757269
 30
0.0
 40
0
 41
0
  0
VERTEX
  8
0
 10
2.03526
 20
0.763781
 30
0.0
 40
0
 41
0
  0
SEQEND
 8
0
  0
POLYLINE
  8
0
 62
     173
 66
     1
 10
0
 20
0
 30
0.0
 70
     1
 40
0
 41
0
  0
VERTEX
  8
0
 10
2.04025
 20
1.59386
 30
0.0
 40
0
 41
0
  0
VERTEX
  8
0
 10
2.03375
 20
1.60032
 30
0.0
 40
0
 41
0
  0
VERTEX
  8
0
 10
2.02724
 20
1.59386
 30
0.0
 40
0
 41
0
  0
VERTEX
  8
0
 10
2.03375
 20
1.58735
 30
0.0
 40
0
 41
0
  0
VERTEX
  8
0
 10
2.04025
 20
1.59386
 30
0.0
 40
0
 41
0
  0
SEQEND
 8
0
  0
POLYLINE
  8
0
 62
     173
 66
     1
 10
0
 20
0
 30
0.0
 70
     1
 40
0
 41
0
  0
VERTEX
  8
0
 10
2.04047
 20
0.224989
 30
0.0
 40
0
 41
0
  0
VERTEX
  8
0
 10
2.03396
 20
0.2315
 30
0.0
 40
0
 41
0
  0
VERTEX
  8
0
 10
2.02746
 20
0.224989
 30
0.0
 40
0
 41
0
  0
VERTEX
  8
0
 10
2.03396
 20
0.218479
 30
0.0
 40
0
 41
0
  0
VERTEX
  8
0
 10
2.04047
 20
0.224989
 30
0.0
 40
0
 41
0
  0
SEQEND
 8
0
  0
POLYLINE
  8
0
 62
     173
 66
     1
 10
0
 20
0
 30
0.0
 70
     1
 40
0
 41
0
  0
VERTEX
  8
0
 10
2.04047
 20
0.155057
 30
0.0
 40
0
 41
0
  0
VERTEX
  8
0
 10
2.03396
 20
0.161512
 30
0.0
 40
0
 41
0
  0
VERTEX
  8
0
 10
2.02746
 20
0.155057
 30
0.0
 40
0
 41
0
  0
VERTEX
  8
0
 10
2.03396
 20
0.148546
 30
0.0
 40
0
 41
0
  0
VERTEX
  8
0
 10
2.04047
 20
0.155057
 30
0.0
 40
0
 41
0
  0
SEQEND
 8
0
  0
POLYLINE
  8
0
 62
     173
 66
     1
 10
0
 20
0
 30
0.0
 70
     1
 40
0
 41
0
  0
VERTEX
  8
0
 10
2.08524
 20
1.47385
 30
0.0
 40
0
 41
0
  0
VERTEX
  8
0
 10
2.07872
 20
1.48036
 30
0.0
 40
0
 41
0
  0
VERTEX
  8
0
 10
2.07226
 20
1.47385
 30
0.0
 40
0
 41
0
  0
VERTEX
  8
0
 10
2.07872
 20
1.46733
 30
0.0
 40
0
 41
0
  0
VERTEX
  8
0
 10
2.08524
 20
1.47385
 30
0.0
 40
0
 41
0
  0
SEQEND
 8
0
  0
POLYLINE
  8
0
 62
     173
 66
     1
 10
0
 20
0
 30
0.0
 70
     1
 40
0
 41
0
  0
VERTEX
  8
0
 10
2.08524
 20
0.678765
 30
0.0
 40
0
 41
0
  0
VERTEX
  8
0
 10
2.07872
 20
0.685275
 30
0.0
 40
0
 41
0
  0
VERTEX
  8
0
 10
2.07226
 20
0.678765
 30
0.0
 40
0
 41
0
  0
VERTEX
  8
0
 10
2.07872
 20
0.67231
 30
0.0
 40
0
 41
0
  0
VERTEX
  8
0
 10
2.08524
 20
0.678765
 30
0.0
 40
0
 41
0
  0
SEQEND
 8
0
  0
POLYLINE
  8
0
 62
     173
 66
     1
 10
0
 20
0
 30
0.0
 70
     1
 40
0
 41
0
  0
VERTEX
  8
0
 10
2.09028
 20
0.953831
 30
0.0
 40
0
 41
0
  0
VERTEX
  8
0
 10
2.08376
 20
0.96034
 30
0.0
 40
0
 41
0
  0
VERTEX
  8
0
 10
2.07726
 20
0.953831
 30
0.0
 40
0
 41
0
  0
VERTEX
  8
0
 10
2.08376
 20
0.947319
 30
0.0
 40
0
 41
0
  0
VERTEX
  8
0
 10
2.09028
 20
0.953831
 30
0.0
 40
0
 41
0
  0
SEQEND
 8
0
  0
POLYLINE
  8
0
 62
     173
 66
     1
 10
0
 20
0
 30
0.0
 70
     1
 40
0
 41
0
  0
VERTEX
  8
0
 10
2.09028
 20
0.803765
 30
0.0
 40
0
 41
0
  0
VERTEX
  8
0
 10
2.08376
 20
0.810275
 30
0.0
 40
0
 41
0
  0
VERTEX
  8
0
 10
2.07726
 20
0.803765
 30
0.0
 40
0
 41
0
  0
VERTEX
  8
0
 10
2.08376
 20
0.79731
 30
0.0
 40
0
 41
0
  0
VERTEX
  8
0
 10
2.09028
 20
0.803765
 30
0.0
 40
0
 41
0
  0
SEQEND
 8
0
  0
POLYLINE
  8
0
 62
     173
 66
     1
 10
0
 20
0
 30
0.0
 70
     1
 40
0
 41
0
  0
VERTEX
  8
0
 10
2.09044
 20
0.224989
 30
0.0
 40
0
 41
0
  0
VERTEX
  8
0
 10
2.08393
 20
0.2315
 30
0.0
 40
0
 41
0
  0
VERTEX
  8
0
 10
2.07747
 20
0.224989
 30
0.0
 40
0
 41
0
  0
VERTEX
  8
0
 10
2.08393
 20
0.218479
 30
0.0
 40
0
 41
0
  0
VERTEX
  8
0
 10
2.09044
 20
0.224989
 30
0.0
 40
0
 41
0
  0
SEQEND
 8
0
  0
POLYLINE
  8
0
 62
     173
 66
     1
 10
0
 20
0
 30
0.0
 70
     1
 40
0
 41
0
  0
VERTEX
  8
0
 10
2.09044
 20
0.155057
 30
0.0
 40
0
 41
0
  0
VERTEX
  8
0
 10
2.08393
 20
0.161512
 30
0.0
 40
0
 41
0
  0
VERTEX
  8
0
 10
2.07747
 20
0.155057
 30
0.0
 40
0
 41
0
  0
VERTEX
  8
0
 10
2.08393
 20
0.148546
 30
0.0
 40
0
 41
0
  0
VERTEX
  8
0
 10
2.09044
 20
0.155057
 30
0.0
 40
0
 41
0
  0
SEQEND
 8
0
  0
POLYLINE
  8
0
 62
     173
 66
     1
 10
0
 20
0
 30
0.0
 70
     1
 40
0
 41
0
  0
VERTEX
  8
0
 10
2.13026
 20
0.383789
 30
0.0
 40
0
 41
0
  0
VERTEX
  8
0
 10
2.12375
 20
0.3903
 30
0.0
 40
0
 41
0
  0
VERTEX
  8
0
 10
2.11724
 20
0.383789
 30
0.0
 40
0
 41
0
  0
VERTEX
  8
0
 10
2.12375
 20
0.377279
 30
0.0
 40
0
 41
0
  0
VERTEX
  8
0
 10
2.13026
 20
0.383789
 30
0.0
 40
0
 41
0
  0
SEQEND
 8
0
  0
POLYLINE
  8
0
 62
     173
 66
     1
 10
0
 20
0
 30
0.0
 70
     1
 40
0
 41
0
  0
VERTEX
  8
0
 10
2.14046
 20
0.155057
 30
0.0
 40
0
 41
0
  0
VERTEX
  8
0
 10
2.13396
 20
0.161512
 30
0.0
 40
0
 41
0
  0
VERTEX
  8
0
 10
2.12744
 20
0.155057
 30
0.0
 40
0
 41
0
  0
VERTEX
  8
0
 10
2.13396
 20
0.148546
 30
0.0
 40
0
 41
0
  0
VERTEX
  8
0
 10
2.14046
 20
0.155057
 30
0.0
 40
0
 41
0
  0
SEQEND
 8
0
  0
POLYLINE
  8
0
 62
     173
 66
     1
 10
0
 20
0
 30
0.0
 70
     1
 40
0
 41
0
  0
VERTEX
  8
0
 10
2.16525
 20
0.843858
 30
0.0
 40
0
 41
0
  0
VERTEX
  8
0
 10
2.15875
 20
0.850315
 30
0.0
 40
0
 41
0
  0
VERTEX
  8
0
 10
2.15224
 20
0.843858
 30
0.0
 40
0
 41
0
  0
VERTEX
  8
0
 10
2.15875
 20
0.837349
 30
0.0
 40
0
 41
0
  0
VERTEX
  8
0
 10
2.16525
 20
0.843858
 30
0.0
 40
0
 41
0
  0
SEQEND
 8
0
  0
POLYLINE
  8
0
 62
     173
 66
     1
 10
0
 20
0
 30
0.0
 70
     1
 40
0
 41
0
  0
VERTEX
  8
0
 10
2.16525
 20
0.753797
 30
0.0
 40
0
 41
0
  0
VERTEX
  8
0
 10
2.15875
 20
0.760308
 30
0.0
 40
0
 41
0
  0
VERTEX
  8
0
 10
2.15224
 20
0.753797
 30
0.0
 40
0
 41
0
  0
VERTEX
  8
0
 10
2.15875
 20
0.747287
 30
0.0
 40
0
 41
0
  0
VERTEX
  8
0
 10
2.16525
 20
0.753797
 30
0.0
 40
0
 41
0
  0
SEQEND
 8
0
  0
POLYLINE
  8
0
 62
     173
 66
     1
 10
0
 20
0
 30
0.0
 70
     1
 40
0
 41
0
  0
VERTEX
  8
0
 10
2.18528
 20
1.70356
 30
0.0
 40
0
 41
0
  0
VERTEX
  8
0
 10
2.17876
 20
1.71007
 30
0.0
 40
0
 41
0
  0
VERTEX
  8
0
 10
2.17225
 20
1.70356
 30
0.0
 40
0
 41
0
  0
VERTEX
  8
0
 10
2.17876
 20
1.69715
 30
0.0
 40
0
 41
0
  0
VERTEX
  8
0
 10
2.18528
 20
1.70356
 30
0.0
 40
0
 41
0
  0
SEQEND
 8
0
  0
POLYLINE
  8
0
 62
     173
 66
     1
 10
0
 20
0
 30
0.0
 70
     1
 40
0
 41
0
  0
VERTEX
  8
0
 10
2.19043
 20
0.415039
 30
0.0
 40
0
 41
0
  0
VERTEX
  8
0
 10
2.18392
 20
0.42155
 30
0.0
 40
0
 41
0
  0
VERTEX
  8
0
 10
2.17746
 20
0.415039
 30
0.0
 40
0
 41
0
  0
VERTEX
  8
0
 10
2.18392
 20
0.408529
 30
0.0
 40
0
 41
0
  0
VERTEX
  8
0
 10
2.19043
 20
0.415039
 30
0.0
 40
0
 41
0
  0
SEQEND
 8
0
  0
POLYLINE
  8
0
 62
     173
 66
     1
 10
0
 20
0
 30
0.0
 70
     1
 40
0
 41
0
  0
VERTEX
  8
0
 10
2.19043
 20
0.155057
 30
0.0
 40
0
 41
0
  0
VERTEX
  8
0
 10
2.18392
 20
0.161512
 30
0.0
 40
0
 41
0
  0
VERTEX
  8
0
 10
2.17746
 20
0.155057
 30
0.0
 40
0
 41
0
  0
VERTEX
  8
0
 10
2.18392
 20
0.148546
 30
0.0
 40
0
 41
0
  0
VERTEX
  8
0
 10
2.19043
 20
0.155057
 30
0.0
 40
0
 41
0
  0
SEQEND
 8
0
  0
POLYLINE
  8
0
 62
     173
 66
     1
 10
0
 20
0
 30
0.0
 70
     1
 40
0
 41
0
  0
VERTEX
  8
0
 10
2.21024
 20
2.31885
 30
0.0
 40
0
 41
0
  0
VERTEX
  8
0
 10
2.20372
 20
2.32536
 30
0.0
 40
0
 41
0
  0
VERTEX
  8
0
 10
2.19726
 20
2.31885
 30
0.0
 40
0
 41
0
  0
VERTEX
  8
0
 10
2.20372
 20
2.31233
 30
0.0
 40
0
 41
0
  0
VERTEX
  8
0
 10
2.21024
 20
2.31885
 30
0.0
 40
0
 41
0
  0
SEQEND
 8
0
  0
POLYLINE
  8
0
 62
     173
 66
     1
 10
0
 20
0
 30
0.0
 70
     1
 40
0
 41
0
  0
VERTEX
  8
0
 10
2.22526
 20
1.32883
 30
0.0
 40
0
 41
0
  0
VERTEX
  8
0
 10
2.21875
 20
1.33534
 30
0.0
 40
0
 41
0
  0
VERTEX
  8
0
 10
2.21224
 20
1.32883
 30
0.0
 40
0
 41
0
  0
VERTEX
  8
0
 10
2.21875
 20
1.32232
 30
0.0
 40
0
 41
0
  0
VERTEX
  8
0
 10
2.22526
 20
1.32883
 30
0.0
 40
0
 41
0
  0
SEQEND
 8
0
  0
POLYLINE
  8
0
 62
     173
 66
     1
 10
0
 20
0
 30
0.0
 70
     1
 40
0
 41
0
  0
VERTEX
  8
0
 10
2.24046
 20
0.415039
 30
0.0
 40
0
 41
0
  0
VERTEX
  8
0
 10
2.23394
 20
0.42155
 30
0.0
 40
0
 41
0
  0
VERTEX
  8
0
 10
2.22743
 20
0.415039
 30
0.0
 40
0
 41
0
  0
VERTEX
  8
0
 10
2.23394
 20
0.408529
 30
0.0
 40
0
 41
0
  0
VERTEX
  8
0
 10
2.24046
 20
0.415039
 30
0.0
 40
0
 41
0
  0
SEQEND
 8
0
  0
POLYLINE
  8
0
 62
     173
 66
     1
 10
0
 20
0
 30
0.0
 70
     1
 40
0
 41
0
  0
VERTEX
  8
0
 10
2.24046
 20
0.314996
 30
0.0
 40
0
 41
0
  0
VERTEX
  8
0
 10
2.23394
 20
0.321506
 30
0.0
 40
0
 41
0
  0
VERTEX
  8
0
 10
2.22743
 20
0.314996
 30
0.0
 40
0
 41
0
  0
VERTEX
  8
0
 10
2.23394
 20
0.308485
 30
0.0
 40
0
 41
0
  0
VERTEX
  8
0
 10
2.24046
 20
0.314996
 30
0.0
 40
0
 41
0
  0
SEQEND
 8
0
  0
POLYLINE
  8
0
 62
     173
 66
     1
 10
0
 20
0
 30
0.0
 70
     1
 40
0
 41
0
  0
VERTEX
  8
0
 10
2.24046
 20
0.224989
 30
0.0
 40
0
 41
0
  0
VERTEX
  8
0
 10
2.23394
 20
0.2315
 30
0.0
 40
0
 41
0
  0
VERTEX
  8
0
 10
2.22743
 20
0.224989
 30
0.0
 40
0
 41
0
  0
VERTEX
  8
0
 10
2.23394
 20
0.218479
 30
0.0
 40
0
 41
0
  0
VERTEX
  8
0
 10
2.24046
 20
0.224989
 30
0.0
 40
0
 41
0
  0
SEQEND
 8
0
  0
POLYLINE
  8
0
 62
     173
 66
     1
 10
0
 20
0
 30
0.0
 70
     1
 40
0
 41
0
  0
VERTEX
  8
0
 10
2.24046
 20
0.155057
 30
0.0
 40
0
 41
0
  0
VERTEX
  8
0
 10
2.23394
 20
0.161512
 30
0.0
 40
0
 41
0
  0
VERTEX
  8
0
 10
2.22743
 20
0.155057
 30
0.0
 40
0
 41
0
  0
VERTEX
  8
0
 10
2.23394
 20
0.148546
 30
0.0
 40
0
 41
0
  0
VERTEX
  8
0
 10
2.24046
 20
0.155057
 30
0.0
 40
0
 41
0
  0
SEQEND
 8
0
  0
POLYLINE
  8
0
 62
     173
 66
     1
 10
0
 20
0
 30
0.0
 70
     1
 40
0
 41
0
  0
VERTEX
  8
0
 10
2.25526
 20
1.35883
 30
0.0
 40
0
 41
0
  0
VERTEX
  8
0
 10
2.24875
 20
1.36534
 30
0.0
 40
0
 41
0
  0
VERTEX
  8
0
 10
2.24224
 20
1.35883
 30
0.0
 40
0
 41
0
  0
VERTEX
  8
0
 10
2.24875
 20
1.35232
 30
0.0
 40
0
 41
0
  0
VERTEX
  8
0
 10
2.25526
 20
1.35883
 30
0.0
 40
0
 41
0
  0
SEQEND
 8
0
  0
POLYLINE
  8
0
 62
     173
 66
     1
 10
0
 20
0
 30
0.0
 70
     1
 40
0
 41
0
  0
VERTEX
  8
0
 10
2.26525
 20
2.15375
 30
0.0
 40
0
 41
0
  0
VERTEX
  8
0
 10
2.25874
 20
2.16026
 30
0.0
 40
0
 41
0
  0
VERTEX
  8
0
 10
2.25228
 20
2.15375
 30
0.0
 40
0
 41
0
  0
VERTEX
  8
0
 10
2.25874
 20
2.14729
 30
0.0
 40
0
 41
0
  0
VERTEX
  8
0
 10
2.26525
 20
2.15375
 30
0.0
 40
0
 41
0
  0
SEQEND
 8
0
  0
POLYLINE
  8
0
 62
     173
 66
     1
 10
0
 20
0
 30
0.0
 70
     1
 40
0
 41
0
  0
VERTEX
  8
0
 10
2.26525
 20
1.70383
 30
0.0
 40
0
 41
0
  0
VERTEX
  8
0
 10
2.25874
 20
1.71035
 30
0.0
 40
0
 41
0
  0
VERTEX
  8
0
 10
2.25228
 20
1.70383
 30
0.0
 40
0
 41
0
  0
VERTEX
  8
0
 10
2.25874
 20
1.69732
 30
0.0
 40
0
 41
0
  0
VERTEX
  8
0
 10
2.26525
 20
1.70383
 30
0.0
 40
0
 41
0
  0
SEQEND
 8
0
  0
POLYLINE
  8
0
 62
     173
 66
     1
 10
0
 20
0
 30
0.0
 70
     1
 40
0
 41
0
  0
VERTEX
  8
0
 10
2.29025
 20
1.02875
 30
0.0
 40
0
 41
0
  0
VERTEX
  8
0
 10
2.28375
 20
1.03527
 30
0.0
 40
0
 41
0
  0
VERTEX
  8
0
 10
2.27724
 20
1.02875
 30
0.0
 40
0
 41
0
  0
VERTEX
  8
0
 10
2.28375
 20
1.0223
 30
0.0
 40
0
 41
0
  0
VERTEX
  8
0
 10
2.29025
 20
1.02875
 30
0.0
 40
0
 41
0
  0
SEQEND
 8
0
  0
POLYLINE
  8
0
 62
     173
 66
     1
 10
0
 20
0
 30
0.0
 70
     1
 40
0
 41
0
  0
VERTEX
  8
0
 10
2.30024
 20
1.70481
 30
0.0
 40
0
 41
0
  0
VERTEX
  8
0
 10
2.29372
 20
1.71132
 30
0.0
 40
0
 41
0
  0
VERTEX
  8
0
 10
2.28728
 20
1.70481
 30
0.0
 40
0
 41
0
  0
VERTEX
  8
0
 10
2.29372
 20
1.69829
 30
0.0
 40
0
 41
0
  0
VERTEX
  8
0
 10
2.30024
 20
1.70481
 30
0.0
 40
0
 41
0
  0
SEQEND
 8
0
  0
POLYLINE
  8
0
 62
     173
 66
     1
 10
0
 20
0
 30
0.0
 70
     1
 40
0
 41
0
  0
VERTEX
  8
0
 10
2.32026
 20
1.46886
 30
0.0
 40
0
 41
0
  0
VERTEX
  8
0
 10
2.31375
 20
1.47532
 30
0.0
 40
0
 41
0
  0
VERTEX
  8
0
 10
2.30724
 20
1.46886
 30
0.0
 40
0
 41
0
  0
VERTEX
  8
0
 10
2.31375
 20
1.46235
 30
0.0
 40
0
 41
0
  0
VERTEX
  8
0
 10
2.32026
 20
1.46886
 30
0.0
 40
0
 41
0
  0
SEQEND
 8
0
  0
POLYLINE
  8
0
 62
     173
 66
     1
 10
0
 20
0
 30
0.0
 70
     1
 40
0
 41
0
  0
VERTEX
  8
0
 10
2.34526
 20
2.17876
 30
0.0
 40
0
 41
0
  0
VERTEX
  8
0
 10
2.33876
 20
2.18528
 30
0.0
 40
0
 41
0
  0
VERTEX
  8
0
 10
2.33225
 20
2.17876
 30
0.0
 40
0
 41
0
  0
VERTEX
  8
0
 10
2.33876
 20
2.17231
 30
0.0
 40
0
 41
0
  0
VERTEX
  8
0
 10
2.34526
 20
2.17876
 30
0.0
 40
0
 41
0
  0
SEQEND
 8
0
  0
POLYLINE
  8
0
 62
     173
 66
     1
 10
0
 20
0
 30
0.0
 70
     1
 40
0
 41
0
  0
VERTEX
  8
0
 10
2.36524
 20
1.69879
 30
0.0
 40
0
 41
0
  0
VERTEX
  8
0
 10
2.35872
 20
1.70529
 30
0.0
 40
0
 41
0
  0
VERTEX
  8
0
 10
2.35226
 20
1.69879
 30
0.0
 40
0
 41
0
  0
VERTEX
  8
0
 10
2.35872
 20
1.69228
 30
0.0
 40
0
 41
0
  0
VERTEX
  8
0
 10
2.36524
 20
1.69879
 30
0.0
 40
0
 41
0
  0
SEQEND
 8
0
  0
POLYLINE
  8
0
 62
     173
 66
     1
 10
0
 20
0
 30
0.0
 70
     1
 40
0
 41
0
  0
VERTEX
  8
0
 10
2.38525
 20
1.42378
 30
0.0
 40
0
 41
0
  0
VERTEX
  8
0
 10
2.37875
 20
1.43028
 30
0.0
 40
0
 41
0
  0
VERTEX
  8
0
 10
2.37224
 20
1.42378
 30
0.0
 40
0
 41
0
  0
VERTEX
  8
0
 10
2.37875
 20
1.41726
 30
0.0
 40
0
 41
0
  0
VERTEX
  8
0
 10
2.38525
 20
1.42378
 30
0.0
 40
0
 41
0
  0
SEQEND
 8
0
  0
POLYLINE
  8
0
 62
     173
 66
     1
 10
0
 20
0
 30
0.0
 70
     1
 40
0
 41
0
  0
VERTEX
  8
0
 10
2.38525
 20
1.38379
 30
0.0
 40
0
 41
0
  0
VERTEX
  8
0
 10
2.37875
 20
1.39031
 30
0.0
 40
0
 41
0
  0
VERTEX
  8
0
 10
2.37224
 20
1.38379
 30
0.0
 40
0
 41
0
  0
VERTEX
  8
0
 10
2.37875
 20
1.37728
 30
0.0
 40
0
 41
0
  0
VERTEX
  8
0
 10
2.38525
 20
1.38379
 30
0.0
 40
0
 41
0
  0
SEQEND
 8
0
  0
POLYLINE
  8
0
 62
     173
 66
     1
 10
0
 20
0
 30
0.0
 70
     1
 40
0
 41
0
  0
VERTEX
  8
0
 10
2.39524
 20
2.17876
 30
0.0
 40
0
 41
0
  0
VERTEX
  8
0
 10
2.38872
 20
2.18528
 30
0.0
 40
0
 41
0
  0
VERTEX
  8
0
 10
2.38226
 20
2.17876
 30
0.0
 40
0
 41
0
  0
VERTEX
  8
0
 10
2.38872
 20
2.17231
 30
0.0
 40
0
 41
0
  0
VERTEX
  8
0
 10
2.39524
 20
2.17876
 30
0.0
 40
0
 41
0
  0
SEQEND
 8
0
  0
POLYLINE
  8
0
 62
     173
 66
     1
 10
0
 20
0
 30
0.0
 70
     1
 40
0
 41
0
  0
VERTEX
  8
0
 10
2.41026
 20
1.97385
 30
0.0
 40
0
 41
0
  0
VERTEX
  8
0
 10
2.40375
 20
1.98036
 30
0.0
 40
0
 41
0
  0
VERTEX
  8
0
 10
2.39725
 20
1.97385
 30
0.0
 40
0
 41
0
  0
VERTEX
  8
0
 10
2.40375
 20
1.96733
 30
0.0
 40
0
 41
0
  0
VERTEX
  8
0
 10
2.41026
 20
1.97385
 30
0.0
 40
0
 41
0
  0
SEQEND
 8
0
  0
POLYLINE
  8
0
 62
     173
 66
     1
 10
0
 20
0
 30
0.0
 70
     1
 40
0
 41
0
  0
VERTEX
  8
0
 10
2.47026
 20
1.97385
 30
0.0
 40
0
 41
0
  0
VERTEX
  8
0
 10
2.46376
 20
1.98036
 30
0.0
 40
0
 41
0
  0
VERTEX
  8
0
 10
2.45725
 20
1.97385
 30
0.0
 40
0
 41
0
  0
VERTEX
  8
0
 10
2.46376
 20
1.96733
 30
0.0
 40
0
 41
0
  0
VERTEX
  8
0
 10
2.47026
 20
1.97385
 30
0.0
 40
0
 41
0
  0
SEQEND
 8
0
  0
POLYLINE
  8
0
 62
     173
 66
     1
 10
0
 20
0
 30
0.0
 70
     1
 40
0
 41
0
  0
VERTEX
  8
0
 10
2.49522
 20
2.17876
 30
0.0
 40
0
 41
0
  0
VERTEX
  8
0
 10
2.48872
 20
2.18528
 30
0.0
 40
0
 41
0
  0
VERTEX
  8
0
 10
2.48226
 20
2.17876
 30
0.0
 40
0
 41
0
  0
VERTEX
  8
0
 10
2.48872
 20
2.17231
 30
0.0
 40
0
 41
0
  0
VERTEX
  8
0
 10
2.49522
 20
2.17876
 30
0.0
 40
0
 41
0
  0
SEQEND
 8
0
  0
POLYLINE
  8
0
 62
     173
 66
     1
 10
0
 20
0
 30
0.0
 70
     1
 40
0
 41
0
  0
VERTEX
  8
0
 10
2.52024
 20
1.97385
 30
0.0
 40
0
 41
0
  0
VERTEX
  8
0
 10
2.51372
 20
1.98036
 30
0.0
 40
0
 41
0
  0
VERTEX
  8
0
 10
2.50726
 20
1.97385
 30
0.0
 40
0
 41
0
  0
VERTEX
  8
0
 10
2.51372
 20
1.96733
 30
0.0
 40
0
 41
0
  0
VERTEX
  8
0
 10
2.52024
 20
1.97385
 30
0.0
 40
0
 41
0
  0
SEQEND
 8
0
  0
POLYLINE
  8
0
 62
     173
 66
     1
 10
0
 20
0
 30
0.0
 70
     1
 40
0
 41
0
  0
VERTEX
  8
0
 10
2.54525
 20
2.17876
 30
0.0
 40
0
 41
0
  0
VERTEX
  8
0
 10
2.53874
 20
2.18528
 30
0.0
 40
0
 41
0
  0
VERTEX
  8
0
 10
2.53222
 20
2.17876
 30
0.0
 40
0
 41
0
  0
VERTEX
  8
0
 10
2.53874
 20
2.17231
 30
0.0
 40
0
 41
0
  0
VERTEX
  8
0
 10
2.54525
 20
2.17876
 30
0.0
 40
0
 41
0
  0
SEQEND
 8
0
  0
POLYLINE
  8
0
 62
     173
 66
     1
 10
0
 20
0
 30
0.0
 70
     1
 40
0
 41
0
  0
VERTEX
  8
0
 10
2.56028
 20
1.0338
 30
0.0
 40
0
 41
0
  0
VERTEX
  8
0
 10
2.55376
 20
1.04031
 30
0.0
 40
0
 41
0
  0
VERTEX
  8
0
 10
2.54725
 20
1.0338
 30
0.0
 40
0
 41
0
  0
VERTEX
  8
0
 10
2.55376
 20
1.02729
 30
0.0
 40
0
 41
0
  0
VERTEX
  8
0
 10
2.56028
 20
1.0338
 30
0.0
 40
0
 41
0
  0
SEQEND
 8
0
  0
POLYLINE
  8
0
 62
     173
 66
     1
 10
0
 20
0
 30
0.0
 70
     1
 40
0
 41
0
  0
VERTEX
  8
0
 10
2.58024
 20
1.97385
 30
0.0
 40
0
 41
0
  0
VERTEX
  8
0
 10
2.57374
 20
1.98036
 30
0.0
 40
0
 41
0
  0
VERTEX
  8
0
 10
2.56728
 20
1.97385
 30
0.0
 40
0
 41
0
  0
VERTEX
  8
0
 10
2.57374
 20
1.96733
 30
0.0
 40
0
 41
0
  0
VERTEX
  8
0
 10
2.58024
 20
1.97385
 30
0.0
 40
0
 41
0
  0
SEQEND
 8
0
  0
POLYLINE
  8
0
 62
     173
 66
     1
 10
0
 20
0
 30
0.0
 70
     1
 40
0
 41
0
  0
VERTEX
  8
0
 10
2.59028
 20
1.59386
 30
0.0
 40
0
 41
0
  0
VERTEX
  8
0
 10
2.58376
 20
1.60032
 30
0.0
 40
0
 41
0
  0
VERTEX
  8
0
 10
2.57726
 20
1.59386
 30
0.0
 40
0
 41
0
  0
VERTEX
  8
0
 10
2.58376
 20
1.58735
 30
0.0
 40
0
 41
0
  0
VERTEX
  8
0
 10
2.59028
 20
1.59386
 30
0.0
 40
0
 41
0
  0
SEQEND
 8
0
  0
POLYLINE
  8
0
 62
     173
 66
     1
 10
0
 20
0
 30
0.0
 70
     1
 40
0
 41
0
  0
VERTEX
  8
0
 10
2.61025
 20
1.42378
 30
0.0
 40
0
 41
0
  0
VERTEX
  8
0
 10
2.60374
 20
1.43028
 30
0.0
 40
0
 41
0
  0
VERTEX
  8
0
 10
2.59728
 20
1.42378
 30
0.0
 40
0
 41
0
  0
VERTEX
  8
0
 10
2.60374
 20
1.41726
 30
0.0
 40
0
 41
0
  0
VERTEX
  8
0
 10
2.61025
 20
1.42378
 30
0.0
 40
0
 41
0
  0
SEQEND
 8
0
  0
POLYLINE
  8
0
 62
     173
 66
     1
 10
0
 20
0
 30
0.0
 70
     1
 40
0
 41
0
  0
VERTEX
  8
0
 10
2.61025
 20
1.37381
 30
0.0
 40
0
 41
0
  0
VERTEX
  8
0
 10
2.60374
 20
1.38032
 30
0.0
 40
0
 41
0
  0
VERTEX
  8
0
 10
2.59728
 20
1.37381
 30
0.0
 40
0
 41
0
  0
VERTEX
  8
0
 10
2.60374
 20
1.3673
 30
0.0
 40
0
 41
0
  0
VERTEX
  8
0
 10
2.61025
 20
1.37381
 30
0.0
 40
0
 41
0
  0
SEQEND
 8
0
  0
POLYLINE
  8
0
 62
     173
 66
     1
 10
0
 20
0
 30
0.0
 70
     1
 40
0
 41
0
  0
VERTEX
  8
0
 10
2.61025
 20
1.32378
 30
0.0
 40
0
 41
0
  0
VERTEX
  8
0
 10
2.60374
 20
1.3303
 30
0.0
 40
0
 41
0
  0
VERTEX
  8
0
 10
2.59728
 20
1.32378
 30
0.0
 40
0
 41
0
  0
VERTEX
  8
0
 10
2.60374
 20
1.31728
 30
0.0
 40
0
 41
0
  0
VERTEX
  8
0
 10
2.61025
 20
1.32378
 30
0.0
 40
0
 41
0
  0
SEQEND
 8
0
  0
POLYLINE
  8
0
 62
     173
 66
     1
 10
0
 20
0
 30
0.0
 70
     1
 40
0
 41
0
  0
VERTEX
  8
0
 10
2.61025
 20
1.22385
 30
0.0
 40
0
 41
0
  0
VERTEX
  8
0
 10
2.60374
 20
1.23036
 30
0.0
 40
0
 41
0
  0
VERTEX
  8
0
 10
2.59728
 20
1.22385
 30
0.0
 40
0
 41
0
  0
VERTEX
  8
0
 10
2.60374
 20
1.21734
 30
0.0
 40
0
 41
0
  0
VERTEX
  8
0
 10
2.61025
 20
1.22385
 30
0.0
 40
0
 41
0
  0
SEQEND
 8
0
  0
POLYLINE
  8
0
 62
     173
 66
     1
 10
0
 20
0
 30
0.0
 70
     1
 40
0
 41
0
  0
VERTEX
  8
0
 10
2.61025
 20
1.17377
 30
0.0
 40
0
 41
0
  0
VERTEX
  8
0
 10
2.60374
 20
1.18028
 30
0.0
 40
0
 41
0
  0
VERTEX
  8
0
 10
2.59728
 20
1.17377
 30
0.0
 40
0
 41
0
  0
VERTEX
  8
0
 10
2.60374
 20
1.16726
 30
0.0
 40
0
 41
0
  0
VERTEX
  8
0
 10
2.61025
 20
1.17377
 30
0.0
 40
0
 41
0
  0
SEQEND
 8
0
  0
POLYLINE
  8
0
 62
     173
 66
     1
 10
0
 20
0
 30
0.0
 70
     1
 40
0
 41
0
  0
VERTEX
  8
0
 10
2.61025
 20
1.12381
 30
0.0
 40
0
 41
0
  0
VERTEX
  8
0
 10
2.60374
 20
1.13032
 30
0.0
 40
0
 41
0
  0
VERTEX
  8
0
 10
2.59728
 20
1.12381
 30
0.0
 40
0
 41
0
  0
VERTEX
  8
0
 10
2.60374
 20
1.1173
 30
0.0
 40
0
 41
0
  0
VERTEX
  8
0
 10
2.61025
 20
1.12381
 30
0.0
 40
0
 41
0
  0
SEQEND
 8
0
  0
POLYLINE
  8
0
 62
     173
 66
     1
 10
0
 20
0
 30
0.0
 70
     1
 40
0
 41
0
  0
VERTEX
  8
0
 10
2.64524
 20
2.17876
 30
0.0
 40
0
 41
0
  0
VERTEX
  8
0
 10
2.63872
 20
2.18528
 30
0.0
 40
0
 41
0
  0
VERTEX
  8
0
 10
2.63226
 20
2.17876
 30
0.0
 40
0
 41
0
  0
VERTEX
  8
0
 10
2.63872
 20
2.17231
 30
0.0
 40
0
 41
0
  0
VERTEX
  8
0
 10
2.64524
 20
2.17876
 30
0.0
 40
0
 41
0
  0
SEQEND
 8
0
  0
POLYLINE
  8
0
 62
     173
 66
     1
 10
0
 20
0
 30
0.0
 70
     1
 40
0
 41
0
  0
VERTEX
  8
0
 10
2.66026
 20
1.64378
 30
0.0
 40
0
 41
0
  0
VERTEX
  8
0
 10
2.65375
 20
1.65028
 30
0.0
 40
0
 41
0
  0
VERTEX
  8
0
 10
2.64725
 20
1.64378
 30
0.0
 40
0
 41
0
  0
VERTEX
  8
0
 10
2.65375
 20
1.63726
 30
0.0
 40
0
 41
0
  0
VERTEX
  8
0
 10
2.66026
 20
1.64378
 30
0.0
 40
0
 41
0
  0
SEQEND
 8
0
  0
POLYLINE
  8
0
 62
     173
 66
     1
 10
0
 20
0
 30
0.0
 70
     1
 40
0
 41
0
  0
VERTEX
  8
0
 10
2.66525
 20
1.48882
 30
0.0
 40
0
 41
0
  0
VERTEX
  8
0
 10
2.65875
 20
1.49533
 30
0.0
 40
0
 41
0
  0
VERTEX
  8
0
 10
2.65224
 20
1.48882
 30
0.0
 40
0
 41
0
  0
VERTEX
  8
0
 10
2.65875
 20
1.48232
 30
0.0
 40
0
 41
0
  0
VERTEX
  8
0
 10
2.66525
 20
1.48882
 30
0.0
 40
0
 41
0
  0
SEQEND
 8
0
  0
POLYLINE
  8
0
 62
     173
 66
     1
 10
0
 20
0
 30
0.0
 70
     1
 40
0
 41
0
  0
VERTEX
  8
0
 10
2.69026
 20
1.32378
 30
0.0
 40
0
 41
0
  0
VERTEX
  8
0
 10
2.68375
 20
1.3303
 30
0.0
 40
0
 41
0
  0
VERTEX
  8
0
 10
2.67725
 20
1.32378
 30
0.0
 40
0
 41
0
  0
VERTEX
  8
0
 10
2.68375
 20
1.31728
 30
0.0
 40
0
 41
0
  0
VERTEX
  8
0
 10
2.69026
 20
1.32378
 30
0.0
 40
0
 41
0
  0
SEQEND
 8
0
  0
POLYLINE
  8
0
 62
     173
 66
     1
 10
0
 20
0
 30
0.0
 70
     1
 40
0
 41
0
  0
VERTEX
  8
0
 10
2.69026
 20
1.22385
 30
0.0
 40
0
 41
0
  0
VERTEX
  8
0
 10
2.68375
 20
1.23036
 30
0.0
 40
0
 41
0
  0
VERTEX
  8
0
 10
2.67725
 20
1.22385
 30
0.0
 40
0
 41
0
  0
VERTEX
  8
0
 10
2.68375
 20
1.21734
 30
0.0
 40
0
 41
0
  0
VERTEX
  8
0
 10
2.69026
 20
1.22385
 30
0.0
 40
0
 41
0
  0
SEQEND
 8
0
  0
POLYLINE
  8
0
 62
     173
 66
     1
 10
0
 20
0
 30
0.0
 70
     1
 40
0
 41
0
  0
VERTEX
  8
0
 10
2.69526
 20
2.17876
 30
0.0
 40
0
 41
0
  0
VERTEX
  8
0
 10
2.68875
 20
2.18528
 30
0.0
 40
0
 41
0
  0
VERTEX
  8
0
 10
2.68224
 20
2.17876
 30
0.0
 40
0
 41
0
  0
VERTEX
  8
0
 10
2.68875
 20
2.17231
 30
0.0
 40
0
 41
0
  0
VERTEX
  8
0
 10
2.69526
 20
2.17876
 30
0.0
 40
0
 41
0
  0
SEQEND
 8
0
  0
POLYLINE
  8
0
 62
     173
 66
     1
 10
0
 20
0
 30
0.0
 70
     1
 40
0
 41
0
  0
VERTEX
  8
0
 10
2.69526
 20
1.68881
 30
0.0
 40
0
 41
0
  0
VERTEX
  8
0
 10
2.68875
 20
1.69532
 30
0.0
 40
0
 41
0
  0
VERTEX
  8
0
 10
2.68224
 20
1.68881
 30
0.0
 40
0
 41
0
  0
VERTEX
  8
0
 10
2.68875
 20
1.68229
 30
0.0
 40
0
 41
0
  0
VERTEX
  8
0
 10
2.69526
 20
1.68881
 30
0.0
 40
0
 41
0
  0
SEQEND
 8
0
  0
POLYLINE
  8
0
 62
     173
 66
     1
 10
0
 20
0
 30
0.0
 70
     1
 40
0
 41
0
  0
VERTEX
  8
0
 10
2.72526
 20
2.15375
 30
0.0
 40
0
 41
0
  0
VERTEX
  8
0
 10
2.71875
 20
2.16026
 30
0.0
 40
0
 41
0
  0
VERTEX
  8
0
 10
2.71224
 20
2.15375
 30
0.0
 40
0
 41
0
  0
VERTEX
  8
0
 10
2.71875
 20
2.14729
 30
0.0
 40
0
 41
0
  0
VERTEX
  8
0
 10
2.72526
 20
2.15375
 30
0.0
 40
0
 41
0
  0
SEQEND
 8
0
  0
POLYLINE
  8
0
 62
     173
 66
     1
 10
0
 20
0
 30
0.0
 70
     1
 40
0
 41
0
  0
VERTEX
  8
0
 10
1.18376
 20
0.963813
 30
0.0
 40
0
 41
0
  0
VERTEX
  8
0
 10
1.17904
 20
0.975097
 30
0.0
 40
0
 41
0
  0
VERTEX
  8
0
 10
1.16873
 20
0.978842
 30
0.0
 40
0
 41
0
  0
VERTEX
  8
0
 10
1.15842
 20
0.975097
 30
0.0
 40
0
 41
0
  0
VERTEX
  8
0
 10
1.15375
 20
0.963813
 30
0.0
 40
0
 41
0
  0
VERTEX
  8
0
 10
1.15842
 20
0.952582
 30
0.0
 40
0
 41
0
  0
VERTEX
  8
0
 10
1.16873
 20
0.948839
 30
0.0
 40
0
 41
0
  0
VERTEX
  8
0
 10
1.17904
 20
0.952582
 30
0.0
 40
0
 41
0
  0
VERTEX
  8
0
 10
1.18376
 20
0.963813
 30
0.0
 40
0
 41
0
  0
SEQEND
 8
0
  0
POLYLINE
  8
0
 62
     173
 66
     1
 10
0
 20
0
 30
0.0
 70
     1
 40
0
 41
0
  0
VERTEX
  8
0
 10
1.38373
 20
0.963813
 30
0.0
 40
0
 41
0
  0
VERTEX
  8
0
 10
1.37902
 20
0.975097
 30
0.0
 40
0
 41
0
  0
VERTEX
  8
0
 10
1.36871
 20
0.978842
 30
0.0
 40
0
 41
0
  0
VERTEX
  8
0
 10
1.3584
 20
0.975097
 30
0.0
 40
0
 41
0
  0
VERTEX
  8
0
 10
1.35373
 20
0.963813
 30
0.0
 40
0
 41
0
  0
VERTEX
  8
0
 10
1.3584
 20
0.952582
 30
0.0
 40
0
 41
0
  0
VERTEX
  8
0
 10
1.36871
 20
0.948839
 30
0.0
 40
0
 41
0
  0
VERTEX
  8
0
 10
1.37902
 20
0.952582
 30
0.0
 40
0
 41
0
  0
VERTEX
  8
0
 10
1.38373
 20
0.963813
 30
0.0
 40
0
 41
0
  0
SEQEND
 8
0
  0
POLYLINE
  8
0
 62
     173
 66
     1
 10
0
 20
0
 30
0.0
 70
     1
 40
0
 41
0
  0
VERTEX
  8
0
 10
1.89675
 20
1.50379
 30
0.0
 40
0
 41
0
  0
VERTEX
  8
0
 10
1.89204
 20
1.51503
 30
0.0
 40
0
 41
0
  0
VERTEX
  8
0
 10
1.88172
 20
1.51878
 30
0.0
 40
0
 41
0
  0
VERTEX
  8
0
 10
1.87142
 20
1.51503
 30
0.0
 40
0
 41
0
  0
VERTEX
  8
0
 10
1.86675
 20
1.50379
 30
0.0
 40
0
 41
0
  0
VERTEX
  8
0
 10
1.87142
 20
1.49257
 30
0.0
 40
0
 41
0
  0
VERTEX
  8
0
 10
1.88172
 20
1.48882
 30
0.0
 40
0
 41
0
  0
VERTEX
  8
0
 10
1.89204
 20
1.49257
 30
0.0
 40
0
 41
0
  0
VERTEX
  8
0
 10
1.89675
 20
1.50379
 30
0.0
 40
0
 41
0
  0
SEQEND
 8
0
  0
POLYLINE
  8
0
 62
     173
 66
     1
 10
0
 20
0
 30
0.0
 70
     1
 40
0
 41
0
  0
VERTEX
  8
0
 10
1.89675
 20
0.637858
 30
0.0
 40
0
 41
0
  0
VERTEX
  8
0
 10
1.89204
 20
0.649089
 30
0.0
 40
0
 41
0
  0
VERTEX
  8
0
 10
1.88172
 20
0.652832
 30
0.0
 40
0
 41
0
  0
VERTEX
  8
0
 10
1.87142
 20
0.649089
 30
0.0
 40
0
 41
0
  0
VERTEX
  8
0
 10
1.86675
 20
0.637858
 30
0.0
 40
0
 41
0
  0
VERTEX
  8
0
 10
1.87142
 20
0.626574
 30
0.0
 40
0
 41
0
  0
VERTEX
  8
0
 10
1.88172
 20
0.622831
 30
0.0
 40
0
 41
0
  0
VERTEX
  8
0
 10
1.89204
 20
0.626574
 30
0.0
 40
0
 41
0
  0
VERTEX
  8
0
 10
1.89675
 20
0.637858
 30
0.0
 40
0
 41
0
  0
SEQEND
 8
0
  0
POLYLINE
  8
0
 62
     173
 66
     1
 10
0
 20
0
 30
0.0
 70
     1
 40
0
 41
0
  0
VERTEX
  8
0
 10
1.92393
 20
0.0150282
 30
0.0
 40
0
 41
0
  0
VERTEX
  8
0
 10
1.91922
 20
0.0263129
 30
0.0
 40
0
 41
0
  0
VERTEX
  8
0
 10
1.9089
 20
0.0300564
 30
0.0
 40
0
 41
0
  0
VERTEX
  8
0
 10
1.8986
 20
0.0263129
 30
0.0
 40
0
 41
0
  0
VERTEX
  8
0
 10
1.89393
 20
0.0150282
 30
0.0
 40
0
 41
0
  0
VERTEX
  8
0
 10
1.8986
 20
0.00374349
 30
0.0
 40
0
 41
0
  0
VERTEX
  8
0
 10
1.9089
 20
-0
 30
0.0
 40
0
 41
0
  0
VERTEX
  8
0
 10
1.91922
 20
0.00374349
 30
0.0
 40
0
 41
0
  0
VERTEX
  8
0
 10
1.92393
 20
0.0150282
 30
0.0
 40
0
 41
0
  0
SEQEND
 8
0
  0
POLYLINE
  8
0
 62
     173
 66
     1
 10
0
 20
0
 30
0.0
 70
     1
 40
0
 41
0
  0
VERTEX
  8
0
 10
1.97575
 20
1.50379
 30
0.0
 40
0
 41
0
  0
VERTEX
  8
0
 10
1.97103
 20
1.51503
 30
0.0
 40
0
 41
0
  0
VERTEX
  8
0
 10
1.96072
 20
1.51878
 30
0.0
 40
0
 41
0
  0
VERTEX
  8
0
 10
1.95042
 20
1.51503
 30
0.0
 40
0
 41
0
  0
VERTEX
  8
0
 10
1.94575
 20
1.50379
 30
0.0
 40
0
 41
0
  0
VERTEX
  8
0
 10
1.95042
 20
1.49257
 30
0.0
 40
0
 41
0
  0
VERTEX
  8
0
 10
1.96072
 20
1.48882
 30
0.0
 40
0
 41
0
  0
VERTEX
  8
0
 10
1.97103
 20
1.49257
 30
0.0
 40
0
 41
0
  0
VERTEX
  8
0
 10
1.97575
 20
1.50379
 30
0.0
 40
0
 41
0
  0
SEQEND
 8
0
  0
POLYLINE
  8
0
 62
     173
 66
     1
 10
0
 20
0
 30
0.0
 70
     1
 40
0
 41
0
  0
VERTEX
  8
0
 10
1.97575
 20
0.637858
 30
0.0
 40
0
 41
0
  0
VERTEX
  8
0
 10
1.97103
 20
0.649089
 30
0.0
 40
0
 41
0
  0
VERTEX
  8
0
 10
1.96072
 20
0.652832
 30
0.0
 40
0
 41
0
  0
VERTEX
  8
0
 10
1.95042
 20
0.649089
 30
0.0
 40
0
 41
0
  0
VERTEX
  8
0
 10
1.94575
 20
0.637858
 30
0.0
 40
0
 41
0
  0
VERTEX
  8
0
 10
1.95042
 20
0.626574
 30
0.0
 40
0
 41
0
  0
VERTEX
  8
0
 10
1.96072
 20
0.622831
 30
0.0
 40
0
 41
0
  0
VERTEX
  8
0
 10
1.97103
 20
0.626574
 30
0.0
 40
0
 41
0
  0
VERTEX
  8
0
 10
1.97575
 20
0.637858
 30
0.0
 40
0
 41
0
  0
SEQEND
 8
0
  0
POLYLINE
  8
0
 62
     173
 66
     1
 10
0
 20
0
 30
0.0
 70
     1
 40
0
 41
0
  0
VERTEX
  8
0
 10
2.05474
 20
1.50379
 30
0.0
 40
0
 41
0
  0
VERTEX
  8
0
 10
2.05003
 20
1.51503
 30
0.0
 40
0
 41
0
  0
VERTEX
  8
0
 10
2.03971
 20
1.51878
 30
0.0
 40
0
 41
0
  0
VERTEX
  8
0
 10
2.0294
 20
1.51503
 30
0.0
 40
0
 41
0
  0
VERTEX
  8
0
 10
2.02474
 20
1.50379
 30
0.0
 40
0
 41
0
  0
VERTEX
  8
0
 10
2.0294
 20
1.49257
 30
0.0
 40
0
 41
0
  0
VERTEX
  8
0
 10
2.03971
 20
1.48882
 30
0.0
 40
0
 41
0
  0
VERTEX
  8
0
 10
2.05003
 20
1.49257
 30
0.0
 40
0
 41
0
  0
VERTEX
  8
0
 10
2.05474
 20
1.50379
 30
0.0
 40
0
 41
0
  0
SEQEND
 8
0
  0
POLYLINE
  8
0
 62
     173
 66
     1
 10
0
 20
0
 30
0.0
 70
     1
 40
0
 41
0
  0
VERTEX
  8
0
 10
2.05474
 20
0.637858
 30
0.0
 40
0
 41
0
  0
VERTEX
  8
0
 10
2.05003
 20
0.649089
 30
0.0
 40
0
 41
0
  0
VERTEX
  8
0
 10
2.03971
 20
0.652832
 30
0.0
 40
0
 41
0
  0
VERTEX
  8
0
 10
2.0294
 20
0.649089
 30
0.0
 40
0
 41
0
  0
VERTEX
  8
0
 10
2.02474
 20
0.637858
 30
0.0
 40
0
 41
0
  0
VERTEX
  8
0
 10
2.0294
 20
0.626574
 30
0.0
 40
0
 41
0
  0
VERTEX
  8
0
 10
2.03971
 20
0.622831
 30
0.0
 40
0
 41
0
  0
VERTEX
  8
0
 10
2.05003
 20
0.626574
 30
0.0
 40
0
 41
0
  0
VERTEX
  8
0
 10
2.05474
 20
0.637858
 30
0.0
 40
0
 41
0
  0
SEQEND
 8
0
  0
POLYLINE
  8
0
 62
     173
 66
     1
 10
0
 20
0
 30
0.0
 70
     1
 40
0
 41
0
  0
VERTEX
  8
0
 10
2.12397
 20
0.0150282
 30
0.0
 40
0
 41
0
  0
VERTEX
  8
0
 10
2.11925
 20
0.0263129
 30
0.0
 40
0
 41
0
  0
VERTEX
  8
0
 10
2.10894
 20
0.0300564
 30
0.0
 40
0
 41
0
  0
VERTEX
  8
0
 10
2.09864
 20
0.0263129
 30
0.0
 40
0
 41
0
  0
VERTEX
  8
0
 10
2.09397
 20
0.0150282
 30
0.0
 40
0
 41
0
  0
VERTEX
  8
0
 10
2.09864
 20
0.00374349
 30
0.0
 40
0
 41
0
  0
VERTEX
  8
0
 10
2.10894
 20
-0
 30
0.0
 40
0
 41
0
  0
VERTEX
  8
0
 10
2.11925
 20
0.00374349
 30
0.0
 40
0
 41
0
  0
VERTEX
  8
0
 10
2.12397
 20
0.0150282
 30
0.0
 40
0
 41
0
  0
SEQEND
 8
0
  0
POLYLINE
  8
0
 62
     173
 66
     1
 10
0
 20
0
 30
0.0
 70
     1
 40
0
 41
0
  0
VERTEX
  8
0
 10
2.13374
 20
1.50379
 30
0.0
 40
0
 41
0
  0
VERTEX
  8
0
 10
2.12901
 20
1.51503
 30
0.0
 40
0
 41
0
  0
VERTEX
  8
0
 10
2.11871
 20
1.51878
 30
0.0
 40
0
 41
0
  0
VERTEX
  8
0
 10
2.1084
 20
1.51503
 30
0.0
 40
0
 41
0
  0
VERTEX
  8
0
 10
2.10374
 20
1.50379
 30
0.0
 40
0
 41
0
  0
VERTEX
  8
0
 10
2.1084
 20
1.49257
 30
0.0
 40
0
 41
0
  0
VERTEX
  8
0
 10
2.11871
 20
1.48882
 30
0.0
 40
0
 41
0
  0
VERTEX
  8
0
 10
2.12901
 20
1.49257
 30
0.0
 40
0
 41
0
  0
VERTEX
  8
0
 10
2.13374
 20
1.50379
 30
0.0
 40
0
 41
0
  0
SEQEND
 8
0
  0
POLYLINE
  8
0
 62
     173
 66
     1
 10
0
 20
0
 30
0.0
 70
     1
 40
0
 41
0
  0
VERTEX
  8
0
 10
2.13374
 20
0.637858
 30
0.0
 40
0
 41
0
  0
VERTEX
  8
0
 10
2.12901
 20
0.649089
 30
0.0
 40
0
 41
0
  0
VERTEX
  8
0
 10
2.11871
 20
0.652832
 30
0.0
 40
0
 41
0
  0
VERTEX
  8
0
 10
2.1084
 20
0.649089
 30
0.0
 40
0
 41
0
  0
VERTEX
  8
0
 10
2.10374
 20
0.637858
 30
0.0
 40
0
 41
0
  0
VERTEX
  8
0
 10
2.1084
 20
0.626574
 30
0.0
 40
0
 41
0
  0
VERTEX
  8
0
 10
2.11871
 20
0.622831
 30
0.0
 40
0
 41
0
  0
VERTEX
  8
0
 10
2.12901
 20
0.626574
 30
0.0
 40
0
 41
0
  0
VERTEX
  8
0
 10
2.13374
 20
0.637858
 30
0.0
 40
0
 41
0
  0
SEQEND
 8
0
  0
POLYLINE
  8
0
 62
     173
 66
     1
 10
0
 20
0
 30
0.0
 70
     1
 40
0
 41
0
  0
VERTEX
  8
0
 10
2.21272
 20
1.50379
 30
0.0
 40
0
 41
0
  0
VERTEX
  8
0
 10
2.20801
 20
1.51503
 30
0.0
 40
0
 41
0
  0
VERTEX
  8
0
 10
2.19769
 20
1.51878
 30
0.0
 40
0
 41
0
  0
VERTEX
  8
0
 10
2.18739
 20
1.51503
 30
0.0
 40
0
 41
0
  0
VERTEX
  8
0
 10
2.18272
 20
1.50379
 30
0.0
 40
0
 41
0
  0
VERTEX
  8
0
 10
2.18739
 20
1.49257
 30
0.0
 40
0
 41
0
  0
VERTEX
  8
0
 10
2.19769
 20
1.48882
 30
0.0
 40
0
 41
0
  0
VERTEX
  8
0
 10
2.20801
 20
1.49257
 30
0.0
 40
0
 41
0
  0
VERTEX
  8
0
 10
2.21272
 20
1.50379
 30
0.0
 40
0
 41
0
  0
SEQEND
 8
0
  0
POLYLINE
  8
0
 62
     173
 66
     1
 10
0
 20
0
 30
0.0
 70
     1
 40
0
 41
0
  0
VERTEX
  8
0
 10
2.21272
 20
0.637858
 30
0.0
 40
0
 41
0
  0
VERTEX
  8
0
 10
2.20801
 20
0.649089
 30
0.0
 40
0
 41
0
  0
VERTEX
  8
0
 10
2.19769
 20
0.652832
 30
0.0
 40
0
 41
0
  0
VERTEX
  8
0
 10
2.18739
 20
0.649089
 30
0.0
 40
0
 41
0
  0
VERTEX
  8
0
 10
2.18272
 20
0.637858
 30
0.0
 40
0
 41
0
  0
VERTEX
  8
0
 10
2.18739
 20
0.626574
 30
0.0
 40
0
 41
0
  0
VERTEX
  8
0
 10
2.19769
 20
0.622831
 30
0.0
 40
0
 41
0
  0
VERTEX
  8
0
 10
2.20801
 20
0.626574
 30
0.0
 40
0
 41
0
  0
VERTEX
  8
0
 10
2.21272
 20
0.637858
 30
0.0
 40
0
 41
0
  0
SEQEND
 8
0
  0
POLYLINE
  8
0
 62
     173
 66
     1
 10
0
 20
0
 30
0.0
 70
     1
 40
0
 41
0
  0
VERTEX
  8
0
 10
2.29178
 20
1.50379
 30
0.0
 40
0
 41
0
  0
VERTEX
  8
0
 10
2.28706
 20
1.51503
 30
0.0
 40
0
 41
0
  0
VERTEX
  8
0
 10
2.27675
 20
1.51878
 30
0.0
 40
0
 41
0
  0
VERTEX
  8
0
 10
2.26644
 20
1.51503
 30
0.0
 40
0
 41
0
  0
VERTEX
  8
0
 10
2.26178
 20
1.50379
 30
0.0
 40
0
 41
0
  0
VERTEX
  8
0
 10
2.26644
 20
1.49257
 30
0.0
 40
0
 41
0
  0
VERTEX
  8
0
 10
2.27675
 20
1.48882
 30
0.0
 40
0
 41
0
  0
VERTEX
  8
0
 10
2.28706
 20
1.49257
 30
0.0
 40
0
 41
0
  0
VERTEX
  8
0
 10
2.29178
 20
1.50379
 30
0.0
 40
0
 41
0
  0
SEQEND
 8
0
  0
POLYLINE
  8
0
 62
     173
 66
     1
 10
0
 20
0
 30
0.0
 70
     1
 40
0
 41
0
  0
VERTEX
  8
0
 10
2.29178
 20
0.637858
 30
0.0
 40
0
 41
0
  0
VERTEX
  8
0
 10
2.28706
 20
0.649089
 30
0.0
 40
0
 41
0
  0
VERTEX
  8
0
 10
2.27675
 20
0.652832
 30
0.0
 40
0
 41
0
  0
VERTEX
  8
0
 10
2.26644
 20
0.649089
 30
0.0
 40
0
 41
0
  0
VERTEX
  8
0
 10
2.26178
 20
0.637858
 30
0.0
 40
0
 41
0
  0
VERTEX
  8
0
 10
2.26644
 20
0.626574
 30
0.0
 40
0
 41
0
  0
VERTEX
  8
0
 10
2.27675
 20
0.622831
 30
0.0
 40
0
 41
0
  0
VERTEX
  8
0
 10
2.28706
 20
0.626574
 30
0.0
 40
0
 41
0
  0
VERTEX
  8
0
 10
2.29178
 20
0.637858
 30
0.0
 40
0
 41
0
  0
SEQEND
 8
0
  0
POLYLINE
  8
0
 62
     173
 66
     1
 10
0
 20
0
 30
0.0
 70
     1
 40
0
 41
0
  0
VERTEX
  8
0
 10
2.37076
 20
1.50379
 30
0.0
 40
0
 41
0
  0
VERTEX
  8
0
 10
2.36604
 20
1.51503
 30
0.0
 40
0
 41
0
  0
VERTEX
  8
0
 10
2.35574
 20
1.51878
 30
0.0
 40
0
 41
0
  0
VERTEX
  8
0
 10
2.34543
 20
1.51503
 30
0.0
 40
0
 41
0
  0
VERTEX
  8
0
 10
2.34076
 20
1.50379
 30
0.0
 40
0
 41
0
  0
VERTEX
  8
0
 10
2.34543
 20
1.49257
 30
0.0
 40
0
 41
0
  0
VERTEX
  8
0
 10
2.35574
 20
1.48882
 30
0.0
 40
0
 41
0
  0
VERTEX
  8
0
 10
2.36604
 20
1.49257
 30
0.0
 40
0
 41
0
  0
VERTEX
  8
0
 10
2.37076
 20
1.50379
 30
0.0
 40
0
 41
0
  0
SEQEND
 8
0
  0
POLYLINE
  8
0
 62
     173
 66
     1
 10
0
 20
0
 30
0.0
 70
     1
 40
0
 41
0
  0
VERTEX
  8
0
 10
2.37076
 20
0.637858
 30
0.0
 40
0
 41
0
  0
VERTEX
  8
0
 10
2.36604
 20
0.649089
 30
0.0
 40
0
 41
0
  0
VERTEX
  8
0
 10
2.35574
 20
0.652832
 30
0.0
 40
0
 41
0
  0
VERTEX
  8
0
 10
2.34543
 20
0.649089
 30
0.0
 40
0
 41
0
  0
VERTEX
  8
0
 10
2.34076
 20
0.637858
 30
0.0
 40
0
 41
0
  0
VERTEX
  8
0
 10
2.34543
 20
0.626574
 30
0.0
 40
0
 41
0
  0
VERTEX
  8
0
 10
2.35574
 20
0.622831
 30
0.0
 40
0
 41
0
  0
VERTEX
  8
0
 10
2.36604
 20
0.626574
 30
0.0
 40
0
 41
0
  0
VERTEX
  8
0
 10
2.37076
 20
0.637858
 30
0.0
 40
0
 41
0
  0
SEQEND
 8
0
  0
POLYLINE
  8
0
 62
     173
 66
     1
 10
0
 20
0
 30
0.0
 70
     1
 40
0
 41
0
  0
VERTEX
  8
0
 10
2.44976
 20
1.50379
 30
0.0
 40
0
 41
0
  0
VERTEX
  8
0
 10
2.44504
 20
1.51503
 30
0.0
 40
0
 41
0
  0
VERTEX
  8
0
 10
2.43474
 20
1.51878
 30
0.0
 40
0
 41
0
  0
VERTEX
  8
0
 10
2.42443
 20
1.51503
 30
0.0
 40
0
 41
0
  0
VERTEX
  8
0
 10
2.41976
 20
1.50379
 30
0.0
 40
0
 41
0
  0
VERTEX
  8
0
 10
2.42443
 20
1.49257
 30
0.0
 40
0
 41
0
  0
VERTEX
  8
0
 10
2.43474
 20
1.48882
 30
0.0
 40
0
 41
0
  0
VERTEX
  8
0
 10
2.44504
 20
1.49257
 30
0.0
 40
0
 41
0
  0
VERTEX
  8
0
 10
2.44976
 20
1.50379
 30
0.0
 40
0
 41
0
  0
SEQEND
 8
0
  0
POLYLINE
  8
0
 62
     173
 66
     1
 10
0
 20
0
 30
0.0
 70
     1
 40
0
 41
0
  0
VERTEX
  8
0
 10
2.44976
 20
0.637858
 30
0.0
 40
0
 41
0
  0
VERTEX
  8
0
 10
2.44504
 20
0.649089
 30
0.0
 40
0
 41
0
  0
VERTEX
  8
0
 10
2.43474
 20
0.652832
 30
0.0
 40
0
 41
0
  0
VERTEX
  8
0
 10
2.42443
 20
0.649089
 30
0.0
 40
0
 41
0
  0
VERTEX
  8
0
 10
2.41976
 20
0.637858
 30
0.0
 40
0
 41
0
  0
VERTEX
  8
0
 10
2.42443
 20
0.626574
 30
0.0
 40
0
 41
0
  0
VERTEX
  8
0
 10
2.43474
 20
0.622831
 30
0.0
 40
0
 41
0
  0
VERTEX
  8
0
 10
2.44504
 20
0.626574
 30
0.0
 40
0
 41
0
  0
VERTEX
  8
0
 10
2.44976
 20
0.637858
 30
0.0
 40
0
 41
0
  0
SEQEND
 8
0
  0
POLYLINE
  8
0
 62
     173
 66
     1
 10
0
 20
0
 30
0.0
 70
     1
 40
0
 41
0
  0
VERTEX
  8
0
 10
2.52875
 20
1.50379
 30
0.0
 40
0
 41
0
  0
VERTEX
  8
0
 10
2.52403
 20
1.51503
 30
0.0
 40
0
 41
0
  0
VERTEX
  8
0
 10
2.51372
 20
1.51878
 30
0.0
 40
0
 41
0
  0
VERTEX
  8
0
 10
2.50342
 20
1.51503
 30
0.0
 40
0
 41
0
  0
VERTEX
  8
0
 10
2.49875
 20
1.50379
 30
0.0
 40
0
 41
0
  0
VERTEX
  8
0
 10
2.50342
 20
1.49257
 30
0.0
 40
0
 41
0
  0
VERTEX
  8
0
 10
2.51372
 20
1.48882
 30
0.0
 40
0
 41
0
  0
VERTEX
  8
0
 10
2.52403
 20
1.49257
 30
0.0
 40
0
 41
0
  0
VERTEX
  8
0
 10
2.52875
 20
1.50379
 30
0.0
 40
0
 41
0
  0
SEQEND
 8
0
  0
POLYLINE
  8
0
 62
     173
 66
     1
 10
0
 20
0
 30
0.0
 70
     1
 40
0
 41
0
  0
VERTEX
  8
0
 10
2.52875
 20
0.637858
 30
0.0
 40
0
 41
0
  0
VERTEX
  8
0
 10
2.52403
 20
0.649089
 30
0.0
 40
0
 41
0
  0
VERTEX
  8
0
 10
2.51372
 20
0.652832
 30
0.0
 40
0
 41
0
  0
VERTEX
  8
0
 10
2.50342
 20
0.649089
 30
0.0
 40
0
 41
0
  0
VERTEX
  8
0
 10
2.49875
 20
0.637858
 30
0.0
 40
0
 41
0
  0
VERTEX
  8
0
 10
2.50342
 20
0.626574
 30
0.0
 40
0
 41
0
  0
VERTEX
  8
0
 10
2.51372
 20
0.622831
 30
0.0
 40
0
 41
0
  0
VERTEX
  8
0
 10
2.52403
 20
0.626574
 30
0.0
 40
0
 41
0
  0
VERTEX
  8
0
 10
2.52875
 20
0.637858
 30
0.0
 40
0
 41
0
  0
SEQEND
 8
0
  0
POLYLINE
  8
0
 62
     173
 66
     1
 10
0
 20
0
 30
0.0
 70
     1
 40
0
 41
0
  0
VERTEX
  8
0
 10
2.60775
 20
1.50379
 30
0.0
 40
0
 41
0
  0
VERTEX
  8
0
 10
2.60303
 20
1.51503
 30
0.0
 40
0
 41
0
  0
VERTEX
  8
0
 10
2.59272
 20
1.51878
 30
0.0
 40
0
 41
0
  0
VERTEX
  8
0
 10
2.58242
 20
1.51503
 30
0.0
 40
0
 41
0
  0
VERTEX
  8
0
 10
2.57775
 20
1.50379
 30
0.0
 40
0
 41
0
  0
VERTEX
  8
0
 10
2.58242
 20
1.49257
 30
0.0
 40
0
 41
0
  0
VERTEX
  8
0
 10
2.59272
 20
1.48882
 30
0.0
 40
0
 41
0
  0
VERTEX
  8
0
 10
2.60303
 20
1.49257
 30
0.0
 40
0
 41
0
  0
VERTEX
  8
0
 10
2.60775
 20
1.50379
 30
0.0
 40
0
 41
0
  0
SEQEND
 8
0
  0
POLYLINE
  8
0
 62
     173
 66
     1
 10
0
 20
0
 30
0.0
 70
     1
 40
0
 41
0
  0
VERTEX
  8
0
 10
2.60775
 20
0.637858
 30
0.0
 40
0
 41
0
  0
VERTEX
  8
0
 10
2.60303
 20
0.649089
 30
0.0
 40
0
 41
0
  0
VERTEX
  8
0
 10
2.59272
 20
0.652832
 30
0.0
 40
0
 41
0
  0
VERTEX
  8
0
 10
2.58242
 20
0.649089
 30
0.0
 40
0
 41
0
  0
VERTEX
  8
0
 10
2.57775
 20
0.637858
 30
0.0
 40
0
 41
0
  0
VERTEX
  8
0
 10
2.58242
 20
0.626574
 30
0.0
 40
0
 41
0
  0
VERTEX
  8
0
 10
2.59272
 20
0.622831
 30
0.0
 40
0
 41
0
  0
VERTEX
  8
0
 10
2.60303
 20
0.626574
 30
0.0
 40
0
 41
0
  0
VERTEX
  8
0
 10
2.60775
 20
0.637858
 30
0.0
 40
0
 41
0
  0
SEQEND
 8
0
  0
POLYLINE
  8
0
 62
     173
 66
     1
 10
0
 20
0
 30
0.0
 70
     1
 40
0
 41
0
  0
VERTEX
  8
0
 10
0.881239
 20
2.22885
 30
0.0
 40
0
 41
0
  0
VERTEX
  8
0
 10
0.87576
 20
2.24197
 30
0.0
 40
0
 41
0
  0
VERTEX
  8
0
 10
0.863715
 20
2.24631
 30
0.0
 40
0
 41
0
  0
VERTEX
  8
0
 10
0.851671
 20
2.24197
 30
0.0
 40
0
 41
0
  0
VERTEX
  8
0
 10
0.846246
 20
2.22885
 30
0.0
 40
0
 41
0
  0
VERTEX
  8
0
 10
0.851671
 20
2.21571
 30
0.0
 40
0
 41
0
  0
VERTEX
  8
0
 10
0.863715
 20
2.21132
 30
0.0
 40
0
 41
0
  0
VERTEX
  8
0
 10
0.87576
 20
2.21571
 30
0.0
 40
0
 41
0
  0
VERTEX
  8
0
 10
0.881239
 20
2.22885
 30
0.0
 40
0
 41
0
  0
SEQEND
 8
0
  0
POLYLINE
  8
0
 62
     173
 66
     1
 10
0
 20
0
 30
0.0
 70
     1
 40
0
 41
0
  0
VERTEX
  8
0
 10
0.931261
 20
2.32883
 30
0.0
 40
0
 41
0
  0
VERTEX
  8
0
 10
0.925782
 20
2.34196
 30
0.0
 40
0
 41
0
  0
VERTEX
  8
0
 10
0.913738
 20
2.34631
 30
0.0
 40
0
 41
0
  0
VERTEX
  8
0
 10
0.901693
 20
2.34196
 30
0.0
 40
0
 41
0
  0
VERTEX
  8
0
 10
0.896268
 20
2.32883
 30
0.0
 40
0
 41
0
  0
VERTEX
  8
0
 10
0.901693
 20
2.31569
 30
0.0
 40
0
 41
0
  0
VERTEX
  8
0
 10
0.913738
 20
2.31131
 30
0.0
 40
0
 41
0
  0
VERTEX
  8
0
 10
0.925782
 20
2.31569
 30
0.0
 40
0
 41
0
  0
VERTEX
  8
0
 10
0.931261
 20
2.32883
 30
0.0
 40
0
 41
0
  0
SEQEND
 8
0
  0
POLYLINE
  8
0
 62
     173
 66
     1
 10
0
 20
0
 30
0.0
 70
     1
 40
0
 41
0
  0
VERTEX
  8
0
 10
0.981228
 20
2.22885
 30
0.0
 40
0
 41
0
  0
VERTEX
  8
0
 10
0.975749
 20
2.24197
 30
0.0
 40
0
 41
0
  0
VERTEX
  8
0
 10
0.963704
 20
2.24631
 30
0.0
 40
0
 41
0
  0
VERTEX
  8
0
 10
0.95166
 20
2.24197
 30
0.0
 40
0
 41
0
  0
VERTEX
  8
0
 10
0.946235
 20
2.22885
 30
0.0
 40
0
 41
0
  0
VERTEX
  8
0
 10
0.95166
 20
2.21571
 30
0.0
 40
0
 41
0
  0
VERTEX
  8
0
 10
0.963704
 20
2.21132
 30
0.0
 40
0
 41
0
  0
VERTEX
  8
0
 10
0.975749
 20
2.21571
 30
0.0
 40
0
 41
0
  0
VERTEX
  8
0
 10
0.981228
 20
2.22885
 30
0.0
 40
0
 41
0
  0
SEQEND
 8
0
  0
POLYLINE
  8
0
 62
     173
 66
     1
 10
0
 20
0
 30
0.0
 70
     1
 40
0
 41
0
  0
VERTEX
  8
0
 10
1.03125
 20
2.32883
 30
0.0
 40
0
 41
0
  0
VERTEX
  8
0
 10
1.02577
 20
2.34196
 30
0.0
 40
0
 41
0
  0
VERTEX
  8
0
 10
1.01373
 20
2.34631
 30
0.0
 40
0
 41
0
  0
VERTEX
  8
0
 10
1.00168
 20
2.34196
 30
0.0
 40
0
 41
0
  0
VERTEX
  8
0
 10
0.996257
 20
2.32883
 30
0.0
 40
0
 41
0
  0
VERTEX
  8
0
 10
1.00168
 20
2.31569
 30
0.0
 40
0
 41
0
  0
VERTEX
  8
0
 10
1.01373
 20
2.31131
 30
0.0
 40
0
 41
0
  0
VERTEX
  8
0
 10
1.02577
 20
2.31569
 30
0.0
 40
0
 41
0
  0
VERTEX
  8
0
 10
1.03125
 20
2.32883
 30
0.0
 40
0
 41
0
  0
SEQEND
 8
0
  0
POLYLINE
  8
0
 62
     173
 66
     1
 10
0
 20
0
 30
0.0
 70
     1
 40
0
 41
0
  0
VERTEX
  8
0
 10
1.08127
 20
2.22885
 30
0.0
 40
0
 41
0
  0
VERTEX
  8
0
 10
1.07579
 20
2.24197
 30
0.0
 40
0
 41
0
  0
VERTEX
  8
0
 10
1.06375
 20
2.24631
 30
0.0
 40
0
 41
0
  0
VERTEX
  8
0
 10
1.0517
 20
2.24197
 30
0.0
 40
0
 41
0
  0
VERTEX
  8
0
 10
1.04628
 20
2.22885
 30
0.0
 40
0
 41
0
  0
VERTEX
  8
0
 10
1.0517
 20
2.21571
 30
0.0
 40
0
 41
0
  0
VERTEX
  8
0
 10
1.06375
 20
2.21132
 30
0.0
 40
0
 41
0
  0
VERTEX
  8
0
 10
1.07579
 20
2.21571
 30
0.0
 40
0
 41
0
  0
VERTEX
  8
0
 10
1.08127
 20
2.22885
 30
0.0
 40
0
 41
0
  0
SEQEND
 8
0
  0
POLYLINE
  8
0
 62
     173
 66
     1
 10
0
 20
0
 30
0.0
 70
     1
 40
0
 41
0
  0
VERTEX
  8
0
 10
1.13124
 20
2.32883
 30
0.0
 40
0
 41
0
  0
VERTEX
  8
0
 10
1.12576
 20
2.34196
 30
0.0
 40
0
 41
0
  0
VERTEX
  8
0
 10
1.11372
 20
2.34631
 30
0.0
 40
0
 41
0
  0
VERTEX
  8
0
 10
1.10167
 20
2.34196
 30
0.0
 40
0
 41
0
  0
VERTEX
  8
0
 10
1.09625
 20
2.32883
 30
0.0
 40
0
 41
0
  0
VERTEX
  8
0
 10
1.10167
 20
2.31569
 30
0.0
 40
0
 41
0
  0
VERTEX
  8
0
 10
1.11372
 20
2.31131
 30
0.0
 40
0
 41
0
  0
VERTEX
  8
0
 10
1.12576
 20
2.31569
 30
0.0
 40
0
 41
0
  0
VERTEX
  8
0
 10
1.13124
 20
2.32883
 30
0.0
 40
0
 41
0
  0
SEQEND
 8
0
  0
POLYLINE
  8
0
 62
     173
 66
     1
 10
0
 20
0
 30
0.0
 70
     1
 40
0
 41
0
  0
VERTEX
  8
0
 10
1.18126
 20
2.22885
 30
0.0
 40
0
 41
0
  0
VERTEX
  8
0
 10
1.17578
 20
2.24197
 30
0.0
 40
0
 41
0
  0
VERTEX
  8
0
 10
1.16374
 20
2.24631
 30
0.0
 40
0
 41
0
  0
VERTEX
  8
0
 10
1.15169
 20
2.24197
 30
0.0
 40
0
 41
0
  0
VERTEX
  8
0
 10
1.14627
 20
2.22885
 30
0.0
 40
0
 41
0
  0
VERTEX
  8
0
 10
1.15169
 20
2.21571
 30
0.0
 40
0
 41
0
  0
VERTEX
  8
0
 10
1.16374
 20
2.21132
 30
0.0
 40
0
 41
0
  0
VERTEX
  8
0
 10
1.17578
 20
2.21571
 30
0.0
 40
0
 41
0
  0
VERTEX
  8
0
 10
1.18126
 20
2.22885
 30
0.0
 40
0
 41
0
  0
SEQEND
 8
0
  0
POLYLINE
  8
0
 62
     173
 66
     1
 10
0
 20
0
 30
0.0
 70
     1
 40
0
 41
0
  0
VERTEX
  8
0
 10
1.23123
 20
2.32883
 30
0.0
 40
0
 41
0
  0
VERTEX
  8
0
 10
1.22575
 20
2.34196
 30
0.0
 40
0
 41
0
  0
VERTEX
  8
0
 10
1.2137
 20
2.34631
 30
0.0
 40
0
 41
0
  0
VERTEX
  8
0
 10
1.20166
 20
2.34196
 30
0.0
 40
0
 41
0
  0
VERTEX
  8
0
 10
1.19623
 20
2.32883
 30
0.0
 40
0
 41
0
  0
VERTEX
  8
0
 10
1.20166
 20
2.31569
 30
0.0
 40
0
 41
0
  0
VERTEX
  8
0
 10
1.2137
 20
2.31131
 30
0.0
 40
0
 41
0
  0
VERTEX
  8
0
 10
1.22575
 20
2.31569
 30
0.0
 40
0
 41
0
  0
VERTEX
  8
0
 10
1.23123
 20
2.32883
 30
0.0
 40
0
 41
0
  0
SEQEND
 8
0
  0
POLYLINE
  8
0
 62
     173
 66
     1
 10
0
 20
0
 30
0.0
 70
     1
 40
0
 41
0
  0
VERTEX
  8
0
 10
1.40625
 20
0.513781
 30
0.0
 40
0
 41
0
  0
VERTEX
  8
0
 10
1.40076
 20
0.526964
 30
0.0
 40
0
 41
0
  0
VERTEX
  8
0
 10
1.38873
 20
0.531358
 30
0.0
 40
0
 41
0
  0
VERTEX
  8
0
 10
1.37668
 20
0.526964
 30
0.0
 40
0
 41
0
  0
VERTEX
  8
0
 10
1.37126
 20
0.513781
 30
0.0
 40
0
 41
0
  0
VERTEX
  8
0
 10
1.37668
 20
0.500706
 30
0.0
 40
0
 41
0
  0
VERTEX
  8
0
 10
1.38873
 20
0.496311
 30
0.0
 40
0
 41
0
  0
VERTEX
  8
0
 10
1.40076
 20
0.500706
 30
0.0
 40
0
 41
0
  0
VERTEX
  8
0
 10
1.40625
 20
0.513781
 30
0.0
 40
0
 41
0
  0
SEQEND
 8
0
  0
POLYLINE
  8
0
 62
     173
 66
     1
 10
0
 20
0
 30
0.0
 70
     1
 40
0
 41
0
  0
VERTEX
  8
0
 10
1.40625
 20
0.413792
 30
0.0
 40
0
 41
0
  0
VERTEX
  8
0
 10
1.40076
 20
0.426975
 30
0.0
 40
0
 41
0
  0
VERTEX
  8
0
 10
1.38873
 20
0.431369
 30
0.0
 40
0
 41
0
  0
VERTEX
  8
0
 10
1.37668
 20
0.426975
 30
0.0
 40
0
 41
0
  0
VERTEX
  8
0
 10
1.37126
 20
0.413792
 30
0.0
 40
0
 41
0
  0
VERTEX
  8
0
 10
1.37668
 20
0.400717
 30
0.0
 40
0
 41
0
  0
VERTEX
  8
0
 10
1.38873
 20
0.396376
 30
0.0
 40
0
 41
0
  0
VERTEX
  8
0
 10
1.40076
 20
0.400717
 30
0.0
 40
0
 41
0
  0
VERTEX
  8
0
 10
1.40625
 20
0.413792
 30
0.0
 40
0
 41
0
  0
SEQEND
 8
0
  0
POLYLINE
  8
0
 62
     173
 66
     1
 10
0
 20
0
 30
0.0
 70
     1
 40
0
 41
0
  0
VERTEX
  8
0
 10
1.40625
 20
0.313803
 30
0.0
 40
0
 41
0
  0
VERTEX
  8
0
 10
1.40076
 20
0.326932
 30
0.0
 40
0
 41
0
  0
VERTEX
  8
0
 10
1.38873
 20
0.331326
 30
0.0
 40
0
 41
0
  0
VERTEX
  8
0
 10
1.37668
 20
0.326932
 30
0.0
 40
0
 41
0
  0
VERTEX
  8
0
 10
1.37126
 20
0.313803
 30
0.0
 40
0
 41
0
  0
VERTEX
  8
0
 10
1.37668
 20
0.300726
 30
0.0
 40
0
 41
0
  0
VERTEX
  8
0
 10
1.38873
 20
0.296332
 30
0.0
 40
0
 41
0
  0
VERTEX
  8
0
 10
1.40076
 20
0.300726
 30
0.0
 40
0
 41
0
  0
VERTEX
  8
0
 10
1.40625
 20
0.313803
 30
0.0
 40
0
 41
0
  0
SEQEND
 8
0
  0
POLYLINE
  8
0
 62
     173
 66
     1
 10
0
 20
0
 30
0.0
 70
     1
 40
0
 41
0
  0
VERTEX
  8
0
 10
1.40625
 20
0.213812
 30
0.0
 40
0
 41
0
  0
VERTEX
  8
0
 10
1.40076
 20
0.226942
 30
0.0
 40
0
 41
0
  0
VERTEX
  8
0
 10
1.38873
 20
0.231282
 30
0.0
 40
0
 41
0
  0
VERTEX
  8
0
 10
1.37668
 20
0.226942
 30
0.0
 40
0
 41
0
  0
VERTEX
  8
0
 10
1.37126
 20
0.213812
 30
0.0
 40
0
 41
0
  0
VERTEX
  8
0
 10
1.37668
 20
0.200683
 30
0.0
 40
0
 41
0
  0
VERTEX
  8
0
 10
1.38873
 20
0.196289
 30
0.0
 40
0
 41
0
  0
VERTEX
  8
0
 10
1.40076
 20
0.200683
 30
0.0
 40
0
 41
0
  0
VERTEX
  8
0
 10
1.40625
 20
0.213812
 30
0.0
 40
0
 41
0
  0
SEQEND
 8
0
  0
POLYLINE
  8
0
 62
     173
 66
     1
 10
0
 20
0
 30
0.0
 70
     1
 40
0
 41
0
  0
VERTEX
  8
0
 10
1.50624
 20
0.463813
 30
0.0
 40
0
 41
0
  0
VERTEX
  8
0
 10
1.50076
 20
0.476942
 30
0.0
 40
0
 41
0
  0
VERTEX
  8
0
 10
1.48872
 20
0.481282
 30
0.0
 40
0
 41
0
  0
VERTEX
  8
0
 10
1.47667
 20
0.476942
 30
0.0
 40
0
 41
0
  0
VERTEX
  8
0
 10
1.47125
 20
0.463813
 30
0.0
 40
0
 41
0
  0
VERTEX
  8
0
 10
1.47667
 20
0.450683
 30
0.0
 40
0
 41
0
  0
VERTEX
  8
0
 10
1.48872
 20
0.446289
 30
0.0
 40
0
 41
0
  0
VERTEX
  8
0
 10
1.50076
 20
0.450683
 30
0.0
 40
0
 41
0
  0
VERTEX
  8
0
 10
1.50624
 20
0.463813
 30
0.0
 40
0
 41
0
  0
SEQEND
 8
0
  0
POLYLINE
  8
0
 62
     173
 66
     1
 10
0
 20
0
 30
0.0
 70
     1
 40
0
 41
0
  0
VERTEX
  8
0
 10
1.50624
 20
0.363824
 30
0.0
 40
0
 41
0
  0
VERTEX
  8
0
 10
1.50076
 20
0.376953
 30
0.0
 40
0
 41
0
  0
VERTEX
  8
0
 10
1.48872
 20
0.381293
 30
0.0
 40
0
 41
0
  0
VERTEX
  8
0
 10
1.47667
 20
0.376953
 30
0.0
 40
0
 41
0
  0
VERTEX
  8
0
 10
1.47125
 20
0.363824
 30
0.0
 40
0
 41
0
  0
VERTEX
  8
0
 10
1.47667
 20
0.350694
 30
0.0
 40
0
 41
0
  0
VERTEX
  8
0
 10
1.48872
 20
0.3463
 30
0.0
 40
0
 41
0
  0
VERTEX
  8
0
 10
1.50076
 20
0.350694
 30
0.0
 40
0
 41
0
  0
VERTEX
  8
0
 10
1.50624
 20
0.363824
 30
0.0
 40
0
 41
0
  0
SEQEND
 8
0
  0
POLYLINE
  8
0
 62
     173
 66
     1
 10
0
 20
0
 30
0.0
 70
     1
 40
0
 41
0
  0
VERTEX
  8
0
 10
1.50624
 20
0.263781
 30
0.0
 40
0
 41
0
  0
VERTEX
  8
0
 10
1.50076
 20
0.276964
 30
0.0
 40
0
 41
0
  0
VERTEX
  8
0
 10
1.48872
 20
0.281358
 30
0.0
 40
0
 41
0
  0
VERTEX
  8
0
 10
1.47667
 20
0.276964
 30
0.0
 40
0
 41
0
  0
VERTEX
  8
0
 10
1.47125
 20
0.263781
 30
0.0
 40
0
 41
0
  0
VERTEX
  8
0
 10
1.47667
 20
0.250706
 30
0.0
 40
0
 41
0
  0
VERTEX
  8
0
 10
1.48872
 20
0.246311
 30
0.0
 40
0
 41
0
  0
VERTEX
  8
0
 10
1.50076
 20
0.250706
 30
0.0
 40
0
 41
0
  0
VERTEX
  8
0
 10
1.50624
 20
0.263781
 30
0.0
 40
0
 41
0
  0
SEQEND
 8
0
  0
POLYLINE
  8
0
 62
     173
 66
     1
 10
0
 20
0
 30
0.0
 70
     1
 40
0
 41
0
  0
VERTEX
  8
0
 10
1.50624
 20
0.163792
 30
0.0
 40
0
 41
0
  0
VERTEX
  8
0
 10
1.50076
 20
0.176975
 30
0.0
 40
0
 41
0
  0
VERTEX
  8
0
 10
1.48872
 20
0.181369
 30
0.0
 40
0
 41
0
  0
VERTEX
  8
0
 10
1.47667
 20
0.176975
 30
0.0
 40
0
 41
0
  0
VERTEX
  8
0
 10
1.47125
 20
0.163792
 30
0.0
 40
0
 41
0
  0
VERTEX
  8
0
 10
1.47667
 20
0.150717
 30
0.0
 40
0
 41
0
  0
VERTEX
  8
0
 10
1.48872
 20
0.146376
 30
0.0
 40
0
 41
0
  0
VERTEX
  8
0
 10
1.50076
 20
0.150717
 30
0.0
 40
0
 41
0
  0
VERTEX
  8
0
 10
1.50624
 20
0.163792
 30
0.0
 40
0
 41
0
  0
SEQEND
 8
0
  0
POLYLINE
  8
0
 62
     173
 66
     1
 10
0
 20
0
 30
0.0
 70
     1
 40
0
 41
0
  0
VERTEX
  8
0
 10
1.60622
 20
2.22885
 30
0.0
 40
0
 41
0
  0
VERTEX
  8
0
 10
1.60075
 20
2.24197
 30
0.0
 40
0
 41
0
  0
VERTEX
  8
0
 10
1.58871
 20
2.24631
 30
0.0
 40
0
 41
0
  0
VERTEX
  8
0
 10
1.57667
 20
2.24197
 30
0.0
 40
0
 41
0
  0
VERTEX
  8
0
 10
1.57124
 20
2.22885
 30
0.0
 40
0
 41
0
  0
VERTEX
  8
0
 10
1.57667
 20
2.21571
 30
0.0
 40
0
 41
0
  0
VERTEX
  8
0
 10
1.58871
 20
2.21132
 30
0.0
 40
0
 41
0
  0
VERTEX
  8
0
 10
1.60075
 20
2.21571
 30
0.0
 40
0
 41
0
  0
VERTEX
  8
0
 10
1.60622
 20
2.22885
 30
0.0
 40
0
 41
0
  0
SEQEND
 8
0
  0
POLYLINE
  8
0
 62
     173
 66
     1
 10
0
 20
0
 30
0.0
 70
     1
 40
0
 41
0
  0
VERTEX
  8
0
 10
1.65625
 20
2.32883
 30
0.0
 40
0
 41
0
  0
VERTEX
  8
0
 10
1.65076
 20
2.34196
 30
0.0
 40
0
 41
0
  0
VERTEX
  8
0
 10
1.63872
 20
2.34631
 30
0.0
 40
0
 41
0
  0
VERTEX
  8
0
 10
1.62668
 20
2.34196
 30
0.0
 40
0
 41
0
  0
VERTEX
  8
0
 10
1.62125
 20
2.32883
 30
0.0
 40
0
 41
0
  0
VERTEX
  8
0
 10
1.62668
 20
2.31569
 30
0.0
 40
0
 41
0
  0
VERTEX
  8
0
 10
1.63872
 20
2.31131
 30
0.0
 40
0
 41
0
  0
VERTEX
  8
0
 10
1.65076
 20
2.31569
 30
0.0
 40
0
 41
0
  0
VERTEX
  8
0
 10
1.65625
 20
2.32883
 30
0.0
 40
0
 41
0
  0
SEQEND
 8
0
  0
POLYLINE
  8
0
 62
     173
 66
     1
 10
0
 20
0
 30
0.0
 70
     1
 40
0
 41
0
  0
VERTEX
  8
0
 10
1.70628
 20
2.22885
 30
0.0
 40
0
 41
0
  0
VERTEX
  8
0
 10
1.70079
 20
2.24197
 30
0.0
 40
0
 41
0
  0
VERTEX
  8
0
 10
1.68875
 20
2.24631
 30
0.0
 40
0
 41
0
  0
VERTEX
  8
0
 10
1.67671
 20
2.24197
 30
0.0
 40
0
 41
0
  0
VERTEX
  8
0
 10
1.67128
 20
2.22885
 30
0.0
 40
0
 41
0
  0
VERTEX
  8
0
 10
1.67671
 20
2.21571
 30
0.0
 40
0
 41
0
  0
VERTEX
  8
0
 10
1.68875
 20
2.21132
 30
0.0
 40
0
 41
0
  0
VERTEX
  8
0
 10
1.70079
 20
2.21571
 30
0.0
 40
0
 41
0
  0
VERTEX
  8
0
 10
1.70628
 20
2.22885
 30
0.0
 40
0
 41
0
  0
SEQEND
 8
0
  0
POLYLINE
  8
0
 62
     173
 66
     1
 10
0
 20
0
 30
0.0
 70
     1
 40
0
 41
0
  0
VERTEX
  8
0
 10
1.75624
 20
2.32883
 30
0.0
 40
0
 41
0
  0
VERTEX
  8
0
 10
1.75076
 20
2.34196
 30
0.0
 40
0
 41
0
  0
VERTEX
  8
0
 10
1.73872
 20
2.34631
 30
0.0
 40
0
 41
0
  0
VERTEX
  8
0
 10
1.72667
 20
2.34196
 30
0.0
 40
0
 41
0
  0
VERTEX
  8
0
 10
1.72125
 20
2.32883
 30
0.0
 40
0
 41
0
  0
VERTEX
  8
0
 10
1.72667
 20
2.31569
 30
0.0
 40
0
 41
0
  0
VERTEX
  8
0
 10
1.73872
 20
2.31131
 30
0.0
 40
0
 41
0
  0
VERTEX
  8
0
 10
1.75076
 20
2.31569
 30
0.0
 40
0
 41
0
  0
VERTEX
  8
0
 10
1.75624
 20
2.32883
 30
0.0
 40
0
 41
0
  0
SEQEND
 8
0
  0
POLYLINE
  8
0
 62
     173
 66
     1
 10
0
 20
0
 30
0.0
 70
     1
 40
0
 41
0
  0
VERTEX
  8
0
 10
1.80626
 20
2.22885
 30
0.0
 40
0
 41
0
  0
VERTEX
  8
0
 10
1.80078
 20
2.24197
 30
0.0
 40
0
 41
0
  0
VERTEX
  8
0
 10
1.78874
 20
2.24631
 30
0.0
 40
0
 41
0
  0
VERTEX
  8
0
 10
1.77669
 20
2.24197
 30
0.0
 40
0
 41
0
  0
VERTEX
  8
0
 10
1.77126
 20
2.22885
 30
0.0
 40
0
 41
0
  0
VERTEX
  8
0
 10
1.77669
 20
2.21571
 30
0.0
 40
0
 41
0
  0
VERTEX
  8
0
 10
1.78874
 20
2.21132
 30
0.0
 40
0
 41
0
  0
VERTEX
  8
0
 10
1.80078
 20
2.21571
 30
0.0
 40
0
 41
0
  0
VERTEX
  8
0
 10
1.80626
 20
2.22885
 30
0.0
 40
0
 41
0
  0
SEQEND
 8
0
  0
POLYLINE
  8
0
 62
     173
 66
     1
 10
0
 20
0
 30
0.0
 70
     1
 40
0
 41
0
  0
VERTEX
  8
0
 10
1.85622
 20
2.32883
 30
0.0
 40
0
 41
0
  0
VERTEX
  8
0
 10
1.85075
 20
2.34196
 30
0.0
 40
0
 41
0
  0
VERTEX
  8
0
 10
1.83871
 20
2.34631
 30
0.0
 40
0
 41
0
  0
VERTEX
  8
0
 10
1.82667
 20
2.34196
 30
0.0
 40
0
 41
0
  0
VERTEX
  8
0
 10
1.82124
 20
2.32883
 30
0.0
 40
0
 41
0
  0
VERTEX
  8
0
 10
1.82667
 20
2.31569
 30
0.0
 40
0
 41
0
  0
VERTEX
  8
0
 10
1.83871
 20
2.31131
 30
0.0
 40
0
 41
0
  0
VERTEX
  8
0
 10
1.85075
 20
2.31569
 30
0.0
 40
0
 41
0
  0
VERTEX
  8
0
 10
1.85622
 20
2.32883
 30
0.0
 40
0
 41
0
  0
SEQEND
 8
0
  0
POLYLINE
  8
0
 62
     173
 66
     1
 10
0
 20
0
 30
0.0
 70
     1
 40
0
 41
0
  0
VERTEX
  8
0
 10
1.90625
 20
2.22885
 30
0.0
 40
0
 41
0
  0
VERTEX
  8
0
 10
1.90076
 20
2.24197
 30
0.0
 40
0
 41
0
  0
VERTEX
  8
0
 10
1.88872
 20
2.24631
 30
0.0
 40
0
 41
0
  0
VERTEX
  8
0
 10
1.87668
 20
2.24197
 30
0.0
 40
0
 41
0
  0
VERTEX
  8
0
 10
1.87125
 20
2.22885
 30
0.0
 40
0
 41
0
  0
VERTEX
  8
0
 10
1.87668
 20
2.21571
 30
0.0
 40
0
 41
0
  0
VERTEX
  8
0
 10
1.88872
 20
2.21132
 30
0.0
 40
0
 41
0
  0
VERTEX
  8
0
 10
1.90076
 20
2.21571
 30
0.0
 40
0
 41
0
  0
VERTEX
  8
0
 10
1.90625
 20
2.22885
 30
0.0
 40
0
 41
0
  0
SEQEND
 8
0
  0
POLYLINE
  8
0
 62
     173
 66
     1
 10
0
 20
0
 30
0.0
 70
     1
 40
0
 41
0
  0
VERTEX
  8
0
 10
1.95628
 20
2.32883
 30
0.0
 40
0
 41
0
  0
VERTEX
  8
0
 10
1.95079
 20
2.34196
 30
0.0
 40
0
 41
0
  0
VERTEX
  8
0
 10
1.93875
 20
2.34631
 30
0.0
 40
0
 41
0
  0
VERTEX
  8
0
 10
1.92671
 20
2.34196
 30
0.0
 40
0
 41
0
  0
VERTEX
  8
0
 10
1.92128
 20
2.32883
 30
0.0
 40
0
 41
0
  0
VERTEX
  8
0
 10
1.92671
 20
2.31569
 30
0.0
 40
0
 41
0
  0
VERTEX
  8
0
 10
1.93875
 20
2.31131
 30
0.0
 40
0
 41
0
  0
VERTEX
  8
0
 10
1.95079
 20
2.31569
 30
0.0
 40
0
 41
0
  0
VERTEX
  8
0
 10
1.95628
 20
2.32883
 30
0.0
 40
0
 41
0
  0
SEQEND
 8
0
  0
POLYLINE
  8
0
 62
     173
 66
     1
 10
0
 20
0
 30
0.0
 70
     1
 40
0
 41
0
  0
VERTEX
  8
0
 10
2.33128
 20
2.22885
 30
0.0
 40
0
 41
0
  0
VERTEX
  8
0
 10
2.32579
 20
2.24197
 30
0.0
 40
0
 41
0
  0
VERTEX
  8
0
 10
2.31375
 20
2.24631
 30
0.0
 40
0
 41
0
  0
VERTEX
  8
0
 10
2.30171
 20
2.24197
 30
0.0
 40
0
 41
0
  0
VERTEX
  8
0
 10
2.29628
 20
2.22885
 30
0.0
 40
0
 41
0
  0
VERTEX
  8
0
 10
2.30171
 20
2.21571
 30
0.0
 40
0
 41
0
  0
VERTEX
  8
0
 10
2.31375
 20
2.21132
 30
0.0
 40
0
 41
0
  0
VERTEX
  8
0
 10
2.32579
 20
2.21571
 30
0.0
 40
0
 41
0
  0
VERTEX
  8
0
 10
2.33128
 20
2.22885
 30
0.0
 40
0
 41
0
  0
SEQEND
 8
0
  0
POLYLINE
  8
0
 62
     173
 66
     1
 10
0
 20
0
 30
0.0
 70
     1
 40
0
 41
0
  0
VERTEX
  8
0
 10
2.38124
 20
2.32883
 30
0.0
 40
0
 41
0
  0
VERTEX
  8
0
 10
2.37576
 20
2.34196
 30
0.0
 40
0
 41
0
  0
VERTEX
  8
0
 10
2.36372
 20
2.34631
 30
0.0
 40
0
 41
0
  0
VERTEX
  8
0
 10
2.35167
 20
2.34196
 30
0.0
 40
0
 41
0
  0
VERTEX
  8
0
 10
2.34625
 20
2.32883
 30
0.0
 40
0
 41
0
  0
VERTEX
  8
0
 10
2.35167
 20
2.31569
 30
0.0
 40
0
 41
0
  0
VERTEX
  8
0
 10
2.36372
 20
2.31131
 30
0.0
 40
0
 41
0
  0
VERTEX
  8
0
 10
2.37576
 20
2.31569
 30
0.0
 40
0
 41
0
  0
VERTEX
  8
0
 10
2.38124
 20
2.32883
 30
0.0
 40
0
 41
0
  0
SEQEND
 8
0
  0
POLYLINE
  8
0
 62
     173
 66
     1
 10
0
 20
0
 30
0.0
 70
     1
 40
0
 41
0
  0
VERTEX
  8
0
 10
2.43126
 20
2.22885
 30
0.0
 40
0
 41
0
  0
VERTEX
  8
0
 10
2.42578
 20
2.24197
 30
0.0
 40
0
 41
0
  0
VERTEX
  8
0
 10
2.41374
 20
2.24631
 30
0.0
 40
0
 41
0
  0
VERTEX
  8
0
 10
2.40169
 20
2.24197
 30
0.0
 40
0
 41
0
  0
VERTEX
  8
0
 10
2.39626
 20
2.22885
 30
0.0
 40
0
 41
0
  0
VERTEX
  8
0
 10
2.40169
 20
2.21571
 30
0.0
 40
0
 41
0
  0
VERTEX
  8
0
 10
2.41374
 20
2.21132
 30
0.0
 40
0
 41
0
  0
VERTEX
  8
0
 10
2.42578
 20
2.21571
 30
0.0
 40
0
 41
0
  0
VERTEX
  8
0
 10
2.43126
 20
2.22885
 30
0.0
 40
0
 41
0
  0
SEQEND
 8
0
  0
POLYLINE
  8
0
 62
     173
 66
     1
 10
0
 20
0
 30
0.0
 70
     1
 40
0
 41
0
  0
VERTEX
  8
0
 10
2.48122
 20
2.32883
 30
0.0
 40
0
 41
0
  0
VERTEX
  8
0
 10
2.47575
 20
2.34196
 30
0.0
 40
0
 41
0
  0
VERTEX
  8
0
 10
2.46371
 20
2.34631
 30
0.0
 40
0
 41
0
  0
VERTEX
  8
0
 10
2.45167
 20
2.34196
 30
0.0
 40
0
 41
0
  0
VERTEX
  8
0
 10
2.44624
 20
2.32883
 30
0.0
 40
0
 41
0
  0
VERTEX
  8
0
 10
2.45167
 20
2.31569
 30
0.0
 40
0
 41
0
  0
VERTEX
  8
0
 10
2.46371
 20
2.31131
 30
0.0
 40
0
 41
0
  0
VERTEX
  8
0
 10
2.47575
 20
2.31569
 30
0.0
 40
0
 41
0
  0
VERTEX
  8
0
 10
2.48122
 20
2.32883
 30
0.0
 40
0
 41
0
  0
SEQEND
 8
0
  0
POLYLINE
  8
0
 62
     173
 66
     1
 10
0
 20
0
 30
0.0
 70
     1
 40
0
 41
0
  0
VERTEX
  8
0
 10
2.53125
 20
2.22885
 30
0.0
 40
0
 41
0
  0
VERTEX
  8
0
 10
2.52576
 20
2.24197
 30
0.0
 40
0
 41
0
  0
VERTEX
  8
0
 10
2.51372
 20
2.24631
 30
0.0
 40
0
 41
0
  0
VERTEX
  8
0
 10
2.50168
 20
2.24197
 30
0.0
 40
0
 41
0
  0
VERTEX
  8
0
 10
2.49625
 20
2.22885
 30
0.0
 40
0
 41
0
  0
VERTEX
  8
0
 10
2.50168
 20
2.21571
 30
0.0
 40
0
 41
0
  0
VERTEX
  8
0
 10
2.51372
 20
2.21132
 30
0.0
 40
0
 41
0
  0
VERTEX
  8
0
 10
2.52576
 20
2.21571
 30
0.0
 40
0
 41
0
  0
VERTEX
  8
0
 10
2.53125
 20
2.22885
 30
0.0
 40
0
 41
0
  0
SEQEND
 8
0
  0
POLYLINE
  8
0
 62
     173
 66
     1
 10
0
 20
0
 30
0.0
 70
     1
 40
0
 41
0
  0
VERTEX
  8
0
 10
2.58128
 20
2.32883
 30
0.0
 40
0
 41
0
  0
VERTEX
  8
0
 10
2.57579
 20
2.34196
 30
0.0
 40
0
 41
0
  0
VERTEX
  8
0
 10
2.56375
 20
2.34631
 30
0.0
 40
0
 41
0
  0
VERTEX
  8
0
 10
2.55171
 20
2.34196
 30
0.0
 40
0
 41
0
  0
VERTEX
  8
0
 10
2.54628
 20
2.32883
 30
0.0
 40
0
 41
0
  0
VERTEX
  8
0
 10
2.55171
 20
2.31569
 30
0.0
 40
0
 41
0
  0
VERTEX
  8
0
 10
2.56375
 20
2.31131
 30
0.0
 40
0
 41
0
  0
VERTEX
  8
0
 10
2.57579
 20
2.31569
 30
0.0
 40
0
 41
0
  0
VERTEX
  8
0
 10
2.58128
 20
2.32883
 30
0.0
 40
0
 41
0
  0
SEQEND
 8
0
  0
POLYLINE
  8
0
 62
     173
 66
     1
 10
0
 20
0
 30
0.0
 70
     1
 40
0
 41
0
  0
VERTEX
  8
0
 10
2.63124
 20
2.22885
 30
0.0
 40
0
 41
0
  0
VERTEX
  8
0
 10
2.62576
 20
2.24197
 30
0.0
 40
0
 41
0
  0
VERTEX
  8
0
 10
2.61372
 20
2.24631
 30
0.0
 40
0
 41
0
  0
VERTEX
  8
0
 10
2.60167
 20
2.24197
 30
0.0
 40
0
 41
0
  0
VERTEX
  8
0
 10
2.59625
 20
2.22885
 30
0.0
 40
0
 41
0
  0
VERTEX
  8
0
 10
2.60167
 20
2.21571
 30
0.0
 40
0
 41
0
  0
VERTEX
  8
0
 10
2.61372
 20
2.21132
 30
0.0
 40
0
 41
0
  0
VERTEX
  8
0
 10
2.62576
 20
2.21571
 30
0.0
 40
0
 41
0
  0
VERTEX
  8
0
 10
2.63124
 20
2.22885
 30
0.0
 40
0
 41
0
  0
SEQEND
 8
0
  0
POLYLINE
  8
0
 62
     173
 66
     1
 10
0
 20
0
 30
0.0
 70
     1
 40
0
 41
0
  0
VERTEX
  8
0
 10
2.68126
 20
2.32883
 30
0.0
 40
0
 41
0
  0
VERTEX
  8
0
 10
2.67578
 20
2.34196
 30
0.0
 40
0
 41
0
  0
VERTEX
  8
0
 10
2.66374
 20
2.34631
 30
0.0
 40
0
 41
0
  0
VERTEX
  8
0
 10
2.65169
 20
2.34196
 30
0.0
 40
0
 41
0
  0
VERTEX
  8
0
 10
2.64626
 20
2.32883
 30
0.0
 40
0
 41
0
  0
VERTEX
  8
0
 10
2.65169
 20
2.31569
 30
0.0
 40
0
 41
0
  0
VERTEX
  8
0
 10
2.66374
 20
2.31131
 30
0.0
 40
0
 41
0
  0
VERTEX
  8
0
 10
2.67578
 20
2.31569
 30
0.0
 40
0
 41
0
  0
VERTEX
  8
0
 10
2.68126
 20
2.32883
 30
0.0
 40
0
 41
0
  0
SEQEND
 8
0
  0
POLYLINE
  8
0
 62
     173
 66
     1
 10
0
 20
0
 30
0.0
 70
     1
 40
0
 41
0
  0
VERTEX
  8
0
 10
0.587728
 20
1.0038
 30
0.0
 40
0
 41
0
  0
VERTEX
  8
0
 10
0.58176
 20
1.01812
 30
0.0
 40
0
 41
0
  0
VERTEX
  8
0
 10
0.568739
 20
1.02284
 30
0.0
 40
0
 41
0
  0
VERTEX
  8
0
 10
0.555664
 20
1.01812
 30
0.0
 40
0
 41
0
  0
VERTEX
  8
0
 10
0.54975
 20
1.0038
 30
0.0
 40
0
 41
0
  0
VERTEX
  8
0
 10
0.555664
 20
0.989583
 30
0.0
 40
0
 41
0
  0
VERTEX
  8
0
 10
0.568739
 20
0.98481
 30
0.0
 40
0
 41
0
  0
VERTEX
  8
0
 10
0.58176
 20
0.989583
 30
0.0
 40
0
 41
0
  0
VERTEX
  8
0
 10
0.587728
 20
1.0038
 30
0.0
 40
0
 41
0
  0
SEQEND
 8
0
  0
POLYLINE
  8
0
 62
     173
 66
     1
 10
0
 20
0
 30
0.0
 70
     1
 40
0
 41
0
  0
VERTEX
  8
0
 10
0.587728
 20
0.903754
 30
0.0
 40
0
 41
0
  0
VERTEX
  8
0
 10
0.58176
 20
0.918078
 30
0.0
 40
0
 41
0
  0
VERTEX
  8
0
 10
0.568739
 20
0.922797
 30
0.0
 40
0
 41
0
  0
VERTEX
  8
0
 10
0.555664
 20
0.918078
 30
0.0
 40
0
 41
0
  0
VERTEX
  8
0
 10
0.54975
 20
0.903754
 30
0.0
 40
0
 41
0
  0
VERTEX
  8
0
 10
0.555664
 20
0.88954
 30
0.0
 40
0
 41
0
  0
VERTEX
  8
0
 10
0.568739
 20
0.884819
 30
0.0
 40
0
 41
0
  0
VERTEX
  8
0
 10
0.58176
 20
0.88954
 30
0.0
 40
0
 41
0
  0
VERTEX
  8
0
 10
0.587728
 20
0.903754
 30
0.0
 40
0
 41
0
  0
SEQEND
 8
0
  0
POLYLINE
  8
0
 62
     173
 66
     1
 10
0
 20
0
 30
0.0
 70
     1
 40
0
 41
0
  0
VERTEX
  8
0
 10
0.687771
 20
1.0038
 30
0.0
 40
0
 41
0
  0
VERTEX
  8
0
 10
0.681803
 20
1.01812
 30
0.0
 40
0
 41
0
  0
VERTEX
  8
0
 10
0.668728
 20
1.02284
 30
0.0
 40
0
 41
0
  0
VERTEX
  8
0
 10
0.655653
 20
1.01812
 30
0.0
 40
0
 41
0
  0
VERTEX
  8
0
 10
0.64974
 20
1.0038
 30
0.0
 40
0
 41
0
  0
VERTEX
  8
0
 10
0.655653
 20
0.989583
 30
0.0
 40
0
 41
0
  0
VERTEX
  8
0
 10
0.668728
 20
0.98481
 30
0.0
 40
0
 41
0
  0
VERTEX
  8
0
 10
0.681803
 20
0.989583
 30
0.0
 40
0
 41
0
  0
VERTEX
  8
0
 10
0.687771
 20
1.0038
 30
0.0
 40
0
 41
0
  0
SEQEND
 8
0
  0
POLYLINE
  8
0
 62
     173
 66
     1
 10
0
 20
0
 30
0.0
 70
     1
 40
0
 41
0
  0
VERTEX
  8
0
 10
0.687771
 20
0.903754
 30
0.0
 40
0
 41
0
  0
VERTEX
  8
0
 10
0.681803
 20
0.918078
 30
0.0
 40
0
 41
0
  0
VERTEX
  8
0
 10
0.668728
 20
0.922797
 30
0.0
 40
0
 41
0
  0
VERTEX
  8
0
 10
0.655653
 20
0.918078
 30
0.0
 40
0
 41
0
  0
VERTEX
  8
0
 10
0.64974
 20
0.903754
 30
0.0
 40
0
 41
0
  0
VERTEX
  8
0
 10
0.655653
 20
0.88954
 30
0.0
 40
0
 41
0
  0
VERTEX
  8
0
 10
0.668728
 20
0.884819
 30
0.0
 40
0
 41
0
  0
VERTEX
  8
0
 10
0.681803
 20
0.88954
 30
0.0
 40
0
 41
0
  0
VERTEX
  8
0
 10
0.687771
 20
0.903754
 30
0.0
 40
0
 41
0
  0
SEQEND
 8
0
  0
POLYLINE
  8
0
 62
     173
 66
     1
 10
0
 20
0
 30
0.0
 70
     1
 40
0
 41
0
  0
VERTEX
  8
0
 10
0.752767
 20
1.56381
 30
0.0
 40
0
 41
0
  0
VERTEX
  8
0
 10
0.746799
 20
1.57807
 30
0.0
 40
0
 41
0
  0
VERTEX
  8
0
 10
0.733724
 20
1.58285
 30
0.0
 40
0
 41
0
  0
VERTEX
  8
0
 10
0.720649
 20
1.57807
 30
0.0
 40
0
 41
0
  0
VERTEX
  8
0
 10
0.714735
 20
1.56381
 30
0.0
 40
0
 41
0
  0
VERTEX
  8
0
 10
0.720649
 20
1.54958
 30
0.0
 40
0
 41
0
  0
VERTEX
  8
0
 10
0.733724
 20
1.54486
 30
0.0
 40
0
 41
0
  0
VERTEX
  8
0
 10
0.746799
 20
1.54958
 30
0.0
 40
0
 41
0
  0
VERTEX
  8
0
 10
0.752767
 20
1.56381
 30
0.0
 40
0
 41
0
  0
SEQEND
 8
0
  0
POLYLINE
  8
0
 62
     173
 66
     1
 10
0
 20
0
 30
0.0
 70
     1
 40
0
 41
0
  0
VERTEX
  8
0
 10
0.752767
 20
1.26877
 30
0.0
 40
0
 41
0
  0
VERTEX
  8
0
 10
0.746799
 20
1.28309
 30
0.0
 40
0
 41
0
  0
VERTEX
  8
0
 10
0.733724
 20
1.28782
 30
0.0
 40
0
 41
0
  0
VERTEX
  8
0
 10
0.720649
 20
1.28309
 30
0.0
 40
0
 41
0
  0
VERTEX
  8
0
 10
0.714735
 20
1.26877
 30
0.0
 40
0
 41
0
  0
VERTEX
  8
0
 10
0.720649
 20
1.25456
 30
0.0
 40
0
 41
0
  0
VERTEX
  8
0
 10
0.733724
 20
1.24978
 30
0.0
 40
0
 41
0
  0
VERTEX
  8
0
 10
0.746799
 20
1.25456
 30
0.0
 40
0
 41
0
  0
VERTEX
  8
0
 10
0.752767
 20
1.26877
 30
0.0
 40
0
 41
0
  0
SEQEND
 8
0
  0
POLYLINE
  8
0
 62
     173
 66
     1
 10
0
 20
0
 30
0.0
 70
     1
 40
0
 41
0
  0
VERTEX
  8
0
 10
0.787761
 20
1.0038
 30
0.0
 40
0
 41
0
  0
VERTEX
  8
0
 10
0.781793
 20
1.01812
 30
0.0
 40
0
 41
0
  0
VERTEX
  8
0
 10
0.768718
 20
1.02284
 30
0.0
 40
0
 41
0
  0
VERTEX
  8
0
 10
0.755643
 20
1.01812
 30
0.0
 40
0
 41
0
  0
VERTEX
  8
0
 10
0.749729
 20
1.0038
 30
0.0
 40
0
 41
0
  0
VERTEX
  8
0
 10
0.755643
 20
0.989583
 30
0.0
 40
0
 41
0
  0
VERTEX
  8
0
 10
0.768718
 20
0.98481
 30
0.0
 40
0
 41
0
  0
VERTEX
  8
0
 10
0.781793
 20
0.989583
 30
0.0
 40
0
 41
0
  0
VERTEX
  8
0
 10
0.787761
 20
1.0038
 30
0.0
 40
0
 41
0
  0
SEQEND
 8
0
  0
POLYLINE
  8
0
 62
     173
 66
     1
 10
0
 20
0
 30
0.0
 70
     1
 40
0
 41
0
  0
VERTEX
  8
0
 10
0.787761
 20
0.903754
 30
0.0
 40
0
 41
0
  0
VERTEX
  8
0
 10
0.781793
 20
0.918078
 30
0.0
 40
0
 41
0
  0
VERTEX
  8
0
 10
0.768718
 20
0.922797
 30
0.0
 40
0
 41
0
  0
VERTEX
  8
0
 10
0.755643
 20
0.918078
 30
0.0
 40
0
 41
0
  0
VERTEX
  8
0
 10
0.749729
 20
0.903754
 30
0.0
 40
0
 41
0
  0
VERTEX
  8
0
 10
0.755643
 20
0.88954
 30
0.0
 40
0
 41
0
  0
VERTEX
  8
0
 10
0.768718
 20
0.884819
 30
0.0
 40
0
 41
0
  0
VERTEX
  8
0
 10
0.781793
 20
0.88954
 30
0.0
 40
0
 41
0
  0
VERTEX
  8
0
 10
0.787761
 20
0.903754
 30
0.0
 40
0
 41
0
  0
SEQEND
 8
0
  0
POLYLINE
  8
0
 62
     173
 66
     1
 10
0
 20
0
 30
0.0
 70
     1
 40
0
 41
0
  0
VERTEX
  8
0
 10
0.787978
 20
0.640028
 30
0.0
 40
0
 41
0
  0
VERTEX
  8
0
 10
0.78201
 20
0.654297
 30
0.0
 40
0
 41
0
  0
VERTEX
  8
0
 10
0.768935
 20
0.659017
 30
0.0
 40
0
 41
0
  0
VERTEX
  8
0
 10
0.75586
 20
0.654297
 30
0.0
 40
0
 41
0
  0
VERTEX
  8
0
 10
0.749946
 20
0.640028
 30
0.0
 40
0
 41
0
  0
VERTEX
  8
0
 10
0.75586
 20
0.625814
 30
0.0
 40
0
 41
0
  0
VERTEX
  8
0
 10
0.768935
 20
0.621039
 30
0.0
 40
0
 41
0
  0
VERTEX
  8
0
 10
0.78201
 20
0.625814
 30
0.0
 40
0
 41
0
  0
VERTEX
  8
0
 10
0.787978
 20
0.640028
 30
0.0
 40
0
 41
0
  0
SEQEND
 8
0
  0
POLYLINE
  8
0
 62
     173
 66
     1
 10
0
 20
0
 30
0.0
 70
     1
 40
0
 41
0
  0
VERTEX
  8
0
 10
0.787978
 20
0.540039
 30
0.0
 40
0
 41
0
  0
VERTEX
  8
0
 10
0.78201
 20
0.554308
 30
0.0
 40
0
 41
0
  0
VERTEX
  8
0
 10
0.768935
 20
0.559082
 30
0.0
 40
0
 41
0
  0
VERTEX
  8
0
 10
0.75586
 20
0.554308
 30
0.0
 40
0
 41
0
  0
VERTEX
  8
0
 10
0.749946
 20
0.540039
 30
0.0
 40
0
 41
0
  0
VERTEX
  8
0
 10
0.75586
 20
0.525771
 30
0.0
 40
0
 41
0
  0
VERTEX
  8
0
 10
0.768935
 20
0.520996
 30
0.0
 40
0
 41
0
  0
VERTEX
  8
0
 10
0.78201
 20
0.525771
 30
0.0
 40
0
 41
0
  0
VERTEX
  8
0
 10
0.787978
 20
0.540039
 30
0.0
 40
0
 41
0
  0
SEQEND
 8
0
  0
POLYLINE
  8
0
 62
     173
 66
     1
 10
0
 20
0
 30
0.0
 70
     1
 40
0
 41
0
  0
VERTEX
  8
0
 10
0.787978
 20
0.439996
 30
0.0
 40
0
 41
0
  0
VERTEX
  8
0
 10
0.78201
 20
0.454318
 30
0.0
 40
0
 41
0
  0
VERTEX
  8
0
 10
0.768935
 20
0.459039
 30
0.0
 40
0
 41
0
  0
VERTEX
  8
0
 10
0.75586
 20
0.454318
 30
0.0
 40
0
 41
0
  0
VERTEX
  8
0
 10
0.749946
 20
0.439996
 30
0.0
 40
0
 41
0
  0
VERTEX
  8
0
 10
0.75586
 20
0.425782
 30
0.0
 40
0
 41
0
  0
VERTEX
  8
0
 10
0.768935
 20
0.421007
 30
0.0
 40
0
 41
0
  0
VERTEX
  8
0
 10
0.78201
 20
0.425782
 30
0.0
 40
0
 41
0
  0
VERTEX
  8
0
 10
0.787978
 20
0.439996
 30
0.0
 40
0
 41
0
  0
SEQEND
 8
0
  0
POLYLINE
  8
0
 62
     173
 66
     1
 10
0
 20
0
 30
0.0
 70
     1
 40
0
 41
0
  0
VERTEX
  8
0
 10
0.787978
 20
0.340007
 30
0.0
 40
0
 41
0
  0
VERTEX
  8
0
 10
0.78201
 20
0.354275
 30
0.0
 40
0
 41
0
  0
VERTEX
  8
0
 10
0.768935
 20
0.35905
 30
0.0
 40
0
 41
0
  0
VERTEX
  8
0
 10
0.75586
 20
0.354275
 30
0.0
 40
0
 41
0
  0
VERTEX
  8
0
 10
0.749946
 20
0.340007
 30
0.0
 40
0
 41
0
  0
VERTEX
  8
0
 10
0.75586
 20
0.325792
 30
0.0
 40
0
 41
0
  0
VERTEX
  8
0
 10
0.768935
 20
0.321018
 30
0.0
 40
0
 41
0
  0
VERTEX
  8
0
 10
0.78201
 20
0.325792
 30
0.0
 40
0
 41
0
  0
VERTEX
  8
0
 10
0.787978
 20
0.340007
 30
0.0
 40
0
 41
0
  0
SEQEND
 8
0
  0
POLYLINE
  8
0
 62
     173
 66
     1
 10
0
 20
0
 30
0.0
 70
     1
 40
0
 41
0
  0
VERTEX
  8
0
 10
0.787978
 20
0.239963
 30
0.0
 40
0
 41
0
  0
VERTEX
  8
0
 10
0.78201
 20
0.254232
 30
0.0
 40
0
 41
0
  0
VERTEX
  8
0
 10
0.768935
 20
0.259006
 30
0.0
 40
0
 41
0
  0
VERTEX
  8
0
 10
0.75586
 20
0.254232
 30
0.0
 40
0
 41
0
  0
VERTEX
  8
0
 10
0.749946
 20
0.239963
 30
0.0
 40
0
 41
0
  0
VERTEX
  8
0
 10
0.75586
 20
0.225749
 30
0.0
 40
0
 41
0
  0
VERTEX
  8
0
 10
0.768935
 20
0.221029
 30
0.0
 40
0
 41
0
  0
VERTEX
  8
0
 10
0.78201
 20
0.225749
 30
0.0
 40
0
 41
0
  0
VERTEX
  8
0
 10
0.787978
 20
0.239963
 30
0.0
 40
0
 41
0
  0
SEQEND
 8
0
  0
POLYLINE
  8
0
 62
     173
 66
     1
 10
0
 20
0
 30
0.0
 70
     1
 40
0
 41
0
  0
VERTEX
  8
0
 10
0.852756
 20
1.56381
 30
0.0
 40
0
 41
0
  0
VERTEX
  8
0
 10
0.846789
 20
1.57807
 30
0.0
 40
0
 41
0
  0
VERTEX
  8
0
 10
0.833768
 20
1.58285
 30
0.0
 40
0
 41
0
  0
VERTEX
  8
0
 10
0.820692
 20
1.57807
 30
0.0
 40
0
 41
0
  0
VERTEX
  8
0
 10
0.814779
 20
1.56381
 30
0.0
 40
0
 41
0
  0
VERTEX
  8
0
 10
0.820692
 20
1.54958
 30
0.0
 40
0
 41
0
  0
VERTEX
  8
0
 10
0.833768
 20
1.54486
 30
0.0
 40
0
 41
0
  0
VERTEX
  8
0
 10
0.846789
 20
1.54958
 30
0.0
 40
0
 41
0
  0
VERTEX
  8
0
 10
0.852756
 20
1.56381
 30
0.0
 40
0
 41
0
  0
SEQEND
 8
0
  0
POLYLINE
  8
0
 62
     173
 66
     1
 10
0
 20
0
 30
0.0
 70
     1
 40
0
 41
0
  0
VERTEX
  8
0
 10
0.852756
 20
1.26877
 30
0.0
 40
0
 41
0
  0
VERTEX
  8
0
 10
0.846789
 20
1.28309
 30
0.0
 40
0
 41
0
  0
VERTEX
  8
0
 10
0.833768
 20
1.28782
 30
0.0
 40
0
 41
0
  0
VERTEX
  8
0
 10
0.820692
 20
1.28309
 30
0.0
 40
0
 41
0
  0
VERTEX
  8
0
 10
0.814779
 20
1.26877
 30
0.0
 40
0
 41
0
  0
VERTEX
  8
0
 10
0.820692
 20
1.25456
 30
0.0
 40
0
 41
0
  0
VERTEX
  8
0
 10
0.833768
 20
1.24978
 30
0.0
 40
0
 41
0
  0
VERTEX
  8
0
 10
0.846789
 20
1.25456
 30
0.0
 40
0
 41
0
  0
VERTEX
  8
0
 10
0.852756
 20
1.26877
 30
0.0
 40
0
 41
0
  0
SEQEND
 8
0
  0
POLYLINE
  8
0
 62
     173
 66
     1
 10
0
 20
0
 30
0.0
 70
     1
 40
0
 41
0
  0
VERTEX
  8
0
 10
0.887967
 20
0.640028
 30
0.0
 40
0
 41
0
  0
VERTEX
  8
0
 10
0.881999
 20
0.654297
 30
0.0
 40
0
 41
0
  0
VERTEX
  8
0
 10
0.868924
 20
0.659017
 30
0.0
 40
0
 41
0
  0
VERTEX
  8
0
 10
0.855849
 20
0.654297
 30
0.0
 40
0
 41
0
  0
VERTEX
  8
0
 10
0.849935
 20
0.640028
 30
0.0
 40
0
 41
0
  0
VERTEX
  8
0
 10
0.855849
 20
0.625814
 30
0.0
 40
0
 41
0
  0
VERTEX
  8
0
 10
0.868924
 20
0.621039
 30
0.0
 40
0
 41
0
  0
VERTEX
  8
0
 10
0.881999
 20
0.625814
 30
0.0
 40
0
 41
0
  0
VERTEX
  8
0
 10
0.887967
 20
0.640028
 30
0.0
 40
0
 41
0
  0
SEQEND
 8
0
  0
POLYLINE
  8
0
 62
     173
 66
     1
 10
0
 20
0
 30
0.0
 70
     1
 40
0
 41
0
  0
VERTEX
  8
0
 10
0.887967
 20
0.540039
 30
0.0
 40
0
 41
0
  0
VERTEX
  8
0
 10
0.881999
 20
0.554308
 30
0.0
 40
0
 41
0
  0
VERTEX
  8
0
 10
0.868924
 20
0.559082
 30
0.0
 40
0
 41
0
  0
VERTEX
  8
0
 10
0.855849
 20
0.554308
 30
0.0
 40
0
 41
0
  0
VERTEX
  8
0
 10
0.849935
 20
0.540039
 30
0.0
 40
0
 41
0
  0
VERTEX
  8
0
 10
0.855849
 20
0.525771
 30
0.0
 40
0
 41
0
  0
VERTEX
  8
0
 10
0.868924
 20
0.520996
 30
0.0
 40
0
 41
0
  0
VERTEX
  8
0
 10
0.881999
 20
0.525771
 30
0.0
 40
0
 41
0
  0
VERTEX
  8
0
 10
0.887967
 20
0.540039
 30
0.0
 40
0
 41
0
  0
SEQEND
 8
0
  0
POLYLINE
  8
0
 62
     173
 66
     1
 10
0
 20
0
 30
0.0
 70
     1
 40
0
 41
0
  0
VERTEX
  8
0
 10
0.887967
 20
0.439996
 30
0.0
 40
0
 41
0
  0
VERTEX
  8
0
 10
0.881999
 20
0.454318
 30
0.0
 40
0
 41
0
  0
VERTEX
  8
0
 10
0.868924
 20
0.459039
 30
0.0
 40
0
 41
0
  0
VERTEX
  8
0
 10
0.855849
 20
0.454318
 30
0.0
 40
0
 41
0
  0
VERTEX
  8
0
 10
0.849935
 20
0.439996
 30
0.0
 40
0
 41
0
  0
VERTEX
  8
0
 10
0.855849
 20
0.425782
 30
0.0
 40
0
 41
0
  0
VERTEX
  8
0
 10
0.868924
 20
0.421007
 30
0.0
 40
0
 41
0
  0
VERTEX
  8
0
 10
0.881999
 20
0.425782
 30
0.0
 40
0
 41
0
  0
VERTEX
  8
0
 10
0.887967
 20
0.439996
 30
0.0
 40
0
 41
0
  0
SEQEND
 8
0
  0
POLYLINE
  8
0
 62
     173
 66
     1
 10
0
 20
0
 30
0.0
 70
     1
 40
0
 41
0
  0
VERTEX
  8
0
 10
0.887967
 20
0.340007
 30
0.0
 40
0
 41
0
  0
VERTEX
  8
0
 10
0.881999
 20
0.354275
 30
0.0
 40
0
 41
0
  0
VERTEX
  8
0
 10
0.868924
 20
0.35905
 30
0.0
 40
0
 41
0
  0
VERTEX
  8
0
 10
0.855849
 20
0.354275
 30
0.0
 40
0
 41
0
  0
VERTEX
  8
0
 10
0.849935
 20
0.340007
 30
0.0
 40
0
 41
0
  0
VERTEX
  8
0
 10
0.855849
 20
0.325792
 30
0.0
 40
0
 41
0
  0
VERTEX
  8
0
 10
0.868924
 20
0.321018
 30
0.0
 40
0
 41
0
  0
VERTEX
  8
0
 10
0.881999
 20
0.325792
 30
0.0
 40
0
 41
0
  0
VERTEX
  8
0
 10
0.887967
 20
0.340007
 30
0.0
 40
0
 41
0
  0
SEQEND
 8
0
  0
POLYLINE
  8
0
 62
     173
 66
     1
 10
0
 20
0
 30
0.0
 70
     1
 40
0
 41
0
  0
VERTEX
  8
0
 10
0.887967
 20
0.239963
 30
0.0
 40
0
 41
0
  0
VERTEX
  8
0
 10
0.881999
 20
0.254232
 30
0.0
 40
0
 41
0
  0
VERTEX
  8
0
 10
0.868924
 20
0.259006
 30
0.0
 40
0
 41
0
  0
VERTEX
  8
0
 10
0.855849
 20
0.254232
 30
0.0
 40
0
 41
0
  0
VERTEX
  8
0
 10
0.849935
 20
0.239963
 30
0.0
 40
0
 41
0
  0
VERTEX
  8
0
 10
0.855849
 20
0.225749
 30
0.0
 40
0
 41
0
  0
VERTEX
  8
0
 10
0.868924
 20
0.221029
 30
0.0
 40
0
 41
0
  0
VERTEX
  8
0
 10
0.881999
 20
0.225749
 30
0.0
 40
0
 41
0
  0
VERTEX
  8
0
 10
0.887967
 20
0.239963
 30
0.0
 40
0
 41
0
  0
SEQEND
 8
0
  0
POLYLINE
  8
0
 62
     173
 66
     1
 10
0
 20
0
 30
0.0
 70
     1
 40
0
 41
0
  0
VERTEX
  8
0
 10
0.998426
 20
0.599989
 30
0.0
 40
0
 41
0
  0
VERTEX
  8
0
 10
0.992296
 20
0.614637
 30
0.0
 40
0
 41
0
  0
VERTEX
  8
0
 10
0.97895
 20
0.619521
 30
0.0
 40
0
 41
0
  0
VERTEX
  8
0
 10
0.965549
 20
0.614637
 30
0.0
 40
0
 41
0
  0
VERTEX
  8
0
 10
0.959472
 20
0.599989
 30
0.0
 40
0
 41
0
  0
VERTEX
  8
0
 10
0.965549
 20
0.585449
 30
0.0
 40
0
 41
0
  0
VERTEX
  8
0
 10
0.97895
 20
0.580567
 30
0.0
 40
0
 41
0
  0
VERTEX
  8
0
 10
0.992296
 20
0.585449
 30
0.0
 40
0
 41
0
  0
VERTEX
  8
0
 10
0.998426
 20
0.599989
 30
0.0
 40
0
 41
0
  0
SEQEND
 8
0
  0
POLYLINE
  8
0
 62
     173
 66
     1
 10
0
 20
0
 30
0.0
 70
     1
 40
0
 41
0
  0
VERTEX
  8
0
 10
0.998426
 20
0.5
 30
0.0
 40
0
 41
0
  0
VERTEX
  8
0
 10
0.992296
 20
0.514649
 30
0.0
 40
0
 41
0
  0
VERTEX
  8
0
 10
0.97895
 20
0.519532
 30
0.0
 40
0
 41
0
  0
VERTEX
  8
0
 10
0.965549
 20
0.514649
 30
0.0
 40
0
 41
0
  0
VERTEX
  8
0
 10
0.959472
 20
0.5
 30
0.0
 40
0
 41
0
  0
VERTEX
  8
0
 10
0.965549
 20
0.485351
 30
0.0
 40
0
 41
0
  0
VERTEX
  8
0
 10
0.97895
 20
0.480469
 30
0.0
 40
0
 41
0
  0
VERTEX
  8
0
 10
0.992296
 20
0.485351
 30
0.0
 40
0
 41
0
  0
VERTEX
  8
0
 10
0.998426
 20
0.5
 30
0.0
 40
0
 41
0
  0
SEQEND
 8
0
  0
POLYLINE
  8
0
 62
     173
 66
     1
 10
0
 20
0
 30
0.0
 70
     1
 40
0
 41
0
  0
VERTEX
  8
0
 10
0.998426
 20
0.17806
 30
0.0
 40
0
 41
0
  0
VERTEX
  8
0
 10
0.992296
 20
0.192654
 30
0.0
 40
0
 41
0
  0
VERTEX
  8
0
 10
0.97895
 20
0.197538
 30
0.0
 40
0
 41
0
  0
VERTEX
  8
0
 10
0.965549
 20
0.192654
 30
0.0
 40
0
 41
0
  0
VERTEX
  8
0
 10
0.959472
 20
0.17806
 30
0.0
 40
0
 41
0
  0
VERTEX
  8
0
 10
0.965549
 20
0.163411
 30
0.0
 40
0
 41
0
  0
VERTEX
  8
0
 10
0.97895
 20
0.158529
 30
0.0
 40
0
 41
0
  0
VERTEX
  8
0
 10
0.992296
 20
0.163411
 30
0.0
 40
0
 41
0
  0
VERTEX
  8
0
 10
0.998426
 20
0.17806
 30
0.0
 40
0
 41
0
  0
SEQEND
 8
0
  0
POLYLINE
  8
0
 62
     173
 66
     1
 10
0
 20
0
 30
0.0
 70
     1
 40
0
 41
0
  0
VERTEX
  8
0
 10
0.998426
 20
0.0780165
 30
0.0
 40
0
 41
0
  0
VERTEX
  8
0
 10
0.992296
 20
0.092665
 30
0.0
 40
0
 41
0
  0
VERTEX
  8
0
 10
0.97895
 20
0.0975478
 30
0.0
 40
0
 41
0
  0
VERTEX
  8
0
 10
0.965549
 20
0.092665
 30
0.0
 40
0
 41
0
  0
VERTEX
  8
0
 10
0.959472
 20
0.0780165
 30
0.0
 40
0
 41
0
  0
VERTEX
  8
0
 10
0.965549
 20
0.0633681
 30
0.0
 40
0
 41
0
  0
VERTEX
  8
0
 10
0.97895
 20
0.0584853
 30
0.0
 40
0
 41
0
  0
VERTEX
  8
0
 10
0.992296
 20
0.0633681
 30
0.0
 40
0
 41
0
  0
VERTEX
  8
0
 10
0.998426
 20
0.0780165
 30
0.0
 40
0
 41
0
  0
SEQEND
 8
0
  0
POLYLINE
  8
0
 62
     173
 66
     1
 10
0
 20
0
 30
0.0
 70
     1
 40
0
 41
0
  0
VERTEX
  8
0
 10
1.63374
 20
1.36882
 30
0.0
 40
0
 41
0
  0
VERTEX
  8
0
 10
1.62592
 20
1.38759
 30
0.0
 40
0
 41
0
  0
VERTEX
  8
0
 10
1.60872
 20
1.39388
 30
0.0
 40
0
 41
0
  0
VERTEX
  8
0
 10
1.59153
 20
1.38759
 30
0.0
 40
0
 41
0
  0
VERTEX
  8
0
 10
1.58376
 20
1.36882
 30
0.0
 40
0
 41
0
  0
VERTEX
  8
0
 10
1.59153
 20
1.3501
 30
0.0
 40
0
 41
0
  0
VERTEX
  8
0
 10
1.60872
 20
1.3438
 30
0.0
 40
0
 41
0
  0
VERTEX
  8
0
 10
1.62592
 20
1.3501
 30
0.0
 40
0
 41
0
  0
VERTEX
  8
0
 10
1.63374
 20
1.36882
 30
0.0
 40
0
 41
0
  0
SEQEND
 8
0
  0
POLYLINE
  8
0
 62
     173
 66
     1
 10
0
 20
0
 30
0.0
 70
     1
 40
0
 41
0
  0
VERTEX
  8
0
 10
2.49875
 20
1.43881
 30
0.0
 40
0
 41
0
  0
VERTEX
  8
0
 10
2.49089
 20
1.45757
 30
0.0
 40
0
 41
0
  0
VERTEX
  8
0
 10
2.47374
 20
1.46382
 30
0.0
 40
0
 41
0
  0
VERTEX
  8
0
 10
2.45654
 20
1.45757
 30
0.0
 40
0
 41
0
  0
VERTEX
  8
0
 10
2.44874
 20
1.43881
 30
0.0
 40
0
 41
0
  0
VERTEX
  8
0
 10
2.45654
 20
1.42008
 30
0.0
 40
0
 41
0
  0
VERTEX
  8
0
 10
2.47374
 20
1.41385
 30
0.0
 40
0
 41
0
  0
VERTEX
  8
0
 10
2.49089
 20
1.42008
 30
0.0
 40
0
 41
0
  0
VERTEX
  8
0
 10
2.49875
 20
1.43881
 30
0.0
 40
0
 41
0
  0
SEQEND
 8
0
  0
POLYLINE
  8
0
 62
     173
 66
     1
 10
0
 20
0
 30
0.0
 70
     1
 40
0
 41
0
  0
VERTEX
  8
0
 10
2.64378
 20
1.05377
 30
0.0
 40
0
 41
0
  0
VERTEX
  8
0
 10
2.6359
 20
1.07254
 30
0.0
 40
0
 41
0
  0
VERTEX
  8
0
 10
2.61876
 20
1.07883
 30
0.0
 40
0
 41
0
  0
VERTEX
  8
0
 10
2.60157
 20
1.07254
 30
0.0
 40
0
 41
0
  0
VERTEX
  8
0
 10
2.59375
 20
1.05377
 30
0.0
 40
0
 41
0
  0
VERTEX
  8
0
 10
2.60157
 20
1.0351
 30
0.0
 40
0
 41
0
  0
VERTEX
  8
0
 10
2.61876
 20
1.02886
 30
0.0
 40
0
 41
0
  0
VERTEX
  8
0
 10
2.6359
 20
1.0351
 30
0.0
 40
0
 41
0
  0
VERTEX
  8
0
 10
2.64378
 20
1.05377
 30
0.0
 40
0
 41
0
  0
SEQEND
 8
0
  0
POLYLINE
  8
0
 62
     173
 66
     1
 10
0
 20
0
 30
0.0
 70
     1
 40
0
 41
0
  0
VERTEX
  8
0
 10
0.759874
 20
1.85867
 30
0.0
 40
0
 41
0
  0
VERTEX
  8
0
 10
0.75
 20
1.88232
 30
0.0
 40
0
 41
0
  0
VERTEX
  8
0
 10
0.728353
 20
1.89025
 30
0.0
 40
0
 41
0
  0
VERTEX
  8
0
 10
0.706651
 20
1.88232
 30
0.0
 40
0
 41
0
  0
VERTEX
  8
0
 10
0.696832
 20
1.85867
 30
0.0
 40
0
 41
0
  0
VERTEX
  8
0
 10
0.706651
 20
1.83512
 30
0.0
 40
0
 41
0
  0
VERTEX
  8
0
 10
0.728353
 20
1.82726
 30
0.0
 40
0
 41
0
  0
VERTEX
  8
0
 10
0.75
 20
1.83512
 30
0.0
 40
0
 41
0
  0
VERTEX
  8
0
 10
0.759874
 20
1.85867
 30
0.0
 40
0
 41
0
  0
SEQEND
 8
0
  0
POLYLINE
  8
0
 62
     173
 66
     1
 10
0
 20
0
 30
0.0
 70
     1
 40
0
 41
0
  0
VERTEX
  8
0
 10
1.29037
 20
0.644097
 30
0.0
 40
0
 41
0
  0
VERTEX
  8
0
 10
1.28049
 20
0.667751
 30
0.0
 40
0
 41
0
  0
VERTEX
  8
0
 10
1.25884
 20
0.675618
 30
0.0
 40
0
 41
0
  0
VERTEX
  8
0
 10
1.2372
 20
0.667751
 30
0.0
 40
0
 41
0
  0
VERTEX
  8
0
 10
1.22738
 20
0.644097
 30
0.0
 40
0
 41
0
  0
VERTEX
  8
0
 10
1.2372
 20
0.620497
 30
0.0
 40
0
 41
0
  0
VERTEX
  8
0
 10
1.25884
 20
0.612631
 30
0.0
 40
0
 41
0
  0
VERTEX
  8
0
 10
1.28049
 20
0.620497
 30
0.0
 40
0
 41
0
  0
VERTEX
  8
0
 10
1.29037
 20
0.644097
 30
0.0
 40
0
 41
0
  0
SEQEND
 8
0
  0
POLYLINE
  8
0
 62
     173
 66
     1
 10
0
 20
0
 30
0.0
 70
     1
 40
0
 41
0
  0
VERTEX
  8
0
 10
1.29037
 20
0.0338542
 30
0.0
 40
0
 41
0
  0
VERTEX
  8
0
 10
1.28049
 20
0.0575087
 30
0.0
 40
0
 41
0
  0
VERTEX
  8
0
 10
1.25884
 20
0.0654297
 30
0.0
 40
0
 41
0
  0
VERTEX
  8
0
 10
1.2372
 20
0.0575087
 30
0.0
 40
0
 41
0
  0
VERTEX
  8
0
 10
1.22738
 20
0.0338542
 30
0.0
 40
0
 41
0
  0
VERTEX
  8
0
 10
1.2372
 20
0.0102539
 30
0.0
 40
0
 41
0
  0
VERTEX
  8
0
 10
1.25884
 20
0.00238715
 30
0.0
 40
0
 41
0
  0
VERTEX
  8
0
 10
1.28049
 20
0.0102539
 30
0.0
 40
0
 41
0
  0
VERTEX
  8
0
 10
1.29037
 20
0.0338542
 30
0.0
 40
0
 41
0
  0
SEQEND
 8
0
  0
POLYLINE
  8
0
 62
     173
 66
     1
 10
0
 20
0
 30
0.0
 70
     1
 40
0
 41
0
  0
VERTEX
  8
0
 10
1.37983
 20
1.85867
 30
0.0
 40
0
 41
0
  0
VERTEX
  8
0
 10
1.36995
 20
1.88232
 30
0.0
 40
0
 41
0
  0
VERTEX
  8
0
 10
1.34831
 20
1.89025
 30
0.0
 40
0
 41
0
  0
VERTEX
  8
0
 10
1.32666
 20
1.88232
 30
0.0
 40
0
 41
0
  0
VERTEX
  8
0
 10
1.31684
 20
1.85867
 30
0.0
 40
0
 41
0
  0
VERTEX
  8
0
 10
1.32666
 20
1.83512
 30
0.0
 40
0
 41
0
  0
VERTEX
  8
0
 10
1.34831
 20
1.82726
 30
0.0
 40
0
 41
0
  0
VERTEX
  8
0
 10
1.36995
 20
1.83512
 30
0.0
 40
0
 41
0
  0
VERTEX
  8
0
 10
1.37983
 20
1.85867
 30
0.0
 40
0
 41
0
  0
SEQEND
 8
0
  0
POLYLINE
  8
0
 62
     173
 66
     1
 10
0
 20
0
 30
0.0
 70
     1
 40
0
 41
0
  0
VERTEX
  8
0
 10
1.48486
 20
1.85867
 30
0.0
 40
0
 41
0
  0
VERTEX
  8
0
 10
1.47499
 20
1.88232
 30
0.0
 40
0
 41
0
  0
VERTEX
  8
0
 10
1.45335
 20
1.89025
 30
0.0
 40
0
 41
0
  0
VERTEX
  8
0
 10
1.43169
 20
1.88232
 30
0.0
 40
0
 41
0
  0
VERTEX
  8
0
 10
1.42188
 20
1.85867
 30
0.0
 40
0
 41
0
  0
VERTEX
  8
0
 10
1.43169
 20
1.83512
 30
0.0
 40
0
 41
0
  0
VERTEX
  8
0
 10
1.45335
 20
1.82726
 30
0.0
 40
0
 41
0
  0
VERTEX
  8
0
 10
1.47499
 20
1.83512
 30
0.0
 40
0
 41
0
  0
VERTEX
  8
0
 10
1.48486
 20
1.85867
 30
0.0
 40
0
 41
0
  0
SEQEND
 8
0
  0
POLYLINE
  8
0
 62
     173
 66
     1
 10
0
 20
0
 30
0.0
 70
     1
 40
0
 41
0
  0
VERTEX
  8
0
 10
2.10487
 20
1.85867
 30
0.0
 40
0
 41
0
  0
VERTEX
  8
0
 10
2.095
 20
1.88232
 30
0.0
 40
0
 41
0
  0
VERTEX
  8
0
 10
2.07335
 20
1.89025
 30
0.0
 40
0
 41
0
  0
VERTEX
  8
0
 10
2.05165
 20
1.88232
 30
0.0
 40
0
 41
0
  0
VERTEX
  8
0
 10
2.04183
 20
1.85867
 30
0.0
 40
0
 41
0
  0
VERTEX
  8
0
 10
2.05165
 20
1.83512
 30
0.0
 40
0
 41
0
  0
VERTEX
  8
0
 10
2.07335
 20
1.82726
 30
0.0
 40
0
 41
0
  0
VERTEX
  8
0
 10
2.095
 20
1.83512
 30
0.0
 40
0
 41
0
  0
VERTEX
  8
0
 10
2.10487
 20
1.85867
 30
0.0
 40
0
 41
0
  0
SEQEND
 8
0
  0
POLYLINE
  8
0
 62
     173
 66
     1
 10
0
 20
0
 30
0.0
 70
     1
 40
0
 41
0
  0
VERTEX
  8
0
 10
2.20985
 20
1.85867
 30
0.0
 40
0
 41
0
  0
VERTEX
  8
0
 10
2.19997
 20
1.88232
 30
0.0
 40
0
 41
0
  0
VERTEX
  8
0
 10
2.17833
 20
1.89025
 30
0.0
 40
0
 41
0
  0
VERTEX
  8
0
 10
2.15668
 20
1.88232
 30
0.0
 40
0
 41
0
  0
VERTEX
  8
0
 10
2.14686
 20
1.85867
 30
0.0
 40
0
 41
0
  0
VERTEX
  8
0
 10
2.15668
 20
1.83512
 30
0.0
 40
0
 41
0
  0
VERTEX
  8
0
 10
2.17833
 20
1.82726
 30
0.0
 40
0
 41
0
  0
VERTEX
  8
0
 10
2.19997
 20
1.83512
 30
0.0
 40
0
 41
0
  0
VERTEX
  8
0
 10
2.20985
 20
1.85867
 30
0.0
 40
0
 41
0
  0
SEQEND
 8
0
  0
POLYLINE
  8
0
 62
     173
 66
     1
 10
0
 20
0
 30
0.0
 70
     1
 40
0
 41
0
  0
VERTEX
  8
0
 10
2.82986
 20
1.85867
 30
0.0
 40
0
 41
0
  0
VERTEX
  8
0
 10
2.81999
 20
1.88232
 30
0.0
 40
0
 41
0
  0
VERTEX
  8
0
 10
2.79833
 20
1.89025
 30
0.0
 40
0
 41
0
  0
VERTEX
  8
0
 10
2.77669
 20
1.88232
 30
0.0
 40
0
 41
0
  0
VERTEX
  8
0
 10
2.76687
 20
1.85867
 30
0.0
 40
0
 41
0
  0
VERTEX
  8
0
 10
2.77669
 20
1.83512
 30
0.0
 40
0
 41
0
  0
VERTEX
  8
0
 10
2.79833
 20
1.82726
 30
0.0
 40
0
 41
0
  0
VERTEX
  8
0
 10
2.81999
 20
1.83512
 30
0.0
 40
0
 41
0
  0
VERTEX
  8
0
 10
2.82986
 20
1.85867
 30
0.0
 40
0
 41
0
  0
SEQEND
 8
0
  0
POLYLINE
  8
0
 62
     173
 66
     1
 10
0
 20
0
 30
0.0
 70
     1
 40
0
 41
0
  0
VERTEX
  8
0
 10
1.20177
 20
0.563803
 30
0.0
 40
0
 41
0
  0
VERTEX
  8
0
 10
1.19634
 20
0.591417
 30
0.0
 40
0
 41
0
  0
VERTEX
  8
0
 10
1.18207
 20
0.611111
 30
0.0
 40
0
 41
0
  0
VERTEX
  8
0
 10
1.16184
 20
0.622939
 30
0.0
 40
0
 41
0
  0
VERTEX
  8
0
 10
1.13873
 20
0.626844
 30
0.0
 40
0
 41
0
  0
VERTEX
  8
0
 10
1.11561
 20
0.622939
 30
0.0
 40
0
 41
0
  0
VERTEX
  8
0
 10
1.09538
 20
0.611111
 30
0.0
 40
0
 41
0
  0
VERTEX
  8
0
 10
1.08111
 20
0.591417
 30
0.0
 40
0
 41
0
  0
VERTEX
  8
0
 10
1.07574
 20
0.563803
 30
0.0
 40
0
 41
0
  0
VERTEX
  8
0
 10
1.08111
 20
0.536242
 30
0.0
 40
0
 41
0
  0
VERTEX
  8
0
 10
1.09538
 20
0.516547
 30
0.0
 40
0
 41
0
  0
VERTEX
  8
0
 10
1.11561
 20
0.504719
 30
0.0
 40
0
 41
0
  0
VERTEX
  8
0
 10
1.13873
 20
0.500814
 30
0.0
 40
0
 41
0
  0
VERTEX
  8
0
 10
1.16184
 20
0.504719
 30
0.0
 40
0
 41
0
  0
VERTEX
  8
0
 10
1.18207
 20
0.516547
 30
0.0
 40
0
 41
0
  0
VERTEX
  8
0
 10
1.19634
 20
0.536242
 30
0.0
 40
0
 41
0
  0
VERTEX
  8
0
 10
1.20177
 20
0.563803
 30
0.0
 40
0
 41
0
  0
SEQEND
 8
0
  0
POLYLINE
  8
0
 62
     173
 66
     1
 10
0
 20
0
 30
0.0
 70
     1
 40
0
 41
0
  0
VERTEX
  8
0
 10
1.20177
 20
0.113824
 30
0.0
 40
0
 41
0
  0
VERTEX
  8
0
 10
1.19634
 20
0.141385
 30
0.0
 40
0
 41
0
  0
VERTEX
  8
0
 10
1.18207
 20
0.161079
 30
0.0
 40
0
 41
0
  0
VERTEX
  8
0
 10
1.16184
 20
0.172906
 30
0.0
 40
0
 41
0
  0
VERTEX
  8
0
 10
1.13873
 20
0.176813
 30
0.0
 40
0
 41
0
  0
VERTEX
  8
0
 10
1.11561
 20
0.172906
 30
0.0
 40
0
 41
0
  0
VERTEX
  8
0
 10
1.09538
 20
0.161079
 30
0.0
 40
0
 41
0
  0
VERTEX
  8
0
 10
1.08111
 20
0.141385
 30
0.0
 40
0
 41
0
  0
VERTEX
  8
0
 10
1.07574
 20
0.113824
 30
0.0
 40
0
 41
0
  0
VERTEX
  8
0
 10
1.08111
 20
0.0863172
 30
0.0
 40
0
 41
0
  0
VERTEX
  8
0
 10
1.09538
 20
0.0666233
 30
0.0
 40
0
 41
0
  0
VERTEX
  8
0
 10
1.11561
 20
0.054796
 30
0.0
 40
0
 41
0
  0
VERTEX
  8
0
 10
1.13873
 20
0.0508356
 30
0.0
 40
0
 41
0
  0
VERTEX
  8
0
 10
1.16184
 20
0.054796
 30
0.0
 40
0
 41
0
  0
VERTEX
  8
0
 10
1.18207
 20
0.0666233
 30
0.0
 40
0
 41
0
  0
VERTEX
  8
0
 10
1.19634
 20
0.0863172
 30
0.0
 40
0
 41
0
  0
VERTEX
  8
0
 10
1.20177
 20
0.113824
 30
0.0
 40
0
 41
0
  0
SEQEND
 8
0
  0
POLYLINE
  8
0
 62
     173
 66
     1
 10
0
 20
0
 30
0.0
 70
     1
 40
0
 41
0
  0
VERTEX
  8
0
 10
0.877767
 20
1.97885
 30
0.0
 40
0
 41
0
  0
VERTEX
  8
0
 10
0.872233
 20
2.00683
 30
0.0
 40
0
 41
0
  0
VERTEX
  8
0
 10
0.857747
 20
2.02686
 30
0.0
 40
0
 41
0
  0
VERTEX
  8
0
 10
0.83724
 20
2.03885
 30
0.0
 40
0
 41
0
  0
VERTEX
  8
0
 10
0.813747
 20
2.04281
 30
0.0
 40
0
 41
0
  0
VERTEX
  8
0
 10
0.790201
 20
2.03885
 30
0.0
 40
0
 41
0
  0
VERTEX
  8
0
 10
0.769694
 20
2.02686
 30
0.0
 40
0
 41
0
  0
VERTEX
  8
0
 10
0.755208
 20
2.00683
 30
0.0
 40
0
 41
0
  0
VERTEX
  8
0
 10
0.749729
 20
1.97885
 30
0.0
 40
0
 41
0
  0
VERTEX
  8
0
 10
0.755208
 20
1.95085
 30
0.0
 40
0
 41
0
  0
VERTEX
  8
0
 10
0.769694
 20
1.93087
 30
0.0
 40
0
 41
0
  0
VERTEX
  8
0
 10
0.790201
 20
1.91883
 30
0.0
 40
0
 41
0
  0
VERTEX
  8
0
 10
0.813747
 20
1.91488
 30
0.0
 40
0
 41
0
  0
VERTEX
  8
0
 10
0.83724
 20
1.91883
 30
0.0
 40
0
 41
0
  0
VERTEX
  8
0
 10
0.857747
 20
1.93087
 30
0.0
 40
0
 41
0
  0
VERTEX
  8
0
 10
0.872233
 20
1.95085
 30
0.0
 40
0
 41
0
  0
VERTEX
  8
0
 10
0.877767
 20
1.97885
 30
0.0
 40
0
 41
0
  0
SEQEND
 8
0
  0
POLYLINE
  8
0
 62
     173
 66
     1
 10
0
 20
0
 30
0.0
 70
     1
 40
0
 41
0
  0
VERTEX
  8
0
 10
1.32775
 20
1.97885
 30
0.0
 40
0
 41
0
  0
VERTEX
  8
0
 10
1.32221
 20
2.00683
 30
0.0
 40
0
 41
0
  0
VERTEX
  8
0
 10
1.30773
 20
2.02686
 30
0.0
 40
0
 41
0
  0
VERTEX
  8
0
 10
1.28722
 20
2.03885
 30
0.0
 40
0
 41
0
  0
VERTEX
  8
0
 10
1.26373
 20
2.04281
 30
0.0
 40
0
 41
0
  0
VERTEX
  8
0
 10
1.24023
 20
2.03885
 30
0.0
 40
0
 41
0
  0
VERTEX
  8
0
 10
1.21973
 20
2.02686
 30
0.0
 40
0
 41
0
  0
VERTEX
  8
0
 10
1.20524
 20
2.00683
 30
0.0
 40
0
 41
0
  0
VERTEX
  8
0
 10
1.19976
 20
1.97885
 30
0.0
 40
0
 41
0
  0
VERTEX
  8
0
 10
1.20524
 20
1.95085
 30
0.0
 40
0
 41
0
  0
VERTEX
  8
0
 10
1.21973
 20
1.93087
 30
0.0
 40
0
 41
0
  0
VERTEX
  8
0
 10
1.24023
 20
1.91883
 30
0.0
 40
0
 41
0
  0
VERTEX
  8
0
 10
1.26373
 20
1.91488
 30
0.0
 40
0
 41
0
  0
VERTEX
  8
0
 10
1.28722
 20
1.91883
 30
0.0
 40
0
 41
0
  0
VERTEX
  8
0
 10
1.30773
 20
1.93087
 30
0.0
 40
0
 41
0
  0
VERTEX
  8
0
 10
1.32221
 20
1.95085
 30
0.0
 40
0
 41
0
  0
VERTEX
  8
0
 10
1.32775
 20
1.97885
 30
0.0
 40
0
 41
0
  0
SEQEND
 8
0
  0
POLYLINE
  8
0
 62
     173
 66
     1
 10
0
 20
0
 30
0.0
 70
     1
 40
0
 41
0
  0
VERTEX
  8
0
 10
1.60275
 20
1.97885
 30
0.0
 40
0
 41
0
  0
VERTEX
  8
0
 10
1.59722
 20
2.00683
 30
0.0
 40
0
 41
0
  0
VERTEX
  8
0
 10
1.58274
 20
2.02686
 30
0.0
 40
0
 41
0
  0
VERTEX
  8
0
 10
1.56222
 20
2.03885
 30
0.0
 40
0
 41
0
  0
VERTEX
  8
0
 10
1.53874
 20
2.04281
 30
0.0
 40
0
 41
0
  0
VERTEX
  8
0
 10
1.51525
 20
2.03885
 30
0.0
 40
0
 41
0
  0
VERTEX
  8
0
 10
1.49474
 20
2.02686
 30
0.0
 40
0
 41
0
  0
VERTEX
  8
0
 10
1.48025
 20
2.00683
 30
0.0
 40
0
 41
0
  0
VERTEX
  8
0
 10
1.47478
 20
1.97885
 30
0.0
 40
0
 41
0
  0
VERTEX
  8
0
 10
1.48025
 20
1.95085
 30
0.0
 40
0
 41
0
  0
VERTEX
  8
0
 10
1.49474
 20
1.93087
 30
0.0
 40
0
 41
0
  0
VERTEX
  8
0
 10
1.51525
 20
1.91883
 30
0.0
 40
0
 41
0
  0
VERTEX
  8
0
 10
1.53874
 20
1.91488
 30
0.0
 40
0
 41
0
  0
VERTEX
  8
0
 10
1.56222
 20
1.91883
 30
0.0
 40
0
 41
0
  0
VERTEX
  8
0
 10
1.58274
 20
1.93087
 30
0.0
 40
0
 41
0
  0
VERTEX
  8
0
 10
1.59722
 20
1.95085
 30
0.0
 40
0
 41
0
  0
VERTEX
  8
0
 10
1.60275
 20
1.97885
 30
0.0
 40
0
 41
0
  0
SEQEND
 8
0
  0
POLYLINE
  8
0
 62
     173
 66
     1
 10
0
 20
0
 30
0.0
 70
     1
 40
0
 41
0
  0
VERTEX
  8
0
 10
2.05274
 20
1.97885
 30
0.0
 40
0
 41
0
  0
VERTEX
  8
0
 10
2.04719
 20
2.00683
 30
0.0
 40
0
 41
0
  0
VERTEX
  8
0
 10
2.03271
 20
2.02686
 30
0.0
 40
0
 41
0
  0
VERTEX
  8
0
 10
2.01221
 20
2.03885
 30
0.0
 40
0
 41
0
  0
VERTEX
  8
0
 10
1.98872
 20
2.04281
 30
0.0
 40
0
 41
0
  0
VERTEX
  8
0
 10
1.96522
 20
2.03885
 30
0.0
 40
0
 41
0
  0
VERTEX
  8
0
 10
1.94472
 20
2.02686
 30
0.0
 40
0
 41
0
  0
VERTEX
  8
0
 10
1.93024
 20
2.00683
 30
0.0
 40
0
 41
0
  0
VERTEX
  8
0
 10
1.92475
 20
1.97885
 30
0.0
 40
0
 41
0
  0
VERTEX
  8
0
 10
1.93024
 20
1.95085
 30
0.0
 40
0
 41
0
  0
VERTEX
  8
0
 10
1.94472
 20
1.93087
 30
0.0
 40
0
 41
0
  0
VERTEX
  8
0
 10
1.96522
 20
1.91883
 30
0.0
 40
0
 41
0
  0
VERTEX
  8
0
 10
1.98872
 20
1.91488
 30
0.0
 40
0
 41
0
  0
VERTEX
  8
0
 10
2.01221
 20
1.91883
 30
0.0
 40
0
 41
0
  0
VERTEX
  8
0
 10
2.03271
 20
1.93087
 30
0.0
 40
0
 41
0
  0
VERTEX
  8
0
 10
2.04719
 20
1.95085
 30
0.0
 40
0
 41
0
  0
VERTEX
  8
0
 10
2.05274
 20
1.97885
 30
0.0
 40
0
 41
0
  0
SEQEND
 8
0
  0
POLYLINE
  8
0
 62
     173
 66
     1
 10
0
 20
0
 30
0.0
 70
     1
 40
0
 41
0
  0
VERTEX
  8
0
 10
2.32775
 20
1.97885
 30
0.0
 40
0
 41
0
  0
VERTEX
  8
0
 10
2.32221
 20
2.00683
 30
0.0
 40
0
 41
0
  0
VERTEX
  8
0
 10
2.30772
 20
2.02686
 30
0.0
 40
0
 41
0
  0
VERTEX
  8
0
 10
2.28722
 20
2.03885
 30
0.0
 40
0
 41
0
  0
VERTEX
  8
0
 10
2.26372
 20
2.04281
 30
0.0
 40
0
 41
0
  0
VERTEX
  8
0
 10
2.24024
 20
2.03885
 30
0.0
 40
0
 41
0
  0
VERTEX
  8
0
 10
2.21972
 20
2.02686
 30
0.0
 40
0
 41
0
  0
VERTEX
  8
0
 10
2.20524
 20
2.00683
 30
0.0
 40
0
 41
0
  0
VERTEX
  8
0
 10
2.19976
 20
1.97885
 30
0.0
 40
0
 41
0
  0
VERTEX
  8
0
 10
2.20524
 20
1.95085
 30
0.0
 40
0
 41
0
  0
VERTEX
  8
0
 10
2.21972
 20
1.93087
 30
0.0
 40
0
 41
0
  0
VERTEX
  8
0
 10
2.24024
 20
1.91883
 30
0.0
 40
0
 41
0
  0
VERTEX
  8
0
 10
2.26372
 20
1.91488
 30
0.0
 40
0
 41
0
  0
VERTEX
  8
0
 10
2.28722
 20
1.91883
 30
0.0
 40
0
 41
0
  0
VERTEX
  8
0
 10
2.30772
 20
1.93087
 30
0.0
 40
0
 41
0
  0
VERTEX
  8
0
 10
2.32221
 20
1.95085
 30
0.0
 40
0
 41
0
  0
VERTEX
  8
0
 10
2.32775
 20
1.97885
 30
0.0
 40
0
 41
0
  0
SEQEND
 8
0
  0
POLYLINE
  8
0
 62
     173
 66
     1
 10
0
 20
0
 30
0.0
 70
     1
 40
0
 41
0
  0
VERTEX
  8
0
 10
2.77778
 20
1.97885
 30
0.0
 40
0
 41
0
  0
VERTEX
  8
0
 10
2.77225
 20
2.00683
 30
0.0
 40
0
 41
0
  0
VERTEX
  8
0
 10
2.75776
 20
2.02686
 30
0.0
 40
0
 41
0
  0
VERTEX
  8
0
 10
2.73725
 20
2.03885
 30
0.0
 40
0
 41
0
  0
VERTEX
  8
0
 10
2.71376
 20
2.04281
 30
0.0
 40
0
 41
0
  0
VERTEX
  8
0
 10
2.69021
 20
2.03885
 30
0.0
 40
0
 41
0
  0
VERTEX
  8
0
 10
2.66971
 20
2.02686
 30
0.0
 40
0
 41
0
  0
VERTEX
  8
0
 10
2.65522
 20
2.00683
 30
0.0
 40
0
 41
0
  0
VERTEX
  8
0
 10
2.64974
 20
1.97885
 30
0.0
 40
0
 41
0
  0
VERTEX
  8
0
 10
2.65522
 20
1.95085
 30
0.0
 40
0
 41
0
  0
VERTEX
  8
0
 10
2.66971
 20
1.93087
 30
0.0
 40
0
 41
0
  0
VERTEX
  8
0
 10
2.69021
 20
1.91883
 30
0.0
 40
0
 41
0
  0
VERTEX
  8
0
 10
2.71376
 20
1.91488
 30
0.0
 40
0
 41
0
  0
VERTEX
  8
0
 10
2.73725
 20
1.91883
 30
0.0
 40
0
 41
0
  0
VERTEX
  8
0
 10
2.75776
 20
1.93087
 30
0.0
 40
0
 41
0
  0
VERTEX
  8
0
 10
2.77225
 20
1.95085
 30
0.0
 40
0
 41
0
  0
VERTEX
  8
0
 10
2.77778
 20
1.97885
 30
0.0
 40
0
 41
0
  0
SEQEND
 8
0
  0
ENDSEC
  0
EOF
