<?xml version="1.0" encoding="UTF-8"?>
<svg xmlns="http://www.w3.org/2000/svg" xmlns:xlink="http://www.w3.org/1999/xlink" width="211pt" height="177pt" viewBox="0 0 211 177" version="1.1">
<g id="surface1">
<path style="fill:none;stroke-width:0.006;stroke-linecap:round;stroke-linejoin:miter;stroke:rgb(100%,49.803922%,45.098039%);stroke-opacity:1;stroke-miterlimit:10;" d="M 0.00498491 3.439987 L 0.00498491 2.955015 " transform="matrix(72,0,0,-72,4.88718,324.421263)"/>
<path style="fill:none;stroke-width:0.006;stroke-linecap:round;stroke-linejoin:miter;stroke:rgb(100%,49.803922%,45.098039%);stroke-opacity:1;stroke-miterlimit:10;" d="M 0.00498491 3.439987 L 0.545024 3.439987 " transform="matrix(72,0,0,-72,4.88718,324.421263)"/>
<path style="fill:none;stroke-width:0.006;stroke-linecap:round;stroke-linejoin:miter;stroke:rgb(100%,49.803922%,45.098039%);stroke-opacity:1;stroke-miterlimit:10;" d="M 0.545024 3.439987 L 0.629985 3.525002 " transform="matrix(72,0,0,-72,4.88718,324.421263)"/>
<path style="fill:none;stroke-width:0.006;stroke-linecap:round;stroke-linejoin:miter;stroke:rgb(100%,49.803922%,45.098039%);stroke-opacity:1;stroke-miterlimit:10;" d="M 0.629985 3.525002 L 0.629985 3.76502 " transform="matrix(72,0,0,-72,4.88718,324.421263)"/>
<path style=" stroke:none;fill-rule:evenodd;fill:rgb(45.098039%,45.098039%,87.058824%);fill-opacity:1;" d="M 35.957031 95.101562 C 35.957031 94.476562 35.019531 94.476562 35.019531 95.101562 C 35.019531 95.726562 35.957031 95.726562 35.957031 95.101562 "/>
<path style=" stroke:none;fill-rule:evenodd;fill:rgb(45.098039%,45.098039%,87.058824%);fill-opacity:1;" d="M 40.636719 83.582031 C 40.636719 82.957031 39.699219 82.957031 39.699219 83.582031 C 39.699219 84.207031 40.636719 84.207031 40.636719 83.582031 "/>
<path style=" stroke:none;fill-rule:evenodd;fill:rgb(45.098039%,45.098039%,87.058824%);fill-opacity:1;" d="M 44.957031 81.421875 C 44.957031 80.796875 44.019531 80.796875 44.019531 81.421875 C 44.019531 82.046875 44.957031 82.046875 44.957031 81.421875 "/>
<path style=" stroke:none;fill-rule:evenodd;fill:rgb(45.098039%,45.098039%,87.058824%);fill-opacity:1;" d="M 47.113281 93.300781 C 47.113281 92.675781 46.179688 92.675781 46.179688 93.300781 C 46.179688 93.925781 47.113281 93.925781 47.113281 93.300781 "/>
<path style=" stroke:none;fill-rule:evenodd;fill:rgb(45.098039%,45.098039%,87.058824%);fill-opacity:1;" d="M 54.675781 88.621094 C 54.675781 87.996094 53.738281 87.996094 53.738281 88.621094 C 53.738281 89.246094 54.675781 89.246094 54.675781 88.621094 "/>
<path style=" stroke:none;fill-rule:evenodd;fill:rgb(45.098039%,45.098039%,87.058824%);fill-opacity:1;" d="M 54.675781 93.660156 C 54.675781 93.039062 53.738281 93.039062 53.738281 93.660156 C 53.738281 94.285156 54.675781 94.285156 54.675781 93.660156 "/>
<path style=" stroke:none;fill-rule:evenodd;fill:rgb(45.098039%,45.098039%,87.058824%);fill-opacity:1;" d="M 55.035156 111.300781 C 55.035156 110.675781 54.097656 110.675781 54.097656 111.300781 C 54.097656 111.925781 55.035156 111.925781 55.035156 111.300781 "/>
<path style=" stroke:none;fill-rule:evenodd;fill:rgb(45.098039%,45.098039%,87.058824%);fill-opacity:1;" d="M 56.835938 64.5 C 56.835938 63.878906 55.898438 63.878906 55.898438 64.5 C 55.898438 65.125 56.835938 65.125 56.835938 64.5 "/>
<path style=" stroke:none;fill-rule:evenodd;fill:rgb(45.098039%,45.098039%,87.058824%);fill-opacity:1;" d="M 62.234375 88.621094 C 62.234375 87.996094 61.300781 87.996094 61.300781 88.621094 C 61.300781 89.246094 62.234375 89.246094 62.234375 88.621094 "/>
<path style=" stroke:none;fill-rule:evenodd;fill:rgb(45.098039%,45.098039%,87.058824%);fill-opacity:1;" d="M 62.957031 48.300781 C 62.957031 47.675781 62.019531 47.675781 62.019531 48.300781 C 62.019531 48.925781 62.957031 48.925781 62.957031 48.300781 "/>
<path style=" stroke:none;fill-rule:evenodd;fill:rgb(45.098039%,45.098039%,87.058824%);fill-opacity:1;" d="M 63.675781 66.230469 C 63.675781 65.605469 62.738281 65.605469 62.738281 66.230469 C 62.738281 66.851562 63.675781 66.851562 63.675781 66.230469 "/>
<path style=" stroke:none;fill-rule:evenodd;fill:rgb(45.098039%,45.098039%,87.058824%);fill-opacity:1;" d="M 63.675781 70.621094 C 63.675781 69.996094 62.738281 69.996094 62.738281 70.621094 C 62.738281 71.246094 63.675781 71.246094 63.675781 70.621094 "/>
<path style=" stroke:none;fill-rule:evenodd;fill:rgb(45.098039%,45.098039%,87.058824%);fill-opacity:1;" d="M 63.675781 75.011719 C 63.675781 74.390625 62.738281 74.390625 62.738281 75.011719 C 62.738281 75.636719 63.675781 75.636719 63.675781 75.011719 "/>
<path style=" stroke:none;fill-rule:evenodd;fill:rgb(45.098039%,45.098039%,87.058824%);fill-opacity:1;" d="M 65.476562 105.542969 C 65.476562 104.917969 64.539062 104.917969 64.539062 105.542969 C 64.539062 106.164062 65.476562 106.164062 65.476562 105.542969 "/>
<path style=" stroke:none;fill-rule:evenodd;fill:rgb(45.098039%,45.098039%,87.058824%);fill-opacity:1;" d="M 67.636719 92.582031 C 67.636719 91.957031 66.699219 91.957031 66.699219 92.582031 C 66.699219 93.207031 67.636719 93.207031 67.636719 92.582031 "/>
<path style=" stroke:none;fill-rule:evenodd;fill:rgb(45.098039%,45.098039%,87.058824%);fill-opacity:1;" d="M 68.355469 73.140625 C 68.355469 72.515625 67.417969 72.515625 67.417969 73.140625 C 67.417969 73.765625 68.355469 73.765625 68.355469 73.140625 "/>
<path style=" stroke:none;fill-rule:evenodd;fill:rgb(45.098039%,45.098039%,87.058824%);fill-opacity:1;" d="M 70.15625 76.742188 C 70.15625 76.117188 69.21875 76.117188 69.21875 76.742188 C 69.21875 77.367188 70.15625 77.367188 70.15625 76.742188 "/>
<path style=" stroke:none;fill-rule:evenodd;fill:rgb(45.098039%,45.098039%,87.058824%);fill-opacity:1;" d="M 71.234375 132.902344 C 71.234375 132.277344 70.300781 132.277344 70.300781 132.902344 C 70.300781 133.523438 71.234375 133.523438 71.234375 132.902344 "/>
<path style=" stroke:none;fill-rule:evenodd;fill:rgb(45.098039%,45.098039%,87.058824%);fill-opacity:1;" d="M 72.675781 84.300781 C 72.675781 83.675781 71.738281 83.675781 71.738281 84.300781 C 71.738281 84.925781 72.675781 84.925781 72.675781 84.300781 "/>
<path style=" stroke:none;fill-rule:evenodd;fill:rgb(45.098039%,45.098039%,87.058824%);fill-opacity:1;" d="M 72.675781 93.660156 C 72.675781 93.039062 71.738281 93.039062 71.738281 93.660156 C 71.738281 94.285156 72.675781 94.285156 72.675781 93.660156 "/>
<path style=" stroke:none;fill-rule:evenodd;fill:rgb(45.098039%,45.098039%,87.058824%);fill-opacity:1;" d="M 73.035156 68.101562 C 73.035156 67.476562 72.097656 67.476562 72.097656 68.101562 C 72.097656 68.726562 73.035156 68.726562 73.035156 68.101562 "/>
<path style=" stroke:none;fill-rule:evenodd;fill:rgb(45.098039%,45.098039%,87.058824%);fill-opacity:1;" d="M 73.394531 78.902344 C 73.394531 78.277344 72.460938 78.277344 72.460938 78.902344 C 72.460938 79.523438 73.394531 79.523438 73.394531 78.902344 "/>
<path style=" stroke:none;fill-rule:evenodd;fill:rgb(45.098039%,45.098039%,87.058824%);fill-opacity:1;" d="M 73.410156 145.773438 C 73.410156 145.152344 72.472656 145.152344 72.472656 145.773438 C 72.472656 146.398438 73.410156 146.398438 73.410156 145.773438 "/>
<path style=" stroke:none;fill-rule:evenodd;fill:rgb(45.098039%,45.098039%,87.058824%);fill-opacity:1;" d="M 74.113281 15.542969 C 74.113281 14.917969 73.179688 14.917969 73.179688 15.542969 C 73.179688 16.164062 74.113281 16.164062 74.113281 15.542969 "/>
<path style=" stroke:none;fill-rule:evenodd;fill:rgb(45.098039%,45.098039%,87.058824%);fill-opacity:1;" d="M 74.113281 23.820312 C 74.113281 23.195312 73.179688 23.195312 73.179688 23.820312 C 73.179688 24.445312 74.113281 24.445312 74.113281 23.820312 "/>
<path style=" stroke:none;fill-rule:evenodd;fill:rgb(45.098039%,45.098039%,87.058824%);fill-opacity:1;" d="M 74.476562 81.421875 C 74.476562 80.796875 73.539062 80.796875 73.539062 81.421875 C 73.539062 82.046875 74.476562 82.046875 74.476562 81.421875 "/>
<path style=" stroke:none;fill-rule:evenodd;fill:rgb(45.098039%,45.098039%,87.058824%);fill-opacity:1;" d="M 75.554688 96.542969 C 75.554688 95.917969 74.621094 95.917969 74.621094 96.542969 C 74.621094 97.164062 75.554688 97.164062 75.554688 96.542969 "/>
<path style=" stroke:none;fill-rule:evenodd;fill:rgb(45.098039%,45.098039%,87.058824%);fill-opacity:1;" d="M 75.914062 29.941406 C 75.914062 29.316406 74.980469 29.316406 74.980469 29.941406 C 74.980469 30.566406 75.914062 30.566406 75.914062 29.941406 "/>
<path style=" stroke:none;fill-rule:evenodd;fill:rgb(45.098039%,45.098039%,87.058824%);fill-opacity:1;" d="M 75.914062 38.941406 C 75.914062 38.316406 74.980469 38.316406 74.980469 38.941406 C 74.980469 39.566406 75.914062 39.566406 75.914062 38.941406 "/>
<path style=" stroke:none;fill-rule:evenodd;fill:rgb(45.098039%,45.098039%,87.058824%);fill-opacity:1;" d="M 77.371094 171.335938 C 77.371094 170.710938 76.433594 170.710938 76.433594 171.335938 C 76.433594 171.957031 77.371094 171.957031 77.371094 171.335938 "/>
<path style=" stroke:none;fill-rule:evenodd;fill:rgb(45.098039%,45.098039%,87.058824%);fill-opacity:1;" d="M 77.714844 15.542969 C 77.714844 14.917969 76.777344 14.917969 76.777344 15.542969 C 76.777344 16.164062 77.714844 16.164062 77.714844 15.542969 "/>
<path style=" stroke:none;fill-rule:evenodd;fill:rgb(45.098039%,45.098039%,87.058824%);fill-opacity:1;" d="M 79.515625 29.941406 C 79.515625 29.316406 78.578125 29.316406 78.578125 29.941406 C 78.578125 30.566406 79.515625 30.566406 79.515625 29.941406 "/>
<path style=" stroke:none;fill-rule:evenodd;fill:rgb(45.098039%,45.098039%,87.058824%);fill-opacity:1;" d="M 79.765625 76.742188 C 79.765625 76.117188 78.832031 76.117188 78.832031 76.742188 C 78.832031 77.367188 79.765625 77.367188 79.765625 76.742188 "/>
<path style=" stroke:none;fill-rule:evenodd;fill:rgb(45.098039%,45.098039%,87.058824%);fill-opacity:1;" d="M 79.765625 79.261719 C 79.765625 78.636719 78.832031 78.636719 78.832031 79.261719 C 78.832031 79.886719 79.765625 79.886719 79.765625 79.261719 "/>
<path style=" stroke:none;fill-rule:evenodd;fill:rgb(45.098039%,45.098039%,87.058824%);fill-opacity:1;" d="M 79.875 65.222656 C 79.875 64.597656 78.9375 64.597656 78.9375 65.222656 C 78.9375 65.84375 79.875 65.84375 79.875 65.222656 "/>
<path style=" stroke:none;fill-rule:evenodd;fill:rgb(45.098039%,45.098039%,87.058824%);fill-opacity:1;" d="M 79.875 105.542969 C 79.875 104.917969 78.9375 104.917969 78.9375 105.542969 C 78.9375 106.164062 79.875 106.164062 79.875 105.542969 "/>
<path style=" stroke:none;fill-rule:evenodd;fill:rgb(45.098039%,45.098039%,87.058824%);fill-opacity:1;" d="M 81.316406 15.542969 C 81.316406 14.917969 80.378906 14.917969 80.378906 15.542969 C 80.378906 16.164062 81.316406 16.164062 81.316406 15.542969 "/>
<path style=" stroke:none;fill-rule:evenodd;fill:rgb(45.098039%,45.098039%,87.058824%);fill-opacity:1;" d="M 81.316406 23.820312 C 81.316406 23.195312 80.378906 23.195312 80.378906 23.820312 C 80.378906 24.445312 81.316406 24.445312 81.316406 23.820312 "/>
<path style=" stroke:none;fill-rule:evenodd;fill:rgb(45.098039%,45.098039%,87.058824%);fill-opacity:1;" d="M 81.675781 57.300781 C 81.675781 56.675781 80.738281 56.675781 80.738281 57.300781 C 80.738281 57.925781 81.675781 57.925781 81.675781 57.300781 "/>
<path style=" stroke:none;fill-rule:evenodd;fill:rgb(45.098039%,45.098039%,87.058824%);fill-opacity:1;" d="M 82.753906 38.941406 C 82.753906 38.316406 81.820312 38.316406 81.820312 38.941406 C 81.820312 39.566406 82.753906 39.566406 82.753906 38.941406 "/>
<path style=" stroke:none;fill-rule:evenodd;fill:rgb(45.098039%,45.098039%,87.058824%);fill-opacity:1;" d="M 83.367188 64.214844 C 83.367188 63.589844 82.429688 63.589844 82.429688 64.214844 C 82.429688 64.835938 83.367188 64.835938 83.367188 64.214844 "/>
<path style=" stroke:none;fill-rule:evenodd;fill:rgb(45.098039%,45.098039%,87.058824%);fill-opacity:1;" d="M 84.195312 72.421875 C 84.195312 71.796875 83.257812 71.796875 83.257812 72.421875 C 83.257812 73.046875 84.195312 73.046875 84.195312 72.421875 "/>
<path style=" stroke:none;fill-rule:evenodd;fill:rgb(45.098039%,45.098039%,87.058824%);fill-opacity:1;" d="M 84.210938 139.292969 C 84.210938 138.671875 83.273438 138.671875 83.273438 139.292969 C 83.273438 139.917969 84.210938 139.917969 84.210938 139.292969 "/>
<path style=" stroke:none;fill-rule:evenodd;fill:rgb(45.098039%,45.098039%,87.058824%);fill-opacity:1;" d="M 85.527344 94.019531 C 85.527344 93.398438 84.589844 93.398438 84.589844 94.019531 C 84.589844 94.644531 85.527344 94.644531 85.527344 94.019531 "/>
<path style=" stroke:none;fill-rule:evenodd;fill:rgb(45.098039%,45.098039%,87.058824%);fill-opacity:1;" d="M 85.816406 64.214844 C 85.816406 63.589844 84.878906 63.589844 84.878906 64.214844 C 84.878906 64.835938 85.816406 64.835938 85.816406 64.214844 "/>
<path style=" stroke:none;fill-rule:evenodd;fill:rgb(45.098039%,45.098039%,87.058824%);fill-opacity:1;" d="M 88.046875 94.019531 C 88.046875 93.398438 87.109375 93.398438 87.109375 94.019531 C 87.109375 94.644531 88.046875 94.644531 88.046875 94.019531 "/>
<path style=" stroke:none;fill-rule:evenodd;fill:rgb(45.098039%,45.098039%,87.058824%);fill-opacity:1;" d="M 88.261719 64.214844 C 88.261719 63.589844 87.328125 63.589844 87.328125 64.214844 C 87.328125 64.835938 88.261719 64.835938 88.261719 64.214844 "/>
<path style=" stroke:none;fill-rule:evenodd;fill:rgb(45.098039%,45.098039%,87.058824%);fill-opacity:1;" d="M 88.515625 125.703125 C 88.515625 125.078125 87.578125 125.078125 87.578125 125.703125 C 87.578125 126.324219 88.515625 126.324219 88.515625 125.703125 "/>
<path style=" stroke:none;fill-rule:evenodd;fill:rgb(45.098039%,45.098039%,87.058824%);fill-opacity:1;" d="M 90.675781 94.019531 C 90.675781 93.398438 89.738281 93.398438 89.738281 94.019531 C 89.738281 94.644531 90.675781 94.644531 90.675781 94.019531 "/>
<path style=" stroke:none;fill-rule:evenodd;fill:rgb(45.098039%,45.098039%,87.058824%);fill-opacity:1;" d="M 91.753906 72.78125 C 91.753906 72.15625 90.820312 72.15625 90.820312 72.78125 C 90.820312 73.40625 91.753906 73.40625 91.753906 72.78125 "/>
<path style=" stroke:none;fill-rule:evenodd;fill:rgb(45.098039%,45.098039%,87.058824%);fill-opacity:1;" d="M 92.835938 82.5 C 92.835938 81.878906 91.898438 81.878906 91.898438 82.5 C 91.898438 83.125 92.835938 83.125 92.835938 82.5 "/>
<path style=" stroke:none;fill-rule:evenodd;fill:rgb(45.098039%,45.098039%,87.058824%);fill-opacity:1;" d="M 94.273438 106.261719 C 94.273438 105.636719 93.339844 105.636719 93.339844 106.261719 C 93.339844 106.886719 94.273438 106.886719 94.273438 106.261719 "/>
<path style=" stroke:none;fill-rule:evenodd;fill:rgb(45.098039%,45.098039%,87.058824%);fill-opacity:1;" d="M 97.15625 56.582031 C 97.15625 55.957031 96.21875 55.957031 96.21875 56.582031 C 96.21875 57.207031 97.15625 57.207031 97.15625 56.582031 "/>
<path style=" stroke:none;fill-rule:evenodd;fill:rgb(45.098039%,45.098039%,87.058824%);fill-opacity:1;" d="M 98.609375 161.976562 C 98.609375 161.351562 97.671875 161.351562 97.671875 161.976562 C 97.671875 162.597656 98.609375 162.597656 98.609375 161.976562 "/>
<path style=" stroke:none;fill-rule:evenodd;fill:rgb(45.098039%,45.098039%,87.058824%);fill-opacity:1;" d="M 98.96875 146.496094 C 98.96875 145.871094 98.035156 145.871094 98.035156 146.496094 C 98.035156 147.117188 98.96875 147.117188 98.96875 146.496094 "/>
<path style=" stroke:none;fill-rule:evenodd;fill:rgb(45.098039%,45.098039%,87.058824%);fill-opacity:1;" d="M 99.316406 66.660156 C 99.316406 66.039062 98.378906 66.039062 98.378906 66.660156 C 98.378906 67.285156 99.316406 67.285156 99.316406 66.660156 "/>
<path style=" stroke:none;fill-rule:evenodd;fill:rgb(45.098039%,45.098039%,87.058824%);fill-opacity:1;" d="M 99.691406 171.695312 C 99.691406 171.070312 98.753906 171.070312 98.753906 171.695312 C 98.753906 172.320312 99.691406 172.320312 99.691406 171.695312 "/>
<path style=" stroke:none;fill-rule:evenodd;fill:rgb(45.098039%,45.098039%,87.058824%);fill-opacity:1;" d="M 100.035156 49.019531 C 100.035156 48.398438 99.097656 48.398438 99.097656 49.019531 C 99.097656 49.644531 100.035156 49.644531 100.035156 49.019531 "/>
<path style=" stroke:none;fill-rule:evenodd;fill:rgb(45.098039%,45.098039%,87.058824%);fill-opacity:1;" d="M 100.050781 132.09375 C 100.050781 131.472656 99.113281 131.472656 99.113281 132.09375 C 99.113281 132.71875 100.050781 132.71875 100.050781 132.09375 "/>
<path style=" stroke:none;fill-rule:evenodd;fill:rgb(45.098039%,45.098039%,87.058824%);fill-opacity:1;" d="M 101.476562 94.019531 C 101.476562 93.398438 100.539062 93.398438 100.539062 94.019531 C 100.539062 94.644531 101.476562 94.644531 101.476562 94.019531 "/>
<path style=" stroke:none;fill-rule:evenodd;fill:rgb(45.098039%,45.098039%,87.058824%);fill-opacity:1;" d="M 101.488281 167.375 C 101.488281 166.75 100.554688 166.75 100.554688 167.375 C 100.554688 168 101.488281 168 101.488281 167.375 "/>
<path style=" stroke:none;fill-rule:evenodd;fill:rgb(45.098039%,45.098039%,87.058824%);fill-opacity:1;" d="M 101.835938 80.339844 C 101.835938 79.71875 100.898438 79.71875 100.898438 80.339844 C 100.898438 80.964844 101.835938 80.964844 101.835938 80.339844 "/>
<path style=" stroke:none;fill-rule:evenodd;fill:rgb(45.098039%,45.098039%,87.058824%);fill-opacity:1;" d="M 102.210938 171.335938 C 102.210938 170.710938 101.273438 170.710938 101.273438 171.335938 C 101.273438 171.957031 102.210938 171.957031 102.210938 171.335938 "/>
<path style=" stroke:none;fill-rule:evenodd;fill:rgb(45.098039%,45.098039%,87.058824%);fill-opacity:1;" d="M 102.554688 74.222656 C 102.554688 73.597656 101.621094 73.597656 101.621094 74.222656 C 101.621094 74.84375 102.554688 74.84375 102.554688 74.222656 "/>
<path style=" stroke:none;fill-rule:evenodd;fill:rgb(45.098039%,45.098039%,87.058824%);fill-opacity:1;" d="M 103.996094 82.5 C 103.996094 81.878906 103.058594 81.878906 103.058594 82.5 C 103.058594 83.125 103.996094 83.125 103.996094 82.5 "/>
<path style=" stroke:none;fill-rule:evenodd;fill:rgb(45.098039%,45.098039%,87.058824%);fill-opacity:1;" d="M 103.996094 94.019531 C 103.996094 93.398438 103.058594 93.398438 103.058594 94.019531 C 103.058594 94.644531 103.996094 94.644531 103.996094 94.019531 "/>
<path style=" stroke:none;fill-rule:evenodd;fill:rgb(45.098039%,45.098039%,87.058824%);fill-opacity:1;" d="M 106.15625 84.660156 C 106.15625 84.039062 105.21875 84.039062 105.21875 84.660156 C 105.21875 85.285156 106.15625 85.285156 106.15625 84.660156 "/>
<path style=" stroke:none;fill-rule:evenodd;fill:rgb(45.098039%,45.098039%,87.058824%);fill-opacity:1;" d="M 106.515625 64.5 C 106.515625 63.878906 105.578125 63.878906 105.578125 64.5 C 105.578125 65.125 106.515625 65.125 106.515625 64.5 "/>
<path style=" stroke:none;fill-rule:evenodd;fill:rgb(45.098039%,45.098039%,87.058824%);fill-opacity:1;" d="M 109.035156 84.660156 C 109.035156 84.039062 108.097656 84.039062 108.097656 84.660156 C 108.097656 85.285156 109.035156 85.285156 109.035156 84.660156 "/>
<path style=" stroke:none;fill-rule:evenodd;fill:rgb(45.098039%,45.098039%,87.058824%);fill-opacity:1;" d="M 109.394531 60.902344 C 109.394531 60.277344 108.460938 60.277344 108.460938 60.902344 C 108.460938 61.523438 109.394531 61.523438 109.394531 60.902344 "/>
<path style=" stroke:none;fill-rule:evenodd;fill:rgb(45.098039%,45.098039%,87.058824%);fill-opacity:1;" d="M 109.648438 88.261719 C 109.648438 87.636719 108.710938 87.636719 108.710938 88.261719 C 108.710938 88.886719 109.648438 88.886719 109.648438 88.261719 "/>
<path style=" stroke:none;fill-rule:evenodd;fill:rgb(45.098039%,45.098039%,87.058824%);fill-opacity:1;" d="M 109.753906 91.5 C 109.753906 90.878906 108.820312 90.878906 108.820312 91.5 C 108.820312 92.125 109.753906 92.125 109.753906 91.5 "/>
<path style=" stroke:none;fill-rule:evenodd;fill:rgb(45.098039%,45.098039%,87.058824%);fill-opacity:1;" d="M 110.488281 128.855469 C 110.488281 128.230469 109.554688 128.230469 109.554688 128.855469 C 109.554688 129.480469 110.488281 129.480469 110.488281 128.855469 "/>
<path style=" stroke:none;fill-rule:evenodd;fill:rgb(45.098039%,45.098039%,87.058824%);fill-opacity:1;" d="M 115.15625 48.300781 C 115.15625 47.675781 114.21875 47.675781 114.21875 48.300781 C 114.21875 48.925781 115.15625 48.925781 115.15625 48.300781 "/>
<path style=" stroke:none;fill-rule:evenodd;fill:rgb(45.098039%,45.098039%,87.058824%);fill-opacity:1;" d="M 116.96875 142.894531 C 116.96875 142.269531 116.035156 142.269531 116.035156 142.894531 C 116.035156 143.519531 116.96875 143.519531 116.96875 142.894531 "/>
<path style=" stroke:none;fill-rule:evenodd;fill:rgb(45.098039%,45.098039%,87.058824%);fill-opacity:1;" d="M 116.96875 153.335938 C 116.96875 152.710938 116.035156 152.710938 116.035156 153.335938 C 116.035156 153.957031 116.96875 153.957031 116.96875 153.335938 "/>
<path style=" stroke:none;fill-rule:evenodd;fill:rgb(45.098039%,45.098039%,87.058824%);fill-opacity:1;" d="M 116.96875 156.574219 C 116.96875 155.949219 116.035156 155.949219 116.035156 156.574219 C 116.035156 157.199219 116.96875 157.199219 116.96875 156.574219 "/>
<path style=" stroke:none;fill-rule:evenodd;fill:rgb(45.098039%,45.098039%,87.058824%);fill-opacity:1;" d="M 116.96875 161.613281 C 116.96875 160.992188 116.035156 160.992188 116.035156 161.613281 C 116.035156 162.238281 116.96875 162.238281 116.96875 161.613281 "/>
<path style=" stroke:none;fill-rule:evenodd;fill:rgb(45.098039%,45.098039%,87.058824%);fill-opacity:1;" d="M 118.753906 67.019531 C 118.753906 66.398438 117.820312 66.398438 117.820312 67.019531 C 117.820312 67.644531 118.753906 67.644531 118.753906 67.019531 "/>
<path style=" stroke:none;fill-rule:evenodd;fill:rgb(45.098039%,45.098039%,87.058824%);fill-opacity:1;" d="M 119.113281 84.660156 C 119.113281 84.039062 118.179688 84.039062 118.179688 84.660156 C 118.179688 85.285156 119.113281 85.285156 119.113281 84.660156 "/>
<path style=" stroke:none;fill-rule:evenodd;fill:rgb(45.098039%,45.098039%,87.058824%);fill-opacity:1;" d="M 120.554688 63.421875 C 120.554688 62.796875 119.621094 62.796875 119.621094 63.421875 C 119.621094 64.046875 120.554688 64.046875 120.554688 63.421875 "/>
<path style=" stroke:none;fill-rule:evenodd;fill:rgb(45.098039%,45.098039%,87.058824%);fill-opacity:1;" d="M 120.554688 99.421875 C 120.554688 98.796875 119.621094 98.796875 119.621094 99.421875 C 119.621094 100.046875 120.554688 100.046875 120.554688 99.421875 "/>
<path style=" stroke:none;fill-rule:evenodd;fill:rgb(45.098039%,45.098039%,87.058824%);fill-opacity:1;" d="M 120.570312 142.894531 C 120.570312 142.269531 119.632812 142.269531 119.632812 142.894531 C 119.632812 143.519531 120.570312 143.519531 120.570312 142.894531 "/>
<path style=" stroke:none;fill-rule:evenodd;fill:rgb(45.098039%,45.098039%,87.058824%);fill-opacity:1;" d="M 124.15625 58.019531 C 124.15625 57.398438 123.21875 57.398438 123.21875 58.019531 C 123.21875 58.644531 124.15625 58.644531 124.15625 58.019531 "/>
<path style=" stroke:none;fill-rule:evenodd;fill:rgb(45.098039%,45.098039%,87.058824%);fill-opacity:1;" d="M 124.875 73.5 C 124.875 72.878906 123.9375 72.878906 123.9375 73.5 C 123.9375 74.125 124.875 74.125 124.875 73.5 "/>
<path style=" stroke:none;fill-rule:evenodd;fill:rgb(45.098039%,45.098039%,87.058824%);fill-opacity:1;" d="M 124.875 81.421875 C 124.875 80.796875 123.9375 80.796875 123.9375 81.421875 C 123.9375 82.046875 124.875 82.046875 124.875 81.421875 "/>
<path style=" stroke:none;fill-rule:evenodd;fill:rgb(45.098039%,45.098039%,87.058824%);fill-opacity:1;" d="M 124.875 87.902344 C 124.875 87.277344 123.9375 87.277344 123.9375 87.902344 C 123.9375 88.523438 124.875 88.523438 124.875 87.902344 "/>
<path style=" stroke:none;fill-rule:evenodd;fill:rgb(45.098039%,45.098039%,87.058824%);fill-opacity:1;" d="M 126.316406 15.542969 C 126.316406 14.917969 125.378906 14.917969 125.378906 15.542969 C 125.378906 16.164062 126.316406 16.164062 126.316406 15.542969 "/>
<path style=" stroke:none;fill-rule:evenodd;fill:rgb(45.098039%,45.098039%,87.058824%);fill-opacity:1;" d="M 126.316406 23.820312 C 126.316406 23.195312 125.378906 23.195312 125.378906 23.820312 C 125.378906 24.445312 126.316406 24.445312 126.316406 23.820312 "/>
<path style=" stroke:none;fill-rule:evenodd;fill:rgb(45.098039%,45.098039%,87.058824%);fill-opacity:1;" d="M 127.753906 58.019531 C 127.753906 57.398438 126.820312 57.398438 126.820312 58.019531 C 126.820312 58.644531 127.753906 58.644531 127.753906 58.019531 "/>
<path style=" stroke:none;fill-rule:evenodd;fill:rgb(45.098039%,45.098039%,87.058824%);fill-opacity:1;" d="M 127.753906 68.101562 C 127.753906 67.476562 126.820312 67.476562 126.820312 68.101562 C 126.820312 68.726562 127.753906 68.726562 127.753906 68.101562 "/>
<path style=" stroke:none;fill-rule:evenodd;fill:rgb(45.098039%,45.098039%,87.058824%);fill-opacity:1;" d="M 127.769531 142.894531 C 127.769531 142.269531 126.832031 142.269531 126.832031 142.894531 C 126.832031 143.519531 127.769531 143.519531 127.769531 142.894531 "/>
<path style=" stroke:none;fill-rule:evenodd;fill:rgb(45.098039%,45.098039%,87.058824%);fill-opacity:1;" d="M 127.769531 161.613281 C 127.769531 160.992188 126.832031 160.992188 126.832031 161.613281 C 126.832031 162.238281 127.769531 162.238281 127.769531 161.613281 "/>
<path style=" stroke:none;fill-rule:evenodd;fill:rgb(45.098039%,45.098039%,87.058824%);fill-opacity:1;" d="M 128.113281 29.941406 C 128.113281 29.316406 127.179688 29.316406 127.179688 29.941406 C 127.179688 30.566406 128.113281 30.566406 128.113281 29.941406 "/>
<path style=" stroke:none;fill-rule:evenodd;fill:rgb(45.098039%,45.098039%,87.058824%);fill-opacity:1;" d="M 128.113281 38.941406 C 128.113281 38.316406 127.179688 38.316406 127.179688 38.941406 C 127.179688 39.566406 128.113281 39.566406 128.113281 38.941406 "/>
<path style=" stroke:none;fill-rule:evenodd;fill:rgb(45.098039%,45.098039%,87.058824%);fill-opacity:1;" d="M 128.113281 81.421875 C 128.113281 80.796875 127.179688 80.796875 127.179688 81.421875 C 127.179688 82.046875 128.113281 82.046875 128.113281 81.421875 "/>
<path style=" stroke:none;fill-rule:evenodd;fill:rgb(45.098039%,45.098039%,87.058824%);fill-opacity:1;" d="M 128.113281 87.902344 C 128.113281 87.277344 127.179688 87.277344 127.179688 87.902344 C 127.179688 88.523438 128.113281 88.523438 128.113281 87.902344 "/>
<path style=" stroke:none;fill-rule:evenodd;fill:rgb(45.098039%,45.098039%,87.058824%);fill-opacity:1;" d="M 129.914062 15.542969 C 129.914062 14.917969 128.980469 14.917969 128.980469 15.542969 C 128.980469 16.164062 129.914062 16.164062 129.914062 15.542969 "/>
<path style=" stroke:none;fill-rule:evenodd;fill:rgb(45.098039%,45.098039%,87.058824%);fill-opacity:1;" d="M 131.355469 58.019531 C 131.355469 57.398438 130.417969 57.398438 130.417969 58.019531 C 130.417969 58.644531 131.355469 58.644531 131.355469 58.019531 "/>
<path style=" stroke:none;fill-rule:evenodd;fill:rgb(45.098039%,45.098039%,87.058824%);fill-opacity:1;" d="M 131.355469 68.101562 C 131.355469 67.476562 130.417969 67.476562 130.417969 68.101562 C 130.417969 68.726562 131.355469 68.726562 131.355469 68.101562 "/>
<path style=" stroke:none;fill-rule:evenodd;fill:rgb(45.098039%,45.098039%,87.058824%);fill-opacity:1;" d="M 131.355469 75.660156 C 131.355469 75.039062 130.417969 75.039062 130.417969 75.660156 C 130.417969 76.285156 131.355469 76.285156 131.355469 75.660156 "/>
<path style=" stroke:none;fill-rule:evenodd;fill:rgb(45.098039%,45.098039%,87.058824%);fill-opacity:1;" d="M 131.355469 81.421875 C 131.355469 80.796875 130.417969 80.796875 130.417969 81.421875 C 130.417969 82.046875 131.355469 82.046875 131.355469 81.421875 "/>
<path style=" stroke:none;fill-rule:evenodd;fill:rgb(45.098039%,45.098039%,87.058824%);fill-opacity:1;" d="M 131.355469 87.902344 C 131.355469 87.277344 130.417969 87.277344 130.417969 87.902344 C 130.417969 88.523438 131.355469 88.523438 131.355469 87.902344 "/>
<path style=" stroke:none;fill-rule:evenodd;fill:rgb(45.098039%,45.098039%,87.058824%);fill-opacity:1;" d="M 131.371094 142.894531 C 131.371094 142.269531 130.433594 142.269531 130.433594 142.894531 C 130.433594 143.519531 131.371094 143.519531 131.371094 142.894531 "/>
<path style=" stroke:none;fill-rule:evenodd;fill:rgb(45.098039%,45.098039%,87.058824%);fill-opacity:1;" d="M 131.371094 156.574219 C 131.371094 155.949219 130.433594 155.949219 130.433594 156.574219 C 130.433594 157.199219 131.371094 157.199219 131.371094 156.574219 "/>
<path style=" stroke:none;fill-rule:evenodd;fill:rgb(45.098039%,45.098039%,87.058824%);fill-opacity:1;" d="M 131.371094 161.613281 C 131.371094 160.992188 130.433594 160.992188 130.433594 161.613281 C 130.433594 162.238281 131.371094 162.238281 131.371094 161.613281 "/>
<path style=" stroke:none;fill-rule:evenodd;fill:rgb(45.098039%,45.098039%,87.058824%);fill-opacity:1;" d="M 131.714844 29.941406 C 131.714844 29.316406 130.777344 29.316406 130.777344 29.941406 C 130.777344 30.566406 131.714844 30.566406 131.714844 29.941406 "/>
<path style=" stroke:none;fill-rule:evenodd;fill:rgb(45.098039%,45.098039%,87.058824%);fill-opacity:1;" d="M 133.167969 146.855469 C 133.167969 146.230469 132.234375 146.230469 132.234375 146.855469 C 132.234375 147.480469 133.167969 147.480469 133.167969 146.855469 "/>
<path style=" stroke:none;fill-rule:evenodd;fill:rgb(45.098039%,45.098039%,87.058824%);fill-opacity:1;" d="M 133.515625 15.542969 C 133.515625 14.917969 132.578125 14.917969 132.578125 15.542969 C 132.578125 16.164062 133.515625 16.164062 133.515625 15.542969 "/>
<path style=" stroke:none;fill-rule:evenodd;fill:rgb(45.098039%,45.098039%,87.058824%);fill-opacity:1;" d="M 133.515625 23.820312 C 133.515625 23.195312 132.578125 23.195312 132.578125 23.820312 C 132.578125 24.445312 133.515625 24.445312 133.515625 23.820312 "/>
<path style=" stroke:none;fill-rule:evenodd;fill:rgb(45.098039%,45.098039%,87.058824%);fill-opacity:1;" d="M 134.957031 38.941406 C 134.957031 38.316406 134.019531 38.316406 134.019531 38.941406 C 134.019531 39.566406 134.957031 39.566406 134.957031 38.941406 "/>
<path style=" stroke:none;fill-rule:evenodd;fill:rgb(45.098039%,45.098039%,87.058824%);fill-opacity:1;" d="M 134.957031 58.019531 C 134.957031 57.398438 134.019531 57.398438 134.019531 58.019531 C 134.019531 58.644531 134.957031 58.644531 134.957031 58.019531 "/>
<path style=" stroke:none;fill-rule:evenodd;fill:rgb(45.098039%,45.098039%,87.058824%);fill-opacity:1;" d="M 134.957031 68.101562 C 134.957031 67.476562 134.019531 67.476562 134.019531 68.101562 C 134.019531 68.726562 134.957031 68.726562 134.957031 68.101562 "/>
<path style=" stroke:none;fill-rule:evenodd;fill:rgb(45.098039%,45.098039%,87.058824%);fill-opacity:1;" d="M 134.957031 75.660156 C 134.957031 75.039062 134.019531 75.039062 134.019531 75.660156 C 134.019531 76.285156 134.957031 76.285156 134.957031 75.660156 "/>
<path style=" stroke:none;fill-rule:evenodd;fill:rgb(45.098039%,45.098039%,87.058824%);fill-opacity:1;" d="M 134.957031 81.421875 C 134.957031 80.796875 134.019531 80.796875 134.019531 81.421875 C 134.019531 82.046875 134.957031 82.046875 134.957031 81.421875 "/>
<path style=" stroke:none;fill-rule:evenodd;fill:rgb(45.098039%,45.098039%,87.058824%);fill-opacity:1;" d="M 134.957031 87.902344 C 134.957031 87.277344 134.019531 87.277344 134.019531 87.902344 C 134.019531 88.523438 134.957031 88.523438 134.957031 87.902344 "/>
<path style=" stroke:none;fill-rule:evenodd;fill:rgb(45.098039%,45.098039%,87.058824%);fill-opacity:1;" d="M 134.96875 142.894531 C 134.96875 142.269531 134.035156 142.269531 134.035156 142.894531 C 134.035156 143.519531 134.96875 143.519531 134.96875 142.894531 "/>
<path style=" stroke:none;fill-rule:evenodd;fill:rgb(45.098039%,45.098039%,87.058824%);fill-opacity:1;" d="M 134.96875 156.574219 C 134.96875 155.949219 134.035156 155.949219 134.035156 156.574219 C 134.035156 157.199219 134.96875 157.199219 134.96875 156.574219 "/>
<path style=" stroke:none;fill-rule:evenodd;fill:rgb(45.098039%,45.098039%,87.058824%);fill-opacity:1;" d="M 134.96875 161.613281 C 134.96875 160.992188 134.035156 160.992188 134.035156 161.613281 C 134.035156 162.238281 134.96875 162.238281 134.96875 161.613281 "/>
<path style=" stroke:none;fill-rule:evenodd;fill:rgb(45.098039%,45.098039%,87.058824%);fill-opacity:1;" d="M 138.570312 161.613281 C 138.570312 160.992188 137.632812 160.992188 137.632812 161.613281 C 137.632812 162.238281 138.570312 162.238281 138.570312 161.613281 "/>
<path style=" stroke:none;fill-rule:evenodd;fill:rgb(45.098039%,45.098039%,87.058824%);fill-opacity:1;" d="M 141.433594 72.0625 C 141.433594 71.4375 140.5 71.4375 140.5 72.0625 C 140.5 72.683594 141.433594 72.683594 141.433594 72.0625 "/>
<path style=" stroke:none;fill-rule:evenodd;fill:rgb(45.098039%,45.098039%,87.058824%);fill-opacity:1;" d="M 142.15625 58.019531 C 142.15625 57.398438 141.21875 57.398438 141.21875 58.019531 C 141.21875 58.644531 142.15625 58.644531 142.15625 58.019531 "/>
<path style=" stroke:none;fill-rule:evenodd;fill:rgb(45.098039%,45.098039%,87.058824%);fill-opacity:1;" d="M 142.167969 142.894531 C 142.167969 142.269531 141.234375 142.269531 141.234375 142.894531 C 141.234375 143.519531 142.167969 143.519531 142.167969 142.894531 "/>
<path style=" stroke:none;fill-rule:evenodd;fill:rgb(45.098039%,45.098039%,87.058824%);fill-opacity:1;" d="M 142.167969 161.613281 C 142.167969 160.992188 141.234375 160.992188 141.234375 161.613281 C 141.234375 162.238281 142.167969 162.238281 142.167969 161.613281 "/>
<path style=" stroke:none;fill-rule:evenodd;fill:rgb(45.098039%,45.098039%,87.058824%);fill-opacity:1;" d="M 145.753906 58.019531 C 145.753906 57.398438 144.820312 57.398438 144.820312 58.019531 C 144.820312 58.644531 145.753906 58.644531 145.753906 58.019531 "/>
<path style=" stroke:none;fill-rule:evenodd;fill:rgb(45.098039%,45.098039%,87.058824%);fill-opacity:1;" d="M 145.769531 156.574219 C 145.769531 155.949219 144.832031 155.949219 144.832031 156.574219 C 144.832031 157.199219 145.769531 157.199219 145.769531 156.574219 "/>
<path style=" stroke:none;fill-rule:evenodd;fill:rgb(45.098039%,45.098039%,87.058824%);fill-opacity:1;" d="M 145.769531 161.613281 C 145.769531 160.992188 144.832031 160.992188 144.832031 161.613281 C 144.832031 162.238281 145.769531 162.238281 145.769531 161.613281 "/>
<path style=" stroke:none;fill-rule:evenodd;fill:rgb(45.098039%,45.098039%,87.058824%);fill-opacity:1;" d="M 148.996094 117.78125 C 148.996094 117.15625 148.058594 117.15625 148.058594 117.78125 C 148.058594 118.40625 148.996094 118.40625 148.996094 117.78125 "/>
<path style=" stroke:none;fill-rule:evenodd;fill:rgb(45.098039%,45.098039%,87.058824%);fill-opacity:1;" d="M 149.355469 58.019531 C 149.355469 57.398438 148.417969 57.398438 148.417969 58.019531 C 148.417969 58.644531 149.355469 58.644531 149.355469 58.019531 "/>
<path style=" stroke:none;fill-rule:evenodd;fill:rgb(45.098039%,45.098039%,87.058824%);fill-opacity:1;" d="M 149.371094 156.574219 C 149.371094 155.949219 148.433594 155.949219 148.433594 156.574219 C 148.433594 157.199219 149.371094 157.199219 149.371094 156.574219 "/>
<path style=" stroke:none;fill-rule:evenodd;fill:rgb(45.098039%,45.098039%,87.058824%);fill-opacity:1;" d="M 149.371094 161.613281 C 149.371094 160.992188 148.433594 160.992188 148.433594 161.613281 C 148.433594 162.238281 149.371094 162.238281 149.371094 161.613281 "/>
<path style=" stroke:none;fill-rule:evenodd;fill:rgb(45.098039%,45.098039%,87.058824%);fill-opacity:1;" d="M 152.59375 66.660156 C 152.59375 66.039062 151.660156 66.039062 151.660156 66.660156 C 151.660156 67.285156 152.59375 67.285156 152.59375 66.660156 "/>
<path style=" stroke:none;fill-rule:evenodd;fill:rgb(45.098039%,45.098039%,87.058824%);fill-opacity:1;" d="M 152.59375 123.902344 C 152.59375 123.277344 151.660156 123.277344 151.660156 123.902344 C 151.660156 124.523438 152.59375 124.523438 152.59375 123.902344 "/>
<path style=" stroke:none;fill-rule:evenodd;fill:rgb(45.098039%,45.098039%,87.058824%);fill-opacity:1;" d="M 152.957031 104.101562 C 152.957031 103.476562 152.019531 103.476562 152.019531 104.101562 C 152.019531 104.726562 152.957031 104.726562 152.957031 104.101562 "/>
<path style=" stroke:none;fill-rule:evenodd;fill:rgb(45.098039%,45.098039%,87.058824%);fill-opacity:1;" d="M 152.957031 114.902344 C 152.957031 114.277344 152.019531 114.277344 152.019531 114.902344 C 152.019531 115.523438 152.957031 115.523438 152.957031 114.902344 "/>
<path style=" stroke:none;fill-rule:evenodd;fill:rgb(45.098039%,45.098039%,87.058824%);fill-opacity:1;" d="M 152.96875 156.574219 C 152.96875 155.949219 152.035156 155.949219 152.035156 156.574219 C 152.035156 157.199219 152.96875 157.199219 152.96875 156.574219 "/>
<path style=" stroke:none;fill-rule:evenodd;fill:rgb(45.098039%,45.098039%,87.058824%);fill-opacity:1;" d="M 152.96875 161.613281 C 152.96875 160.992188 152.035156 160.992188 152.035156 161.613281 C 152.035156 162.238281 152.96875 162.238281 152.96875 161.613281 "/>
<path style=" stroke:none;fill-rule:evenodd;fill:rgb(45.098039%,45.098039%,87.058824%);fill-opacity:1;" d="M 155.835938 145.140625 C 155.835938 144.515625 154.898438 144.515625 154.898438 145.140625 C 154.898438 145.765625 155.835938 145.765625 155.835938 145.140625 "/>
<path style=" stroke:none;fill-rule:evenodd;fill:rgb(45.098039%,45.098039%,87.058824%);fill-opacity:1;" d="M 156.570312 161.613281 C 156.570312 160.992188 155.632812 160.992188 155.632812 161.613281 C 155.632812 162.238281 156.570312 162.238281 156.570312 161.613281 "/>
<path style=" stroke:none;fill-rule:evenodd;fill:rgb(45.098039%,45.098039%,87.058824%);fill-opacity:1;" d="M 158.355469 112.019531 C 158.355469 111.398438 157.417969 111.398438 157.417969 112.019531 C 157.417969 112.644531 158.355469 112.644531 158.355469 112.019531 "/>
<path style=" stroke:none;fill-rule:evenodd;fill:rgb(45.098039%,45.098039%,87.058824%);fill-opacity:1;" d="M 158.355469 118.5 C 158.355469 117.878906 157.417969 117.878906 157.417969 118.5 C 157.417969 119.125 158.355469 119.125 158.355469 118.5 "/>
<path style=" stroke:none;fill-rule:evenodd;fill:rgb(45.098039%,45.098039%,87.058824%);fill-opacity:1;" d="M 159.796875 50.117188 C 159.796875 49.492188 158.859375 49.492188 158.859375 50.117188 C 158.859375 50.738281 159.796875 50.738281 159.796875 50.117188 "/>
<path style=" stroke:none;fill-rule:evenodd;fill:rgb(45.098039%,45.098039%,87.058824%);fill-opacity:1;" d="M 160.167969 142.894531 C 160.167969 142.269531 159.234375 142.269531 159.234375 142.894531 C 159.234375 143.519531 160.167969 143.519531 160.167969 142.894531 "/>
<path style=" stroke:none;fill-rule:evenodd;fill:rgb(45.098039%,45.098039%,87.058824%);fill-opacity:1;" d="M 160.167969 161.613281 C 160.167969 160.992188 159.234375 160.992188 159.234375 161.613281 C 159.234375 162.238281 160.167969 162.238281 160.167969 161.613281 "/>
<path style=" stroke:none;fill-rule:evenodd;fill:rgb(45.098039%,45.098039%,87.058824%);fill-opacity:1;" d="M 161.59375 5.820312 C 161.59375 5.195312 160.660156 5.195312 160.660156 5.820312 C 160.660156 6.445312 161.59375 6.445312 161.59375 5.820312 "/>
<path style=" stroke:none;fill-rule:evenodd;fill:rgb(45.098039%,45.098039%,87.058824%);fill-opacity:1;" d="M 162.675781 77.101562 C 162.675781 76.476562 161.738281 76.476562 161.738281 77.101562 C 161.738281 77.726562 162.675781 77.726562 162.675781 77.101562 "/>
<path style=" stroke:none;fill-rule:evenodd;fill:rgb(45.098039%,45.098039%,87.058824%);fill-opacity:1;" d="M 163.769531 142.894531 C 163.769531 142.269531 162.832031 142.269531 162.832031 142.894531 C 162.832031 143.519531 163.769531 143.519531 163.769531 142.894531 "/>
<path style=" stroke:none;fill-rule:evenodd;fill:rgb(45.098039%,45.098039%,87.058824%);fill-opacity:1;" d="M 163.769531 150.09375 C 163.769531 149.472656 162.832031 149.472656 162.832031 150.09375 C 162.832031 150.71875 163.769531 150.71875 163.769531 150.09375 "/>
<path style=" stroke:none;fill-rule:evenodd;fill:rgb(45.098039%,45.098039%,87.058824%);fill-opacity:1;" d="M 163.769531 156.574219 C 163.769531 155.949219 162.832031 155.949219 162.832031 156.574219 C 162.832031 157.199219 163.769531 157.199219 163.769531 156.574219 "/>
<path style=" stroke:none;fill-rule:evenodd;fill:rgb(45.098039%,45.098039%,87.058824%);fill-opacity:1;" d="M 163.769531 161.613281 C 163.769531 160.992188 162.832031 160.992188 162.832031 161.613281 C 162.832031 162.238281 163.769531 162.238281 163.769531 161.613281 "/>
<path style=" stroke:none;fill-rule:evenodd;fill:rgb(45.098039%,45.098039%,87.058824%);fill-opacity:1;" d="M 164.835938 74.941406 C 164.835938 74.316406 163.898438 74.316406 163.898438 74.941406 C 163.898438 75.566406 164.835938 75.566406 164.835938 74.941406 "/>
<path style=" stroke:none;fill-rule:evenodd;fill:rgb(45.098039%,45.098039%,87.058824%);fill-opacity:1;" d="M 165.554688 17.703125 C 165.554688 17.078125 164.621094 17.078125 164.621094 17.703125 C 164.621094 18.324219 165.554688 18.324219 165.554688 17.703125 "/>
<path style=" stroke:none;fill-rule:evenodd;fill:rgb(45.098039%,45.098039%,87.058824%);fill-opacity:1;" d="M 165.554688 50.101562 C 165.554688 49.476562 164.621094 49.476562 164.621094 50.101562 C 164.621094 50.726562 165.554688 50.726562 165.554688 50.101562 "/>
<path style=" stroke:none;fill-rule:evenodd;fill:rgb(45.098039%,45.098039%,87.058824%);fill-opacity:1;" d="M 167.355469 98.703125 C 167.355469 98.078125 166.417969 98.078125 166.417969 98.703125 C 166.417969 99.324219 167.355469 99.324219 167.355469 98.703125 "/>
<path style=" stroke:none;fill-rule:evenodd;fill:rgb(45.098039%,45.098039%,87.058824%);fill-opacity:1;" d="M 168.074219 50.027344 C 168.074219 49.40625 167.140625 49.40625 167.140625 50.027344 C 167.140625 50.652344 168.074219 50.652344 168.074219 50.027344 "/>
<path style=" stroke:none;fill-rule:evenodd;fill:rgb(45.098039%,45.098039%,87.058824%);fill-opacity:1;" d="M 169.515625 67.019531 C 169.515625 66.398438 168.578125 66.398438 168.578125 67.019531 C 168.578125 67.644531 169.515625 67.644531 169.515625 67.019531 "/>
<path style=" stroke:none;fill-rule:evenodd;fill:rgb(45.098039%,45.098039%,87.058824%);fill-opacity:1;" d="M 171.316406 15.902344 C 171.316406 15.277344 170.378906 15.277344 170.378906 15.902344 C 170.378906 16.523438 171.316406 16.523438 171.316406 15.902344 "/>
<path style=" stroke:none;fill-rule:evenodd;fill:rgb(45.098039%,45.098039%,87.058824%);fill-opacity:1;" d="M 172.753906 50.460938 C 172.753906 49.835938 171.820312 49.835938 171.820312 50.460938 C 171.820312 51.085938 172.753906 51.085938 172.753906 50.460938 "/>
<path style=" stroke:none;fill-rule:evenodd;fill:rgb(45.098039%,45.098039%,87.058824%);fill-opacity:1;" d="M 174.195312 70.261719 C 174.195312 69.636719 173.257812 69.636719 173.257812 70.261719 C 173.257812 70.886719 174.195312 70.886719 174.195312 70.261719 "/>
<path style=" stroke:none;fill-rule:evenodd;fill:rgb(45.098039%,45.098039%,87.058824%);fill-opacity:1;" d="M 174.195312 73.140625 C 174.195312 72.515625 173.257812 72.515625 173.257812 73.140625 C 173.257812 73.765625 174.195312 73.765625 174.195312 73.140625 "/>
<path style=" stroke:none;fill-rule:evenodd;fill:rgb(45.098039%,45.098039%,87.058824%);fill-opacity:1;" d="M 174.914062 15.902344 C 174.914062 15.277344 173.980469 15.277344 173.980469 15.902344 C 173.980469 16.523438 174.914062 16.523438 174.914062 15.902344 "/>
<path style=" stroke:none;fill-rule:evenodd;fill:rgb(45.098039%,45.098039%,87.058824%);fill-opacity:1;" d="M 175.996094 30.660156 C 175.996094 30.039062 175.058594 30.039062 175.058594 30.660156 C 175.058594 31.285156 175.996094 31.285156 175.996094 30.660156 "/>
<path style=" stroke:none;fill-rule:evenodd;fill:rgb(45.098039%,45.098039%,87.058824%);fill-opacity:1;" d="M 180.316406 30.660156 C 180.316406 30.039062 179.378906 30.039062 179.378906 30.660156 C 179.378906 31.285156 180.316406 31.285156 180.316406 30.660156 "/>
<path style=" stroke:none;fill-rule:evenodd;fill:rgb(45.098039%,45.098039%,87.058824%);fill-opacity:1;" d="M 182.113281 15.902344 C 182.113281 15.277344 181.179688 15.277344 181.179688 15.902344 C 181.179688 16.523438 182.113281 16.523438 182.113281 15.902344 "/>
<path style=" stroke:none;fill-rule:evenodd;fill:rgb(45.098039%,45.098039%,87.058824%);fill-opacity:1;" d="M 183.914062 30.660156 C 183.914062 30.039062 182.980469 30.039062 182.980469 30.660156 C 182.980469 31.285156 183.914062 31.285156 183.914062 30.660156 "/>
<path style=" stroke:none;fill-rule:evenodd;fill:rgb(45.098039%,45.098039%,87.058824%);fill-opacity:1;" d="M 185.714844 15.902344 C 185.714844 15.277344 184.777344 15.277344 184.777344 15.902344 C 184.777344 16.523438 185.714844 16.523438 185.714844 15.902344 "/>
<path style=" stroke:none;fill-rule:evenodd;fill:rgb(45.098039%,45.098039%,87.058824%);fill-opacity:1;" d="M 186.796875 98.339844 C 186.796875 97.71875 185.859375 97.71875 185.859375 98.339844 C 185.859375 98.964844 186.796875 98.964844 186.796875 98.339844 "/>
<path style=" stroke:none;fill-rule:evenodd;fill:rgb(45.098039%,45.098039%,87.058824%);fill-opacity:1;" d="M 188.234375 30.660156 C 188.234375 30.039062 187.300781 30.039062 187.300781 30.660156 C 187.300781 31.285156 188.234375 31.285156 188.234375 30.660156 "/>
<path style=" stroke:none;fill-rule:evenodd;fill:rgb(45.098039%,45.098039%,87.058824%);fill-opacity:1;" d="M 188.957031 58.019531 C 188.957031 57.398438 188.019531 57.398438 188.019531 58.019531 C 188.019531 58.644531 188.957031 58.644531 188.957031 58.019531 "/>
<path style=" stroke:none;fill-rule:evenodd;fill:rgb(45.098039%,45.098039%,87.058824%);fill-opacity:1;" d="M 190.394531 70.261719 C 190.394531 69.636719 189.460938 69.636719 189.460938 70.261719 C 189.460938 70.886719 190.394531 70.886719 190.394531 70.261719 "/>
<path style=" stroke:none;fill-rule:evenodd;fill:rgb(45.098039%,45.098039%,87.058824%);fill-opacity:1;" d="M 190.394531 73.859375 C 190.394531 73.238281 189.460938 73.238281 189.460938 73.859375 C 189.460938 74.484375 190.394531 74.484375 190.394531 73.859375 "/>
<path style=" stroke:none;fill-rule:evenodd;fill:rgb(45.098039%,45.098039%,87.058824%);fill-opacity:1;" d="M 190.394531 77.460938 C 190.394531 76.835938 189.460938 76.835938 189.460938 77.460938 C 189.460938 78.085938 190.394531 78.085938 190.394531 77.460938 "/>
<path style=" stroke:none;fill-rule:evenodd;fill:rgb(45.098039%,45.098039%,87.058824%);fill-opacity:1;" d="M 190.394531 84.660156 C 190.394531 84.039062 189.460938 84.039062 189.460938 84.660156 C 189.460938 85.285156 190.394531 85.285156 190.394531 84.660156 "/>
<path style=" stroke:none;fill-rule:evenodd;fill:rgb(45.098039%,45.098039%,87.058824%);fill-opacity:1;" d="M 190.394531 88.261719 C 190.394531 87.636719 189.460938 87.636719 189.460938 88.261719 C 189.460938 88.886719 190.394531 88.886719 190.394531 88.261719 "/>
<path style=" stroke:none;fill-rule:evenodd;fill:rgb(45.098039%,45.098039%,87.058824%);fill-opacity:1;" d="M 190.394531 91.859375 C 190.394531 91.238281 189.460938 91.238281 189.460938 91.859375 C 189.460938 92.484375 190.394531 92.484375 190.394531 91.859375 "/>
<path style=" stroke:none;fill-rule:evenodd;fill:rgb(45.098039%,45.098039%,87.058824%);fill-opacity:1;" d="M 192.914062 15.902344 C 192.914062 15.277344 191.980469 15.277344 191.980469 15.902344 C 191.980469 16.523438 192.914062 16.523438 192.914062 15.902344 "/>
<path style=" stroke:none;fill-rule:evenodd;fill:rgb(45.098039%,45.098039%,87.058824%);fill-opacity:1;" d="M 193.996094 54.421875 C 193.996094 53.796875 193.058594 53.796875 193.058594 54.421875 C 193.058594 55.046875 193.996094 55.046875 193.996094 54.421875 "/>
<path style=" stroke:none;fill-rule:evenodd;fill:rgb(45.098039%,45.098039%,87.058824%);fill-opacity:1;" d="M 194.355469 65.582031 C 194.355469 64.957031 193.417969 64.957031 193.417969 65.582031 C 193.417969 66.207031 194.355469 66.207031 194.355469 65.582031 "/>
<path style=" stroke:none;fill-rule:evenodd;fill:rgb(45.098039%,45.098039%,87.058824%);fill-opacity:1;" d="M 196.15625 77.460938 C 196.15625 76.835938 195.21875 76.835938 195.21875 77.460938 C 195.21875 78.085938 196.15625 78.085938 196.15625 77.460938 "/>
<path style=" stroke:none;fill-rule:evenodd;fill:rgb(45.098039%,45.098039%,87.058824%);fill-opacity:1;" d="M 196.15625 84.660156 C 196.15625 84.039062 195.21875 84.039062 195.21875 84.660156 C 195.21875 85.285156 196.15625 85.285156 196.15625 84.660156 "/>
<path style=" stroke:none;fill-rule:evenodd;fill:rgb(45.098039%,45.098039%,87.058824%);fill-opacity:1;" d="M 196.515625 15.902344 C 196.515625 15.277344 195.578125 15.277344 195.578125 15.902344 C 195.578125 16.523438 196.515625 16.523438 196.515625 15.902344 "/>
<path style=" stroke:none;fill-rule:evenodd;fill:rgb(45.098039%,45.098039%,87.058824%);fill-opacity:1;" d="M 196.515625 51.179688 C 196.515625 50.558594 195.578125 50.558594 195.578125 51.179688 C 195.578125 51.804688 196.515625 51.804688 196.515625 51.179688 "/>
<path style=" stroke:none;fill-rule:evenodd;fill:rgb(45.098039%,45.098039%,87.058824%);fill-opacity:1;" d="M 198.675781 17.703125 C 198.675781 17.078125 197.738281 17.078125 197.738281 17.703125 C 197.738281 18.324219 198.675781 18.324219 198.675781 17.703125 "/>
<path style=" stroke:none;fill-rule:evenodd;fill:rgb(45.098039%,45.098039%,87.058824%);fill-opacity:1;" d="M 87.6875 103.382812 C 87.6875 101.941406 85.527344 101.941406 85.527344 103.382812 C 85.527344 104.820312 87.6875 104.820312 87.6875 103.382812 "/>
<path style=" stroke:none;fill-rule:evenodd;fill:rgb(45.098039%,45.098039%,87.058824%);fill-opacity:1;" d="M 102.085938 103.382812 C 102.085938 101.941406 99.925781 101.941406 99.925781 103.382812 C 99.925781 104.820312 102.085938 104.820312 102.085938 103.382812 "/>
<path style=" stroke:none;fill-rule:evenodd;fill:rgb(45.098039%,45.098039%,87.058824%);fill-opacity:1;" d="M 139.023438 64.5 C 139.023438 63.0625 136.863281 63.0625 136.863281 64.5 C 136.863281 65.941406 139.023438 65.941406 139.023438 64.5 "/>
<path style=" stroke:none;fill-rule:evenodd;fill:rgb(45.098039%,45.098039%,87.058824%);fill-opacity:1;" d="M 139.023438 126.851562 C 139.023438 125.414062 136.863281 125.414062 136.863281 126.851562 C 136.863281 128.292969 139.023438 128.292969 139.023438 126.851562 "/>
<path style=" stroke:none;fill-rule:evenodd;fill:rgb(45.098039%,45.098039%,87.058824%);fill-opacity:1;" d="M 140.980469 171.695312 C 140.980469 170.253906 138.820312 170.253906 138.820312 171.695312 C 138.820312 173.136719 140.980469 173.136719 140.980469 171.695312 "/>
<path style=" stroke:none;fill-rule:evenodd;fill:rgb(45.098039%,45.098039%,87.058824%);fill-opacity:1;" d="M 144.710938 64.5 C 144.710938 63.0625 142.550781 63.0625 142.550781 64.5 C 142.550781 65.941406 144.710938 65.941406 144.710938 64.5 "/>
<path style=" stroke:none;fill-rule:evenodd;fill:rgb(45.098039%,45.098039%,87.058824%);fill-opacity:1;" d="M 144.710938 126.851562 C 144.710938 125.414062 142.550781 125.414062 142.550781 126.851562 C 142.550781 128.292969 144.710938 128.292969 144.710938 126.851562 "/>
<path style=" stroke:none;fill-rule:evenodd;fill:rgb(45.098039%,45.098039%,87.058824%);fill-opacity:1;" d="M 150.398438 64.5 C 150.398438 63.0625 148.238281 63.0625 148.238281 64.5 C 148.238281 65.941406 150.398438 65.941406 150.398438 64.5 "/>
<path style=" stroke:none;fill-rule:evenodd;fill:rgb(45.098039%,45.098039%,87.058824%);fill-opacity:1;" d="M 150.398438 126.851562 C 150.398438 125.414062 148.238281 125.414062 148.238281 126.851562 C 148.238281 128.292969 150.398438 128.292969 150.398438 126.851562 "/>
<path style=" stroke:none;fill-rule:evenodd;fill:rgb(45.098039%,45.098039%,87.058824%);fill-opacity:1;" d="M 155.382812 171.695312 C 155.382812 170.253906 153.222656 170.253906 153.222656 171.695312 C 153.222656 173.136719 155.382812 173.136719 155.382812 171.695312 "/>
<path style=" stroke:none;fill-rule:evenodd;fill:rgb(45.098039%,45.098039%,87.058824%);fill-opacity:1;" d="M 156.085938 64.5 C 156.085938 63.0625 153.925781 63.0625 153.925781 64.5 C 153.925781 65.941406 156.085938 65.941406 156.085938 64.5 "/>
<path style=" stroke:none;fill-rule:evenodd;fill:rgb(45.098039%,45.098039%,87.058824%);fill-opacity:1;" d="M 156.085938 126.851562 C 156.085938 125.414062 153.925781 125.414062 153.925781 126.851562 C 153.925781 128.292969 156.085938 128.292969 156.085938 126.851562 "/>
<path style=" stroke:none;fill-rule:evenodd;fill:rgb(45.098039%,45.098039%,87.058824%);fill-opacity:1;" d="M 161.773438 64.5 C 161.773438 63.0625 159.613281 63.0625 159.613281 64.5 C 159.613281 65.941406 161.773438 65.941406 161.773438 64.5 "/>
<path style=" stroke:none;fill-rule:evenodd;fill:rgb(45.098039%,45.098039%,87.058824%);fill-opacity:1;" d="M 161.773438 126.851562 C 161.773438 125.414062 159.613281 125.414062 159.613281 126.851562 C 159.613281 128.292969 161.773438 128.292969 161.773438 126.851562 "/>
<path style=" stroke:none;fill-rule:evenodd;fill:rgb(45.098039%,45.098039%,87.058824%);fill-opacity:1;" d="M 167.464844 64.5 C 167.464844 63.0625 165.304688 63.0625 165.304688 64.5 C 165.304688 65.941406 167.464844 65.941406 167.464844 64.5 "/>
<path style=" stroke:none;fill-rule:evenodd;fill:rgb(45.098039%,45.098039%,87.058824%);fill-opacity:1;" d="M 167.464844 126.851562 C 167.464844 125.414062 165.304688 125.414062 165.304688 126.851562 C 165.304688 128.292969 167.464844 128.292969 167.464844 126.851562 "/>
<path style=" stroke:none;fill-rule:evenodd;fill:rgb(45.098039%,45.098039%,87.058824%);fill-opacity:1;" d="M 173.152344 64.5 C 173.152344 63.0625 170.992188 63.0625 170.992188 64.5 C 170.992188 65.941406 173.152344 65.941406 173.152344 64.5 "/>
<path style=" stroke:none;fill-rule:evenodd;fill:rgb(45.098039%,45.098039%,87.058824%);fill-opacity:1;" d="M 173.152344 126.851562 C 173.152344 125.414062 170.992188 125.414062 170.992188 126.851562 C 170.992188 128.292969 173.152344 128.292969 173.152344 126.851562 "/>
<path style=" stroke:none;fill-rule:evenodd;fill:rgb(45.098039%,45.098039%,87.058824%);fill-opacity:1;" d="M 178.839844 64.5 C 178.839844 63.0625 176.679688 63.0625 176.679688 64.5 C 176.679688 65.941406 178.839844 65.941406 178.839844 64.5 "/>
<path style=" stroke:none;fill-rule:evenodd;fill:rgb(45.098039%,45.098039%,87.058824%);fill-opacity:1;" d="M 178.839844 126.851562 C 178.839844 125.414062 176.679688 125.414062 176.679688 126.851562 C 176.679688 128.292969 178.839844 128.292969 178.839844 126.851562 "/>
<path style=" stroke:none;fill-rule:evenodd;fill:rgb(45.098039%,45.098039%,87.058824%);fill-opacity:1;" d="M 184.527344 64.5 C 184.527344 63.0625 182.367188 63.0625 182.367188 64.5 C 182.367188 65.941406 184.527344 65.941406 184.527344 64.5 "/>
<path style=" stroke:none;fill-rule:evenodd;fill:rgb(45.098039%,45.098039%,87.058824%);fill-opacity:1;" d="M 184.527344 126.851562 C 184.527344 125.414062 182.367188 125.414062 182.367188 126.851562 C 182.367188 128.292969 184.527344 128.292969 184.527344 126.851562 "/>
<path style=" stroke:none;fill-rule:evenodd;fill:rgb(45.098039%,45.098039%,87.058824%);fill-opacity:1;" d="M 190.214844 64.5 C 190.214844 63.0625 188.054688 63.0625 188.054688 64.5 C 188.054688 65.941406 190.214844 65.941406 190.214844 64.5 "/>
<path style=" stroke:none;fill-rule:evenodd;fill:rgb(45.098039%,45.098039%,87.058824%);fill-opacity:1;" d="M 190.214844 126.851562 C 190.214844 125.414062 188.054688 125.414062 188.054688 126.851562 C 188.054688 128.292969 190.214844 128.292969 190.214844 126.851562 "/>
<path style=" stroke:none;fill-rule:evenodd;fill:rgb(45.098039%,45.098039%,87.058824%);fill-opacity:1;" d="M 65.90625 12.300781 C 65.90625 10.621094 63.386719 10.621094 63.386719 12.300781 C 63.386719 13.980469 65.90625 13.980469 65.90625 12.300781 "/>
<path style=" stroke:none;fill-rule:evenodd;fill:rgb(45.098039%,45.098039%,87.058824%);fill-opacity:1;" d="M 69.507812 5.101562 C 69.507812 3.421875 66.988281 3.421875 66.988281 5.101562 C 66.988281 6.78125 69.507812 6.78125 69.507812 5.101562 "/>
<path style=" stroke:none;fill-rule:evenodd;fill:rgb(45.098039%,45.098039%,87.058824%);fill-opacity:1;" d="M 73.105469 12.300781 C 73.105469 10.621094 70.585938 10.621094 70.585938 12.300781 C 70.585938 13.980469 73.105469 13.980469 73.105469 12.300781 "/>
<path style=" stroke:none;fill-rule:evenodd;fill:rgb(45.098039%,45.098039%,87.058824%);fill-opacity:1;" d="M 76.707031 5.101562 C 76.707031 3.421875 74.1875 3.421875 74.1875 5.101562 C 74.1875 6.78125 76.707031 6.78125 76.707031 5.101562 "/>
<path style=" stroke:none;fill-rule:evenodd;fill:rgb(45.098039%,45.098039%,87.058824%);fill-opacity:1;" d="M 80.308594 12.300781 C 80.308594 10.621094 77.789062 10.621094 77.789062 12.300781 C 77.789062 13.980469 80.308594 13.980469 80.308594 12.300781 "/>
<path style=" stroke:none;fill-rule:evenodd;fill:rgb(45.098039%,45.098039%,87.058824%);fill-opacity:1;" d="M 83.90625 5.101562 C 83.90625 3.421875 81.386719 3.421875 81.386719 5.101562 C 81.386719 6.78125 83.90625 6.78125 83.90625 5.101562 "/>
<path style=" stroke:none;fill-rule:evenodd;fill:rgb(45.098039%,45.098039%,87.058824%);fill-opacity:1;" d="M 87.507812 12.300781 C 87.507812 10.621094 84.988281 10.621094 84.988281 12.300781 C 84.988281 13.980469 87.507812 13.980469 87.507812 12.300781 "/>
<path style=" stroke:none;fill-rule:evenodd;fill:rgb(45.098039%,45.098039%,87.058824%);fill-opacity:1;" d="M 91.105469 5.101562 C 91.105469 3.421875 88.585938 3.421875 88.585938 5.101562 C 88.585938 6.78125 91.105469 6.78125 91.105469 5.101562 "/>
<path style=" stroke:none;fill-rule:evenodd;fill:rgb(45.098039%,45.098039%,87.058824%);fill-opacity:1;" d="M 103.707031 135.78125 C 103.707031 134.101562 101.1875 134.101562 101.1875 135.78125 C 101.1875 137.460938 103.707031 137.460938 103.707031 135.78125 "/>
<path style=" stroke:none;fill-rule:evenodd;fill:rgb(45.098039%,45.098039%,87.058824%);fill-opacity:1;" d="M 103.707031 142.980469 C 103.707031 141.300781 101.1875 141.300781 101.1875 142.980469 C 101.1875 144.660156 103.707031 144.660156 103.707031 142.980469 "/>
<path style=" stroke:none;fill-rule:evenodd;fill:rgb(45.098039%,45.098039%,87.058824%);fill-opacity:1;" d="M 103.707031 150.179688 C 103.707031 148.5 101.1875 148.5 101.1875 150.179688 C 101.1875 151.859375 103.707031 151.859375 103.707031 150.179688 "/>
<path style=" stroke:none;fill-rule:evenodd;fill:rgb(45.098039%,45.098039%,87.058824%);fill-opacity:1;" d="M 103.707031 157.382812 C 103.707031 155.703125 101.1875 155.703125 101.1875 157.382812 C 101.1875 159.0625 103.707031 159.0625 103.707031 157.382812 "/>
<path style=" stroke:none;fill-rule:evenodd;fill:rgb(45.098039%,45.098039%,87.058824%);fill-opacity:1;" d="M 110.90625 139.382812 C 110.90625 137.703125 108.386719 137.703125 108.386719 139.382812 C 108.386719 141.0625 110.90625 141.0625 110.90625 139.382812 "/>
<path style=" stroke:none;fill-rule:evenodd;fill:rgb(45.098039%,45.098039%,87.058824%);fill-opacity:1;" d="M 110.90625 146.582031 C 110.90625 144.902344 108.386719 144.902344 108.386719 146.582031 C 108.386719 148.261719 110.90625 148.261719 110.90625 146.582031 "/>
<path style=" stroke:none;fill-rule:evenodd;fill:rgb(45.098039%,45.098039%,87.058824%);fill-opacity:1;" d="M 110.90625 153.78125 C 110.90625 152.101562 108.386719 152.101562 108.386719 153.78125 C 108.386719 155.460938 110.90625 155.460938 110.90625 153.78125 "/>
<path style=" stroke:none;fill-rule:evenodd;fill:rgb(45.098039%,45.098039%,87.058824%);fill-opacity:1;" d="M 110.90625 160.980469 C 110.90625 159.300781 108.386719 159.300781 108.386719 160.980469 C 108.386719 162.660156 110.90625 162.660156 110.90625 160.980469 "/>
<path style=" stroke:none;fill-rule:evenodd;fill:rgb(45.098039%,45.098039%,87.058824%);fill-opacity:1;" d="M 118.105469 12.300781 C 118.105469 10.621094 115.585938 10.621094 115.585938 12.300781 C 115.585938 13.980469 118.105469 13.980469 118.105469 12.300781 "/>
<path style=" stroke:none;fill-rule:evenodd;fill:rgb(45.098039%,45.098039%,87.058824%);fill-opacity:1;" d="M 121.707031 5.101562 C 121.707031 3.421875 119.1875 3.421875 119.1875 5.101562 C 119.1875 6.78125 121.707031 6.78125 121.707031 5.101562 "/>
<path style=" stroke:none;fill-rule:evenodd;fill:rgb(45.098039%,45.098039%,87.058824%);fill-opacity:1;" d="M 125.308594 12.300781 C 125.308594 10.621094 122.789062 10.621094 122.789062 12.300781 C 122.789062 13.980469 125.308594 13.980469 125.308594 12.300781 "/>
<path style=" stroke:none;fill-rule:evenodd;fill:rgb(45.098039%,45.098039%,87.058824%);fill-opacity:1;" d="M 128.90625 5.101562 C 128.90625 3.421875 126.386719 3.421875 126.386719 5.101562 C 126.386719 6.78125 128.90625 6.78125 128.90625 5.101562 "/>
<path style=" stroke:none;fill-rule:evenodd;fill:rgb(45.098039%,45.098039%,87.058824%);fill-opacity:1;" d="M 132.507812 12.300781 C 132.507812 10.621094 129.988281 10.621094 129.988281 12.300781 C 129.988281 13.980469 132.507812 13.980469 132.507812 12.300781 "/>
<path style=" stroke:none;fill-rule:evenodd;fill:rgb(45.098039%,45.098039%,87.058824%);fill-opacity:1;" d="M 136.105469 5.101562 C 136.105469 3.421875 133.585938 3.421875 133.585938 5.101562 C 133.585938 6.78125 136.105469 6.78125 136.105469 5.101562 "/>
<path style=" stroke:none;fill-rule:evenodd;fill:rgb(45.098039%,45.098039%,87.058824%);fill-opacity:1;" d="M 139.707031 12.300781 C 139.707031 10.621094 137.1875 10.621094 137.1875 12.300781 C 137.1875 13.980469 139.707031 13.980469 139.707031 12.300781 "/>
<path style=" stroke:none;fill-rule:evenodd;fill:rgb(45.098039%,45.098039%,87.058824%);fill-opacity:1;" d="M 143.308594 5.101562 C 143.308594 3.421875 140.789062 3.421875 140.789062 5.101562 C 140.789062 6.78125 143.308594 6.78125 143.308594 5.101562 "/>
<path style=" stroke:none;fill-rule:evenodd;fill:rgb(45.098039%,45.098039%,87.058824%);fill-opacity:1;" d="M 170.308594 12.300781 C 170.308594 10.621094 167.789062 10.621094 167.789062 12.300781 C 167.789062 13.980469 170.308594 13.980469 170.308594 12.300781 "/>
<path style=" stroke:none;fill-rule:evenodd;fill:rgb(45.098039%,45.098039%,87.058824%);fill-opacity:1;" d="M 173.90625 5.101562 C 173.90625 3.421875 171.386719 3.421875 171.386719 5.101562 C 171.386719 6.78125 173.90625 6.78125 173.90625 5.101562 "/>
<path style=" stroke:none;fill-rule:evenodd;fill:rgb(45.098039%,45.098039%,87.058824%);fill-opacity:1;" d="M 177.507812 12.300781 C 177.507812 10.621094 174.988281 10.621094 174.988281 12.300781 C 174.988281 13.980469 177.507812 13.980469 177.507812 12.300781 "/>
<path style=" stroke:none;fill-rule:evenodd;fill:rgb(45.098039%,45.098039%,87.058824%);fill-opacity:1;" d="M 181.105469 5.101562 C 181.105469 3.421875 178.585938 3.421875 178.585938 5.101562 C 178.585938 6.78125 181.105469 6.78125 181.105469 5.101562 "/>
<path style=" stroke:none;fill-rule:evenodd;fill:rgb(45.098039%,45.098039%,87.058824%);fill-opacity:1;" d="M 184.707031 12.300781 C 184.707031 10.621094 182.1875 10.621094 182.1875 12.300781 C 182.1875 13.980469 184.707031 13.980469 184.707031 12.300781 "/>
<path style=" stroke:none;fill-rule:evenodd;fill:rgb(45.098039%,45.098039%,87.058824%);fill-opacity:1;" d="M 188.308594 5.101562 C 188.308594 3.421875 185.789062 3.421875 185.789062 5.101562 C 185.789062 6.78125 188.308594 6.78125 188.308594 5.101562 "/>
<path style=" stroke:none;fill-rule:evenodd;fill:rgb(45.098039%,45.098039%,87.058824%);fill-opacity:1;" d="M 191.90625 12.300781 C 191.90625 10.621094 189.386719 10.621094 189.386719 12.300781 C 189.386719 13.980469 191.90625 13.980469 191.90625 12.300781 "/>
<path style=" stroke:none;fill-rule:evenodd;fill:rgb(45.098039%,45.098039%,87.058824%);fill-opacity:1;" d="M 195.507812 5.101562 C 195.507812 3.421875 192.988281 3.421875 192.988281 5.101562 C 192.988281 6.78125 195.507812 6.78125 195.507812 5.101562 "/>
<path style=" stroke:none;fill-rule:evenodd;fill:rgb(45.098039%,45.098039%,87.058824%);fill-opacity:1;" d="M 44.773438 100.5 C 44.773438 98.675781 42.039062 98.675781 42.039062 100.5 C 42.039062 102.324219 44.773438 102.324219 44.773438 100.5 "/>
<path style=" stroke:none;fill-rule:evenodd;fill:rgb(45.098039%,45.098039%,87.058824%);fill-opacity:1;" d="M 44.773438 107.703125 C 44.773438 105.878906 42.039062 105.878906 42.039062 107.703125 C 42.039062 109.523438 44.773438 109.523438 44.773438 107.703125 "/>
<path style=" stroke:none;fill-rule:evenodd;fill:rgb(45.098039%,45.098039%,87.058824%);fill-opacity:1;" d="M 51.976562 100.5 C 51.976562 98.675781 49.238281 98.675781 49.238281 100.5 C 49.238281 102.324219 51.976562 102.324219 51.976562 100.5 "/>
<path style=" stroke:none;fill-rule:evenodd;fill:rgb(45.098039%,45.098039%,87.058824%);fill-opacity:1;" d="M 51.976562 107.703125 C 51.976562 105.878906 49.238281 105.878906 49.238281 107.703125 C 49.238281 109.523438 51.976562 109.523438 51.976562 107.703125 "/>
<path style=" stroke:none;fill-rule:evenodd;fill:rgb(45.098039%,45.098039%,87.058824%);fill-opacity:1;" d="M 56.65625 60.179688 C 56.65625 58.355469 53.917969 58.355469 53.917969 60.179688 C 53.917969 62.003906 56.65625 62.003906 56.65625 60.179688 "/>
<path style=" stroke:none;fill-rule:evenodd;fill:rgb(45.098039%,45.098039%,87.058824%);fill-opacity:1;" d="M 56.65625 81.421875 C 56.65625 79.597656 53.917969 79.597656 53.917969 81.421875 C 53.917969 83.246094 56.65625 83.246094 56.65625 81.421875 "/>
<path style=" stroke:none;fill-rule:evenodd;fill:rgb(45.098039%,45.098039%,87.058824%);fill-opacity:1;" d="M 59.175781 100.5 C 59.175781 98.675781 56.4375 98.675781 56.4375 100.5 C 56.4375 102.324219 59.175781 102.324219 59.175781 100.5 "/>
<path style=" stroke:none;fill-rule:evenodd;fill:rgb(45.098039%,45.098039%,87.058824%);fill-opacity:1;" d="M 59.175781 107.703125 C 59.175781 105.878906 56.4375 105.878906 56.4375 107.703125 C 56.4375 109.523438 59.175781 109.523438 59.175781 107.703125 "/>
<path style=" stroke:none;fill-rule:evenodd;fill:rgb(45.098039%,45.098039%,87.058824%);fill-opacity:1;" d="M 59.191406 126.695312 C 59.191406 124.871094 56.453125 124.871094 56.453125 126.695312 C 56.453125 128.519531 59.191406 128.519531 59.191406 126.695312 "/>
<path style=" stroke:none;fill-rule:evenodd;fill:rgb(45.098039%,45.098039%,87.058824%);fill-opacity:1;" d="M 59.191406 133.894531 C 59.191406 132.070312 56.453125 132.070312 56.453125 133.894531 C 56.453125 135.71875 59.191406 135.71875 59.191406 133.894531 "/>
<path style=" stroke:none;fill-rule:evenodd;fill:rgb(45.098039%,45.098039%,87.058824%);fill-opacity:1;" d="M 59.191406 141.09375 C 59.191406 139.269531 56.453125 139.269531 56.453125 141.09375 C 56.453125 142.917969 59.191406 142.917969 59.191406 141.09375 "/>
<path style=" stroke:none;fill-rule:evenodd;fill:rgb(45.098039%,45.098039%,87.058824%);fill-opacity:1;" d="M 59.191406 148.292969 C 59.191406 146.472656 56.453125 146.472656 56.453125 148.292969 C 56.453125 150.117188 59.191406 150.117188 59.191406 148.292969 "/>
<path style=" stroke:none;fill-rule:evenodd;fill:rgb(45.098039%,45.098039%,87.058824%);fill-opacity:1;" d="M 59.191406 155.496094 C 59.191406 153.671875 56.453125 153.671875 56.453125 155.496094 C 56.453125 157.320312 59.191406 157.320312 59.191406 155.496094 "/>
<path style=" stroke:none;fill-rule:evenodd;fill:rgb(45.098039%,45.098039%,87.058824%);fill-opacity:1;" d="M 63.855469 60.179688 C 63.855469 58.355469 61.121094 58.355469 61.121094 60.179688 C 61.121094 62.003906 63.855469 62.003906 63.855469 60.179688 "/>
<path style=" stroke:none;fill-rule:evenodd;fill:rgb(45.098039%,45.098039%,87.058824%);fill-opacity:1;" d="M 63.855469 81.421875 C 63.855469 79.597656 61.121094 79.597656 61.121094 81.421875 C 61.121094 83.246094 63.855469 83.246094 63.855469 81.421875 "/>
<path style=" stroke:none;fill-rule:evenodd;fill:rgb(45.098039%,45.098039%,87.058824%);fill-opacity:1;" d="M 66.390625 126.695312 C 66.390625 124.871094 63.652344 124.871094 63.652344 126.695312 C 63.652344 128.519531 66.390625 128.519531 66.390625 126.695312 "/>
<path style=" stroke:none;fill-rule:evenodd;fill:rgb(45.098039%,45.098039%,87.058824%);fill-opacity:1;" d="M 66.390625 133.894531 C 66.390625 132.070312 63.652344 132.070312 63.652344 133.894531 C 63.652344 135.71875 66.390625 135.71875 66.390625 133.894531 "/>
<path style=" stroke:none;fill-rule:evenodd;fill:rgb(45.098039%,45.098039%,87.058824%);fill-opacity:1;" d="M 66.390625 141.09375 C 66.390625 139.269531 63.652344 139.269531 63.652344 141.09375 C 63.652344 142.917969 66.390625 142.917969 66.390625 141.09375 "/>
<path style=" stroke:none;fill-rule:evenodd;fill:rgb(45.098039%,45.098039%,87.058824%);fill-opacity:1;" d="M 66.390625 148.292969 C 66.390625 146.472656 63.652344 146.472656 63.652344 148.292969 C 63.652344 150.117188 66.390625 150.117188 66.390625 148.292969 "/>
<path style=" stroke:none;fill-rule:evenodd;fill:rgb(45.098039%,45.098039%,87.058824%);fill-opacity:1;" d="M 66.390625 155.496094 C 66.390625 153.671875 63.652344 153.671875 63.652344 155.496094 C 63.652344 157.320312 66.390625 157.320312 66.390625 155.496094 "/>
<path style=" stroke:none;fill-rule:evenodd;fill:rgb(45.098039%,45.098039%,87.058824%);fill-opacity:1;" d="M 74.34375 129.574219 C 74.34375 127.703125 71.539062 127.703125 71.539062 129.574219 C 71.539062 131.445312 74.34375 131.445312 74.34375 129.574219 "/>
<path style=" stroke:none;fill-rule:evenodd;fill:rgb(45.098039%,45.098039%,87.058824%);fill-opacity:1;" d="M 74.34375 136.773438 C 74.34375 134.902344 71.539062 134.902344 71.539062 136.773438 C 71.539062 138.648438 74.34375 138.648438 74.34375 136.773438 "/>
<path style=" stroke:none;fill-rule:evenodd;fill:rgb(45.098039%,45.098039%,87.058824%);fill-opacity:1;" d="M 74.34375 159.957031 C 74.34375 158.085938 71.539062 158.085938 71.539062 159.957031 C 71.539062 161.832031 74.34375 161.832031 74.34375 159.957031 "/>
<path style=" stroke:none;fill-rule:evenodd;fill:rgb(45.098039%,45.098039%,87.058824%);fill-opacity:1;" d="M 74.34375 167.160156 C 74.34375 165.285156 71.539062 165.285156 71.539062 167.160156 C 71.539062 169.03125 74.34375 169.03125 74.34375 167.160156 "/>
<path style=" stroke:none;fill-rule:evenodd;fill:rgb(45.098039%,45.098039%,87.058824%);fill-opacity:1;" d="M 120.085938 74.222656 C 120.085938 71.820312 116.488281 71.820312 116.488281 74.222656 C 116.488281 76.621094 120.085938 76.621094 120.085938 74.222656 "/>
<path style=" stroke:none;fill-rule:evenodd;fill:rgb(45.098039%,45.098039%,87.058824%);fill-opacity:1;" d="M 182.367188 69.179688 C 182.367188 66.78125 178.765625 66.78125 178.765625 69.179688 C 178.765625 71.582031 182.367188 71.582031 182.367188 69.179688 "/>
<path style=" stroke:none;fill-rule:evenodd;fill:rgb(45.098039%,45.098039%,87.058824%);fill-opacity:1;" d="M 192.808594 96.902344 C 192.808594 94.5 189.207031 94.5 189.207031 96.902344 C 189.207031 99.300781 192.808594 99.300781 192.808594 96.902344 "/>
<path style=" stroke:none;fill-rule:evenodd;fill:rgb(45.098039%,45.098039%,87.058824%);fill-opacity:1;" d="M 57.167969 38.949219 C 57.167969 35.925781 52.628906 35.925781 52.628906 38.949219 C 52.628906 41.972656 57.167969 41.972656 57.167969 38.949219 "/>
<path style=" stroke:none;fill-rule:evenodd;fill:rgb(45.098039%,45.098039%,87.058824%);fill-opacity:1;" d="M 95.363281 126.398438 C 95.363281 123.375 90.828125 123.375 90.828125 126.398438 C 90.828125 129.421875 95.363281 129.421875 95.363281 126.398438 "/>
<path style=" stroke:none;fill-rule:evenodd;fill:rgb(45.098039%,45.098039%,87.058824%);fill-opacity:1;" d="M 95.363281 170.335938 C 95.363281 167.308594 90.828125 167.308594 90.828125 170.335938 C 90.828125 173.359375 95.363281 173.359375 95.363281 170.335938 "/>
<path style=" stroke:none;fill-rule:evenodd;fill:rgb(45.098039%,45.098039%,87.058824%);fill-opacity:1;" d="M 101.804688 38.949219 C 101.804688 35.925781 97.269531 35.925781 97.269531 38.949219 C 97.269531 41.972656 101.804688 41.972656 101.804688 38.949219 "/>
<path style=" stroke:none;fill-rule:evenodd;fill:rgb(45.098039%,45.098039%,87.058824%);fill-opacity:1;" d="M 109.367188 38.949219 C 109.367188 35.925781 104.832031 35.925781 104.832031 38.949219 C 104.832031 41.972656 109.367188 41.972656 109.367188 38.949219 "/>
<path style=" stroke:none;fill-rule:evenodd;fill:rgb(45.098039%,45.098039%,87.058824%);fill-opacity:1;" d="M 154.007812 38.949219 C 154.007812 35.925781 149.46875 35.925781 149.46875 38.949219 C 149.46875 41.972656 154.007812 41.972656 154.007812 38.949219 "/>
<path style=" stroke:none;fill-rule:evenodd;fill:rgb(45.098039%,45.098039%,87.058824%);fill-opacity:1;" d="M 161.566406 38.949219 C 161.566406 35.925781 157.03125 35.925781 157.03125 38.949219 C 157.03125 41.972656 161.566406 41.972656 161.566406 38.949219 "/>
<path style=" stroke:none;fill-rule:evenodd;fill:rgb(45.098039%,45.098039%,87.058824%);fill-opacity:1;" d="M 206.207031 38.949219 C 206.207031 35.925781 201.671875 35.925781 201.671875 38.949219 C 201.671875 41.972656 206.207031 41.972656 206.207031 38.949219 "/>
<path style=" stroke:none;fill-rule:evenodd;fill:rgb(45.098039%,45.098039%,87.058824%);fill-opacity:1;" d="M 88.984375 132.179688 C 88.984375 126.132812 79.910156 126.132812 79.910156 132.179688 C 79.910156 138.230469 88.984375 138.230469 88.984375 132.179688 "/>
<path style=" stroke:none;fill-rule:evenodd;fill:rgb(45.098039%,45.098039%,87.058824%);fill-opacity:1;" d="M 88.984375 164.582031 C 88.984375 158.535156 79.910156 158.535156 79.910156 164.582031 C 79.910156 170.628906 88.984375 170.628906 88.984375 164.582031 "/>
<path style=" stroke:none;fill-rule:evenodd;fill:rgb(45.098039%,45.098039%,87.058824%);fill-opacity:1;" d="M 65.65625 30.300781 C 65.65625 24.15625 56.4375 24.15625 56.4375 30.300781 C 56.4375 36.445312 65.65625 36.445312 65.65625 30.300781 "/>
<path style=" stroke:none;fill-rule:evenodd;fill:rgb(45.098039%,45.098039%,87.058824%);fill-opacity:1;" d="M 98.054688 30.300781 C 98.054688 24.15625 88.839844 24.15625 88.839844 30.300781 C 88.839844 36.445312 98.054688 36.445312 98.054688 30.300781 "/>
<path style=" stroke:none;fill-rule:evenodd;fill:rgb(45.098039%,45.098039%,87.058824%);fill-opacity:1;" d="M 117.855469 30.300781 C 117.855469 24.15625 108.640625 24.15625 108.640625 30.300781 C 108.640625 36.445312 117.855469 36.445312 117.855469 30.300781 "/>
<path style=" stroke:none;fill-rule:evenodd;fill:rgb(45.098039%,45.098039%,87.058824%);fill-opacity:1;" d="M 150.253906 30.300781 C 150.253906 24.15625 141.039062 24.15625 141.039062 30.300781 C 141.039062 36.445312 150.253906 36.445312 150.253906 30.300781 "/>
<path style=" stroke:none;fill-rule:evenodd;fill:rgb(45.098039%,45.098039%,87.058824%);fill-opacity:1;" d="M 170.054688 30.300781 C 170.054688 24.15625 160.839844 24.15625 160.839844 30.300781 C 160.839844 36.445312 170.054688 36.445312 170.054688 30.300781 "/>
<path style=" stroke:none;fill-rule:evenodd;fill:rgb(45.098039%,45.098039%,87.058824%);fill-opacity:1;" d="M 202.457031 30.300781 C 202.457031 24.15625 193.238281 24.15625 193.238281 30.300781 C 193.238281 36.445312 202.457031 36.445312 202.457031 30.300781 "/>
</g>
</svg>
