<?xml version="1.0" encoding="UTF-8"?>
<svg xmlns="http://www.w3.org/2000/svg" xmlns:xlink="http://www.w3.org/1999/xlink" width="209pt" height="178pt" viewBox="0 0 209 178" version="1.1">
<g id="surface1">
<path style="fill:none;stroke-width:0.006;stroke-linecap:round;stroke-linejoin:miter;stroke:rgb(100%,49.803922%,45.098039%);stroke-opacity:1;stroke-miterlimit:10;" d="M 0.00497663 3.440004 L 0.00497663 2.954978 " transform="matrix(72,0,0,-72,4.85262,325.40686)"/>
<path style="fill:none;stroke-width:0.006;stroke-linecap:round;stroke-linejoin:miter;stroke:rgb(100%,49.803922%,45.098039%);stroke-opacity:1;stroke-miterlimit:10;" d="M 0.00497663 3.440004 L 0.545016 3.440004 " transform="matrix(72,0,0,-72,4.85262,325.40686)"/>
<path style="fill:none;stroke-width:0.006;stroke-linecap:round;stroke-linejoin:miter;stroke:rgb(100%,49.803922%,45.098039%);stroke-opacity:1;stroke-miterlimit:10;" d="M 0.545016 3.440004 L 0.629977 3.525019 " transform="matrix(72,0,0,-72,4.85262,325.40686)"/>
<path style="fill:none;stroke-width:0.006;stroke-linecap:round;stroke-linejoin:miter;stroke:rgb(100%,49.803922%,45.098039%);stroke-opacity:1;stroke-miterlimit:10;" d="M 0.629977 3.525019 L 0.629977 3.764982 " transform="matrix(72,0,0,-72,4.85262,325.40686)"/>
<path style=" stroke:none;fill-rule:evenodd;fill:rgb(45.098039%,45.098039%,87.058824%);fill-opacity:1;" d="M 35.921875 96.085938 C 35.921875 95.460938 34.984375 95.460938 34.984375 96.085938 C 34.984375 96.710938 35.921875 96.710938 35.921875 96.085938 "/>
<path style=" stroke:none;fill-rule:evenodd;fill:rgb(45.098039%,45.098039%,87.058824%);fill-opacity:1;" d="M 40.601562 84.566406 C 40.601562 83.941406 39.664062 83.941406 39.664062 84.566406 C 39.664062 85.191406 40.601562 85.191406 40.601562 84.566406 "/>
<path style=" stroke:none;fill-rule:evenodd;fill:rgb(45.098039%,45.098039%,87.058824%);fill-opacity:1;" d="M 44.921875 82.40625 C 44.921875 81.78125 43.984375 81.78125 43.984375 82.40625 C 43.984375 83.03125 44.921875 83.03125 44.921875 82.40625 "/>
<path style=" stroke:none;fill-rule:evenodd;fill:rgb(45.098039%,45.098039%,87.058824%);fill-opacity:1;" d="M 47.082031 94.285156 C 47.082031 93.664062 46.144531 93.664062 46.144531 94.285156 C 46.144531 94.910156 47.082031 94.910156 47.082031 94.285156 "/>
<path style=" stroke:none;fill-rule:evenodd;fill:rgb(45.098039%,45.098039%,87.058824%);fill-opacity:1;" d="M 54.640625 89.605469 C 54.640625 88.984375 53.703125 88.984375 53.703125 89.605469 C 53.703125 90.230469 54.640625 90.230469 54.640625 89.605469 "/>
<path style=" stroke:none;fill-rule:evenodd;fill:rgb(45.098039%,45.098039%,87.058824%);fill-opacity:1;" d="M 54.640625 94.648438 C 54.640625 94.023438 53.703125 94.023438 53.703125 94.648438 C 53.703125 95.269531 54.640625 95.269531 54.640625 94.648438 "/>
<path style=" stroke:none;fill-rule:evenodd;fill:rgb(45.098039%,45.098039%,87.058824%);fill-opacity:1;" d="M 62.199219 89.605469 C 62.199219 88.984375 61.265625 88.984375 61.265625 89.605469 C 61.265625 90.230469 62.199219 90.230469 62.199219 89.605469 "/>
<path style=" stroke:none;fill-rule:evenodd;fill:rgb(45.098039%,45.098039%,87.058824%);fill-opacity:1;" d="M 63.640625 67.214844 C 63.640625 66.589844 62.703125 66.589844 62.703125 67.214844 C 62.703125 67.839844 63.640625 67.839844 63.640625 67.214844 "/>
<path style=" stroke:none;fill-rule:evenodd;fill:rgb(45.098039%,45.098039%,87.058824%);fill-opacity:1;" d="M 63.640625 71.605469 C 63.640625 70.984375 62.703125 70.984375 62.703125 71.605469 C 62.703125 72.230469 63.640625 72.230469 63.640625 71.605469 "/>
<path style=" stroke:none;fill-rule:evenodd;fill:rgb(45.098039%,45.098039%,87.058824%);fill-opacity:1;" d="M 63.640625 76 C 63.640625 75.375 62.703125 75.375 62.703125 76 C 62.703125 76.621094 63.640625 76.621094 63.640625 76 "/>
<path style=" stroke:none;fill-rule:evenodd;fill:rgb(45.098039%,45.098039%,87.058824%);fill-opacity:1;" d="M 67.601562 93.566406 C 67.601562 92.941406 66.664062 92.941406 66.664062 93.566406 C 66.664062 94.191406 67.601562 94.191406 67.601562 93.566406 "/>
<path style=" stroke:none;fill-rule:evenodd;fill:rgb(45.098039%,45.098039%,87.058824%);fill-opacity:1;" d="M 68.320312 74.125 C 68.320312 73.503906 67.382812 73.503906 67.382812 74.125 C 67.382812 74.75 68.320312 74.75 68.320312 74.125 "/>
<path style=" stroke:none;fill-rule:evenodd;fill:rgb(45.098039%,45.098039%,87.058824%);fill-opacity:1;" d="M 70.121094 33.808594 C 70.121094 33.183594 69.183594 33.183594 69.183594 33.808594 C 69.183594 34.429688 70.121094 34.429688 70.121094 33.808594 "/>
<path style=" stroke:none;fill-rule:evenodd;fill:rgb(45.098039%,45.098039%,87.058824%);fill-opacity:1;" d="M 70.121094 77.726562 C 70.121094 77.101562 69.183594 77.101562 69.183594 77.726562 C 69.183594 78.351562 70.121094 78.351562 70.121094 77.726562 "/>
<path style=" stroke:none;fill-rule:evenodd;fill:rgb(45.098039%,45.098039%,87.058824%);fill-opacity:1;" d="M 71.921875 38.488281 C 71.921875 37.863281 70.984375 37.863281 70.984375 38.488281 C 70.984375 39.109375 71.921875 39.109375 71.921875 38.488281 "/>
<path style=" stroke:none;fill-rule:evenodd;fill:rgb(45.098039%,45.098039%,87.058824%);fill-opacity:1;" d="M 73.375 146.761719 C 73.375 146.136719 72.4375 146.136719 72.4375 146.761719 C 72.4375 147.382812 73.375 147.382812 73.375 146.761719 "/>
<path style=" stroke:none;fill-rule:evenodd;fill:rgb(45.098039%,45.098039%,87.058824%);fill-opacity:1;" d="M 74.441406 82.40625 C 74.441406 81.78125 73.503906 81.78125 73.503906 82.40625 C 73.503906 83.03125 74.441406 83.03125 74.441406 82.40625 "/>
<path style=" stroke:none;fill-rule:evenodd;fill:rgb(45.098039%,45.098039%,87.058824%);fill-opacity:1;" d="M 75.519531 97.527344 C 75.519531 96.902344 74.585938 96.902344 74.585938 97.527344 C 74.585938 98.152344 75.519531 98.152344 75.519531 97.527344 "/>
<path style=" stroke:none;fill-rule:evenodd;fill:rgb(45.098039%,45.098039%,87.058824%);fill-opacity:1;" d="M 76.960938 33.808594 C 76.960938 33.183594 76.023438 33.183594 76.023438 33.808594 C 76.023438 34.429688 76.960938 34.429688 76.960938 33.808594 "/>
<path style=" stroke:none;fill-rule:evenodd;fill:rgb(45.098039%,45.098039%,87.058824%);fill-opacity:1;" d="M 77.335938 172.320312 C 77.335938 171.695312 76.398438 171.695312 76.398438 172.320312 C 76.398438 172.945312 77.335938 172.945312 77.335938 172.320312 "/>
<path style=" stroke:none;fill-rule:evenodd;fill:rgb(45.098039%,45.098039%,87.058824%);fill-opacity:1;" d="M 79.734375 77.726562 C 79.734375 77.101562 78.796875 77.101562 78.796875 77.726562 C 78.796875 78.351562 79.734375 78.351562 79.734375 77.726562 "/>
<path style=" stroke:none;fill-rule:evenodd;fill:rgb(45.098039%,45.098039%,87.058824%);fill-opacity:1;" d="M 79.734375 80.246094 C 79.734375 79.621094 78.796875 79.621094 78.796875 80.246094 C 78.796875 80.871094 79.734375 80.871094 79.734375 80.246094 "/>
<path style=" stroke:none;fill-rule:evenodd;fill:rgb(45.098039%,45.098039%,87.058824%);fill-opacity:1;" d="M 79.839844 66.207031 C 79.839844 65.582031 78.90625 65.582031 78.90625 66.207031 C 78.90625 66.832031 79.839844 66.832031 79.839844 66.207031 "/>
<path style=" stroke:none;fill-rule:evenodd;fill:rgb(45.098039%,45.098039%,87.058824%);fill-opacity:1;" d="M 81.640625 58.285156 C 81.640625 57.664062 80.703125 57.664062 80.703125 58.285156 C 80.703125 58.910156 81.640625 58.910156 81.640625 58.285156 "/>
<path style=" stroke:none;fill-rule:evenodd;fill:rgb(45.098039%,45.098039%,87.058824%);fill-opacity:1;" d="M 82 38.59375 C 82 37.972656 81.066406 37.972656 81.066406 38.59375 C 81.066406 39.21875 82 39.21875 82 38.59375 "/>
<path style=" stroke:none;fill-rule:evenodd;fill:rgb(45.098039%,45.098039%,87.058824%);fill-opacity:1;" d="M 82.71875 6.808594 C 82.71875 6.183594 81.785156 6.183594 81.785156 6.808594 C 81.785156 7.429688 82.71875 7.429688 82.71875 6.808594 "/>
<path style=" stroke:none;fill-rule:evenodd;fill:rgb(45.098039%,45.098039%,87.058824%);fill-opacity:1;" d="M 83.332031 65.199219 C 83.332031 64.574219 82.398438 64.574219 82.398438 65.199219 C 82.398438 65.824219 83.332031 65.824219 83.332031 65.199219 "/>
<path style=" stroke:none;fill-rule:evenodd;fill:rgb(45.098039%,45.098039%,87.058824%);fill-opacity:1;" d="M 84.160156 73.40625 C 84.160156 72.78125 83.226562 72.78125 83.226562 73.40625 C 83.226562 74.03125 84.160156 74.03125 84.160156 73.40625 "/>
<path style=" stroke:none;fill-rule:evenodd;fill:rgb(45.098039%,45.098039%,87.058824%);fill-opacity:1;" d="M 84.175781 140.28125 C 84.175781 139.65625 83.238281 139.65625 83.238281 140.28125 C 83.238281 140.90625 84.175781 140.90625 84.175781 140.28125 "/>
<path style=" stroke:none;fill-rule:evenodd;fill:rgb(45.098039%,45.098039%,87.058824%);fill-opacity:1;" d="M 84.878906 39.207031 C 84.878906 38.582031 83.945312 38.582031 83.945312 39.207031 C 83.945312 39.832031 84.878906 39.832031 84.878906 39.207031 "/>
<path style=" stroke:none;fill-rule:evenodd;fill:rgb(45.098039%,45.098039%,87.058824%);fill-opacity:1;" d="M 85.492188 95.007812 C 85.492188 94.382812 84.554688 94.382812 84.554688 95.007812 C 84.554688 95.632812 85.492188 95.632812 85.492188 95.007812 "/>
<path style=" stroke:none;fill-rule:evenodd;fill:rgb(45.098039%,45.098039%,87.058824%);fill-opacity:1;" d="M 85.78125 65.199219 C 85.78125 64.574219 84.84375 64.574219 84.84375 65.199219 C 84.84375 65.824219 85.78125 65.824219 85.78125 65.199219 "/>
<path style=" stroke:none;fill-rule:evenodd;fill:rgb(45.098039%,45.098039%,87.058824%);fill-opacity:1;" d="M 87.761719 6.808594 C 87.761719 6.183594 86.824219 6.183594 86.824219 6.808594 C 86.824219 7.429688 87.761719 7.429688 87.761719 6.808594 "/>
<path style=" stroke:none;fill-rule:evenodd;fill:rgb(45.098039%,45.098039%,87.058824%);fill-opacity:1;" d="M 88.011719 95.007812 C 88.011719 94.382812 87.078125 94.382812 87.078125 95.007812 C 87.078125 95.632812 88.011719 95.632812 88.011719 95.007812 "/>
<path style=" stroke:none;fill-rule:evenodd;fill:rgb(45.098039%,45.098039%,87.058824%);fill-opacity:1;" d="M 88.230469 65.199219 C 88.230469 64.574219 87.292969 64.574219 87.292969 65.199219 C 87.292969 65.824219 88.230469 65.824219 88.230469 65.199219 "/>
<path style=" stroke:none;fill-rule:evenodd;fill:rgb(45.098039%,45.098039%,87.058824%);fill-opacity:1;" d="M 90.640625 95.007812 C 90.640625 94.382812 89.703125 94.382812 89.703125 95.007812 C 89.703125 95.632812 90.640625 95.632812 90.640625 95.007812 "/>
<path style=" stroke:none;fill-rule:evenodd;fill:rgb(45.098039%,45.098039%,87.058824%);fill-opacity:1;" d="M 91.71875 73.765625 C 91.71875 73.144531 90.785156 73.144531 90.785156 73.765625 C 90.785156 74.390625 91.71875 74.390625 91.71875 73.765625 "/>
<path style=" stroke:none;fill-rule:evenodd;fill:rgb(45.098039%,45.098039%,87.058824%);fill-opacity:1;" d="M 92.800781 83.488281 C 92.800781 82.863281 91.863281 82.863281 91.863281 83.488281 C 91.863281 84.109375 92.800781 84.109375 92.800781 83.488281 "/>
<path style=" stroke:none;fill-rule:evenodd;fill:rgb(45.098039%,45.098039%,87.058824%);fill-opacity:1;" d="M 94.242188 107.246094 C 94.242188 106.621094 93.304688 106.621094 93.304688 107.246094 C 93.304688 107.871094 94.242188 107.871094 94.242188 107.246094 "/>
<path style=" stroke:none;fill-rule:evenodd;fill:rgb(45.098039%,45.098039%,87.058824%);fill-opacity:1;" d="M 98.574219 162.960938 C 98.574219 162.335938 97.640625 162.335938 97.640625 162.960938 C 97.640625 163.585938 98.574219 163.585938 98.574219 162.960938 "/>
<path style=" stroke:none;fill-rule:evenodd;fill:rgb(45.098039%,45.098039%,87.058824%);fill-opacity:1;" d="M 98.933594 147.480469 C 98.933594 146.855469 98 146.855469 98 147.480469 C 98 148.105469 98.933594 148.105469 98.933594 147.480469 "/>
<path style=" stroke:none;fill-rule:evenodd;fill:rgb(45.098039%,45.098039%,87.058824%);fill-opacity:1;" d="M 99.28125 68.367188 C 99.28125 67.742188 98.34375 67.742188 98.34375 68.367188 C 98.34375 68.992188 99.28125 68.992188 99.28125 68.367188 "/>
<path style=" stroke:none;fill-rule:evenodd;fill:rgb(45.098039%,45.098039%,87.058824%);fill-opacity:1;" d="M 99.65625 172.679688 C 99.65625 172.054688 98.71875 172.054688 98.71875 172.679688 C 98.71875 173.304688 99.65625 173.304688 99.65625 172.679688 "/>
<path style=" stroke:none;fill-rule:evenodd;fill:rgb(45.098039%,45.098039%,87.058824%);fill-opacity:1;" d="M 100.015625 133.082031 C 100.015625 132.457031 99.078125 132.457031 99.078125 133.082031 C 99.078125 133.703125 100.015625 133.703125 100.015625 133.082031 "/>
<path style=" stroke:none;fill-rule:evenodd;fill:rgb(45.098039%,45.098039%,87.058824%);fill-opacity:1;" d="M 101.453125 168.359375 C 101.453125 167.738281 100.519531 167.738281 100.519531 168.359375 C 100.519531 168.984375 101.453125 168.984375 101.453125 168.359375 "/>
<path style=" stroke:none;fill-rule:evenodd;fill:rgb(45.098039%,45.098039%,87.058824%);fill-opacity:1;" d="M 102.175781 172.320312 C 102.175781 171.695312 101.238281 171.695312 101.238281 172.320312 C 101.238281 172.945312 102.175781 172.945312 102.175781 172.320312 "/>
<path style=" stroke:none;fill-rule:evenodd;fill:rgb(45.098039%,45.098039%,87.058824%);fill-opacity:1;" d="M 102.519531 75.207031 C 102.519531 74.582031 101.585938 74.582031 101.585938 75.207031 C 101.585938 75.832031 102.519531 75.832031 102.519531 75.207031 "/>
<path style=" stroke:none;fill-rule:evenodd;fill:rgb(45.098039%,45.098039%,87.058824%);fill-opacity:1;" d="M 106.480469 65.488281 C 106.480469 64.863281 105.542969 64.863281 105.542969 65.488281 C 105.542969 66.109375 106.480469 66.109375 106.480469 65.488281 "/>
<path style=" stroke:none;fill-rule:evenodd;fill:rgb(45.098039%,45.098039%,87.058824%);fill-opacity:1;" d="M 107.5625 56.847656 C 107.5625 56.222656 106.625 56.222656 106.625 56.847656 C 106.625 57.472656 107.5625 57.472656 107.5625 56.847656 "/>
<path style=" stroke:none;fill-rule:evenodd;fill:rgb(45.098039%,45.098039%,87.058824%);fill-opacity:1;" d="M 109.613281 89.246094 C 109.613281 88.621094 108.675781 88.621094 108.675781 89.246094 C 108.675781 89.871094 109.613281 89.871094 109.613281 89.246094 "/>
<path style=" stroke:none;fill-rule:evenodd;fill:rgb(45.098039%,45.098039%,87.058824%);fill-opacity:1;" d="M 109.71875 92.488281 C 109.71875 91.863281 108.785156 91.863281 108.785156 92.488281 C 108.785156 93.109375 109.71875 93.109375 109.71875 92.488281 "/>
<path style=" stroke:none;fill-rule:evenodd;fill:rgb(45.098039%,45.098039%,87.058824%);fill-opacity:1;" d="M 110.453125 129.839844 C 110.453125 129.214844 109.519531 129.214844 109.519531 129.839844 C 109.519531 130.464844 110.453125 130.464844 110.453125 129.839844 "/>
<path style=" stroke:none;fill-rule:evenodd;fill:rgb(45.098039%,45.098039%,87.058824%);fill-opacity:1;" d="M 111.160156 64.40625 C 111.160156 63.78125 110.226562 63.78125 110.226562 64.40625 C 110.226562 65.03125 111.160156 65.03125 111.160156 64.40625 "/>
<path style=" stroke:none;fill-rule:evenodd;fill:rgb(45.098039%,45.098039%,87.058824%);fill-opacity:1;" d="M 116.933594 143.878906 C 116.933594 143.257812 116 143.257812 116 143.878906 C 116 144.503906 116.933594 144.503906 116.933594 143.878906 "/>
<path style=" stroke:none;fill-rule:evenodd;fill:rgb(45.098039%,45.098039%,87.058824%);fill-opacity:1;" d="M 116.933594 154.320312 C 116.933594 153.695312 116 153.695312 116 154.320312 C 116 154.945312 116.933594 154.945312 116.933594 154.320312 "/>
<path style=" stroke:none;fill-rule:evenodd;fill:rgb(45.098039%,45.098039%,87.058824%);fill-opacity:1;" d="M 116.933594 157.558594 C 116.933594 156.9375 116 156.9375 116 157.558594 C 116 158.183594 116.933594 158.183594 116.933594 157.558594 "/>
<path style=" stroke:none;fill-rule:evenodd;fill:rgb(45.098039%,45.098039%,87.058824%);fill-opacity:1;" d="M 116.933594 162.601562 C 116.933594 161.976562 116 161.976562 116 162.601562 C 116 163.222656 116.933594 163.222656 116.933594 162.601562 "/>
<path style=" stroke:none;fill-rule:evenodd;fill:rgb(45.098039%,45.098039%,87.058824%);fill-opacity:1;" d="M 119.082031 85.648438 C 119.082031 85.023438 118.144531 85.023438 118.144531 85.648438 C 118.144531 86.269531 119.082031 86.269531 119.082031 85.648438 "/>
<path style=" stroke:none;fill-rule:evenodd;fill:rgb(45.098039%,45.098039%,87.058824%);fill-opacity:1;" d="M 120.519531 64.40625 C 120.519531 63.78125 119.585938 63.78125 119.585938 64.40625 C 119.585938 65.03125 120.519531 65.03125 120.519531 64.40625 "/>
<path style=" stroke:none;fill-rule:evenodd;fill:rgb(45.098039%,45.098039%,87.058824%);fill-opacity:1;" d="M 120.519531 100.40625 C 120.519531 99.78125 119.585938 99.78125 119.585938 100.40625 C 119.585938 101.03125 120.519531 101.03125 120.519531 100.40625 "/>
<path style=" stroke:none;fill-rule:evenodd;fill:rgb(45.098039%,45.098039%,87.058824%);fill-opacity:1;" d="M 120.535156 143.878906 C 120.535156 143.257812 119.597656 143.257812 119.597656 143.878906 C 119.597656 144.503906 120.535156 144.503906 120.535156 143.878906 "/>
<path style=" stroke:none;fill-rule:evenodd;fill:rgb(45.098039%,45.098039%,87.058824%);fill-opacity:1;" d="M 121.960938 33.808594 C 121.960938 33.183594 121.023438 33.183594 121.023438 33.808594 C 121.023438 34.429688 121.960938 34.429688 121.960938 33.808594 "/>
<path style=" stroke:none;fill-rule:evenodd;fill:rgb(45.098039%,45.098039%,87.058824%);fill-opacity:1;" d="M 123.761719 38.488281 C 123.761719 37.863281 122.824219 37.863281 122.824219 38.488281 C 122.824219 39.109375 123.761719 39.109375 123.761719 38.488281 "/>
<path style=" stroke:none;fill-rule:evenodd;fill:rgb(45.098039%,45.098039%,87.058824%);fill-opacity:1;" d="M 124.121094 59.007812 C 124.121094 58.382812 123.183594 58.382812 123.183594 59.007812 C 123.183594 59.632812 124.121094 59.632812 124.121094 59.007812 "/>
<path style=" stroke:none;fill-rule:evenodd;fill:rgb(45.098039%,45.098039%,87.058824%);fill-opacity:1;" d="M 127.71875 59.007812 C 127.71875 58.382812 126.785156 58.382812 126.785156 59.007812 C 126.785156 59.632812 127.71875 59.632812 127.71875 59.007812 "/>
<path style=" stroke:none;fill-rule:evenodd;fill:rgb(45.098039%,45.098039%,87.058824%);fill-opacity:1;" d="M 127.734375 143.878906 C 127.734375 143.257812 126.800781 143.257812 126.800781 143.878906 C 126.800781 144.503906 127.734375 144.503906 127.734375 143.878906 "/>
<path style=" stroke:none;fill-rule:evenodd;fill:rgb(45.098039%,45.098039%,87.058824%);fill-opacity:1;" d="M 127.734375 162.601562 C 127.734375 161.976562 126.800781 161.976562 126.800781 162.601562 C 126.800781 163.222656 127.734375 163.222656 127.734375 162.601562 "/>
<path style=" stroke:none;fill-rule:evenodd;fill:rgb(45.098039%,45.098039%,87.058824%);fill-opacity:1;" d="M 128.800781 33.808594 C 128.800781 33.183594 127.863281 33.183594 127.863281 33.808594 C 127.863281 34.429688 128.800781 34.429688 128.800781 33.808594 "/>
<path style=" stroke:none;fill-rule:evenodd;fill:rgb(45.098039%,45.098039%,87.058824%);fill-opacity:1;" d="M 131.320312 59.007812 C 131.320312 58.382812 130.382812 58.382812 130.382812 59.007812 C 130.382812 59.632812 131.320312 59.632812 131.320312 59.007812 "/>
<path style=" stroke:none;fill-rule:evenodd;fill:rgb(45.098039%,45.098039%,87.058824%);fill-opacity:1;" d="M 131.320312 69.085938 C 131.320312 68.460938 130.382812 68.460938 130.382812 69.085938 C 130.382812 69.710938 131.320312 69.710938 131.320312 69.085938 "/>
<path style=" stroke:none;fill-rule:evenodd;fill:rgb(45.098039%,45.098039%,87.058824%);fill-opacity:1;" d="M 131.320312 76.648438 C 131.320312 76.023438 130.382812 76.023438 130.382812 76.648438 C 130.382812 77.269531 131.320312 77.269531 131.320312 76.648438 "/>
<path style=" stroke:none;fill-rule:evenodd;fill:rgb(45.098039%,45.098039%,87.058824%);fill-opacity:1;" d="M 131.320312 82.40625 C 131.320312 81.78125 130.382812 81.78125 130.382812 82.40625 C 130.382812 83.03125 131.320312 83.03125 131.320312 82.40625 "/>
<path style=" stroke:none;fill-rule:evenodd;fill:rgb(45.098039%,45.098039%,87.058824%);fill-opacity:1;" d="M 131.320312 88.886719 C 131.320312 88.261719 130.382812 88.261719 130.382812 88.886719 C 130.382812 89.511719 131.320312 89.511719 131.320312 88.886719 "/>
<path style=" stroke:none;fill-rule:evenodd;fill:rgb(45.098039%,45.098039%,87.058824%);fill-opacity:1;" d="M 131.335938 143.878906 C 131.335938 143.257812 130.398438 143.257812 130.398438 143.878906 C 130.398438 144.503906 131.335938 144.503906 131.335938 143.878906 "/>
<path style=" stroke:none;fill-rule:evenodd;fill:rgb(45.098039%,45.098039%,87.058824%);fill-opacity:1;" d="M 131.335938 157.558594 C 131.335938 156.9375 130.398438 156.9375 130.398438 157.558594 C 130.398438 158.183594 131.335938 158.183594 131.335938 157.558594 "/>
<path style=" stroke:none;fill-rule:evenodd;fill:rgb(45.098039%,45.098039%,87.058824%);fill-opacity:1;" d="M 131.335938 162.601562 C 131.335938 161.976562 130.398438 161.976562 130.398438 162.601562 C 130.398438 163.222656 131.335938 163.222656 131.335938 162.601562 "/>
<path style=" stroke:none;fill-rule:evenodd;fill:rgb(45.098039%,45.098039%,87.058824%);fill-opacity:1;" d="M 133.136719 147.839844 C 133.136719 147.214844 132.199219 147.214844 132.199219 147.839844 C 132.199219 148.464844 133.136719 148.464844 133.136719 147.839844 "/>
<path style=" stroke:none;fill-rule:evenodd;fill:rgb(45.098039%,45.098039%,87.058824%);fill-opacity:1;" d="M 133.839844 38.59375 C 133.839844 37.972656 132.90625 37.972656 132.90625 38.59375 C 132.90625 39.21875 133.839844 39.21875 133.839844 38.59375 "/>
<path style=" stroke:none;fill-rule:evenodd;fill:rgb(45.098039%,45.098039%,87.058824%);fill-opacity:1;" d="M 134.5625 6.808594 C 134.5625 6.183594 133.625 6.183594 133.625 6.808594 C 133.625 7.429688 134.5625 7.429688 134.5625 6.808594 "/>
<path style=" stroke:none;fill-rule:evenodd;fill:rgb(45.098039%,45.098039%,87.058824%);fill-opacity:1;" d="M 134.921875 59.007812 C 134.921875 58.382812 133.984375 58.382812 133.984375 59.007812 C 133.984375 59.632812 134.921875 59.632812 134.921875 59.007812 "/>
<path style=" stroke:none;fill-rule:evenodd;fill:rgb(45.098039%,45.098039%,87.058824%);fill-opacity:1;" d="M 134.921875 69.085938 C 134.921875 68.460938 133.984375 68.460938 133.984375 69.085938 C 133.984375 69.710938 134.921875 69.710938 134.921875 69.085938 "/>
<path style=" stroke:none;fill-rule:evenodd;fill:rgb(45.098039%,45.098039%,87.058824%);fill-opacity:1;" d="M 134.921875 76.648438 C 134.921875 76.023438 133.984375 76.023438 133.984375 76.648438 C 133.984375 77.269531 134.921875 77.269531 134.921875 76.648438 "/>
<path style=" stroke:none;fill-rule:evenodd;fill:rgb(45.098039%,45.098039%,87.058824%);fill-opacity:1;" d="M 134.921875 82.40625 C 134.921875 81.78125 133.984375 81.78125 133.984375 82.40625 C 133.984375 83.03125 134.921875 83.03125 134.921875 82.40625 "/>
<path style=" stroke:none;fill-rule:evenodd;fill:rgb(45.098039%,45.098039%,87.058824%);fill-opacity:1;" d="M 134.921875 88.886719 C 134.921875 88.261719 133.984375 88.261719 133.984375 88.886719 C 133.984375 89.511719 134.921875 89.511719 134.921875 88.886719 "/>
<path style=" stroke:none;fill-rule:evenodd;fill:rgb(45.098039%,45.098039%,87.058824%);fill-opacity:1;" d="M 134.933594 143.878906 C 134.933594 143.257812 134 143.257812 134 143.878906 C 134 144.503906 134.933594 144.503906 134.933594 143.878906 "/>
<path style=" stroke:none;fill-rule:evenodd;fill:rgb(45.098039%,45.098039%,87.058824%);fill-opacity:1;" d="M 134.933594 157.558594 C 134.933594 156.9375 134 156.9375 134 157.558594 C 134 158.183594 134.933594 158.183594 134.933594 157.558594 "/>
<path style=" stroke:none;fill-rule:evenodd;fill:rgb(45.098039%,45.098039%,87.058824%);fill-opacity:1;" d="M 134.933594 162.601562 C 134.933594 161.976562 134 161.976562 134 162.601562 C 134 163.222656 134.933594 163.222656 134.933594 162.601562 "/>
<path style=" stroke:none;fill-rule:evenodd;fill:rgb(45.098039%,45.098039%,87.058824%);fill-opacity:1;" d="M 136.71875 39.207031 C 136.71875 38.582031 135.785156 38.582031 135.785156 39.207031 C 135.785156 39.832031 136.71875 39.832031 136.71875 39.207031 "/>
<path style=" stroke:none;fill-rule:evenodd;fill:rgb(45.098039%,45.098039%,87.058824%);fill-opacity:1;" d="M 138.535156 162.601562 C 138.535156 161.976562 137.597656 161.976562 137.597656 162.601562 C 137.597656 163.222656 138.535156 163.222656 138.535156 162.601562 "/>
<path style=" stroke:none;fill-rule:evenodd;fill:rgb(45.098039%,45.098039%,87.058824%);fill-opacity:1;" d="M 139.601562 6.808594 C 139.601562 6.183594 138.664062 6.183594 138.664062 6.808594 C 138.664062 7.429688 139.601562 7.429688 139.601562 6.808594 "/>
<path style=" stroke:none;fill-rule:evenodd;fill:rgb(45.098039%,45.098039%,87.058824%);fill-opacity:1;" d="M 141.402344 73.046875 C 141.402344 72.421875 140.464844 72.421875 140.464844 73.046875 C 140.464844 73.671875 141.402344 73.671875 141.402344 73.046875 "/>
<path style=" stroke:none;fill-rule:evenodd;fill:rgb(45.098039%,45.098039%,87.058824%);fill-opacity:1;" d="M 142.121094 59.007812 C 142.121094 58.382812 141.183594 58.382812 141.183594 59.007812 C 141.183594 59.632812 142.121094 59.632812 142.121094 59.007812 "/>
<path style=" stroke:none;fill-rule:evenodd;fill:rgb(45.098039%,45.098039%,87.058824%);fill-opacity:1;" d="M 142.136719 143.878906 C 142.136719 143.257812 141.199219 143.257812 141.199219 143.878906 C 141.199219 144.503906 142.136719 144.503906 142.136719 143.878906 "/>
<path style=" stroke:none;fill-rule:evenodd;fill:rgb(45.098039%,45.098039%,87.058824%);fill-opacity:1;" d="M 142.136719 162.601562 C 142.136719 161.976562 141.199219 161.976562 141.199219 162.601562 C 141.199219 163.222656 142.136719 163.222656 142.136719 162.601562 "/>
<path style=" stroke:none;fill-rule:evenodd;fill:rgb(45.098039%,45.098039%,87.058824%);fill-opacity:1;" d="M 145.71875 59.007812 C 145.71875 58.382812 144.785156 58.382812 144.785156 59.007812 C 144.785156 59.632812 145.71875 59.632812 145.71875 59.007812 "/>
<path style=" stroke:none;fill-rule:evenodd;fill:rgb(45.098039%,45.098039%,87.058824%);fill-opacity:1;" d="M 145.734375 157.558594 C 145.734375 156.9375 144.800781 156.9375 144.800781 157.558594 C 144.800781 158.183594 145.734375 158.183594 145.734375 157.558594 "/>
<path style=" stroke:none;fill-rule:evenodd;fill:rgb(45.098039%,45.098039%,87.058824%);fill-opacity:1;" d="M 145.734375 162.601562 C 145.734375 161.976562 144.800781 161.976562 144.800781 162.601562 C 144.800781 163.222656 145.734375 163.222656 145.734375 162.601562 "/>
<path style=" stroke:none;fill-rule:evenodd;fill:rgb(45.098039%,45.098039%,87.058824%);fill-opacity:1;" d="M 148.960938 118.765625 C 148.960938 118.144531 148.023438 118.144531 148.023438 118.765625 C 148.023438 119.390625 148.960938 119.390625 148.960938 118.765625 "/>
<path style=" stroke:none;fill-rule:evenodd;fill:rgb(45.098039%,45.098039%,87.058824%);fill-opacity:1;" d="M 149.320312 59.007812 C 149.320312 58.382812 148.382812 58.382812 148.382812 59.007812 C 148.382812 59.632812 149.320312 59.632812 149.320312 59.007812 "/>
<path style=" stroke:none;fill-rule:evenodd;fill:rgb(45.098039%,45.098039%,87.058824%);fill-opacity:1;" d="M 149.335938 157.558594 C 149.335938 156.9375 148.398438 156.9375 148.398438 157.558594 C 148.398438 158.183594 149.335938 158.183594 149.335938 157.558594 "/>
<path style=" stroke:none;fill-rule:evenodd;fill:rgb(45.098039%,45.098039%,87.058824%);fill-opacity:1;" d="M 149.335938 162.601562 C 149.335938 161.976562 148.398438 161.976562 148.398438 162.601562 C 148.398438 163.222656 149.335938 163.222656 149.335938 162.601562 "/>
<path style=" stroke:none;fill-rule:evenodd;fill:rgb(45.098039%,45.098039%,87.058824%);fill-opacity:1;" d="M 152.5625 67.648438 C 152.5625 67.023438 151.625 67.023438 151.625 67.648438 C 151.625 68.269531 152.5625 68.269531 152.5625 67.648438 "/>
<path style=" stroke:none;fill-rule:evenodd;fill:rgb(45.098039%,45.098039%,87.058824%);fill-opacity:1;" d="M 152.921875 105.085938 C 152.921875 104.460938 151.984375 104.460938 151.984375 105.085938 C 151.984375 105.710938 152.921875 105.710938 152.921875 105.085938 "/>
<path style=" stroke:none;fill-rule:evenodd;fill:rgb(45.098039%,45.098039%,87.058824%);fill-opacity:1;" d="M 152.921875 115.886719 C 152.921875 115.261719 151.984375 115.261719 151.984375 115.886719 C 151.984375 116.511719 152.921875 116.511719 152.921875 115.886719 "/>
<path style=" stroke:none;fill-rule:evenodd;fill:rgb(45.098039%,45.098039%,87.058824%);fill-opacity:1;" d="M 152.933594 157.558594 C 152.933594 156.9375 152 156.9375 152 157.558594 C 152 158.183594 152.933594 158.183594 152.933594 157.558594 "/>
<path style=" stroke:none;fill-rule:evenodd;fill:rgb(45.098039%,45.098039%,87.058824%);fill-opacity:1;" d="M 152.933594 162.601562 C 152.933594 161.976562 152 161.976562 152 162.601562 C 152 163.222656 152.933594 163.222656 152.933594 162.601562 "/>
<path style=" stroke:none;fill-rule:evenodd;fill:rgb(45.098039%,45.098039%,87.058824%);fill-opacity:1;" d="M 156.535156 162.601562 C 156.535156 161.976562 155.597656 161.976562 155.597656 162.601562 C 155.597656 163.222656 156.535156 163.222656 156.535156 162.601562 "/>
<path style=" stroke:none;fill-rule:evenodd;fill:rgb(45.098039%,45.098039%,87.058824%);fill-opacity:1;" d="M 160.136719 143.878906 C 160.136719 143.257812 159.199219 143.257812 159.199219 143.878906 C 159.199219 144.503906 160.136719 144.503906 160.136719 143.878906 "/>
<path style=" stroke:none;fill-rule:evenodd;fill:rgb(45.098039%,45.098039%,87.058824%);fill-opacity:1;" d="M 160.136719 162.601562 C 160.136719 161.976562 159.199219 161.976562 159.199219 162.601562 C 159.199219 163.222656 160.136719 163.222656 160.136719 162.601562 "/>
<path style=" stroke:none;fill-rule:evenodd;fill:rgb(45.098039%,45.098039%,87.058824%);fill-opacity:1;" d="M 161.921875 38.558594 C 161.921875 37.933594 160.984375 37.933594 160.984375 38.558594 C 160.984375 39.183594 161.921875 39.183594 161.921875 38.558594 "/>
<path style=" stroke:none;fill-rule:evenodd;fill:rgb(45.098039%,45.098039%,87.058824%);fill-opacity:1;" d="M 162.640625 78.085938 C 162.640625 77.460938 161.703125 77.460938 161.703125 78.085938 C 161.703125 78.710938 162.640625 78.710938 162.640625 78.085938 "/>
<path style=" stroke:none;fill-rule:evenodd;fill:rgb(45.098039%,45.098039%,87.058824%);fill-opacity:1;" d="M 163.734375 143.878906 C 163.734375 143.257812 162.800781 143.257812 162.800781 143.878906 C 162.800781 144.503906 163.734375 144.503906 163.734375 143.878906 "/>
<path style=" stroke:none;fill-rule:evenodd;fill:rgb(45.098039%,45.098039%,87.058824%);fill-opacity:1;" d="M 163.734375 151.082031 C 163.734375 150.457031 162.800781 150.457031 162.800781 151.082031 C 162.800781 151.703125 163.734375 151.703125 163.734375 151.082031 "/>
<path style=" stroke:none;fill-rule:evenodd;fill:rgb(45.098039%,45.098039%,87.058824%);fill-opacity:1;" d="M 163.734375 157.558594 C 163.734375 156.9375 162.800781 156.9375 162.800781 157.558594 C 162.800781 158.183594 163.734375 158.183594 163.734375 157.558594 "/>
<path style=" stroke:none;fill-rule:evenodd;fill:rgb(45.098039%,45.098039%,87.058824%);fill-opacity:1;" d="M 163.734375 162.601562 C 163.734375 161.976562 162.800781 161.976562 162.800781 162.601562 C 162.800781 163.222656 163.734375 163.222656 163.734375 162.601562 "/>
<path style=" stroke:none;fill-rule:evenodd;fill:rgb(45.098039%,45.098039%,87.058824%);fill-opacity:1;" d="M 164.800781 75.925781 C 164.800781 75.304688 163.863281 75.304688 163.863281 75.925781 C 163.863281 76.550781 164.800781 76.550781 164.800781 75.925781 "/>
<path style=" stroke:none;fill-rule:evenodd;fill:rgb(45.098039%,45.098039%,87.058824%);fill-opacity:1;" d="M 165.519531 38.847656 C 165.519531 38.222656 164.585938 38.222656 164.585938 38.847656 C 164.585938 39.472656 165.519531 39.472656 165.519531 38.847656 "/>
<path style=" stroke:none;fill-rule:evenodd;fill:rgb(45.098039%,45.098039%,87.058824%);fill-opacity:1;" d="M 167.320312 99.6875 C 167.320312 99.0625 166.382812 99.0625 166.382812 99.6875 C 166.382812 100.3125 167.320312 100.3125 167.320312 99.6875 "/>
<path style=" stroke:none;fill-rule:evenodd;fill:rgb(45.098039%,45.098039%,87.058824%);fill-opacity:1;" d="M 169.480469 68.007812 C 169.480469 67.382812 168.542969 67.382812 168.542969 68.007812 C 168.542969 68.632812 169.480469 68.632812 169.480469 68.007812 "/>
<path style=" stroke:none;fill-rule:evenodd;fill:rgb(45.098039%,45.098039%,87.058824%);fill-opacity:1;" d="M 171.640625 29.488281 C 171.640625 28.863281 170.703125 28.863281 170.703125 29.488281 C 170.703125 30.109375 171.640625 30.109375 171.640625 29.488281 "/>
<path style=" stroke:none;fill-rule:evenodd;fill:rgb(45.098039%,45.098039%,87.058824%);fill-opacity:1;" d="M 174.160156 71.246094 C 174.160156 70.621094 173.226562 70.621094 173.226562 71.246094 C 173.226562 71.871094 174.160156 71.871094 174.160156 71.246094 "/>
<path style=" stroke:none;fill-rule:evenodd;fill:rgb(45.098039%,45.098039%,87.058824%);fill-opacity:1;" d="M 174.160156 74.125 C 174.160156 73.503906 173.226562 73.503906 173.226562 74.125 C 173.226562 74.75 174.160156 74.75 174.160156 74.125 "/>
<path style=" stroke:none;fill-rule:evenodd;fill:rgb(45.098039%,45.098039%,87.058824%);fill-opacity:1;" d="M 178.839844 29.488281 C 178.839844 28.863281 177.90625 28.863281 177.90625 29.488281 C 177.90625 30.109375 178.839844 30.109375 178.839844 29.488281 "/>
<path style=" stroke:none;fill-rule:evenodd;fill:rgb(45.098039%,45.098039%,87.058824%);fill-opacity:1;" d="M 182.441406 29.488281 C 182.441406 28.863281 181.503906 28.863281 181.503906 29.488281 C 181.503906 30.109375 182.441406 30.109375 182.441406 29.488281 "/>
<path style=" stroke:none;fill-rule:evenodd;fill:rgb(45.098039%,45.098039%,87.058824%);fill-opacity:1;" d="M 186.070312 29.480469 C 186.070312 28.855469 185.132812 28.855469 185.132812 29.480469 C 185.132812 30.105469 186.070312 30.105469 186.070312 29.480469 "/>
<path style=" stroke:none;fill-rule:evenodd;fill:rgb(45.098039%,45.098039%,87.058824%);fill-opacity:1;" d="M 186.761719 99.328125 C 186.761719 98.703125 185.824219 98.703125 185.824219 99.328125 C 185.824219 99.949219 186.761719 99.949219 186.761719 99.328125 "/>
<path style=" stroke:none;fill-rule:evenodd;fill:rgb(45.098039%,45.098039%,87.058824%);fill-opacity:1;" d="M 188.921875 59.007812 C 188.921875 58.382812 187.984375 58.382812 187.984375 59.007812 C 187.984375 59.632812 188.921875 59.632812 188.921875 59.007812 "/>
<path style=" stroke:none;fill-rule:evenodd;fill:rgb(45.098039%,45.098039%,87.058824%);fill-opacity:1;" d="M 189.640625 29.847656 C 189.640625 29.222656 188.703125 29.222656 188.703125 29.847656 C 188.703125 30.472656 189.640625 30.472656 189.640625 29.847656 "/>
<path style=" stroke:none;fill-rule:evenodd;fill:rgb(45.098039%,45.098039%,87.058824%);fill-opacity:1;" d="M 190.359375 71.246094 C 190.359375 70.621094 189.425781 70.621094 189.425781 71.246094 C 189.425781 71.871094 190.359375 71.871094 190.359375 71.246094 "/>
<path style=" stroke:none;fill-rule:evenodd;fill:rgb(45.098039%,45.098039%,87.058824%);fill-opacity:1;" d="M 190.359375 74.847656 C 190.359375 74.222656 189.425781 74.222656 189.425781 74.847656 C 189.425781 75.472656 190.359375 75.472656 190.359375 74.847656 "/>
<path style=" stroke:none;fill-rule:evenodd;fill:rgb(45.098039%,45.098039%,87.058824%);fill-opacity:1;" d="M 190.359375 78.445312 C 190.359375 77.824219 189.425781 77.824219 189.425781 78.445312 C 189.425781 79.070312 190.359375 79.070312 190.359375 78.445312 "/>
<path style=" stroke:none;fill-rule:evenodd;fill:rgb(45.098039%,45.098039%,87.058824%);fill-opacity:1;" d="M 190.359375 85.648438 C 190.359375 85.023438 189.425781 85.023438 189.425781 85.648438 C 189.425781 86.269531 190.359375 86.269531 190.359375 85.648438 "/>
<path style=" stroke:none;fill-rule:evenodd;fill:rgb(45.098039%,45.098039%,87.058824%);fill-opacity:1;" d="M 190.359375 89.246094 C 190.359375 88.621094 189.425781 88.621094 189.425781 89.246094 C 189.425781 89.871094 190.359375 89.871094 190.359375 89.246094 "/>
<path style=" stroke:none;fill-rule:evenodd;fill:rgb(45.098039%,45.098039%,87.058824%);fill-opacity:1;" d="M 190.359375 92.847656 C 190.359375 92.222656 189.425781 92.222656 189.425781 92.847656 C 189.425781 93.472656 190.359375 93.472656 190.359375 92.847656 "/>
<path style=" stroke:none;fill-rule:evenodd;fill:rgb(45.098039%,45.098039%,87.058824%);fill-opacity:1;" d="M 193.242188 64.40625 C 193.242188 63.78125 192.304688 63.78125 192.304688 64.40625 C 192.304688 65.03125 193.242188 65.03125 193.242188 64.40625 "/>
<path style=" stroke:none;fill-rule:evenodd;fill:rgb(45.098039%,45.098039%,87.058824%);fill-opacity:1;" d="M 194.679688 4.71875 C 194.679688 4.09375 193.746094 4.09375 193.746094 4.71875 C 193.746094 5.34375 194.679688 5.34375 194.679688 4.71875 "/>
<path style=" stroke:none;fill-rule:evenodd;fill:rgb(45.098039%,45.098039%,87.058824%);fill-opacity:1;" d="M 194.679688 38.847656 C 194.679688 38.222656 193.746094 38.222656 193.746094 38.847656 C 193.746094 39.472656 194.679688 39.472656 194.679688 38.847656 "/>
<path style=" stroke:none;fill-rule:evenodd;fill:rgb(45.098039%,45.098039%,87.058824%);fill-opacity:1;" d="M 196.121094 78.445312 C 196.121094 77.824219 195.183594 77.824219 195.183594 78.445312 C 195.183594 79.070312 196.121094 79.070312 196.121094 78.445312 "/>
<path style=" stroke:none;fill-rule:evenodd;fill:rgb(45.098039%,45.098039%,87.058824%);fill-opacity:1;" d="M 196.121094 85.648438 C 196.121094 85.023438 195.183594 85.023438 195.183594 85.648438 C 195.183594 86.269531 196.121094 86.269531 196.121094 85.648438 "/>
<path style=" stroke:none;fill-rule:evenodd;fill:rgb(45.098039%,45.098039%,87.058824%);fill-opacity:1;" d="M 200.800781 43.238281 C 200.800781 42.613281 199.863281 42.613281 199.863281 43.238281 C 199.863281 43.863281 200.800781 43.863281 200.800781 43.238281 "/>
<path style=" stroke:none;fill-rule:evenodd;fill:rgb(45.098039%,45.098039%,87.058824%);fill-opacity:1;" d="M 202.269531 37.398438 C 202.269531 36.777344 201.332031 36.777344 201.332031 37.398438 C 201.332031 38.023438 202.269531 38.023438 202.269531 37.398438 "/>
<path style=" stroke:none;fill-rule:evenodd;fill:rgb(45.098039%,45.098039%,87.058824%);fill-opacity:1;" d="M 87.652344 104.367188 C 87.652344 102.925781 85.492188 102.925781 85.492188 104.367188 C 85.492188 105.808594 87.652344 105.808594 87.652344 104.367188 "/>
<path style=" stroke:none;fill-rule:evenodd;fill:rgb(45.098039%,45.098039%,87.058824%);fill-opacity:1;" d="M 102.050781 104.367188 C 102.050781 102.925781 99.894531 102.925781 99.894531 104.367188 C 99.894531 105.808594 102.050781 105.808594 102.050781 104.367188 "/>
<path style=" stroke:none;fill-rule:evenodd;fill:rgb(45.098039%,45.098039%,87.058824%);fill-opacity:1;" d="M 138.988281 65.488281 C 138.988281 64.046875 136.828125 64.046875 136.828125 65.488281 C 136.828125 66.925781 138.988281 66.925781 138.988281 65.488281 "/>
<path style=" stroke:none;fill-rule:evenodd;fill:rgb(45.098039%,45.098039%,87.058824%);fill-opacity:1;" d="M 138.988281 127.839844 C 138.988281 126.398438 136.828125 126.398438 136.828125 127.839844 C 136.828125 129.277344 138.988281 129.277344 138.988281 127.839844 "/>
<path style=" stroke:none;fill-rule:evenodd;fill:rgb(45.098039%,45.098039%,87.058824%);fill-opacity:1;" d="M 140.945312 172.679688 C 140.945312 171.242188 138.785156 171.242188 138.785156 172.679688 C 138.785156 174.121094 140.945312 174.121094 140.945312 172.679688 "/>
<path style=" stroke:none;fill-rule:evenodd;fill:rgb(45.098039%,45.098039%,87.058824%);fill-opacity:1;" d="M 144.675781 65.488281 C 144.675781 64.046875 142.515625 64.046875 142.515625 65.488281 C 142.515625 66.925781 144.675781 66.925781 144.675781 65.488281 "/>
<path style=" stroke:none;fill-rule:evenodd;fill:rgb(45.098039%,45.098039%,87.058824%);fill-opacity:1;" d="M 144.675781 127.839844 C 144.675781 126.398438 142.515625 126.398438 142.515625 127.839844 C 142.515625 129.277344 144.675781 129.277344 144.675781 127.839844 "/>
<path style=" stroke:none;fill-rule:evenodd;fill:rgb(45.098039%,45.098039%,87.058824%);fill-opacity:1;" d="M 150.363281 65.488281 C 150.363281 64.046875 148.203125 64.046875 148.203125 65.488281 C 148.203125 66.925781 150.363281 66.925781 150.363281 65.488281 "/>
<path style=" stroke:none;fill-rule:evenodd;fill:rgb(45.098039%,45.098039%,87.058824%);fill-opacity:1;" d="M 150.363281 127.839844 C 150.363281 126.398438 148.203125 126.398438 148.203125 127.839844 C 148.203125 129.277344 150.363281 129.277344 150.363281 127.839844 "/>
<path style=" stroke:none;fill-rule:evenodd;fill:rgb(45.098039%,45.098039%,87.058824%);fill-opacity:1;" d="M 155.347656 172.679688 C 155.347656 171.242188 153.1875 171.242188 153.1875 172.679688 C 153.1875 174.121094 155.347656 174.121094 155.347656 172.679688 "/>
<path style=" stroke:none;fill-rule:evenodd;fill:rgb(45.098039%,45.098039%,87.058824%);fill-opacity:1;" d="M 156.050781 65.488281 C 156.050781 64.046875 153.894531 64.046875 153.894531 65.488281 C 153.894531 66.925781 156.050781 66.925781 156.050781 65.488281 "/>
<path style=" stroke:none;fill-rule:evenodd;fill:rgb(45.098039%,45.098039%,87.058824%);fill-opacity:1;" d="M 156.050781 127.839844 C 156.050781 126.398438 153.894531 126.398438 153.894531 127.839844 C 153.894531 129.277344 156.050781 129.277344 156.050781 127.839844 "/>
<path style=" stroke:none;fill-rule:evenodd;fill:rgb(45.098039%,45.098039%,87.058824%);fill-opacity:1;" d="M 161.742188 65.488281 C 161.742188 64.046875 159.582031 64.046875 159.582031 65.488281 C 159.582031 66.925781 161.742188 66.925781 161.742188 65.488281 "/>
<path style=" stroke:none;fill-rule:evenodd;fill:rgb(45.098039%,45.098039%,87.058824%);fill-opacity:1;" d="M 161.742188 127.839844 C 161.742188 126.398438 159.582031 126.398438 159.582031 127.839844 C 159.582031 129.277344 161.742188 129.277344 161.742188 127.839844 "/>
<path style=" stroke:none;fill-rule:evenodd;fill:rgb(45.098039%,45.098039%,87.058824%);fill-opacity:1;" d="M 167.429688 65.488281 C 167.429688 64.046875 165.269531 64.046875 165.269531 65.488281 C 165.269531 66.925781 167.429688 66.925781 167.429688 65.488281 "/>
<path style=" stroke:none;fill-rule:evenodd;fill:rgb(45.098039%,45.098039%,87.058824%);fill-opacity:1;" d="M 167.429688 127.839844 C 167.429688 126.398438 165.269531 126.398438 165.269531 127.839844 C 165.269531 129.277344 167.429688 129.277344 167.429688 127.839844 "/>
<path style=" stroke:none;fill-rule:evenodd;fill:rgb(45.098039%,45.098039%,87.058824%);fill-opacity:1;" d="M 173.117188 65.488281 C 173.117188 64.046875 170.957031 64.046875 170.957031 65.488281 C 170.957031 66.925781 173.117188 66.925781 173.117188 65.488281 "/>
<path style=" stroke:none;fill-rule:evenodd;fill:rgb(45.098039%,45.098039%,87.058824%);fill-opacity:1;" d="M 173.117188 127.839844 C 173.117188 126.398438 170.957031 126.398438 170.957031 127.839844 C 170.957031 129.277344 173.117188 129.277344 173.117188 127.839844 "/>
<path style=" stroke:none;fill-rule:evenodd;fill:rgb(45.098039%,45.098039%,87.058824%);fill-opacity:1;" d="M 178.804688 65.488281 C 178.804688 64.046875 176.644531 64.046875 176.644531 65.488281 C 176.644531 66.925781 178.804688 66.925781 178.804688 65.488281 "/>
<path style=" stroke:none;fill-rule:evenodd;fill:rgb(45.098039%,45.098039%,87.058824%);fill-opacity:1;" d="M 178.804688 127.839844 C 178.804688 126.398438 176.644531 126.398438 176.644531 127.839844 C 176.644531 129.277344 178.804688 129.277344 178.804688 127.839844 "/>
<path style=" stroke:none;fill-rule:evenodd;fill:rgb(45.098039%,45.098039%,87.058824%);fill-opacity:1;" d="M 184.492188 65.488281 C 184.492188 64.046875 182.332031 64.046875 182.332031 65.488281 C 182.332031 66.925781 184.492188 66.925781 184.492188 65.488281 "/>
<path style=" stroke:none;fill-rule:evenodd;fill:rgb(45.098039%,45.098039%,87.058824%);fill-opacity:1;" d="M 184.492188 127.839844 C 184.492188 126.398438 182.332031 126.398438 182.332031 127.839844 C 182.332031 129.277344 184.492188 129.277344 184.492188 127.839844 "/>
<path style=" stroke:none;fill-rule:evenodd;fill:rgb(45.098039%,45.098039%,87.058824%);fill-opacity:1;" d="M 190.179688 65.488281 C 190.179688 64.046875 188.019531 64.046875 188.019531 65.488281 C 188.019531 66.925781 190.179688 66.925781 190.179688 65.488281 "/>
<path style=" stroke:none;fill-rule:evenodd;fill:rgb(45.098039%,45.098039%,87.058824%);fill-opacity:1;" d="M 190.179688 127.839844 C 190.179688 126.398438 188.019531 126.398438 188.019531 127.839844 C 188.019531 129.277344 190.179688 129.277344 190.179688 127.839844 "/>
<path style=" stroke:none;fill-rule:evenodd;fill:rgb(45.098039%,45.098039%,87.058824%);fill-opacity:1;" d="M 65.152344 49.648438 C 65.152344 47.96875 62.632812 47.96875 62.632812 49.648438 C 62.632812 51.328125 65.152344 51.328125 65.152344 49.648438 "/>
<path style=" stroke:none;fill-rule:evenodd;fill:rgb(45.098039%,45.098039%,87.058824%);fill-opacity:1;" d="M 68.753906 42.445312 C 68.753906 40.765625 66.234375 40.765625 66.234375 42.445312 C 66.234375 44.125 68.753906 44.125 68.753906 42.445312 "/>
<path style=" stroke:none;fill-rule:evenodd;fill:rgb(45.098039%,45.098039%,87.058824%);fill-opacity:1;" d="M 72.351562 49.648438 C 72.351562 47.96875 69.832031 47.96875 69.832031 49.648438 C 69.832031 51.328125 72.351562 51.328125 72.351562 49.648438 "/>
<path style=" stroke:none;fill-rule:evenodd;fill:rgb(45.098039%,45.098039%,87.058824%);fill-opacity:1;" d="M 75.953125 42.445312 C 75.953125 40.765625 73.433594 40.765625 73.433594 42.445312 C 73.433594 44.125 75.953125 44.125 75.953125 42.445312 "/>
<path style=" stroke:none;fill-rule:evenodd;fill:rgb(45.098039%,45.098039%,87.058824%);fill-opacity:1;" d="M 79.550781 49.648438 C 79.550781 47.96875 77.03125 47.96875 77.03125 49.648438 C 77.03125 51.328125 79.550781 51.328125 79.550781 49.648438 "/>
<path style=" stroke:none;fill-rule:evenodd;fill:rgb(45.098039%,45.098039%,87.058824%);fill-opacity:1;" d="M 83.152344 42.445312 C 83.152344 40.765625 80.632812 40.765625 80.632812 42.445312 C 80.632812 44.125 83.152344 44.125 83.152344 42.445312 "/>
<path style=" stroke:none;fill-rule:evenodd;fill:rgb(45.098039%,45.098039%,87.058824%);fill-opacity:1;" d="M 86.753906 49.648438 C 86.753906 47.96875 84.234375 47.96875 84.234375 49.648438 C 84.234375 51.328125 86.753906 51.328125 86.753906 49.648438 "/>
<path style=" stroke:none;fill-rule:evenodd;fill:rgb(45.098039%,45.098039%,87.058824%);fill-opacity:1;" d="M 90.351562 42.445312 C 90.351562 40.765625 87.832031 40.765625 87.832031 42.445312 C 87.832031 44.125 90.351562 44.125 90.351562 42.445312 "/>
<path style=" stroke:none;fill-rule:evenodd;fill:rgb(45.098039%,45.098039%,87.058824%);fill-opacity:1;" d="M 103.671875 136.765625 C 103.671875 135.085938 101.152344 135.085938 101.152344 136.765625 C 101.152344 138.445312 103.671875 138.445312 103.671875 136.765625 "/>
<path style=" stroke:none;fill-rule:evenodd;fill:rgb(45.098039%,45.098039%,87.058824%);fill-opacity:1;" d="M 103.671875 143.96875 C 103.671875 142.285156 101.152344 142.285156 101.152344 143.96875 C 101.152344 145.648438 103.671875 145.648438 103.671875 143.96875 "/>
<path style=" stroke:none;fill-rule:evenodd;fill:rgb(45.098039%,45.098039%,87.058824%);fill-opacity:1;" d="M 103.671875 151.167969 C 103.671875 149.488281 101.152344 149.488281 101.152344 151.167969 C 101.152344 152.847656 103.671875 152.847656 103.671875 151.167969 "/>
<path style=" stroke:none;fill-rule:evenodd;fill:rgb(45.098039%,45.098039%,87.058824%);fill-opacity:1;" d="M 103.671875 158.367188 C 103.671875 156.6875 101.152344 156.6875 101.152344 158.367188 C 101.152344 160.046875 103.671875 160.046875 103.671875 158.367188 "/>
<path style=" stroke:none;fill-rule:evenodd;fill:rgb(45.098039%,45.098039%,87.058824%);fill-opacity:1;" d="M 110.871094 140.367188 C 110.871094 138.6875 108.351562 138.6875 108.351562 140.367188 C 108.351562 142.046875 110.871094 142.046875 110.871094 140.367188 "/>
<path style=" stroke:none;fill-rule:evenodd;fill:rgb(45.098039%,45.098039%,87.058824%);fill-opacity:1;" d="M 110.871094 147.566406 C 110.871094 145.886719 108.351562 145.886719 108.351562 147.566406 C 108.351562 149.246094 110.871094 149.246094 110.871094 147.566406 "/>
<path style=" stroke:none;fill-rule:evenodd;fill:rgb(45.098039%,45.098039%,87.058824%);fill-opacity:1;" d="M 110.871094 154.765625 C 110.871094 153.085938 108.351562 153.085938 108.351562 154.765625 C 108.351562 156.445312 110.871094 156.445312 110.871094 154.765625 "/>
<path style=" stroke:none;fill-rule:evenodd;fill:rgb(45.098039%,45.098039%,87.058824%);fill-opacity:1;" d="M 110.871094 161.96875 C 110.871094 160.285156 108.351562 160.285156 108.351562 161.96875 C 108.351562 163.648438 110.871094 163.648438 110.871094 161.96875 "/>
<path style=" stroke:none;fill-rule:evenodd;fill:rgb(45.098039%,45.098039%,87.058824%);fill-opacity:1;" d="M 116.992188 49.648438 C 116.992188 47.96875 114.472656 47.96875 114.472656 49.648438 C 114.472656 51.328125 116.992188 51.328125 116.992188 49.648438 "/>
<path style=" stroke:none;fill-rule:evenodd;fill:rgb(45.098039%,45.098039%,87.058824%);fill-opacity:1;" d="M 120.59375 42.445312 C 120.59375 40.765625 118.074219 40.765625 118.074219 42.445312 C 118.074219 44.125 120.59375 44.125 120.59375 42.445312 "/>
<path style=" stroke:none;fill-rule:evenodd;fill:rgb(45.098039%,45.098039%,87.058824%);fill-opacity:1;" d="M 124.191406 49.648438 C 124.191406 47.96875 121.671875 47.96875 121.671875 49.648438 C 121.671875 51.328125 124.191406 51.328125 124.191406 49.648438 "/>
<path style=" stroke:none;fill-rule:evenodd;fill:rgb(45.098039%,45.098039%,87.058824%);fill-opacity:1;" d="M 127.792969 42.445312 C 127.792969 40.765625 125.273438 40.765625 125.273438 42.445312 C 125.273438 44.125 127.792969 44.125 127.792969 42.445312 "/>
<path style=" stroke:none;fill-rule:evenodd;fill:rgb(45.098039%,45.098039%,87.058824%);fill-opacity:1;" d="M 131.394531 49.648438 C 131.394531 47.96875 128.871094 47.96875 128.871094 49.648438 C 128.871094 51.328125 131.394531 51.328125 131.394531 49.648438 "/>
<path style=" stroke:none;fill-rule:evenodd;fill:rgb(45.098039%,45.098039%,87.058824%);fill-opacity:1;" d="M 134.992188 42.445312 C 134.992188 40.765625 132.472656 40.765625 132.472656 42.445312 C 132.472656 44.125 134.992188 44.125 134.992188 42.445312 "/>
<path style=" stroke:none;fill-rule:evenodd;fill:rgb(45.098039%,45.098039%,87.058824%);fill-opacity:1;" d="M 138.59375 49.648438 C 138.59375 47.96875 136.074219 47.96875 136.074219 49.648438 C 136.074219 51.328125 138.59375 51.328125 138.59375 49.648438 "/>
<path style=" stroke:none;fill-rule:evenodd;fill:rgb(45.098039%,45.098039%,87.058824%);fill-opacity:1;" d="M 142.191406 42.445312 C 142.191406 40.765625 139.671875 40.765625 139.671875 42.445312 C 139.671875 44.125 142.191406 44.125 142.191406 42.445312 "/>
<path style=" stroke:none;fill-rule:evenodd;fill:rgb(45.098039%,45.098039%,87.058824%);fill-opacity:1;" d="M 168.832031 49.648438 C 168.832031 47.96875 166.3125 47.96875 166.3125 49.648438 C 166.3125 51.328125 168.832031 51.328125 168.832031 49.648438 "/>
<path style=" stroke:none;fill-rule:evenodd;fill:rgb(45.098039%,45.098039%,87.058824%);fill-opacity:1;" d="M 172.433594 42.445312 C 172.433594 40.765625 169.914062 40.765625 169.914062 42.445312 C 169.914062 44.125 172.433594 44.125 172.433594 42.445312 "/>
<path style=" stroke:none;fill-rule:evenodd;fill:rgb(45.098039%,45.098039%,87.058824%);fill-opacity:1;" d="M 176.03125 49.648438 C 176.03125 47.96875 173.511719 47.96875 173.511719 49.648438 C 173.511719 51.328125 176.03125 51.328125 176.03125 49.648438 "/>
<path style=" stroke:none;fill-rule:evenodd;fill:rgb(45.098039%,45.098039%,87.058824%);fill-opacity:1;" d="M 179.632812 42.445312 C 179.632812 40.765625 177.113281 40.765625 177.113281 42.445312 C 177.113281 44.125 179.632812 44.125 179.632812 42.445312 "/>
<path style=" stroke:none;fill-rule:evenodd;fill:rgb(45.098039%,45.098039%,87.058824%);fill-opacity:1;" d="M 183.234375 49.648438 C 183.234375 47.96875 180.710938 47.96875 180.710938 49.648438 C 180.710938 51.328125 183.234375 51.328125 183.234375 49.648438 "/>
<path style=" stroke:none;fill-rule:evenodd;fill:rgb(45.098039%,45.098039%,87.058824%);fill-opacity:1;" d="M 186.832031 42.445312 C 186.832031 40.765625 184.3125 40.765625 184.3125 42.445312 C 184.3125 44.125 186.832031 44.125 186.832031 42.445312 "/>
<path style=" stroke:none;fill-rule:evenodd;fill:rgb(45.098039%,45.098039%,87.058824%);fill-opacity:1;" d="M 190.433594 49.648438 C 190.433594 47.96875 187.914062 47.96875 187.914062 49.648438 C 187.914062 51.328125 190.433594 51.328125 190.433594 49.648438 "/>
<path style=" stroke:none;fill-rule:evenodd;fill:rgb(45.098039%,45.098039%,87.058824%);fill-opacity:1;" d="M 194.03125 42.445312 C 194.03125 40.765625 191.511719 40.765625 191.511719 42.445312 C 191.511719 44.125 194.03125 44.125 194.03125 42.445312 "/>
<path style=" stroke:none;fill-rule:evenodd;fill:rgb(45.098039%,45.098039%,87.058824%);fill-opacity:1;" d="M 44.742188 101.488281 C 44.742188 99.664062 42.003906 99.664062 42.003906 101.488281 C 42.003906 103.3125 44.742188 103.3125 44.742188 101.488281 "/>
<path style=" stroke:none;fill-rule:evenodd;fill:rgb(45.098039%,45.098039%,87.058824%);fill-opacity:1;" d="M 44.742188 108.6875 C 44.742188 106.863281 42.003906 106.863281 42.003906 108.6875 C 42.003906 110.511719 44.742188 110.511719 44.742188 108.6875 "/>
<path style=" stroke:none;fill-rule:evenodd;fill:rgb(45.098039%,45.098039%,87.058824%);fill-opacity:1;" d="M 51.941406 101.488281 C 51.941406 99.664062 49.203125 99.664062 49.203125 101.488281 C 49.203125 103.3125 51.941406 103.3125 51.941406 101.488281 "/>
<path style=" stroke:none;fill-rule:evenodd;fill:rgb(45.098039%,45.098039%,87.058824%);fill-opacity:1;" d="M 51.941406 108.6875 C 51.941406 106.863281 49.203125 106.863281 49.203125 108.6875 C 49.203125 110.511719 51.941406 110.511719 51.941406 108.6875 "/>
<path style=" stroke:none;fill-rule:evenodd;fill:rgb(45.098039%,45.098039%,87.058824%);fill-opacity:1;" d="M 56.621094 61.167969 C 56.621094 59.34375 53.882812 59.34375 53.882812 61.167969 C 53.882812 62.992188 56.621094 62.992188 56.621094 61.167969 "/>
<path style=" stroke:none;fill-rule:evenodd;fill:rgb(45.098039%,45.098039%,87.058824%);fill-opacity:1;" d="M 56.621094 82.40625 C 56.621094 80.582031 53.882812 80.582031 53.882812 82.40625 C 53.882812 84.230469 56.621094 84.230469 56.621094 82.40625 "/>
<path style=" stroke:none;fill-rule:evenodd;fill:rgb(45.098039%,45.098039%,87.058824%);fill-opacity:1;" d="M 59.140625 101.488281 C 59.140625 99.664062 56.40625 99.664062 56.40625 101.488281 C 56.40625 103.3125 59.140625 103.3125 59.140625 101.488281 "/>
<path style=" stroke:none;fill-rule:evenodd;fill:rgb(45.098039%,45.098039%,87.058824%);fill-opacity:1;" d="M 59.140625 108.6875 C 59.140625 106.863281 56.40625 106.863281 56.40625 108.6875 C 56.40625 110.511719 59.140625 110.511719 59.140625 108.6875 "/>
<path style=" stroke:none;fill-rule:evenodd;fill:rgb(45.098039%,45.098039%,87.058824%);fill-opacity:1;" d="M 59.15625 127.679688 C 59.15625 125.855469 56.417969 125.855469 56.417969 127.679688 C 56.417969 129.503906 59.15625 129.503906 59.15625 127.679688 "/>
<path style=" stroke:none;fill-rule:evenodd;fill:rgb(45.098039%,45.098039%,87.058824%);fill-opacity:1;" d="M 59.15625 134.878906 C 59.15625 133.054688 56.417969 133.054688 56.417969 134.878906 C 56.417969 136.703125 59.15625 136.703125 59.15625 134.878906 "/>
<path style=" stroke:none;fill-rule:evenodd;fill:rgb(45.098039%,45.098039%,87.058824%);fill-opacity:1;" d="M 59.15625 142.082031 C 59.15625 140.257812 56.417969 140.257812 56.417969 142.082031 C 56.417969 143.90625 59.15625 143.90625 59.15625 142.082031 "/>
<path style=" stroke:none;fill-rule:evenodd;fill:rgb(45.098039%,45.098039%,87.058824%);fill-opacity:1;" d="M 59.15625 149.28125 C 59.15625 147.457031 56.417969 147.457031 56.417969 149.28125 C 56.417969 151.105469 59.15625 151.105469 59.15625 149.28125 "/>
<path style=" stroke:none;fill-rule:evenodd;fill:rgb(45.098039%,45.098039%,87.058824%);fill-opacity:1;" d="M 59.15625 156.480469 C 59.15625 154.65625 56.417969 154.65625 56.417969 156.480469 C 56.417969 158.304688 59.15625 158.304688 59.15625 156.480469 "/>
<path style=" stroke:none;fill-rule:evenodd;fill:rgb(45.098039%,45.098039%,87.058824%);fill-opacity:1;" d="M 63.820312 61.167969 C 63.820312 59.34375 61.085938 59.34375 61.085938 61.167969 C 61.085938 62.992188 63.820312 62.992188 63.820312 61.167969 "/>
<path style=" stroke:none;fill-rule:evenodd;fill:rgb(45.098039%,45.098039%,87.058824%);fill-opacity:1;" d="M 63.820312 82.40625 C 63.820312 80.582031 61.085938 80.582031 61.085938 82.40625 C 61.085938 84.230469 63.820312 84.230469 63.820312 82.40625 "/>
<path style=" stroke:none;fill-rule:evenodd;fill:rgb(45.098039%,45.098039%,87.058824%);fill-opacity:1;" d="M 66.355469 127.679688 C 66.355469 125.855469 63.617188 125.855469 63.617188 127.679688 C 63.617188 129.503906 66.355469 129.503906 66.355469 127.679688 "/>
<path style=" stroke:none;fill-rule:evenodd;fill:rgb(45.098039%,45.098039%,87.058824%);fill-opacity:1;" d="M 66.355469 134.878906 C 66.355469 133.054688 63.617188 133.054688 63.617188 134.878906 C 63.617188 136.703125 66.355469 136.703125 66.355469 134.878906 "/>
<path style=" stroke:none;fill-rule:evenodd;fill:rgb(45.098039%,45.098039%,87.058824%);fill-opacity:1;" d="M 66.355469 142.082031 C 66.355469 140.257812 63.617188 140.257812 63.617188 142.082031 C 63.617188 143.90625 66.355469 143.90625 66.355469 142.082031 "/>
<path style=" stroke:none;fill-rule:evenodd;fill:rgb(45.098039%,45.098039%,87.058824%);fill-opacity:1;" d="M 66.355469 149.28125 C 66.355469 147.457031 63.617188 147.457031 63.617188 149.28125 C 63.617188 151.105469 66.355469 151.105469 66.355469 149.28125 "/>
<path style=" stroke:none;fill-rule:evenodd;fill:rgb(45.098039%,45.098039%,87.058824%);fill-opacity:1;" d="M 66.355469 156.480469 C 66.355469 154.65625 63.617188 154.65625 63.617188 156.480469 C 63.617188 158.304688 66.355469 158.304688 66.355469 156.480469 "/>
<path style=" stroke:none;fill-rule:evenodd;fill:rgb(45.098039%,45.098039%,87.058824%);fill-opacity:1;" d="M 74.3125 130.558594 C 74.3125 128.6875 71.503906 128.6875 71.503906 130.558594 C 71.503906 132.433594 74.3125 132.433594 74.3125 130.558594 "/>
<path style=" stroke:none;fill-rule:evenodd;fill:rgb(45.098039%,45.098039%,87.058824%);fill-opacity:1;" d="M 74.3125 137.761719 C 74.3125 135.886719 71.503906 135.886719 71.503906 137.761719 C 71.503906 139.632812 74.3125 139.632812 74.3125 137.761719 "/>
<path style=" stroke:none;fill-rule:evenodd;fill:rgb(45.098039%,45.098039%,87.058824%);fill-opacity:1;" d="M 74.3125 160.945312 C 74.3125 159.074219 71.503906 159.074219 71.503906 160.945312 C 71.503906 162.816406 74.3125 162.816406 74.3125 160.945312 "/>
<path style=" stroke:none;fill-rule:evenodd;fill:rgb(45.098039%,45.098039%,87.058824%);fill-opacity:1;" d="M 74.3125 168.144531 C 74.3125 166.273438 71.503906 166.273438 71.503906 168.144531 C 71.503906 170.015625 74.3125 170.015625 74.3125 168.144531 "/>
<path style=" stroke:none;fill-rule:evenodd;fill:rgb(45.098039%,45.098039%,87.058824%);fill-opacity:1;" d="M 120.050781 75.207031 C 120.050781 72.808594 116.453125 72.808594 116.453125 75.207031 C 116.453125 77.605469 120.050781 77.605469 120.050781 75.207031 "/>
<path style=" stroke:none;fill-rule:evenodd;fill:rgb(45.098039%,45.098039%,87.058824%);fill-opacity:1;" d="M 182.332031 70.167969 C 182.332031 67.765625 178.734375 67.765625 178.734375 70.167969 C 178.734375 72.566406 182.332031 72.566406 182.332031 70.167969 "/>
<path style=" stroke:none;fill-rule:evenodd;fill:rgb(45.098039%,45.098039%,87.058824%);fill-opacity:1;" d="M 192.773438 97.886719 C 192.773438 95.488281 189.171875 95.488281 189.171875 97.886719 C 189.171875 100.285156 192.773438 100.285156 192.773438 97.886719 "/>
<path style=" stroke:none;fill-rule:evenodd;fill:rgb(45.098039%,45.098039%,87.058824%);fill-opacity:1;" d="M 56.46875 15.800781 C 56.46875 12.777344 51.933594 12.777344 51.933594 15.800781 C 51.933594 18.824219 56.46875 18.824219 56.46875 15.800781 "/>
<path style=" stroke:none;fill-rule:evenodd;fill:rgb(45.098039%,45.098039%,87.058824%);fill-opacity:1;" d="M 95.328125 127.386719 C 95.328125 124.359375 90.792969 124.359375 90.792969 127.386719 C 90.792969 130.410156 95.328125 130.410156 95.328125 127.386719 "/>
<path style=" stroke:none;fill-rule:evenodd;fill:rgb(45.098039%,45.098039%,87.058824%);fill-opacity:1;" d="M 95.328125 171.320312 C 95.328125 168.296875 90.792969 168.296875 90.792969 171.320312 C 90.792969 174.34375 95.328125 174.34375 95.328125 171.320312 "/>
<path style=" stroke:none;fill-rule:evenodd;fill:rgb(45.098039%,45.098039%,87.058824%);fill-opacity:1;" d="M 101.109375 15.800781 C 101.109375 12.777344 96.574219 12.777344 96.574219 15.800781 C 96.574219 18.824219 101.109375 18.824219 101.109375 15.800781 "/>
<path style=" stroke:none;fill-rule:evenodd;fill:rgb(45.098039%,45.098039%,87.058824%);fill-opacity:1;" d="M 108.308594 15.800781 C 108.308594 12.777344 103.773438 12.777344 103.773438 15.800781 C 103.773438 18.824219 108.308594 18.824219 108.308594 15.800781 "/>
<path style=" stroke:none;fill-rule:evenodd;fill:rgb(45.098039%,45.098039%,87.058824%);fill-opacity:1;" d="M 152.949219 15.800781 C 152.949219 12.777344 148.414062 12.777344 148.414062 15.800781 C 148.414062 18.824219 152.949219 18.824219 152.949219 15.800781 "/>
<path style=" stroke:none;fill-rule:evenodd;fill:rgb(45.098039%,45.098039%,87.058824%);fill-opacity:1;" d="M 160.148438 15.800781 C 160.148438 12.777344 155.613281 12.777344 155.613281 15.800781 C 155.613281 18.824219 160.148438 18.824219 160.148438 15.800781 "/>
<path style=" stroke:none;fill-rule:evenodd;fill:rgb(45.098039%,45.098039%,87.058824%);fill-opacity:1;" d="M 204.789062 15.800781 C 204.789062 12.777344 200.253906 12.777344 200.253906 15.800781 C 200.253906 18.824219 204.789062 18.824219 204.789062 15.800781 "/>
<path style=" stroke:none;fill-rule:evenodd;fill:rgb(45.098039%,45.098039%,87.058824%);fill-opacity:1;" d="M 88.949219 133.167969 C 88.949219 127.117188 79.875 127.117188 79.875 133.167969 C 79.875 139.214844 88.949219 139.214844 88.949219 133.167969 "/>
<path style=" stroke:none;fill-rule:evenodd;fill:rgb(45.098039%,45.098039%,87.058824%);fill-opacity:1;" d="M 88.949219 165.566406 C 88.949219 159.519531 79.875 159.519531 79.875 165.566406 C 79.875 171.613281 88.949219 171.613281 88.949219 165.566406 "/>
<path style=" stroke:none;fill-rule:evenodd;fill:rgb(45.098039%,45.098039%,87.058824%);fill-opacity:1;" d="M 64.902344 24.445312 C 64.902344 18.304688 55.683594 18.304688 55.683594 24.445312 C 55.683594 30.589844 64.902344 30.589844 64.902344 24.445312 "/>
<path style=" stroke:none;fill-rule:evenodd;fill:rgb(45.098039%,45.098039%,87.058824%);fill-opacity:1;" d="M 97.300781 24.445312 C 97.300781 18.304688 88.085938 18.304688 88.085938 24.445312 C 88.085938 30.589844 97.300781 30.589844 97.300781 24.445312 "/>
<path style=" stroke:none;fill-rule:evenodd;fill:rgb(45.098039%,45.098039%,87.058824%);fill-opacity:1;" d="M 116.742188 24.445312 C 116.742188 18.304688 107.523438 18.304688 107.523438 24.445312 C 107.523438 30.589844 116.742188 30.589844 116.742188 24.445312 "/>
<path style=" stroke:none;fill-rule:evenodd;fill:rgb(45.098039%,45.098039%,87.058824%);fill-opacity:1;" d="M 149.140625 24.445312 C 149.140625 18.304688 139.925781 18.304688 139.925781 24.445312 C 139.925781 30.589844 149.140625 30.589844 149.140625 24.445312 "/>
<path style=" stroke:none;fill-rule:evenodd;fill:rgb(45.098039%,45.098039%,87.058824%);fill-opacity:1;" d="M 168.582031 24.445312 C 168.582031 18.304688 159.363281 18.304688 159.363281 24.445312 C 159.363281 30.589844 168.582031 30.589844 168.582031 24.445312 "/>
<path style=" stroke:none;fill-rule:evenodd;fill:rgb(45.098039%,45.098039%,87.058824%);fill-opacity:1;" d="M 200.980469 24.445312 C 200.980469 18.304688 191.765625 18.304688 191.765625 24.445312 C 191.765625 30.589844 200.980469 30.589844 200.980469 24.445312 "/>
</g>
</svg>
