G04 start of page 12 for group -3984 idx -3984 *
G04 Title: (unknown), fab *
G04 Creator: pcb 1.99z *
G04 CreationDate: Sun 16 Nov 2014 06:28:25 AM GMT UTC *
G04 For: commonadmin *
G04 Format: Gerber/RS-274X *
G04 PCB-Dimensions (mil): 3000.00 2500.00 *
G04 PCB-Coordinate-Origin: lower left *
%MOIN*%
%FSLAX25Y25*%
%LNFAB*%
%ADD150C,0.0100*%
%ADD149C,0.0075*%
%ADD148C,0.0060*%
%ADD147C,0.0080*%
G54D147*X77200Y208500D02*G75*G03X78800Y208500I800J0D01*G01*
G75*G03X77200Y208500I-800J0D01*G01*
X75600D02*G75*G03X80400Y208500I2400J0D01*G01*
G75*G03X75600Y208500I-2400J0D01*G01*
X122200D02*G75*G03X123800Y208500I800J0D01*G01*
G75*G03X122200Y208500I-800J0D01*G01*
X120600D02*G75*G03X125400Y208500I2400J0D01*G01*
G75*G03X120600Y208500I-2400J0D01*G01*
X149700D02*G75*G03X151300Y208500I800J0D01*G01*
G75*G03X149700Y208500I-800J0D01*G01*
X148100D02*G75*G03X152900Y208500I2400J0D01*G01*
G75*G03X148100Y208500I-2400J0D01*G01*
X194700D02*G75*G03X196300Y208500I800J0D01*G01*
G75*G03X194700Y208500I-800J0D01*G01*
X193100D02*G75*G03X197900Y208500I2400J0D01*G01*
G75*G03X193100Y208500I-2400J0D01*G01*
X222200D02*G75*G03X223800Y208500I800J0D01*G01*
G75*G03X222200Y208500I-800J0D01*G01*
X220600D02*G75*G03X225400Y208500I2400J0D01*G01*
G75*G03X220600Y208500I-2400J0D01*G01*
X267200D02*G75*G03X268800Y208500I800J0D01*G01*
G75*G03X267200Y208500I-800J0D01*G01*
X265600D02*G75*G03X270400Y208500I2400J0D01*G01*
G75*G03X265600Y208500I-2400J0D01*G01*
X14200Y261250D02*G75*G03X15800Y261250I800J0D01*G01*
G75*G03X14200Y261250I-800J0D01*G01*
X12600D02*G75*G03X17400Y261250I2400J0D01*G01*
G75*G03X12600Y261250I-2400J0D01*G01*
G54D148*X135000Y263500D02*X136500Y260500D01*
X138000Y263500D01*
X136500Y260500D02*Y257500D01*
X139800Y260800D02*X142050D01*
X139800Y257500D02*X142800D01*
X139800Y263500D02*Y257500D01*
Y263500D02*X142800D01*
X147600D02*X148350Y262750D01*
X145350Y263500D02*X147600D01*
X144600Y262750D02*X145350Y263500D01*
X144600Y262750D02*Y261250D01*
X145350Y260500D01*
X147600D01*
X148350Y259750D01*
Y258250D01*
X147600Y257500D02*X148350Y258250D01*
X145350Y257500D02*X147600D01*
X144600Y258250D02*X145350Y257500D01*
X100250Y263500D02*X101000Y262750D01*
X98750Y263500D02*X100250D01*
X98000Y262750D02*X98750Y263500D01*
X98000Y262750D02*Y258250D01*
X98750Y257500D01*
X100250Y260800D02*X101000Y260050D01*
X98000Y260800D02*X100250D01*
X98750Y257500D02*X100250D01*
X101000Y258250D01*
Y260050D02*Y258250D01*
X45000D02*X45750Y257500D01*
X45000Y262750D02*Y258250D01*
Y262750D02*X45750Y263500D01*
X47250D01*
X48000Y262750D01*
Y258250D01*
X47250Y257500D02*X48000Y258250D01*
X45750Y257500D02*X47250D01*
X45000Y259000D02*X48000Y262000D01*
X49800Y257500D02*X50550D01*
X52350Y262300D02*X53550Y263500D01*
Y257500D01*
X52350D02*X54600D01*
X56400Y262750D02*X57150Y263500D01*
X59400D01*
X60150Y262750D01*
Y261250D01*
X56400Y257500D02*X60150Y261250D01*
X56400Y257500D02*X60150D01*
X61950Y258250D02*X62700Y257500D01*
X61950Y259450D02*Y258250D01*
Y259450D02*X63000Y260500D01*
X63900D01*
X64950Y259450D01*
Y258250D01*
X64200Y257500D02*X64950Y258250D01*
X62700Y257500D02*X64200D01*
X61950Y261550D02*X63000Y260500D01*
X61950Y262750D02*Y261550D01*
Y262750D02*X62700Y263500D01*
X64200D01*
X64950Y262750D01*
Y261550D01*
X63900Y260500D02*X64950Y261550D01*
X108100Y69400D02*X112900Y64600D01*
X108100D02*X112900Y69400D01*
X108900Y68600D02*X112100D01*
X108900D02*Y65400D01*
X112100D01*
Y68600D02*Y65400D01*
X108100Y24400D02*X112900Y19600D01*
X108100D02*X112900Y24400D01*
X108900Y23600D02*X112100D01*
X108900D02*Y20400D01*
X112100D01*
Y23600D02*Y20400D01*
X12600Y278650D02*X17400Y273850D01*
X12600D02*X17400Y278650D01*
X13400Y277850D02*X16600D01*
X13400D02*Y274650D01*
X16600D01*
Y277850D02*Y274650D01*
X135000Y278500D02*X136500Y275500D01*
X138000Y278500D01*
X136500Y275500D02*Y272500D01*
X139800Y275800D02*X142050D01*
X139800Y272500D02*X142800D01*
X139800Y278500D02*Y272500D01*
Y278500D02*X142800D01*
X147600D02*X148350Y277750D01*
X145350Y278500D02*X147600D01*
X144600Y277750D02*X145350Y278500D01*
X144600Y277750D02*Y276250D01*
X145350Y275500D01*
X147600D01*
X148350Y274750D01*
Y273250D01*
X147600Y272500D02*X148350Y273250D01*
X145350Y272500D02*X147600D01*
X144600Y273250D02*X145350Y272500D01*
X98000Y277750D02*X98750Y278500D01*
X101000D01*
X101750Y277750D01*
Y276250D01*
X98000Y272500D02*X101750Y276250D01*
X98000Y272500D02*X101750D01*
X45000Y273250D02*X45750Y272500D01*
X45000Y277750D02*Y273250D01*
Y277750D02*X45750Y278500D01*
X47250D01*
X48000Y277750D01*
Y273250D01*
X47250Y272500D02*X48000Y273250D01*
X45750Y272500D02*X47250D01*
X45000Y274000D02*X48000Y277000D01*
X49800Y272500D02*X50550D01*
X52350Y277300D02*X53550Y278500D01*
Y272500D01*
X52350D02*X54600D01*
X56400Y277750D02*X57150Y278500D01*
X59400D01*
X60150Y277750D01*
Y276250D01*
X56400Y272500D02*X60150Y276250D01*
X56400Y272500D02*X60150D01*
X64200Y278500D02*X64950Y277750D01*
X62700Y278500D02*X64200D01*
X61950Y277750D02*X62700Y278500D01*
X61950Y277750D02*Y273250D01*
X62700Y272500D01*
X64200Y275800D02*X64950Y275050D01*
X61950Y275800D02*X64200D01*
X62700Y272500D02*X64200D01*
X64950Y273250D01*
Y275050D02*Y273250D01*
X122508Y78231D02*Y71831D01*
X119308Y75031D02*X125708D01*
X120908Y76631D02*X124108D01*
X120908D02*Y73431D01*
X124108D01*
Y76631D02*Y73431D01*
X122508Y17208D02*Y10808D01*
X119308Y14008D02*X125708D01*
X120908Y15608D02*X124108D01*
X120908D02*Y12408D01*
X124108D01*
Y15608D02*Y12408D01*
X69457Y199692D02*Y193292D01*
X66257Y196492D02*X72657D01*
X67857Y198092D02*X71057D01*
X67857D02*Y194892D01*
X71057D01*
Y198092D02*Y194892D01*
X131465Y199692D02*Y193292D01*
X128265Y196492D02*X134665D01*
X129865Y198092D02*X133065D01*
X129865D02*Y194892D01*
X133065D01*
Y198092D02*Y194892D01*
X141957Y199692D02*Y193292D01*
X138757Y196492D02*X145157D01*
X140357Y198092D02*X143557D01*
X140357D02*Y194892D01*
X143557D01*
Y198092D02*Y194892D01*
X203965Y199692D02*Y193292D01*
X200765Y196492D02*X207165D01*
X202365Y198092D02*X205565D01*
X202365D02*Y194892D01*
X205565D01*
Y198092D02*Y194892D01*
X214457Y199692D02*Y193292D01*
X211257Y196492D02*X217657D01*
X212857Y198092D02*X216057D01*
X212857D02*Y194892D01*
X216057D01*
Y198092D02*Y194892D01*
X276465Y199692D02*Y193292D01*
X273265Y196492D02*X279665D01*
X274865Y198092D02*X278065D01*
X274865D02*Y194892D01*
X278065D01*
Y198092D02*Y194892D01*
X15000Y294450D02*Y288050D01*
X11800Y291250D02*X18200D01*
X13400Y292850D02*X16600D01*
X13400D02*Y289650D01*
X16600D01*
Y292850D02*Y289650D01*
X135000Y293500D02*X136500Y290500D01*
X138000Y293500D01*
X136500Y290500D02*Y287500D01*
X139800Y290800D02*X142050D01*
X139800Y287500D02*X142800D01*
X139800Y293500D02*Y287500D01*
Y293500D02*X142800D01*
X147600D02*X148350Y292750D01*
X145350Y293500D02*X147600D01*
X144600Y292750D02*X145350Y293500D01*
X144600Y292750D02*Y291250D01*
X145350Y290500D01*
X147600D01*
X148350Y289750D01*
Y288250D01*
X147600Y287500D02*X148350Y288250D01*
X145350Y287500D02*X147600D01*
X144600Y288250D02*X145350Y287500D01*
X98000Y288250D02*X98750Y287500D01*
X98000Y289450D02*Y288250D01*
Y289450D02*X99050Y290500D01*
X99950D01*
X101000Y289450D01*
Y288250D01*
X100250Y287500D02*X101000Y288250D01*
X98750Y287500D02*X100250D01*
X98000Y291550D02*X99050Y290500D01*
X98000Y292750D02*Y291550D01*
Y292750D02*X98750Y293500D01*
X100250D01*
X101000Y292750D01*
Y291550D01*
X99950Y290500D02*X101000Y291550D01*
X45000Y288250D02*X45750Y287500D01*
X45000Y292750D02*Y288250D01*
Y292750D02*X45750Y293500D01*
X47250D01*
X48000Y292750D01*
Y288250D01*
X47250Y287500D02*X48000Y288250D01*
X45750Y287500D02*X47250D01*
X45000Y289000D02*X48000Y292000D01*
X49800Y287500D02*X50550D01*
X52350Y288250D02*X53100Y287500D01*
X52350Y292750D02*Y288250D01*
Y292750D02*X53100Y293500D01*
X54600D01*
X55350Y292750D01*
Y288250D01*
X54600Y287500D02*X55350Y288250D01*
X53100Y287500D02*X54600D01*
X52350Y289000D02*X55350Y292000D01*
X59400Y293500D02*X60150Y292750D01*
X57900Y293500D02*X59400D01*
X57150Y292750D02*X57900Y293500D01*
X57150Y292750D02*Y288250D01*
X57900Y287500D01*
X59400Y290800D02*X60150Y290050D01*
X57150Y290800D02*X59400D01*
X57900Y287500D02*X59400D01*
X60150Y288250D01*
Y290050D02*Y288250D01*
X61950Y292750D02*X62700Y293500D01*
X64200D01*
X64950Y292750D01*
X64200Y287500D02*X64950Y288250D01*
X62700Y287500D02*X64200D01*
X61950Y288250D02*X62700Y287500D01*
Y290800D02*X64200D01*
X64950Y292750D02*Y291550D01*
Y290050D02*Y288250D01*
Y290050D02*X64200Y290800D01*
X64950Y291550D02*X64200Y290800D01*
X258500Y116000D02*Y112800D01*
Y116000D02*X261273Y117600D01*
X258500Y116000D02*X255727Y117600D01*
X256900Y116000D02*G75*G03X260100Y116000I1600J0D01*G01*
G75*G03X256900Y116000I-1600J0D01*G01*
X157500Y147500D02*Y144300D01*
Y147500D02*X160273Y149100D01*
X157500Y147500D02*X154727Y149100D01*
X155900Y147500D02*G75*G03X159100Y147500I1600J0D01*G01*
G75*G03X155900Y147500I-1600J0D01*G01*
X244000Y154500D02*Y151300D01*
Y154500D02*X246773Y156100D01*
X244000Y154500D02*X241227Y156100D01*
X242400Y154500D02*G75*G03X245600Y154500I1600J0D01*G01*
G75*G03X242400Y154500I-1600J0D01*G01*
X15000Y306250D02*Y303050D01*
Y306250D02*X17773Y307850D01*
X15000Y306250D02*X12227Y307850D01*
X13400Y306250D02*G75*G03X16600Y306250I1600J0D01*G01*
G75*G03X13400Y306250I-1600J0D01*G01*
X135000Y308500D02*X136500Y305500D01*
X138000Y308500D01*
X136500Y305500D02*Y302500D01*
X139800Y305800D02*X142050D01*
X139800Y302500D02*X142800D01*
X139800Y308500D02*Y302500D01*
Y308500D02*X142800D01*
X147600D02*X148350Y307750D01*
X145350Y308500D02*X147600D01*
X144600Y307750D02*X145350Y308500D01*
X144600Y307750D02*Y306250D01*
X145350Y305500D01*
X147600D01*
X148350Y304750D01*
Y303250D01*
X147600Y302500D02*X148350Y303250D01*
X145350Y302500D02*X147600D01*
X144600Y303250D02*X145350Y302500D01*
X98000Y307750D02*X98750Y308500D01*
X100250D01*
X101000Y307750D01*
X100250Y302500D02*X101000Y303250D01*
X98750Y302500D02*X100250D01*
X98000Y303250D02*X98750Y302500D01*
Y305800D02*X100250D01*
X101000Y307750D02*Y306550D01*
Y305050D02*Y303250D01*
Y305050D02*X100250Y305800D01*
X101000Y306550D02*X100250Y305800D01*
X45000Y303250D02*X45750Y302500D01*
X45000Y307750D02*Y303250D01*
Y307750D02*X45750Y308500D01*
X47250D01*
X48000Y307750D01*
Y303250D01*
X47250Y302500D02*X48000Y303250D01*
X45750Y302500D02*X47250D01*
X45000Y304000D02*X48000Y307000D01*
X49800Y302500D02*X50550D01*
X52350Y303250D02*X53100Y302500D01*
X52350Y307750D02*Y303250D01*
Y307750D02*X53100Y308500D01*
X54600D01*
X55350Y307750D01*
Y303250D01*
X54600Y302500D02*X55350Y303250D01*
X53100Y302500D02*X54600D01*
X52350Y304000D02*X55350Y307000D01*
X57150Y308500D02*X60150D01*
X57150D02*Y305500D01*
X57900Y306250D01*
X59400D01*
X60150Y305500D01*
Y303250D01*
X59400Y302500D02*X60150Y303250D01*
X57900Y302500D02*X59400D01*
X57150Y303250D02*X57900Y302500D01*
X61950Y303250D02*X62700Y302500D01*
X61950Y307750D02*Y303250D01*
Y307750D02*X62700Y308500D01*
X64200D01*
X64950Y307750D01*
Y303250D01*
X64200Y302500D02*X64950Y303250D01*
X62700Y302500D02*X64200D01*
X61950Y304000D02*X64950Y307000D01*
X92916Y72222D02*X96116D01*
X92916D02*Y69022D01*
X96116D01*
Y72222D02*Y69022D01*
X92916Y20017D02*X96116D01*
X92916D02*Y16817D01*
X96116D01*
Y20017D02*Y16817D01*
X92916Y62222D02*X96116D01*
X92916D02*Y59022D01*
X96116D01*
Y62222D02*Y59022D01*
X92916Y30017D02*X96116D01*
X92916D02*Y26817D01*
X96116D01*
Y30017D02*Y26817D01*
X13400Y322850D02*X16600D01*
X13400D02*Y319650D01*
X16600D01*
Y322850D02*Y319650D01*
X135000Y323500D02*X136500Y320500D01*
X138000Y323500D01*
X136500Y320500D02*Y317500D01*
X139800Y320800D02*X142050D01*
X139800Y317500D02*X142800D01*
X139800Y323500D02*Y317500D01*
Y323500D02*X142800D01*
X147600D02*X148350Y322750D01*
X145350Y323500D02*X147600D01*
X144600Y322750D02*X145350Y323500D01*
X144600Y322750D02*Y321250D01*
X145350Y320500D01*
X147600D01*
X148350Y319750D01*
Y318250D01*
X147600Y317500D02*X148350Y318250D01*
X145350Y317500D02*X147600D01*
X144600Y318250D02*X145350Y317500D01*
X98000Y319750D02*X101000Y323500D01*
X98000Y319750D02*X101750D01*
X101000Y323500D02*Y317500D01*
X45000Y318250D02*X45750Y317500D01*
X45000Y322750D02*Y318250D01*
Y322750D02*X45750Y323500D01*
X47250D01*
X48000Y322750D01*
Y318250D01*
X47250Y317500D02*X48000Y318250D01*
X45750Y317500D02*X47250D01*
X45000Y319000D02*X48000Y322000D01*
X49800Y317500D02*X50550D01*
X52350Y318250D02*X53100Y317500D01*
X52350Y322750D02*Y318250D01*
Y322750D02*X53100Y323500D01*
X54600D01*
X55350Y322750D01*
Y318250D01*
X54600Y317500D02*X55350Y318250D01*
X53100Y317500D02*X54600D01*
X52350Y319000D02*X55350Y322000D01*
X57150Y322750D02*X57900Y323500D01*
X59400D01*
X60150Y322750D01*
X59400Y317500D02*X60150Y318250D01*
X57900Y317500D02*X59400D01*
X57150Y318250D02*X57900Y317500D01*
Y320800D02*X59400D01*
X60150Y322750D02*Y321550D01*
Y320050D02*Y318250D01*
Y320050D02*X59400Y320800D01*
X60150Y321550D02*X59400Y320800D01*
X62700Y317500D02*X64950Y320500D01*
Y322750D02*Y320500D01*
X64200Y323500D02*X64950Y322750D01*
X62700Y323500D02*X64200D01*
X61950Y322750D02*X62700Y323500D01*
X61950Y322750D02*Y321250D01*
X62700Y320500D01*
X64950D01*
X69200Y137500D02*G75*G03X70800Y137500I800J0D01*G01*
G75*G03X69200Y137500I-800J0D01*G01*
X79200D02*G75*G03X80800Y137500I800J0D01*G01*
G75*G03X79200Y137500I-800J0D01*G01*
X69200Y167000D02*G75*G03X70800Y167000I800J0D01*G01*
G75*G03X69200Y167000I-800J0D01*G01*
X79200D02*G75*G03X80800Y167000I800J0D01*G01*
G75*G03X79200Y167000I-800J0D01*G01*
X72700Y111000D02*G75*G03X74300Y111000I800J0D01*G01*
G75*G03X72700Y111000I-800J0D01*G01*
Y101000D02*G75*G03X74300Y101000I800J0D01*G01*
G75*G03X72700Y101000I-800J0D01*G01*
X62700Y111000D02*G75*G03X64300Y111000I800J0D01*G01*
G75*G03X62700Y111000I-800J0D01*G01*
Y101000D02*G75*G03X64300Y101000I800J0D01*G01*
G75*G03X62700Y101000I-800J0D01*G01*
X52700Y111000D02*G75*G03X54300Y111000I800J0D01*G01*
G75*G03X52700Y111000I-800J0D01*G01*
Y101000D02*G75*G03X54300Y101000I800J0D01*G01*
G75*G03X52700Y101000I-800J0D01*G01*
X72716Y74622D02*G75*G03X74316Y74622I800J0D01*G01*
G75*G03X72716Y74622I-800J0D01*G01*
Y64622D02*G75*G03X74316Y64622I800J0D01*G01*
G75*G03X72716Y64622I-800J0D01*G01*
Y54622D02*G75*G03X74316Y54622I800J0D01*G01*
G75*G03X72716Y54622I-800J0D01*G01*
Y44622D02*G75*G03X74316Y44622I800J0D01*G01*
G75*G03X72716Y44622I-800J0D01*G01*
Y34622D02*G75*G03X74316Y34622I800J0D01*G01*
G75*G03X72716Y34622I-800J0D01*G01*
X82716D02*G75*G03X84316Y34622I800J0D01*G01*
G75*G03X82716Y34622I-800J0D01*G01*
Y44622D02*G75*G03X84316Y44622I800J0D01*G01*
G75*G03X82716Y44622I-800J0D01*G01*
Y54622D02*G75*G03X84316Y54622I800J0D01*G01*
G75*G03X82716Y54622I-800J0D01*G01*
Y64622D02*G75*G03X84316Y64622I800J0D01*G01*
G75*G03X82716Y64622I-800J0D01*G01*
Y74622D02*G75*G03X84316Y74622I800J0D01*G01*
G75*G03X82716Y74622I-800J0D01*G01*
X14200Y336250D02*G75*G03X15800Y336250I800J0D01*G01*
G75*G03X14200Y336250I-800J0D01*G01*
X135000Y338500D02*X136500Y335500D01*
X138000Y338500D01*
X136500Y335500D02*Y332500D01*
X139800Y335800D02*X142050D01*
X139800Y332500D02*X142800D01*
X139800Y338500D02*Y332500D01*
Y338500D02*X142800D01*
X147600D02*X148350Y337750D01*
X145350Y338500D02*X147600D01*
X144600Y337750D02*X145350Y338500D01*
X144600Y337750D02*Y336250D01*
X145350Y335500D01*
X147600D01*
X148350Y334750D01*
Y333250D01*
X147600Y332500D02*X148350Y333250D01*
X145350Y332500D02*X147600D01*
X144600Y333250D02*X145350Y332500D01*
X98000Y337750D02*X98750Y338500D01*
X101000D01*
X101750Y337750D01*
Y336250D01*
X98000Y332500D02*X101750Y336250D01*
X98000Y332500D02*X101750D01*
X103550Y333250D02*X104300Y332500D01*
X103550Y337750D02*Y333250D01*
Y337750D02*X104300Y338500D01*
X105800D01*
X106550Y337750D01*
Y333250D01*
X105800Y332500D02*X106550Y333250D01*
X104300Y332500D02*X105800D01*
X103550Y334000D02*X106550Y337000D01*
X45000Y333250D02*X45750Y332500D01*
X45000Y337750D02*Y333250D01*
Y337750D02*X45750Y338500D01*
X47250D01*
X48000Y337750D01*
Y333250D01*
X47250Y332500D02*X48000Y333250D01*
X45750Y332500D02*X47250D01*
X45000Y334000D02*X48000Y337000D01*
X49800Y332500D02*X50550D01*
X52350Y333250D02*X53100Y332500D01*
X52350Y337750D02*Y333250D01*
Y337750D02*X53100Y338500D01*
X54600D01*
X55350Y337750D01*
Y333250D01*
X54600Y332500D02*X55350Y333250D01*
X53100Y332500D02*X54600D01*
X52350Y334000D02*X55350Y337000D01*
X57150Y337750D02*X57900Y338500D01*
X59400D01*
X60150Y337750D01*
X59400Y332500D02*X60150Y333250D01*
X57900Y332500D02*X59400D01*
X57150Y333250D02*X57900Y332500D01*
Y335800D02*X59400D01*
X60150Y337750D02*Y336550D01*
Y335050D02*Y333250D01*
Y335050D02*X59400Y335800D01*
X60150Y336550D02*X59400Y335800D01*
X61950Y333250D02*X62700Y332500D01*
X61950Y334450D02*Y333250D01*
Y334450D02*X63000Y335500D01*
X63900D01*
X64950Y334450D01*
Y333250D01*
X64200Y332500D02*X64950Y333250D01*
X62700Y332500D02*X64200D01*
X61950Y336550D02*X63000Y335500D01*
X61950Y337750D02*Y336550D01*
Y337750D02*X62700Y338500D01*
X64200D01*
X64950Y337750D01*
Y336550D01*
X63900Y335500D02*X64950Y336550D01*
X144300Y58200D02*X146700Y55800D01*
X144300D02*X146700Y58200D01*
X144300Y48200D02*X146700Y45800D01*
X144300D02*X146700Y48200D01*
X144300Y38200D02*X146700Y35800D01*
X144300D02*X146700Y38200D01*
X144300Y28200D02*X146700Y25800D01*
X144300D02*X146700Y28200D01*
X134300Y63200D02*X136700Y60800D01*
X134300D02*X136700Y63200D01*
X134300Y53200D02*X136700Y50800D01*
X134300D02*X136700Y53200D01*
X134300Y43200D02*X136700Y40800D01*
X134300D02*X136700Y43200D01*
X134300Y33200D02*X136700Y30800D01*
X134300D02*X136700Y33200D01*
X86800Y244700D02*X89200Y242300D01*
X86800D02*X89200Y244700D01*
X96800D02*X99200Y242300D01*
X96800D02*X99200Y244700D01*
X106800D02*X109200Y242300D01*
X106800D02*X109200Y244700D01*
X116800D02*X119200Y242300D01*
X116800D02*X119200Y244700D01*
X81800Y234700D02*X84200Y232300D01*
X81800D02*X84200Y234700D01*
X91800D02*X94200Y232300D01*
X91800D02*X94200Y234700D01*
X101800D02*X104200Y232300D01*
X101800D02*X104200Y234700D01*
X111800D02*X114200Y232300D01*
X111800D02*X114200Y234700D01*
X159300Y244700D02*X161700Y242300D01*
X159300D02*X161700Y244700D01*
X169300D02*X171700Y242300D01*
X169300D02*X171700Y244700D01*
X179300D02*X181700Y242300D01*
X179300D02*X181700Y244700D01*
X189300D02*X191700Y242300D01*
X189300D02*X191700Y244700D01*
X154300Y234700D02*X156700Y232300D01*
X154300D02*X156700Y234700D01*
X164300D02*X166700Y232300D01*
X164300D02*X166700Y234700D01*
X174300D02*X176700Y232300D01*
X174300D02*X176700Y234700D01*
X184300D02*X186700Y232300D01*
X184300D02*X186700Y234700D01*
X231800Y244700D02*X234200Y242300D01*
X231800D02*X234200Y244700D01*
X241800D02*X244200Y242300D01*
X241800D02*X244200Y244700D01*
X251800D02*X254200Y242300D01*
X251800D02*X254200Y244700D01*
X261800D02*X264200Y242300D01*
X261800D02*X264200Y244700D01*
X226800Y234700D02*X229200Y232300D01*
X226800D02*X229200Y234700D01*
X236800D02*X239200Y232300D01*
X236800D02*X239200Y234700D01*
X246800D02*X249200Y232300D01*
X246800D02*X249200Y234700D01*
X256800D02*X259200Y232300D01*
X256800D02*X259200Y234700D01*
X13800Y352450D02*X16200Y350050D01*
X13800D02*X16200Y352450D01*
X135000Y353500D02*X136500Y350500D01*
X138000Y353500D01*
X136500Y350500D02*Y347500D01*
X139800Y350800D02*X142050D01*
X139800Y347500D02*X142800D01*
X139800Y353500D02*Y347500D01*
Y353500D02*X142800D01*
X147600D02*X148350Y352750D01*
X145350Y353500D02*X147600D01*
X144600Y352750D02*X145350Y353500D01*
X144600Y352750D02*Y351250D01*
X145350Y350500D01*
X147600D01*
X148350Y349750D01*
Y348250D01*
X147600Y347500D02*X148350Y348250D01*
X145350Y347500D02*X147600D01*
X144600Y348250D02*X145350Y347500D01*
X98000Y352750D02*X98750Y353500D01*
X100250D01*
X101000Y352750D01*
X100250Y347500D02*X101000Y348250D01*
X98750Y347500D02*X100250D01*
X98000Y348250D02*X98750Y347500D01*
Y350800D02*X100250D01*
X101000Y352750D02*Y351550D01*
Y350050D02*Y348250D01*
Y350050D02*X100250Y350800D01*
X101000Y351550D02*X100250Y350800D01*
X102800Y352750D02*X103550Y353500D01*
X105800D01*
X106550Y352750D01*
Y351250D01*
X102800Y347500D02*X106550Y351250D01*
X102800Y347500D02*X106550D01*
X45000Y348250D02*X45750Y347500D01*
X45000Y352750D02*Y348250D01*
Y352750D02*X45750Y353500D01*
X47250D01*
X48000Y352750D01*
Y348250D01*
X47250Y347500D02*X48000Y348250D01*
X45750Y347500D02*X47250D01*
X45000Y349000D02*X48000Y352000D01*
X49800Y347500D02*X50550D01*
X52350Y348250D02*X53100Y347500D01*
X52350Y352750D02*Y348250D01*
Y352750D02*X53100Y353500D01*
X54600D01*
X55350Y352750D01*
Y348250D01*
X54600Y347500D02*X55350Y348250D01*
X53100Y347500D02*X54600D01*
X52350Y349000D02*X55350Y352000D01*
X57150Y352750D02*X57900Y353500D01*
X59400D01*
X60150Y352750D01*
X59400Y347500D02*X60150Y348250D01*
X57900Y347500D02*X59400D01*
X57150Y348250D02*X57900Y347500D01*
Y350800D02*X59400D01*
X60150Y352750D02*Y351550D01*
Y350050D02*Y348250D01*
Y350050D02*X59400Y350800D01*
X60150Y351550D02*X59400Y350800D01*
X61950Y353500D02*X64950D01*
X61950D02*Y350500D01*
X62700Y351250D01*
X64200D01*
X64950Y350500D01*
Y348250D01*
X64200Y347500D02*X64950Y348250D01*
X62700Y347500D02*X64200D01*
X61950Y348250D02*X62700Y347500D01*
X113500Y108600D02*Y105400D01*
X111900Y107000D02*X115100D01*
X133500Y108600D02*Y105400D01*
X131900Y107000D02*X135100D01*
X255900Y162600D02*Y159400D01*
X254300Y161000D02*X257500D01*
X255900Y76000D02*Y72800D01*
X254300Y74400D02*X257500D01*
X248000Y162600D02*Y159400D01*
X246400Y161000D02*X249600D01*
X248000Y76000D02*Y72800D01*
X246400Y74400D02*X249600D01*
X240100Y162600D02*Y159400D01*
X238500Y161000D02*X241700D01*
X240100Y76000D02*Y72800D01*
X238500Y74400D02*X241700D01*
X232200Y162600D02*Y159400D01*
X230600Y161000D02*X233800D01*
X232200Y76000D02*Y72800D01*
X230600Y74400D02*X233800D01*
X224300Y162600D02*Y159400D01*
X222700Y161000D02*X225900D01*
X224300Y76000D02*Y72800D01*
X222700Y74400D02*X225900D01*
X216400Y162600D02*Y159400D01*
X214800Y161000D02*X218000D01*
X216400Y76000D02*Y72800D01*
X214800Y74400D02*X218000D01*
X208500Y162600D02*Y159400D01*
X206900Y161000D02*X210100D01*
X208500Y76000D02*Y72800D01*
X206900Y74400D02*X210100D01*
X200600Y162600D02*Y159400D01*
X199000Y161000D02*X202200D01*
X200600Y76000D02*Y72800D01*
X199000Y74400D02*X202200D01*
X192700Y162600D02*Y159400D01*
X191100Y161000D02*X194300D01*
X192700Y76000D02*Y72800D01*
X191100Y74400D02*X194300D01*
X184800Y162600D02*Y159400D01*
X183200Y161000D02*X186400D01*
X184800Y76000D02*Y72800D01*
X183200Y74400D02*X186400D01*
X187516Y13722D02*Y10522D01*
X185916Y12122D02*X189116D01*
X207516Y13722D02*Y10522D01*
X205916Y12122D02*X209116D01*
X15000Y367850D02*Y364650D01*
X13400Y366250D02*X16600D01*
X135000Y368500D02*X136500Y365500D01*
X138000Y368500D01*
X136500Y365500D02*Y362500D01*
X139800Y365800D02*X142050D01*
X139800Y362500D02*X142800D01*
X139800Y368500D02*Y362500D01*
Y368500D02*X142800D01*
X147600D02*X148350Y367750D01*
X145350Y368500D02*X147600D01*
X144600Y367750D02*X145350Y368500D01*
X144600Y367750D02*Y366250D01*
X145350Y365500D01*
X147600D01*
X148350Y364750D01*
Y363250D01*
X147600Y362500D02*X148350Y363250D01*
X145350Y362500D02*X147600D01*
X144600Y363250D02*X145350Y362500D01*
X98000Y367750D02*X98750Y368500D01*
X101000D01*
X101750Y367750D01*
Y366250D01*
X98000Y362500D02*X101750Y366250D01*
X98000Y362500D02*X101750D01*
X103550Y364750D02*X106550Y368500D01*
X103550Y364750D02*X107300D01*
X106550Y368500D02*Y362500D01*
X45000Y363250D02*X45750Y362500D01*
X45000Y367750D02*Y363250D01*
Y367750D02*X45750Y368500D01*
X47250D01*
X48000Y367750D01*
Y363250D01*
X47250Y362500D02*X48000Y363250D01*
X45750Y362500D02*X47250D01*
X45000Y364000D02*X48000Y367000D01*
X49800Y362500D02*X50550D01*
X52350Y363250D02*X53100Y362500D01*
X52350Y367750D02*Y363250D01*
Y367750D02*X53100Y368500D01*
X54600D01*
X55350Y367750D01*
Y363250D01*
X54600Y362500D02*X55350Y363250D01*
X53100Y362500D02*X54600D01*
X52350Y364000D02*X55350Y367000D01*
X57150Y367750D02*X57900Y368500D01*
X59400D01*
X60150Y367750D01*
X59400Y362500D02*X60150Y363250D01*
X57900Y362500D02*X59400D01*
X57150Y363250D02*X57900Y362500D01*
Y365800D02*X59400D01*
X60150Y367750D02*Y366550D01*
Y365050D02*Y363250D01*
Y365050D02*X59400Y365800D01*
X60150Y366550D02*X59400Y365800D01*
X61950Y363250D02*X62700Y362500D01*
X61950Y367750D02*Y363250D01*
Y367750D02*X62700Y368500D01*
X64200D01*
X64950Y367750D01*
Y363250D01*
X64200Y362500D02*X64950Y363250D01*
X62700Y362500D02*X64200D01*
X61950Y364000D02*X64950Y367000D01*
X68500Y127500D02*Y125900D01*
Y127500D02*X69887Y128300D01*
X68500Y127500D02*X67113Y128300D01*
X68500Y120500D02*Y118900D01*
Y120500D02*X69887Y121300D01*
X68500Y120500D02*X67113Y121300D01*
X111752Y161400D02*Y159800D01*
Y161400D02*X113139Y162200D01*
X111752Y161400D02*X110365Y162200D01*
X115152Y161400D02*Y159800D01*
Y161400D02*X116539Y162200D01*
X115152Y161400D02*X113765Y162200D01*
X108352Y161400D02*Y159800D01*
Y161400D02*X109739Y162200D01*
X108352Y161400D02*X106965Y162200D01*
X103352Y144000D02*Y142400D01*
Y144000D02*X104739Y144800D01*
X103352Y144000D02*X101965Y144800D01*
X103352Y140500D02*Y138900D01*
Y140500D02*X104739Y141300D01*
X103352Y140500D02*X101965Y141300D01*
X111352Y120000D02*Y118400D01*
Y120000D02*X112739Y120800D01*
X111352Y120000D02*X109965Y120800D01*
X114852Y120000D02*Y118400D01*
Y120000D02*X116239Y120800D01*
X114852Y120000D02*X113465Y120800D01*
X144852Y128000D02*Y126400D01*
Y128000D02*X146239Y128800D01*
X144852Y128000D02*X143465Y128800D01*
X49000Y134500D02*Y132900D01*
Y134500D02*X50387Y135300D01*
X49000Y134500D02*X47613Y135300D01*
X55000Y137500D02*Y135900D01*
Y137500D02*X56387Y138300D01*
X55000Y137500D02*X53613Y138300D01*
X87500Y149000D02*Y147400D01*
Y149000D02*X88887Y149800D01*
X87500Y149000D02*X86113Y149800D01*
X79000Y127500D02*Y125900D01*
Y127500D02*X80387Y128300D01*
X79000Y127500D02*X77613Y128300D01*
X103500Y160000D02*Y158400D01*
Y160000D02*X104887Y160800D01*
X103500Y160000D02*X102113Y160800D01*
X118500Y120000D02*Y118400D01*
Y120000D02*X119887Y120800D01*
X118500Y120000D02*X117113Y120800D01*
X145000Y123500D02*Y121900D01*
Y123500D02*X146387Y124300D01*
X145000Y123500D02*X143613Y124300D01*
X140500Y161000D02*Y159400D01*
Y161000D02*X141887Y161800D01*
X140500Y161000D02*X139113Y161800D01*
X106000Y171000D02*Y169400D01*
Y171000D02*X107387Y171800D01*
X106000Y171000D02*X104613Y171800D01*
X123500Y103000D02*Y101400D01*
Y103000D02*X124887Y103800D01*
X123500Y103000D02*X122113Y103800D01*
X96000Y137500D02*Y135900D01*
Y137500D02*X97387Y138300D01*
X96000Y137500D02*X94613Y138300D01*
X90000Y144000D02*Y142400D01*
Y144000D02*X91387Y144800D01*
X90000Y144000D02*X88613Y144800D01*
X120000Y149500D02*Y147900D01*
Y149500D02*X121387Y150300D01*
X120000Y149500D02*X118613Y150300D01*
X109500Y150000D02*Y148400D01*
Y150000D02*X110887Y150800D01*
X109500Y150000D02*X108113Y150800D01*
X58000Y121000D02*Y119400D01*
Y121000D02*X59387Y121800D01*
X58000Y121000D02*X56613Y121800D01*
X42500Y118500D02*Y116900D01*
Y118500D02*X43887Y119300D01*
X42500Y118500D02*X41113Y119300D01*
X86500Y122000D02*Y120400D01*
Y122000D02*X87887Y122800D01*
X86500Y122000D02*X85113Y122800D01*
X97500Y116500D02*Y114900D01*
Y116500D02*X98887Y117300D01*
X97500Y116500D02*X96113Y117300D01*
X121500Y136000D02*Y134400D01*
Y136000D02*X122887Y136800D01*
X121500Y136000D02*X120113Y136800D01*
X135000Y147500D02*Y145900D01*
Y147500D02*X136387Y148300D01*
X135000Y147500D02*X133613Y148300D01*
X205000Y106000D02*Y104400D01*
Y106000D02*X206387Y106800D01*
X205000Y106000D02*X203613Y106800D01*
X218500Y143500D02*Y141900D01*
Y143500D02*X219887Y144300D01*
X218500Y143500D02*X217113Y144300D01*
X221500Y146500D02*Y144900D01*
Y146500D02*X222887Y147300D01*
X221500Y146500D02*X220113Y147300D01*
X234500Y153000D02*Y151400D01*
Y153000D02*X235887Y153800D01*
X234500Y153000D02*X233113Y153800D01*
X234500Y149000D02*Y147400D01*
Y149000D02*X235887Y149800D01*
X234500Y149000D02*X233113Y149800D01*
X228000Y157500D02*Y155900D01*
Y157500D02*X229387Y158300D01*
X228000Y157500D02*X226613Y158300D01*
X175000Y128500D02*Y126900D01*
Y128500D02*X176387Y129300D01*
X175000Y128500D02*X173613Y129300D01*
X180000Y128500D02*Y126900D01*
Y128500D02*X181387Y129300D01*
X180000Y128500D02*X178613Y129300D01*
X175000Y137500D02*Y135900D01*
Y137500D02*X176387Y138300D01*
X175000Y137500D02*X173613Y138300D01*
X180000Y137500D02*Y135900D01*
Y137500D02*X181387Y138300D01*
X180000Y137500D02*X178613Y138300D01*
X158000Y133000D02*Y131400D01*
Y133000D02*X159387Y133800D01*
X158000Y133000D02*X156613Y133800D01*
X255000Y170000D02*Y168400D01*
Y170000D02*X256387Y170800D01*
X255000Y170000D02*X253613Y170800D01*
X189000Y150500D02*Y148900D01*
Y150500D02*X190387Y151300D01*
X189000Y150500D02*X187613Y151300D01*
X160000Y112500D02*Y110900D01*
Y112500D02*X161387Y113300D01*
X160000Y112500D02*X158613Y113300D01*
X160000Y162500D02*Y160900D01*
Y162500D02*X161387Y163300D01*
X160000Y162500D02*X158613Y163300D01*
X252000Y114000D02*Y112400D01*
Y114000D02*X253387Y114800D01*
X252000Y114000D02*X250613Y114800D01*
X225000Y113500D02*Y111900D01*
Y113500D02*X226387Y114300D01*
X225000Y113500D02*X223613Y114300D01*
X204500Y158000D02*Y156400D01*
Y158000D02*X205887Y158800D01*
X204500Y158000D02*X203113Y158800D01*
X200000Y170000D02*Y168400D01*
Y170000D02*X201387Y170800D01*
X200000Y170000D02*X198613Y170800D01*
X265000Y143000D02*Y141400D01*
Y143000D02*X266387Y143800D01*
X265000Y143000D02*X263613Y143800D01*
X265000Y133000D02*Y131400D01*
Y133000D02*X266387Y133800D01*
X265000Y133000D02*X263613Y133800D01*
X257000Y133000D02*Y131400D01*
Y133000D02*X258387Y133800D01*
X257000Y133000D02*X255613Y133800D01*
X257000Y143000D02*Y141400D01*
Y143000D02*X258387Y143800D01*
X257000Y143000D02*X255613Y143800D01*
X257000Y153000D02*Y151400D01*
Y153000D02*X258387Y153800D01*
X257000Y153000D02*X255613Y153800D01*
X257000Y123000D02*Y121400D01*
Y123000D02*X258387Y123800D01*
X257000Y123000D02*X255613Y123800D01*
X257000Y128000D02*Y126400D01*
Y128000D02*X258387Y128800D01*
X257000Y128000D02*X255613Y128800D01*
X257000Y148000D02*Y146400D01*
Y148000D02*X258387Y148800D01*
X257000Y148000D02*X255613Y148800D01*
X205000Y91000D02*Y89400D01*
Y91000D02*X206387Y91800D01*
X205000Y91000D02*X203613Y91800D01*
X199500Y87000D02*Y85400D01*
Y87000D02*X200887Y87800D01*
X199500Y87000D02*X198113Y87800D01*
X190000Y170000D02*Y168400D01*
Y170000D02*X191387Y170800D01*
X190000Y170000D02*X188613Y170800D01*
X195000Y170000D02*Y168400D01*
Y170000D02*X196387Y170800D01*
X195000Y170000D02*X193613Y170800D01*
X180000Y145500D02*Y143900D01*
Y145500D02*X181387Y146300D01*
X180000Y145500D02*X178613Y146300D01*
X175000Y145500D02*Y143900D01*
Y145500D02*X176387Y146300D01*
X175000Y145500D02*X173613Y146300D01*
X175000Y156000D02*Y154400D01*
Y156000D02*X176387Y156800D01*
X175000Y156000D02*X173613Y156800D01*
X180000Y156000D02*Y154400D01*
Y156000D02*X181387Y156800D01*
X180000Y156000D02*X178613Y156800D01*
X180000Y170000D02*Y168400D01*
Y170000D02*X181387Y170800D01*
X180000Y170000D02*X178613Y170800D01*
X175000Y170000D02*Y168400D01*
Y170000D02*X176387Y170800D01*
X175000Y170000D02*X173613Y170800D01*
X165000Y170000D02*Y168400D01*
Y170000D02*X166387Y170800D01*
X165000Y170000D02*X163613Y170800D01*
X170000Y170000D02*Y168400D01*
Y170000D02*X171387Y170800D01*
X170000Y170000D02*X168613Y170800D01*
X109516Y57122D02*Y55522D01*
Y57122D02*X110902Y57922D01*
X109516Y57122D02*X108129Y57922D01*
X130016Y47122D02*Y45522D01*
Y47122D02*X131402Y47922D01*
X130016Y47122D02*X128629Y47922D01*
X190016Y52122D02*Y50522D01*
Y52122D02*X191402Y52922D01*
X190016Y52122D02*X188629Y52922D01*
X131516Y67122D02*Y65522D01*
Y67122D02*X132902Y67922D01*
X131516Y67122D02*X130129Y67922D01*
X100016Y12622D02*Y11022D01*
Y12622D02*X101402Y13422D01*
X100016Y12622D02*X98629Y13422D01*
X94516Y48122D02*Y46522D01*
Y48122D02*X95902Y48922D01*
X94516Y48122D02*X93129Y48922D01*
X129516Y25622D02*Y24022D01*
Y25622D02*X130902Y26422D01*
X129516Y25622D02*X128129Y26422D01*
X134516Y12622D02*Y11022D01*
Y12622D02*X135902Y13422D01*
X134516Y12622D02*X133129Y13422D01*
X131016Y12122D02*Y10522D01*
Y12122D02*X132402Y12922D01*
X131016Y12122D02*X129629Y12922D01*
X220016Y52122D02*Y50522D01*
Y52122D02*X221402Y52922D01*
X220016Y52122D02*X218629Y52922D01*
X180016Y52122D02*Y50522D01*
Y52122D02*X181402Y52922D01*
X180016Y52122D02*X178629Y52922D01*
X175016Y52122D02*Y50522D01*
Y52122D02*X176402Y52922D01*
X175016Y52122D02*X173629Y52922D01*
X155016Y52122D02*Y50522D01*
Y52122D02*X156402Y52922D01*
X155016Y52122D02*X153629Y52922D01*
X155016Y26122D02*Y24522D01*
Y26122D02*X156402Y26922D01*
X155016Y26122D02*X153629Y26922D01*
X180016Y26122D02*Y24522D01*
Y26122D02*X181402Y26922D01*
X180016Y26122D02*X178629Y26922D01*
X195016Y26122D02*Y24522D01*
Y26122D02*X196402Y26922D01*
X195016Y26122D02*X193629Y26922D01*
X200016Y26122D02*Y24522D01*
Y26122D02*X201402Y26922D01*
X200016Y26122D02*X198629Y26922D01*
X205016Y26122D02*Y24522D01*
Y26122D02*X206402Y26922D01*
X205016Y26122D02*X203629Y26922D01*
X220016Y26122D02*Y24522D01*
Y26122D02*X221402Y26922D01*
X220016Y26122D02*X218629Y26922D01*
X177516Y46622D02*Y45022D01*
Y46622D02*X178902Y47422D01*
X177516Y46622D02*X176129Y47422D01*
X220016Y42122D02*Y40522D01*
Y42122D02*X221402Y42922D01*
X220016Y42122D02*X218629Y42922D01*
X220016Y33122D02*Y31522D01*
Y33122D02*X221402Y33922D01*
X220016Y33122D02*X218629Y33922D01*
X190016Y26122D02*Y24522D01*
Y26122D02*X191402Y26922D01*
X190016Y26122D02*X188629Y26922D01*
X155016Y33122D02*Y31522D01*
Y33122D02*X156402Y33922D01*
X155016Y33122D02*X153629Y33922D01*
X155016Y37622D02*Y36022D01*
Y37622D02*X156402Y38422D01*
X155016Y37622D02*X153629Y38422D01*
X175016Y26122D02*Y24522D01*
Y26122D02*X176402Y26922D01*
X175016Y26122D02*X173629Y26922D01*
X180016Y33122D02*Y31522D01*
Y33122D02*X181402Y33922D01*
X180016Y33122D02*X178629Y33922D01*
X175016Y33122D02*Y31522D01*
Y33122D02*X176402Y33922D01*
X175016Y33122D02*X173629Y33922D01*
X205016Y33122D02*Y31522D01*
Y33122D02*X206402Y33922D01*
X205016Y33122D02*X203629Y33922D01*
X200016Y33122D02*Y31522D01*
Y33122D02*X201402Y33922D01*
X200016Y33122D02*X198629Y33922D01*
X195016Y33122D02*Y31522D01*
Y33122D02*X196402Y33922D01*
X195016Y33122D02*X193629Y33922D01*
X215016Y52122D02*Y50522D01*
Y52122D02*X216402Y52922D01*
X215016Y52122D02*X213629Y52922D01*
X185016Y26122D02*Y24522D01*
Y26122D02*X186402Y26922D01*
X185016Y26122D02*X183629Y26922D01*
X170016Y52122D02*Y50522D01*
Y52122D02*X171402Y52922D01*
X170016Y52122D02*X168629Y52922D01*
X170016Y26122D02*Y24522D01*
Y26122D02*X171402Y26922D01*
X170016Y26122D02*X168629Y26922D01*
X160016Y52122D02*Y50522D01*
Y52122D02*X161402Y52922D01*
X160016Y52122D02*X158629Y52922D01*
X215016Y26122D02*Y24522D01*
Y26122D02*X216402Y26922D01*
X215016Y26122D02*X213629Y26922D01*
X210016Y26122D02*Y24522D01*
Y26122D02*X211402Y26922D01*
X210016Y26122D02*X208629Y26922D01*
X146016Y71622D02*Y70022D01*
Y71622D02*X147402Y72422D01*
X146016Y71622D02*X144629Y72422D01*
X133516Y18122D02*Y16522D01*
Y18122D02*X134902Y18922D01*
X133516Y18122D02*X132129Y18922D01*
X144000Y133000D02*Y131400D01*
Y133000D02*X145387Y133800D01*
X144000Y133000D02*X142613Y133800D01*
X140000Y133000D02*Y131400D01*
Y133000D02*X141387Y133800D01*
X140000Y133000D02*X138613Y133800D01*
X137000Y136000D02*Y134400D01*
Y136000D02*X138387Y136800D01*
X137000Y136000D02*X135613Y136800D01*
X134000Y139000D02*Y137400D01*
Y139000D02*X135387Y139800D01*
X134000Y139000D02*X132613Y139800D01*
X107500Y196500D02*Y194900D01*
Y196500D02*X108887Y197300D01*
X107500Y196500D02*X106113Y197300D01*
X98000Y196500D02*Y194900D01*
Y196500D02*X99387Y197300D01*
X98000Y196500D02*X96613Y197300D01*
X170500Y196500D02*Y194900D01*
Y196500D02*X171887Y197300D01*
X170500Y196500D02*X169113Y197300D01*
X180000Y196500D02*Y194900D01*
Y196500D02*X181387Y197300D01*
X180000Y196500D02*X178613Y197300D01*
X232500Y180500D02*Y178900D01*
Y180500D02*X233887Y181300D01*
X232500Y180500D02*X231113Y181300D01*
X262000Y175000D02*Y173400D01*
Y175000D02*X263387Y175800D01*
X262000Y175000D02*X260613Y175800D01*
X214500Y180982D02*Y179382D01*
Y180982D02*X215887Y181782D01*
X214500Y180982D02*X213113Y181782D01*
X69000Y96000D02*Y94400D01*
Y96000D02*X70387Y96800D01*
X69000Y96000D02*X67613Y96800D01*
X94500Y141000D02*Y139400D01*
Y141000D02*X95887Y141800D01*
X94500Y141000D02*X93113Y141800D01*
X94000Y156000D02*Y154400D01*
Y156000D02*X95387Y156800D01*
X94000Y156000D02*X92613Y156800D01*
X93500Y133500D02*Y131900D01*
Y133500D02*X94887Y134300D01*
X93500Y133500D02*X92113Y134300D01*
X93500Y120500D02*Y118900D01*
Y120500D02*X94887Y121300D01*
X93500Y120500D02*X92113Y121300D01*
X83500Y104000D02*Y102400D01*
Y104000D02*X84887Y104800D01*
X83500Y104000D02*X82113Y104800D01*
X137000Y120000D02*Y118400D01*
Y120000D02*X138387Y120800D01*
X137000Y120000D02*X135613Y120800D01*
X133500Y120000D02*Y118400D01*
Y120000D02*X134887Y120800D01*
X133500Y120000D02*X132113Y120800D01*
X170500Y128500D02*Y126900D01*
Y128500D02*X171887Y129300D01*
X170500Y128500D02*X169113Y129300D01*
X170500Y137500D02*Y135900D01*
Y137500D02*X171887Y138300D01*
X170500Y137500D02*X169113Y138300D01*
X170000Y156000D02*Y154400D01*
Y156000D02*X171387Y156800D01*
X170000Y156000D02*X168613Y156800D01*
X166000Y128500D02*Y126900D01*
Y128500D02*X167387Y129300D01*
X166000Y128500D02*X164613Y129300D01*
X166000Y137500D02*Y135900D01*
Y137500D02*X167387Y138300D01*
X166000Y137500D02*X164613Y138300D01*
X166000Y148500D02*Y146900D01*
Y148500D02*X167387Y149300D01*
X166000Y148500D02*X164613Y149300D01*
X157500Y157500D02*Y155900D01*
Y157500D02*X158887Y158300D01*
X157500Y157500D02*X156113Y158300D01*
X103500Y104000D02*Y102400D01*
Y104000D02*X104887Y104800D01*
X103500Y104000D02*X102113Y104800D01*
X115500Y76000D02*Y74400D01*
Y76000D02*X116887Y76800D01*
X115500Y76000D02*X114113Y76800D01*
X91500Y66000D02*Y64400D01*
Y66000D02*X92887Y66800D01*
X91500Y66000D02*X90113Y66800D01*
X212500Y95000D02*Y93400D01*
Y95000D02*X213887Y95800D01*
X212500Y95000D02*X211113Y95800D01*
X212500Y86000D02*Y84400D01*
Y86000D02*X213887Y86800D01*
X212500Y86000D02*X211113Y86800D01*
X209000Y49000D02*Y47400D01*
Y49000D02*X210387Y49800D01*
X209000Y49000D02*X207613Y49800D01*
X204500Y78500D02*Y76900D01*
Y78500D02*X205887Y79300D01*
X204500Y78500D02*X203113Y79300D01*
X144500Y166000D02*Y164400D01*
Y166000D02*X145887Y166800D01*
X144500Y166000D02*X143113Y166800D01*
X262500Y159500D02*Y157900D01*
Y159500D02*X263887Y160300D01*
X262500Y159500D02*X261113Y160300D01*
X265500Y179500D02*Y177900D01*
Y179500D02*X266887Y180300D01*
X265500Y179500D02*X264113Y180300D01*
X131500Y182500D02*Y180900D01*
Y182500D02*X132887Y183300D01*
X131500Y182500D02*X130113Y183300D01*
X127500Y172000D02*Y170400D01*
Y172000D02*X128887Y172800D01*
X127500Y172000D02*X126113Y172800D01*
X130500Y158000D02*Y156400D01*
Y158000D02*X131887Y158800D01*
X130500Y158000D02*X129113Y158800D01*
X81000Y152500D02*Y150900D01*
Y152500D02*X82387Y153300D01*
X81000Y152500D02*X79613Y153300D01*
X81000Y146400D02*Y144800D01*
Y146400D02*X82387Y147200D01*
X81000Y146400D02*X79613Y147200D01*
X71500Y161000D02*Y159400D01*
Y161000D02*X72887Y161800D01*
X71500Y161000D02*X70113Y161800D01*
X81000Y158600D02*Y157000D01*
Y158600D02*X82387Y159400D01*
X81000Y158600D02*X79613Y159400D01*
X226000Y181100D02*Y179500D01*
Y181100D02*X227387Y181900D01*
X226000Y181100D02*X224613Y181900D01*
X103000Y209000D02*Y207400D01*
Y209000D02*X104387Y209800D01*
X103000Y209000D02*X101613Y209800D01*
X98000Y209000D02*Y207400D01*
Y209000D02*X99387Y209800D01*
X98000Y209000D02*X96613Y209800D01*
X105500Y229000D02*Y227400D01*
Y229000D02*X106887Y229800D01*
X105500Y229000D02*X104113Y229800D01*
X100500Y229000D02*Y227400D01*
Y229000D02*X101887Y229800D01*
X100500Y229000D02*X99113Y229800D01*
X95500Y229000D02*Y227400D01*
Y229000D02*X96887Y229800D01*
X95500Y229000D02*X94113Y229800D01*
X80000Y183500D02*Y181900D01*
Y183500D02*X81387Y184300D01*
X80000Y183500D02*X78613Y184300D01*
X95500Y217500D02*Y215900D01*
Y217500D02*X96887Y218300D01*
X95500Y217500D02*X94113Y218300D01*
X105500Y217500D02*Y215900D01*
Y217500D02*X106887Y218300D01*
X105500Y217500D02*X104113Y218300D01*
X175500Y209000D02*Y207400D01*
Y209000D02*X176887Y209800D01*
X175500Y209000D02*X174113Y209800D01*
X170500Y209000D02*Y207400D01*
Y209000D02*X171887Y209800D01*
X170500Y209000D02*X169113Y209800D01*
X178000Y229000D02*Y227400D01*
Y229000D02*X179387Y229800D01*
X178000Y229000D02*X176613Y229800D01*
X173000Y229000D02*Y227400D01*
Y229000D02*X174387Y229800D01*
X173000Y229000D02*X171613Y229800D01*
X168000Y229000D02*Y227400D01*
Y229000D02*X169387Y229800D01*
X168000Y229000D02*X166613Y229800D01*
X152500Y183500D02*Y181900D01*
Y183500D02*X153887Y184300D01*
X152500Y183500D02*X151113Y184300D01*
X168000Y217500D02*Y215900D01*
Y217500D02*X169387Y218300D01*
X168000Y217500D02*X166613Y218300D01*
X178000Y217500D02*Y215900D01*
Y217500D02*X179387Y218300D01*
X178000Y217500D02*X176613Y218300D01*
X268500Y226000D02*Y224400D01*
Y226000D02*X269887Y226800D01*
X268500Y226000D02*X267113Y226800D01*
X222500Y226000D02*Y224400D01*
Y226000D02*X223887Y226800D01*
X222500Y226000D02*X221113Y226800D01*
X237000Y208000D02*Y206400D01*
Y208000D02*X238387Y208800D01*
X237000Y208000D02*X235613Y208800D01*
X217000Y242500D02*Y240900D01*
Y242500D02*X218387Y243300D01*
X217000Y242500D02*X215613Y243300D01*
X243000Y208000D02*Y206400D01*
Y208000D02*X244387Y208800D01*
X243000Y208000D02*X241613Y208800D01*
X222500Y181000D02*Y179400D01*
Y181000D02*X223887Y181800D01*
X222500Y181000D02*X221113Y181800D01*
X248000Y208000D02*Y206400D01*
Y208000D02*X249387Y208800D01*
X248000Y208000D02*X246613Y208800D01*
X265500Y228500D02*Y226900D01*
Y228500D02*X266887Y229300D01*
X265500Y228500D02*X264113Y229300D01*
X260500Y228500D02*Y226900D01*
Y228500D02*X261887Y229300D01*
X260500Y228500D02*X259113Y229300D01*
X250500Y228500D02*Y226900D01*
Y228500D02*X251887Y229300D01*
X250500Y228500D02*X249113Y229300D01*
X245500Y228500D02*Y226900D01*
Y228500D02*X246887Y229300D01*
X245500Y228500D02*X244113Y229300D01*
X235500Y228500D02*Y226900D01*
Y228500D02*X236887Y229300D01*
X235500Y228500D02*X234113Y229300D01*
X230500Y228500D02*Y226900D01*
Y228500D02*X231887Y229300D01*
X230500Y228500D02*X229113Y229300D01*
X254000Y208000D02*Y206400D01*
Y208000D02*X255387Y208800D01*
X254000Y208000D02*X252613Y208800D01*
X15000Y381250D02*Y379650D01*
Y381250D02*X16387Y382050D01*
X15000Y381250D02*X13613Y382050D01*
X135000Y383500D02*X136500Y380500D01*
X138000Y383500D01*
X136500Y380500D02*Y377500D01*
X139800Y380800D02*X142050D01*
X139800Y377500D02*X142800D01*
X139800Y383500D02*Y377500D01*
Y383500D02*X142800D01*
X147600D02*X148350Y382750D01*
X145350Y383500D02*X147600D01*
X144600Y382750D02*X145350Y383500D01*
X144600Y382750D02*Y381250D01*
X145350Y380500D01*
X147600D01*
X148350Y379750D01*
Y378250D01*
X147600Y377500D02*X148350Y378250D01*
X145350Y377500D02*X147600D01*
X144600Y378250D02*X145350Y377500D01*
X98000Y382300D02*X99200Y383500D01*
Y377500D01*
X98000D02*X100250D01*
X102050Y378250D02*X102800Y377500D01*
X102050Y379450D02*Y378250D01*
Y379450D02*X103100Y380500D01*
X104000D01*
X105050Y379450D01*
Y378250D01*
X104300Y377500D02*X105050Y378250D01*
X102800Y377500D02*X104300D01*
X102050Y381550D02*X103100Y380500D01*
X102050Y382750D02*Y381550D01*
Y382750D02*X102800Y383500D01*
X104300D01*
X105050Y382750D01*
Y381550D01*
X104000Y380500D02*X105050Y381550D01*
X106850Y382750D02*X107600Y383500D01*
X109100D01*
X109850Y382750D01*
X109100Y377500D02*X109850Y378250D01*
X107600Y377500D02*X109100D01*
X106850Y378250D02*X107600Y377500D01*
Y380800D02*X109100D01*
X109850Y382750D02*Y381550D01*
Y380050D02*Y378250D01*
Y380050D02*X109100Y380800D01*
X109850Y381550D02*X109100Y380800D01*
X45000Y378250D02*X45750Y377500D01*
X45000Y382750D02*Y378250D01*
Y382750D02*X45750Y383500D01*
X47250D01*
X48000Y382750D01*
Y378250D01*
X47250Y377500D02*X48000Y378250D01*
X45750Y377500D02*X47250D01*
X45000Y379000D02*X48000Y382000D01*
X49800Y377500D02*X50550D01*
X52350Y378250D02*X53100Y377500D01*
X52350Y382750D02*Y378250D01*
Y382750D02*X53100Y383500D01*
X54600D01*
X55350Y382750D01*
Y378250D01*
X54600Y377500D02*X55350Y378250D01*
X53100Y377500D02*X54600D01*
X52350Y379000D02*X55350Y382000D01*
X57150Y382300D02*X58350Y383500D01*
Y377500D01*
X57150D02*X59400D01*
X61200Y382750D02*X61950Y383500D01*
X63450D01*
X64200Y382750D01*
X63450Y377500D02*X64200Y378250D01*
X61950Y377500D02*X63450D01*
X61200Y378250D02*X61950Y377500D01*
Y380800D02*X63450D01*
X64200Y382750D02*Y381550D01*
Y380050D02*Y378250D01*
Y380050D02*X63450Y380800D01*
X64200Y381550D02*X63450Y380800D01*
X3000Y398500D02*X3750Y397750D01*
X750Y398500D02*X3000D01*
X0Y397750D02*X750Y398500D01*
X0Y397750D02*Y396250D01*
X750Y395500D01*
X3000D01*
X3750Y394750D01*
Y393250D01*
X3000Y392500D02*X3750Y393250D01*
X750Y392500D02*X3000D01*
X0Y393250D02*X750Y392500D01*
X5550Y395500D02*Y393250D01*
X6300Y392500D01*
X8550Y395500D02*Y391000D01*
X7800Y390250D02*X8550Y391000D01*
X6300Y390250D02*X7800D01*
X5550Y391000D02*X6300Y390250D01*
Y392500D02*X7800D01*
X8550Y393250D01*
X11100Y394750D02*Y392500D01*
Y394750D02*X11850Y395500D01*
X12600D01*
X13350Y394750D01*
Y392500D01*
Y394750D02*X14100Y395500D01*
X14850D01*
X15600Y394750D01*
Y392500D01*
X10350Y395500D02*X11100Y394750D01*
X17400Y398500D02*Y392500D01*
Y393250D02*X18150Y392500D01*
X19650D01*
X20400Y393250D01*
Y394750D02*Y393250D01*
X19650Y395500D02*X20400Y394750D01*
X18150Y395500D02*X19650D01*
X17400Y394750D02*X18150Y395500D01*
X22200Y394750D02*Y393250D01*
Y394750D02*X22950Y395500D01*
X24450D01*
X25200Y394750D01*
Y393250D01*
X24450Y392500D02*X25200Y393250D01*
X22950Y392500D02*X24450D01*
X22200Y393250D02*X22950Y392500D01*
X27000Y398500D02*Y393250D01*
X27750Y392500D01*
X0Y389250D02*X29250D01*
X41750Y398500D02*Y392500D01*
X43700Y398500D02*X44750Y397450D01*
Y393550D01*
X43700Y392500D02*X44750Y393550D01*
X41000Y392500D02*X43700D01*
X41000Y398500D02*X43700D01*
G54D149*X46550Y397000D02*Y396850D01*
G54D148*Y394750D02*Y392500D01*
X50300Y395500D02*X51050Y394750D01*
X48800Y395500D02*X50300D01*
X48050Y394750D02*X48800Y395500D01*
X48050Y394750D02*Y393250D01*
X48800Y392500D01*
X51050Y395500D02*Y393250D01*
X51800Y392500D01*
X48800D02*X50300D01*
X51050Y393250D01*
X54350Y394750D02*Y392500D01*
Y394750D02*X55100Y395500D01*
X55850D01*
X56600Y394750D01*
Y392500D01*
Y394750D02*X57350Y395500D01*
X58100D01*
X58850Y394750D01*
Y392500D01*
X53600Y395500D02*X54350Y394750D01*
X60650Y392500D02*X61400D01*
X65900Y393250D02*X66650Y392500D01*
X65900Y397750D02*X66650Y398500D01*
X65900Y397750D02*Y393250D01*
X68450Y398500D02*X69950D01*
X69200D02*Y392500D01*
X68450D02*X69950D01*
X72500Y394750D02*Y392500D01*
Y394750D02*X73250Y395500D01*
X74000D01*
X74750Y394750D01*
Y392500D01*
X71750Y395500D02*X72500Y394750D01*
X77300Y395500D02*X79550D01*
X76550Y394750D02*X77300Y395500D01*
X76550Y394750D02*Y393250D01*
X77300Y392500D01*
X79550D01*
X81350Y398500D02*Y392500D01*
Y394750D02*X82100Y395500D01*
X83600D01*
X84350Y394750D01*
Y392500D01*
X86150Y398500D02*X86900Y397750D01*
Y393250D01*
X86150Y392500D02*X86900Y393250D01*
X41000Y389250D02*X88700D01*
X96050Y392500D02*X98000D01*
X95000Y393550D02*X96050Y392500D01*
X95000Y397450D02*Y393550D01*
Y397450D02*X96050Y398500D01*
X98000D01*
X99800Y394750D02*Y393250D01*
Y394750D02*X100550Y395500D01*
X102050D01*
X102800Y394750D01*
Y393250D01*
X102050Y392500D02*X102800Y393250D01*
X100550Y392500D02*X102050D01*
X99800Y393250D02*X100550Y392500D01*
X104600Y395500D02*Y393250D01*
X105350Y392500D01*
X106850D01*
X107600Y393250D01*
Y395500D02*Y393250D01*
X110150Y394750D02*Y392500D01*
Y394750D02*X110900Y395500D01*
X111650D01*
X112400Y394750D01*
Y392500D01*
X109400Y395500D02*X110150Y394750D01*
X114950Y398500D02*Y393250D01*
X115700Y392500D01*
X114200Y396250D02*X115700D01*
X95000Y389250D02*X117200D01*
X130750Y398500D02*Y392500D01*
X130000Y398500D02*X133000D01*
X133750Y397750D01*
Y396250D01*
X133000Y395500D02*X133750Y396250D01*
X130750Y395500D02*X133000D01*
X135550Y398500D02*Y393250D01*
X136300Y392500D01*
X140050Y395500D02*X140800Y394750D01*
X138550Y395500D02*X140050D01*
X137800Y394750D02*X138550Y395500D01*
X137800Y394750D02*Y393250D01*
X138550Y392500D01*
X140800Y395500D02*Y393250D01*
X141550Y392500D01*
X138550D02*X140050D01*
X140800Y393250D01*
X144100Y398500D02*Y393250D01*
X144850Y392500D01*
X143350Y396250D02*X144850D01*
X147100Y392500D02*X149350D01*
X146350Y393250D02*X147100Y392500D01*
X146350Y394750D02*Y393250D01*
Y394750D02*X147100Y395500D01*
X148600D01*
X149350Y394750D01*
X146350Y394000D02*X149350D01*
Y394750D02*Y394000D01*
X154150Y398500D02*Y392500D01*
X153400D02*X154150Y393250D01*
X151900Y392500D02*X153400D01*
X151150Y393250D02*X151900Y392500D01*
X151150Y394750D02*Y393250D01*
Y394750D02*X151900Y395500D01*
X153400D01*
X154150Y394750D01*
X157450Y395500D02*Y394750D01*
Y393250D02*Y392500D01*
X155950Y397750D02*Y397000D01*
Y397750D02*X156700Y398500D01*
X158200D01*
X158950Y397750D01*
Y397000D01*
X157450Y395500D02*X158950Y397000D01*
X130000Y389250D02*X160750D01*
X0Y413500D02*X3000D01*
X1500D02*Y407500D01*
X4800Y413500D02*Y407500D01*
Y409750D02*X5550Y410500D01*
X7050D01*
X7800Y409750D01*
Y407500D01*
X10350D02*X12600D01*
X9600Y408250D02*X10350Y407500D01*
X9600Y409750D02*Y408250D01*
Y409750D02*X10350Y410500D01*
X11850D01*
X12600Y409750D01*
X9600Y409000D02*X12600D01*
Y409750D02*Y409000D01*
X15150Y409750D02*Y407500D01*
Y409750D02*X15900Y410500D01*
X17400D01*
X14400D02*X15150Y409750D01*
X19950Y407500D02*X22200D01*
X19200Y408250D02*X19950Y407500D01*
X19200Y409750D02*Y408250D01*
Y409750D02*X19950Y410500D01*
X21450D01*
X22200Y409750D01*
X19200Y409000D02*X22200D01*
Y409750D02*Y409000D01*
X28950Y410500D02*X29700Y409750D01*
X27450Y410500D02*X28950D01*
X26700Y409750D02*X27450Y410500D01*
X26700Y409750D02*Y408250D01*
X27450Y407500D01*
X29700Y410500D02*Y408250D01*
X30450Y407500D01*
X27450D02*X28950D01*
X29700Y408250D01*
X33000Y409750D02*Y407500D01*
Y409750D02*X33750Y410500D01*
X35250D01*
X32250D02*X33000Y409750D01*
X37800Y407500D02*X40050D01*
X37050Y408250D02*X37800Y407500D01*
X37050Y409750D02*Y408250D01*
Y409750D02*X37800Y410500D01*
X39300D01*
X40050Y409750D01*
X37050Y409000D02*X40050D01*
Y409750D02*Y409000D01*
X45300Y407500D02*X47550Y410500D01*
Y412750D02*Y410500D01*
X46800Y413500D02*X47550Y412750D01*
X45300Y413500D02*X46800D01*
X44550Y412750D02*X45300Y413500D01*
X44550Y412750D02*Y411250D01*
X45300Y410500D01*
X47550D01*
X55050Y413500D02*Y407500D01*
X54300D02*X55050Y408250D01*
X52800Y407500D02*X54300D01*
X52050Y408250D02*X52800Y407500D01*
X52050Y409750D02*Y408250D01*
Y409750D02*X52800Y410500D01*
X54300D01*
X55050Y409750D01*
G54D149*X56850Y412000D02*Y411850D01*
G54D148*Y409750D02*Y407500D01*
X59100Y412750D02*Y407500D01*
Y412750D02*X59850Y413500D01*
X60600D01*
X58350Y410500D02*X59850D01*
X62850Y412750D02*Y407500D01*
Y412750D02*X63600Y413500D01*
X64350D01*
X62100Y410500D02*X63600D01*
X66600Y407500D02*X68850D01*
X65850Y408250D02*X66600Y407500D01*
X65850Y409750D02*Y408250D01*
Y409750D02*X66600Y410500D01*
X68100D01*
X68850Y409750D01*
X65850Y409000D02*X68850D01*
Y409750D02*Y409000D01*
X71400Y409750D02*Y407500D01*
Y409750D02*X72150Y410500D01*
X73650D01*
X70650D02*X71400Y409750D01*
X76200Y407500D02*X78450D01*
X75450Y408250D02*X76200Y407500D01*
X75450Y409750D02*Y408250D01*
Y409750D02*X76200Y410500D01*
X77700D01*
X78450Y409750D01*
X75450Y409000D02*X78450D01*
Y409750D02*Y409000D01*
X81000Y409750D02*Y407500D01*
Y409750D02*X81750Y410500D01*
X82500D01*
X83250Y409750D01*
Y407500D01*
X80250Y410500D02*X81000Y409750D01*
X85800Y413500D02*Y408250D01*
X86550Y407500D01*
X85050Y411250D02*X86550D01*
X93750Y413500D02*Y407500D01*
X93000D02*X93750Y408250D01*
X91500Y407500D02*X93000D01*
X90750Y408250D02*X91500Y407500D01*
X90750Y409750D02*Y408250D01*
Y409750D02*X91500Y410500D01*
X93000D01*
X93750Y409750D01*
X96300D02*Y407500D01*
Y409750D02*X97050Y410500D01*
X98550D01*
X95550D02*X96300Y409750D01*
G54D149*X100350Y412000D02*Y411850D01*
G54D148*Y409750D02*Y407500D01*
X101850Y413500D02*Y408250D01*
X102600Y407500D01*
X104100Y413500D02*Y408250D01*
X104850Y407500D01*
X109800D02*X112050D01*
X112800Y408250D01*
X112050Y409000D02*X112800Y408250D01*
X109800Y409000D02*X112050D01*
X109050Y409750D02*X109800Y409000D01*
X109050Y409750D02*X109800Y410500D01*
X112050D01*
X112800Y409750D01*
X109050Y408250D02*X109800Y407500D01*
G54D149*X114600Y412000D02*Y411850D01*
G54D148*Y409750D02*Y407500D01*
X116100Y410500D02*X119100D01*
X116100Y407500D02*X119100Y410500D01*
X116100Y407500D02*X119100D01*
X121650D02*X123900D01*
X120900Y408250D02*X121650Y407500D01*
X120900Y409750D02*Y408250D01*
Y409750D02*X121650Y410500D01*
X123150D01*
X123900Y409750D01*
X120900Y409000D02*X123900D01*
Y409750D02*Y409000D01*
X126450Y407500D02*X128700D01*
X129450Y408250D01*
X128700Y409000D02*X129450Y408250D01*
X126450Y409000D02*X128700D01*
X125700Y409750D02*X126450Y409000D01*
X125700Y409750D02*X126450Y410500D01*
X128700D01*
X129450Y409750D01*
X125700Y408250D02*X126450Y407500D01*
X133950Y410500D02*Y408250D01*
X134700Y407500D01*
X136200D01*
X136950Y408250D01*
Y410500D02*Y408250D01*
X139500Y407500D02*X141750D01*
X142500Y408250D01*
X141750Y409000D02*X142500Y408250D01*
X139500Y409000D02*X141750D01*
X138750Y409750D02*X139500Y409000D01*
X138750Y409750D02*X139500Y410500D01*
X141750D01*
X142500Y409750D01*
X138750Y408250D02*X139500Y407500D01*
X145050D02*X147300D01*
X144300Y408250D02*X145050Y407500D01*
X144300Y409750D02*Y408250D01*
Y409750D02*X145050Y410500D01*
X146550D01*
X147300Y409750D01*
X144300Y409000D02*X147300D01*
Y409750D02*Y409000D01*
X152100Y413500D02*Y407500D01*
X151350D02*X152100Y408250D01*
X149850Y407500D02*X151350D01*
X149100Y408250D02*X149850Y407500D01*
X149100Y409750D02*Y408250D01*
Y409750D02*X149850Y410500D01*
X151350D01*
X152100Y409750D01*
G54D149*X156600Y412000D02*Y411850D01*
G54D148*Y409750D02*Y407500D01*
X158850Y409750D02*Y407500D01*
Y409750D02*X159600Y410500D01*
X160350D01*
X161100Y409750D01*
Y407500D01*
X158100Y410500D02*X158850Y409750D01*
X166350Y413500D02*Y408250D01*
X167100Y407500D01*
X165600Y411250D02*X167100D01*
X168600Y413500D02*Y407500D01*
Y409750D02*X169350Y410500D01*
X170850D01*
X171600Y409750D01*
Y407500D01*
G54D149*X173400Y412000D02*Y411850D01*
G54D148*Y409750D02*Y407500D01*
X175650D02*X177900D01*
X178650Y408250D01*
X177900Y409000D02*X178650Y408250D01*
X175650Y409000D02*X177900D01*
X174900Y409750D02*X175650Y409000D01*
X174900Y409750D02*X175650Y410500D01*
X177900D01*
X178650Y409750D01*
X174900Y408250D02*X175650Y407500D01*
X183150Y413500D02*Y408250D01*
X183900Y407500D01*
X187650Y410500D02*X188400Y409750D01*
X186150Y410500D02*X187650D01*
X185400Y409750D02*X186150Y410500D01*
X185400Y409750D02*Y408250D01*
X186150Y407500D01*
X188400Y410500D02*Y408250D01*
X189150Y407500D01*
X186150D02*X187650D01*
X188400Y408250D01*
X190950Y410500D02*Y408250D01*
X191700Y407500D01*
X193950Y410500D02*Y406000D01*
X193200Y405250D02*X193950Y406000D01*
X191700Y405250D02*X193200D01*
X190950Y406000D02*X191700Y405250D01*
Y407500D02*X193200D01*
X193950Y408250D01*
X195750Y409750D02*Y408250D01*
Y409750D02*X196500Y410500D01*
X198000D01*
X198750Y409750D01*
Y408250D01*
X198000Y407500D02*X198750Y408250D01*
X196500Y407500D02*X198000D01*
X195750Y408250D02*X196500Y407500D01*
X200550Y410500D02*Y408250D01*
X201300Y407500D01*
X202800D01*
X203550Y408250D01*
Y410500D02*Y408250D01*
X206100Y413500D02*Y408250D01*
X206850Y407500D01*
X205350Y411250D02*X206850D01*
X208350Y406000D02*X209850Y407500D01*
X214350Y412750D02*X215100Y413500D01*
X217350D01*
X218100Y412750D01*
Y411250D01*
X214350Y407500D02*X218100Y411250D01*
X214350Y407500D02*X218100D01*
X219900Y408250D02*X220650Y407500D01*
X219900Y409450D02*Y408250D01*
Y409450D02*X220950Y410500D01*
X221850D01*
X222900Y409450D01*
Y408250D01*
X222150Y407500D02*X222900Y408250D01*
X220650Y407500D02*X222150D01*
X219900Y411550D02*X220950Y410500D01*
X219900Y412750D02*Y411550D01*
Y412750D02*X220650Y413500D01*
X222150D01*
X222900Y412750D01*
Y411550D01*
X221850Y410500D02*X222900Y411550D01*
X224700Y412750D02*X225450Y413500D01*
X227700D01*
X228450Y412750D01*
Y411250D01*
X224700Y407500D02*X228450Y411250D01*
X224700Y407500D02*X228450D01*
X232950Y413500D02*Y407500D01*
Y409750D02*X233700Y410500D01*
X235200D01*
X235950Y409750D01*
Y407500D01*
X237750Y409750D02*Y408250D01*
Y409750D02*X238500Y410500D01*
X240000D01*
X240750Y409750D01*
Y408250D01*
X240000Y407500D02*X240750Y408250D01*
X238500Y407500D02*X240000D01*
X237750Y408250D02*X238500Y407500D01*
X242550Y413500D02*Y408250D01*
X243300Y407500D01*
X245550D02*X247800D01*
X244800Y408250D02*X245550Y407500D01*
X244800Y409750D02*Y408250D01*
Y409750D02*X245550Y410500D01*
X247050D01*
X247800Y409750D01*
X244800Y409000D02*X247800D01*
Y409750D02*Y409000D01*
X250350Y407500D02*X252600D01*
X253350Y408250D01*
X252600Y409000D02*X253350Y408250D01*
X250350Y409000D02*X252600D01*
X249600Y409750D02*X250350Y409000D01*
X249600Y409750D02*X250350Y410500D01*
X252600D01*
X253350Y409750D01*
X249600Y408250D02*X250350Y407500D01*
X258600Y413500D02*Y408250D01*
X259350Y407500D01*
X257850Y411250D02*X259350D01*
X260850Y409750D02*Y408250D01*
Y409750D02*X261600Y410500D01*
X263100D01*
X263850Y409750D01*
Y408250D01*
X263100Y407500D02*X263850Y408250D01*
X261600Y407500D02*X263100D01*
X260850Y408250D02*X261600Y407500D01*
X266400Y413500D02*Y408250D01*
X267150Y407500D01*
X265650Y411250D02*X267150D01*
X270900Y410500D02*X271650Y409750D01*
X269400Y410500D02*X270900D01*
X268650Y409750D02*X269400Y410500D01*
X268650Y409750D02*Y408250D01*
X269400Y407500D01*
X271650Y410500D02*Y408250D01*
X272400Y407500D01*
X269400D02*X270900D01*
X271650Y408250D01*
X274200Y413500D02*Y408250D01*
X274950Y407500D01*
G54D150*X500Y144000D02*Y95500D01*
Y144000D02*X54500D01*
X63000Y152500D01*
Y250000D01*
X288500D01*
Y7000D01*
X63000D01*
Y87500D01*
X500Y95500D02*X55000D01*
X63000Y87500D01*
G54D148*X63675Y-9500D02*X66675D01*
X67425Y-8750D01*
Y-6950D02*Y-8750D01*
X66675Y-6200D02*X67425Y-6950D01*
X64425Y-6200D02*X66675D01*
X64425Y-3500D02*Y-9500D01*
X63675Y-3500D02*X66675D01*
X67425Y-4250D01*
Y-5450D01*
X66675Y-6200D02*X67425Y-5450D01*
X69225Y-7250D02*Y-8750D01*
Y-7250D02*X69975Y-6500D01*
X71475D01*
X72225Y-7250D01*
Y-8750D01*
X71475Y-9500D02*X72225Y-8750D01*
X69975Y-9500D02*X71475D01*
X69225Y-8750D02*X69975Y-9500D01*
X76275Y-6500D02*X77025Y-7250D01*
X74775Y-6500D02*X76275D01*
X74025Y-7250D02*X74775Y-6500D01*
X74025Y-7250D02*Y-8750D01*
X74775Y-9500D01*
X77025Y-6500D02*Y-8750D01*
X77775Y-9500D01*
X74775D02*X76275D01*
X77025Y-8750D01*
X80325Y-7250D02*Y-9500D01*
Y-7250D02*X81075Y-6500D01*
X82575D01*
X79575D02*X80325Y-7250D01*
X87375Y-3500D02*Y-9500D01*
X86625D02*X87375Y-8750D01*
X85125Y-9500D02*X86625D01*
X84375Y-8750D02*X85125Y-9500D01*
X84375Y-7250D02*Y-8750D01*
Y-7250D02*X85125Y-6500D01*
X86625D01*
X87375Y-7250D01*
X91875D02*Y-8750D01*
Y-7250D02*X92625Y-6500D01*
X94125D01*
X94875Y-7250D01*
Y-8750D01*
X94125Y-9500D02*X94875Y-8750D01*
X92625Y-9500D02*X94125D01*
X91875Y-8750D02*X92625Y-9500D01*
X96675Y-6500D02*Y-8750D01*
X97425Y-9500D01*
X98925D01*
X99675Y-8750D01*
Y-6500D02*Y-8750D01*
X102225Y-3500D02*Y-8750D01*
X102975Y-9500D01*
X101475Y-5750D02*X102975D01*
X104475Y-3500D02*Y-8750D01*
X105225Y-9500D01*
G54D149*X106725Y-5000D02*Y-5150D01*
G54D148*Y-7250D02*Y-9500D01*
X108975Y-7250D02*Y-9500D01*
Y-7250D02*X109725Y-6500D01*
X110475D01*
X111225Y-7250D01*
Y-9500D01*
X108225Y-6500D02*X108975Y-7250D01*
X113775Y-9500D02*X116025D01*
X113025Y-8750D02*X113775Y-9500D01*
X113025Y-7250D02*Y-8750D01*
Y-7250D02*X113775Y-6500D01*
X115275D01*
X116025Y-7250D01*
X113025Y-8000D02*X116025D01*
Y-7250D02*Y-8000D01*
G54D149*X120525Y-5000D02*Y-5150D01*
G54D148*Y-7250D02*Y-9500D01*
X122775D02*X125025D01*
X125775Y-8750D01*
X125025Y-8000D02*X125775Y-8750D01*
X122775Y-8000D02*X125025D01*
X122025Y-7250D02*X122775Y-8000D01*
X122025Y-7250D02*X122775Y-6500D01*
X125025D01*
X125775Y-7250D01*
X122025Y-8750D02*X122775Y-9500D01*
X131025Y-3500D02*Y-8750D01*
X131775Y-9500D01*
X130275Y-5750D02*X131775D01*
X133275Y-3500D02*Y-9500D01*
Y-7250D02*X134025Y-6500D01*
X135525D01*
X136275Y-7250D01*
Y-9500D01*
X138825D02*X141075D01*
X138075Y-8750D02*X138825Y-9500D01*
X138075Y-7250D02*Y-8750D01*
Y-7250D02*X138825Y-6500D01*
X140325D01*
X141075Y-7250D01*
X138075Y-8000D02*X141075D01*
Y-7250D02*Y-8000D01*
X146325Y-6500D02*X148575D01*
X145575Y-7250D02*X146325Y-6500D01*
X145575Y-7250D02*Y-8750D01*
X146325Y-9500D01*
X148575D01*
X151125D02*X153375D01*
X150375Y-8750D02*X151125Y-9500D01*
X150375Y-7250D02*Y-8750D01*
Y-7250D02*X151125Y-6500D01*
X152625D01*
X153375Y-7250D01*
X150375Y-8000D02*X153375D01*
Y-7250D02*Y-8000D01*
X155925Y-7250D02*Y-9500D01*
Y-7250D02*X156675Y-6500D01*
X157425D01*
X158175Y-7250D01*
Y-9500D01*
X155175Y-6500D02*X155925Y-7250D01*
X160725Y-3500D02*Y-8750D01*
X161475Y-9500D01*
X159975Y-5750D02*X161475D01*
X163725Y-9500D02*X165975D01*
X162975Y-8750D02*X163725Y-9500D01*
X162975Y-7250D02*Y-8750D01*
Y-7250D02*X163725Y-6500D01*
X165225D01*
X165975Y-7250D01*
X162975Y-8000D02*X165975D01*
Y-7250D02*Y-8000D01*
X168525Y-7250D02*Y-9500D01*
Y-7250D02*X169275Y-6500D01*
X170775D01*
X167775D02*X168525Y-7250D01*
X172575Y-3500D02*Y-8750D01*
X173325Y-9500D01*
G54D149*X174825Y-5000D02*Y-5150D01*
G54D148*Y-7250D02*Y-9500D01*
X177075Y-7250D02*Y-9500D01*
Y-7250D02*X177825Y-6500D01*
X178575D01*
X179325Y-7250D01*
Y-9500D01*
X176325Y-6500D02*X177075Y-7250D01*
X181875Y-9500D02*X184125D01*
X181125Y-8750D02*X181875Y-9500D01*
X181125Y-7250D02*Y-8750D01*
Y-7250D02*X181875Y-6500D01*
X183375D01*
X184125Y-7250D01*
X181125Y-8000D02*X184125D01*
Y-7250D02*Y-8000D01*
X188625Y-7250D02*Y-8750D01*
Y-7250D02*X189375Y-6500D01*
X190875D01*
X191625Y-7250D01*
Y-8750D01*
X190875Y-9500D02*X191625Y-8750D01*
X189375Y-9500D02*X190875D01*
X188625Y-8750D02*X189375Y-9500D01*
X194175Y-4250D02*Y-9500D01*
Y-4250D02*X194925Y-3500D01*
X195675D01*
X193425Y-6500D02*X194925D01*
X200625Y-3500D02*Y-8750D01*
X201375Y-9500D01*
X199875Y-5750D02*X201375D01*
X202875Y-3500D02*Y-9500D01*
Y-7250D02*X203625Y-6500D01*
X205125D01*
X205875Y-7250D01*
Y-9500D01*
G54D149*X207675Y-5000D02*Y-5150D01*
G54D148*Y-7250D02*Y-9500D01*
X209925D02*X212175D01*
X212925Y-8750D01*
X212175Y-8000D02*X212925Y-8750D01*
X209925Y-8000D02*X212175D01*
X209175Y-7250D02*X209925Y-8000D01*
X209175Y-7250D02*X209925Y-6500D01*
X212175D01*
X212925Y-7250D01*
X209175Y-8750D02*X209925Y-9500D01*
X218175Y-7250D02*Y-11750D01*
X217425Y-6500D02*X218175Y-7250D01*
X218925Y-6500D01*
X220425D01*
X221175Y-7250D01*
Y-8750D01*
X220425Y-9500D02*X221175Y-8750D01*
X218925Y-9500D02*X220425D01*
X218175Y-8750D02*X218925Y-9500D01*
X225225Y-6500D02*X225975Y-7250D01*
X223725Y-6500D02*X225225D01*
X222975Y-7250D02*X223725Y-6500D01*
X222975Y-7250D02*Y-8750D01*
X223725Y-9500D01*
X225975Y-6500D02*Y-8750D01*
X226725Y-9500D01*
X223725D02*X225225D01*
X225975Y-8750D01*
X229275Y-3500D02*Y-8750D01*
X230025Y-9500D01*
X228525Y-5750D02*X230025D01*
X231525Y-3500D02*Y-9500D01*
Y-7250D02*X232275Y-6500D01*
X233775D01*
X234525Y-7250D01*
Y-9500D01*
X200750Y278500D02*Y272500D01*
X202700Y278500D02*X203750Y277450D01*
Y273550D01*
X202700Y272500D02*X203750Y273550D01*
X200000Y272500D02*X202700D01*
X200000Y278500D02*X202700D01*
X207800Y275500D02*X208550Y274750D01*
X206300Y275500D02*X207800D01*
X205550Y274750D02*X206300Y275500D01*
X205550Y274750D02*Y273250D01*
X206300Y272500D01*
X208550Y275500D02*Y273250D01*
X209300Y272500D01*
X206300D02*X207800D01*
X208550Y273250D01*
X211850Y278500D02*Y273250D01*
X212600Y272500D01*
X211100Y276250D02*X212600D01*
X214850Y272500D02*X217100D01*
X214100Y273250D02*X214850Y272500D01*
X214100Y274750D02*Y273250D01*
Y274750D02*X214850Y275500D01*
X216350D01*
X217100Y274750D01*
X214100Y274000D02*X217100D01*
Y274750D02*Y274000D01*
X218900Y276250D02*X219650D01*
X218900Y274750D02*X219650D01*
X227150Y278500D02*X227900Y277750D01*
X224900Y278500D02*X227150D01*
X224150Y277750D02*X224900Y278500D01*
X224150Y277750D02*Y276250D01*
X224900Y275500D01*
X227150D01*
X227900Y274750D01*
Y273250D01*
X227150Y272500D02*X227900Y273250D01*
X224900Y272500D02*X227150D01*
X224150Y273250D02*X224900Y272500D01*
X229700Y275500D02*Y273250D01*
X230450Y272500D01*
X231950D01*
X232700Y273250D01*
Y275500D02*Y273250D01*
X235250Y274750D02*Y272500D01*
Y274750D02*X236000Y275500D01*
X236750D01*
X237500Y274750D01*
Y272500D01*
X234500Y275500D02*X235250Y274750D01*
X242000Y277300D02*X243200Y278500D01*
Y272500D01*
X242000D02*X244250D01*
X248300Y278500D02*X249050Y277750D01*
X246800Y278500D02*X248300D01*
X246050Y277750D02*X246800Y278500D01*
X246050Y277750D02*Y273250D01*
X246800Y272500D01*
X248300Y275800D02*X249050Y275050D01*
X246050Y275800D02*X248300D01*
X246800Y272500D02*X248300D01*
X249050Y273250D01*
Y275050D02*Y273250D01*
X253550Y278500D02*Y272500D01*
Y278500D02*X257300Y272500D01*
Y278500D02*Y272500D01*
X259100Y274750D02*Y273250D01*
Y274750D02*X259850Y275500D01*
X261350D01*
X262100Y274750D01*
Y273250D01*
X261350Y272500D02*X262100Y273250D01*
X259850Y272500D02*X261350D01*
X259100Y273250D02*X259850Y272500D01*
X263900Y275500D02*X265400Y272500D01*
X266900Y275500D02*X265400Y272500D01*
X271400Y277750D02*X272150Y278500D01*
X274400D01*
X275150Y277750D01*
Y276250D01*
X271400Y272500D02*X275150Y276250D01*
X271400Y272500D02*X275150D01*
X276950Y273250D02*X277700Y272500D01*
X276950Y277750D02*Y273250D01*
Y277750D02*X277700Y278500D01*
X279200D01*
X279950Y277750D01*
Y273250D01*
X279200Y272500D02*X279950Y273250D01*
X277700Y272500D02*X279200D01*
X276950Y274000D02*X279950Y277000D01*
X281750Y277300D02*X282950Y278500D01*
Y272500D01*
X281750D02*X284000D01*
X285800Y274750D02*X288800Y278500D01*
X285800Y274750D02*X289550D01*
X288800Y278500D02*Y272500D01*
X294050Y273250D02*X294800Y272500D01*
X294050Y277750D02*Y273250D01*
Y277750D02*X294800Y278500D01*
X296300D01*
X297050Y277750D01*
Y273250D01*
X296300Y272500D02*X297050Y273250D01*
X294800Y272500D02*X296300D01*
X294050Y274000D02*X297050Y277000D01*
X301100Y278500D02*X301850Y277750D01*
X299600Y278500D02*X301100D01*
X298850Y277750D02*X299600Y278500D01*
X298850Y277750D02*Y273250D01*
X299600Y272500D01*
X301100Y275800D02*X301850Y275050D01*
X298850Y275800D02*X301100D01*
X299600Y272500D02*X301100D01*
X301850Y273250D01*
Y275050D02*Y273250D01*
X303650Y276250D02*X304400D01*
X303650Y274750D02*X304400D01*
X306200Y277750D02*X306950Y278500D01*
X309200D01*
X309950Y277750D01*
Y276250D01*
X306200Y272500D02*X309950Y276250D01*
X306200Y272500D02*X309950D01*
X311750Y273250D02*X312500Y272500D01*
X311750Y274450D02*Y273250D01*
Y274450D02*X312800Y275500D01*
X313700D01*
X314750Y274450D01*
Y273250D01*
X314000Y272500D02*X314750Y273250D01*
X312500Y272500D02*X314000D01*
X311750Y276550D02*X312800Y275500D01*
X311750Y277750D02*Y276550D01*
Y277750D02*X312500Y278500D01*
X314000D01*
X314750Y277750D01*
Y276550D01*
X313700Y275500D02*X314750Y276550D01*
X316550Y276250D02*X317300D01*
X316550Y274750D02*X317300D01*
X319100Y277750D02*X319850Y278500D01*
X322100D01*
X322850Y277750D01*
Y276250D01*
X319100Y272500D02*X322850Y276250D01*
X319100Y272500D02*X322850D01*
X324650Y278500D02*X327650D01*
X324650D02*Y275500D01*
X325400Y276250D01*
X326900D01*
X327650Y275500D01*
Y273250D01*
X326900Y272500D02*X327650Y273250D01*
X325400Y272500D02*X326900D01*
X324650Y273250D02*X325400Y272500D01*
X332150Y277000D02*Y272500D01*
Y277000D02*X333200Y278500D01*
X334850D01*
X335900Y277000D01*
Y272500D01*
X332150Y275500D02*X335900D01*
X337700Y278500D02*Y272500D01*
Y278500D02*X339950Y275500D01*
X342200Y278500D01*
Y272500D01*
X349700Y278500D02*X350450Y277750D01*
X347450Y278500D02*X349700D01*
X346700Y277750D02*X347450Y278500D01*
X346700Y277750D02*Y273250D01*
X347450Y272500D01*
X349700D01*
X350450Y273250D01*
Y274750D02*Y273250D01*
X349700Y275500D02*X350450Y274750D01*
X348200Y275500D02*X349700D01*
X352250Y278500D02*Y272500D01*
Y278500D02*X354500Y275500D01*
X356750Y278500D01*
Y272500D01*
X358550Y278500D02*X361550D01*
X360050D02*Y272500D01*
X366050Y278500D02*Y273250D01*
X366800Y272500D01*
X368300D01*
X369050Y273250D01*
Y278500D02*Y273250D01*
X370850Y278500D02*X373850D01*
X372350D02*Y272500D01*
X376700D02*X378650D01*
X375650Y273550D02*X376700Y272500D01*
X375650Y277450D02*Y273550D01*
Y277450D02*X376700Y278500D01*
X378650D01*
X200000Y292000D02*Y287500D01*
Y292000D02*X201050Y293500D01*
X202700D01*
X203750Y292000D01*
Y287500D01*
X200000Y290500D02*X203750D01*
X205550D02*Y288250D01*
X206300Y287500D01*
X207800D01*
X208550Y288250D01*
Y290500D02*Y288250D01*
X211100Y293500D02*Y288250D01*
X211850Y287500D01*
X210350Y291250D02*X211850D01*
X213350Y293500D02*Y287500D01*
Y289750D02*X214100Y290500D01*
X215600D01*
X216350Y289750D01*
Y287500D01*
X218150Y289750D02*Y288250D01*
Y289750D02*X218900Y290500D01*
X220400D01*
X221150Y289750D01*
Y288250D01*
X220400Y287500D02*X221150Y288250D01*
X218900Y287500D02*X220400D01*
X218150Y288250D02*X218900Y287500D01*
X223700Y289750D02*Y287500D01*
Y289750D02*X224450Y290500D01*
X225950D01*
X222950D02*X223700Y289750D01*
X227750Y291250D02*X228500D01*
X227750Y289750D02*X228500D01*
X200000Y308500D02*X203000D01*
X201500D02*Y302500D01*
G54D149*X204800Y307000D02*Y306850D01*
G54D148*Y304750D02*Y302500D01*
X207050Y308500D02*Y303250D01*
X207800Y302500D01*
X206300Y306250D02*X207800D01*
X209300Y308500D02*Y303250D01*
X210050Y302500D01*
X212300D02*X214550D01*
X211550Y303250D02*X212300Y302500D01*
X211550Y304750D02*Y303250D01*
Y304750D02*X212300Y305500D01*
X213800D01*
X214550Y304750D01*
X211550Y304000D02*X214550D01*
Y304750D02*Y304000D01*
X216350Y306250D02*X217100D01*
X216350Y304750D02*X217100D01*
X221600Y303250D02*X222350Y302500D01*
X221600Y307750D02*X222350Y308500D01*
X221600Y307750D02*Y303250D01*
X224150Y305500D02*Y303250D01*
X224900Y302500D01*
X226400D01*
X227150Y303250D01*
Y305500D02*Y303250D01*
X229700Y304750D02*Y302500D01*
Y304750D02*X230450Y305500D01*
X231200D01*
X231950Y304750D01*
Y302500D01*
X228950Y305500D02*X229700Y304750D01*
X233750Y308500D02*Y302500D01*
Y304750D02*X236000Y302500D01*
X233750Y304750D02*X235250Y306250D01*
X238550Y304750D02*Y302500D01*
Y304750D02*X239300Y305500D01*
X240050D01*
X240800Y304750D01*
Y302500D01*
X237800Y305500D02*X238550Y304750D01*
X242600D02*Y303250D01*
Y304750D02*X243350Y305500D01*
X244850D01*
X245600Y304750D01*
Y303250D01*
X244850Y302500D02*X245600Y303250D01*
X243350Y302500D02*X244850D01*
X242600Y303250D02*X243350Y302500D01*
X247400Y305500D02*Y303250D01*
X248150Y302500D01*
X248900D01*
X249650Y303250D01*
Y305500D02*Y303250D01*
X250400Y302500D01*
X251150D01*
X251900Y303250D01*
Y305500D02*Y303250D01*
X254450Y304750D02*Y302500D01*
Y304750D02*X255200Y305500D01*
X255950D01*
X256700Y304750D01*
Y302500D01*
X253700Y305500D02*X254450Y304750D01*
X258500Y308500D02*X259250Y307750D01*
Y303250D01*
X258500Y302500D02*X259250Y303250D01*
X263750Y305500D02*X266750D01*
X271250Y308500D02*Y302500D01*
Y308500D02*X274250D01*
X271250Y305800D02*X273500D01*
X278300Y305500D02*X279050Y304750D01*
X276800Y305500D02*X278300D01*
X276050Y304750D02*X276800Y305500D01*
X276050Y304750D02*Y303250D01*
X276800Y302500D01*
X279050Y305500D02*Y303250D01*
X279800Y302500D01*
X276800D02*X278300D01*
X279050Y303250D01*
X281600Y308500D02*Y302500D01*
Y303250D02*X282350Y302500D01*
X283850D01*
X284600Y303250D01*
Y304750D02*Y303250D01*
X283850Y305500D02*X284600Y304750D01*
X282350Y305500D02*X283850D01*
X281600Y304750D02*X282350Y305500D01*
X287150Y304750D02*Y302500D01*
Y304750D02*X287900Y305500D01*
X289400D01*
X286400D02*X287150Y304750D01*
G54D149*X291200Y307000D02*Y306850D01*
G54D148*Y304750D02*Y302500D01*
X293450Y305500D02*X295700D01*
X292700Y304750D02*X293450Y305500D01*
X292700Y304750D02*Y303250D01*
X293450Y302500D01*
X295700D01*
X299750Y305500D02*X300500Y304750D01*
X298250Y305500D02*X299750D01*
X297500Y304750D02*X298250Y305500D01*
X297500Y304750D02*Y303250D01*
X298250Y302500D01*
X300500Y305500D02*Y303250D01*
X301250Y302500D01*
X298250D02*X299750D01*
X300500Y303250D01*
X303800Y308500D02*Y303250D01*
X304550Y302500D01*
X303050Y306250D02*X304550D01*
G54D149*X306050Y307000D02*Y306850D01*
G54D148*Y304750D02*Y302500D01*
X307550Y304750D02*Y303250D01*
Y304750D02*X308300Y305500D01*
X309800D01*
X310550Y304750D01*
Y303250D01*
X309800Y302500D02*X310550Y303250D01*
X308300Y302500D02*X309800D01*
X307550Y303250D02*X308300Y302500D01*
X313100Y304750D02*Y302500D01*
Y304750D02*X313850Y305500D01*
X314600D01*
X315350Y304750D01*
Y302500D01*
X312350Y305500D02*X313100Y304750D01*
X320600Y308500D02*Y302500D01*
X322550Y308500D02*X323600Y307450D01*
Y303550D01*
X322550Y302500D02*X323600Y303550D01*
X319850Y302500D02*X322550D01*
X319850Y308500D02*X322550D01*
X326150Y304750D02*Y302500D01*
Y304750D02*X326900Y305500D01*
X328400D01*
X325400D02*X326150Y304750D01*
X332450Y305500D02*X333200Y304750D01*
X330950Y305500D02*X332450D01*
X330200Y304750D02*X330950Y305500D01*
X330200Y304750D02*Y303250D01*
X330950Y302500D01*
X333200Y305500D02*Y303250D01*
X333950Y302500D01*
X330950D02*X332450D01*
X333200Y303250D01*
X335750Y305500D02*Y303250D01*
X336500Y302500D01*
X337250D01*
X338000Y303250D01*
Y305500D02*Y303250D01*
X338750Y302500D01*
X339500D01*
X340250Y303250D01*
Y305500D02*Y303250D01*
G54D149*X342050Y307000D02*Y306850D01*
G54D148*Y304750D02*Y302500D01*
X344300Y304750D02*Y302500D01*
Y304750D02*X345050Y305500D01*
X345800D01*
X346550Y304750D01*
Y302500D01*
X343550Y305500D02*X344300Y304750D01*
X350600Y305500D02*X351350Y304750D01*
X349100Y305500D02*X350600D01*
X348350Y304750D02*X349100Y305500D01*
X348350Y304750D02*Y303250D01*
X349100Y302500D01*
X350600D01*
X351350Y303250D01*
X348350Y301000D02*X349100Y300250D01*
X350600D01*
X351350Y301000D01*
Y305500D02*Y301000D01*
M02*
