G04 start of page 8 for group -4079 idx -4079 *
G04 Title: (unknown), topsilk *
G04 Creator: pcb 1.99z *
G04 CreationDate: Sun 16 Nov 2014 06:19:32 AM GMT UTC *
G04 For: commonadmin *
G04 Format: Gerber/RS-274X *
G04 PCB-Dimensions (mil): 4500.00 4500.00 *
G04 PCB-Coordinate-Origin: lower left *
%MOIN*%
%FSLAX25Y25*%
%LNTOPSILK*%
%ADD125C,0.0050*%
%ADD124C,0.0040*%
%ADD123C,0.0080*%
%ADD122C,0.0030*%
%ADD121C,0.0060*%
%ADD120C,0.0100*%
G54D120*X65230Y420469D02*Y376965D01*
G54D121*X69000Y380000D02*X79500Y390500D01*
G54D120*X135702Y420430D02*Y449406D01*
X120781D01*
X137730Y420430D02*Y449406D01*
G54D121*X82198Y432674D02*X83773Y434249D01*
X82198D02*X83773Y432674D01*
G54D120*X77986Y449406D02*X122986D01*
X65230D02*X79009D01*
X65230Y420430D02*Y449406D01*
X137730D02*X151509D01*
X65230Y376965D02*X135702D01*
X137730D02*X208202D01*
X135702Y420469D02*Y376965D01*
X137730Y420469D02*Y376965D01*
G54D121*X128500Y380000D02*Y379000D01*
X128000Y379500D02*X129000D01*
X128500Y381000D02*Y385500D01*
Y388500D02*X123000Y378000D01*
X134500D02*X128500Y388500D01*
X123000Y378000D02*X134500D01*
X141500Y380000D02*X152000Y390500D01*
G54D120*X208202Y420469D02*Y376965D01*
X210250Y420509D02*Y377006D01*
G54D121*X201000Y380000D02*Y379000D01*
X200500Y379500D02*X201500D01*
X201000Y381000D02*Y385500D01*
Y388500D02*X195500Y378000D01*
X207000D02*X201000Y388500D01*
X195500Y378000D02*X207000D01*
X214000Y380500D02*X224500Y391000D01*
X273500Y380500D02*Y379500D01*
G54D120*X280722Y420509D02*Y377006D01*
G54D121*X273000Y380000D02*X274000D01*
G54D120*X210250Y377006D02*X280722D01*
G54D121*X273500Y381500D02*Y386000D01*
Y389000D02*X268000Y378500D01*
X279500D02*X273500Y389000D01*
X268000Y378500D02*X279500D01*
X154698Y432674D02*X156273Y434249D01*
X154698D02*X156273Y432674D01*
G54D120*X208202Y420430D02*Y449406D01*
X193281D01*
X150486D02*X195486D01*
X223006Y449446D02*X268006D01*
X210250D02*X224030D01*
G54D121*X227219Y432714D02*X228793Y434289D01*
X227219D02*X228793Y432714D01*
G54D120*X280722Y420470D02*Y449446D01*
X265801D01*
X210250Y420470D02*Y449446D01*
G54D121*X146500Y378000D02*G75*G03X154000Y385500I0J7500D01*G01*
X139000D02*G75*G03X146500Y378000I7500J0D01*G01*
Y393000D02*G75*G03X139000Y385500I0J-7500D01*G01*
X154000D02*G75*G03X146500Y393000I-7500J0D01*G01*
X74000Y378000D02*G75*G03X81500Y385500I0J7500D01*G01*
X66500D02*G75*G03X74000Y378000I7500J0D01*G01*
Y393000D02*G75*G03X66500Y385500I0J-7500D01*G01*
X81500D02*G75*G03X74000Y393000I-7500J0D01*G01*
X226500Y386000D02*G75*G03X219000Y393500I-7500J0D01*G01*
Y378500D02*G75*G03X226500Y386000I0J7500D01*G01*
X211500D02*G75*G03X219000Y378500I7500J0D01*G01*
Y393500D02*G75*G03X211500Y386000I0J-7500D01*G01*
G54D122*X156341Y428934D02*X156941Y428334D01*
X153941D02*X156941D01*
X153941Y428934D02*Y427809D01*
X154316Y426909D02*X156566Y424659D01*
X155441Y423759D02*X156941D01*
X155441D02*X153941Y423384D01*
X155441Y422634D01*
X153941Y421884D01*
X155441Y421509D01*
X156941D01*
Y419109D02*X156566Y418734D01*
X156941Y420234D02*Y419109D01*
X156566Y420609D02*X156941Y420234D01*
X154316Y420609D02*X156566D01*
X154316D02*X153941Y420234D01*
Y419109D01*
X154316Y418734D01*
X155066D01*
X155441Y419109D02*X155066Y418734D01*
X155441Y419859D02*Y419109D01*
X161684Y439564D02*X162059Y439189D01*
Y438064D01*
X161684Y437689D01*
X160934D02*X161684D01*
X159059Y439564D02*X160934Y437689D01*
X159059Y439564D02*Y437689D01*
X159434Y436789D02*X161684Y434539D01*
X162059Y432139D02*X161684Y431764D01*
X162059Y433264D02*Y432139D01*
X161684Y433639D02*X162059Y433264D01*
X159434Y433639D02*X161684D01*
X159434D02*X159059Y433264D01*
Y432139D01*
X159434Y431764D01*
X160184D01*
X160559Y432139D02*X160184Y431764D01*
X160559Y432889D02*Y432139D01*
X166802Y429328D02*X167177Y428953D01*
Y428203D01*
X166802Y427828D01*
X164177Y428203D02*X164552Y427828D01*
X164177Y428953D02*Y428203D01*
X164552Y429328D02*X164177Y428953D01*
X165827D02*Y428203D01*
X166202Y427828D02*X166802D01*
X164552D02*X165452D01*
X165827Y428203D01*
X166202Y427828D02*X165827Y428203D01*
X164552Y426928D02*X166802Y424678D01*
X165677Y423778D02*X167177D01*
X165677D02*X164177Y423403D01*
X165677Y422653D01*
X164177Y421903D01*
X165677Y421528D01*
X167177D01*
X164552Y420628D02*X166802D01*
X167177Y420253D01*
Y419503D01*
X166802Y419128D01*
X164552D02*X166802D01*
X164177Y419503D02*X164552Y419128D01*
X164177Y420253D02*Y419503D01*
X164552Y420628D02*X164177Y420253D01*
X170026Y439564D02*X171901Y438064D01*
X170026Y439564D02*Y437689D01*
X168901Y438064D02*X171901D01*
X169276Y436789D02*X171526Y434539D01*
X168901Y433639D02*Y432139D01*
X169276Y431764D01*
X170176D01*
X170551Y432139D02*X170176Y431764D01*
X170551Y433264D02*Y432139D01*
X168901Y433264D02*X171901D01*
Y433639D02*Y432139D01*
X171526Y431764D01*
X170926D02*X171526D01*
X170551Y432139D02*X170926Y431764D01*
X169276Y430864D02*X171901D01*
X169276D02*X168901Y430489D01*
X177413Y429328D02*Y427828D01*
X175913Y429328D02*X177413D01*
X175913D02*X176288Y428953D01*
Y428203D01*
X175913Y427828D01*
X174788D02*X175913D01*
X174413Y428203D02*X174788Y427828D01*
X174413Y428953D02*Y428203D01*
X174788Y429328D02*X174413Y428953D01*
X174788Y426928D02*X177038Y424678D01*
X175913Y423778D02*X177413D01*
X175913D02*X174413Y423403D01*
X175913Y422653D01*
X174413Y421903D01*
X175913Y421528D01*
X177413D01*
X174413Y420628D02*Y419128D01*
X174788Y418753D01*
X175688D01*
X176063Y419128D02*X175688Y418753D01*
X176063Y420253D02*Y419128D01*
X174413Y420253D02*X177413D01*
Y420628D02*Y419128D01*
X177038Y418753D01*
X176438D02*X177038D01*
X176063Y419128D02*X176438Y418753D01*
X174788Y417853D02*X177413D01*
X174788D02*X174413Y417478D01*
X181744Y438045D02*X181369Y437670D01*
X181744Y438795D02*Y438045D01*
X181369Y439170D02*X181744Y438795D01*
X179119Y439170D02*X181369D01*
X179119D02*X178744Y438795D01*
X180394Y438045D02*X180019Y437670D01*
X180394Y439170D02*Y438045D01*
X178744Y438795D02*Y438045D01*
X179119Y437670D01*
X180019D01*
X179119Y436770D02*X181369Y434520D01*
X179119Y433620D02*X181369D01*
X181744Y433245D01*
Y432495D01*
X181369Y432120D01*
X179119D02*X181369D01*
X178744Y432495D02*X179119Y432120D01*
X178744Y433245D02*Y432495D01*
X179119Y433620D02*X178744Y433245D01*
X189355Y439170D02*X188980Y438795D01*
X189355Y439170D02*X189955D01*
X190480Y438645D01*
Y438195D01*
X189955Y437670D01*
X189355D02*X189955D01*
X188980Y438045D02*X189355Y437670D01*
X188980Y438795D02*Y438045D01*
X191005Y439170D02*X190480Y438645D01*
X191005Y439170D02*X191605D01*
X191980Y438795D01*
Y438045D01*
X191605Y437670D01*
X191005D02*X191605D01*
X190480Y438195D02*X191005Y437670D01*
X189355Y436770D02*X191605Y434520D01*
X188980Y433620D02*Y432120D01*
X189355Y431745D01*
X190255D01*
X190630Y432120D02*X190255Y431745D01*
X190630Y433245D02*Y432120D01*
X188980Y433245D02*X191980D01*
Y433620D02*Y432120D01*
X191605Y431745D01*
X191005D02*X191605D01*
X190630Y432120D02*X191005Y431745D01*
X188980Y430470D02*X190105D01*
X190480Y430095D01*
Y429345D01*
Y430845D02*X190105Y430470D01*
X234204Y439604D02*X234579Y439229D01*
Y438104D01*
X234204Y437729D01*
X233454D02*X234204D01*
X231579Y439604D02*X233454Y437729D01*
X231579Y439604D02*Y437729D01*
X231954Y436829D02*X234204Y434579D01*
X234579Y432179D02*X234204Y431804D01*
X234579Y433304D02*Y432179D01*
X234204Y433679D02*X234579Y433304D01*
X231954Y433679D02*X234204D01*
X231954D02*X231579Y433304D01*
Y432179D01*
X231954Y431804D01*
X232704D01*
X233079Y432179D02*X232704Y431804D01*
X233079Y432929D02*Y432179D01*
X242546Y439604D02*X244421Y438104D01*
X242546Y439604D02*Y437729D01*
X241421Y438104D02*X244421D01*
X241796Y436829D02*X244046Y434579D01*
X241421Y433679D02*Y432179D01*
X241796Y431804D01*
X242696D01*
X243071Y432179D02*X242696Y431804D01*
X243071Y433304D02*Y432179D01*
X241421Y433304D02*X244421D01*
Y433679D02*Y432179D01*
X244046Y431804D01*
X243446D02*X244046D01*
X243071Y432179D02*X243446Y431804D01*
X241796Y430904D02*X244421D01*
X241796D02*X241421Y430529D01*
X254264Y438085D02*X253889Y437710D01*
X254264Y438835D02*Y438085D01*
X253889Y439210D02*X254264Y438835D01*
X251639Y439210D02*X253889D01*
X251639D02*X251264Y438835D01*
X252914Y438085D02*X252539Y437710D01*
X252914Y439210D02*Y438085D01*
X251264Y438835D02*Y438085D01*
X251639Y437710D01*
X252539D01*
X251639Y436810D02*X253889Y434560D01*
X251639Y433660D02*X253889D01*
X254264Y433285D01*
Y432535D01*
X253889Y432160D01*
X251639D02*X253889D01*
X251264Y432535D02*X251639Y432160D01*
X251264Y433285D02*Y432535D01*
X251639Y433660D02*X251264Y433285D01*
X261875Y439210D02*X261500Y438835D01*
X261875Y439210D02*X262475D01*
X263000Y438685D01*
Y438235D01*
X262475Y437710D01*
X261875D02*X262475D01*
X261500Y438085D02*X261875Y437710D01*
X261500Y438835D02*Y438085D01*
X263525Y439210D02*X263000Y438685D01*
X263525Y439210D02*X264125D01*
X264500Y438835D01*
Y438085D01*
X264125Y437710D01*
X263525D02*X264125D01*
X263000Y438235D02*X263525Y437710D01*
X261875Y436810D02*X264125Y434560D01*
X261500Y433660D02*Y432160D01*
X261875Y431785D01*
X262775D01*
X263150Y432160D02*X262775Y431785D01*
X263150Y433285D02*Y432160D01*
X261500Y433285D02*X264500D01*
Y433660D02*Y432160D01*
X264125Y431785D01*
X263525D02*X264125D01*
X263150Y432160D02*X263525Y431785D01*
X261500Y430510D02*X262625D01*
X263000Y430135D01*
Y429385D01*
Y430885D02*X262625Y430510D01*
X214069Y441610D02*X215569D01*
X214819D02*Y438610D01*
X216469Y441610D02*X217969D01*
X216469D02*Y440110D01*
X216844Y440485D01*
X217594D01*
X217969Y440110D01*
Y438985D01*
X217594Y438610D02*X217969Y438985D01*
X216844Y438610D02*X217594D01*
X216469Y438985D02*X216844Y438610D01*
X219994Y441610D02*X220369Y441235D01*
X219244Y441610D02*X219994D01*
X218869Y441235D02*X219244Y441610D01*
X218869Y441235D02*Y438985D01*
X219244Y438610D01*
X219994Y440260D02*X220369Y439885D01*
X218869Y440260D02*X219994D01*
X219244Y438610D02*X219994D01*
X220369Y438985D01*
Y439885D02*Y438985D01*
X221269D02*X221644Y438610D01*
X221269Y439585D02*Y438985D01*
Y439585D02*X221794Y440110D01*
X222244D01*
X222769Y439585D01*
Y438985D01*
X222394Y438610D02*X222769Y438985D01*
X221644Y438610D02*X222394D01*
X221269Y440635D02*X221794Y440110D01*
X221269Y441235D02*Y440635D01*
Y441235D02*X221644Y441610D01*
X222394D01*
X222769Y441235D01*
Y440635D01*
X222244Y440110D02*X222769Y440635D01*
X223669Y440860D02*Y438610D01*
Y440860D02*X224194Y441610D01*
X225019D01*
X225544Y440860D01*
Y438610D01*
X223669Y440110D02*X225544D01*
X183862Y428953D02*X186862Y427453D01*
Y429328D02*Y427453D01*
X184237Y426553D02*X186487Y424303D01*
X185362Y423403D02*X186862D01*
X185362D02*X183862Y423028D01*
X185362Y422278D01*
X183862Y421528D01*
X185362Y421153D01*
X186862D01*
X183862Y420253D02*Y418753D01*
X184237Y418378D01*
X185137D01*
X185512Y418753D02*X185137Y418378D01*
X185512Y419878D02*Y418753D01*
X183862Y419878D02*X186862D01*
Y420253D02*Y418753D01*
X186487Y418378D01*
X185887D02*X186487D01*
X185512Y418753D02*X185887Y418378D01*
X183862Y417103D02*X184987D01*
X185362Y416728D01*
Y415978D01*
Y417478D02*X184987Y417103D01*
X256382Y428993D02*X259382Y427493D01*
Y429368D02*Y427493D01*
X256757Y426593D02*X259007Y424343D01*
X257882Y423443D02*X259382D01*
X257882D02*X256382Y423068D01*
X257882Y422318D01*
X256382Y421568D01*
X257882Y421193D01*
X259382D01*
X256382Y420293D02*Y418793D01*
X256757Y418418D01*
X257657D01*
X258032Y418793D02*X257657Y418418D01*
X258032Y419918D02*Y418793D01*
X256382Y419918D02*X259382D01*
Y420293D02*Y418793D01*
X259007Y418418D01*
X258407D02*X259007D01*
X258032Y418793D02*X258407Y418418D01*
X256382Y417143D02*X257507D01*
X257882Y416768D01*
Y416018D01*
Y417518D02*X257507Y417143D01*
X249933Y429368D02*Y427868D01*
X248433Y429368D02*X249933D01*
X248433D02*X248808Y428993D01*
Y428243D01*
X248433Y427868D01*
X247308D02*X248433D01*
X246933Y428243D02*X247308Y427868D01*
X246933Y428993D02*Y428243D01*
X247308Y429368D02*X246933Y428993D01*
X247308Y426968D02*X249558Y424718D01*
X248433Y423818D02*X249933D01*
X248433D02*X246933Y423443D01*
X248433Y422693D01*
X246933Y421943D01*
X248433Y421568D01*
X249933D01*
X246933Y420668D02*Y419168D01*
X247308Y418793D01*
X248208D01*
X248583Y419168D02*X248208Y418793D01*
X248583Y420293D02*Y419168D01*
X246933Y420293D02*X249933D01*
Y420668D02*Y419168D01*
X249558Y418793D01*
X248958D02*X249558D01*
X248583Y419168D02*X248958Y418793D01*
X247308Y417893D02*X249933D01*
X247308D02*X246933Y417518D01*
X239322Y429368D02*X239697Y428993D01*
Y428243D01*
X239322Y427868D01*
X236697Y428243D02*X237072Y427868D01*
X236697Y428993D02*Y428243D01*
X237072Y429368D02*X236697Y428993D01*
X238347D02*Y428243D01*
X238722Y427868D02*X239322D01*
X237072D02*X237972D01*
X238347Y428243D01*
X238722Y427868D02*X238347Y428243D01*
X237072Y426968D02*X239322Y424718D01*
X238197Y423818D02*X239697D01*
X238197D02*X236697Y423443D01*
X238197Y422693D01*
X236697Y421943D01*
X238197Y421568D01*
X239697D01*
X237072Y420668D02*X239322D01*
X239697Y420293D01*
Y419543D01*
X239322Y419168D01*
X237072D02*X239322D01*
X236697Y419543D02*X237072Y419168D01*
X236697Y420293D02*Y419543D01*
X237072Y420668D02*X236697Y420293D01*
X228861Y428974D02*X229461Y428374D01*
X226461D02*X229461D01*
X226461Y428974D02*Y427849D01*
X226836Y426949D02*X229086Y424699D01*
X227961Y423799D02*X229461D01*
X227961D02*X226461Y423424D01*
X227961Y422674D01*
X226461Y421924D01*
X227961Y421549D01*
X229461D01*
Y419149D02*X229086Y418774D01*
X229461Y420274D02*Y419149D01*
X229086Y420649D02*X229461Y420274D01*
X226836Y420649D02*X229086D01*
X226836D02*X226461Y420274D01*
Y419149D01*
X226836Y418774D01*
X227586D01*
X227961Y419149D02*X227586Y418774D01*
X227961Y419899D02*Y419149D01*
X141549Y441570D02*X143049D01*
X142299D02*Y438570D01*
X143949Y441570D02*X145449D01*
X143949D02*Y440070D01*
X144324Y440445D01*
X145074D01*
X145449Y440070D01*
Y438945D01*
X145074Y438570D02*X145449Y438945D01*
X144324Y438570D02*X145074D01*
X143949Y438945D02*X144324Y438570D01*
X147474Y441570D02*X147849Y441195D01*
X146724Y441570D02*X147474D01*
X146349Y441195D02*X146724Y441570D01*
X146349Y441195D02*Y438945D01*
X146724Y438570D01*
X147474Y440220D02*X147849Y439845D01*
X146349Y440220D02*X147474D01*
X146724Y438570D02*X147474D01*
X147849Y438945D01*
Y439845D02*Y438945D01*
X148749D02*X149124Y438570D01*
X148749Y439545D02*Y438945D01*
Y439545D02*X149274Y440070D01*
X149724D01*
X150249Y439545D01*
Y438945D01*
X149874Y438570D02*X150249Y438945D01*
X149124Y438570D02*X149874D01*
X148749Y440595D02*X149274Y440070D01*
X148749Y441195D02*Y440595D01*
Y441195D02*X149124Y441570D01*
X149874D01*
X150249Y441195D01*
Y440595D01*
X149724Y440070D02*X150249Y440595D01*
X151149Y440820D02*Y438570D01*
Y440820D02*X151674Y441570D01*
X152499D01*
X153024Y440820D01*
Y438570D01*
X151149Y440070D02*X153024D01*
X157375Y387375D02*Y386250D01*
Y387375D02*X157750Y387750D01*
X158125D01*
X158500Y387375D01*
Y386250D01*
X157000Y387750D02*X157375Y387375D01*
X159775Y386250D02*X160900D01*
X159400Y386625D02*X159775Y386250D01*
X159400Y387375D02*Y386625D01*
Y387375D02*X159775Y387750D01*
X160525D01*
X160900Y387375D01*
X159400Y387000D02*X160900D01*
Y387375D02*Y387000D01*
X162175Y389250D02*Y386625D01*
X162550Y386250D01*
X161800Y388125D02*X162550D01*
X163300Y387750D02*Y386625D01*
X163675Y386250D01*
X164050D01*
X164425Y386625D01*
Y387750D02*Y386625D01*
X164800Y386250D01*
X165175D01*
X165550Y386625D01*
Y387750D02*Y386625D01*
X166450Y387375D02*Y386625D01*
Y387375D02*X166825Y387750D01*
X167575D01*
X167950Y387375D01*
Y386625D01*
X167575Y386250D02*X167950Y386625D01*
X166825Y386250D02*X167575D01*
X166450Y386625D02*X166825Y386250D01*
X169225Y387375D02*Y386250D01*
Y387375D02*X169600Y387750D01*
X170350D01*
X168850D02*X169225Y387375D01*
X171250Y389250D02*Y386250D01*
Y387375D02*X172375Y386250D01*
X171250Y387375D02*X172000Y388125D01*
X174625Y389250D02*Y386250D01*
Y387375D02*X175000Y387750D01*
X175750D01*
X176125Y387375D01*
Y386250D01*
X178150Y387750D02*X178525Y387375D01*
X177400Y387750D02*X178150D01*
X177025Y387375D02*X177400Y387750D01*
X177025Y387375D02*Y386625D01*
X177400Y386250D01*
X178525Y387750D02*Y386625D01*
X178900Y386250D01*
X177400D02*X178150D01*
X178525Y386625D01*
X180175Y387375D02*Y386250D01*
Y387375D02*X180550Y387750D01*
X181300D01*
X179800D02*X180175Y387375D01*
X183700Y389250D02*Y386250D01*
X183325D02*X183700Y386625D01*
X182575Y386250D02*X183325D01*
X182200Y386625D02*X182575Y386250D01*
X182200Y387375D02*Y386625D01*
Y387375D02*X182575Y387750D01*
X183325D01*
X183700Y387375D01*
X184600Y387750D02*Y386625D01*
X184975Y386250D01*
X185350D01*
X185725Y386625D01*
Y387750D02*Y386625D01*
X186100Y386250D01*
X186475D01*
X186850Y386625D01*
Y387750D02*Y386625D01*
X188875Y387750D02*X189250Y387375D01*
X188125Y387750D02*X188875D01*
X187750Y387375D02*X188125Y387750D01*
X187750Y387375D02*Y386625D01*
X188125Y386250D01*
X189250Y387750D02*Y386625D01*
X189625Y386250D01*
X188125D02*X188875D01*
X189250Y386625D01*
X190900Y387375D02*Y386250D01*
Y387375D02*X191275Y387750D01*
X192025D01*
X190525D02*X190900Y387375D01*
X193300Y386250D02*X194425D01*
X192925Y386625D02*X193300Y386250D01*
X192925Y387375D02*Y386625D01*
Y387375D02*X193300Y387750D01*
X194050D01*
X194425Y387375D01*
X192925Y387000D02*X194425D01*
Y387375D02*Y387000D01*
X195325Y386250D02*X195700D01*
X177375Y382250D02*Y379250D01*
X178350Y382250D02*X178875Y381725D01*
Y379775D01*
X178350Y379250D02*X178875Y379775D01*
X177000Y379250D02*X178350D01*
X177000Y382250D02*X178350D01*
X179775Y381500D02*Y379250D01*
Y381500D02*X180300Y382250D01*
X181125D01*
X181650Y381500D01*
Y379250D01*
X179775Y380750D02*X181650D01*
X182550Y382250D02*Y379250D01*
Y382250D02*X184425Y379250D01*
Y382250D02*Y379250D01*
X186825Y382250D02*X187200Y381875D01*
X185700Y382250D02*X186825D01*
X185325Y381875D02*X185700Y382250D01*
X185325Y381875D02*Y379625D01*
X185700Y379250D01*
X186825D01*
X187200Y379625D01*
Y380375D02*Y379625D01*
X186825Y380750D02*X187200Y380375D01*
X186075Y380750D02*X186825D01*
X188100Y380900D02*X189225D01*
X188100Y379250D02*X189600D01*
X188100Y382250D02*Y379250D01*
Y382250D02*X189600D01*
X190500D02*X192000D01*
X192375Y381875D01*
Y381125D01*
X192000Y380750D02*X192375Y381125D01*
X190875Y380750D02*X192000D01*
X190875Y382250D02*Y379250D01*
X191475Y380750D02*X192375Y379250D01*
X193275Y379625D02*Y379250D01*
Y382250D02*Y380375D01*
X146375Y382875D02*Y381750D01*
Y382875D02*X146750Y383250D01*
X147125D01*
X147500Y382875D01*
Y381750D01*
X146000Y383250D02*X146375Y382875D01*
X148775Y381750D02*X149900D01*
X148400Y382125D02*X148775Y381750D01*
X148400Y382875D02*Y382125D01*
Y382875D02*X148775Y383250D01*
X149525D01*
X149900Y382875D01*
X148400Y382500D02*X149900D01*
Y382875D02*Y382500D01*
X151175Y384750D02*Y382125D01*
X151550Y381750D01*
X150800Y383625D02*X151550D01*
X140000Y387400D02*X141125D01*
X140000Y385750D02*X141500D01*
X140000Y388750D02*Y385750D01*
Y388750D02*X141500D01*
X142775D02*Y386125D01*
X143150Y385750D01*
X142400Y387625D02*X143150D01*
X143900Y388750D02*Y385750D01*
Y386875D02*X144275Y387250D01*
X145025D01*
X145400Y386875D01*
Y385750D01*
X146675D02*X147800D01*
X146300Y386125D02*X146675Y385750D01*
X146300Y386875D02*Y386125D01*
Y386875D02*X146675Y387250D01*
X147425D01*
X147800Y386875D01*
X146300Y386500D02*X147800D01*
Y386875D02*Y386500D01*
X149075Y386875D02*Y385750D01*
Y386875D02*X149450Y387250D01*
X150200D01*
X148700D02*X149075Y386875D01*
X151100Y387250D02*X152600D01*
X157375Y392750D02*Y389750D01*
X158350Y392750D02*X158875Y392225D01*
Y390275D01*
X158350Y389750D02*X158875Y390275D01*
X157000Y389750D02*X158350D01*
X157000Y392750D02*X158350D01*
X160900Y391250D02*X161275Y390875D01*
X160150Y391250D02*X160900D01*
X159775Y390875D02*X160150Y391250D01*
X159775Y390875D02*Y390125D01*
X160150Y389750D01*
X161275Y391250D02*Y390125D01*
X161650Y389750D01*
X160150D02*X160900D01*
X161275Y390125D01*
X162925Y390875D02*Y389750D01*
Y390875D02*X163300Y391250D01*
X163675D01*
X164050Y390875D01*
Y389750D01*
Y390875D02*X164425Y391250D01*
X164800D01*
X165175Y390875D01*
Y389750D01*
X162550Y391250D02*X162925Y390875D01*
X167200Y391250D02*X167575Y390875D01*
X166450Y391250D02*X167200D01*
X166075Y390875D02*X166450Y391250D01*
X166075Y390875D02*Y390125D01*
X166450Y389750D01*
X167575Y391250D02*Y390125D01*
X167950Y389750D01*
X166450D02*X167200D01*
X167575Y390125D01*
X169975Y391250D02*X170350Y390875D01*
X169225Y391250D02*X169975D01*
X168850Y390875D02*X169225Y391250D01*
X168850Y390875D02*Y390125D01*
X169225Y389750D01*
X169975D01*
X170350Y390125D01*
X168850Y389000D02*X169225Y388625D01*
X169975D01*
X170350Y389000D01*
Y391250D02*Y389000D01*
X171625Y389750D02*X172750D01*
X171250Y390125D02*X171625Y389750D01*
X171250Y390875D02*Y390125D01*
Y390875D02*X171625Y391250D01*
X172375D01*
X172750Y390875D01*
X171250Y390500D02*X172750D01*
Y390875D02*Y390500D01*
X174025Y389750D02*X175150D01*
X175525Y390125D01*
X175150Y390500D02*X175525Y390125D01*
X174025Y390500D02*X175150D01*
X173650Y390875D02*X174025Y390500D01*
X173650Y390875D02*X174025Y391250D01*
X175150D01*
X175525Y390875D01*
X173650Y390125D02*X174025Y389750D01*
X178150D02*X179275D01*
X177775Y390125D02*X178150Y389750D01*
X177775Y390875D02*Y390125D01*
Y390875D02*X178150Y391250D01*
X178900D01*
X179275Y390875D01*
X177775Y390500D02*X179275D01*
Y390875D02*Y390500D01*
X180550Y392750D02*Y390125D01*
X180925Y389750D01*
X180175Y391625D02*X180925D01*
X181675Y392750D02*Y389750D01*
Y390875D02*X182050Y391250D01*
X182800D01*
X183175Y390875D01*
Y389750D01*
X184450D02*X185575D01*
X184075Y390125D02*X184450Y389750D01*
X184075Y390875D02*Y390125D01*
Y390875D02*X184450Y391250D01*
X185200D01*
X185575Y390875D01*
X184075Y390500D02*X185575D01*
Y390875D02*Y390500D01*
X186850Y390875D02*Y389750D01*
Y390875D02*X187225Y391250D01*
X187975D01*
X186475D02*X186850Y390875D01*
X189250D02*Y389750D01*
Y390875D02*X189625Y391250D01*
X190000D01*
X190375Y390875D01*
Y389750D01*
X188875Y391250D02*X189250Y390875D01*
X191650Y389750D02*X192775D01*
X191275Y390125D02*X191650Y389750D01*
X191275Y390875D02*Y390125D01*
Y390875D02*X191650Y391250D01*
X192400D01*
X192775Y390875D01*
X191275Y390500D02*X192775D01*
Y390875D02*Y390500D01*
X194050Y392750D02*Y390125D01*
X194425Y389750D01*
X193675Y391625D02*X194425D01*
X229875Y387875D02*Y386750D01*
Y387875D02*X230250Y388250D01*
X230625D01*
X231000Y387875D01*
Y386750D01*
X229500Y388250D02*X229875Y387875D01*
X232275Y386750D02*X233400D01*
X231900Y387125D02*X232275Y386750D01*
X231900Y387875D02*Y387125D01*
Y387875D02*X232275Y388250D01*
X233025D01*
X233400Y387875D01*
X231900Y387500D02*X233400D01*
Y387875D02*Y387500D01*
X234675Y389750D02*Y387125D01*
X235050Y386750D01*
X234300Y388625D02*X235050D01*
X235800Y388250D02*Y387125D01*
X236175Y386750D01*
X236550D01*
X236925Y387125D01*
Y388250D02*Y387125D01*
X237300Y386750D01*
X237675D01*
X238050Y387125D01*
Y388250D02*Y387125D01*
X238950Y387875D02*Y387125D01*
Y387875D02*X239325Y388250D01*
X240075D01*
X240450Y387875D01*
Y387125D01*
X240075Y386750D02*X240450Y387125D01*
X239325Y386750D02*X240075D01*
X238950Y387125D02*X239325Y386750D01*
X241725Y387875D02*Y386750D01*
Y387875D02*X242100Y388250D01*
X242850D01*
X241350D02*X241725Y387875D01*
X243750Y389750D02*Y386750D01*
Y387875D02*X244875Y386750D01*
X243750Y387875D02*X244500Y388625D01*
X247125Y389750D02*Y386750D01*
Y387875D02*X247500Y388250D01*
X248250D01*
X248625Y387875D01*
Y386750D01*
X250650Y388250D02*X251025Y387875D01*
X249900Y388250D02*X250650D01*
X249525Y387875D02*X249900Y388250D01*
X249525Y387875D02*Y387125D01*
X249900Y386750D01*
X251025Y388250D02*Y387125D01*
X251400Y386750D01*
X249900D02*X250650D01*
X251025Y387125D01*
X252675Y387875D02*Y386750D01*
Y387875D02*X253050Y388250D01*
X253800D01*
X252300D02*X252675Y387875D01*
X256200Y389750D02*Y386750D01*
X255825D02*X256200Y387125D01*
X255075Y386750D02*X255825D01*
X254700Y387125D02*X255075Y386750D01*
X254700Y387875D02*Y387125D01*
Y387875D02*X255075Y388250D01*
X255825D01*
X256200Y387875D01*
X257100Y388250D02*Y387125D01*
X257475Y386750D01*
X257850D01*
X258225Y387125D01*
Y388250D02*Y387125D01*
X258600Y386750D01*
X258975D01*
X259350Y387125D01*
Y388250D02*Y387125D01*
X261375Y388250D02*X261750Y387875D01*
X260625Y388250D02*X261375D01*
X260250Y387875D02*X260625Y388250D01*
X260250Y387875D02*Y387125D01*
X260625Y386750D01*
X261750Y388250D02*Y387125D01*
X262125Y386750D01*
X260625D02*X261375D01*
X261750Y387125D01*
X263400Y387875D02*Y386750D01*
Y387875D02*X263775Y388250D01*
X264525D01*
X263025D02*X263400Y387875D01*
X265800Y386750D02*X266925D01*
X265425Y387125D02*X265800Y386750D01*
X265425Y387875D02*Y387125D01*
Y387875D02*X265800Y388250D01*
X266550D01*
X266925Y387875D01*
X265425Y387500D02*X266925D01*
Y387875D02*Y387500D01*
X267825Y386750D02*X268200D01*
X229875Y393250D02*Y390250D01*
X230850Y393250D02*X231375Y392725D01*
Y390775D01*
X230850Y390250D02*X231375Y390775D01*
X229500Y390250D02*X230850D01*
X229500Y393250D02*X230850D01*
X233400Y391750D02*X233775Y391375D01*
X232650Y391750D02*X233400D01*
X232275Y391375D02*X232650Y391750D01*
X232275Y391375D02*Y390625D01*
X232650Y390250D01*
X233775Y391750D02*Y390625D01*
X234150Y390250D01*
X232650D02*X233400D01*
X233775Y390625D01*
X235425Y391375D02*Y390250D01*
Y391375D02*X235800Y391750D01*
X236175D01*
X236550Y391375D01*
Y390250D01*
Y391375D02*X236925Y391750D01*
X237300D01*
X237675Y391375D01*
Y390250D01*
X235050Y391750D02*X235425Y391375D01*
X239700Y391750D02*X240075Y391375D01*
X238950Y391750D02*X239700D01*
X238575Y391375D02*X238950Y391750D01*
X238575Y391375D02*Y390625D01*
X238950Y390250D01*
X240075Y391750D02*Y390625D01*
X240450Y390250D01*
X238950D02*X239700D01*
X240075Y390625D01*
X242475Y391750D02*X242850Y391375D01*
X241725Y391750D02*X242475D01*
X241350Y391375D02*X241725Y391750D01*
X241350Y391375D02*Y390625D01*
X241725Y390250D01*
X242475D01*
X242850Y390625D01*
X241350Y389500D02*X241725Y389125D01*
X242475D01*
X242850Y389500D01*
Y391750D02*Y389500D01*
X244125Y390250D02*X245250D01*
X243750Y390625D02*X244125Y390250D01*
X243750Y391375D02*Y390625D01*
Y391375D02*X244125Y391750D01*
X244875D01*
X245250Y391375D01*
X243750Y391000D02*X245250D01*
Y391375D02*Y391000D01*
X246525Y390250D02*X247650D01*
X248025Y390625D01*
X247650Y391000D02*X248025Y390625D01*
X246525Y391000D02*X247650D01*
X246150Y391375D02*X246525Y391000D01*
X246150Y391375D02*X246525Y391750D01*
X247650D01*
X248025Y391375D01*
X246150Y390625D02*X246525Y390250D01*
X250650D02*X251775D01*
X250275Y390625D02*X250650Y390250D01*
X250275Y391375D02*Y390625D01*
Y391375D02*X250650Y391750D01*
X251400D01*
X251775Y391375D01*
X250275Y391000D02*X251775D01*
Y391375D02*Y391000D01*
X253050Y393250D02*Y390625D01*
X253425Y390250D01*
X252675Y392125D02*X253425D01*
X254175Y393250D02*Y390250D01*
Y391375D02*X254550Y391750D01*
X255300D01*
X255675Y391375D01*
Y390250D01*
X256950D02*X258075D01*
X256575Y390625D02*X256950Y390250D01*
X256575Y391375D02*Y390625D01*
Y391375D02*X256950Y391750D01*
X257700D01*
X258075Y391375D01*
X256575Y391000D02*X258075D01*
Y391375D02*Y391000D01*
X259350Y391375D02*Y390250D01*
Y391375D02*X259725Y391750D01*
X260475D01*
X258975D02*X259350Y391375D01*
X261750D02*Y390250D01*
Y391375D02*X262125Y391750D01*
X262500D01*
X262875Y391375D01*
Y390250D01*
X261375Y391750D02*X261750Y391375D01*
X264150Y390250D02*X265275D01*
X263775Y390625D02*X264150Y390250D01*
X263775Y391375D02*Y390625D01*
Y391375D02*X264150Y391750D01*
X264900D01*
X265275Y391375D01*
X263775Y391000D02*X265275D01*
Y391375D02*Y391000D01*
X266550Y393250D02*Y390625D01*
X266925Y390250D01*
X266175Y392125D02*X266925D01*
X249875Y382750D02*Y379750D01*
X250850Y382750D02*X251375Y382225D01*
Y380275D01*
X250850Y379750D02*X251375Y380275D01*
X249500Y379750D02*X250850D01*
X249500Y382750D02*X250850D01*
X252275Y382000D02*Y379750D01*
Y382000D02*X252800Y382750D01*
X253625D01*
X254150Y382000D01*
Y379750D01*
X252275Y381250D02*X254150D01*
X255050Y382750D02*Y379750D01*
Y382750D02*X256925Y379750D01*
Y382750D02*Y379750D01*
X259325Y382750D02*X259700Y382375D01*
X258200Y382750D02*X259325D01*
X257825Y382375D02*X258200Y382750D01*
X257825Y382375D02*Y380125D01*
X258200Y379750D01*
X259325D01*
X259700Y380125D01*
Y380875D02*Y380125D01*
X259325Y381250D02*X259700Y380875D01*
X258575Y381250D02*X259325D01*
X260600Y381400D02*X261725D01*
X260600Y379750D02*X262100D01*
X260600Y382750D02*Y379750D01*
Y382750D02*X262100D01*
X263000D02*X264500D01*
X264875Y382375D01*
Y381625D01*
X264500Y381250D02*X264875Y381625D01*
X263375Y381250D02*X264500D01*
X263375Y382750D02*Y379750D01*
X263975Y381250D02*X264875Y379750D01*
X265775Y380125D02*Y379750D01*
Y382750D02*Y380875D01*
X218875Y383375D02*Y382250D01*
Y383375D02*X219250Y383750D01*
X219625D01*
X220000Y383375D01*
Y382250D01*
X218500Y383750D02*X218875Y383375D01*
X221275Y382250D02*X222400D01*
X220900Y382625D02*X221275Y382250D01*
X220900Y383375D02*Y382625D01*
Y383375D02*X221275Y383750D01*
X222025D01*
X222400Y383375D01*
X220900Y383000D02*X222400D01*
Y383375D02*Y383000D01*
X223675Y385250D02*Y382625D01*
X224050Y382250D01*
X223300Y384125D02*X224050D01*
X212500Y387900D02*X213625D01*
X212500Y386250D02*X214000D01*
X212500Y389250D02*Y386250D01*
Y389250D02*X214000D01*
X215275D02*Y386625D01*
X215650Y386250D01*
X214900Y388125D02*X215650D01*
X216400Y389250D02*Y386250D01*
Y387375D02*X216775Y387750D01*
X217525D01*
X217900Y387375D01*
Y386250D01*
X219175D02*X220300D01*
X218800Y386625D02*X219175Y386250D01*
X218800Y387375D02*Y386625D01*
Y387375D02*X219175Y387750D01*
X219925D01*
X220300Y387375D01*
X218800Y387000D02*X220300D01*
Y387375D02*Y387000D01*
X221575Y387375D02*Y386250D01*
Y387375D02*X221950Y387750D01*
X222700D01*
X221200D02*X221575Y387375D01*
X223600Y387750D02*X225100D01*
X97526Y439564D02*X99401Y438064D01*
X97526Y439564D02*Y437689D01*
X96401Y438064D02*X99401D01*
X96776Y436789D02*X99026Y434539D01*
X96401Y433639D02*Y432139D01*
X96776Y431764D01*
X97676D01*
X98051Y432139D02*X97676Y431764D01*
X98051Y433264D02*Y432139D01*
X96401Y433264D02*X99401D01*
Y433639D02*Y432139D01*
X99026Y431764D01*
X98426D02*X99026D01*
X98051Y432139D02*X98426Y431764D01*
X96776Y430864D02*X99401D01*
X96776D02*X96401Y430489D01*
X104913Y429328D02*Y427828D01*
X103413Y429328D02*X104913D01*
X103413D02*X103788Y428953D01*
Y428203D01*
X103413Y427828D01*
X102288D02*X103413D01*
X101913Y428203D02*X102288Y427828D01*
X101913Y428953D02*Y428203D01*
X102288Y429328D02*X101913Y428953D01*
X102288Y426928D02*X104538Y424678D01*
X103413Y423778D02*X104913D01*
X103413D02*X101913Y423403D01*
X103413Y422653D01*
X101913Y421903D01*
X103413Y421528D01*
X104913D01*
X101913Y420628D02*Y419128D01*
X102288Y418753D01*
X103188D01*
X103563Y419128D02*X103188Y418753D01*
X103563Y420253D02*Y419128D01*
X101913Y420253D02*X104913D01*
Y420628D02*Y419128D01*
X104538Y418753D01*
X103938D02*X104538D01*
X103563Y419128D02*X103938Y418753D01*
X102288Y417853D02*X104913D01*
X102288D02*X101913Y417478D01*
X109244Y438045D02*X108869Y437670D01*
X109244Y438795D02*Y438045D01*
X108869Y439170D02*X109244Y438795D01*
X106619Y439170D02*X108869D01*
X106619D02*X106244Y438795D01*
X107894Y438045D02*X107519Y437670D01*
X107894Y439170D02*Y438045D01*
X106244Y438795D02*Y438045D01*
X106619Y437670D01*
X107519D01*
X106619Y436770D02*X108869Y434520D01*
X106619Y433620D02*X108869D01*
X109244Y433245D01*
Y432495D01*
X108869Y432120D01*
X106619D02*X108869D01*
X106244Y432495D02*X106619Y432120D01*
X106244Y433245D02*Y432495D01*
X106619Y433620D02*X106244Y433245D01*
X116855Y439170D02*X116480Y438795D01*
X116855Y439170D02*X117455D01*
X117980Y438645D01*
Y438195D01*
X117455Y437670D01*
X116855D02*X117455D01*
X116480Y438045D02*X116855Y437670D01*
X116480Y438795D02*Y438045D01*
X118505Y439170D02*X117980Y438645D01*
X118505Y439170D02*X119105D01*
X119480Y438795D01*
Y438045D01*
X119105Y437670D01*
X118505D02*X119105D01*
X117980Y438195D02*X118505Y437670D01*
X116855Y436770D02*X119105Y434520D01*
X116480Y433620D02*Y432120D01*
X116855Y431745D01*
X117755D01*
X118130Y432120D02*X117755Y431745D01*
X118130Y433245D02*Y432120D01*
X116480Y433245D02*X119480D01*
Y433620D02*Y432120D01*
X119105Y431745D01*
X118505D02*X119105D01*
X118130Y432120D02*X118505Y431745D01*
X116480Y430470D02*X117605D01*
X117980Y430095D01*
Y429345D01*
Y430845D02*X117605Y430470D01*
X83841Y428934D02*X84441Y428334D01*
X81441D02*X84441D01*
X81441Y428934D02*Y427809D01*
X81816Y426909D02*X84066Y424659D01*
X82941Y423759D02*X84441D01*
X82941D02*X81441Y423384D01*
X82941Y422634D01*
X81441Y421884D01*
X82941Y421509D01*
X84441D01*
Y419109D02*X84066Y418734D01*
X84441Y420234D02*Y419109D01*
X84066Y420609D02*X84441Y420234D01*
X81816Y420609D02*X84066D01*
X81816D02*X81441Y420234D01*
Y419109D01*
X81816Y418734D01*
X82566D01*
X82941Y419109D02*X82566Y418734D01*
X82941Y419859D02*Y419109D01*
X89184Y439564D02*X89559Y439189D01*
Y438064D01*
X89184Y437689D01*
X88434D02*X89184D01*
X86559Y439564D02*X88434Y437689D01*
X86559Y439564D02*Y437689D01*
X86934Y436789D02*X89184Y434539D01*
X89559Y432139D02*X89184Y431764D01*
X89559Y433264D02*Y432139D01*
X89184Y433639D02*X89559Y433264D01*
X86934Y433639D02*X89184D01*
X86934D02*X86559Y433264D01*
Y432139D01*
X86934Y431764D01*
X87684D01*
X88059Y432139D02*X87684Y431764D01*
X88059Y432889D02*Y432139D01*
X94302Y429328D02*X94677Y428953D01*
Y428203D01*
X94302Y427828D01*
X91677Y428203D02*X92052Y427828D01*
X91677Y428953D02*Y428203D01*
X92052Y429328D02*X91677Y428953D01*
X93327D02*Y428203D01*
X93702Y427828D02*X94302D01*
X92052D02*X92952D01*
X93327Y428203D01*
X93702Y427828D02*X93327Y428203D01*
X92052Y426928D02*X94302Y424678D01*
X93177Y423778D02*X94677D01*
X93177D02*X91677Y423403D01*
X93177Y422653D01*
X91677Y421903D01*
X93177Y421528D01*
X94677D01*
X92052Y420628D02*X94302D01*
X94677Y420253D01*
Y419503D01*
X94302Y419128D01*
X92052D02*X94302D01*
X91677Y419503D02*X92052Y419128D01*
X91677Y420253D02*Y419503D01*
X92052Y420628D02*X91677Y420253D01*
X111362Y428953D02*X114362Y427453D01*
Y429328D02*Y427453D01*
X111737Y426553D02*X113987Y424303D01*
X112862Y423403D02*X114362D01*
X112862D02*X111362Y423028D01*
X112862Y422278D01*
X111362Y421528D01*
X112862Y421153D01*
X114362D01*
X111362Y420253D02*Y418753D01*
X111737Y418378D01*
X112637D01*
X113012Y418753D02*X112637Y418378D01*
X113012Y419878D02*Y418753D01*
X111362Y419878D02*X114362D01*
Y420253D02*Y418753D01*
X113987Y418378D01*
X113387D02*X113987D01*
X113012Y418753D02*X113387Y418378D01*
X111362Y417103D02*X112487D01*
X112862Y416728D01*
Y415978D01*
Y417478D02*X112487Y417103D01*
X69049Y441570D02*X70549D01*
X69799D02*Y438570D01*
X71449Y441570D02*X72949D01*
X71449D02*Y440070D01*
X71824Y440445D01*
X72574D01*
X72949Y440070D01*
Y438945D01*
X72574Y438570D02*X72949Y438945D01*
X71824Y438570D02*X72574D01*
X71449Y438945D02*X71824Y438570D01*
X74974Y441570D02*X75349Y441195D01*
X74224Y441570D02*X74974D01*
X73849Y441195D02*X74224Y441570D01*
X73849Y441195D02*Y438945D01*
X74224Y438570D01*
X74974Y440220D02*X75349Y439845D01*
X73849Y440220D02*X74974D01*
X74224Y438570D02*X74974D01*
X75349Y438945D01*
Y439845D02*Y438945D01*
X76249D02*X76624Y438570D01*
X76249Y439545D02*Y438945D01*
Y439545D02*X76774Y440070D01*
X77224D01*
X77749Y439545D01*
Y438945D01*
X77374Y438570D02*X77749Y438945D01*
X76624Y438570D02*X77374D01*
X76249Y440595D02*X76774Y440070D01*
X76249Y441195D02*Y440595D01*
Y441195D02*X76624Y441570D01*
X77374D01*
X77749Y441195D01*
Y440595D01*
X77224Y440070D02*X77749Y440595D01*
X78649Y440820D02*Y438570D01*
Y440820D02*X79174Y441570D01*
X79999D01*
X80524Y440820D01*
Y438570D01*
X78649Y440070D02*X80524D01*
X84875Y387375D02*Y386250D01*
Y387375D02*X85250Y387750D01*
X85625D01*
X86000Y387375D01*
Y386250D01*
X84500Y387750D02*X84875Y387375D01*
X87275Y386250D02*X88400D01*
X86900Y386625D02*X87275Y386250D01*
X86900Y387375D02*Y386625D01*
Y387375D02*X87275Y387750D01*
X88025D01*
X88400Y387375D01*
X86900Y387000D02*X88400D01*
Y387375D02*Y387000D01*
X89675Y389250D02*Y386625D01*
X90050Y386250D01*
X89300Y388125D02*X90050D01*
X90800Y387750D02*Y386625D01*
X91175Y386250D01*
X91550D01*
X91925Y386625D01*
Y387750D02*Y386625D01*
X92300Y386250D01*
X92675D01*
X93050Y386625D01*
Y387750D02*Y386625D01*
X93950Y387375D02*Y386625D01*
Y387375D02*X94325Y387750D01*
X95075D01*
X95450Y387375D01*
Y386625D01*
X95075Y386250D02*X95450Y386625D01*
X94325Y386250D02*X95075D01*
X93950Y386625D02*X94325Y386250D01*
X96725Y387375D02*Y386250D01*
Y387375D02*X97100Y387750D01*
X97850D01*
X96350D02*X96725Y387375D01*
X98750Y389250D02*Y386250D01*
Y387375D02*X99875Y386250D01*
X98750Y387375D02*X99500Y388125D01*
X102125Y389250D02*Y386250D01*
Y387375D02*X102500Y387750D01*
X103250D01*
X103625Y387375D01*
Y386250D01*
X105650Y387750D02*X106025Y387375D01*
X104900Y387750D02*X105650D01*
X104525Y387375D02*X104900Y387750D01*
X104525Y387375D02*Y386625D01*
X104900Y386250D01*
X106025Y387750D02*Y386625D01*
X106400Y386250D01*
X104900D02*X105650D01*
X106025Y386625D01*
X107675Y387375D02*Y386250D01*
Y387375D02*X108050Y387750D01*
X108800D01*
X107300D02*X107675Y387375D01*
X111200Y389250D02*Y386250D01*
X110825D02*X111200Y386625D01*
X110075Y386250D02*X110825D01*
X109700Y386625D02*X110075Y386250D01*
X109700Y387375D02*Y386625D01*
Y387375D02*X110075Y387750D01*
X110825D01*
X111200Y387375D01*
X112100Y387750D02*Y386625D01*
X112475Y386250D01*
X112850D01*
X113225Y386625D01*
Y387750D02*Y386625D01*
X113600Y386250D01*
X113975D01*
X114350Y386625D01*
Y387750D02*Y386625D01*
X116375Y387750D02*X116750Y387375D01*
X115625Y387750D02*X116375D01*
X115250Y387375D02*X115625Y387750D01*
X115250Y387375D02*Y386625D01*
X115625Y386250D01*
X116750Y387750D02*Y386625D01*
X117125Y386250D01*
X115625D02*X116375D01*
X116750Y386625D01*
X118400Y387375D02*Y386250D01*
Y387375D02*X118775Y387750D01*
X119525D01*
X118025D02*X118400Y387375D01*
X120800Y386250D02*X121925D01*
X120425Y386625D02*X120800Y386250D01*
X120425Y387375D02*Y386625D01*
Y387375D02*X120800Y387750D01*
X121550D01*
X121925Y387375D01*
X120425Y387000D02*X121925D01*
Y387375D02*Y387000D01*
X122825Y386250D02*X123200D01*
X104875Y382250D02*Y379250D01*
X105850Y382250D02*X106375Y381725D01*
Y379775D01*
X105850Y379250D02*X106375Y379775D01*
X104500Y379250D02*X105850D01*
X104500Y382250D02*X105850D01*
X107275Y381500D02*Y379250D01*
Y381500D02*X107800Y382250D01*
X108625D01*
X109150Y381500D01*
Y379250D01*
X107275Y380750D02*X109150D01*
X110050Y382250D02*Y379250D01*
Y382250D02*X111925Y379250D01*
Y382250D02*Y379250D01*
X114325Y382250D02*X114700Y381875D01*
X113200Y382250D02*X114325D01*
X112825Y381875D02*X113200Y382250D01*
X112825Y381875D02*Y379625D01*
X113200Y379250D01*
X114325D01*
X114700Y379625D01*
Y380375D02*Y379625D01*
X114325Y380750D02*X114700Y380375D01*
X113575Y380750D02*X114325D01*
X115600Y380900D02*X116725D01*
X115600Y379250D02*X117100D01*
X115600Y382250D02*Y379250D01*
Y382250D02*X117100D01*
X118000D02*X119500D01*
X119875Y381875D01*
Y381125D01*
X119500Y380750D02*X119875Y381125D01*
X118375Y380750D02*X119500D01*
X118375Y382250D02*Y379250D01*
X118975Y380750D02*X119875Y379250D01*
X120775Y379625D02*Y379250D01*
Y382250D02*Y380375D01*
X73875Y382875D02*Y381750D01*
Y382875D02*X74250Y383250D01*
X74625D01*
X75000Y382875D01*
Y381750D01*
X73500Y383250D02*X73875Y382875D01*
X76275Y381750D02*X77400D01*
X75900Y382125D02*X76275Y381750D01*
X75900Y382875D02*Y382125D01*
Y382875D02*X76275Y383250D01*
X77025D01*
X77400Y382875D01*
X75900Y382500D02*X77400D01*
Y382875D02*Y382500D01*
X78675Y384750D02*Y382125D01*
X79050Y381750D01*
X78300Y383625D02*X79050D01*
X67500Y387400D02*X68625D01*
X67500Y385750D02*X69000D01*
X67500Y388750D02*Y385750D01*
Y388750D02*X69000D01*
X70275D02*Y386125D01*
X70650Y385750D01*
X69900Y387625D02*X70650D01*
X71400Y388750D02*Y385750D01*
Y386875D02*X71775Y387250D01*
X72525D01*
X72900Y386875D01*
Y385750D01*
X74175D02*X75300D01*
X73800Y386125D02*X74175Y385750D01*
X73800Y386875D02*Y386125D01*
Y386875D02*X74175Y387250D01*
X74925D01*
X75300Y386875D01*
X73800Y386500D02*X75300D01*
Y386875D02*Y386500D01*
X76575Y386875D02*Y385750D01*
Y386875D02*X76950Y387250D01*
X77700D01*
X76200D02*X76575Y386875D01*
X78600Y387250D02*X80100D01*
X84875Y392750D02*Y389750D01*
X85850Y392750D02*X86375Y392225D01*
Y390275D01*
X85850Y389750D02*X86375Y390275D01*
X84500Y389750D02*X85850D01*
X84500Y392750D02*X85850D01*
X88400Y391250D02*X88775Y390875D01*
X87650Y391250D02*X88400D01*
X87275Y390875D02*X87650Y391250D01*
X87275Y390875D02*Y390125D01*
X87650Y389750D01*
X88775Y391250D02*Y390125D01*
X89150Y389750D01*
X87650D02*X88400D01*
X88775Y390125D01*
X90425Y390875D02*Y389750D01*
Y390875D02*X90800Y391250D01*
X91175D01*
X91550Y390875D01*
Y389750D01*
Y390875D02*X91925Y391250D01*
X92300D01*
X92675Y390875D01*
Y389750D01*
X90050Y391250D02*X90425Y390875D01*
X94700Y391250D02*X95075Y390875D01*
X93950Y391250D02*X94700D01*
X93575Y390875D02*X93950Y391250D01*
X93575Y390875D02*Y390125D01*
X93950Y389750D01*
X95075Y391250D02*Y390125D01*
X95450Y389750D01*
X93950D02*X94700D01*
X95075Y390125D01*
X97475Y391250D02*X97850Y390875D01*
X96725Y391250D02*X97475D01*
X96350Y390875D02*X96725Y391250D01*
X96350Y390875D02*Y390125D01*
X96725Y389750D01*
X97475D01*
X97850Y390125D01*
X96350Y389000D02*X96725Y388625D01*
X97475D01*
X97850Y389000D01*
Y391250D02*Y389000D01*
X99125Y389750D02*X100250D01*
X98750Y390125D02*X99125Y389750D01*
X98750Y390875D02*Y390125D01*
Y390875D02*X99125Y391250D01*
X99875D01*
X100250Y390875D01*
X98750Y390500D02*X100250D01*
Y390875D02*Y390500D01*
X101525Y389750D02*X102650D01*
X103025Y390125D01*
X102650Y390500D02*X103025Y390125D01*
X101525Y390500D02*X102650D01*
X101150Y390875D02*X101525Y390500D01*
X101150Y390875D02*X101525Y391250D01*
X102650D01*
X103025Y390875D01*
X101150Y390125D02*X101525Y389750D01*
X105650D02*X106775D01*
X105275Y390125D02*X105650Y389750D01*
X105275Y390875D02*Y390125D01*
Y390875D02*X105650Y391250D01*
X106400D01*
X106775Y390875D01*
X105275Y390500D02*X106775D01*
Y390875D02*Y390500D01*
X108050Y392750D02*Y390125D01*
X108425Y389750D01*
X107675Y391625D02*X108425D01*
X109175Y392750D02*Y389750D01*
Y390875D02*X109550Y391250D01*
X110300D01*
X110675Y390875D01*
Y389750D01*
X111950D02*X113075D01*
X111575Y390125D02*X111950Y389750D01*
X111575Y390875D02*Y390125D01*
Y390875D02*X111950Y391250D01*
X112700D01*
X113075Y390875D01*
X111575Y390500D02*X113075D01*
Y390875D02*Y390500D01*
X114350Y390875D02*Y389750D01*
Y390875D02*X114725Y391250D01*
X115475D01*
X113975D02*X114350Y390875D01*
X116750D02*Y389750D01*
Y390875D02*X117125Y391250D01*
X117500D01*
X117875Y390875D01*
Y389750D01*
X116375Y391250D02*X116750Y390875D01*
X119150Y389750D02*X120275D01*
X118775Y390125D02*X119150Y389750D01*
X118775Y390875D02*Y390125D01*
Y390875D02*X119150Y391250D01*
X119900D01*
X120275Y390875D01*
X118775Y390500D02*X120275D01*
Y390875D02*Y390500D01*
X121550Y392750D02*Y390125D01*
X121925Y389750D01*
X121175Y391625D02*X121925D01*
G54D120*X65000Y372000D02*Y362000D01*
X85000D01*
Y372000D02*Y362000D01*
X65000Y372000D02*X85000D01*
X65000Y362000D02*X75000D01*
Y372000D02*Y362000D01*
G54D123*X107967Y359785D02*X143637D01*
Y321215D01*
X105067D01*
Y356885D01*
X107967Y359785D01*
X106967Y356885D02*G75*G03X106967Y356885I1000J0D01*G01*
G54D120*X78000Y449445D02*X123000D01*
X65244D02*X79024D01*
X135717Y420469D02*Y449445D01*
X120795D01*
X135717Y420508D02*Y377004D01*
X65244Y420469D02*Y449445D01*
Y420508D02*Y377004D01*
X135717D01*
G54D123*X70150Y330255D02*X70936D01*
X70150Y324745D02*X70936D01*
X70150Y323255D02*X70936D01*
X70150Y317745D02*X70936D01*
G54D120*X500Y343828D02*X52500D01*
X500Y295828D02*X52500D01*
X41000Y343828D02*Y295828D01*
X65000Y342500D02*Y332500D01*
X85000D01*
Y342500D02*Y332500D01*
X65000Y342500D02*X85000D01*
X65000Y332500D02*X75000D01*
Y342500D02*Y332500D01*
X48500Y316000D02*X78500D01*
X48500D02*Y296000D01*
X78500D01*
Y316000D02*Y296000D01*
X68500Y316000D02*Y306000D01*
X78500D01*
X64600Y343400D02*X85300D01*
Y361700D02*Y343400D01*
X64600Y361700D02*X85300D01*
X64600D02*Y343400D01*
X153016Y262122D02*X222016D01*
X153016D02*Y216122D01*
X222016D01*
Y262122D02*Y241622D01*
Y236622D02*Y216122D01*
Y241622D02*G75*G03X222016Y236622I0J-2500D01*G01*
X187516Y212122D02*X192516D01*
X202516D02*X207516D01*
X192516Y213722D02*X202516D01*
Y210522D01*
X192516D02*X202516D01*
X192516Y213722D02*Y210522D01*
X113500Y307000D02*X118500D01*
X128500D02*X133500D01*
X118500Y308600D02*X128500D01*
Y305400D01*
X118500D02*X128500D01*
X118500Y308600D02*Y305400D01*
X68516Y279622D02*Y229622D01*
X88516D01*
Y279622D02*Y229622D01*
X68516Y279622D02*X88516D01*
X68516Y269622D02*X78516D01*
Y279622D02*Y269622D01*
X67980Y267000D02*Y222000D01*
X151445Y267000D02*Y222000D01*
X67980Y279756D02*X122508D01*
X67980D02*Y266488D01*
Y209283D02*X122508D01*
X67980Y223378D02*Y209283D01*
X122469Y279756D02*X151445D01*
Y265976D01*
X122469Y209283D02*X151445D01*
Y224205D02*Y209283D01*
G54D123*X285900Y335800D02*Y299600D01*
X156200Y365700D02*X260200D01*
X156200Y269700D02*X260200D01*
X156200Y365700D02*Y269700D01*
X285900Y335800D02*X260200Y365700D01*
X285900Y299600D02*X260200Y269700D01*
G54D121*X155000Y373500D02*X157500D01*
X155000D02*Y351500D01*
Y343500D02*Y335500D01*
Y330500D02*Y320000D01*
Y315000D02*Y303500D01*
X157500D01*
X257500Y373500D02*X260000D01*
Y355500D01*
Y320500D02*Y320000D01*
Y312000D02*Y303500D01*
X257500D02*X260000D01*
G54D120*X150500Y449445D02*X195500D01*
X137744D02*X151524D01*
X208217Y420469D02*Y449445D01*
X193295D01*
X208217Y420508D02*Y377004D01*
X137744Y420469D02*Y449445D01*
Y420508D02*Y377004D01*
X208217D01*
X223000Y449445D02*X268000D01*
X210244D02*X224024D01*
X280717D02*Y420469D01*
X265795Y449445D02*X280717D01*
Y420508D02*Y377004D01*
X210244Y449445D02*Y420469D01*
Y420508D02*Y377004D01*
X280717D01*
G54D124*X96761Y367150D02*Y363150D01*
X98761D01*
X101461Y365150D02*X101961Y364650D01*
X100461Y365150D02*X101461D01*
X99961Y364650D02*X100461Y365150D01*
X99961Y364650D02*Y363650D01*
X100461Y363150D01*
X101961Y365150D02*Y363650D01*
X102461Y363150D01*
X100461D02*X101461D01*
X101961Y363650D01*
X103661Y364650D02*X105661Y367150D01*
X103661Y364650D02*X106161D01*
X105661Y367150D02*Y363150D01*
X106628Y373150D02*X108628D01*
X109128Y372650D01*
Y371650D01*
X108628Y371150D02*X109128Y371650D01*
X107128Y371150D02*X108628D01*
X107128Y373150D02*Y369150D01*
X107928Y371150D02*X109128Y369150D01*
X110828Y370650D02*Y369150D01*
Y370650D02*X111328Y371150D01*
X111828D01*
X112328Y370650D01*
Y369150D01*
X110328Y371150D02*X110828Y370650D01*
X113528Y372350D02*X114328Y373150D01*
Y369150D01*
X113528D02*X115028D01*
X120276Y373650D02*Y369650D01*
X122276D01*
X123476Y371850D02*X124976D01*
X123476Y369650D02*X125476D01*
X123476Y373650D02*Y369650D01*
Y373650D02*X125476D01*
X127176D02*Y369650D01*
X128476Y373650D02*X129176Y372950D01*
Y370350D01*
X128476Y369650D02*X129176Y370350D01*
X126676Y369650D02*X128476D01*
X126676Y373650D02*X128476D01*
X73600Y347282D02*X73100Y347782D01*
Y348782D02*Y347782D01*
Y348782D02*X73600Y349282D01*
X77100Y348782D02*X76600Y349282D01*
X77100Y348782D02*Y347782D01*
X76600Y347282D02*X77100Y347782D01*
X74900Y348782D02*Y347782D01*
X73600Y349282D02*X74400D01*
X75400D02*X76600D01*
X75400D02*X74900Y348782D01*
X74400Y349282D02*X74900Y348782D01*
X77100Y350982D02*Y350482D01*
X73600Y352182D02*X73100Y352682D01*
Y353682D02*Y352682D01*
Y353682D02*X73600Y354182D01*
X77100Y353682D02*X76600Y354182D01*
X77100Y353682D02*Y352682D01*
X76600Y352182D02*X77100Y352682D01*
X74900Y353682D02*Y352682D01*
X73600Y354182D02*X74400D01*
X75400D02*X76600D01*
X75400D02*X74900Y353682D01*
X74400Y354182D02*X74900Y353682D01*
X73100Y355382D02*X77100Y356382D01*
X73100Y357382D01*
X59500Y372500D02*X63500D01*
Y373000D02*Y371000D01*
X63000Y370500D01*
X62000D02*X63000D01*
X61500Y371000D02*X62000Y370500D01*
X61500Y372500D02*Y371000D01*
Y369300D02*X63500D01*
X61500D02*X59500Y368800D01*
X61500Y367800D01*
X59500Y366800D01*
X61500Y366300D01*
X63500D01*
Y365100D02*Y363100D01*
X63000Y362600D01*
X62000D02*X63000D01*
X61500Y363100D02*X62000Y362600D01*
X61500Y364600D02*Y363100D01*
X59500Y364600D02*X63500D01*
X61500Y363800D02*X59500Y362600D01*
X122352Y344500D02*Y341500D01*
Y344500D02*X123052Y345500D01*
X124152D01*
X124852Y344500D01*
Y341500D01*
X122352Y343500D02*X124852D01*
X126052Y345500D02*X127052Y341500D01*
X128052Y345500D01*
X129252D02*X131252D01*
X131752Y345000D01*
Y344000D01*
X131252Y343500D02*X131752Y344000D01*
X129752Y343500D02*X131252D01*
X129752Y345500D02*Y341500D01*
X130552Y343500D02*X131752Y341500D01*
X253900Y294200D02*X255400D01*
X253900D02*X253400Y293700D01*
Y293200D01*
X253900Y292700D01*
X255400D01*
X253900D02*X253400Y292200D01*
Y291700D01*
X253900Y291200D01*
X255400D01*
G54D125*X256300Y290000D02*X256400D01*
G54D124*X253400D02*X254900D01*
X253900Y289000D02*X256900Y286000D01*
X253400Y284800D02*X257400Y282300D01*
Y284800D02*X253400Y282300D01*
Y281100D02*Y279100D01*
X253900Y278600D01*
X255100D01*
X255600Y279100D02*X255100Y278600D01*
X255600Y280600D02*Y279100D01*
X253400Y280600D02*X257400D01*
Y281100D02*Y279100D01*
X256900Y278600D01*
X256100D02*X256900D01*
X255600Y279100D02*X256100Y278600D01*
X255600Y277400D02*Y275900D01*
X253400Y277400D02*Y275400D01*
Y277400D02*X257400D01*
Y275400D01*
X255600Y274200D02*Y272700D01*
X253400Y274200D02*Y272200D01*
Y274200D02*X257400D01*
Y272200D01*
X265500Y338000D02*X267000D01*
X265500D02*X265000Y337500D01*
Y337000D01*
X265500Y336500D01*
X267000D01*
X265500D02*X265000Y336000D01*
Y335500D01*
X265500Y335000D01*
X267000D01*
G54D125*X267900Y333800D02*X268000D01*
G54D124*X265000D02*X266500D01*
X265500Y332800D02*X268500Y329800D01*
X265500Y328600D02*X269000D01*
X265500D02*X265000Y328100D01*
Y327100D01*
X265500Y326600D01*
X269000D01*
X268200Y325400D02*X269000Y324600D01*
X265000D02*X269000D01*
X265000Y325400D02*Y323900D01*
X98000Y405700D02*X99500D01*
X98000Y403500D02*X100000D01*
X98000Y407500D02*Y403500D01*
Y407500D02*X100000D01*
X101200Y405500D02*X103200Y403500D01*
X101200D02*X103200Y405500D01*
X104400Y407000D02*X104900Y407500D01*
X105900D01*
X106400Y407000D01*
X105900Y403500D02*X106400Y404000D01*
X104900Y403500D02*X105900D01*
X104400Y404000D02*X104900Y403500D01*
Y405700D02*X105900D01*
X106400Y407000D02*Y406200D01*
Y405200D02*Y404000D01*
Y405200D02*X105900Y405700D01*
X106400Y406200D02*X105900Y405700D01*
X107600Y404000D02*X110600Y407000D01*
X111800Y407500D02*X113800D01*
X114300Y407000D01*
Y406000D01*
X113800Y405500D02*X114300Y406000D01*
X112300Y405500D02*X113800D01*
X112300Y407500D02*Y403500D01*
X113100Y405500D02*X114300Y403500D01*
X116200Y407500D02*X117000D01*
Y404000D01*
X116500Y403500D02*X117000Y404000D01*
X116000Y403500D02*X116500D01*
X115500Y404000D02*X116000Y403500D01*
X115500Y404500D02*Y404000D01*
X118200Y405000D02*X120200Y407500D01*
X118200Y405000D02*X120700D01*
X120200Y407500D02*Y403500D01*
X121900Y407500D02*X123900D01*
X121900D02*Y405500D01*
X122400Y406000D01*
X123400D01*
X123900Y405500D01*
Y404000D01*
X123400Y403500D02*X123900Y404000D01*
X122400Y403500D02*X123400D01*
X121900Y404000D02*X122400Y403500D01*
X170500Y405700D02*X172000D01*
X170500Y403500D02*X172500D01*
X170500Y407500D02*Y403500D01*
Y407500D02*X172500D01*
X173700Y405500D02*X175700Y403500D01*
X173700D02*X175700Y405500D01*
X176900Y407000D02*X177400Y407500D01*
X178900D01*
X179400Y407000D01*
Y406000D01*
X176900Y403500D02*X179400Y406000D01*
X176900Y403500D02*X179400D01*
X180600Y404000D02*X183600Y407000D01*
X184800Y407500D02*X186800D01*
X187300Y407000D01*
Y406000D01*
X186800Y405500D02*X187300Y406000D01*
X185300Y405500D02*X186800D01*
X185300Y407500D02*Y403500D01*
X186100Y405500D02*X187300Y403500D01*
X189200Y407500D02*X190000D01*
Y404000D01*
X189500Y403500D02*X190000Y404000D01*
X189000Y403500D02*X189500D01*
X188500Y404000D02*X189000Y403500D01*
X188500Y404500D02*Y404000D01*
X191200Y405000D02*X193200Y407500D01*
X191200Y405000D02*X193700D01*
X193200Y407500D02*Y403500D01*
X194900Y407500D02*X196900D01*
X194900D02*Y405500D01*
X195400Y406000D01*
X196400D01*
X196900Y405500D01*
Y404000D01*
X196400Y403500D02*X196900Y404000D01*
X195400Y403500D02*X196400D01*
X194900Y404000D02*X195400Y403500D01*
X239000Y407700D02*X240500D01*
X239000Y405500D02*X241000D01*
X239000Y409500D02*Y405500D01*
Y409500D02*X241000D01*
X242200Y407500D02*X244200Y405500D01*
X242200D02*X244200Y407500D01*
X245400Y408700D02*X246200Y409500D01*
Y405500D01*
X245400D02*X246900D01*
X248100Y406000D02*X251100Y409000D01*
X252300Y409500D02*X254300D01*
X254800Y409000D01*
Y408000D01*
X254300Y407500D02*X254800Y408000D01*
X252800Y407500D02*X254300D01*
X252800Y409500D02*Y405500D01*
X253600Y407500D02*X254800Y405500D01*
X256700Y409500D02*X257500D01*
Y406000D01*
X257000Y405500D02*X257500Y406000D01*
X256500Y405500D02*X257000D01*
X256000Y406000D02*X256500Y405500D01*
X256000Y406500D02*Y406000D01*
X258700Y407000D02*X260700Y409500D01*
X258700Y407000D02*X261200D01*
X260700Y409500D02*Y405500D01*
X262400Y409500D02*X264400D01*
X262400D02*Y407500D01*
X262900Y408000D01*
X263900D01*
X264400Y407500D01*
Y406000D01*
X263900Y405500D02*X264400Y406000D01*
X262900Y405500D02*X263900D01*
X262400Y406000D02*X262900Y405500D01*
X67393Y329650D02*X69393D01*
X69893Y329150D01*
Y328150D01*
X69393Y327650D02*X69893Y328150D01*
X67893Y327650D02*X69393D01*
X67893Y329650D02*Y325650D01*
X68693Y327650D02*X69893Y325650D01*
X71093Y327650D02*Y326150D01*
X71593Y325650D01*
X72593D01*
X73093Y326150D01*
Y327650D02*Y326150D01*
X74293Y328850D02*X75093Y329650D01*
Y325650D01*
X74293D02*X75793D01*
X67393Y322650D02*X69393D01*
X69893Y322150D01*
Y321150D01*
X69393Y320650D02*X69893Y321150D01*
X67893Y320650D02*X69393D01*
X67893Y322650D02*Y318650D01*
X68693Y320650D02*X69893Y318650D01*
X71093Y320650D02*Y319150D01*
X71593Y318650D01*
X72593D01*
X73093Y319150D01*
Y320650D02*Y319150D01*
X74293Y322150D02*X74793Y322650D01*
X76293D01*
X76793Y322150D01*
Y321150D01*
X74293Y318650D02*X76793Y321150D01*
X74293Y318650D02*X76793D01*
X59500Y342000D02*Y340000D01*
X60000Y339500D01*
X61200D01*
X61700Y340000D02*X61200Y339500D01*
X61700Y341500D02*Y340000D01*
X59500Y341500D02*X63500D01*
Y342000D02*Y340000D01*
X63000Y339500D01*
X62200D02*X63000D01*
X61700Y340000D02*X62200Y339500D01*
X59500Y338300D02*X62500D01*
X63500Y337600D01*
Y336500D01*
X62500Y335800D01*
X59500D02*X62500D01*
X61500Y338300D02*Y335800D01*
X63500Y334600D02*Y332600D01*
X59500Y333600D02*X63500D01*
X22000Y319828D02*X25500D01*
X22000D02*X21500Y319328D01*
Y318328D01*
X22000Y317828D01*
X25500D01*
Y314628D02*X25000Y314128D01*
X25500Y316128D02*Y314628D01*
X25000Y316628D02*X25500Y316128D01*
X24000Y316628D02*X25000D01*
X24000D02*X23500Y316128D01*
Y314628D01*
X23000Y314128D01*
X22000D02*X23000D01*
X21500Y314628D02*X22000Y314128D01*
X21500Y316128D02*Y314628D01*
X22000Y316628D02*X21500Y316128D01*
Y312928D02*Y310928D01*
X22000Y310428D01*
X23200D01*
X23700Y310928D02*X23200Y310428D01*
X23700Y312428D02*Y310928D01*
X21500Y312428D02*X25500D01*
Y312928D02*Y310928D01*
X25000Y310428D01*
X24200D02*X25000D01*
X23700Y310928D02*X24200Y310428D01*
X61000Y304500D02*X62000D01*
X61500Y308500D02*Y304500D01*
X61000Y308500D02*X62000D01*
X57800Y304500D02*X57300Y305000D01*
X57800Y304500D02*X59300D01*
X59800Y305000D02*X59300Y304500D01*
X59800Y306000D02*Y305000D01*
Y306000D02*X59300Y306500D01*
X57800D02*X59300D01*
X57800D02*X57300Y307000D01*
Y308000D02*Y307000D01*
X57800Y308500D02*X57300Y308000D01*
X57800Y308500D02*X59300D01*
X59800Y308000D02*X59300Y308500D01*
X55600D02*Y304500D01*
X54100D02*X56100D01*
X54100D02*X53600Y305000D01*
Y306000D02*Y305000D01*
X54100Y306500D02*X53600Y306000D01*
X54100Y306500D02*X55600D01*
X113500Y307600D02*Y304100D01*
X114000Y303600D01*
X115000D01*
X115500Y304100D01*
Y307600D02*Y304100D01*
X117200Y305100D02*Y303600D01*
Y305100D02*X117700Y305600D01*
X118200D01*
X118700Y305100D01*
Y303600D01*
Y305100D02*X119200Y305600D01*
X119700D01*
X120200Y305100D01*
Y303600D01*
X116700Y305600D02*X117200Y305100D01*
X121400Y306800D02*X122200Y307600D01*
Y303600D01*
X121400D02*X122900D01*
X119776Y310650D02*X121776D01*
X122276Y310150D01*
Y309150D01*
X121776Y308650D02*X122276Y309150D01*
X120276Y308650D02*X121776D01*
X120276Y310650D02*Y306650D01*
X121076Y308650D02*X122276Y306650D01*
X123976Y308150D02*Y306650D01*
Y308150D02*X124476Y308650D01*
X124976D01*
X125476Y308150D01*
Y306650D01*
Y308150D02*X125976Y308650D01*
X126476D01*
X126976Y308150D01*
Y306650D01*
X123476Y308650D02*X123976Y308150D01*
X128176Y309850D02*X128976Y310650D01*
Y306650D01*
X128176D02*X129676D01*
X125124Y301150D02*X126424D01*
X124424Y301850D02*X125124Y301150D01*
X124424Y304450D02*Y301850D01*
Y304450D02*X125124Y305150D01*
X126424D01*
X128124Y302650D02*Y301150D01*
Y302650D02*X128624Y303150D01*
X129124D01*
X129624Y302650D01*
Y301150D01*
Y302650D02*X130124Y303150D01*
X130624D01*
X131124Y302650D01*
Y301150D01*
X127624Y303150D02*X128124Y302650D01*
X132324Y304350D02*X133124Y305150D01*
Y301150D01*
X132324D02*X133824D01*
X121224Y304850D02*X122524D01*
X123224Y304150D02*X122524Y304850D01*
X123224Y304150D02*Y301550D01*
X122524Y300850D01*
X121224D02*X122524D01*
X119524Y304850D02*Y303350D01*
X119024Y302850D01*
X118524D02*X119024D01*
X118524D02*X118024Y303350D01*
Y304850D02*Y303350D01*
X117524Y302850D01*
X117024D02*X117524D01*
X117024D02*X116524Y303350D01*
Y304850D02*Y303350D01*
X120024Y302850D02*X119524Y303350D01*
X115324Y301350D02*X114824Y300850D01*
X113324D02*X114824D01*
X113324D02*X112824Y301350D01*
Y302350D02*Y301350D01*
X115324Y304850D02*X112824Y302350D01*
Y304850D02*X115324D01*
X119500Y256000D02*Y254500D01*
X120000Y256500D02*X119500Y256000D01*
X120000Y256500D02*X121000D01*
X121500Y256000D01*
Y255000D01*
X121000Y254500D01*
X120500Y256500D02*Y254500D01*
X121000D01*
X120000Y252800D02*X123500D01*
X120000D02*X119500Y252300D01*
X122000Y253300D02*Y252300D01*
X119500Y251300D02*X123500D01*
X121000D02*X121500Y250800D01*
Y249800D01*
X121000Y249300D01*
X119500D02*X121000D01*
X120000Y248100D02*X119500Y247600D01*
X120000Y248100D02*X123000D01*
X123500Y247600D01*
Y246600D01*
X123000Y246100D01*
X120000D02*X123000D01*
X119500Y246600D02*X120000Y246100D01*
X119500Y247600D02*Y246600D01*
X120500Y248100D02*X122500Y246100D01*
X120000Y244900D02*X123000Y241900D01*
X119500Y240200D02*X123500D01*
Y240700D02*Y238700D01*
X123000Y238200D01*
X122000D02*X123000D01*
X121500Y238700D02*X122000Y238200D01*
X121500Y240200D02*Y238700D01*
X119500Y237000D02*X123500D01*
X119500Y234500D02*X123500D01*
X121500Y237000D02*Y234500D01*
X123500Y233300D02*X121500Y232300D01*
X123500Y231300D01*
X119500Y232300D02*X121500D01*
X89016Y256622D02*Y255122D01*
X89516Y257122D02*X89016Y256622D01*
X89516Y257122D02*X90516D01*
X91016Y256622D01*
Y255622D01*
X90516Y255122D01*
X90016Y257122D02*Y255122D01*
X90516D01*
X89516Y253422D02*X93016D01*
X89516D02*X89016Y252922D01*
X91516Y253922D02*Y252922D01*
X89016Y251922D02*X93016D01*
X90516D02*X91016Y251422D01*
Y250422D01*
X90516Y249922D01*
X89016D02*X90516D01*
X89516Y248722D02*X89016Y248222D01*
X89516Y248722D02*X92516D01*
X93016Y248222D01*
Y247222D01*
X92516Y246722D01*
X89516D02*X92516D01*
X89016Y247222D02*X89516Y246722D01*
X89016Y248222D02*Y247222D01*
X90016Y248722D02*X92016Y246722D01*
X89516Y245522D02*X92516Y242522D01*
X91216Y241322D02*Y239822D01*
X89016Y241322D02*Y239322D01*
Y241322D02*X93016D01*
Y239322D01*
X89016Y238122D02*X93016Y235622D01*
Y238122D02*X89016Y235622D01*
X93016Y234422D02*Y232422D01*
X89016Y233422D02*X93016D01*
X204850Y292850D02*X206350D01*
X206850Y293350D01*
Y293850D02*Y293350D01*
Y293850D02*X206350Y294350D01*
X204850D02*X206350D01*
X206850Y294850D01*
Y295350D02*Y294850D01*
Y295350D02*X206350Y295850D01*
X204850D02*X206350D01*
G54D125*X203850Y297050D02*X203950D01*
G54D124*X205350D02*X206850D01*
X206350Y298050D02*X203350Y301050D01*
X206850Y304250D02*Y302950D01*
X206150Y302250D02*X206850Y302950D01*
X203550Y302250D02*X206150D01*
X203550D02*X202850Y302950D01*
Y304250D02*Y302950D01*
X203650Y305450D02*X202850Y306250D01*
X206850D01*
Y306950D02*Y305450D01*
X193150Y300076D02*X194650D01*
X193150D02*X192650Y299576D01*
Y299076D01*
X193150Y298576D01*
X194650D01*
X193150D02*X192650Y298076D01*
Y297576D01*
X193150Y297076D01*
X194650D01*
G54D125*X195550Y295876D02*X195650D01*
G54D124*X192650D02*X194150D01*
X193150Y294876D02*X196150Y291876D01*
X196650Y290676D02*Y288676D01*
X196150Y288176D01*
X195150D02*X196150D01*
X194650Y288676D02*X195150Y288176D01*
X194650Y290176D02*Y288676D01*
X192650Y290176D02*X196650D01*
X194650Y289376D02*X192650Y288176D01*
X196150Y286976D02*X196650Y286476D01*
Y284976D01*
X196150Y284476D01*
X195150D02*X196150D01*
X192650Y286976D02*X195150Y284476D01*
X192650Y286976D02*Y284476D01*
X198150Y300076D02*X199650D01*
X198150D02*X197650Y299576D01*
Y299076D01*
X198150Y298576D01*
X199650D01*
X198150D02*X197650Y298076D01*
Y297576D01*
X198150Y297076D01*
X199650D01*
G54D125*X200550Y295876D02*X200650D01*
G54D124*X197650D02*X199150D01*
X198150Y294876D02*X201150Y291876D01*
X201650Y290676D02*Y288676D01*
X201150Y288176D01*
X200150D02*X201150D01*
X199650Y288676D02*X200150Y288176D01*
X199650Y290176D02*Y288676D01*
X197650Y290176D02*X201650D01*
X199650Y289376D02*X197650Y288176D01*
X201150Y286976D02*X201650Y286476D01*
Y285476D01*
X201150Y284976D01*
X197650Y285476D02*X198150Y284976D01*
X197650Y286476D02*Y285476D01*
X198150Y286976D02*X197650Y286476D01*
X199850D02*Y285476D01*
X200350Y284976D02*X201150D01*
X198150D02*X199350D01*
X199850Y285476D01*
X200350Y284976D02*X199850Y285476D01*
X193150Y293576D02*X194650D01*
X193150D02*X192650Y293076D01*
Y292576D01*
X193150Y292076D01*
X194650D01*
X193150D02*X192650Y291576D01*
Y291076D01*
X193150Y290576D01*
X194650D01*
G54D125*X195550Y289376D02*X195650D01*
G54D124*X192650D02*X194150D01*
X193150Y288376D02*X196150Y285376D01*
X192650Y284176D02*X196650D01*
X192650D02*Y282176D01*
X194850Y280976D02*Y279476D01*
X192650Y280976D02*Y278976D01*
Y280976D02*X196650D01*
Y278976D01*
X192650Y277276D02*X196650D01*
Y275976D02*X195950Y275276D01*
X193350D02*X195950D01*
X192650Y275976D02*X193350Y275276D01*
X192650Y277776D02*Y275976D01*
X196650Y277776D02*Y275976D01*
X196150Y274076D02*X196650Y273576D01*
Y272076D01*
X196150Y271576D01*
X195150D02*X196150D01*
X192650Y274076D02*X195150Y271576D01*
X192650Y274076D02*Y271576D01*
X198150Y293576D02*X199650D01*
X198150D02*X197650Y293076D01*
Y292576D01*
X198150Y292076D01*
X199650D01*
X198150D02*X197650Y291576D01*
Y291076D01*
X198150Y290576D01*
X199650D01*
G54D125*X200550Y289376D02*X200650D01*
G54D124*X197650D02*X199150D01*
X198150Y288376D02*X201150Y285376D01*
X197650Y284176D02*X201650D01*
X197650D02*Y282176D01*
X199850Y280976D02*Y279476D01*
X197650Y280976D02*Y278976D01*
Y280976D02*X201650D01*
Y278976D01*
X197650Y277276D02*X201650D01*
Y275976D02*X200950Y275276D01*
X198350D02*X200950D01*
X197650Y275976D02*X198350Y275276D01*
X197650Y277776D02*Y275976D01*
X201650Y277776D02*Y275976D01*
X201150Y274076D02*X201650Y273576D01*
Y272576D01*
X201150Y272076D01*
X197650Y272576D02*X198150Y272076D01*
X197650Y273576D02*Y272576D01*
X198150Y274076D02*X197650Y273576D01*
X199850D02*Y272576D01*
X200350Y272076D02*X201150D01*
X198150D02*X199350D01*
X199850Y272576D01*
X200350Y272076D02*X199850Y272576D01*
X172016Y239622D02*X173516D01*
X171516Y240122D02*X172016Y239622D01*
X171516Y241122D02*Y240122D01*
Y241122D02*X172016Y241622D01*
X173016D01*
X173516Y241122D01*
X171516Y240622D02*X173516D01*
Y241122D02*Y240622D01*
X175216Y243622D02*Y240122D01*
X175716Y239622D01*
X174716Y242122D02*X175716D01*
X176716Y243622D02*Y239622D01*
Y241122D02*X177216Y241622D01*
X178216D01*
X178716Y241122D01*
Y239622D01*
X179916Y240122D02*X180416Y239622D01*
X179916Y243122D02*Y240122D01*
Y243122D02*X180416Y243622D01*
X181416D01*
X181916Y243122D01*
Y240122D01*
X181416Y239622D02*X181916Y240122D01*
X180416Y239622D02*X181416D01*
X179916Y240622D02*X181916Y242622D01*
X183116Y240122D02*X186116Y243122D01*
X187316Y241822D02*X188816D01*
X187316Y239622D02*X189316D01*
X187316Y243622D02*Y239622D01*
Y243622D02*X189316D01*
X190516D02*Y239622D01*
Y243622D02*X193016Y239622D01*
Y243622D02*Y239622D01*
X194916D02*X196216D01*
X194216Y240322D02*X194916Y239622D01*
X194216Y242922D02*Y240322D01*
Y242922D02*X194916Y243622D01*
X196216D01*
X197416Y243122D02*X197916Y243622D01*
X199416D01*
X199916Y243122D01*
Y242122D01*
X197416Y239622D02*X199916Y242122D01*
X197416Y239622D02*X199916D01*
X201116Y240122D02*X201616Y239622D01*
X201116Y240922D02*Y240122D01*
Y240922D02*X201816Y241622D01*
X202416D01*
X203116Y240922D01*
Y240122D01*
X202616Y239622D02*X203116Y240122D01*
X201616Y239622D02*X202616D01*
X201116Y242322D02*X201816Y241622D01*
X201116Y243122D02*Y242322D01*
Y243122D02*X201616Y243622D01*
X202616D01*
X203116Y243122D01*
Y242322D01*
X202416Y241622D02*X203116Y242322D01*
X205016Y243622D02*X205816D01*
Y240122D01*
X205316Y239622D02*X205816Y240122D01*
X204816Y239622D02*X205316D01*
X204316Y240122D02*X204816Y239622D01*
X204316Y240622D02*Y240122D01*
X208516Y243622D02*X209016Y243122D01*
X207516Y243622D02*X208516D01*
X207016Y243122D02*X207516Y243622D01*
X207016Y243122D02*Y240122D01*
X207516Y239622D01*
X208516Y241822D02*X209016Y241322D01*
X207016Y241822D02*X208516D01*
X207516Y239622D02*X208516D01*
X209016Y240122D01*
Y241322D02*Y240122D01*
X210216D02*X210716Y239622D01*
X210216Y243122D02*Y240122D01*
Y243122D02*X210716Y243622D01*
X211716D01*
X212216Y243122D01*
Y240122D01*
X211716Y239622D02*X212216Y240122D01*
X210716Y239622D02*X211716D01*
X210216Y240622D02*X212216Y242622D01*
X200500Y337500D02*X202000D01*
X200500D02*X200000Y337000D01*
Y336500D01*
X200500Y336000D01*
X202000D01*
X200500D02*X200000Y335500D01*
Y335000D01*
X200500Y334500D01*
X202000D01*
G54D125*X202900Y333300D02*X203000D01*
G54D124*X200000D02*X201500D01*
X200500Y332300D02*X203500Y329300D01*
X204000Y328100D02*Y326100D01*
X203500Y325600D01*
X202500D02*X203500D01*
X202000Y326100D02*X202500Y325600D01*
X202000Y327600D02*Y326100D01*
X200000Y327600D02*X204000D01*
X202000Y326800D02*X200000Y325600D01*
Y324400D02*X204000D01*
X200000Y321900D01*
X204000D01*
X203200Y320700D02*X204000Y319900D01*
X200000D02*X204000D01*
X200000Y320700D02*Y319200D01*
Y317500D02*X204000Y315500D01*
Y318000D02*Y315500D01*
X203200Y314300D02*X204000Y313500D01*
X200000D02*X204000D01*
X200000Y314300D02*Y312800D01*
X188650Y300076D02*X190150D01*
X188650D02*X188150Y299576D01*
Y299076D01*
X188650Y298576D01*
X190150D01*
X188650D02*X188150Y298076D01*
Y297576D01*
X188650Y297076D01*
X190150D01*
G54D125*X191050Y295876D02*X191150D01*
G54D124*X188150D02*X189650D01*
X188650Y294876D02*X191650Y291876D01*
X192150Y290676D02*Y288676D01*
X191650Y288176D01*
X190650D02*X191650D01*
X190150Y288676D02*X190650Y288176D01*
X190150Y290176D02*Y288676D01*
X188150Y290176D02*X192150D01*
X190150Y289376D02*X188150Y288176D01*
X191350Y286976D02*X192150Y286176D01*
X188150D02*X192150D01*
X188150Y286976D02*Y285476D01*
X188650Y293576D02*X190150D01*
X188650D02*X188150Y293076D01*
Y292576D01*
X188650Y292076D01*
X190150D01*
X188650D02*X188150Y291576D01*
Y291076D01*
X188650Y290576D01*
X190150D01*
G54D125*X191050Y289376D02*X191150D01*
G54D124*X188150D02*X189650D01*
X188650Y288376D02*X191650Y285376D01*
X188150Y284176D02*X192150D01*
X188150D02*Y282176D01*
X190350Y280976D02*Y279476D01*
X188150Y280976D02*Y278976D01*
Y280976D02*X192150D01*
Y278976D01*
X188150Y277276D02*X192150D01*
Y275976D02*X191450Y275276D01*
X188850D02*X191450D01*
X188150Y275976D02*X188850Y275276D01*
X188150Y277776D02*Y275976D01*
X192150Y277776D02*Y275976D01*
X191350Y274076D02*X192150Y273276D01*
X188150D02*X192150D01*
X188150Y274076D02*Y272576D01*
X154516Y210222D02*X156016D01*
X154016Y210722D02*X154516Y210222D01*
X154016Y211722D02*Y210722D01*
Y211722D02*X154516Y212222D01*
X155516D01*
X156016Y211722D01*
X154016Y211222D02*X156016D01*
Y211722D02*Y211222D01*
X157716Y214222D02*Y210722D01*
X158216Y210222D01*
X157216Y212722D02*X158216D01*
X159216Y214222D02*Y210222D01*
Y211722D02*X159716Y212222D01*
X160716D01*
X161216Y211722D01*
Y210222D01*
X162416Y210722D02*X162916Y210222D01*
X162416Y213722D02*Y210722D01*
Y213722D02*X162916Y214222D01*
X163916D01*
X164416Y213722D01*
Y210722D01*
X163916Y210222D02*X164416Y210722D01*
X162916Y210222D02*X163916D01*
X162416Y211222D02*X164416Y213222D01*
X165616Y210722D02*X168616Y213722D01*
X169816Y210222D02*X172316Y214222D01*
X169816D02*X172316Y210222D01*
X173516Y214222D02*X175516D01*
X174516D02*Y210222D01*
X176716Y213222D02*Y210222D01*
Y213222D02*X177416Y214222D01*
X178516D01*
X179216Y213222D01*
Y210222D01*
X176716Y212222D02*X179216D01*
X180416Y214222D02*Y210222D01*
X182416D01*
M02*
