G04 start of page 9 for group -4078 idx -4078 *
G04 Title: (unknown), bottomsilk *
G04 Creator: pcb 1.99z *
G04 CreationDate: Sat 15 Nov 2014 07:16:51 AM GMT UTC *
G04 For: commonadmin *
G04 Format: Gerber/RS-274X *
G04 PCB-Dimensions (mil): 4500.00 4500.00 *
G04 PCB-Coordinate-Origin: lower left *
%MOIN*%
%FSLAX25Y25*%
%LNBOTTOMSILK*%
%ADD128C,0.0050*%
%ADD127C,0.0040*%
%ADD126C,0.0100*%
%ADD125C,0.0200*%
%ADD124C,0.0060*%
G54D124*X250843Y418108D02*X251643Y418908D01*
X250843Y418108D02*Y414608D01*
X251543Y413908D02*X250843Y414608D01*
X254843Y414708D02*X254143Y414008D01*
X254843Y418208D02*Y414708D01*
X254143Y418908D02*X254843Y418208D01*
G54D125*X259500Y433400D02*X266500D01*
G54D126*X259500D02*X258500Y435900D01*
Y449000D02*Y435900D01*
Y449000D02*X267500D01*
Y435900D01*
X266500Y433400D01*
G54D124*X273843Y405108D02*X274643Y405908D01*
X273843Y405108D02*Y401608D01*
X274543Y400908D02*X273843Y401608D01*
X277843Y401708D02*X277143Y401008D01*
X277843Y405208D02*Y401708D01*
X277143Y405908D02*X277843Y405208D01*
X263300Y403100D02*X264100Y403900D01*
X263300Y403100D02*Y399600D01*
X264000Y398900D02*X263300Y399600D01*
X267300Y399700D02*X266600Y399000D01*
X267300Y403200D02*Y399700D01*
X266600Y403900D02*X267300Y403200D01*
X245643Y418158D02*X246443Y418958D01*
X245643Y418158D02*Y414658D01*
X246343Y413958D02*X245643Y414658D01*
X249643Y414758D02*X248943Y414058D01*
X249643Y418258D02*Y414758D01*
X248943Y418958D02*X249643Y418258D01*
X240843Y418608D02*X241643Y419408D01*
X240843Y418608D02*Y415108D01*
X241543Y414408D02*X240843Y415108D01*
X244843Y415208D02*X244143Y414508D01*
X244843Y418708D02*Y415208D01*
X244143Y419408D02*X244843Y418708D01*
X233300Y418600D02*X234100Y419400D01*
X233300Y418600D02*Y415100D01*
X234000Y414400D02*X233300Y415100D01*
X237300Y415200D02*X236600Y414500D01*
X237300Y418700D02*Y415200D01*
X236600Y419400D02*X237300Y418700D01*
X222800Y404100D02*X223600Y404900D01*
X222800Y404100D02*Y400600D01*
X223500Y399900D02*X222800Y400600D01*
X226800Y400700D02*X226100Y400000D01*
X226800Y404200D02*Y400700D01*
X226100Y404900D02*X226800Y404200D01*
G54D125*X214000Y386400D02*X221000D01*
G54D126*X214000D02*X213000Y388900D01*
Y402000D02*Y388900D01*
Y402000D02*X222000D01*
Y388900D01*
X221000Y386400D01*
G54D125*X268000Y379900D02*X275000D01*
G54D126*X268000D02*X267000Y382400D01*
Y395500D02*Y382400D01*
Y395500D02*X276000D01*
Y382400D01*
X275000Y379900D01*
G54D124*X110300Y402100D02*X111100Y402900D01*
X110300Y402100D02*Y398600D01*
X111000Y397900D02*X110300Y398600D01*
X114300Y398700D02*X113600Y398000D01*
X114300Y402200D02*Y398700D01*
X113600Y402900D02*X114300Y402200D01*
X99300Y409600D02*X100100Y410400D01*
X99300Y409600D02*Y406100D01*
X100000Y405400D02*X99300Y406100D01*
X103300Y406200D02*X102600Y405500D01*
X103300Y409700D02*Y406200D01*
X102600Y410400D02*X103300Y409700D01*
X89800Y409600D02*X90600Y410400D01*
X89800Y409600D02*Y406100D01*
X90500Y405400D02*X89800Y406100D01*
X93800Y406200D02*X93100Y405500D01*
X93800Y409700D02*Y406200D01*
X93100Y410400D02*X93800Y409700D01*
G54D125*X111000Y430500D02*X118000D01*
G54D126*X111000D02*X110000Y433000D01*
Y446100D02*Y433000D01*
Y446100D02*X119000D01*
Y433000D01*
X118000Y430500D01*
G54D124*X182300Y402100D02*X183100Y402900D01*
X182300Y402100D02*Y398600D01*
X183000Y397900D02*X182300Y398600D01*
X186300Y398700D02*X185600Y398000D01*
X186300Y402200D02*Y398700D01*
X185600Y402900D02*X186300Y402200D01*
X171300Y409600D02*X172100Y410400D01*
X171300Y409600D02*Y406100D01*
X172000Y405400D02*X171300Y406100D01*
X175300Y406200D02*X174600Y405500D01*
X175300Y409700D02*Y406200D01*
X174600Y410400D02*X175300Y409700D01*
X161800Y409600D02*X162600Y410400D01*
X161800Y409600D02*Y406100D01*
X162500Y405400D02*X161800Y406100D01*
X165800Y406200D02*X165100Y405500D01*
X165800Y409700D02*Y406200D01*
X165100Y410400D02*X165800Y409700D01*
G54D125*X183000Y430500D02*X190000D01*
G54D126*X183000D02*X182000Y433000D01*
Y446100D02*Y433000D01*
Y446100D02*X191000D01*
Y433000D01*
X190000Y430500D01*
G54D127*X128650Y442091D02*Y443591D01*
X130850Y441591D02*Y443591D01*
X126850D02*X130850D01*
X126850Y441591D02*Y443591D01*
X128850Y440391D02*X130850Y438391D01*
Y440391D02*X128850Y438391D01*
X127350Y437191D02*X126850Y436691D01*
Y435691D02*Y436691D01*
Y435691D02*X127350Y435191D01*
X130850Y435691D02*X130350Y435191D01*
X130850Y435691D02*Y436691D01*
X130350Y437191D02*X130850Y436691D01*
X128650Y435691D02*Y436691D01*
X127350Y435191D02*X128150D01*
X129150D02*X130350D01*
X129150D02*X128650Y435691D01*
X128150Y435191D02*X128650Y435691D01*
X130350Y433991D02*X127350Y430991D01*
X126850Y429791D02*X130850D01*
Y427791D02*Y429791D01*
X127650Y426591D02*X126850Y425791D01*
X130850D01*
Y425091D02*Y426591D01*
X122650Y442091D02*Y443591D01*
X124850Y441591D02*Y443591D01*
X120850D02*X124850D01*
X120850Y441591D02*Y443591D01*
X122850Y440391D02*X124850Y438391D01*
Y440391D02*X122850Y438391D01*
X121350Y437191D02*X120850Y436691D01*
Y435691D02*Y436691D01*
Y435691D02*X121350Y435191D01*
X124850Y435691D02*X124350Y435191D01*
X124850Y435691D02*Y436691D01*
X124350Y437191D02*X124850Y436691D01*
X122650Y435691D02*Y436691D01*
X121350Y435191D02*X122150D01*
X123150D02*X124350D01*
X123150D02*X122650Y435691D01*
X122150Y435191D02*X122650Y435691D01*
X124350Y433991D02*X121350Y430991D01*
X124850Y427791D02*Y429091D01*
X124150Y429791D02*X124850Y429091D01*
X121550Y429791D02*X124150D01*
X121550D02*X120850Y429091D01*
Y427791D02*Y429091D01*
X121350Y426591D02*X120850Y426091D01*
Y425091D02*Y426091D01*
Y425091D02*X121350Y424591D01*
X124850Y425091D02*X124350Y424591D01*
X124850Y425091D02*Y426091D01*
X124350Y426591D02*X124850Y426091D01*
X122650Y425091D02*Y426091D01*
X121350Y424591D02*X122150D01*
X123150D02*X124350D01*
X123150D02*X122650Y425091D01*
X122150Y424591D02*X122650Y425091D01*
X101650Y401576D02*Y403076D01*
X103850Y401076D02*Y403076D01*
X99850D02*X103850D01*
X99850Y401076D02*Y403076D01*
X101850Y399876D02*X103850Y397876D01*
Y399876D02*X101850Y397876D01*
X100350Y396676D02*X99850Y396176D01*
Y395176D02*Y396176D01*
Y395176D02*X100350Y394676D01*
X103850Y395176D02*X103350Y394676D01*
X103850Y395176D02*Y396176D01*
X103350Y396676D02*X103850Y396176D01*
X101650Y395176D02*Y396176D01*
X100350Y394676D02*X101150D01*
X102150D02*X103350D01*
X102150D02*X101650Y395176D01*
X101150Y394676D02*X101650Y395176D01*
X103350Y393476D02*X100350Y390476D01*
X99850Y387276D02*Y389276D01*
Y387276D02*X100350Y386776D01*
X101350D01*
X101850Y387276D02*X101350Y386776D01*
X101850Y387276D02*Y388776D01*
X99850D02*X103850D01*
X101850Y387976D02*X103850Y386776D01*
X100650Y385576D02*X99850Y384776D01*
X103850D01*
Y384076D02*Y385576D01*
X106850Y396776D02*Y398276D01*
X104650Y396776D02*Y398776D01*
Y396776D02*X108650D01*
Y398776D01*
X106650Y399976D02*X104650Y401976D01*
Y399976D02*X106650Y401976D01*
X108150Y403176D02*X108650Y403676D01*
Y404676D01*
X108150Y405176D01*
X104650Y404676D02*X105150Y405176D01*
X104650Y403676D02*Y404676D01*
X105150Y403176D02*X104650Y403676D01*
X106850D02*Y404676D01*
X107350Y405176D02*X108150D01*
X105150D02*X106350D01*
X106850Y404676D01*
X107350Y405176D02*X106850Y404676D01*
X105150Y406376D02*X108150Y409376D01*
X104650Y411276D02*Y412576D01*
X105350Y410576D02*X104650Y411276D01*
X105350Y410576D02*X107950D01*
X108650Y411276D01*
Y412576D01*
X107850Y413776D02*X108650Y414576D01*
X104650D02*X108650D01*
X104650Y413776D02*Y415276D01*
X96650Y401724D02*Y403224D01*
X98850Y401224D02*Y403224D01*
X94850D02*X98850D01*
X94850Y401224D02*Y403224D01*
X96850Y400024D02*X98850Y398024D01*
Y400024D02*X96850Y398024D01*
X95350Y396824D02*X94850Y396324D01*
Y395324D02*Y396324D01*
Y395324D02*X95350Y394824D01*
X98850Y395324D02*X98350Y394824D01*
X98850Y395324D02*Y396324D01*
X98350Y396824D02*X98850Y396324D01*
X96650Y395324D02*Y396324D01*
X95350Y394824D02*X96150D01*
X97150D02*X98350D01*
X97150D02*X96650Y395324D01*
X96150Y394824D02*X96650Y395324D01*
X98350Y393624D02*X95350Y390624D01*
X94850Y387424D02*Y389424D01*
Y387424D02*X95350Y386924D01*
X96350D01*
X96850Y387424D02*X96350Y386924D01*
X96850Y387424D02*Y388924D01*
X94850D02*X98850D01*
X96850Y388124D02*X98850Y386924D01*
X95350Y385724D02*X94850Y385224D01*
Y383724D02*Y385224D01*
Y383724D02*X95350Y383224D01*
X96350D01*
X98850Y385724D02*X96350Y383224D01*
X98850D02*Y385724D01*
X92850Y396924D02*Y398424D01*
X90650Y396924D02*Y398924D01*
Y396924D02*X94650D01*
Y398924D01*
X92650Y400124D02*X90650Y402124D01*
Y400124D02*X92650Y402124D01*
X94150Y403324D02*X94650Y403824D01*
Y404824D01*
X94150Y405324D01*
X90650Y404824D02*X91150Y405324D01*
X90650Y403824D02*Y404824D01*
X91150Y403324D02*X90650Y403824D01*
X92850D02*Y404824D01*
X93350Y405324D02*X94150D01*
X91150D02*X92350D01*
X92850Y404824D01*
X93350Y405324D02*X92850Y404824D01*
X91150Y406524D02*X94150Y409524D01*
X90650Y411424D02*Y412724D01*
X91350Y410724D02*X90650Y411424D01*
X91350Y410724D02*X93950D01*
X94650Y411424D01*
Y412724D01*
X94150Y413924D02*X94650Y414424D01*
Y415924D01*
X94150Y416424D01*
X93150D02*X94150D01*
X90650Y413924D02*X93150Y416424D01*
X90650Y413924D02*Y416424D01*
X113000Y445300D02*X114500D01*
X112500Y443100D02*X114500D01*
Y447100D01*
X112500D02*X114500D01*
X111300Y445100D02*X109300Y443100D01*
X111300D02*X109300Y445100D01*
X108100Y446600D02*X107600Y447100D01*
X106600D02*X107600D01*
X106600D02*X106100Y446600D01*
X106600Y443100D02*X106100Y443600D01*
X106600Y443100D02*X107600D01*
X108100Y443600D02*X107600Y443100D01*
X106600Y445300D02*X107600D01*
X106100Y445800D02*Y446600D01*
Y443600D02*Y444800D01*
X106600Y445300D01*
X106100Y445800D02*X106600Y445300D01*
X104900Y443600D02*X101900Y446600D01*
X98200Y447100D02*X100700D01*
Y443100D02*X98200Y447100D01*
Y443100D02*X100700D01*
X97000Y446300D02*X96200Y447100D01*
Y443100D02*Y447100D01*
X95500Y443100D02*X97000D01*
X230650Y429224D02*Y430724D01*
X232850Y428724D02*Y430724D01*
X228850D02*X232850D01*
X228850Y428724D02*Y430724D01*
X230850Y427524D02*X232850Y425524D01*
Y427524D02*X230850Y425524D01*
X229650Y424324D02*X228850Y423524D01*
X232850D01*
Y422824D02*Y424324D01*
X232350Y421624D02*X229350Y418624D01*
X228850Y415424D02*Y417424D01*
Y415424D02*X229350Y414924D01*
X230350D01*
X230850Y415424D02*X230350Y414924D01*
X230850Y415424D02*Y416924D01*
X228850D02*X232850D01*
X230850Y416124D02*X232850Y414924D01*
X228850Y411724D02*Y413724D01*
X230850D01*
X230350Y413224D01*
Y412224D02*Y413224D01*
Y412224D02*X230850Y411724D01*
X232350D01*
X232850Y412224D02*X232350Y411724D01*
X232850Y412224D02*Y413224D01*
X232350Y413724D02*X232850Y413224D01*
X230650Y435724D02*Y437224D01*
X232850Y435224D02*Y437224D01*
X228850D02*X232850D01*
X228850Y435224D02*Y437224D01*
X230850Y434024D02*X232850Y432024D01*
Y434024D02*X230850Y432024D01*
X229650Y430824D02*X228850Y430024D01*
X232850D01*
Y429324D02*Y430824D01*
X232350Y428124D02*X229350Y425124D01*
X232850Y421924D02*Y423224D01*
X232150Y423924D02*X232850Y423224D01*
X229550Y423924D02*X232150D01*
X229550D02*X228850Y423224D01*
Y421924D02*Y423224D01*
Y418724D02*Y420724D01*
X230850D01*
X230350Y420224D01*
Y419224D02*Y420224D01*
Y419224D02*X230850Y418724D01*
X232350D01*
X232850Y419224D02*X232350Y418724D01*
X232850Y419224D02*Y420224D01*
X232350Y420724D02*X232850Y420224D01*
X214076Y382850D02*X215576D01*
X213576Y380650D02*X215576D01*
Y384650D01*
X213576D02*X215576D01*
X212376Y382650D02*X210376Y380650D01*
X212376D02*X210376Y382650D01*
X209176Y383850D02*X208376Y384650D01*
Y380650D02*Y384650D01*
X207676Y380650D02*X209176D01*
X206476Y381150D02*X203476Y384150D01*
X200276Y384650D02*X202276D01*
X200276D02*X199776Y384150D01*
Y383150D02*Y384150D01*
X200276Y382650D02*X199776Y383150D01*
X200276Y382650D02*X201776D01*
Y380650D02*Y384650D01*
X200976Y382650D02*X199776Y380650D01*
X197076Y384650D02*X196576Y384150D01*
X197076Y384650D02*X198076D01*
X198576Y384150D02*X198076Y384650D01*
X198576Y381150D02*Y384150D01*
Y381150D02*X198076Y380650D01*
X197076Y382850D02*X196576Y382350D01*
X197076Y382850D02*X198576D01*
X197076Y380650D02*X198076D01*
X197076D02*X196576Y381150D01*
Y382350D01*
X221000Y407200D02*X222500D01*
X220500Y405000D02*X222500D01*
Y409000D01*
X220500D02*X222500D01*
X219300Y407000D02*X217300Y405000D01*
X219300D02*X217300Y407000D01*
X216100Y408200D02*X215300Y409000D01*
Y405000D02*Y409000D01*
X214600Y405000D02*X216100D01*
X213400Y405500D02*X210400Y408500D01*
X206700Y409000D02*X209200D01*
Y405000D02*X206700Y409000D01*
Y405000D02*X209200D01*
X205500Y408500D02*X205000Y409000D01*
X204000D02*X205000D01*
X204000D02*X203500Y408500D01*
X204000Y405000D02*X203500Y405500D01*
X204000Y405000D02*X205000D01*
X205500Y405500D02*X205000Y405000D01*
X204000Y407200D02*X205000D01*
X203500Y407700D02*Y408500D01*
Y405500D02*Y406700D01*
X204000Y407200D01*
X203500Y407700D02*X204000Y407200D01*
X200650Y442091D02*Y443591D01*
X202850Y441591D02*Y443591D01*
X198850D02*X202850D01*
X198850Y441591D02*Y443591D01*
X200850Y440391D02*X202850Y438391D01*
Y440391D02*X200850Y438391D01*
X199350Y437191D02*X198850Y436691D01*
Y435191D02*Y436691D01*
Y435191D02*X199350Y434691D01*
X200350D01*
X202850Y437191D02*X200350Y434691D01*
X202850D02*Y437191D01*
X202350Y433491D02*X199350Y430491D01*
X198850Y429291D02*X202850D01*
Y427291D02*Y429291D01*
X199650Y426091D02*X198850Y425291D01*
X202850D01*
Y424591D02*Y426091D01*
X194650Y442091D02*Y443591D01*
X196850Y441591D02*Y443591D01*
X192850D02*X196850D01*
X192850Y441591D02*Y443591D01*
X194850Y440391D02*X196850Y438391D01*
Y440391D02*X194850Y438391D01*
X193350Y437191D02*X192850Y436691D01*
Y435191D02*Y436691D01*
Y435191D02*X193350Y434691D01*
X194350D01*
X196850Y437191D02*X194350Y434691D01*
X196850D02*Y437191D01*
X196350Y433491D02*X193350Y430491D01*
X196850Y427291D02*Y428591D01*
X196150Y429291D02*X196850Y428591D01*
X193550Y429291D02*X196150D01*
X193550D02*X192850Y428591D01*
Y427291D02*Y428591D01*
X193350Y426091D02*X192850Y425591D01*
Y424591D02*Y425591D01*
Y424591D02*X193350Y424091D01*
X196850Y424591D02*X196350Y424091D01*
X196850Y424591D02*Y425591D01*
X196350Y426091D02*X196850Y425591D01*
X194650Y424591D02*Y425591D01*
X193350Y424091D02*X194150D01*
X195150D02*X196350D01*
X195150D02*X194650Y424591D01*
X194150Y424091D02*X194650Y424591D01*
X263150Y381724D02*Y383224D01*
X265350Y381224D02*Y383224D01*
X261350D02*X265350D01*
X261350Y381224D02*Y383224D01*
X263350Y380024D02*X265350Y378024D01*
Y380024D02*X263350Y378024D01*
X262150Y376824D02*X261350Y376024D01*
X265350D01*
Y375324D02*Y376824D01*
X264850Y374124D02*X261850Y371124D01*
X261350Y367924D02*Y369924D01*
Y367924D02*X261850Y367424D01*
X262850D01*
X263350Y367924D02*X262850Y367424D01*
X263350Y367924D02*Y369424D01*
X261350D02*X265350D01*
X263350Y368624D02*X265350Y367424D01*
X262150Y366224D02*X261350Y365424D01*
X265350D01*
Y364724D02*Y366224D01*
X254650Y444609D02*Y446109D01*
X256850Y444109D02*Y446109D01*
X252850D02*X256850D01*
X252850Y444109D02*Y446109D01*
X254850Y442909D02*X256850Y440909D01*
Y442909D02*X254850Y440909D01*
X253650Y439709D02*X252850Y438909D01*
X256850D01*
Y438209D02*Y439709D01*
X256350Y437009D02*X253350Y434009D01*
X252850Y432809D02*X256850D01*
Y430809D02*Y432809D01*
X253650Y429609D02*X252850Y428809D01*
X256850D01*
Y428109D02*Y429609D01*
X248650Y444609D02*Y446109D01*
X250850Y444109D02*Y446109D01*
X246850D02*X250850D01*
X246850Y444109D02*Y446109D01*
X248850Y442909D02*X250850Y440909D01*
Y442909D02*X248850Y440909D01*
X247650Y439709D02*X246850Y438909D01*
X250850D01*
Y438209D02*Y439709D01*
X250350Y437009D02*X247350Y434009D01*
X250850Y430809D02*Y432109D01*
X250150Y432809D02*X250850Y432109D01*
X247550Y432809D02*X250150D01*
X247550D02*X246850Y432109D01*
Y430809D02*Y432109D01*
X247650Y429609D02*X246850Y428809D01*
X250850D01*
Y428109D02*Y429609D01*
X255150Y429224D02*Y430724D01*
X257350Y428724D02*Y430724D01*
X253350D02*X257350D01*
X253350Y428724D02*Y430724D01*
X255350Y427524D02*X257350Y425524D01*
Y427524D02*X255350Y425524D01*
X254150Y424324D02*X253350Y423524D01*
X257350D01*
Y422824D02*Y424324D01*
X256850Y421624D02*X253850Y418624D01*
X253350Y415424D02*Y417424D01*
Y415424D02*X253850Y414924D01*
X254850D01*
X255350Y415424D02*X254850Y414924D01*
X255350Y415424D02*Y416924D01*
X253350D02*X257350D01*
X255350Y416124D02*X257350Y414924D01*
X253850Y413724D02*X253350Y413224D01*
Y411724D02*Y413224D01*
Y411724D02*X253850Y411224D01*
X254850D01*
X257350Y413724D02*X254850Y411224D01*
X257350D02*Y413724D01*
X272500Y408200D02*X274000D01*
X272000Y406000D02*X274000D01*
Y410000D01*
X272000D02*X274000D01*
X270800Y408000D02*X268800Y406000D01*
X270800D02*X268800Y408000D01*
X267600Y409200D02*X266800Y410000D01*
Y406000D02*Y410000D01*
X266100Y406000D02*X267600D01*
X264900Y406500D02*X261900Y409500D01*
X258200Y410000D02*X260700D01*
Y406000D02*X258200Y410000D01*
Y406000D02*X260700D01*
X257000Y409500D02*X256500Y410000D01*
X255000D02*X256500D01*
X255000D02*X254500Y409500D01*
Y408500D02*Y409500D01*
X257000Y406000D02*X254500Y408500D01*
Y406000D02*X257000D01*
X255150Y436224D02*Y437724D01*
X257350Y435724D02*Y437724D01*
X253350D02*X257350D01*
X253350Y435724D02*Y437724D01*
X255350Y434524D02*X257350Y432524D01*
Y434524D02*X255350Y432524D01*
X254150Y431324D02*X253350Y430524D01*
X257350D01*
Y429824D02*Y431324D01*
X256850Y428624D02*X253850Y425624D01*
X257350Y422424D02*Y423724D01*
X256650Y424424D02*X257350Y423724D01*
X254050Y424424D02*X256650D01*
X254050D02*X253350Y423724D01*
Y422424D02*Y423724D01*
X253850Y421224D02*X253350Y420724D01*
Y419224D02*Y420724D01*
Y419224D02*X253850Y418724D01*
X254850D01*
X257350Y421224D02*X254850Y418724D01*
X257350D02*Y421224D01*
X246650Y429224D02*Y430724D01*
X248850Y428724D02*Y430724D01*
X244850D02*X248850D01*
X244850Y428724D02*Y430724D01*
X246850Y427524D02*X248850Y425524D01*
Y427524D02*X246850Y425524D01*
X245650Y424324D02*X244850Y423524D01*
X248850D01*
Y422824D02*Y424324D01*
X248350Y421624D02*X245350Y418624D01*
X244850Y415424D02*Y417424D01*
Y415424D02*X245350Y414924D01*
X246350D01*
X246850Y415424D02*X246350Y414924D01*
X246850Y415424D02*Y416924D01*
X244850D02*X248850D01*
X246850Y416124D02*X248850Y414924D01*
X245350Y413724D02*X244850Y413224D01*
Y412224D02*Y413224D01*
Y412224D02*X245350Y411724D01*
X248850Y412224D02*X248350Y411724D01*
X248850Y412224D02*Y413224D01*
X248350Y413724D02*X248850Y413224D01*
X246650Y412224D02*Y413224D01*
X245350Y411724D02*X246150D01*
X247150D02*X248350D01*
X247150D02*X246650Y412224D01*
X246150Y411724D02*X246650Y412224D01*
X243300Y444500D02*Y446000D01*
X245500Y444000D02*Y446000D01*
X241500D02*X245500D01*
X241500Y444000D02*Y446000D01*
X243500Y442800D02*X245500Y440800D01*
Y442800D02*X243500Y440800D01*
X242300Y439600D02*X241500Y438800D01*
X245500D01*
Y438100D02*Y439600D01*
X245000Y436900D02*X242000Y433900D01*
X241500Y430200D02*Y432700D01*
X245500D02*X241500Y430200D01*
X245500D02*Y432700D01*
X242300Y429000D02*X241500Y428200D01*
X245500D01*
Y427500D02*Y429000D01*
X246650Y435872D02*Y437372D01*
X248850Y435372D02*Y437372D01*
X244850D02*X248850D01*
X244850Y435372D02*Y437372D01*
X246850Y434172D02*X248850Y432172D01*
Y434172D02*X246850Y432172D01*
X245650Y430972D02*X244850Y430172D01*
X248850D01*
Y429472D02*Y430972D01*
X248350Y428272D02*X245350Y425272D01*
X248850Y422072D02*Y423372D01*
X248150Y424072D02*X248850Y423372D01*
X245550Y424072D02*X248150D01*
X245550D02*X244850Y423372D01*
Y422072D02*Y423372D01*
X245350Y420872D02*X244850Y420372D01*
Y419372D02*Y420372D01*
Y419372D02*X245350Y418872D01*
X248850Y419372D02*X248350Y418872D01*
X248850Y419372D02*Y420372D01*
X248350Y420872D02*X248850Y420372D01*
X246650Y419372D02*Y420372D01*
X245350Y418872D02*X246150D01*
X247150D02*X248350D01*
X247150D02*X246650Y419372D01*
X246150Y418872D02*X246650Y419372D01*
X240150Y429224D02*Y430724D01*
X242350Y428724D02*Y430724D01*
X238350D02*X242350D01*
X238350Y428724D02*Y430724D01*
X240350Y427524D02*X242350Y425524D01*
Y427524D02*X240350Y425524D01*
X239150Y424324D02*X238350Y423524D01*
X242350D01*
Y422824D02*Y424324D01*
X241850Y421624D02*X238850Y418624D01*
X238350Y415424D02*Y417424D01*
Y415424D02*X238850Y414924D01*
X239850D01*
X240350Y415424D02*X239850Y414924D01*
X240350Y415424D02*Y416924D01*
X238350D02*X242350D01*
X240350Y416124D02*X242350Y414924D01*
X240850Y413724D02*X238350Y411724D01*
X240850Y411224D02*Y413724D01*
X238350Y411724D02*X242350D01*
X240150Y435872D02*Y437372D01*
X242350Y435372D02*Y437372D01*
X238350D02*X242350D01*
X238350Y435372D02*Y437372D01*
X240350Y434172D02*X242350Y432172D01*
Y434172D02*X240350Y432172D01*
X239150Y430972D02*X238350Y430172D01*
X242350D01*
Y429472D02*Y430972D01*
X241850Y428272D02*X238850Y425272D01*
X242350Y422072D02*Y423372D01*
X241650Y424072D02*X242350Y423372D01*
X239050Y424072D02*X241650D01*
X239050D02*X238350Y423372D01*
Y422072D02*Y423372D01*
X240850Y420872D02*X238350Y418872D01*
X240850Y418372D02*Y420872D01*
X238350Y418872D02*X242350D01*
X168650Y401724D02*Y403224D01*
X170850Y401224D02*Y403224D01*
X166850D02*X170850D01*
X166850Y401224D02*Y403224D01*
X168850Y400024D02*X170850Y398024D01*
Y400024D02*X168850Y398024D01*
X167350Y396824D02*X166850Y396324D01*
Y394824D02*Y396324D01*
Y394824D02*X167350Y394324D01*
X168350D01*
X170850Y396824D02*X168350Y394324D01*
X170850D02*Y396824D01*
X170350Y393124D02*X167350Y390124D01*
X166850Y386924D02*Y388924D01*
Y386924D02*X167350Y386424D01*
X168350D01*
X168850Y386924D02*X168350Y386424D01*
X168850Y386924D02*Y388424D01*
X166850D02*X170850D01*
X168850Y387624D02*X170850Y386424D01*
X167350Y385224D02*X166850Y384724D01*
Y383224D02*Y384724D01*
Y383224D02*X167350Y382724D01*
X168350D01*
X170850Y385224D02*X168350Y382724D01*
X170850D02*Y385224D01*
X164850Y396924D02*Y398424D01*
X162650Y396924D02*Y398924D01*
Y396924D02*X166650D01*
Y398924D01*
X164650Y400124D02*X162650Y402124D01*
Y400124D02*X164650Y402124D01*
X166150Y403324D02*X166650Y403824D01*
Y405324D01*
X166150Y405824D01*
X165150D02*X166150D01*
X162650Y403324D02*X165150Y405824D01*
X162650Y403324D02*Y405824D01*
X163150Y407024D02*X166150Y410024D01*
X162650Y411924D02*Y413224D01*
X163350Y411224D02*X162650Y411924D01*
X163350Y411224D02*X165950D01*
X166650Y411924D01*
Y413224D01*
X166150Y414424D02*X166650Y414924D01*
Y416424D01*
X166150Y416924D01*
X165150D02*X166150D01*
X162650Y414424D02*X165150Y416924D01*
X162650Y414424D02*Y416924D01*
X185000Y445300D02*X186500D01*
X184500Y443100D02*X186500D01*
Y447100D01*
X184500D02*X186500D01*
X183300Y445100D02*X181300Y443100D01*
X183300D02*X181300Y445100D01*
X180100Y446600D02*X179600Y447100D01*
X178100D02*X179600D01*
X178100D02*X177600Y446600D01*
Y445600D02*Y446600D01*
X180100Y443100D02*X177600Y445600D01*
Y443100D02*X180100D01*
X176400Y443600D02*X173400Y446600D01*
X169700Y447100D02*X172200D01*
Y443100D02*X169700Y447100D01*
Y443100D02*X172200D01*
X168500Y446300D02*X167700Y447100D01*
Y443100D02*Y447100D01*
X167000Y443100D02*X168500D01*
X173650Y401576D02*Y403076D01*
X175850Y401076D02*Y403076D01*
X171850D02*X175850D01*
X171850Y401076D02*Y403076D01*
X173850Y399876D02*X175850Y397876D01*
Y399876D02*X173850Y397876D01*
X172350Y396676D02*X171850Y396176D01*
Y394676D02*Y396176D01*
Y394676D02*X172350Y394176D01*
X173350D01*
X175850Y396676D02*X173350Y394176D01*
X175850D02*Y396676D01*
X175350Y392976D02*X172350Y389976D01*
X171850Y386776D02*Y388776D01*
Y386776D02*X172350Y386276D01*
X173350D01*
X173850Y386776D02*X173350Y386276D01*
X173850Y386776D02*Y388276D01*
X171850D02*X175850D01*
X173850Y387476D02*X175850Y386276D01*
X172650Y385076D02*X171850Y384276D01*
X175850D01*
Y383576D02*Y385076D01*
X178850Y396776D02*Y398276D01*
X176650Y396776D02*Y398776D01*
Y396776D02*X180650D01*
Y398776D01*
X178650Y399976D02*X176650Y401976D01*
Y399976D02*X178650Y401976D01*
X180150Y403176D02*X180650Y403676D01*
Y405176D01*
X180150Y405676D01*
X179150D02*X180150D01*
X176650Y403176D02*X179150Y405676D01*
X176650Y403176D02*Y405676D01*
X177150Y406876D02*X180150Y409876D01*
X176650Y411776D02*Y413076D01*
X177350Y411076D02*X176650Y411776D01*
X177350Y411076D02*X179950D01*
X180650Y411776D01*
Y413076D01*
X179850Y414276D02*X180650Y415076D01*
X176650D02*X180650D01*
X176650Y414276D02*Y415776D01*
X58350Y326709D02*X62350D01*
Y324709D02*Y326709D01*
X60350Y322009D02*X60850Y321509D01*
X60350Y322009D02*Y323009D01*
X60850Y323509D02*X60350Y323009D01*
X60850Y323509D02*X61850D01*
X62350Y323009D01*
X60350Y321509D02*X61850D01*
X62350Y321009D01*
Y322009D02*Y323009D01*
Y322009D02*X61850Y321509D01*
X59150Y319809D02*X58350Y319009D01*
X62350D01*
Y318309D02*Y319809D01*
X72709Y326150D02*Y329650D01*
Y326150D02*X72209Y325650D01*
X71209D02*X72209D01*
X71209D02*X70709Y326150D01*
Y329650D01*
X69509Y326150D02*Y327650D01*
Y326150D02*X69009Y325650D01*
X68009D02*X69009D01*
X68009D02*X67509Y326150D01*
Y327650D01*
X66309Y328850D02*X65509Y329650D01*
Y325650D02*Y329650D01*
X64809Y325650D02*X66309D01*
X72709Y319150D02*Y322650D01*
Y319150D02*X72209Y318650D01*
X71209D02*X72209D01*
X71209D02*X70709Y319150D01*
Y322650D01*
X69509Y319150D02*Y320650D01*
Y319150D02*X69009Y318650D01*
X68009D02*X69009D01*
X68009D02*X67509Y319150D01*
Y320650D01*
X66309Y322150D02*X65809Y322650D01*
X64309D02*X65809D01*
X64309D02*X63809Y322150D01*
Y321150D02*Y322150D01*
X66309Y318650D02*X63809Y321150D01*
Y318650D02*X66309D01*
X114076Y324650D02*X116076D01*
X114076D02*X113576Y324150D01*
Y323150D02*Y324150D01*
X114076Y322650D02*X113576Y323150D01*
X114076Y322650D02*X115576D01*
Y320650D02*Y324650D01*
X114776Y322650D02*X113576Y320650D01*
G54D128*X112376Y323550D02*Y323650D01*
G54D127*Y320650D02*Y322150D01*
X111376Y323850D02*X110576Y324650D01*
Y320650D02*Y324650D01*
X109876Y320650D02*X111376D01*
X107702Y342591D02*Y343891D01*
X107002Y344591D02*X107702Y343891D01*
X104402Y344591D02*X107002D01*
X104402D02*X103702Y343891D01*
Y342591D02*Y343891D01*
X105702Y341391D02*X107202D01*
X107702Y340891D01*
Y339891D02*Y340891D01*
Y339891D02*X107202Y339391D01*
X105702D02*X107202D01*
X104502Y338191D02*X103702Y337391D01*
X107702D01*
Y336691D02*Y338191D01*
X140002Y324109D02*Y325409D01*
X140702Y323409D02*X140002Y324109D01*
X140702Y323409D02*X143302D01*
X144002Y324109D01*
Y325409D01*
X142002Y328109D02*X141502Y328609D01*
X142002Y327109D02*Y328109D01*
X141502Y326609D02*X142002Y327109D01*
X140502Y326609D02*X141502D01*
X140502D02*X140002Y327109D01*
X140502Y328609D02*X142002D01*
X140502D02*X140002Y329109D01*
Y327109D02*Y328109D01*
X140502Y328609D01*
X141502Y330309D02*X144002Y332309D01*
X141502Y330309D02*Y332809D01*
X140002Y332309D02*X144002D01*
X92666Y249398D02*Y250898D01*
X93166Y248898D02*X92666Y249398D01*
X93166Y248898D02*X94166D01*
X94666Y249398D01*
Y250398D01*
X94166Y250898D01*
X93666Y248898D02*Y250898D01*
X94166D01*
X93166Y252598D02*X96666D01*
X93166D02*X92666Y253098D01*
X95166Y252098D02*Y253098D01*
X92666Y254098D02*X96666D01*
X94166D02*X94666Y254598D01*
Y255598D01*
X94166Y256098D01*
X92666D02*X94166D01*
X93166Y257298D02*X92666Y257798D01*
X93166Y257298D02*X96166D01*
X96666Y257798D01*
Y258798D01*
X96166Y259298D01*
X93166D02*X96166D01*
X92666Y258798D02*X93166Y259298D01*
X92666Y257798D02*Y258798D01*
X93666Y257298D02*X95666Y259298D01*
X93166Y260498D02*X96166Y263498D01*
X96666Y264698D02*Y266698D01*
X96166Y267198D01*
X95166D02*X96166D01*
X94666Y266698D02*X95166Y267198D01*
X94666Y265198D02*Y266698D01*
X92666Y265198D02*X96666D01*
X94666Y265998D02*X92666Y267198D01*
X91166Y268898D02*X94166D01*
X94666Y268398D02*X94166Y268898D01*
X94666Y269398D01*
Y270398D01*
X94166Y270898D01*
X93166D02*X94166D01*
X92666Y270398D02*X93166Y270898D01*
X92666Y269398D02*Y270398D01*
X93166Y268898D02*X92666Y269398D01*
X96666Y272098D02*Y274098D01*
X94666Y272098D02*X96666D01*
X94666D02*X95166Y272598D01*
Y273598D01*
X94666Y274098D01*
X93166D02*X94666D01*
X92666Y273598D02*X93166Y274098D01*
X92666Y272598D02*Y273598D01*
X93166Y272098D02*X92666Y272598D01*
X135925Y276472D02*X137425D01*
X135425Y275972D02*X135925Y276472D01*
X135425Y274972D02*Y275972D01*
Y274972D02*X135925Y274472D01*
X136925D01*
X137425Y274972D01*
X135425Y275472D02*X137425D01*
Y274972D02*Y275472D01*
X139125Y272472D02*Y275972D01*
X139625Y276472D01*
X138625Y273972D02*X139625D01*
X140625Y272472D02*Y276472D01*
Y274972D02*X141125Y274472D01*
X142125D01*
X142625Y274972D01*
Y276472D01*
X143825Y275972D02*X144325Y276472D01*
X143825Y272972D02*Y275972D01*
Y272972D02*X144325Y272472D01*
X145325D01*
X145825Y272972D01*
Y275972D01*
X145325Y276472D02*X145825Y275972D01*
X144325Y276472D02*X145325D01*
X143825Y275472D02*X145825Y273472D01*
X147025Y275972D02*X150025Y272972D01*
X151225Y272472D02*Y276472D01*
X153225D01*
X154925Y274972D02*Y277972D01*
X154425Y274472D02*X154925Y274972D01*
X155425Y274472D01*
X156425D01*
X156925Y274972D01*
Y275972D01*
X156425Y276472D02*X156925Y275972D01*
X155425Y276472D02*X156425D01*
X154925Y275972D02*X155425Y276472D01*
X158125Y273272D02*X158925Y272472D01*
Y276472D01*
X158125D02*X159625D01*
X145740Y267272D02*X147240D01*
X147740Y267772D02*X147240Y267272D01*
X147740Y267772D02*Y268772D01*
X147240Y269272D01*
X146240D02*X147240D01*
X146240D02*X145740Y268772D01*
Y268272D02*X147740D01*
X145740D02*Y268772D01*
X144040Y267772D02*Y271272D01*
Y267772D02*X143540Y267272D01*
Y269772D02*X144540D01*
X142540Y267272D02*Y271272D01*
Y268772D02*X142040Y269272D01*
X141040D02*X142040D01*
X141040D02*X140540Y268772D01*
Y267272D02*Y268772D01*
X139340Y267772D02*X138840Y267272D01*
X139340Y267772D02*Y270772D01*
X138840Y271272D01*
X137840D02*X138840D01*
X137840D02*X137340Y270772D01*
Y267772D02*Y270772D01*
X137840Y267272D02*X137340Y267772D01*
X137840Y267272D02*X138840D01*
X139340Y268272D02*X137340Y270272D01*
X136140Y267772D02*X133140Y270772D01*
X129940Y267272D02*X131240D01*
X131940Y267972D02*X131240Y267272D01*
X131940Y267972D02*Y270572D01*
X131240Y271272D01*
X129940D02*X131240D01*
X128240Y265772D02*Y268772D01*
X128740Y269272D02*X128240Y268772D01*
X127740Y269272D01*
X126740D02*X127740D01*
X126740D02*X126240Y268772D01*
Y267772D02*Y268772D01*
X126740Y267272D02*X126240Y267772D01*
X126740Y267272D02*X127740D01*
X128240Y267772D02*X127740Y267272D01*
X125040Y270472D02*X124240Y271272D01*
Y267272D02*Y271272D01*
X123540Y267272D02*X125040D01*
X134440Y270972D02*X135940D01*
X133940Y270472D02*X134440Y270972D01*
X133940Y269472D02*Y270472D01*
Y269472D02*X134440Y268972D01*
X135440D01*
X135940Y269472D01*
X133940Y269972D02*X135940D01*
Y269472D02*Y269972D01*
X137640Y266972D02*Y270472D01*
X138140Y270972D01*
X137140Y268472D02*X138140D01*
X139140Y266972D02*Y270972D01*
Y269472D02*X139640Y268972D01*
X140640D01*
X141140Y269472D01*
Y270972D01*
X142340Y270472D02*X142840Y270972D01*
X142340Y267472D02*Y270472D01*
Y267472D02*X142840Y266972D01*
X143840D01*
X144340Y267472D01*
Y270472D01*
X143840Y270972D02*X144340Y270472D01*
X142840Y270972D02*X143840D01*
X142340Y269972D02*X144340Y267972D01*
X145540Y270472D02*X148540Y267472D01*
X149740Y266972D02*X151740D01*
X152240Y267472D01*
Y268472D01*
X151740Y268972D02*X152240Y268472D01*
X150240Y268972D02*X151740D01*
X150240Y266972D02*Y270972D01*
X151040Y268972D02*X152240Y270972D01*
X153940Y269472D02*Y272472D01*
X153440Y268972D02*X153940Y269472D01*
X154440Y268972D01*
X155440D01*
X155940Y269472D01*
Y270472D01*
X155440Y270972D02*X155940Y270472D01*
X154440Y270972D02*X155440D01*
X153940Y270472D02*X154440Y270972D01*
X157140Y267772D02*X157940Y266972D01*
Y270972D01*
X157140D02*X158640D01*
X145092Y262272D02*X146592D01*
X147092Y262772D02*X146592Y262272D01*
X147092Y262772D02*Y263772D01*
X146592Y264272D01*
X145592D02*X146592D01*
X145592D02*X145092Y263772D01*
Y263272D02*X147092D01*
X145092D02*Y263772D01*
X143392Y262772D02*Y266272D01*
Y262772D02*X142892Y262272D01*
Y264772D02*X143892D01*
X141892Y262272D02*Y266272D01*
Y263772D02*X141392Y264272D01*
X140392D02*X141392D01*
X140392D02*X139892Y263772D01*
Y262272D02*Y263772D01*
X138692Y262772D02*X138192Y262272D01*
X138692Y262772D02*Y265772D01*
X138192Y266272D01*
X137192D02*X138192D01*
X137192D02*X136692Y265772D01*
Y262772D02*Y265772D01*
X137192Y262272D02*X136692Y262772D01*
X137192Y262272D02*X138192D01*
X138692Y263272D02*X136692Y265272D01*
X135492Y262772D02*X132492Y265772D01*
X129292Y266272D02*X131292D01*
X129292D02*X128792Y265772D01*
Y264772D02*Y265772D01*
X129292Y264272D02*X128792Y264772D01*
X129292Y264272D02*X130792D01*
Y262272D02*Y266272D01*
X129992Y264272D02*X128792Y262272D01*
X127092Y260772D02*Y263772D01*
X127592Y264272D02*X127092Y263772D01*
X126592Y264272D01*
X125592D02*X126592D01*
X125592D02*X125092Y263772D01*
Y262772D02*Y263772D01*
X125592Y262272D02*X125092Y262772D01*
X125592Y262272D02*X126592D01*
X127092Y262772D02*X126592Y262272D01*
X123892Y265772D02*X123392Y266272D01*
X121892D02*X123392D01*
X121892D02*X121392Y265772D01*
Y264772D02*Y265772D01*
X123892Y262272D02*X121392Y264772D01*
Y262272D02*X123892D01*
X133792Y221972D02*X135292D01*
X133292Y221472D02*X133792Y221972D01*
X133292Y220472D02*Y221472D01*
Y220472D02*X133792Y219972D01*
X134792D01*
X135292Y220472D01*
X133292Y220972D02*X135292D01*
Y220472D02*Y220972D01*
X136992Y217972D02*Y221472D01*
X137492Y221972D01*
X136492Y219472D02*X137492D01*
X138492Y217972D02*Y221972D01*
Y220472D02*X138992Y219972D01*
X139992D01*
X140492Y220472D01*
Y221972D01*
X141692Y221472D02*X142192Y221972D01*
X141692Y218472D02*Y221472D01*
Y218472D02*X142192Y217972D01*
X143192D01*
X143692Y218472D01*
Y221472D01*
X143192Y221972D02*X143692Y221472D01*
X142192Y221972D02*X143192D01*
X141692Y220972D02*X143692Y218972D01*
X144892Y221472D02*X147892Y218472D01*
X149792Y221972D02*X151092D01*
X149092Y221272D02*X149792Y221972D01*
X149092Y218672D02*Y221272D01*
Y218672D02*X149792Y217972D01*
X151092D01*
X152792Y220472D02*Y223472D01*
X152292Y219972D02*X152792Y220472D01*
X153292Y219972D01*
X154292D01*
X154792Y220472D01*
Y221472D01*
X154292Y221972D02*X154792Y221472D01*
X153292Y221972D02*X154292D01*
X152792Y221472D02*X153292Y221972D01*
X155992Y218472D02*X156492Y217972D01*
X157992D01*
X158492Y218472D01*
Y219472D01*
X155992Y221972D02*X158492Y219472D01*
X155992Y221972D02*X158492D01*
X134440Y226472D02*X135940D01*
X133940Y225972D02*X134440Y226472D01*
X133940Y224972D02*Y225972D01*
Y224972D02*X134440Y224472D01*
X135440D01*
X135940Y224972D01*
X133940Y225472D02*X135940D01*
Y224972D02*Y225472D01*
X137640Y222472D02*Y225972D01*
X138140Y226472D01*
X137140Y223972D02*X138140D01*
X139140Y222472D02*Y226472D01*
Y224972D02*X139640Y224472D01*
X140640D01*
X141140Y224972D01*
Y226472D01*
X142340Y225972D02*X142840Y226472D01*
X142340Y222972D02*Y225972D01*
Y222972D02*X142840Y222472D01*
X143840D01*
X144340Y222972D01*
Y225972D01*
X143840Y226472D02*X144340Y225972D01*
X142840Y226472D02*X143840D01*
X142340Y225472D02*X144340Y223472D01*
X145540Y225972D02*X148540Y222972D01*
X149740Y222472D02*X151740D01*
X152240Y222972D01*
Y223972D01*
X151740Y224472D02*X152240Y223972D01*
X150240Y224472D02*X151740D01*
X150240Y222472D02*Y226472D01*
X151040Y224472D02*X152240Y226472D01*
X153940Y224972D02*Y227972D01*
X153440Y224472D02*X153940Y224972D01*
X154440Y224472D01*
X155440D01*
X155940Y224972D01*
Y225972D01*
X155440Y226472D02*X155940Y225972D01*
X154440Y226472D02*X155440D01*
X153940Y225972D02*X154440Y226472D01*
X157140Y222972D02*X157640Y222472D01*
X158640D01*
X159140Y222972D01*
X158640Y226472D02*X159140Y225972D01*
X157640Y226472D02*X158640D01*
X157140Y225972D02*X157640Y226472D01*
Y224272D02*X158640D01*
X159140Y222972D02*Y223772D01*
Y224772D02*Y225972D01*
Y224772D02*X158640Y224272D01*
X159140Y223772D02*X158640Y224272D01*
X145092Y217772D02*X146592D01*
X147092Y218272D02*X146592Y217772D01*
X147092Y218272D02*Y219272D01*
X146592Y219772D01*
X145592D02*X146592D01*
X145592D02*X145092Y219272D01*
Y218772D02*X147092D01*
X145092D02*Y219272D01*
X143392Y218272D02*Y221772D01*
Y218272D02*X142892Y217772D01*
Y220272D02*X143892D01*
X141892Y217772D02*Y221772D01*
Y219272D02*X141392Y219772D01*
X140392D02*X141392D01*
X140392D02*X139892Y219272D01*
Y217772D02*Y219272D01*
X138692Y218272D02*X138192Y217772D01*
X138692Y218272D02*Y221272D01*
X138192Y221772D01*
X137192D02*X138192D01*
X137192D02*X136692Y221272D01*
Y218272D02*Y221272D01*
X137192Y217772D02*X136692Y218272D01*
X137192Y217772D02*X138192D01*
X138692Y218772D02*X136692Y220772D01*
X135492Y218272D02*X132492Y221272D01*
X129292Y221772D02*X131292D01*
X129292D02*X128792Y221272D01*
Y220272D02*Y221272D01*
X129292Y219772D02*X128792Y220272D01*
X129292Y219772D02*X130792D01*
Y217772D02*Y221772D01*
X129992Y219772D02*X128792Y217772D01*
X127092Y216272D02*Y219272D01*
X127592Y219772D02*X127092Y219272D01*
X126592Y219772D01*
X125592D02*X126592D01*
X125592D02*X125092Y219272D01*
Y218272D02*Y219272D01*
X125592Y217772D02*X125092Y218272D01*
X125592Y217772D02*X126592D01*
X127092Y218272D02*X126592Y217772D01*
X123892Y219272D02*X121892Y221772D01*
X121392Y219272D02*X123892D01*
X121892Y217772D02*Y221772D01*
X97240Y210772D02*X98740D01*
X99240Y211272D02*X98740Y210772D01*
X99240Y211272D02*Y212272D01*
X98740Y212772D01*
X97740D02*X98740D01*
X97740D02*X97240Y212272D01*
Y211772D02*X99240D01*
X97240D02*Y212272D01*
X95540Y211272D02*Y214772D01*
Y211272D02*X95040Y210772D01*
Y213272D02*X96040D01*
X94040Y210772D02*Y214772D01*
Y212272D02*X93540Y212772D01*
X92540D02*X93540D01*
X92540D02*X92040Y212272D01*
Y210772D02*Y212272D01*
X90840Y211272D02*X90340Y210772D01*
X90840Y211272D02*Y214272D01*
X90340Y214772D01*
X89340D02*X90340D01*
X89340D02*X88840Y214272D01*
Y211272D02*Y214272D01*
X89340Y210772D02*X88840Y211272D01*
X89340Y210772D02*X90340D01*
X90840Y211772D02*X88840Y213772D01*
X87640Y211272D02*X84640Y214272D01*
X81440Y214772D02*X83440D01*
X81440D02*X80940Y214272D01*
Y213272D02*Y214272D01*
X81440Y212772D02*X80940Y213272D01*
X81440Y212772D02*X82940D01*
Y210772D02*Y214772D01*
X82140Y212772D02*X80940Y210772D01*
X79240Y209272D02*Y212272D01*
X79740Y212772D02*X79240Y212272D01*
X78740Y212772D01*
X77740D02*X78740D01*
X77740D02*X77240Y212272D01*
Y211272D02*Y212272D01*
X77740Y210772D02*X77240Y211272D01*
X77740Y210772D02*X78740D01*
X79240Y211272D02*X78740Y210772D01*
X74540Y214772D02*X74040Y214272D01*
X74540Y214772D02*X75540D01*
X76040Y214272D02*X75540Y214772D01*
X76040Y211272D02*Y214272D01*
Y211272D02*X75540Y210772D01*
X74540Y212972D02*X74040Y212472D01*
X74540Y212972D02*X76040D01*
X74540Y210772D02*X75540D01*
X74540D02*X74040Y211272D01*
Y212472D01*
X104228Y360950D02*X105528D01*
X103528Y360250D02*X104228Y360950D01*
X103528Y357650D02*Y360250D01*
Y357650D02*X104228Y356950D01*
X105528D01*
X108228Y358950D02*X108728Y359450D01*
X107228Y358950D02*X108228D01*
X106728Y359450D02*X107228Y358950D01*
X106728Y359450D02*Y360450D01*
X107228Y360950D01*
X108728Y358950D02*Y360450D01*
X109228Y360950D01*
X107228D02*X108228D01*
X108728Y360450D01*
X110428Y357450D02*X110928Y356950D01*
X111928D01*
X112428Y357450D01*
X111928Y360950D02*X112428Y360450D01*
X110928Y360950D02*X111928D01*
X110428Y360450D02*X110928Y360950D01*
Y358750D02*X111928D01*
X112428Y357450D02*Y358250D01*
Y359250D02*Y360450D01*
Y359250D02*X111928Y358750D01*
X112428Y358250D02*X111928Y358750D01*
X73291Y360350D02*X74591D01*
X72591Y359650D02*X73291Y360350D01*
X72591Y357050D02*Y359650D01*
Y357050D02*X73291Y356350D01*
X74591D01*
X76291Y358850D02*Y361850D01*
X75791Y358350D02*X76291Y358850D01*
X76791Y358350D01*
X77791D01*
X78291Y358850D01*
Y359850D01*
X77791Y360350D02*X78291Y359850D01*
X76791Y360350D02*X77791D01*
X76291Y359850D02*X76791Y360350D01*
X79491Y356850D02*X79991Y356350D01*
X81491D01*
X81991Y356850D01*
Y357850D01*
X79491Y360350D02*X81991Y357850D01*
X79491Y360350D02*X81991D01*
X72950Y346609D02*Y347909D01*
X73650Y345909D02*X72950Y346609D01*
X73650Y345909D02*X76250D01*
X76950Y346609D01*
Y347909D01*
X71450Y349609D02*X74450D01*
X74950Y349109D02*X74450Y349609D01*
X74950Y350109D01*
Y351109D01*
X74450Y351609D01*
X73450D02*X74450D01*
X72950Y351109D02*X73450Y351609D01*
X72950Y350109D02*Y351109D01*
X73450Y349609D02*X72950Y350109D01*
X76150Y352809D02*X76950Y353609D01*
X72950D02*X76950D01*
X72950Y352809D02*Y354309D01*
X67450Y345909D02*X71450D01*
X67450D02*Y347909D01*
X65950Y349609D02*X68950D01*
X69450Y349109D02*X68950Y349609D01*
X69450Y350109D01*
Y351109D01*
X68950Y351609D01*
X67950D02*X68950D01*
X67450Y351109D02*X67950Y351609D01*
X67450Y350109D02*Y351109D01*
X67950Y349609D02*X67450Y350109D01*
X70650Y352809D02*X71450Y353609D01*
X67450D02*X71450D01*
X67450Y352809D02*Y354309D01*
X110876Y360950D02*X112176D01*
X110176Y360250D02*X110876Y360950D01*
X110176Y357650D02*Y360250D01*
Y357650D02*X110876Y356950D01*
X112176D01*
X114876Y358950D02*X115376Y359450D01*
X113876Y358950D02*X114876D01*
X113376Y359450D02*X113876Y358950D01*
X113376Y359450D02*Y360450D01*
X113876Y360950D01*
X115376Y358950D02*Y360450D01*
X115876Y360950D01*
X113876D02*X114876D01*
X115376Y360450D01*
X117076Y357450D02*X117576Y356950D01*
X119076D01*
X119576Y357450D01*
Y358450D01*
X117076Y360950D02*X119576Y358450D01*
X117076Y360950D02*X119576D01*
X135976Y359350D02*X137276D01*
X135276Y358650D02*X135976Y359350D01*
X135276Y356050D02*Y358650D01*
Y356050D02*X135976Y355350D01*
X137276D01*
X138976Y357850D02*Y359350D01*
Y357850D02*X139476Y357350D01*
X139976D01*
X140476Y357850D01*
Y359350D01*
Y357850D02*X140976Y357350D01*
X141476D01*
X141976Y357850D01*
Y359350D01*
X138476Y357350D02*X138976Y357850D01*
X143176Y355850D02*X143676Y355350D01*
X144676D01*
X145176Y355850D01*
X144676Y359350D02*X145176Y358850D01*
X143676Y359350D02*X144676D01*
X143176Y358850D02*X143676Y359350D01*
Y357150D02*X144676D01*
X145176Y355850D02*Y356650D01*
Y357650D02*Y358850D01*
Y357650D02*X144676Y357150D01*
X145176Y356650D02*X144676Y357150D01*
X106043Y351850D02*Y355850D01*
X108043D01*
X110743Y353850D02*X111243Y354350D01*
X109743Y353850D02*X110743D01*
X109243Y354350D02*X109743Y353850D01*
X109243Y354350D02*Y355350D01*
X109743Y355850D01*
X111243Y353850D02*Y355350D01*
X111743Y355850D01*
X109743D02*X110743D01*
X111243Y355350D01*
X112943Y352350D02*X113443Y351850D01*
X114443D01*
X114943Y352350D01*
X114443Y355850D02*X114943Y355350D01*
X113443Y355850D02*X114443D01*
X112943Y355350D02*X113443Y355850D01*
Y353650D02*X114443D01*
X114943Y352350D02*Y353150D01*
Y354150D02*Y355350D01*
Y354150D02*X114443Y353650D01*
X114943Y353150D02*X114443Y353650D01*
X187650Y350776D02*X189150D01*
X187650D02*X187150Y351276D01*
Y351776D01*
X187650Y352276D01*
X189150D01*
X187650D02*X187150Y352776D01*
Y353276D01*
X187650Y353776D01*
X189150D01*
G54D128*X190050Y354976D02*X190150D01*
G54D127*X187150D02*X188650D01*
X187650Y355976D02*X190650Y358976D01*
X191150Y360176D02*Y362176D01*
X190650Y362676D01*
X189650D02*X190650D01*
X189150Y362176D02*X189650Y362676D01*
X189150Y360676D02*Y362176D01*
X187150Y360676D02*X191150D01*
X189150Y361476D02*X187150Y362676D01*
X188650Y363876D02*X191150Y365876D01*
X188650Y363876D02*Y366376D01*
X187150Y365876D02*X191150D01*
X223150Y349776D02*X224650D01*
X223150D02*X222650Y350276D01*
Y350776D01*
X223150Y351276D01*
X224650D01*
X223150D02*X222650Y351776D01*
Y352276D01*
X223150Y352776D01*
X224650D01*
G54D128*X225550Y353976D02*X225650D01*
G54D127*X222650D02*X224150D01*
X223150Y354976D02*X226150Y357976D01*
X226650Y359176D02*Y361176D01*
X226150Y361676D01*
X225150D02*X226150D01*
X224650Y361176D02*X225150Y361676D01*
X224650Y359676D02*Y361176D01*
X222650Y359676D02*X226650D01*
X224650Y360476D02*X222650Y361676D01*
X226650Y362876D02*Y364876D01*
X224650Y362876D02*X226650D01*
X224650D02*X225150Y363376D01*
Y364376D01*
X224650Y364876D01*
X223150D02*X224650D01*
X222650Y364376D02*X223150Y364876D01*
X222650Y363376D02*Y364376D01*
X223150Y362876D02*X222650Y363376D01*
X218166Y227046D02*Y228546D01*
X218666Y226546D02*X218166Y227046D01*
X218666Y226546D02*X219666D01*
X220166Y227046D01*
Y228046D01*
X219666Y228546D01*
X219166Y226546D02*Y228546D01*
X219666D01*
X218666Y230246D02*X222166D01*
X218666D02*X218166Y230746D01*
X220666Y229746D02*Y230746D01*
X218166Y231746D02*X222166D01*
X219666D02*X220166Y232246D01*
Y233246D01*
X219666Y233746D01*
X218166D02*X219666D01*
X218666Y234946D02*X218166Y235446D01*
X218666Y234946D02*X221666D01*
X222166Y235446D01*
Y236446D01*
X221666Y236946D01*
X218666D02*X221666D01*
X218166Y236446D02*X218666Y236946D01*
X218166Y235446D02*Y236446D01*
X219166Y234946D02*X221166Y236946D01*
X218666Y238146D02*X221666Y241146D01*
X218166Y243046D02*Y244346D01*
X218866Y242346D02*X218166Y243046D01*
X218866Y242346D02*X221466D01*
X222166Y243046D01*
Y244346D01*
X218166Y246046D02*Y247546D01*
X218666Y245546D02*X218166Y246046D01*
X218666Y245546D02*X219666D01*
X220166Y246046D01*
Y247046D01*
X219666Y247546D01*
X219166Y245546D02*Y247546D01*
X219666D01*
X221666Y248746D02*X222166Y249246D01*
Y250746D01*
X221666Y251246D01*
X220666D02*X221666D01*
X218166Y248746D02*X220666Y251246D01*
X218166Y248746D02*Y251246D01*
Y244413D02*Y245913D01*
X218666Y243913D02*X218166Y244413D01*
X218666Y243913D02*X219666D01*
X220166Y244413D01*
Y245413D01*
X219666Y245913D01*
X219166Y243913D02*Y245913D01*
X219666D01*
X218666Y247613D02*X222166D01*
X218666D02*X218166Y248113D01*
X220666Y247113D02*Y248113D01*
X218166Y249113D02*X222166D01*
X219666D02*X220166Y249613D01*
Y250613D01*
X219666Y251113D01*
X218166D02*X219666D01*
X218666Y252313D02*X218166Y252813D01*
X218666Y252313D02*X221666D01*
X222166Y252813D01*
Y253813D01*
X221666Y254313D01*
X218666D02*X221666D01*
X218166Y253813D02*X218666Y254313D01*
X218166Y252813D02*Y253813D01*
X219166Y252313D02*X221166Y254313D01*
X218666Y255513D02*X221666Y258513D01*
X218166Y260413D02*Y261713D01*
X218866Y259713D02*X218166Y260413D01*
X218866Y259713D02*X221466D01*
X222166Y260413D01*
Y261713D01*
X218166Y263413D02*Y264913D01*
X218666Y262913D02*X218166Y263413D01*
X218666Y262913D02*X219666D01*
X220166Y263413D01*
Y264413D01*
X219666Y264913D01*
X219166Y262913D02*Y264913D01*
X219666D01*
X221366Y266113D02*X222166Y266913D01*
X218166D02*X222166D01*
X218166Y266113D02*Y267613D01*
X178166Y245898D02*Y247398D01*
X178666Y245398D02*X178166Y245898D01*
X178666Y245398D02*X179666D01*
X180166Y245898D01*
Y246898D01*
X179666Y247398D01*
X179166Y245398D02*Y247398D01*
X179666D01*
X178666Y249098D02*X182166D01*
X178666D02*X178166Y249598D01*
X180666Y248598D02*Y249598D01*
X178166Y250598D02*X182166D01*
X179666D02*X180166Y251098D01*
Y252098D01*
X179666Y252598D01*
X178166D02*X179666D01*
X178666Y253798D02*X178166Y254298D01*
X178666Y253798D02*X181666D01*
X182166Y254298D01*
Y255298D01*
X181666Y255798D01*
X178666D02*X181666D01*
X178166Y255298D02*X178666Y255798D01*
X178166Y254298D02*Y255298D01*
X179166Y253798D02*X181166Y255798D01*
X178666Y256998D02*X181666Y259998D01*
X182166Y261198D02*Y263198D01*
X181666Y263698D01*
X180666D02*X181666D01*
X180166Y263198D02*X180666Y263698D01*
X180166Y261698D02*Y263198D01*
X178166Y261698D02*X182166D01*
X180166Y262498D02*X178166Y263698D01*
Y265398D02*Y266898D01*
X178666Y264898D02*X178166Y265398D01*
X178666Y264898D02*X179666D01*
X180166Y265398D01*
Y266398D01*
X179666Y266898D01*
X179166Y264898D02*Y266898D01*
X179666D01*
X181366Y268098D02*X182166Y268898D01*
X178166D02*X182166D01*
X178166Y268098D02*Y269598D01*
X198166Y227046D02*Y228546D01*
X198666Y226546D02*X198166Y227046D01*
X198666Y226546D02*X199666D01*
X200166Y227046D01*
Y228046D01*
X199666Y228546D01*
X199166Y226546D02*Y228546D01*
X199666D01*
X198666Y230246D02*X202166D01*
X198666D02*X198166Y230746D01*
X200666Y229746D02*Y230746D01*
X198166Y231746D02*X202166D01*
X199666D02*X200166Y232246D01*
Y233246D01*
X199666Y233746D01*
X198166D02*X199666D01*
X198666Y234946D02*X198166Y235446D01*
X198666Y234946D02*X201666D01*
X202166Y235446D01*
Y236446D01*
X201666Y236946D01*
X198666D02*X201666D01*
X198166Y236446D02*X198666Y236946D01*
X198166Y235446D02*Y236446D01*
X199166Y234946D02*X201166Y236946D01*
X198666Y238146D02*X201666Y241146D01*
X198166Y243046D02*Y244346D01*
X198866Y242346D02*X198166Y243046D01*
X198866Y242346D02*X201466D01*
X202166Y243046D01*
Y244346D01*
X198166Y246046D02*Y247546D01*
X198666Y245546D02*X198166Y246046D01*
X198666Y245546D02*X199666D01*
X200166Y246046D01*
Y247046D01*
X199666Y247546D01*
X199166Y245546D02*Y247546D01*
X199666D01*
Y248746D02*X202166Y250746D01*
X199666Y248746D02*Y251246D01*
X198166Y250746D02*X202166D01*
X193166Y227046D02*Y228546D01*
X193666Y226546D02*X193166Y227046D01*
X193666Y226546D02*X194666D01*
X195166Y227046D01*
Y228046D01*
X194666Y228546D01*
X194166Y226546D02*Y228546D01*
X194666D01*
X193666Y230246D02*X197166D01*
X193666D02*X193166Y230746D01*
X195666Y229746D02*Y230746D01*
X193166Y231746D02*X197166D01*
X194666D02*X195166Y232246D01*
Y233246D01*
X194666Y233746D01*
X193166D02*X194666D01*
X193666Y234946D02*X193166Y235446D01*
X193666Y234946D02*X196666D01*
X197166Y235446D01*
Y236446D01*
X196666Y236946D01*
X193666D02*X196666D01*
X193166Y236446D02*X193666Y236946D01*
X193166Y235446D02*Y236446D01*
X194166Y234946D02*X196166Y236946D01*
X193666Y238146D02*X196666Y241146D01*
X193166Y243046D02*Y244346D01*
X193866Y242346D02*X193166Y243046D01*
X193866Y242346D02*X196466D01*
X197166Y243046D01*
Y244346D01*
X193166Y246046D02*Y247546D01*
X193666Y245546D02*X193166Y246046D01*
X193666Y245546D02*X194666D01*
X195166Y246046D01*
Y247046D01*
X194666Y247546D01*
X194166Y245546D02*Y247546D01*
X194666D01*
X197166Y248746D02*Y250746D01*
X195166Y248746D02*X197166D01*
X195166D02*X195666Y249246D01*
Y250246D01*
X195166Y250746D01*
X193666D02*X195166D01*
X193166Y250246D02*X193666Y250746D01*
X193166Y249246D02*Y250246D01*
X193666Y248746D02*X193166Y249246D01*
X173166Y227046D02*Y228546D01*
X173666Y226546D02*X173166Y227046D01*
X173666Y226546D02*X174666D01*
X175166Y227046D01*
Y228046D01*
X174666Y228546D01*
X174166Y226546D02*Y228546D01*
X174666D01*
X173666Y230246D02*X177166D01*
X173666D02*X173166Y230746D01*
X175666Y229746D02*Y230746D01*
X173166Y231746D02*X177166D01*
X174666D02*X175166Y232246D01*
Y233246D01*
X174666Y233746D01*
X173166D02*X174666D01*
X173666Y234946D02*X173166Y235446D01*
X173666Y234946D02*X176666D01*
X177166Y235446D01*
Y236446D01*
X176666Y236946D01*
X173666D02*X176666D01*
X173166Y236446D02*X173666Y236946D01*
X173166Y235446D02*Y236446D01*
X174166Y234946D02*X176166Y236946D01*
X173666Y238146D02*X176666Y241146D01*
X173166Y243046D02*Y244346D01*
X173866Y242346D02*X173166Y243046D01*
X173866Y242346D02*X176466D01*
X177166Y243046D01*
Y244346D01*
X173166Y246046D02*Y247546D01*
X173666Y245546D02*X173166Y246046D01*
X173666Y245546D02*X174666D01*
X175166Y246046D01*
Y247046D01*
X174666Y247546D01*
X174166Y245546D02*Y247546D01*
X174666D01*
X173166Y249246D02*X177166Y251246D01*
Y248746D02*Y251246D01*
X178166Y227046D02*Y228546D01*
X178666Y226546D02*X178166Y227046D01*
X178666Y226546D02*X179666D01*
X180166Y227046D01*
Y228046D01*
X179666Y228546D01*
X179166Y226546D02*Y228546D01*
X179666D01*
X178666Y230246D02*X182166D01*
X178666D02*X178166Y230746D01*
X180666Y229746D02*Y230746D01*
X178166Y231746D02*X182166D01*
X179666D02*X180166Y232246D01*
Y233246D01*
X179666Y233746D01*
X178166D02*X179666D01*
X178666Y234946D02*X178166Y235446D01*
X178666Y234946D02*X181666D01*
X182166Y235446D01*
Y236446D01*
X181666Y236946D01*
X178666D02*X181666D01*
X178166Y236446D02*X178666Y236946D01*
X178166Y235446D02*Y236446D01*
X179166Y234946D02*X181166Y236946D01*
X178666Y238146D02*X181666Y241146D01*
X178166Y243046D02*Y244346D01*
X178866Y242346D02*X178166Y243046D01*
X178866Y242346D02*X181466D01*
X182166Y243046D01*
Y244346D01*
X178166Y246046D02*Y247546D01*
X178666Y245546D02*X178166Y246046D01*
X178666Y245546D02*X179666D01*
X180166Y246046D01*
Y247046D01*
X179666Y247546D01*
X179166Y245546D02*Y247546D01*
X179666D01*
X182166Y250246D02*X181666Y250746D01*
X182166Y249246D02*Y250246D01*
X181666Y248746D02*X182166Y249246D01*
X178666Y248746D02*X181666D01*
X178666D02*X178166Y249246D01*
X180366Y250246D02*X179866Y250746D01*
X180366Y248746D02*Y250246D01*
X178166Y249246D02*Y250246D01*
X178666Y250746D01*
X179866D01*
X173166Y245898D02*Y247398D01*
X173666Y245398D02*X173166Y245898D01*
X173666Y245398D02*X174666D01*
X175166Y245898D01*
Y246898D01*
X174666Y247398D01*
X174166Y245398D02*Y247398D01*
X174666D01*
X173666Y249098D02*X177166D01*
X173666D02*X173166Y249598D01*
X175666Y248598D02*Y249598D01*
X173166Y250598D02*X177166D01*
X174666D02*X175166Y251098D01*
Y252098D01*
X174666Y252598D01*
X173166D02*X174666D01*
X173666Y253798D02*X173166Y254298D01*
X173666Y253798D02*X176666D01*
X177166Y254298D01*
Y255298D01*
X176666Y255798D01*
X173666D02*X176666D01*
X173166Y255298D02*X173666Y255798D01*
X173166Y254298D02*Y255298D01*
X174166Y253798D02*X176166Y255798D01*
X173666Y256998D02*X176666Y259998D01*
X177166Y261198D02*Y263198D01*
X176666Y263698D01*
X175666D02*X176666D01*
X175166Y263198D02*X175666Y263698D01*
X175166Y261698D02*Y263198D01*
X173166Y261698D02*X177166D01*
X175166Y262498D02*X173166Y263698D01*
Y265398D02*Y266898D01*
X173666Y264898D02*X173166Y265398D01*
X173666Y264898D02*X174666D01*
X175166Y265398D01*
Y266398D01*
X174666Y266898D01*
X174166Y264898D02*Y266898D01*
X174666D01*
X176666Y268098D02*X177166Y268598D01*
Y270098D01*
X176666Y270598D01*
X175666D02*X176666D01*
X173166Y268098D02*X175666Y270598D01*
X173166Y268098D02*Y270598D01*
X156866Y242550D02*Y244050D01*
X156366Y244550D02*X156866Y244050D01*
X155366Y244550D02*X156366D01*
X155366D02*X154866Y244050D01*
Y243050D02*Y244050D01*
Y243050D02*X155366Y242550D01*
X155866D02*Y244550D01*
X155366Y242550D02*X155866D01*
X152866Y240850D02*X156366D01*
X156866Y240350D01*
X154366D02*Y241350D01*
X152866Y239350D02*X156866D01*
X155366D02*X154866Y238850D01*
Y237850D02*Y238850D01*
Y237850D02*X155366Y237350D01*
X156866D01*
X156366Y236150D02*X156866Y235650D01*
X153366Y236150D02*X156366D01*
X153366D02*X152866Y235650D01*
Y234650D02*Y235650D01*
Y234650D02*X153366Y234150D01*
X156366D01*
X156866Y234650D02*X156366Y234150D01*
X156866Y234650D02*Y235650D01*
X155866Y236150D02*X153866Y234150D01*
X156366Y232950D02*X153366Y229950D01*
X152866Y226750D02*Y228750D01*
Y226750D02*X153366Y226250D01*
X154366D01*
X154866Y226750D02*X154366Y226250D01*
X154866Y226750D02*Y228250D01*
X152866D02*X156866D01*
X154866Y227450D02*X156866Y226250D01*
Y223050D02*Y224550D01*
X156366Y225050D02*X156866Y224550D01*
X155366Y225050D02*X156366D01*
X155366D02*X154866Y224550D01*
Y223550D02*Y224550D01*
Y223550D02*X155366Y223050D01*
X155866D02*Y225050D01*
X155366Y223050D02*X155866D01*
X153366Y221850D02*X152866Y221350D01*
Y220350D02*Y221350D01*
Y220350D02*X153366Y219850D01*
X156866Y220350D02*X156366Y219850D01*
X156866Y220350D02*Y221350D01*
X156366Y221850D02*X156866Y221350D01*
X154666Y220350D02*Y221350D01*
X153366Y219850D02*X154166D01*
X155166D02*X156366D01*
X155166D02*X154666Y220350D01*
X154166Y219850D02*X154666Y220350D01*
X156866Y249698D02*Y251198D01*
X156366Y251698D02*X156866Y251198D01*
X155366Y251698D02*X156366D01*
X155366D02*X154866Y251198D01*
Y250198D02*Y251198D01*
Y250198D02*X155366Y249698D01*
X155866D02*Y251698D01*
X155366Y249698D02*X155866D01*
X152866Y247998D02*X156366D01*
X156866Y247498D01*
X154366D02*Y248498D01*
X152866Y246498D02*X156866D01*
X155366D02*X154866Y245998D01*
Y244998D02*Y245998D01*
Y244998D02*X155366Y244498D01*
X156866D01*
X156366Y243298D02*X156866Y242798D01*
X153366Y243298D02*X156366D01*
X153366D02*X152866Y242798D01*
Y241798D02*Y242798D01*
Y241798D02*X153366Y241298D01*
X156366D01*
X156866Y241798D02*X156366Y241298D01*
X156866Y241798D02*Y242798D01*
X155866Y243298D02*X153866Y241298D01*
X156366Y240098D02*X153366Y237098D01*
X152866Y233898D02*Y235898D01*
Y233898D02*X153366Y233398D01*
X154366D01*
X154866Y233898D02*X154366Y233398D01*
X154866Y233898D02*Y235398D01*
X152866D02*X156866D01*
X154866Y234598D02*X156866Y233398D01*
Y230198D02*Y231698D01*
X156366Y232198D02*X156866Y231698D01*
X155366Y232198D02*X156366D01*
X155366D02*X154866Y231698D01*
Y230698D02*Y231698D01*
Y230698D02*X155366Y230198D01*
X155866D02*Y232198D01*
X155366Y230198D02*X155866D01*
X155366Y228998D02*X152866Y226998D01*
X155366Y226498D02*Y228998D01*
X152866Y226998D02*X156866D01*
X153166Y227046D02*Y228546D01*
X153666Y226546D02*X153166Y227046D01*
X153666Y226546D02*X154666D01*
X155166Y227046D01*
Y228046D01*
X154666Y228546D01*
X154166Y226546D02*Y228546D01*
X154666D01*
X153666Y230246D02*X157166D01*
X153666D02*X153166Y230746D01*
X155666Y229746D02*Y230746D01*
X153166Y231746D02*X157166D01*
X154666D02*X155166Y232246D01*
Y233246D01*
X154666Y233746D01*
X153166D02*X154666D01*
X153666Y234946D02*X153166Y235446D01*
X153666Y234946D02*X156666D01*
X157166Y235446D01*
Y236446D01*
X156666Y236946D01*
X153666D02*X156666D01*
X153166Y236446D02*X153666Y236946D01*
X153166Y235446D02*Y236446D01*
X154166Y234946D02*X156166Y236946D01*
X153666Y238146D02*X156666Y241146D01*
X153166Y243046D02*Y244346D01*
X153866Y242346D02*X153166Y243046D01*
X153866Y242346D02*X156466D01*
X157166Y243046D01*
Y244346D01*
X153166Y246046D02*Y247546D01*
X153666Y245546D02*X153166Y246046D01*
X153666Y245546D02*X154666D01*
X155166Y246046D01*
Y247046D01*
X154666Y247546D01*
X154166Y245546D02*Y247546D01*
X154666D01*
X153666Y248746D02*X153166Y249246D01*
X153666Y248746D02*X154466D01*
X155166Y249446D01*
Y250046D01*
X154466Y250746D01*
X153666D02*X154466D01*
X153166Y250246D02*X153666Y250746D01*
X153166Y249246D02*Y250246D01*
X155866Y248746D02*X155166Y249446D01*
X155866Y248746D02*X156666D01*
X157166Y249246D01*
Y250246D01*
X156666Y250746D01*
X155866D02*X156666D01*
X155166Y250046D02*X155866Y250746D01*
X206866Y230846D02*Y232346D01*
X206366Y232846D02*X206866Y232346D01*
X205366Y232846D02*X206366D01*
X205366D02*X204866Y232346D01*
Y231346D02*Y232346D01*
Y231346D02*X205366Y230846D01*
X205866D02*Y232846D01*
X205366Y230846D02*X205866D01*
X202866Y229146D02*X206366D01*
X206866Y228646D01*
X204366D02*Y229646D01*
X202866Y227646D02*X206866D01*
X205366D02*X204866Y227146D01*
Y226146D02*Y227146D01*
Y226146D02*X205366Y225646D01*
X206866D01*
X206366Y224446D02*X206866Y223946D01*
X203366Y224446D02*X206366D01*
X203366D02*X202866Y223946D01*
Y222946D02*Y223946D01*
Y222946D02*X203366Y222446D01*
X206366D01*
X206866Y222946D02*X206366Y222446D01*
X206866Y222946D02*Y223946D01*
X205866Y224446D02*X203866Y222446D01*
X206366Y221246D02*X203366Y218246D01*
X206866Y215046D02*Y216346D01*
X206166Y217046D02*X206866Y216346D01*
X203566Y217046D02*X206166D01*
X203566D02*X202866Y216346D01*
Y215046D02*Y216346D01*
X206866Y211846D02*Y213346D01*
X206366Y213846D02*X206866Y213346D01*
X205366Y213846D02*X206366D01*
X205366D02*X204866Y213346D01*
Y212346D02*Y213346D01*
Y212346D02*X205366Y211846D01*
X205866D02*Y213846D01*
X205366Y211846D02*X205866D01*
X203366Y210646D02*X202866Y210146D01*
Y209146D02*Y210146D01*
Y209146D02*X203366Y208646D01*
X206866Y209146D02*X206366Y208646D01*
X206866Y209146D02*Y210146D01*
X206366Y210646D02*X206866Y210146D01*
X204666Y209146D02*Y210146D01*
X203366Y208646D02*X204166D01*
X205166D02*X206366D01*
X205166D02*X204666Y209146D01*
X204166Y208646D02*X204666Y209146D01*
M02*
