G04 start of page 7 for group -4062 idx -4062 *
G04 Title: (unknown), soldermask *
G04 Creator: pcb 1.99z *
G04 CreationDate: Thu 19 Mar 2015 06:29:06 PM GMT UTC *
G04 For: commonadmin *
G04 Format: Gerber/RS-274X *
G04 PCB-Dimensions (mil): 3000.00 2500.00 *
G04 PCB-Coordinate-Origin: lower left *
%MOIN*%
%FSLAX25Y25*%
%LNBOTTOMMASK*%
%ADD119R,0.0200X0.0200*%
%ADD118C,0.0200*%
%ADD117R,0.0572X0.0572*%
%ADD116R,0.4200X0.4200*%
%ADD115R,0.0355X0.0355*%
%ADD114R,0.0257X0.0257*%
%ADD113C,0.1517*%
%ADD112C,0.0611*%
%ADD111C,0.0651*%
%ADD110C,0.0500*%
%ADD109C,0.0887*%
%ADD108C,0.1536*%
%ADD107C,0.0851*%
%ADD106C,0.0810*%
%ADD105C,0.0610*%
%ADD104C,0.0660*%
%ADD103C,0.0001*%
G54D103*G36*
X66700Y140800D02*Y134200D01*
X73300D01*
Y140800D01*
X66700D01*
G37*
G54D104*X80000Y137500D03*
G54D103*G36*
X66700Y170300D02*Y163700D01*
X73300D01*
Y170300D01*
X66700D01*
G37*
G54D104*X80000Y167000D03*
G54D103*G36*
X70200Y114300D02*Y107700D01*
X76800D01*
Y114300D01*
X70200D01*
G37*
G36*
X110450Y110050D02*Y103950D01*
X116550D01*
Y110050D01*
X110450D01*
G37*
G54D105*X133500Y107000D03*
G54D106*X157500Y147500D03*
G54D104*X63500Y111000D03*
Y101000D03*
X53500D03*
Y111000D03*
G54D106*X258500Y116000D03*
X244000Y154500D03*
G54D107*X88000Y243500D03*
X83000Y233500D03*
X93000D03*
X98000Y243500D03*
X108000D03*
X118000D03*
X103000Y233500D03*
X113000D03*
G54D108*X78000Y208500D03*
G54D109*X69457Y196492D03*
G54D108*X123000Y208500D03*
X150500D03*
X195500D03*
G54D109*X131465Y196492D03*
X141957D03*
X203965D03*
X214457D03*
G54D107*X160500Y243500D03*
X170500D03*
X155500Y233500D03*
X165500D03*
X175500D03*
X185500D03*
G54D108*X223000Y208500D03*
X268000D03*
G54D109*X276465Y196492D03*
G54D107*X180500Y243500D03*
X190500D03*
X233000D03*
X243000D03*
X253000D03*
X263000D03*
X228000Y233500D03*
X238000D03*
X248000D03*
X258000D03*
G54D103*G36*
X253400Y163500D02*Y158500D01*
X258400D01*
Y163500D01*
X253400D01*
G37*
G54D110*X255900Y74400D03*
X248000Y161000D03*
Y74400D03*
X240100Y161000D03*
Y74400D03*
X232200Y161000D03*
X224300D03*
X216400D03*
X208500D03*
X200600D03*
X192700D03*
X184800D03*
G54D104*X73500Y101000D03*
G54D103*G36*
X70216Y77922D02*Y71322D01*
X76816D01*
Y77922D01*
X70216D01*
G37*
G54D104*X73516Y64622D03*
Y54622D03*
X83516D03*
Y64622D03*
X73516Y44622D03*
Y34622D03*
X83516D03*
Y44622D03*
Y74622D03*
G54D111*X94516Y70622D03*
Y60622D03*
Y18417D03*
Y28417D03*
G54D110*X232200Y74400D03*
X224300D03*
X216400D03*
X208500D03*
X200600D03*
X192700D03*
X184800D03*
G54D103*G36*
X184466Y15172D02*Y9072D01*
X190566D01*
Y15172D01*
X184466D01*
G37*
G54D105*X207516Y12122D03*
G54D112*X145500Y57000D03*
X135500Y62000D03*
Y52000D03*
Y42000D03*
X145500Y47000D03*
Y37000D03*
Y27000D03*
X135500Y32000D03*
G54D113*X110500Y67000D03*
Y22000D03*
G54D109*X122508Y75031D03*
Y14008D03*
G54D114*X224107Y151352D02*X224893D01*
X224107Y154500D02*X224893D01*
G54D115*X219524Y44504D02*X220508D01*
X219524Y49622D02*X220508D01*
G54D114*X199623Y28122D02*X200409D01*
X199623Y31270D02*X200409D01*
X204623Y28122D02*X205409D01*
X204623Y31270D02*X205409D01*
X219623Y28122D02*X220409D01*
X219623Y31270D02*X220409D01*
X114500Y122893D02*Y122107D01*
X111352Y122893D02*Y122107D01*
G54D115*X136016Y75114D02*Y74130D01*
X141134Y75114D02*Y74130D01*
G54D114*X146164Y69515D02*Y68729D01*
X143016Y69515D02*Y68729D01*
X135516Y69515D02*Y68729D01*
X138664Y69515D02*Y68729D01*
G54D115*X75882Y159992D02*Y159008D01*
X81000Y159992D02*Y159008D01*
X105360Y144000D02*X106344D01*
X70508Y183500D02*X71492D01*
X70508Y188618D02*X71492D01*
X76508Y183500D02*X77492D01*
X76508Y188618D02*X77492D01*
X60008Y126118D02*X60992D01*
X60008Y121000D02*X60992D01*
G54D116*X26000Y119828D02*X26500D01*
G54D115*X72118Y127992D02*Y127008D01*
X67000Y127992D02*Y127008D01*
X72118Y120992D02*Y120008D01*
X67000Y120992D02*Y120008D01*
X105360Y138882D02*X106344D01*
X68808Y146500D02*X69792D01*
X68808Y151618D02*X69792D01*
G54D117*X80607Y146400D02*X81393D01*
X80607Y153486D02*X81393D01*
G54D114*X179623Y46974D02*X180409D01*
X174623D02*X175409D01*
X179623Y50122D02*X180409D01*
X174623D02*X175409D01*
X94123Y50474D02*X94909D01*
X94123Y53622D02*X94909D01*
X154623Y28122D02*X155409D01*
X154623Y31270D02*X155409D01*
X134868Y20515D02*Y19729D01*
X97664Y13015D02*Y12229D01*
X94516Y13015D02*Y12229D01*
X138016Y20515D02*Y19729D01*
X145516Y20015D02*Y19229D01*
X142368Y20015D02*Y19229D01*
X135516Y25015D02*Y24229D01*
X138664Y25015D02*Y24229D01*
X174623Y28122D02*X175409D01*
X174623Y31270D02*X175409D01*
X179623Y28122D02*X180409D01*
X179623Y31270D02*X180409D01*
X194623Y28122D02*X195409D01*
X194623Y31270D02*X195409D01*
X154623Y42974D02*X155409D01*
X154623Y39826D02*X155409D01*
X154623Y50122D02*X155409D01*
X154623Y46974D02*X155409D01*
X145516Y64515D02*Y63729D01*
X142368Y64515D02*Y63729D01*
X97607Y217352D02*X98393D01*
X97607Y220500D02*X98393D01*
X102607Y217352D02*X103393D01*
X102607Y220500D02*X103393D01*
X97607Y210852D02*X98393D01*
X97607Y214000D02*X98393D01*
X102607Y210852D02*X103393D01*
X102607Y214000D02*X103393D01*
G54D118*X95000Y227600D02*Y224600D01*
X92400Y224500D02*X93000Y223900D01*
G54D119*Y223400D01*
G54D118*X92400Y226000D02*X93100Y226700D01*
X92400Y226200D02*X93100Y225500D01*
X92400Y224800D02*X93100Y225500D01*
X94300Y223900D02*X95000Y224600D01*
G54D119*X94300Y223900D02*Y223400D01*
G54D118*X94400Y225500D02*X95000Y224900D01*
X94400Y225500D02*X95000Y226100D01*
X94300Y228300D02*X95000Y227600D01*
X94400Y226700D02*X95000Y227300D01*
X94400Y226700D02*X95000Y226100D01*
G54D119*X94300Y229800D02*Y228300D01*
X93000Y229800D02*Y228200D01*
G54D118*X92400Y227600D02*Y224500D01*
Y227600D02*X93000Y228200D01*
X92400Y227400D02*X93100Y226700D01*
X92400Y227600D02*Y227400D01*
X100000Y227600D02*Y224600D01*
X99300Y223900D02*X100000Y224600D01*
G54D119*X99300Y223900D02*Y223400D01*
G54D118*X99400Y225500D02*X100000Y224900D01*
X99400Y225500D02*X100000Y226100D01*
X99300Y228300D02*X100000Y227600D01*
G54D119*X99300Y229800D02*Y228300D01*
G54D118*X99400Y226700D02*X100000Y227300D01*
X99400Y226700D02*X100000Y226100D01*
X97400Y227600D02*Y224500D01*
Y227600D02*Y227400D01*
Y224500D02*X98000Y223900D01*
G54D119*Y223400D01*
G54D118*X97400Y227600D02*X98000Y228200D01*
X97400Y227400D02*X98100Y226700D01*
X97400Y226000D02*X98100Y226700D01*
X97400Y226200D02*X98100Y225500D01*
X97400Y224800D02*X98100Y225500D01*
G54D119*X98000Y229800D02*Y228200D01*
G54D118*X105000Y227600D02*Y224600D01*
X104300Y223900D02*X105000Y224600D01*
X104400Y226700D02*X105000Y227300D01*
X104400Y226700D02*X105000Y226100D01*
X104400Y225500D02*X105000Y224900D01*
X104400Y225500D02*X105000Y226100D01*
G54D119*X104300Y223900D02*Y223400D01*
G54D118*X102400Y224500D02*X103000Y223900D01*
G54D119*Y223400D01*
G54D118*X102400Y224800D02*X103100Y225500D01*
X104300Y228300D02*X105000Y227600D01*
G54D119*X104300Y229800D02*Y228300D01*
G54D118*X102400Y227600D02*X103000Y228200D01*
G54D119*Y229800D02*Y228200D01*
G54D118*X102400Y227400D02*X103100Y226700D01*
X102400Y227600D02*Y227400D01*
Y227600D02*Y224500D01*
Y226000D02*X103100Y226700D01*
X102400Y226200D02*X103100Y225500D01*
G54D115*X106634Y154492D02*Y153508D01*
X111752Y154492D02*Y153508D01*
G54D114*X105104Y159493D02*Y158707D01*
X108252Y159493D02*Y158707D01*
X111752Y159493D02*Y158707D01*
X188607Y152352D02*X189393D01*
X188607Y155500D02*X189393D01*
G54D115*X141360Y124000D02*X142344D01*
X141360Y129118D02*X142344D01*
X143008Y183500D02*X143992D01*
X143008Y188618D02*X143992D01*
X149008Y183500D02*X149992D01*
X149008Y188618D02*X149992D01*
G54D114*X114900Y159493D02*Y158707D01*
X136852Y157893D02*Y157107D01*
X140000Y157893D02*Y157107D01*
X170107Y217352D02*X170893D01*
X170107Y210852D02*X170893D01*
X170107Y214000D02*X170893D01*
X175107Y210852D02*X175893D01*
X175107Y214000D02*X175893D01*
X170107Y220500D02*X170893D01*
X175107Y217352D02*X175893D01*
X175107Y220500D02*X175893D01*
G54D118*X167500Y227600D02*Y224600D01*
X166800Y228300D02*X167500Y227600D01*
G54D119*X166800Y229800D02*Y228300D01*
G54D118*X166900Y226700D02*X167500Y227300D01*
X166900Y226700D02*X167500Y226100D01*
X166900Y225500D02*X167500Y226100D01*
G54D119*X166800Y223900D02*Y223400D01*
G54D118*Y223900D02*X167500Y224600D01*
X166900Y225500D02*X167500Y224900D01*
X164900Y227600D02*Y224500D01*
X165500Y223900D01*
G54D119*Y223400D01*
G54D118*X164900Y226200D02*X165600Y225500D01*
X164900Y224800D02*X165600Y225500D01*
X164900Y227600D02*X165500Y228200D01*
G54D119*Y229800D02*Y228200D01*
G54D118*X164900Y227400D02*X165600Y226700D01*
X164900Y227600D02*Y227400D01*
Y226000D02*X165600Y226700D01*
X172500Y227600D02*Y224600D01*
X171800Y223900D02*X172500Y224600D01*
G54D119*X171800Y223900D02*Y223400D01*
G54D118*X171900Y225500D02*X172500Y224900D01*
X171900Y225500D02*X172500Y226100D01*
X171800Y228300D02*X172500Y227600D01*
G54D119*X171800Y229800D02*Y228300D01*
G54D118*X171900Y226700D02*X172500Y227300D01*
X171900Y226700D02*X172500Y226100D01*
X169900Y227600D02*Y224500D01*
Y227600D02*Y227400D01*
Y224500D02*X170500Y223900D01*
G54D119*Y223400D01*
G54D118*X169900Y227600D02*X170500Y228200D01*
X169900Y227400D02*X170600Y226700D01*
X169900Y226000D02*X170600Y226700D01*
X169900Y226200D02*X170600Y225500D01*
X169900Y224800D02*X170600Y225500D01*
G54D119*X170500Y229800D02*Y228200D01*
G54D118*X177500Y227600D02*Y224600D01*
X176800Y223900D02*X177500Y224600D01*
X176900Y226700D02*X177500Y227300D01*
X176900Y226700D02*X177500Y226100D01*
X176900Y225500D02*X177500Y224900D01*
X176900Y225500D02*X177500Y226100D01*
G54D119*X176800Y223900D02*Y223400D01*
G54D118*X174900Y224500D02*X175500Y223900D01*
G54D119*Y223400D01*
G54D118*X174900Y224800D02*X175600Y225500D01*
X176800Y228300D02*X177500Y227600D01*
G54D119*X176800Y229800D02*Y228300D01*
G54D118*X174900Y227600D02*X175500Y228200D01*
G54D119*Y229800D02*Y228200D01*
G54D118*X174900Y227400D02*X175600Y226700D01*
X174900Y227600D02*Y227400D01*
Y227600D02*Y224500D01*
Y226000D02*X175600Y226700D01*
X174900Y226200D02*X175600Y225500D01*
G54D114*X262607Y216852D02*X263393D01*
X253607Y209852D02*X254393D01*
X253607Y213000D02*X254393D01*
X253607Y216852D02*X254393D01*
X262607Y220000D02*X263393D01*
G54D115*X268008Y218500D02*X268992D01*
G54D114*X253607Y220000D02*X254393D01*
X247607Y216852D02*X248393D01*
X247607Y220000D02*X248393D01*
X247607Y209704D02*X248393D01*
X247607Y212852D02*X248393D01*
G54D118*X260000Y227100D02*Y224100D01*
X257400Y224000D02*X258000Y223400D01*
G54D119*Y222900D01*
G54D118*X257400Y225500D02*X258100Y226200D01*
X257400Y225700D02*X258100Y225000D01*
X257400Y224300D02*X258100Y225000D01*
X259300Y223400D02*X260000Y224100D01*
X259400Y225000D02*X260000Y224400D01*
X259400Y225000D02*X260000Y225600D01*
X259300Y227800D02*X260000Y227100D01*
X259400Y226200D02*X260000Y226800D01*
X259400Y226200D02*X260000Y225600D01*
X262400Y225500D02*X263100Y226200D01*
X262400Y225700D02*X263100Y225000D01*
X262400Y224300D02*X263100Y225000D01*
G54D119*X259300Y229300D02*Y227800D01*
X258000Y229300D02*Y227700D01*
X259300Y223400D02*Y222900D01*
G54D114*X259064Y200191D02*X259850D01*
X259064Y197043D02*X259850D01*
G54D118*X257400Y227100D02*Y224000D01*
Y227100D02*X258000Y227700D01*
X257400Y226900D02*X258100Y226200D01*
X257400Y227100D02*Y226900D01*
G54D114*X236607Y209852D02*X237393D01*
X236607Y213000D02*X237393D01*
X236607Y216852D02*X237393D01*
X232107Y213000D02*X232893D01*
X232107Y209852D02*X232893D01*
X242607Y209704D02*X243393D01*
X242607Y212852D02*X243393D01*
X242607Y216852D02*X243393D01*
X242607Y220000D02*X243393D01*
G54D115*X222008Y218500D02*X222992D01*
G54D114*X227607Y216852D02*X228393D01*
X227607Y220000D02*X228393D01*
X236607D02*X237393D01*
G54D118*X235000Y227100D02*Y224100D01*
X234300Y227800D02*X235000Y227100D01*
G54D119*X234300Y229300D02*Y227800D01*
G54D118*X234400Y226200D02*X235000Y226800D01*
X234400Y226200D02*X235000Y225600D01*
X234400Y225000D02*X235000Y225600D01*
X232400Y227100D02*Y224000D01*
Y227100D02*Y226900D01*
Y227100D02*X233000Y227700D01*
X232400Y226900D02*X233100Y226200D01*
X232400Y225500D02*X233100Y226200D01*
X232400Y225700D02*X233100Y225000D01*
G54D119*X233000Y229300D02*Y227700D01*
G54D115*X222008Y223618D02*X222992D01*
G54D118*X234300Y223400D02*X235000Y224100D01*
G54D119*X234300Y223400D02*Y222900D01*
G54D118*X234400Y225000D02*X235000Y224400D01*
X232400Y224000D02*X233000Y223400D01*
G54D119*Y222900D01*
G54D118*X232400Y224300D02*X233100Y225000D01*
X229300Y223400D02*X230000Y224100D01*
X229400Y225000D02*X230000Y224400D01*
X227400Y224000D02*X228000Y223400D01*
G54D119*Y222900D01*
G54D118*X227400Y224300D02*X228100Y225000D01*
X229300Y227800D02*X230000Y227100D01*
G54D119*X229300Y229300D02*Y227800D01*
G54D118*X229400Y226200D02*X230000Y226800D01*
G54D119*X228000Y229300D02*Y227700D01*
G54D118*X230000Y227100D02*Y224100D01*
G54D119*X229300Y223400D02*Y222900D01*
G54D118*X229400Y226200D02*X230000Y225600D01*
X229400Y225000D02*X230000Y225600D01*
X227400Y227100D02*Y224000D01*
Y227100D02*X228000Y227700D01*
X227400Y226900D02*X228100Y226200D01*
X227400Y227100D02*Y226900D01*
Y225500D02*X228100Y226200D01*
X227400Y225700D02*X228100Y225000D01*
X216500Y241100D02*Y238100D01*
X215800Y237400D02*X216500Y238100D01*
G54D119*X215800Y237400D02*Y236900D01*
G54D118*X215900Y239000D02*X216500Y238400D01*
X215900Y239000D02*X216500Y239600D01*
X215800Y241800D02*X216500Y241100D01*
G54D119*X215800Y243300D02*Y241800D01*
G54D118*X215900Y240200D02*X216500Y240800D01*
X215900Y240200D02*X216500Y239600D01*
X213900Y241100D02*Y238000D01*
Y241100D02*X214500Y241700D01*
G54D119*Y243300D02*Y241700D01*
G54D118*X213900Y240900D02*X214600Y240200D01*
X213900Y238000D02*X214500Y237400D01*
G54D119*Y236900D01*
G54D118*X213900Y241100D02*Y240900D01*
Y239500D02*X214600Y240200D01*
X213900Y239700D02*X214600Y239000D01*
X213900Y238300D02*X214600Y239000D01*
G54D115*X214008Y180982D02*X214992D01*
X214008Y186100D02*X214992D01*
X219008Y180982D02*X219992D01*
X219008Y186100D02*X219992D01*
X268008Y223618D02*X268992D01*
G54D118*X245000Y227100D02*Y224100D01*
X242400Y224000D02*X243000Y223400D01*
G54D119*Y222900D01*
G54D118*X242400Y225500D02*X243100Y226200D01*
X242400Y225700D02*X243100Y225000D01*
X242400Y224300D02*X243100Y225000D01*
X244300Y223400D02*X245000Y224100D01*
X244400Y225000D02*X245000Y224400D01*
X244400Y225000D02*X245000Y225600D01*
X244300Y227800D02*X245000Y227100D01*
X244400Y226200D02*X245000Y226800D01*
X244400Y226200D02*X245000Y225600D01*
G54D119*X244300Y229300D02*Y227800D01*
X243000Y229300D02*Y227700D01*
X244300Y223400D02*Y222900D01*
G54D118*X242400Y227100D02*Y224000D01*
Y227100D02*X243000Y227700D01*
X242400Y226900D02*X243100Y226200D01*
X242400Y227100D02*Y226900D01*
X250000Y227100D02*Y224100D01*
X247400Y224000D02*X248000Y223400D01*
G54D119*Y222900D01*
G54D118*X247400Y225500D02*X248100Y226200D01*
X247400Y225700D02*X248100Y225000D01*
X247400Y224300D02*X248100Y225000D01*
X249300Y223400D02*X250000Y224100D01*
X249400Y225000D02*X250000Y224400D01*
G54D119*X249300Y223400D02*Y222900D01*
G54D118*X249400Y226200D02*X250000Y226800D01*
X249400Y226200D02*X250000Y225600D01*
X249400Y225000D02*X250000Y225600D01*
X249300Y227800D02*X250000Y227100D01*
G54D119*X249300Y229300D02*Y227800D01*
X248000Y229300D02*Y227700D01*
G54D118*X247400Y227100D02*Y224000D01*
Y227100D02*X248000Y227700D01*
X247400Y226900D02*X248100Y226200D01*
X247400Y227100D02*Y226900D01*
X265000Y227100D02*Y224100D01*
X262400Y224000D02*X263000Y223400D01*
G54D119*Y222900D01*
G54D118*X264300Y223400D02*X265000Y224100D01*
X264400Y225000D02*X265000Y224400D01*
X264400Y225000D02*X265000Y225600D01*
X264300Y227800D02*X265000Y227100D01*
X264400Y226200D02*X265000Y226800D01*
X264400Y226200D02*X265000Y225600D01*
G54D119*X264300Y229300D02*Y227800D01*
X263000Y229300D02*Y227700D01*
X264300Y223400D02*Y222900D01*
G54D118*X262400Y227100D02*Y224000D01*
Y227100D02*X263000Y227700D01*
X262400Y226900D02*X263100Y226200D01*
X262400Y227100D02*Y226900D01*
M02*
