G04 start of page 12 for group -3984 idx -3984 *
G04 Title: (unknown), fab *
G04 Creator: pcb 1.99z *
G04 CreationDate: Sat 15 Nov 2014 07:16:51 AM GMT UTC *
G04 For: commonadmin *
G04 Format: Gerber/RS-274X *
G04 PCB-Dimensions (mil): 4500.00 4500.00 *
G04 PCB-Coordinate-Origin: lower left *
%MOIN*%
%FSLAX25Y25*%
%LNFAB*%
%ADD149C,0.0100*%
%ADD148C,0.0075*%
%ADD147C,0.0060*%
%ADD146R,0.0080X0.0080*%
G54D146*X121200Y418000D02*G75*G03X122800Y418000I800J0D01*G01*
G75*G03X121200Y418000I-800J0D01*G01*
X119600D02*G75*G03X124400Y418000I2400J0D01*G01*
G75*G03X119600Y418000I-2400J0D01*G01*
X76200D02*G75*G03X77800Y418000I800J0D01*G01*
G75*G03X76200Y418000I-800J0D01*G01*
X74600D02*G75*G03X79400Y418000I2400J0D01*G01*
G75*G03X74600Y418000I-2400J0D01*G01*
X265200D02*G75*G03X266800Y418000I800J0D01*G01*
G75*G03X265200Y418000I-800J0D01*G01*
X263600D02*G75*G03X268400Y418000I2400J0D01*G01*
G75*G03X263600Y418000I-2400J0D01*G01*
X220200D02*G75*G03X221800Y418000I800J0D01*G01*
G75*G03X220200Y418000I-800J0D01*G01*
X218600D02*G75*G03X223400Y418000I2400J0D01*G01*
G75*G03X218600Y418000I-2400J0D01*G01*
X193200D02*G75*G03X194800Y418000I800J0D01*G01*
G75*G03X193200Y418000I-800J0D01*G01*
X191600D02*G75*G03X196400Y418000I2400J0D01*G01*
G75*G03X191600Y418000I-2400J0D01*G01*
X148200D02*G75*G03X149800Y418000I800J0D01*G01*
G75*G03X148200Y418000I-800J0D01*G01*
X146600D02*G75*G03X151400Y418000I2400J0D01*G01*
G75*G03X146600Y418000I-2400J0D01*G01*
X14200Y461250D02*G75*G03X15800Y461250I800J0D01*G01*
G75*G03X14200Y461250I-800J0D01*G01*
X12600D02*G75*G03X17400Y461250I2400J0D01*G01*
G75*G03X12600Y461250I-2400J0D01*G01*
G54D147*X135000Y463500D02*X136500Y460500D01*
X138000Y463500D01*
X136500Y460500D02*Y457500D01*
X139800Y460800D02*X142050D01*
X139800Y457500D02*X142800D01*
X139800Y463500D02*Y457500D01*
Y463500D02*X142800D01*
X147600D02*X148350Y462750D01*
X145350Y463500D02*X147600D01*
X144600Y462750D02*X145350Y463500D01*
X144600Y462750D02*Y461250D01*
X145350Y460500D01*
X147600D01*
X148350Y459750D01*
Y458250D01*
X147600Y457500D02*X148350Y458250D01*
X145350Y457500D02*X147600D01*
X144600Y458250D02*X145350Y457500D01*
X100250Y463500D02*X101000Y462750D01*
X98750Y463500D02*X100250D01*
X98000Y462750D02*X98750Y463500D01*
X98000Y462750D02*Y458250D01*
X98750Y457500D01*
X100250Y460800D02*X101000Y460050D01*
X98000Y460800D02*X100250D01*
X98750Y457500D02*X100250D01*
X101000Y458250D01*
Y460050D02*Y458250D01*
X45000D02*X45750Y457500D01*
X45000Y462750D02*Y458250D01*
Y462750D02*X45750Y463500D01*
X47250D01*
X48000Y462750D01*
Y458250D01*
X47250Y457500D02*X48000Y458250D01*
X45750Y457500D02*X47250D01*
X45000Y459000D02*X48000Y462000D01*
X49800Y457500D02*X50550D01*
X52350Y462300D02*X53550Y463500D01*
Y457500D01*
X52350D02*X54600D01*
X56400Y462750D02*X57150Y463500D01*
X59400D01*
X60150Y462750D01*
Y461250D01*
X56400Y457500D02*X60150Y461250D01*
X56400Y457500D02*X60150D01*
X61950Y458250D02*X62700Y457500D01*
X61950Y459450D02*Y458250D01*
Y459450D02*X63000Y460500D01*
X63900D01*
X64950Y459450D01*
Y458250D01*
X64200Y457500D02*X64950Y458250D01*
X62700Y457500D02*X64200D01*
X61950Y461550D02*X63000Y460500D01*
X61950Y462750D02*Y461550D01*
Y462750D02*X62700Y463500D01*
X64200D01*
X64950Y462750D01*
Y461550D01*
X63900Y460500D02*X64950Y461550D01*
X108100Y269400D02*X112900Y264600D01*
X108100D02*X112900Y269400D01*
X108900Y268600D02*X112100D01*
X108900D02*Y265400D01*
X112100D01*
Y268600D02*Y265400D01*
X108100Y224400D02*X112900Y219600D01*
X108100D02*X112900Y224400D01*
X108900Y223600D02*X112100D01*
X108900D02*Y220400D01*
X112100D01*
Y223600D02*Y220400D01*
X12600Y478650D02*X17400Y473850D01*
X12600D02*X17400Y478650D01*
X13400Y477850D02*X16600D01*
X13400D02*Y474650D01*
X16600D01*
Y477850D02*Y474650D01*
X135000Y478500D02*X136500Y475500D01*
X138000Y478500D01*
X136500Y475500D02*Y472500D01*
X139800Y475800D02*X142050D01*
X139800Y472500D02*X142800D01*
X139800Y478500D02*Y472500D01*
Y478500D02*X142800D01*
X147600D02*X148350Y477750D01*
X145350Y478500D02*X147600D01*
X144600Y477750D02*X145350Y478500D01*
X144600Y477750D02*Y476250D01*
X145350Y475500D01*
X147600D01*
X148350Y474750D01*
Y473250D01*
X147600Y472500D02*X148350Y473250D01*
X145350Y472500D02*X147600D01*
X144600Y473250D02*X145350Y472500D01*
X98000Y477750D02*X98750Y478500D01*
X101000D01*
X101750Y477750D01*
Y476250D01*
X98000Y472500D02*X101750Y476250D01*
X98000Y472500D02*X101750D01*
X45000Y473250D02*X45750Y472500D01*
X45000Y477750D02*Y473250D01*
Y477750D02*X45750Y478500D01*
X47250D01*
X48000Y477750D01*
Y473250D01*
X47250Y472500D02*X48000Y473250D01*
X45750Y472500D02*X47250D01*
X45000Y474000D02*X48000Y477000D01*
X49800Y472500D02*X50550D01*
X52350Y477300D02*X53550Y478500D01*
Y472500D01*
X52350D02*X54600D01*
X56400Y477750D02*X57150Y478500D01*
X59400D01*
X60150Y477750D01*
Y476250D01*
X56400Y472500D02*X60150Y476250D01*
X56400Y472500D02*X60150D01*
X64200Y478500D02*X64950Y477750D01*
X62700Y478500D02*X64200D01*
X61950Y477750D02*X62700Y478500D01*
X61950Y477750D02*Y473250D01*
X62700Y472500D01*
X64200Y475800D02*X64950Y475050D01*
X61950Y475800D02*X64200D01*
X62700Y472500D02*X64200D01*
X64950Y473250D01*
Y475050D02*Y473250D01*
X130543Y433208D02*Y426808D01*
X127343Y430008D02*X133743D01*
X128943Y431608D02*X132143D01*
X128943D02*Y428408D01*
X132143D01*
Y431608D02*Y428408D01*
X68535Y433208D02*Y426808D01*
X65335Y430008D02*X71735D01*
X66935Y431608D02*X70135D01*
X66935D02*Y428408D01*
X70135D01*
Y431608D02*Y428408D01*
X274543Y433208D02*Y426808D01*
X271343Y430008D02*X277743D01*
X272943Y431608D02*X276143D01*
X272943D02*Y428408D01*
X276143D01*
Y431608D02*Y428408D01*
X212535Y433208D02*Y426808D01*
X209335Y430008D02*X215735D01*
X210935Y431608D02*X214135D01*
X210935D02*Y428408D01*
X214135D01*
Y431608D02*Y428408D01*
X202543Y433208D02*Y426808D01*
X199343Y430008D02*X205743D01*
X200943Y431608D02*X204143D01*
X200943D02*Y428408D01*
X204143D01*
Y431608D02*Y428408D01*
X140535Y433208D02*Y426808D01*
X137335Y430008D02*X143735D01*
X138935Y431608D02*X142135D01*
X138935D02*Y428408D01*
X142135D01*
Y431608D02*Y428408D01*
X122508Y278231D02*Y271831D01*
X119308Y275031D02*X125708D01*
X120908Y276631D02*X124108D01*
X120908D02*Y273431D01*
X124108D01*
Y276631D02*Y273431D01*
X122508Y217208D02*Y210808D01*
X119308Y214008D02*X125708D01*
X120908Y215608D02*X124108D01*
X120908D02*Y212408D01*
X124108D01*
Y215608D02*Y212408D01*
X15000Y494450D02*Y488050D01*
X11800Y491250D02*X18200D01*
X13400Y492850D02*X16600D01*
X13400D02*Y489650D01*
X16600D01*
Y492850D02*Y489650D01*
X135000Y493500D02*X136500Y490500D01*
X138000Y493500D01*
X136500Y490500D02*Y487500D01*
X139800Y490800D02*X142050D01*
X139800Y487500D02*X142800D01*
X139800Y493500D02*Y487500D01*
Y493500D02*X142800D01*
X147600D02*X148350Y492750D01*
X145350Y493500D02*X147600D01*
X144600Y492750D02*X145350Y493500D01*
X144600Y492750D02*Y491250D01*
X145350Y490500D01*
X147600D01*
X148350Y489750D01*
Y488250D01*
X147600Y487500D02*X148350Y488250D01*
X145350Y487500D02*X147600D01*
X144600Y488250D02*X145350Y487500D01*
X98000Y488250D02*X98750Y487500D01*
X98000Y489450D02*Y488250D01*
Y489450D02*X99050Y490500D01*
X99950D01*
X101000Y489450D01*
Y488250D01*
X100250Y487500D02*X101000Y488250D01*
X98750Y487500D02*X100250D01*
X98000Y491550D02*X99050Y490500D01*
X98000Y492750D02*Y491550D01*
Y492750D02*X98750Y493500D01*
X100250D01*
X101000Y492750D01*
Y491550D01*
X99950Y490500D02*X101000Y491550D01*
X45000Y488250D02*X45750Y487500D01*
X45000Y492750D02*Y488250D01*
Y492750D02*X45750Y493500D01*
X47250D01*
X48000Y492750D01*
Y488250D01*
X47250Y487500D02*X48000Y488250D01*
X45750Y487500D02*X47250D01*
X45000Y489000D02*X48000Y492000D01*
X49800Y487500D02*X50550D01*
X52350Y488250D02*X53100Y487500D01*
X52350Y492750D02*Y488250D01*
Y492750D02*X53100Y493500D01*
X54600D01*
X55350Y492750D01*
Y488250D01*
X54600Y487500D02*X55350Y488250D01*
X53100Y487500D02*X54600D01*
X52350Y489000D02*X55350Y492000D01*
X59400Y493500D02*X60150Y492750D01*
X57900Y493500D02*X59400D01*
X57150Y492750D02*X57900Y493500D01*
X57150Y492750D02*Y488250D01*
X57900Y487500D01*
X59400Y490800D02*X60150Y490050D01*
X57150Y490800D02*X59400D01*
X57900Y487500D02*X59400D01*
X60150Y488250D01*
Y490050D02*Y488250D01*
X61950Y492750D02*X62700Y493500D01*
X64200D01*
X64950Y492750D01*
X64200Y487500D02*X64950Y488250D01*
X62700Y487500D02*X64200D01*
X61950Y488250D02*X62700Y487500D01*
Y490800D02*X64200D01*
X64950Y492750D02*Y491550D01*
Y490050D02*Y488250D01*
Y490050D02*X64200Y490800D01*
X64950Y491550D02*X64200Y490800D01*
X258500Y316000D02*Y312800D01*
Y316000D02*X261273Y317600D01*
X258500Y316000D02*X255727Y317600D01*
X256900Y316000D02*G75*G03X260100Y316000I1600J0D01*G01*
G75*G03X256900Y316000I-1600J0D01*G01*
X157500Y347500D02*Y344300D01*
Y347500D02*X160273Y349100D01*
X157500Y347500D02*X154727Y349100D01*
X155900Y347500D02*G75*G03X159100Y347500I1600J0D01*G01*
G75*G03X155900Y347500I-1600J0D01*G01*
X244000Y354500D02*Y351300D01*
Y354500D02*X246773Y356100D01*
X244000Y354500D02*X241227Y356100D01*
X242400Y354500D02*G75*G03X245600Y354500I1600J0D01*G01*
G75*G03X242400Y354500I-1600J0D01*G01*
X15000Y506250D02*Y503050D01*
Y506250D02*X17773Y507850D01*
X15000Y506250D02*X12227Y507850D01*
X13400Y506250D02*G75*G03X16600Y506250I1600J0D01*G01*
G75*G03X13400Y506250I-1600J0D01*G01*
X135000Y508500D02*X136500Y505500D01*
X138000Y508500D01*
X136500Y505500D02*Y502500D01*
X139800Y505800D02*X142050D01*
X139800Y502500D02*X142800D01*
X139800Y508500D02*Y502500D01*
Y508500D02*X142800D01*
X147600D02*X148350Y507750D01*
X145350Y508500D02*X147600D01*
X144600Y507750D02*X145350Y508500D01*
X144600Y507750D02*Y506250D01*
X145350Y505500D01*
X147600D01*
X148350Y504750D01*
Y503250D01*
X147600Y502500D02*X148350Y503250D01*
X145350Y502500D02*X147600D01*
X144600Y503250D02*X145350Y502500D01*
X98000Y507750D02*X98750Y508500D01*
X100250D01*
X101000Y507750D01*
X100250Y502500D02*X101000Y503250D01*
X98750Y502500D02*X100250D01*
X98000Y503250D02*X98750Y502500D01*
Y505800D02*X100250D01*
X101000Y507750D02*Y506550D01*
Y505050D02*Y503250D01*
Y505050D02*X100250Y505800D01*
X101000Y506550D02*X100250Y505800D01*
X45000Y503250D02*X45750Y502500D01*
X45000Y507750D02*Y503250D01*
Y507750D02*X45750Y508500D01*
X47250D01*
X48000Y507750D01*
Y503250D01*
X47250Y502500D02*X48000Y503250D01*
X45750Y502500D02*X47250D01*
X45000Y504000D02*X48000Y507000D01*
X49800Y502500D02*X50550D01*
X52350Y503250D02*X53100Y502500D01*
X52350Y507750D02*Y503250D01*
Y507750D02*X53100Y508500D01*
X54600D01*
X55350Y507750D01*
Y503250D01*
X54600Y502500D02*X55350Y503250D01*
X53100Y502500D02*X54600D01*
X52350Y504000D02*X55350Y507000D01*
X57150Y508500D02*X60150D01*
X57150D02*Y505500D01*
X57900Y506250D01*
X59400D01*
X60150Y505500D01*
Y503250D01*
X59400Y502500D02*X60150Y503250D01*
X57900Y502500D02*X59400D01*
X57150Y503250D02*X57900Y502500D01*
X61950Y503250D02*X62700Y502500D01*
X61950Y507750D02*Y503250D01*
Y507750D02*X62700Y508500D01*
X64200D01*
X64950Y507750D01*
Y503250D01*
X64200Y502500D02*X64950Y503250D01*
X62700Y502500D02*X64200D01*
X61950Y504000D02*X64950Y507000D01*
X92916Y272222D02*X96116D01*
X92916D02*Y269022D01*
X96116D01*
Y272222D02*Y269022D01*
X92916Y220017D02*X96116D01*
X92916D02*Y216817D01*
X96116D01*
Y220017D02*Y216817D01*
X92916Y262222D02*X96116D01*
X92916D02*Y259022D01*
X96116D01*
Y262222D02*Y259022D01*
X92916Y230017D02*X96116D01*
X92916D02*Y226817D01*
X96116D01*
Y230017D02*Y226817D01*
X13400Y522850D02*X16600D01*
X13400D02*Y519650D01*
X16600D01*
Y522850D02*Y519650D01*
X135000Y523500D02*X136500Y520500D01*
X138000Y523500D01*
X136500Y520500D02*Y517500D01*
X139800Y520800D02*X142050D01*
X139800Y517500D02*X142800D01*
X139800Y523500D02*Y517500D01*
Y523500D02*X142800D01*
X147600D02*X148350Y522750D01*
X145350Y523500D02*X147600D01*
X144600Y522750D02*X145350Y523500D01*
X144600Y522750D02*Y521250D01*
X145350Y520500D01*
X147600D01*
X148350Y519750D01*
Y518250D01*
X147600Y517500D02*X148350Y518250D01*
X145350Y517500D02*X147600D01*
X144600Y518250D02*X145350Y517500D01*
X98000Y519750D02*X101000Y523500D01*
X98000Y519750D02*X101750D01*
X101000Y523500D02*Y517500D01*
X45000Y518250D02*X45750Y517500D01*
X45000Y522750D02*Y518250D01*
Y522750D02*X45750Y523500D01*
X47250D01*
X48000Y522750D01*
Y518250D01*
X47250Y517500D02*X48000Y518250D01*
X45750Y517500D02*X47250D01*
X45000Y519000D02*X48000Y522000D01*
X49800Y517500D02*X50550D01*
X52350Y518250D02*X53100Y517500D01*
X52350Y522750D02*Y518250D01*
Y522750D02*X53100Y523500D01*
X54600D01*
X55350Y522750D01*
Y518250D01*
X54600Y517500D02*X55350Y518250D01*
X53100Y517500D02*X54600D01*
X52350Y519000D02*X55350Y522000D01*
X57150Y522750D02*X57900Y523500D01*
X59400D01*
X60150Y522750D01*
X59400Y517500D02*X60150Y518250D01*
X57900Y517500D02*X59400D01*
X57150Y518250D02*X57900Y517500D01*
Y520800D02*X59400D01*
X60150Y522750D02*Y521550D01*
Y520050D02*Y518250D01*
Y520050D02*X59400Y520800D01*
X60150Y521550D02*X59400Y520800D01*
X62700Y517500D02*X64950Y520500D01*
Y522750D02*Y520500D01*
X64200Y523500D02*X64950Y522750D01*
X62700Y523500D02*X64200D01*
X61950Y522750D02*X62700Y523500D01*
X61950Y522750D02*Y521250D01*
X62700Y520500D01*
X64950D01*
X69200Y337500D02*G75*G03X70800Y337500I800J0D01*G01*
G75*G03X69200Y337500I-800J0D01*G01*
X79200D02*G75*G03X80800Y337500I800J0D01*G01*
G75*G03X79200Y337500I-800J0D01*G01*
X69200Y367000D02*G75*G03X70800Y367000I800J0D01*G01*
G75*G03X69200Y367000I-800J0D01*G01*
X79200D02*G75*G03X80800Y367000I800J0D01*G01*
G75*G03X79200Y367000I-800J0D01*G01*
X72700Y311000D02*G75*G03X74300Y311000I800J0D01*G01*
G75*G03X72700Y311000I-800J0D01*G01*
Y301000D02*G75*G03X74300Y301000I800J0D01*G01*
G75*G03X72700Y301000I-800J0D01*G01*
X62700Y311000D02*G75*G03X64300Y311000I800J0D01*G01*
G75*G03X62700Y311000I-800J0D01*G01*
Y301000D02*G75*G03X64300Y301000I800J0D01*G01*
G75*G03X62700Y301000I-800J0D01*G01*
X52700Y311000D02*G75*G03X54300Y311000I800J0D01*G01*
G75*G03X52700Y311000I-800J0D01*G01*
Y301000D02*G75*G03X54300Y301000I800J0D01*G01*
G75*G03X52700Y301000I-800J0D01*G01*
X72716Y274622D02*G75*G03X74316Y274622I800J0D01*G01*
G75*G03X72716Y274622I-800J0D01*G01*
Y264622D02*G75*G03X74316Y264622I800J0D01*G01*
G75*G03X72716Y264622I-800J0D01*G01*
Y254622D02*G75*G03X74316Y254622I800J0D01*G01*
G75*G03X72716Y254622I-800J0D01*G01*
Y244622D02*G75*G03X74316Y244622I800J0D01*G01*
G75*G03X72716Y244622I-800J0D01*G01*
Y234622D02*G75*G03X74316Y234622I800J0D01*G01*
G75*G03X72716Y234622I-800J0D01*G01*
X82716D02*G75*G03X84316Y234622I800J0D01*G01*
G75*G03X82716Y234622I-800J0D01*G01*
Y244622D02*G75*G03X84316Y244622I800J0D01*G01*
G75*G03X82716Y244622I-800J0D01*G01*
Y254622D02*G75*G03X84316Y254622I800J0D01*G01*
G75*G03X82716Y254622I-800J0D01*G01*
Y264622D02*G75*G03X84316Y264622I800J0D01*G01*
G75*G03X82716Y264622I-800J0D01*G01*
Y274622D02*G75*G03X84316Y274622I800J0D01*G01*
G75*G03X82716Y274622I-800J0D01*G01*
X14200Y536250D02*G75*G03X15800Y536250I800J0D01*G01*
G75*G03X14200Y536250I-800J0D01*G01*
X135000Y538500D02*X136500Y535500D01*
X138000Y538500D01*
X136500Y535500D02*Y532500D01*
X139800Y535800D02*X142050D01*
X139800Y532500D02*X142800D01*
X139800Y538500D02*Y532500D01*
Y538500D02*X142800D01*
X147600D02*X148350Y537750D01*
X145350Y538500D02*X147600D01*
X144600Y537750D02*X145350Y538500D01*
X144600Y537750D02*Y536250D01*
X145350Y535500D01*
X147600D01*
X148350Y534750D01*
Y533250D01*
X147600Y532500D02*X148350Y533250D01*
X145350Y532500D02*X147600D01*
X144600Y533250D02*X145350Y532500D01*
X98000Y537750D02*X98750Y538500D01*
X101000D01*
X101750Y537750D01*
Y536250D01*
X98000Y532500D02*X101750Y536250D01*
X98000Y532500D02*X101750D01*
X103550Y533250D02*X104300Y532500D01*
X103550Y537750D02*Y533250D01*
Y537750D02*X104300Y538500D01*
X105800D01*
X106550Y537750D01*
Y533250D01*
X105800Y532500D02*X106550Y533250D01*
X104300Y532500D02*X105800D01*
X103550Y534000D02*X106550Y537000D01*
X45000Y533250D02*X45750Y532500D01*
X45000Y537750D02*Y533250D01*
Y537750D02*X45750Y538500D01*
X47250D01*
X48000Y537750D01*
Y533250D01*
X47250Y532500D02*X48000Y533250D01*
X45750Y532500D02*X47250D01*
X45000Y534000D02*X48000Y537000D01*
X49800Y532500D02*X50550D01*
X52350Y533250D02*X53100Y532500D01*
X52350Y537750D02*Y533250D01*
Y537750D02*X53100Y538500D01*
X54600D01*
X55350Y537750D01*
Y533250D01*
X54600Y532500D02*X55350Y533250D01*
X53100Y532500D02*X54600D01*
X52350Y534000D02*X55350Y537000D01*
X57150Y537750D02*X57900Y538500D01*
X59400D01*
X60150Y537750D01*
X59400Y532500D02*X60150Y533250D01*
X57900Y532500D02*X59400D01*
X57150Y533250D02*X57900Y532500D01*
Y535800D02*X59400D01*
X60150Y537750D02*Y536550D01*
Y535050D02*Y533250D01*
Y535050D02*X59400Y535800D01*
X60150Y536550D02*X59400Y535800D01*
X61950Y533250D02*X62700Y532500D01*
X61950Y534450D02*Y533250D01*
Y534450D02*X63000Y535500D01*
X63900D01*
X64950Y534450D01*
Y533250D01*
X64200Y532500D02*X64950Y533250D01*
X62700Y532500D02*X64200D01*
X61950Y536550D02*X63000Y535500D01*
X61950Y537750D02*Y536550D01*
Y537750D02*X62700Y538500D01*
X64200D01*
X64950Y537750D01*
Y536550D01*
X63900Y535500D02*X64950Y536550D01*
X110800Y384200D02*X113200Y381800D01*
X110800D02*X113200Y384200D01*
X100800D02*X103200Y381800D01*
X100800D02*X103200Y384200D01*
X90800D02*X93200Y381800D01*
X90800D02*X93200Y384200D01*
X80800D02*X83200Y381800D01*
X80800D02*X83200Y384200D01*
X115800Y394200D02*X118200Y391800D01*
X115800D02*X118200Y394200D01*
X105800D02*X108200Y391800D01*
X105800D02*X108200Y394200D01*
X95800D02*X98200Y391800D01*
X95800D02*X98200Y394200D01*
X85800D02*X88200Y391800D01*
X85800D02*X88200Y394200D01*
X254800Y384200D02*X257200Y381800D01*
X254800D02*X257200Y384200D01*
X244800D02*X247200Y381800D01*
X244800D02*X247200Y384200D01*
X234800D02*X237200Y381800D01*
X234800D02*X237200Y384200D01*
X224800D02*X227200Y381800D01*
X224800D02*X227200Y384200D01*
X259800Y394200D02*X262200Y391800D01*
X259800D02*X262200Y394200D01*
X249800D02*X252200Y391800D01*
X249800D02*X252200Y394200D01*
X239800D02*X242200Y391800D01*
X239800D02*X242200Y394200D01*
X229800D02*X232200Y391800D01*
X229800D02*X232200Y394200D01*
X182800Y384200D02*X185200Y381800D01*
X182800D02*X185200Y384200D01*
X172800D02*X175200Y381800D01*
X172800D02*X175200Y384200D01*
X162800D02*X165200Y381800D01*
X162800D02*X165200Y384200D01*
X152800D02*X155200Y381800D01*
X152800D02*X155200Y384200D01*
X187800Y394200D02*X190200Y391800D01*
X187800D02*X190200Y394200D01*
X177800D02*X180200Y391800D01*
X177800D02*X180200Y394200D01*
X167800D02*X170200Y391800D01*
X167800D02*X170200Y394200D01*
X157800D02*X160200Y391800D01*
X157800D02*X160200Y394200D01*
X144300Y258200D02*X146700Y255800D01*
X144300D02*X146700Y258200D01*
X144300Y248200D02*X146700Y245800D01*
X144300D02*X146700Y248200D01*
X144300Y238200D02*X146700Y235800D01*
X144300D02*X146700Y238200D01*
X144300Y228200D02*X146700Y225800D01*
X144300D02*X146700Y228200D01*
X134300Y263200D02*X136700Y260800D01*
X134300D02*X136700Y263200D01*
X134300Y253200D02*X136700Y250800D01*
X134300D02*X136700Y253200D01*
X134300Y243200D02*X136700Y240800D01*
X134300D02*X136700Y243200D01*
X134300Y233200D02*X136700Y230800D01*
X134300D02*X136700Y233200D01*
X13800Y552450D02*X16200Y550050D01*
X13800D02*X16200Y552450D01*
X135000Y553500D02*X136500Y550500D01*
X138000Y553500D01*
X136500Y550500D02*Y547500D01*
X139800Y550800D02*X142050D01*
X139800Y547500D02*X142800D01*
X139800Y553500D02*Y547500D01*
Y553500D02*X142800D01*
X147600D02*X148350Y552750D01*
X145350Y553500D02*X147600D01*
X144600Y552750D02*X145350Y553500D01*
X144600Y552750D02*Y551250D01*
X145350Y550500D01*
X147600D01*
X148350Y549750D01*
Y548250D01*
X147600Y547500D02*X148350Y548250D01*
X145350Y547500D02*X147600D01*
X144600Y548250D02*X145350Y547500D01*
X98000Y552750D02*X98750Y553500D01*
X100250D01*
X101000Y552750D01*
X100250Y547500D02*X101000Y548250D01*
X98750Y547500D02*X100250D01*
X98000Y548250D02*X98750Y547500D01*
Y550800D02*X100250D01*
X101000Y552750D02*Y551550D01*
Y550050D02*Y548250D01*
Y550050D02*X100250Y550800D01*
X101000Y551550D02*X100250Y550800D01*
X102800Y552750D02*X103550Y553500D01*
X105800D01*
X106550Y552750D01*
Y551250D01*
X102800Y547500D02*X106550Y551250D01*
X102800Y547500D02*X106550D01*
X45000Y548250D02*X45750Y547500D01*
X45000Y552750D02*Y548250D01*
Y552750D02*X45750Y553500D01*
X47250D01*
X48000Y552750D01*
Y548250D01*
X47250Y547500D02*X48000Y548250D01*
X45750Y547500D02*X47250D01*
X45000Y549000D02*X48000Y552000D01*
X49800Y547500D02*X50550D01*
X52350Y548250D02*X53100Y547500D01*
X52350Y552750D02*Y548250D01*
Y552750D02*X53100Y553500D01*
X54600D01*
X55350Y552750D01*
Y548250D01*
X54600Y547500D02*X55350Y548250D01*
X53100Y547500D02*X54600D01*
X52350Y549000D02*X55350Y552000D01*
X57150Y552750D02*X57900Y553500D01*
X59400D01*
X60150Y552750D01*
X59400Y547500D02*X60150Y548250D01*
X57900Y547500D02*X59400D01*
X57150Y548250D02*X57900Y547500D01*
Y550800D02*X59400D01*
X60150Y552750D02*Y551550D01*
Y550050D02*Y548250D01*
Y550050D02*X59400Y550800D01*
X60150Y551550D02*X59400Y550800D01*
X61950Y553500D02*X64950D01*
X61950D02*Y550500D01*
X62700Y551250D01*
X64200D01*
X64950Y550500D01*
Y548250D01*
X64200Y547500D02*X64950Y548250D01*
X62700Y547500D02*X64200D01*
X61950Y548250D02*X62700Y547500D01*
X113500Y308600D02*Y305400D01*
X111900Y307000D02*X115100D01*
X133500Y308600D02*Y305400D01*
X131900Y307000D02*X135100D01*
X255900Y362600D02*Y359400D01*
X254300Y361000D02*X257500D01*
X255900Y276000D02*Y272800D01*
X254300Y274400D02*X257500D01*
X248000Y362600D02*Y359400D01*
X246400Y361000D02*X249600D01*
X248000Y276000D02*Y272800D01*
X246400Y274400D02*X249600D01*
X240100Y362600D02*Y359400D01*
X238500Y361000D02*X241700D01*
X240100Y276000D02*Y272800D01*
X238500Y274400D02*X241700D01*
X232200Y362600D02*Y359400D01*
X230600Y361000D02*X233800D01*
X232200Y276000D02*Y272800D01*
X230600Y274400D02*X233800D01*
X224300Y362600D02*Y359400D01*
X222700Y361000D02*X225900D01*
X224300Y276000D02*Y272800D01*
X222700Y274400D02*X225900D01*
X216400Y362600D02*Y359400D01*
X214800Y361000D02*X218000D01*
X216400Y276000D02*Y272800D01*
X214800Y274400D02*X218000D01*
X208500Y362600D02*Y359400D01*
X206900Y361000D02*X210100D01*
X208500Y276000D02*Y272800D01*
X206900Y274400D02*X210100D01*
X200600Y362600D02*Y359400D01*
X199000Y361000D02*X202200D01*
X200600Y276000D02*Y272800D01*
X199000Y274400D02*X202200D01*
X192700Y362600D02*Y359400D01*
X191100Y361000D02*X194300D01*
X192700Y276000D02*Y272800D01*
X191100Y274400D02*X194300D01*
X184800Y362600D02*Y359400D01*
X183200Y361000D02*X186400D01*
X184800Y276000D02*Y272800D01*
X183200Y274400D02*X186400D01*
X187516Y213722D02*Y210522D01*
X185916Y212122D02*X189116D01*
X207516Y213722D02*Y210522D01*
X205916Y212122D02*X209116D01*
X15000Y567850D02*Y564650D01*
X13400Y566250D02*X16600D01*
X135000Y568500D02*X136500Y565500D01*
X138000Y568500D01*
X136500Y565500D02*Y562500D01*
X139800Y565800D02*X142050D01*
X139800Y562500D02*X142800D01*
X139800Y568500D02*Y562500D01*
Y568500D02*X142800D01*
X147600D02*X148350Y567750D01*
X145350Y568500D02*X147600D01*
X144600Y567750D02*X145350Y568500D01*
X144600Y567750D02*Y566250D01*
X145350Y565500D01*
X147600D01*
X148350Y564750D01*
Y563250D01*
X147600Y562500D02*X148350Y563250D01*
X145350Y562500D02*X147600D01*
X144600Y563250D02*X145350Y562500D01*
X98000Y567750D02*X98750Y568500D01*
X101000D01*
X101750Y567750D01*
Y566250D01*
X98000Y562500D02*X101750Y566250D01*
X98000Y562500D02*X101750D01*
X103550Y564750D02*X106550Y568500D01*
X103550Y564750D02*X107300D01*
X106550Y568500D02*Y562500D01*
X45000Y563250D02*X45750Y562500D01*
X45000Y567750D02*Y563250D01*
Y567750D02*X45750Y568500D01*
X47250D01*
X48000Y567750D01*
Y563250D01*
X47250Y562500D02*X48000Y563250D01*
X45750Y562500D02*X47250D01*
X45000Y564000D02*X48000Y567000D01*
X49800Y562500D02*X50550D01*
X52350Y563250D02*X53100Y562500D01*
X52350Y567750D02*Y563250D01*
Y567750D02*X53100Y568500D01*
X54600D01*
X55350Y567750D01*
Y563250D01*
X54600Y562500D02*X55350Y563250D01*
X53100Y562500D02*X54600D01*
X52350Y564000D02*X55350Y567000D01*
X57150Y567750D02*X57900Y568500D01*
X59400D01*
X60150Y567750D01*
X59400Y562500D02*X60150Y563250D01*
X57900Y562500D02*X59400D01*
X57150Y563250D02*X57900Y562500D01*
Y565800D02*X59400D01*
X60150Y567750D02*Y566550D01*
Y565050D02*Y563250D01*
Y565050D02*X59400Y565800D01*
X60150Y566550D02*X59400Y565800D01*
X61950Y563250D02*X62700Y562500D01*
X61950Y567750D02*Y563250D01*
Y567750D02*X62700Y568500D01*
X64200D01*
X64950Y567750D01*
Y563250D01*
X64200Y562500D02*X64950Y563250D01*
X62700Y562500D02*X64200D01*
X61950Y564000D02*X64950Y567000D01*
X68500Y327500D02*Y325900D01*
Y327500D02*X69887Y328300D01*
X68500Y327500D02*X67113Y328300D01*
X68500Y320500D02*Y318900D01*
Y320500D02*X69887Y321300D01*
X68500Y320500D02*X67113Y321300D01*
X111752Y361400D02*Y359800D01*
Y361400D02*X113139Y362200D01*
X111752Y361400D02*X110365Y362200D01*
X115152Y361400D02*Y359800D01*
Y361400D02*X116539Y362200D01*
X115152Y361400D02*X113765Y362200D01*
X108352Y361400D02*Y359800D01*
Y361400D02*X109739Y362200D01*
X108352Y361400D02*X106965Y362200D01*
X103352Y344000D02*Y342400D01*
Y344000D02*X104739Y344800D01*
X103352Y344000D02*X101965Y344800D01*
X103352Y340500D02*Y338900D01*
Y340500D02*X104739Y341300D01*
X103352Y340500D02*X101965Y341300D01*
X111352Y320000D02*Y318400D01*
Y320000D02*X112739Y320800D01*
X111352Y320000D02*X109965Y320800D01*
X114852Y320000D02*Y318400D01*
Y320000D02*X116239Y320800D01*
X114852Y320000D02*X113465Y320800D01*
X144852Y328000D02*Y326400D01*
Y328000D02*X146239Y328800D01*
X144852Y328000D02*X143465Y328800D01*
X49000Y334500D02*Y332900D01*
Y334500D02*X50387Y335300D01*
X49000Y334500D02*X47613Y335300D01*
X55000Y337500D02*Y335900D01*
Y337500D02*X56387Y338300D01*
X55000Y337500D02*X53613Y338300D01*
X81000Y346400D02*Y344800D01*
Y346400D02*X82387Y347200D01*
X81000Y346400D02*X79613Y347200D01*
X81000Y352500D02*Y350900D01*
Y352500D02*X82387Y353300D01*
X81000Y352500D02*X79613Y353300D01*
X81000Y358600D02*Y357000D01*
Y358600D02*X82387Y359400D01*
X81000Y358600D02*X79613Y359400D01*
X87500Y349000D02*Y347400D01*
Y349000D02*X88887Y349800D01*
X87500Y349000D02*X86113Y349800D01*
X79000Y327500D02*Y325900D01*
Y327500D02*X80387Y328300D01*
X79000Y327500D02*X77613Y328300D01*
X103500Y360000D02*Y358400D01*
Y360000D02*X104887Y360800D01*
X103500Y360000D02*X102113Y360800D01*
X118500Y320000D02*Y318400D01*
Y320000D02*X119887Y320800D01*
X118500Y320000D02*X117113Y320800D01*
X145000Y323500D02*Y321900D01*
Y323500D02*X146387Y324300D01*
X145000Y323500D02*X143613Y324300D01*
X140500Y361000D02*Y359400D01*
Y361000D02*X141887Y361800D01*
X140500Y361000D02*X139113Y361800D01*
X106000Y371000D02*Y369400D01*
Y371000D02*X107387Y371800D01*
X106000Y371000D02*X104613Y371800D01*
X123500Y303000D02*Y301400D01*
Y303000D02*X124887Y303800D01*
X123500Y303000D02*X122113Y303800D01*
X96000Y337500D02*Y335900D01*
Y337500D02*X97387Y338300D01*
X96000Y337500D02*X94613Y338300D01*
X90000Y344000D02*Y342400D01*
Y344000D02*X91387Y344800D01*
X90000Y344000D02*X88613Y344800D01*
X120000Y349500D02*Y347900D01*
Y349500D02*X121387Y350300D01*
X120000Y349500D02*X118613Y350300D01*
X109500Y350000D02*Y348400D01*
Y350000D02*X110887Y350800D01*
X109500Y350000D02*X108113Y350800D01*
X58000Y321000D02*Y319400D01*
Y321000D02*X59387Y321800D01*
X58000Y321000D02*X56613Y321800D01*
X42500Y318500D02*Y316900D01*
Y318500D02*X43887Y319300D01*
X42500Y318500D02*X41113Y319300D01*
X86500Y322000D02*Y320400D01*
Y322000D02*X87887Y322800D01*
X86500Y322000D02*X85113Y322800D01*
X97500Y316500D02*Y314900D01*
Y316500D02*X98887Y317300D01*
X97500Y316500D02*X96113Y317300D01*
X142000Y373000D02*Y371400D01*
Y373000D02*X143387Y373800D01*
X142000Y373000D02*X140613Y373800D01*
X147000Y362500D02*Y360900D01*
Y362500D02*X148387Y363300D01*
X147000Y362500D02*X145613Y363300D01*
X121500Y336000D02*Y334400D01*
Y336000D02*X122887Y336800D01*
X121500Y336000D02*X120113Y336800D01*
X135000Y347500D02*Y345900D01*
Y347500D02*X136387Y348300D01*
X135000Y347500D02*X133613Y348300D01*
X130500Y357000D02*Y355400D01*
Y357000D02*X131887Y357800D01*
X130500Y357000D02*X129113Y357800D01*
X90000Y405000D02*Y403400D01*
Y405000D02*X91387Y405800D01*
X90000Y405000D02*X88613Y405800D01*
X99500Y405000D02*Y403400D01*
Y405000D02*X100887Y405800D01*
X99500Y405000D02*X98113Y405800D01*
X107500Y442500D02*Y440900D01*
Y442500D02*X108887Y443300D01*
X107500Y442500D02*X106113Y443300D01*
X114500Y442500D02*Y440900D01*
Y442500D02*X115887Y443300D01*
X114500Y442500D02*X113113Y443300D01*
X92500Y398500D02*Y396900D01*
Y398500D02*X93887Y399300D01*
X92500Y398500D02*X91113Y399300D01*
X106500Y398352D02*Y396752D01*
Y398352D02*X107887Y399152D01*
X106500Y398352D02*X105113Y399152D01*
X110500Y397500D02*Y395900D01*
Y397500D02*X111887Y398300D01*
X110500Y397500D02*X109113Y398300D01*
X273543Y400008D02*Y398408D01*
Y400008D02*X274930Y400808D01*
X273543Y400008D02*X272157Y400808D01*
X251043Y411008D02*Y409408D01*
Y411008D02*X252430Y411808D01*
X251043Y411008D02*X249657Y411808D01*
X222500Y398000D02*Y396400D01*
Y398000D02*X223887Y398800D01*
X222500Y398000D02*X221113Y398800D01*
X263000Y398000D02*Y396400D01*
Y398000D02*X264387Y398800D01*
X263000Y398000D02*X261613Y398800D01*
X231000Y411000D02*Y409400D01*
Y411000D02*X232387Y411800D01*
X231000Y411000D02*X229613Y411800D01*
X241000Y411000D02*Y409400D01*
Y411000D02*X242387Y411800D01*
X241000Y411000D02*X239613Y411800D01*
X246000Y411000D02*Y409400D01*
Y411000D02*X247387Y411800D01*
X246000Y411000D02*X244613Y411800D01*
X256000Y410500D02*Y408900D01*
Y410500D02*X257387Y411300D01*
X256000Y410500D02*X254613Y411300D01*
X217500Y398400D02*Y396800D01*
Y398400D02*X218887Y399200D01*
X217500Y398400D02*X216113Y399200D01*
X271500Y391900D02*Y390300D01*
Y391900D02*X272887Y392700D01*
X271500Y391900D02*X270113Y392700D01*
X263000Y445400D02*Y443800D01*
Y445400D02*X264387Y446200D01*
X263000Y445400D02*X261613Y446200D01*
X162000Y405000D02*Y403400D01*
Y405000D02*X163387Y405800D01*
X162000Y405000D02*X160613Y405800D01*
X171500Y405000D02*Y403400D01*
Y405000D02*X172887Y405800D01*
X171500Y405000D02*X170113Y405800D01*
X179500Y442500D02*Y440900D01*
Y442500D02*X180887Y443300D01*
X179500Y442500D02*X178113Y443300D01*
X186500Y442500D02*Y440900D01*
Y442500D02*X187887Y443300D01*
X186500Y442500D02*X185113Y443300D01*
X164500Y398500D02*Y396900D01*
Y398500D02*X165887Y399300D01*
X164500Y398500D02*X163113Y399300D01*
X178500Y398352D02*Y396752D01*
Y398352D02*X179887Y399152D01*
X178500Y398352D02*X177113Y399152D01*
X182500Y397500D02*Y395900D01*
Y397500D02*X183887Y398300D01*
X182500Y397500D02*X181113Y398300D01*
X205000Y306000D02*Y304400D01*
Y306000D02*X206387Y306800D01*
X205000Y306000D02*X203613Y306800D01*
X218500Y343500D02*Y341900D01*
Y343500D02*X219887Y344300D01*
X218500Y343500D02*X217113Y344300D01*
X221500Y346500D02*Y344900D01*
Y346500D02*X222887Y347300D01*
X221500Y346500D02*X220113Y347300D01*
X234500Y353000D02*Y351400D01*
Y353000D02*X235887Y353800D01*
X234500Y353000D02*X233113Y353800D01*
X234500Y349000D02*Y347400D01*
Y349000D02*X235887Y349800D01*
X234500Y349000D02*X233113Y349800D01*
X228000Y357500D02*Y355900D01*
Y357500D02*X229387Y358300D01*
X228000Y357500D02*X226613Y358300D01*
X175000Y328500D02*Y326900D01*
Y328500D02*X176387Y329300D01*
X175000Y328500D02*X173613Y329300D01*
X180000Y328500D02*Y326900D01*
Y328500D02*X181387Y329300D01*
X180000Y328500D02*X178613Y329300D01*
X175000Y337500D02*Y335900D01*
Y337500D02*X176387Y338300D01*
X175000Y337500D02*X173613Y338300D01*
X180000Y337500D02*Y335900D01*
Y337500D02*X181387Y338300D01*
X180000Y337500D02*X178613Y338300D01*
X158000Y333000D02*Y331400D01*
Y333000D02*X159387Y333800D01*
X158000Y333000D02*X156613Y333800D01*
X255000Y370000D02*Y368400D01*
Y370000D02*X256387Y370800D01*
X255000Y370000D02*X253613Y370800D01*
X261000Y362500D02*Y360900D01*
Y362500D02*X262387Y363300D01*
X261000Y362500D02*X259613Y363300D01*
X189000Y350500D02*Y348900D01*
Y350500D02*X190387Y351300D01*
X189000Y350500D02*X187613Y351300D01*
X160000Y312500D02*Y310900D01*
Y312500D02*X161387Y313300D01*
X160000Y312500D02*X158613Y313300D01*
X160000Y362500D02*Y360900D01*
Y362500D02*X161387Y363300D01*
X160000Y362500D02*X158613Y363300D01*
X252000Y314000D02*Y312400D01*
Y314000D02*X253387Y314800D01*
X252000Y314000D02*X250613Y314800D01*
X225000Y313500D02*Y311900D01*
Y313500D02*X226387Y314300D01*
X225000Y313500D02*X223613Y314300D01*
X204500Y358000D02*Y356400D01*
Y358000D02*X205887Y358800D01*
X204500Y358000D02*X203113Y358800D01*
X200000Y370000D02*Y368400D01*
Y370000D02*X201387Y370800D01*
X200000Y370000D02*X198613Y370800D01*
X265000Y343000D02*Y341400D01*
Y343000D02*X266387Y343800D01*
X265000Y343000D02*X263613Y343800D01*
X265000Y333000D02*Y331400D01*
Y333000D02*X266387Y333800D01*
X265000Y333000D02*X263613Y333800D01*
X257000Y333000D02*Y331400D01*
Y333000D02*X258387Y333800D01*
X257000Y333000D02*X255613Y333800D01*
X257000Y343000D02*Y341400D01*
Y343000D02*X258387Y343800D01*
X257000Y343000D02*X255613Y343800D01*
X257000Y353000D02*Y351400D01*
Y353000D02*X258387Y353800D01*
X257000Y353000D02*X255613Y353800D01*
X257000Y323000D02*Y321400D01*
Y323000D02*X258387Y323800D01*
X257000Y323000D02*X255613Y323800D01*
X257000Y328000D02*Y326400D01*
Y328000D02*X258387Y328800D01*
X257000Y328000D02*X255613Y328800D01*
X257000Y348000D02*Y346400D01*
Y348000D02*X258387Y348800D01*
X257000Y348000D02*X255613Y348800D01*
X205000Y291000D02*Y289400D01*
Y291000D02*X206387Y291800D01*
X205000Y291000D02*X203613Y291800D01*
X199500Y287000D02*Y285400D01*
Y287000D02*X200887Y287800D01*
X199500Y287000D02*X198113Y287800D01*
X190000Y370000D02*Y368400D01*
Y370000D02*X191387Y370800D01*
X190000Y370000D02*X188613Y370800D01*
X195000Y370000D02*Y368400D01*
Y370000D02*X196387Y370800D01*
X195000Y370000D02*X193613Y370800D01*
X180000Y345500D02*Y343900D01*
Y345500D02*X181387Y346300D01*
X180000Y345500D02*X178613Y346300D01*
X175000Y345500D02*Y343900D01*
Y345500D02*X176387Y346300D01*
X175000Y345500D02*X173613Y346300D01*
X175000Y356000D02*Y354400D01*
Y356000D02*X176387Y356800D01*
X175000Y356000D02*X173613Y356800D01*
X180000Y356000D02*Y354400D01*
Y356000D02*X181387Y356800D01*
X180000Y356000D02*X178613Y356800D01*
X180000Y370000D02*Y368400D01*
Y370000D02*X181387Y370800D01*
X180000Y370000D02*X178613Y370800D01*
X175000Y370000D02*Y368400D01*
Y370000D02*X176387Y370800D01*
X175000Y370000D02*X173613Y370800D01*
X165000Y370000D02*Y368400D01*
Y370000D02*X166387Y370800D01*
X165000Y370000D02*X163613Y370800D01*
X170000Y370000D02*Y368400D01*
Y370000D02*X171387Y370800D01*
X170000Y370000D02*X168613Y370800D01*
X109516Y257122D02*Y255522D01*
Y257122D02*X110902Y257922D01*
X109516Y257122D02*X108129Y257922D01*
X130016Y247122D02*Y245522D01*
Y247122D02*X131402Y247922D01*
X130016Y247122D02*X128629Y247922D01*
X190016Y252122D02*Y250522D01*
Y252122D02*X191402Y252922D01*
X190016Y252122D02*X188629Y252922D01*
X131516Y267122D02*Y265522D01*
Y267122D02*X132902Y267922D01*
X131516Y267122D02*X130129Y267922D01*
X100016Y212622D02*Y211022D01*
Y212622D02*X101402Y213422D01*
X100016Y212622D02*X98629Y213422D01*
X94516Y248122D02*Y246522D01*
Y248122D02*X95902Y248922D01*
X94516Y248122D02*X93129Y248922D01*
X129516Y225622D02*Y224022D01*
Y225622D02*X130902Y226422D01*
X129516Y225622D02*X128129Y226422D01*
X134516Y212622D02*Y211022D01*
Y212622D02*X135902Y213422D01*
X134516Y212622D02*X133129Y213422D01*
X131016Y212122D02*Y210522D01*
Y212122D02*X132402Y212922D01*
X131016Y212122D02*X129629Y212922D01*
X220016Y252122D02*Y250522D01*
Y252122D02*X221402Y252922D01*
X220016Y252122D02*X218629Y252922D01*
X180016Y252122D02*Y250522D01*
Y252122D02*X181402Y252922D01*
X180016Y252122D02*X178629Y252922D01*
X175016Y252122D02*Y250522D01*
Y252122D02*X176402Y252922D01*
X175016Y252122D02*X173629Y252922D01*
X155016Y252122D02*Y250522D01*
Y252122D02*X156402Y252922D01*
X155016Y252122D02*X153629Y252922D01*
X155016Y226122D02*Y224522D01*
Y226122D02*X156402Y226922D01*
X155016Y226122D02*X153629Y226922D01*
X180016Y226122D02*Y224522D01*
Y226122D02*X181402Y226922D01*
X180016Y226122D02*X178629Y226922D01*
X195016Y226122D02*Y224522D01*
Y226122D02*X196402Y226922D01*
X195016Y226122D02*X193629Y226922D01*
X200016Y226122D02*Y224522D01*
Y226122D02*X201402Y226922D01*
X200016Y226122D02*X198629Y226922D01*
X205016Y226122D02*Y224522D01*
Y226122D02*X206402Y226922D01*
X205016Y226122D02*X203629Y226922D01*
X220016Y226122D02*Y224522D01*
Y226122D02*X221402Y226922D01*
X220016Y226122D02*X218629Y226922D01*
X177516Y246622D02*Y245022D01*
Y246622D02*X178902Y247422D01*
X177516Y246622D02*X176129Y247422D01*
X220016Y242122D02*Y240522D01*
Y242122D02*X221402Y242922D01*
X220016Y242122D02*X218629Y242922D01*
X220016Y233122D02*Y231522D01*
Y233122D02*X221402Y233922D01*
X220016Y233122D02*X218629Y233922D01*
X190016Y226122D02*Y224522D01*
Y226122D02*X191402Y226922D01*
X190016Y226122D02*X188629Y226922D01*
X155016Y233122D02*Y231522D01*
Y233122D02*X156402Y233922D01*
X155016Y233122D02*X153629Y233922D01*
X155016Y237622D02*Y236022D01*
Y237622D02*X156402Y238422D01*
X155016Y237622D02*X153629Y238422D01*
X175016Y226122D02*Y224522D01*
Y226122D02*X176402Y226922D01*
X175016Y226122D02*X173629Y226922D01*
X180016Y233122D02*Y231522D01*
Y233122D02*X181402Y233922D01*
X180016Y233122D02*X178629Y233922D01*
X175016Y233122D02*Y231522D01*
Y233122D02*X176402Y233922D01*
X175016Y233122D02*X173629Y233922D01*
X205016Y233122D02*Y231522D01*
Y233122D02*X206402Y233922D01*
X205016Y233122D02*X203629Y233922D01*
X200016Y233122D02*Y231522D01*
Y233122D02*X201402Y233922D01*
X200016Y233122D02*X198629Y233922D01*
X195016Y233122D02*Y231522D01*
Y233122D02*X196402Y233922D01*
X195016Y233122D02*X193629Y233922D01*
X215016Y252122D02*Y250522D01*
Y252122D02*X216402Y252922D01*
X215016Y252122D02*X213629Y252922D01*
X185016Y226122D02*Y224522D01*
Y226122D02*X186402Y226922D01*
X185016Y226122D02*X183629Y226922D01*
X170016Y252122D02*Y250522D01*
Y252122D02*X171402Y252922D01*
X170016Y252122D02*X168629Y252922D01*
X170016Y226122D02*Y224522D01*
Y226122D02*X171402Y226922D01*
X170016Y226122D02*X168629Y226922D01*
X160016Y252122D02*Y250522D01*
Y252122D02*X161402Y252922D01*
X160016Y252122D02*X158629Y252922D01*
X215016Y226122D02*Y224522D01*
Y226122D02*X216402Y226922D01*
X215016Y226122D02*X213629Y226922D01*
X210016Y226122D02*Y224522D01*
Y226122D02*X211402Y226922D01*
X210016Y226122D02*X208629Y226922D01*
X146016Y271622D02*Y270022D01*
Y271622D02*X147402Y272422D01*
X146016Y271622D02*X144629Y272422D01*
X133516Y218122D02*Y216522D01*
Y218122D02*X134902Y218922D01*
X133516Y218122D02*X132129Y218922D01*
X15000Y581250D02*Y579650D01*
Y581250D02*X16387Y582050D01*
X15000Y581250D02*X13613Y582050D01*
X135000Y583500D02*X136500Y580500D01*
X138000Y583500D01*
X136500Y580500D02*Y577500D01*
X139800Y580800D02*X142050D01*
X139800Y577500D02*X142800D01*
X139800Y583500D02*Y577500D01*
Y583500D02*X142800D01*
X147600D02*X148350Y582750D01*
X145350Y583500D02*X147600D01*
X144600Y582750D02*X145350Y583500D01*
X144600Y582750D02*Y581250D01*
X145350Y580500D01*
X147600D01*
X148350Y579750D01*
Y578250D01*
X147600Y577500D02*X148350Y578250D01*
X145350Y577500D02*X147600D01*
X144600Y578250D02*X145350Y577500D01*
X98000Y582300D02*X99200Y583500D01*
Y577500D01*
X98000D02*X100250D01*
X102050Y579750D02*X105050Y583500D01*
X102050Y579750D02*X105800D01*
X105050Y583500D02*Y577500D01*
X107600Y582300D02*X108800Y583500D01*
Y577500D01*
X107600D02*X109850D01*
X45000Y578250D02*X45750Y577500D01*
X45000Y582750D02*Y578250D01*
Y582750D02*X45750Y583500D01*
X47250D01*
X48000Y582750D01*
Y578250D01*
X47250Y577500D02*X48000Y578250D01*
X45750Y577500D02*X47250D01*
X45000Y579000D02*X48000Y582000D01*
X49800Y577500D02*X50550D01*
X52350Y578250D02*X53100Y577500D01*
X52350Y582750D02*Y578250D01*
Y582750D02*X53100Y583500D01*
X54600D01*
X55350Y582750D01*
Y578250D01*
X54600Y577500D02*X55350Y578250D01*
X53100Y577500D02*X54600D01*
X52350Y579000D02*X55350Y582000D01*
X57150Y582300D02*X58350Y583500D01*
Y577500D01*
X57150D02*X59400D01*
X61200Y582750D02*X61950Y583500D01*
X63450D01*
X64200Y582750D01*
X63450Y577500D02*X64200Y578250D01*
X61950Y577500D02*X63450D01*
X61200Y578250D02*X61950Y577500D01*
Y580800D02*X63450D01*
X64200Y582750D02*Y581550D01*
Y580050D02*Y578250D01*
Y580050D02*X63450Y580800D01*
X64200Y581550D02*X63450Y580800D01*
X3000Y598500D02*X3750Y597750D01*
X750Y598500D02*X3000D01*
X0Y597750D02*X750Y598500D01*
X0Y597750D02*Y596250D01*
X750Y595500D01*
X3000D01*
X3750Y594750D01*
Y593250D01*
X3000Y592500D02*X3750Y593250D01*
X750Y592500D02*X3000D01*
X0Y593250D02*X750Y592500D01*
X5550Y595500D02*Y593250D01*
X6300Y592500D01*
X8550Y595500D02*Y591000D01*
X7800Y590250D02*X8550Y591000D01*
X6300Y590250D02*X7800D01*
X5550Y591000D02*X6300Y590250D01*
Y592500D02*X7800D01*
X8550Y593250D01*
X11100Y594750D02*Y592500D01*
Y594750D02*X11850Y595500D01*
X12600D01*
X13350Y594750D01*
Y592500D01*
Y594750D02*X14100Y595500D01*
X14850D01*
X15600Y594750D01*
Y592500D01*
X10350Y595500D02*X11100Y594750D01*
X17400Y598500D02*Y592500D01*
Y593250D02*X18150Y592500D01*
X19650D01*
X20400Y593250D01*
Y594750D02*Y593250D01*
X19650Y595500D02*X20400Y594750D01*
X18150Y595500D02*X19650D01*
X17400Y594750D02*X18150Y595500D01*
X22200Y594750D02*Y593250D01*
Y594750D02*X22950Y595500D01*
X24450D01*
X25200Y594750D01*
Y593250D01*
X24450Y592500D02*X25200Y593250D01*
X22950Y592500D02*X24450D01*
X22200Y593250D02*X22950Y592500D01*
X27000Y598500D02*Y593250D01*
X27750Y592500D01*
X0Y589250D02*X29250D01*
X41750Y598500D02*Y592500D01*
X43700Y598500D02*X44750Y597450D01*
Y593550D01*
X43700Y592500D02*X44750Y593550D01*
X41000Y592500D02*X43700D01*
X41000Y598500D02*X43700D01*
G54D148*X46550Y597000D02*Y596850D01*
G54D147*Y594750D02*Y592500D01*
X50300Y595500D02*X51050Y594750D01*
X48800Y595500D02*X50300D01*
X48050Y594750D02*X48800Y595500D01*
X48050Y594750D02*Y593250D01*
X48800Y592500D01*
X51050Y595500D02*Y593250D01*
X51800Y592500D01*
X48800D02*X50300D01*
X51050Y593250D01*
X54350Y594750D02*Y592500D01*
Y594750D02*X55100Y595500D01*
X55850D01*
X56600Y594750D01*
Y592500D01*
Y594750D02*X57350Y595500D01*
X58100D01*
X58850Y594750D01*
Y592500D01*
X53600Y595500D02*X54350Y594750D01*
X60650Y592500D02*X61400D01*
X65900Y593250D02*X66650Y592500D01*
X65900Y597750D02*X66650Y598500D01*
X65900Y597750D02*Y593250D01*
X68450Y598500D02*X69950D01*
X69200D02*Y592500D01*
X68450D02*X69950D01*
X72500Y594750D02*Y592500D01*
Y594750D02*X73250Y595500D01*
X74000D01*
X74750Y594750D01*
Y592500D01*
X71750Y595500D02*X72500Y594750D01*
X77300Y595500D02*X79550D01*
X76550Y594750D02*X77300Y595500D01*
X76550Y594750D02*Y593250D01*
X77300Y592500D01*
X79550D01*
X81350Y598500D02*Y592500D01*
Y594750D02*X82100Y595500D01*
X83600D01*
X84350Y594750D01*
Y592500D01*
X86150Y598500D02*X86900Y597750D01*
Y593250D01*
X86150Y592500D02*X86900Y593250D01*
X41000Y589250D02*X88700D01*
X96050Y592500D02*X98000D01*
X95000Y593550D02*X96050Y592500D01*
X95000Y597450D02*Y593550D01*
Y597450D02*X96050Y598500D01*
X98000D01*
X99800Y594750D02*Y593250D01*
Y594750D02*X100550Y595500D01*
X102050D01*
X102800Y594750D01*
Y593250D01*
X102050Y592500D02*X102800Y593250D01*
X100550Y592500D02*X102050D01*
X99800Y593250D02*X100550Y592500D01*
X104600Y595500D02*Y593250D01*
X105350Y592500D01*
X106850D01*
X107600Y593250D01*
Y595500D02*Y593250D01*
X110150Y594750D02*Y592500D01*
Y594750D02*X110900Y595500D01*
X111650D01*
X112400Y594750D01*
Y592500D01*
X109400Y595500D02*X110150Y594750D01*
X114950Y598500D02*Y593250D01*
X115700Y592500D01*
X114200Y596250D02*X115700D01*
X95000Y589250D02*X117200D01*
X130750Y598500D02*Y592500D01*
X130000Y598500D02*X133000D01*
X133750Y597750D01*
Y596250D01*
X133000Y595500D02*X133750Y596250D01*
X130750Y595500D02*X133000D01*
X135550Y598500D02*Y593250D01*
X136300Y592500D01*
X140050Y595500D02*X140800Y594750D01*
X138550Y595500D02*X140050D01*
X137800Y594750D02*X138550Y595500D01*
X137800Y594750D02*Y593250D01*
X138550Y592500D01*
X140800Y595500D02*Y593250D01*
X141550Y592500D01*
X138550D02*X140050D01*
X140800Y593250D01*
X144100Y598500D02*Y593250D01*
X144850Y592500D01*
X143350Y596250D02*X144850D01*
X147100Y592500D02*X149350D01*
X146350Y593250D02*X147100Y592500D01*
X146350Y594750D02*Y593250D01*
Y594750D02*X147100Y595500D01*
X148600D01*
X149350Y594750D01*
X146350Y594000D02*X149350D01*
Y594750D02*Y594000D01*
X154150Y598500D02*Y592500D01*
X153400D02*X154150Y593250D01*
X151900Y592500D02*X153400D01*
X151150Y593250D02*X151900Y592500D01*
X151150Y594750D02*Y593250D01*
Y594750D02*X151900Y595500D01*
X153400D01*
X154150Y594750D01*
X157450Y595500D02*Y594750D01*
Y593250D02*Y592500D01*
X155950Y597750D02*Y597000D01*
Y597750D02*X156700Y598500D01*
X158200D01*
X158950Y597750D01*
Y597000D01*
X157450Y595500D02*X158950Y597000D01*
X130000Y589250D02*X160750D01*
X0Y613500D02*X3000D01*
X1500D02*Y607500D01*
X4800Y613500D02*Y607500D01*
Y609750D02*X5550Y610500D01*
X7050D01*
X7800Y609750D01*
Y607500D01*
X10350D02*X12600D01*
X9600Y608250D02*X10350Y607500D01*
X9600Y609750D02*Y608250D01*
Y609750D02*X10350Y610500D01*
X11850D01*
X12600Y609750D01*
X9600Y609000D02*X12600D01*
Y609750D02*Y609000D01*
X15150Y609750D02*Y607500D01*
Y609750D02*X15900Y610500D01*
X17400D01*
X14400D02*X15150Y609750D01*
X19950Y607500D02*X22200D01*
X19200Y608250D02*X19950Y607500D01*
X19200Y609750D02*Y608250D01*
Y609750D02*X19950Y610500D01*
X21450D01*
X22200Y609750D01*
X19200Y609000D02*X22200D01*
Y609750D02*Y609000D01*
X28950Y610500D02*X29700Y609750D01*
X27450Y610500D02*X28950D01*
X26700Y609750D02*X27450Y610500D01*
X26700Y609750D02*Y608250D01*
X27450Y607500D01*
X29700Y610500D02*Y608250D01*
X30450Y607500D01*
X27450D02*X28950D01*
X29700Y608250D01*
X33000Y609750D02*Y607500D01*
Y609750D02*X33750Y610500D01*
X35250D01*
X32250D02*X33000Y609750D01*
X37800Y607500D02*X40050D01*
X37050Y608250D02*X37800Y607500D01*
X37050Y609750D02*Y608250D01*
Y609750D02*X37800Y610500D01*
X39300D01*
X40050Y609750D01*
X37050Y609000D02*X40050D01*
Y609750D02*Y609000D01*
X45300Y607500D02*X47550Y610500D01*
Y612750D02*Y610500D01*
X46800Y613500D02*X47550Y612750D01*
X45300Y613500D02*X46800D01*
X44550Y612750D02*X45300Y613500D01*
X44550Y612750D02*Y611250D01*
X45300Y610500D01*
X47550D01*
X55050Y613500D02*Y607500D01*
X54300D02*X55050Y608250D01*
X52800Y607500D02*X54300D01*
X52050Y608250D02*X52800Y607500D01*
X52050Y609750D02*Y608250D01*
Y609750D02*X52800Y610500D01*
X54300D01*
X55050Y609750D01*
G54D148*X56850Y612000D02*Y611850D01*
G54D147*Y609750D02*Y607500D01*
X59100Y612750D02*Y607500D01*
Y612750D02*X59850Y613500D01*
X60600D01*
X58350Y610500D02*X59850D01*
X62850Y612750D02*Y607500D01*
Y612750D02*X63600Y613500D01*
X64350D01*
X62100Y610500D02*X63600D01*
X66600Y607500D02*X68850D01*
X65850Y608250D02*X66600Y607500D01*
X65850Y609750D02*Y608250D01*
Y609750D02*X66600Y610500D01*
X68100D01*
X68850Y609750D01*
X65850Y609000D02*X68850D01*
Y609750D02*Y609000D01*
X71400Y609750D02*Y607500D01*
Y609750D02*X72150Y610500D01*
X73650D01*
X70650D02*X71400Y609750D01*
X76200Y607500D02*X78450D01*
X75450Y608250D02*X76200Y607500D01*
X75450Y609750D02*Y608250D01*
Y609750D02*X76200Y610500D01*
X77700D01*
X78450Y609750D01*
X75450Y609000D02*X78450D01*
Y609750D02*Y609000D01*
X81000Y609750D02*Y607500D01*
Y609750D02*X81750Y610500D01*
X82500D01*
X83250Y609750D01*
Y607500D01*
X80250Y610500D02*X81000Y609750D01*
X85800Y613500D02*Y608250D01*
X86550Y607500D01*
X85050Y611250D02*X86550D01*
X93750Y613500D02*Y607500D01*
X93000D02*X93750Y608250D01*
X91500Y607500D02*X93000D01*
X90750Y608250D02*X91500Y607500D01*
X90750Y609750D02*Y608250D01*
Y609750D02*X91500Y610500D01*
X93000D01*
X93750Y609750D01*
X96300D02*Y607500D01*
Y609750D02*X97050Y610500D01*
X98550D01*
X95550D02*X96300Y609750D01*
G54D148*X100350Y612000D02*Y611850D01*
G54D147*Y609750D02*Y607500D01*
X101850Y613500D02*Y608250D01*
X102600Y607500D01*
X104100Y613500D02*Y608250D01*
X104850Y607500D01*
X109800D02*X112050D01*
X112800Y608250D01*
X112050Y609000D02*X112800Y608250D01*
X109800Y609000D02*X112050D01*
X109050Y609750D02*X109800Y609000D01*
X109050Y609750D02*X109800Y610500D01*
X112050D01*
X112800Y609750D01*
X109050Y608250D02*X109800Y607500D01*
G54D148*X114600Y612000D02*Y611850D01*
G54D147*Y609750D02*Y607500D01*
X116100Y610500D02*X119100D01*
X116100Y607500D02*X119100Y610500D01*
X116100Y607500D02*X119100D01*
X121650D02*X123900D01*
X120900Y608250D02*X121650Y607500D01*
X120900Y609750D02*Y608250D01*
Y609750D02*X121650Y610500D01*
X123150D01*
X123900Y609750D01*
X120900Y609000D02*X123900D01*
Y609750D02*Y609000D01*
X126450Y607500D02*X128700D01*
X129450Y608250D01*
X128700Y609000D02*X129450Y608250D01*
X126450Y609000D02*X128700D01*
X125700Y609750D02*X126450Y609000D01*
X125700Y609750D02*X126450Y610500D01*
X128700D01*
X129450Y609750D01*
X125700Y608250D02*X126450Y607500D01*
X133950Y610500D02*Y608250D01*
X134700Y607500D01*
X136200D01*
X136950Y608250D01*
Y610500D02*Y608250D01*
X139500Y607500D02*X141750D01*
X142500Y608250D01*
X141750Y609000D02*X142500Y608250D01*
X139500Y609000D02*X141750D01*
X138750Y609750D02*X139500Y609000D01*
X138750Y609750D02*X139500Y610500D01*
X141750D01*
X142500Y609750D01*
X138750Y608250D02*X139500Y607500D01*
X145050D02*X147300D01*
X144300Y608250D02*X145050Y607500D01*
X144300Y609750D02*Y608250D01*
Y609750D02*X145050Y610500D01*
X146550D01*
X147300Y609750D01*
X144300Y609000D02*X147300D01*
Y609750D02*Y609000D01*
X152100Y613500D02*Y607500D01*
X151350D02*X152100Y608250D01*
X149850Y607500D02*X151350D01*
X149100Y608250D02*X149850Y607500D01*
X149100Y609750D02*Y608250D01*
Y609750D02*X149850Y610500D01*
X151350D01*
X152100Y609750D01*
G54D148*X156600Y612000D02*Y611850D01*
G54D147*Y609750D02*Y607500D01*
X158850Y609750D02*Y607500D01*
Y609750D02*X159600Y610500D01*
X160350D01*
X161100Y609750D01*
Y607500D01*
X158100Y610500D02*X158850Y609750D01*
X166350Y613500D02*Y608250D01*
X167100Y607500D01*
X165600Y611250D02*X167100D01*
X168600Y613500D02*Y607500D01*
Y609750D02*X169350Y610500D01*
X170850D01*
X171600Y609750D01*
Y607500D01*
G54D148*X173400Y612000D02*Y611850D01*
G54D147*Y609750D02*Y607500D01*
X175650D02*X177900D01*
X178650Y608250D01*
X177900Y609000D02*X178650Y608250D01*
X175650Y609000D02*X177900D01*
X174900Y609750D02*X175650Y609000D01*
X174900Y609750D02*X175650Y610500D01*
X177900D01*
X178650Y609750D01*
X174900Y608250D02*X175650Y607500D01*
X183150Y613500D02*Y608250D01*
X183900Y607500D01*
X187650Y610500D02*X188400Y609750D01*
X186150Y610500D02*X187650D01*
X185400Y609750D02*X186150Y610500D01*
X185400Y609750D02*Y608250D01*
X186150Y607500D01*
X188400Y610500D02*Y608250D01*
X189150Y607500D01*
X186150D02*X187650D01*
X188400Y608250D01*
X190950Y610500D02*Y608250D01*
X191700Y607500D01*
X193950Y610500D02*Y606000D01*
X193200Y605250D02*X193950Y606000D01*
X191700Y605250D02*X193200D01*
X190950Y606000D02*X191700Y605250D01*
Y607500D02*X193200D01*
X193950Y608250D01*
X195750Y609750D02*Y608250D01*
Y609750D02*X196500Y610500D01*
X198000D01*
X198750Y609750D01*
Y608250D01*
X198000Y607500D02*X198750Y608250D01*
X196500Y607500D02*X198000D01*
X195750Y608250D02*X196500Y607500D01*
X200550Y610500D02*Y608250D01*
X201300Y607500D01*
X202800D01*
X203550Y608250D01*
Y610500D02*Y608250D01*
X206100Y613500D02*Y608250D01*
X206850Y607500D01*
X205350Y611250D02*X206850D01*
X208350Y606000D02*X209850Y607500D01*
X214350Y612750D02*X215100Y613500D01*
X217350D01*
X218100Y612750D01*
Y611250D01*
X214350Y607500D02*X218100Y611250D01*
X214350Y607500D02*X218100D01*
X219900Y609750D02*X222900Y613500D01*
X219900Y609750D02*X223650D01*
X222900Y613500D02*Y607500D01*
X225450Y608250D02*X226200Y607500D01*
X225450Y612750D02*Y608250D01*
Y612750D02*X226200Y613500D01*
X227700D01*
X228450Y612750D01*
Y608250D01*
X227700Y607500D02*X228450Y608250D01*
X226200Y607500D02*X227700D01*
X225450Y609000D02*X228450Y612000D01*
X232950Y613500D02*Y607500D01*
Y609750D02*X233700Y610500D01*
X235200D01*
X235950Y609750D01*
Y607500D01*
X237750Y609750D02*Y608250D01*
Y609750D02*X238500Y610500D01*
X240000D01*
X240750Y609750D01*
Y608250D01*
X240000Y607500D02*X240750Y608250D01*
X238500Y607500D02*X240000D01*
X237750Y608250D02*X238500Y607500D01*
X242550Y613500D02*Y608250D01*
X243300Y607500D01*
X245550D02*X247800D01*
X244800Y608250D02*X245550Y607500D01*
X244800Y609750D02*Y608250D01*
Y609750D02*X245550Y610500D01*
X247050D01*
X247800Y609750D01*
X244800Y609000D02*X247800D01*
Y609750D02*Y609000D01*
X250350Y607500D02*X252600D01*
X253350Y608250D01*
X252600Y609000D02*X253350Y608250D01*
X250350Y609000D02*X252600D01*
X249600Y609750D02*X250350Y609000D01*
X249600Y609750D02*X250350Y610500D01*
X252600D01*
X253350Y609750D01*
X249600Y608250D02*X250350Y607500D01*
X258600Y613500D02*Y608250D01*
X259350Y607500D01*
X257850Y611250D02*X259350D01*
X260850Y609750D02*Y608250D01*
Y609750D02*X261600Y610500D01*
X263100D01*
X263850Y609750D01*
Y608250D01*
X263100Y607500D02*X263850Y608250D01*
X261600Y607500D02*X263100D01*
X260850Y608250D02*X261600Y607500D01*
X266400Y613500D02*Y608250D01*
X267150Y607500D01*
X265650Y611250D02*X267150D01*
X270900Y610500D02*X271650Y609750D01*
X269400Y610500D02*X270900D01*
X268650Y609750D02*X269400Y610500D01*
X268650Y609750D02*Y608250D01*
X269400Y607500D01*
X271650Y610500D02*Y608250D01*
X272400Y607500D01*
X269400D02*X270900D01*
X271650Y608250D01*
X274200Y613500D02*Y608250D01*
X274950Y607500D01*
G54D149*X500Y344000D02*Y295500D01*
Y344000D02*X54500D01*
X63000Y352500D01*
Y376500D01*
G54D147*X138675Y-9500D02*X141675D01*
X142425Y-8750D01*
Y-6950D02*Y-8750D01*
X141675Y-6200D02*X142425Y-6950D01*
X139425Y-6200D02*X141675D01*
X139425Y-3500D02*Y-9500D01*
X138675Y-3500D02*X141675D01*
X142425Y-4250D01*
Y-5450D01*
X141675Y-6200D02*X142425Y-5450D01*
X144225Y-7250D02*Y-8750D01*
Y-7250D02*X144975Y-6500D01*
X146475D01*
X147225Y-7250D01*
Y-8750D01*
X146475Y-9500D02*X147225Y-8750D01*
X144975Y-9500D02*X146475D01*
X144225Y-8750D02*X144975Y-9500D01*
X151275Y-6500D02*X152025Y-7250D01*
X149775Y-6500D02*X151275D01*
X149025Y-7250D02*X149775Y-6500D01*
X149025Y-7250D02*Y-8750D01*
X149775Y-9500D01*
X152025Y-6500D02*Y-8750D01*
X152775Y-9500D01*
X149775D02*X151275D01*
X152025Y-8750D01*
X155325Y-7250D02*Y-9500D01*
Y-7250D02*X156075Y-6500D01*
X157575D01*
X154575D02*X155325Y-7250D01*
X162375Y-3500D02*Y-9500D01*
X161625D02*X162375Y-8750D01*
X160125Y-9500D02*X161625D01*
X159375Y-8750D02*X160125Y-9500D01*
X159375Y-7250D02*Y-8750D01*
Y-7250D02*X160125Y-6500D01*
X161625D01*
X162375Y-7250D01*
X166875D02*Y-8750D01*
Y-7250D02*X167625Y-6500D01*
X169125D01*
X169875Y-7250D01*
Y-8750D01*
X169125Y-9500D02*X169875Y-8750D01*
X167625Y-9500D02*X169125D01*
X166875Y-8750D02*X167625Y-9500D01*
X171675Y-6500D02*Y-8750D01*
X172425Y-9500D01*
X173925D01*
X174675Y-8750D01*
Y-6500D02*Y-8750D01*
X177225Y-3500D02*Y-8750D01*
X177975Y-9500D01*
X176475Y-5750D02*X177975D01*
X179475Y-3500D02*Y-8750D01*
X180225Y-9500D01*
G54D148*X181725Y-5000D02*Y-5150D01*
G54D147*Y-7250D02*Y-9500D01*
X183975Y-7250D02*Y-9500D01*
Y-7250D02*X184725Y-6500D01*
X185475D01*
X186225Y-7250D01*
Y-9500D01*
X183225Y-6500D02*X183975Y-7250D01*
X188775Y-9500D02*X191025D01*
X188025Y-8750D02*X188775Y-9500D01*
X188025Y-7250D02*Y-8750D01*
Y-7250D02*X188775Y-6500D01*
X190275D01*
X191025Y-7250D01*
X188025Y-8000D02*X191025D01*
Y-7250D02*Y-8000D01*
G54D148*X195525Y-5000D02*Y-5150D01*
G54D147*Y-7250D02*Y-9500D01*
X197775D02*X200025D01*
X200775Y-8750D01*
X200025Y-8000D02*X200775Y-8750D01*
X197775Y-8000D02*X200025D01*
X197025Y-7250D02*X197775Y-8000D01*
X197025Y-7250D02*X197775Y-6500D01*
X200025D01*
X200775Y-7250D01*
X197025Y-8750D02*X197775Y-9500D01*
X206025Y-3500D02*Y-8750D01*
X206775Y-9500D01*
X205275Y-5750D02*X206775D01*
X208275Y-3500D02*Y-9500D01*
Y-7250D02*X209025Y-6500D01*
X210525D01*
X211275Y-7250D01*
Y-9500D01*
X213825D02*X216075D01*
X213075Y-8750D02*X213825Y-9500D01*
X213075Y-7250D02*Y-8750D01*
Y-7250D02*X213825Y-6500D01*
X215325D01*
X216075Y-7250D01*
X213075Y-8000D02*X216075D01*
Y-7250D02*Y-8000D01*
X221325Y-6500D02*X223575D01*
X220575Y-7250D02*X221325Y-6500D01*
X220575Y-7250D02*Y-8750D01*
X221325Y-9500D01*
X223575D01*
X226125D02*X228375D01*
X225375Y-8750D02*X226125Y-9500D01*
X225375Y-7250D02*Y-8750D01*
Y-7250D02*X226125Y-6500D01*
X227625D01*
X228375Y-7250D01*
X225375Y-8000D02*X228375D01*
Y-7250D02*Y-8000D01*
X230925Y-7250D02*Y-9500D01*
Y-7250D02*X231675Y-6500D01*
X232425D01*
X233175Y-7250D01*
Y-9500D01*
X230175Y-6500D02*X230925Y-7250D01*
X235725Y-3500D02*Y-8750D01*
X236475Y-9500D01*
X234975Y-5750D02*X236475D01*
X238725Y-9500D02*X240975D01*
X237975Y-8750D02*X238725Y-9500D01*
X237975Y-7250D02*Y-8750D01*
Y-7250D02*X238725Y-6500D01*
X240225D01*
X240975Y-7250D01*
X237975Y-8000D02*X240975D01*
Y-7250D02*Y-8000D01*
X243525Y-7250D02*Y-9500D01*
Y-7250D02*X244275Y-6500D01*
X245775D01*
X242775D02*X243525Y-7250D01*
X247575Y-3500D02*Y-8750D01*
X248325Y-9500D01*
G54D148*X249825Y-5000D02*Y-5150D01*
G54D147*Y-7250D02*Y-9500D01*
X252075Y-7250D02*Y-9500D01*
Y-7250D02*X252825Y-6500D01*
X253575D01*
X254325Y-7250D01*
Y-9500D01*
X251325Y-6500D02*X252075Y-7250D01*
X256875Y-9500D02*X259125D01*
X256125Y-8750D02*X256875Y-9500D01*
X256125Y-7250D02*Y-8750D01*
Y-7250D02*X256875Y-6500D01*
X258375D01*
X259125Y-7250D01*
X256125Y-8000D02*X259125D01*
Y-7250D02*Y-8000D01*
X263625Y-7250D02*Y-8750D01*
Y-7250D02*X264375Y-6500D01*
X265875D01*
X266625Y-7250D01*
Y-8750D01*
X265875Y-9500D02*X266625Y-8750D01*
X264375Y-9500D02*X265875D01*
X263625Y-8750D02*X264375Y-9500D01*
X269175Y-4250D02*Y-9500D01*
Y-4250D02*X269925Y-3500D01*
X270675D01*
X268425Y-6500D02*X269925D01*
X275625Y-3500D02*Y-8750D01*
X276375Y-9500D01*
X274875Y-5750D02*X276375D01*
X277875Y-3500D02*Y-9500D01*
Y-7250D02*X278625Y-6500D01*
X280125D01*
X280875Y-7250D01*
Y-9500D01*
G54D148*X282675Y-5000D02*Y-5150D01*
G54D147*Y-7250D02*Y-9500D01*
X284925D02*X287175D01*
X287925Y-8750D01*
X287175Y-8000D02*X287925Y-8750D01*
X284925Y-8000D02*X287175D01*
X284175Y-7250D02*X284925Y-8000D01*
X284175Y-7250D02*X284925Y-6500D01*
X287175D01*
X287925Y-7250D01*
X284175Y-8750D02*X284925Y-9500D01*
X293175Y-7250D02*Y-11750D01*
X292425Y-6500D02*X293175Y-7250D01*
X293925Y-6500D01*
X295425D01*
X296175Y-7250D01*
Y-8750D01*
X295425Y-9500D02*X296175Y-8750D01*
X293925Y-9500D02*X295425D01*
X293175Y-8750D02*X293925Y-9500D01*
X300225Y-6500D02*X300975Y-7250D01*
X298725Y-6500D02*X300225D01*
X297975Y-7250D02*X298725Y-6500D01*
X297975Y-7250D02*Y-8750D01*
X298725Y-9500D01*
X300975Y-6500D02*Y-8750D01*
X301725Y-9500D01*
X298725D02*X300225D01*
X300975Y-8750D01*
X304275Y-3500D02*Y-8750D01*
X305025Y-9500D01*
X303525Y-5750D02*X305025D01*
X306525Y-3500D02*Y-9500D01*
Y-7250D02*X307275Y-6500D01*
X308775D01*
X309525Y-7250D01*
Y-9500D01*
X200750Y478500D02*Y472500D01*
X202700Y478500D02*X203750Y477450D01*
Y473550D01*
X202700Y472500D02*X203750Y473550D01*
X200000Y472500D02*X202700D01*
X200000Y478500D02*X202700D01*
X207800Y475500D02*X208550Y474750D01*
X206300Y475500D02*X207800D01*
X205550Y474750D02*X206300Y475500D01*
X205550Y474750D02*Y473250D01*
X206300Y472500D01*
X208550Y475500D02*Y473250D01*
X209300Y472500D01*
X206300D02*X207800D01*
X208550Y473250D01*
X211850Y478500D02*Y473250D01*
X212600Y472500D01*
X211100Y476250D02*X212600D01*
X214850Y472500D02*X217100D01*
X214100Y473250D02*X214850Y472500D01*
X214100Y474750D02*Y473250D01*
Y474750D02*X214850Y475500D01*
X216350D01*
X217100Y474750D01*
X214100Y474000D02*X217100D01*
Y474750D02*Y474000D01*
X218900Y476250D02*X219650D01*
X218900Y474750D02*X219650D01*
X227150Y478500D02*X227900Y477750D01*
X224900Y478500D02*X227150D01*
X224150Y477750D02*X224900Y478500D01*
X224150Y477750D02*Y476250D01*
X224900Y475500D01*
X227150D01*
X227900Y474750D01*
Y473250D01*
X227150Y472500D02*X227900Y473250D01*
X224900Y472500D02*X227150D01*
X224150Y473250D02*X224900Y472500D01*
X231950Y475500D02*X232700Y474750D01*
X230450Y475500D02*X231950D01*
X229700Y474750D02*X230450Y475500D01*
X229700Y474750D02*Y473250D01*
X230450Y472500D01*
X232700Y475500D02*Y473250D01*
X233450Y472500D01*
X230450D02*X231950D01*
X232700Y473250D01*
X236000Y478500D02*Y473250D01*
X236750Y472500D01*
X235250Y476250D02*X236750D01*
X240950Y477300D02*X242150Y478500D01*
Y472500D01*
X240950D02*X243200D01*
X245000Y478500D02*X248000D01*
X245000D02*Y475500D01*
X245750Y476250D01*
X247250D01*
X248000Y475500D01*
Y473250D01*
X247250Y472500D02*X248000Y473250D01*
X245750Y472500D02*X247250D01*
X245000Y473250D02*X245750Y472500D01*
X252500Y478500D02*Y472500D01*
Y478500D02*X256250Y472500D01*
Y478500D02*Y472500D01*
X258050Y474750D02*Y473250D01*
Y474750D02*X258800Y475500D01*
X260300D01*
X261050Y474750D01*
Y473250D01*
X260300Y472500D02*X261050Y473250D01*
X258800Y472500D02*X260300D01*
X258050Y473250D02*X258800Y472500D01*
X262850Y475500D02*X264350Y472500D01*
X265850Y475500D02*X264350Y472500D01*
X270350Y477750D02*X271100Y478500D01*
X273350D01*
X274100Y477750D01*
Y476250D01*
X270350Y472500D02*X274100Y476250D01*
X270350Y472500D02*X274100D01*
X275900Y473250D02*X276650Y472500D01*
X275900Y477750D02*Y473250D01*
Y477750D02*X276650Y478500D01*
X278150D01*
X278900Y477750D01*
Y473250D01*
X278150Y472500D02*X278900Y473250D01*
X276650Y472500D02*X278150D01*
X275900Y474000D02*X278900Y477000D01*
X280700Y477300D02*X281900Y478500D01*
Y472500D01*
X280700D02*X282950D01*
X284750Y474750D02*X287750Y478500D01*
X284750Y474750D02*X288500D01*
X287750Y478500D02*Y472500D01*
X293000Y473250D02*X293750Y472500D01*
X293000Y477750D02*Y473250D01*
Y477750D02*X293750Y478500D01*
X295250D01*
X296000Y477750D01*
Y473250D01*
X295250Y472500D02*X296000Y473250D01*
X293750Y472500D02*X295250D01*
X293000Y474000D02*X296000Y477000D01*
X298550Y472500D02*X301550Y478500D01*
X297800D02*X301550D01*
X303350Y476250D02*X304100D01*
X303350Y474750D02*X304100D01*
X305900Y477300D02*X307100Y478500D01*
Y472500D01*
X305900D02*X308150D01*
X312200Y478500D02*X312950Y477750D01*
X310700Y478500D02*X312200D01*
X309950Y477750D02*X310700Y478500D01*
X309950Y477750D02*Y473250D01*
X310700Y472500D01*
X312200Y475800D02*X312950Y475050D01*
X309950Y475800D02*X312200D01*
X310700Y472500D02*X312200D01*
X312950Y473250D01*
Y475050D02*Y473250D01*
X314750Y476250D02*X315500D01*
X314750Y474750D02*X315500D01*
X317300Y478500D02*X320300D01*
X317300D02*Y475500D01*
X318050Y476250D01*
X319550D01*
X320300Y475500D01*
Y473250D01*
X319550Y472500D02*X320300Y473250D01*
X318050Y472500D02*X319550D01*
X317300Y473250D02*X318050Y472500D01*
X322100Y477300D02*X323300Y478500D01*
Y472500D01*
X322100D02*X324350D01*
X328850Y477000D02*Y472500D01*
Y477000D02*X329900Y478500D01*
X331550D01*
X332600Y477000D01*
Y472500D01*
X328850Y475500D02*X332600D01*
X334400Y478500D02*Y472500D01*
Y478500D02*X336650Y475500D01*
X338900Y478500D01*
Y472500D01*
X346400Y478500D02*X347150Y477750D01*
X344150Y478500D02*X346400D01*
X343400Y477750D02*X344150Y478500D01*
X343400Y477750D02*Y473250D01*
X344150Y472500D01*
X346400D01*
X347150Y473250D01*
Y474750D02*Y473250D01*
X346400Y475500D02*X347150Y474750D01*
X344900Y475500D02*X346400D01*
X348950Y478500D02*Y472500D01*
Y478500D02*X351200Y475500D01*
X353450Y478500D01*
Y472500D01*
X355250Y478500D02*X358250D01*
X356750D02*Y472500D01*
X362750Y478500D02*Y473250D01*
X363500Y472500D01*
X365000D01*
X365750Y473250D01*
Y478500D02*Y473250D01*
X367550Y478500D02*X370550D01*
X369050D02*Y472500D01*
X373400D02*X375350D01*
X372350Y473550D02*X373400Y472500D01*
X372350Y477450D02*Y473550D01*
Y477450D02*X373400Y478500D01*
X375350D01*
X200000Y492000D02*Y487500D01*
Y492000D02*X201050Y493500D01*
X202700D01*
X203750Y492000D01*
Y487500D01*
X200000Y490500D02*X203750D01*
X205550D02*Y488250D01*
X206300Y487500D01*
X207800D01*
X208550Y488250D01*
Y490500D02*Y488250D01*
X211100Y493500D02*Y488250D01*
X211850Y487500D01*
X210350Y491250D02*X211850D01*
X213350Y493500D02*Y487500D01*
Y489750D02*X214100Y490500D01*
X215600D01*
X216350Y489750D01*
Y487500D01*
X218150Y489750D02*Y488250D01*
Y489750D02*X218900Y490500D01*
X220400D01*
X221150Y489750D01*
Y488250D01*
X220400Y487500D02*X221150Y488250D01*
X218900Y487500D02*X220400D01*
X218150Y488250D02*X218900Y487500D01*
X223700Y489750D02*Y487500D01*
Y489750D02*X224450Y490500D01*
X225950D01*
X222950D02*X223700Y489750D01*
X227750Y491250D02*X228500D01*
X227750Y489750D02*X228500D01*
X200000Y508500D02*X203000D01*
X201500D02*Y502500D01*
G54D148*X204800Y507000D02*Y506850D01*
G54D147*Y504750D02*Y502500D01*
X207050Y508500D02*Y503250D01*
X207800Y502500D01*
X206300Y506250D02*X207800D01*
X209300Y508500D02*Y503250D01*
X210050Y502500D01*
X212300D02*X214550D01*
X211550Y503250D02*X212300Y502500D01*
X211550Y504750D02*Y503250D01*
Y504750D02*X212300Y505500D01*
X213800D01*
X214550Y504750D01*
X211550Y504000D02*X214550D01*
Y504750D02*Y504000D01*
X216350Y506250D02*X217100D01*
X216350Y504750D02*X217100D01*
X221600Y503250D02*X222350Y502500D01*
X221600Y507750D02*X222350Y508500D01*
X221600Y507750D02*Y503250D01*
X224150Y505500D02*Y503250D01*
X224900Y502500D01*
X226400D01*
X227150Y503250D01*
Y505500D02*Y503250D01*
X229700Y504750D02*Y502500D01*
Y504750D02*X230450Y505500D01*
X231200D01*
X231950Y504750D01*
Y502500D01*
X228950Y505500D02*X229700Y504750D01*
X233750Y508500D02*Y502500D01*
Y504750D02*X236000Y502500D01*
X233750Y504750D02*X235250Y506250D01*
X238550Y504750D02*Y502500D01*
Y504750D02*X239300Y505500D01*
X240050D01*
X240800Y504750D01*
Y502500D01*
X237800Y505500D02*X238550Y504750D01*
X242600D02*Y503250D01*
Y504750D02*X243350Y505500D01*
X244850D01*
X245600Y504750D01*
Y503250D01*
X244850Y502500D02*X245600Y503250D01*
X243350Y502500D02*X244850D01*
X242600Y503250D02*X243350Y502500D01*
X247400Y505500D02*Y503250D01*
X248150Y502500D01*
X248900D01*
X249650Y503250D01*
Y505500D02*Y503250D01*
X250400Y502500D01*
X251150D01*
X251900Y503250D01*
Y505500D02*Y503250D01*
X254450Y504750D02*Y502500D01*
Y504750D02*X255200Y505500D01*
X255950D01*
X256700Y504750D01*
Y502500D01*
X253700Y505500D02*X254450Y504750D01*
X258500Y508500D02*X259250Y507750D01*
Y503250D01*
X258500Y502500D02*X259250Y503250D01*
X263750Y505500D02*X266750D01*
X271250Y508500D02*Y502500D01*
Y508500D02*X274250D01*
X271250Y505800D02*X273500D01*
X278300Y505500D02*X279050Y504750D01*
X276800Y505500D02*X278300D01*
X276050Y504750D02*X276800Y505500D01*
X276050Y504750D02*Y503250D01*
X276800Y502500D01*
X279050Y505500D02*Y503250D01*
X279800Y502500D01*
X276800D02*X278300D01*
X279050Y503250D01*
X281600Y508500D02*Y502500D01*
Y503250D02*X282350Y502500D01*
X283850D01*
X284600Y503250D01*
Y504750D02*Y503250D01*
X283850Y505500D02*X284600Y504750D01*
X282350Y505500D02*X283850D01*
X281600Y504750D02*X282350Y505500D01*
X287150Y504750D02*Y502500D01*
Y504750D02*X287900Y505500D01*
X289400D01*
X286400D02*X287150Y504750D01*
G54D148*X291200Y507000D02*Y506850D01*
G54D147*Y504750D02*Y502500D01*
X293450Y505500D02*X295700D01*
X292700Y504750D02*X293450Y505500D01*
X292700Y504750D02*Y503250D01*
X293450Y502500D01*
X295700D01*
X299750Y505500D02*X300500Y504750D01*
X298250Y505500D02*X299750D01*
X297500Y504750D02*X298250Y505500D01*
X297500Y504750D02*Y503250D01*
X298250Y502500D01*
X300500Y505500D02*Y503250D01*
X301250Y502500D01*
X298250D02*X299750D01*
X300500Y503250D01*
X303800Y508500D02*Y503250D01*
X304550Y502500D01*
X303050Y506250D02*X304550D01*
G54D148*X306050Y507000D02*Y506850D01*
G54D147*Y504750D02*Y502500D01*
X307550Y504750D02*Y503250D01*
Y504750D02*X308300Y505500D01*
X309800D01*
X310550Y504750D01*
Y503250D01*
X309800Y502500D02*X310550Y503250D01*
X308300Y502500D02*X309800D01*
X307550Y503250D02*X308300Y502500D01*
X313100Y504750D02*Y502500D01*
Y504750D02*X313850Y505500D01*
X314600D01*
X315350Y504750D01*
Y502500D01*
X312350Y505500D02*X313100Y504750D01*
X320600Y508500D02*Y502500D01*
X322550Y508500D02*X323600Y507450D01*
Y503550D01*
X322550Y502500D02*X323600Y503550D01*
X319850Y502500D02*X322550D01*
X319850Y508500D02*X322550D01*
X326150Y504750D02*Y502500D01*
Y504750D02*X326900Y505500D01*
X328400D01*
X325400D02*X326150Y504750D01*
X332450Y505500D02*X333200Y504750D01*
X330950Y505500D02*X332450D01*
X330200Y504750D02*X330950Y505500D01*
X330200Y504750D02*Y503250D01*
X330950Y502500D01*
X333200Y505500D02*Y503250D01*
X333950Y502500D01*
X330950D02*X332450D01*
X333200Y503250D01*
X335750Y505500D02*Y503250D01*
X336500Y502500D01*
X337250D01*
X338000Y503250D01*
Y505500D02*Y503250D01*
X338750Y502500D01*
X339500D01*
X340250Y503250D01*
Y505500D02*Y503250D01*
G54D148*X342050Y507000D02*Y506850D01*
G54D147*Y504750D02*Y502500D01*
X344300Y504750D02*Y502500D01*
Y504750D02*X345050Y505500D01*
X345800D01*
X346550Y504750D01*
Y502500D01*
X343550Y505500D02*X344300Y504750D01*
X350600Y505500D02*X351350Y504750D01*
X349100Y505500D02*X350600D01*
X348350Y504750D02*X349100Y505500D01*
X348350Y504750D02*Y503250D01*
X349100Y502500D01*
X350600D01*
X351350Y503250D01*
X348350Y501000D02*X349100Y500250D01*
X350600D01*
X351350Y501000D01*
Y505500D02*Y501000D01*
M02*
