M48
INCH
T80C0.013
T79C0.039
T78C0.126
T77C0.038
T76C0.050
T75C0.063
T74C0.128
T73C0.030
T72C0.035
%
T80
X004250Y031850
X004900Y033450
X005500Y033750
X005800Y032100
X006850Y032750
X006850Y032050
X007900Y032750
X008100Y035860
X008100Y035250
X008100Y034640
X008650Y032200
X008750Y034900
X009000Y040500
X009000Y034400
X009250Y039850
X009452Y024812
X009600Y033750
X009750Y031650
X009950Y040500
X010002Y021262
X010335Y034400
X010335Y034050
X010350Y036000
X010600Y037100
X010650Y039835
X010750Y044250
X010835Y036140
X010950Y035000
X010952Y025712
X011050Y039750
X011135Y032000
X011175Y036140
X011450Y044250
X011485Y032000
X011515Y036140
X011850Y032000
X012000Y034950
X012150Y033600
X012350Y030300
X012952Y022562
X013002Y024712
X013050Y035700
X013102Y021212
X013152Y026712
X013352Y021812
X013452Y021262
X013500Y034750
X014050Y036100
X014200Y037300
X014485Y032800
X014500Y032350
X014602Y027162
X014700Y036250
X015502Y025212
X015502Y023762
X015502Y023312
X015502Y022612
X015800Y033300
X016000Y036250
X016000Y031250
X016002Y025212
X016200Y040500
X016450Y039850
X016500Y037000
X017000Y037000
X017002Y025212
X017002Y022612
X017150Y040500
X017500Y037000
X017500Y035600
X017500Y034550
X017500Y033750
X017500Y032850
X017502Y025212
X017502Y023312
X017502Y022612
X017752Y024662
X017850Y039835
X017950Y044250
X018000Y037000
X018000Y035600
X018000Y034550
X018000Y033750
X018000Y032850
X018002Y025212
X018002Y023312
X018002Y022612
X018250Y039750
X018502Y022612
X018650Y044250
X018900Y035050
X019000Y037000
X019002Y025212
X019002Y022612
X019500Y037000
X019502Y023312
X019502Y022612
X019950Y028700
X020000Y037000
X020002Y023312
X020002Y022612
X020450Y035800
X020500Y030600
X020500Y029100
X020502Y023312
X020502Y022612
X021002Y022612
X021502Y025212
X021502Y022612
X021750Y039840
X021850Y034350
X022002Y025212
X022002Y024212
X022002Y023312
X022002Y022612
X022150Y034650
X022250Y039800
X022500Y031350
X022800Y035750
X023100Y041100
X023450Y035300
X023450Y034900
X024100Y041100
X024600Y041100
X025104Y041101
X025200Y031400
X025500Y037000
X025600Y041050
X025700Y035300
X025700Y034800
X025700Y034300
X025700Y033300
X025700Y032800
X025700Y032300
X026100Y036250
X026300Y044540
X026300Y039800
X026500Y034300
X026500Y033300
X027150Y039190
X027354Y040001
T73
X011350Y030700
X013350Y030700
X018480Y036100
X018480Y027440
X018752Y021212
X019270Y036100
X019270Y027440
X020060Y036100
X020060Y027440
X020752Y021212
X020850Y036100
X020850Y027440
X021640Y036100
X021640Y027440
X022430Y036100
X022430Y027440
X023220Y036100
X023220Y027440
X024010Y036100
X024010Y027440
X024800Y036100
X024800Y027440
X025590Y036100
X025590Y027440
T72
X008200Y038300
X008700Y039300
X009200Y038300
X009700Y039300
X010200Y038300
X010700Y039300
X011200Y038300
X011700Y039300
X013550Y026200
X013550Y025200
X013550Y024200
X013550Y023200
X014550Y025700
X014550Y024700
X014550Y023700
X014550Y022700
X015400Y038300
X015900Y039300
X016400Y038300
X016900Y039300
X017400Y038300
X017900Y039300
X018400Y038300
X018900Y039300
X022600Y038300
X023100Y039300
X023600Y038300
X024100Y039300
X024600Y038300
X025100Y039300
X025600Y038300
X026100Y039300
T77
X005350Y031100
X005350Y030100
X006350Y031100
X006350Y030100
X007000Y036700
X007000Y033750
X007350Y031100
X007350Y030100
X007352Y027462
X007352Y026462
X007352Y025462
X007352Y024462
X007352Y023462
X008000Y036700
X008000Y033750
X008352Y027462
X008352Y026462
X008352Y025462
X008352Y024462
X008352Y023462
T79
X009452Y027062
X009452Y026062
X009452Y022842
X009452Y021842
T76
X015750Y034750
X024400Y035450
X025850Y031600
T75
X006854Y043001
X012251Y027503
X012251Y021401
X013054Y043001
X014054Y043001
X020254Y043001
X021254Y043001
X027454Y043001
T78
X011050Y026700
X011050Y022200
T74
X007700Y041800
X012200Y041800
X014900Y041800
X019400Y041800
X022100Y041800
X026600Y041800
M30
