G04 start of page 10 for group -4015 idx -4015 *
G04 Title: (unknown), toppaste *
G04 Creator: pcb 1.99z *
G04 CreationDate: Thu 19 Mar 2015 06:29:06 PM GMT UTC *
G04 For: commonadmin *
G04 Format: Gerber/RS-274X *
G04 PCB-Dimensions (mil): 3000.00 2500.00 *
G04 PCB-Coordinate-Origin: lower left *
%MOIN*%
%FSLAX25Y25*%
%LNTOPPASTE*%
%ADD140C,0.0400*%
%ADD139R,0.0610X0.0610*%
%ADD138R,0.0370X0.0370*%
%ADD137R,0.0200X0.0200*%
%ADD136C,0.0250*%
%ADD135C,0.0100*%
%ADD134R,0.0157X0.0157*%
%ADD133R,0.0394X0.0394*%
%ADD132R,0.0197X0.0197*%
%ADD131R,0.0295X0.0295*%
%ADD130R,0.0512X0.0512*%
G54D130*X67000Y127893D02*Y127107D01*
X74086Y127893D02*Y127107D01*
X67000Y120893D02*Y120107D01*
X74086Y120893D02*Y120107D01*
G54D131*X97352Y165492D02*Y164508D01*
X102470Y165492D02*Y164508D01*
G54D132*X121352Y108893D02*Y108107D01*
X124500Y108893D02*Y108107D01*
X126000Y103393D02*Y102607D01*
X129148Y103393D02*Y102607D01*
X121648Y103393D02*Y102607D01*
X118500Y103393D02*Y102607D01*
X108204Y171393D02*Y170607D01*
X111352Y171393D02*Y170607D01*
X117852Y171393D02*Y170607D01*
X114704Y171393D02*Y170607D01*
G54D133*X4736Y134528D02*X34264D01*
X10642Y124685D02*X34264D01*
X10642Y114843D02*X34264D01*
X4736Y105000D02*X34264D01*
G54D134*X97454Y156248D02*X101880D01*
X97454Y153099D02*X101880D01*
X97454Y149949D02*X101880D01*
X97454Y146800D02*X101880D01*
X97454Y143650D02*X101880D01*
X97454Y140500D02*X101880D01*
X97454Y137351D02*X101880D01*
X97454Y134201D02*X101880D01*
X97454Y131052D02*X101880D01*
X97454Y127902D02*X101880D01*
X97454Y124752D02*X101880D01*
X108604Y118028D02*Y113602D01*
X111753Y118028D02*Y113602D01*
X114903Y118028D02*Y113602D01*
X118052Y118028D02*Y113602D01*
X121202Y118028D02*Y113602D01*
X124352Y118028D02*Y113602D01*
X127501Y118028D02*Y113602D01*
X130651Y118028D02*Y113602D01*
X133800Y118028D02*Y113602D01*
X136950Y118028D02*Y113602D01*
X140100Y118028D02*Y113602D01*
X146824Y124752D02*X151250D01*
X146824Y127901D02*X151250D01*
X146824Y131051D02*X151250D01*
X146824Y134200D02*X151250D01*
X146824Y137350D02*X151250D01*
X146824Y140500D02*X151250D01*
X146824Y143649D02*X151250D01*
X146824Y146799D02*X151250D01*
X146824Y149948D02*X151250D01*
X146824Y153098D02*X151250D01*
X146824Y156248D02*X151250D01*
X140100Y167398D02*Y162972D01*
X136951Y167398D02*Y162972D01*
X133801Y167398D02*Y162972D01*
X130652Y167398D02*Y162972D01*
X127502Y167398D02*Y162972D01*
X124352Y167398D02*Y162972D01*
X121203Y167398D02*Y162972D01*
X118053Y167398D02*Y162972D01*
X114904Y167398D02*Y162972D01*
X111754Y167398D02*Y162972D01*
X108604Y167398D02*Y162972D01*
G54D131*X204508Y93441D02*X205492D01*
X204508Y98559D02*X205492D01*
G54D132*X189607Y98500D02*X190393D01*
X189607Y95352D02*X190393D01*
X194107Y98500D02*X194893D01*
X194107Y95352D02*X194893D01*
X199107Y98500D02*X199893D01*
X199107Y95352D02*X199893D01*
X189607Y92000D02*X190393D01*
X189607Y88852D02*X190393D01*
X194107Y92000D02*X194893D01*
X194107Y88852D02*X194893D01*
X199107Y92000D02*X199893D01*
X199107Y88852D02*X199893D01*
G54D135*X285000Y146500D02*Y129400D01*
X274600D02*X285000D01*
X274600D02*Y119500D01*
X285000D01*
Y110800D01*
X274600D02*X285000D01*
X274600D02*Y100900D01*
X285000D01*
Y92200D01*
X278500D02*X285000D01*
G54D136*X263500Y135500D02*X265000D01*
Y82000D01*
X263500Y140500D02*X265000D01*
G54D135*X263000Y138000D02*X285000D01*
G54D136*X265000Y146500D02*Y140500D01*
Y146500D02*X284000D01*
G54D137*X220016Y60122D02*Y54122D01*
X215016Y60122D02*Y54122D01*
X210016Y60122D02*Y54122D01*
X205016Y60122D02*Y54122D01*
X200016Y60122D02*Y54122D01*
X195016Y60122D02*Y54122D01*
X190016Y60122D02*Y54122D01*
X185016Y60122D02*Y54122D01*
X180016Y60122D02*Y54122D01*
X175016Y60122D02*Y54122D01*
X170016Y60122D02*Y54122D01*
X165016Y60122D02*Y54122D01*
X160016Y60122D02*Y54122D01*
X155016Y60122D02*Y54122D01*
Y24122D02*Y18122D01*
X160016Y24122D02*Y18122D01*
X165016Y24122D02*Y18122D01*
X170016Y24122D02*Y18122D01*
X175016Y24122D02*Y18122D01*
X180016Y24122D02*Y18122D01*
X185016Y24122D02*Y18122D01*
X190016Y24122D02*Y18122D01*
X195016Y24122D02*Y18122D01*
X200016Y24122D02*Y18122D01*
X205016Y24122D02*Y18122D01*
X210016Y24122D02*Y18122D01*
X215016Y24122D02*Y18122D01*
X220016Y24122D02*Y18122D01*
G54D138*X79800Y146400D02*X82200D01*
X79800Y152500D02*X82200D01*
X79800Y158600D02*X82200D01*
G54D139*X68800Y155500D02*Y149500D01*
G54D140*X160000Y173000D02*Y167000D01*
X165000Y173000D02*Y167000D01*
X170000Y173000D02*Y167000D01*
X175000Y173000D02*Y167000D01*
X180000Y173000D02*Y167000D01*
X185000Y173000D02*Y167000D01*
X190000Y173000D02*Y167000D01*
X195000Y173000D02*Y167000D01*
X200000Y173000D02*Y167000D01*
X205000Y173000D02*Y167000D01*
X210000Y173000D02*Y167000D01*
X215000Y173000D02*Y167000D01*
X220000Y173000D02*Y167000D01*
X225000Y173000D02*Y167000D01*
X230000Y173000D02*Y167000D01*
X235000Y173000D02*Y167000D01*
X240000Y173000D02*Y167000D01*
X245000Y173000D02*Y167000D01*
X255000Y173000D02*Y167000D01*
X250000Y173000D02*Y167000D01*
X155000Y133000D02*X161000D01*
X155000Y117500D02*X161000D01*
X160000Y109000D02*Y103000D01*
X165000Y109000D02*Y103000D01*
X170000Y109000D02*Y103000D01*
X175000Y109000D02*Y103000D01*
X180000Y109000D02*Y103000D01*
X185000Y109000D02*Y103000D01*
X190000Y109000D02*Y103000D01*
X195000Y109000D02*Y103000D01*
X200000Y109000D02*Y103000D01*
X205000Y109000D02*Y103000D01*
X210000Y109000D02*Y103000D01*
X215000Y109000D02*Y103000D01*
X220000Y109000D02*Y103000D01*
X225000Y109000D02*Y103000D01*
X230000Y109000D02*Y103000D01*
X235000Y109000D02*Y103000D01*
X240000Y109000D02*Y103000D01*
X245000Y109000D02*Y103000D01*
X250000Y109000D02*Y103000D01*
X255000Y109000D02*Y103000D01*
X254000Y153000D02*X260000D01*
X254000Y148000D02*X260000D01*
X254000Y143000D02*X260000D01*
X254000Y138000D02*X260000D01*
X254000Y133000D02*X260000D01*
X254000Y128000D02*X260000D01*
X254000Y123000D02*X260000D01*
M02*
