M48
INCH
T79C0.013
T78C0.126
T77C0.039
T76C0.063
T75C0.128
T74C0.035
T73C0.050
T72C0.030
T71C0.038
%
T79
X004250Y011850
X004900Y013450
X005500Y013750
X005800Y012100
X006850Y012750
X006850Y012050
X006900Y009600
X007150Y016100
X007900Y012750
X008000Y018350
X008100Y015860
X008100Y015250
X008100Y014640
X008350Y010400
X008650Y012200
X008750Y014900
X009000Y014400
X009150Y006600
X009350Y013350
X009350Y012050
X009400Y015600
X009450Y014100
X009452Y004812
X009550Y022900
X009550Y021750
X009600Y013750
X009750Y011650
X009800Y020900
X009800Y019650
X010002Y001262
X010050Y022900
X010300Y020900
X010335Y014400
X010335Y014050
X010350Y016000
X010350Y010400
X010550Y022900
X010550Y021750
X010600Y017100
X010750Y019650
X010835Y016140
X010950Y015000
X010952Y005712
X011135Y012000
X011175Y016140
X011485Y012000
X011515Y016140
X011550Y007600
X011850Y012000
X012000Y014950
X012150Y013600
X012350Y010300
X012750Y017200
X012952Y002562
X013002Y004712
X013050Y015800
X013102Y001212
X013150Y018250
X013152Y006712
X013350Y012000
X013352Y001812
X013400Y013900
X013452Y001262
X013500Y014750
X013700Y013600
X013700Y012000
X014000Y013300
X014050Y016100
X014400Y013300
X014450Y016600
X014485Y012800
X014500Y012350
X014602Y007162
X015250Y018350
X015502Y005212
X015502Y003762
X015502Y003312
X015502Y002612
X015750Y015750
X015800Y013300
X016000Y016250
X016000Y011250
X016002Y005212
X016500Y017000
X016600Y014850
X016600Y013750
X016600Y012850
X016800Y022900
X016800Y021750
X017000Y017000
X017000Y015600
X017002Y005212
X017002Y002612
X017050Y020900
X017050Y019650
X017050Y013750
X017050Y012850
X017300Y022900
X017500Y017000
X017500Y015600
X017500Y014550
X017500Y013750
X017500Y012850
X017502Y005212
X017502Y003312
X017502Y002612
X017550Y020900
X017752Y004662
X017800Y022900
X017800Y021750
X018000Y019650
X018000Y017000
X018000Y015600
X018000Y014550
X018000Y013750
X018000Y012850
X018002Y005212
X018002Y003312
X018002Y002612
X018502Y002612
X018900Y015050
X019000Y017000
X019002Y005212
X019002Y002612
X019500Y017000
X019502Y003312
X019502Y002612
X019950Y008700
X020000Y017000
X020002Y003312
X020002Y002612
X020450Y015800
X020450Y007850
X020500Y010600
X020500Y009100
X020502Y003312
X020502Y002612
X020900Y004900
X021002Y002612
X021250Y009500
X021250Y008600
X021450Y018098
X021502Y005212
X021502Y002612
X021700Y024250
X021850Y014350
X022002Y005212
X022002Y004212
X022002Y003312
X022002Y002612
X022150Y014650
X022250Y022600
X022250Y018100
X022500Y011350
X022600Y018110
X022800Y015750
X023050Y022850
X023250Y018050
X023450Y015300
X023450Y014900
X023550Y022850
X023700Y020800
X024300Y020800
X024550Y022850
X024800Y020800
X025050Y022850
X025200Y011400
X025400Y020800
X025500Y017000
X025700Y015300
X025700Y014800
X025700Y014300
X025700Y013300
X025700Y012800
X025700Y012300
X026050Y022850
X026200Y017500
X026250Y015950
X026500Y014300
X026500Y013300
X026550Y022850
X026550Y017950
X026850Y022600
T72
X011350Y010700
X013350Y010700
X018480Y016100
X018480Y007440
X018752Y001212
X019270Y016100
X019270Y007440
X020060Y016100
X020060Y007440
X020752Y001212
X020850Y016100
X020850Y007440
X021640Y016100
X021640Y007440
X022430Y016100
X022430Y007440
X023220Y016100
X023220Y007440
X024010Y016100
X024010Y007440
X024800Y016100
X024800Y007440
X025590Y016100
X025590Y007440
T74
X008300Y023350
X008800Y024350
X009300Y023350
X009800Y024350
X010300Y023350
X010800Y024350
X011300Y023350
X011800Y024350
X013550Y006200
X013550Y005200
X013550Y004200
X013550Y003200
X014550Y005700
X014550Y004700
X014550Y003700
X014550Y002700
X015550Y023350
X016050Y024350
X016550Y023350
X017050Y024350
X017550Y023350
X018050Y024350
X018550Y023350
X019050Y024350
X022800Y023350
X023300Y024350
X023800Y023350
X024300Y024350
X024800Y023350
X025300Y024350
X025800Y023350
X026300Y024350
T71
X005350Y011100
X005350Y010100
X006350Y011100
X006350Y010100
X007000Y016700
X007000Y013750
X007350Y011100
X007350Y010100
X007352Y007462
X007352Y006462
X007352Y005462
X007352Y004462
X007352Y003462
X008000Y016700
X008000Y013750
X008352Y007462
X008352Y006462
X008352Y005462
X008352Y004462
X008352Y003462
T77
X009452Y007062
X009452Y006062
X009452Y002842
X009452Y001842
T73
X015750Y014750
X024400Y015450
X025850Y011600
T76
X006946Y019649
X012251Y007503
X012251Y001401
X013146Y019649
X014196Y019649
X020396Y019649
X021446Y019649
X027646Y019649
T78
X011050Y006700
X011050Y002200
T75
X007800Y020850
X012300Y020850
X015050Y020850
X019550Y020850
X022300Y020850
X026800Y020850
M30
