G04 start of page 11 for group -4014 idx -4014 *
G04 Title: (unknown), bottompaste *
G04 Creator: pcb 1.99z *
G04 CreationDate: Sun 16 Nov 2014 06:19:35 AM GMT UTC *
G04 For: commonadmin *
G04 Format: Gerber/RS-274X *
G04 PCB-Dimensions (mil): 4500.00 4500.00 *
G04 PCB-Coordinate-Origin: lower left *
%MOIN*%
%FSLAX25Y25*%
%LNBOTTOMPASTE*%
%ADD146R,0.0060X0.0060*%
%ADD145C,0.0060*%
%ADD144R,0.0512X0.0512*%
%ADD143R,0.4000X0.4000*%
%ADD142R,0.0197X0.0197*%
%ADD141R,0.0295X0.0295*%
G54D141*X60008Y326118D02*X60992D01*
X60008Y321000D02*X60992D01*
X72118Y327992D02*Y327008D01*
X67000Y327992D02*Y327008D01*
X72118Y320992D02*Y320008D01*
X67000Y320992D02*Y320008D01*
G54D142*X114500Y322893D02*Y322107D01*
X111352Y322893D02*Y322107D01*
G54D141*X106634Y354492D02*Y353508D01*
X111752Y354492D02*Y353508D01*
G54D142*X105104Y359493D02*Y358707D01*
X108252Y359493D02*Y358707D01*
X111752Y359493D02*Y358707D01*
X114900Y359493D02*Y358707D01*
G54D141*X105360Y344000D02*X106344D01*
X105360Y338882D02*X106344D01*
X141360Y324000D02*X142344D01*
X141360Y329118D02*X142344D01*
G54D142*X136852Y357893D02*Y357107D01*
X140000Y357893D02*Y357107D01*
G54D143*X26000Y319828D02*X26500D01*
G54D141*X75882Y359992D02*Y359008D01*
X81000Y359992D02*Y359008D01*
X68808Y346500D02*X69792D01*
X68808Y351618D02*X69792D01*
G54D142*X188607Y352352D02*X189393D01*
X188607Y355500D02*X189393D01*
X224107Y351352D02*X224893D01*
X224107Y354500D02*X224893D01*
G54D141*X136016Y275114D02*Y274130D01*
X141134Y275114D02*Y274130D01*
G54D142*X219623Y228122D02*X220409D01*
X219623Y231270D02*X220409D01*
G54D141*X219524Y244504D02*X220508D01*
X219524Y249622D02*X220508D01*
G54D142*X179623Y246974D02*X180409D01*
X179623Y250122D02*X180409D01*
X174623Y246974D02*X175409D01*
X174623Y250122D02*X175409D01*
X154623Y242974D02*X155409D01*
X154623Y239826D02*X155409D01*
X154623Y250122D02*X155409D01*
X154623Y246974D02*X155409D01*
X199623Y228122D02*X200409D01*
X199623Y231270D02*X200409D01*
X194623Y228122D02*X195409D01*
X194623Y231270D02*X195409D01*
X154623Y228122D02*X155409D01*
X154623Y231270D02*X155409D01*
X174623Y228122D02*X175409D01*
X174623Y231270D02*X175409D01*
X179623Y228122D02*X180409D01*
X179623Y231270D02*X180409D01*
X204623D02*X205409D01*
X204623Y228122D02*X205409D01*
X146164Y269515D02*Y268729D01*
X143016Y269515D02*Y268729D01*
X134868Y220515D02*Y219729D01*
X138016Y220515D02*Y219729D01*
X135516Y225015D02*Y224229D01*
X138664Y225015D02*Y224229D01*
X145516Y220015D02*Y219229D01*
X142368Y220015D02*Y219229D01*
X135516Y269515D02*Y268729D01*
X138664Y269515D02*Y268729D01*
X145516Y264515D02*Y263729D01*
X142368Y264515D02*Y263729D01*
X94123Y250474D02*X94909D01*
X94123Y253622D02*X94909D01*
X97664Y213015D02*Y212229D01*
X94516Y213015D02*Y212229D01*
G54D144*X80607Y346400D02*X81393D01*
X80607Y353486D02*X81393D01*
G54D141*X70508Y383500D02*X71492D01*
X70508Y388618D02*X71492D01*
X76508Y383500D02*X77492D01*
X76508Y388618D02*X77492D01*
G54D142*X97607Y417352D02*X98393D01*
X97607Y420500D02*X98393D01*
X97607Y410852D02*X98393D01*
X97607Y414000D02*X98393D01*
X102607Y417352D02*X103393D01*
X102607Y420500D02*X103393D01*
X102607Y410852D02*X103393D01*
X102607Y414000D02*X103393D01*
G54D145*X95000Y427600D02*Y424600D01*
X94300Y423900D02*X95000Y424600D01*
X94300Y428300D02*X95000Y427600D01*
G54D146*X94300Y429800D02*Y428300D01*
Y423900D02*Y423400D01*
G54D145*X94400Y426700D02*X95000Y427300D01*
X94400Y426700D02*X95000Y426100D01*
X94400Y425500D02*X95000Y424900D01*
X94400Y425500D02*X95000Y426100D01*
X92400Y427600D02*Y424500D01*
X93000Y423900D01*
X92400Y427600D02*X93000Y428200D01*
G54D146*Y429800D02*Y428200D01*
Y423900D02*Y423400D01*
G54D145*X92400Y427400D02*X93100Y426700D01*
X92400Y427600D02*Y427400D01*
Y426000D02*X93100Y426700D01*
X92400Y426200D02*X93100Y425500D01*
X92400Y424800D02*X93100Y425500D01*
X100000Y427600D02*Y424600D01*
X99300Y423900D02*X100000Y424600D01*
X99300Y428300D02*X100000Y427600D01*
G54D146*X99300Y429800D02*Y428300D01*
Y423900D02*Y423400D01*
G54D145*X99400Y426700D02*X100000Y427300D01*
X99400Y426700D02*X100000Y426100D01*
X99400Y425500D02*X100000Y424900D01*
X99400Y425500D02*X100000Y426100D01*
X97400Y427600D02*Y424500D01*
X98000Y423900D01*
X97400Y427600D02*X98000Y428200D01*
G54D146*Y429800D02*Y428200D01*
Y423900D02*Y423400D01*
G54D145*X97400Y427400D02*X98100Y426700D01*
X97400Y427600D02*Y427400D01*
Y426000D02*X98100Y426700D01*
X97400Y426200D02*X98100Y425500D01*
X97400Y424800D02*X98100Y425500D01*
X105000Y427600D02*Y424600D01*
X104300Y423900D02*X105000Y424600D01*
X104300Y428300D02*X105000Y427600D01*
G54D146*X104300Y429800D02*Y428300D01*
Y423900D02*Y423400D01*
G54D145*X104400Y426700D02*X105000Y427300D01*
X104400Y426700D02*X105000Y426100D01*
X104400Y425500D02*X105000Y424900D01*
X104400Y425500D02*X105000Y426100D01*
X102400Y427600D02*Y424500D01*
X103000Y423900D01*
X102400Y427600D02*X103000Y428200D01*
G54D146*Y429800D02*Y428200D01*
Y423900D02*Y423400D01*
G54D145*X102400Y427400D02*X103100Y426700D01*
X102400Y427600D02*Y427400D01*
Y426000D02*X103100Y426700D01*
X102400Y426200D02*X103100Y425500D01*
X102400Y424800D02*X103100Y425500D01*
G54D141*X143008Y383500D02*X143992D01*
X143008Y388618D02*X143992D01*
X149008Y383500D02*X149992D01*
X149008Y388618D02*X149992D01*
G54D142*X170107Y417352D02*X170893D01*
X170107Y420500D02*X170893D01*
X170107Y410852D02*X170893D01*
X170107Y414000D02*X170893D01*
X175107Y417352D02*X175893D01*
X175107Y420500D02*X175893D01*
X175107Y410852D02*X175893D01*
X175107Y414000D02*X175893D01*
G54D145*X167500Y427600D02*Y424600D01*
X166800Y423900D02*X167500Y424600D01*
X166800Y428300D02*X167500Y427600D01*
G54D146*X166800Y429800D02*Y428300D01*
Y423900D02*Y423400D01*
G54D145*X166900Y426700D02*X167500Y427300D01*
X166900Y426700D02*X167500Y426100D01*
X166900Y425500D02*X167500Y424900D01*
X166900Y425500D02*X167500Y426100D01*
X164900Y427600D02*Y424500D01*
X165500Y423900D01*
X164900Y427600D02*X165500Y428200D01*
G54D146*Y429800D02*Y428200D01*
Y423900D02*Y423400D01*
G54D145*X164900Y427400D02*X165600Y426700D01*
X164900Y427600D02*Y427400D01*
Y426000D02*X165600Y426700D01*
X164900Y426200D02*X165600Y425500D01*
X164900Y424800D02*X165600Y425500D01*
X172500Y427600D02*Y424600D01*
X171800Y423900D02*X172500Y424600D01*
X171800Y428300D02*X172500Y427600D01*
G54D146*X171800Y429800D02*Y428300D01*
Y423900D02*Y423400D01*
G54D145*X171900Y426700D02*X172500Y427300D01*
X171900Y426700D02*X172500Y426100D01*
X171900Y425500D02*X172500Y424900D01*
X171900Y425500D02*X172500Y426100D01*
X169900Y427600D02*Y424500D01*
X170500Y423900D01*
X169900Y427600D02*X170500Y428200D01*
G54D146*Y429800D02*Y428200D01*
Y423900D02*Y423400D01*
G54D145*X169900Y427400D02*X170600Y426700D01*
X169900Y427600D02*Y427400D01*
Y426000D02*X170600Y426700D01*
X169900Y426200D02*X170600Y425500D01*
X169900Y424800D02*X170600Y425500D01*
X177500Y427600D02*Y424600D01*
X176800Y423900D02*X177500Y424600D01*
X176800Y428300D02*X177500Y427600D01*
G54D146*X176800Y429800D02*Y428300D01*
Y423900D02*Y423400D01*
G54D145*X176900Y426700D02*X177500Y427300D01*
X176900Y426700D02*X177500Y426100D01*
X176900Y425500D02*X177500Y424900D01*
X176900Y425500D02*X177500Y426100D01*
X174900Y427600D02*Y424500D01*
X175500Y423900D01*
X174900Y427600D02*X175500Y428200D01*
G54D146*Y429800D02*Y428200D01*
Y423900D02*Y423400D01*
G54D145*X174900Y427400D02*X175600Y426700D01*
X174900Y427600D02*Y427400D01*
Y426000D02*X175600Y426700D01*
X174900Y426200D02*X175600Y425500D01*
X174900Y424800D02*X175600Y425500D01*
G54D142*X262607Y416852D02*X263393D01*
X262607Y420000D02*X263393D01*
G54D141*X268008Y423618D02*X268992D01*
X268008Y418500D02*X268992D01*
X222008Y423618D02*X222992D01*
X222008Y418500D02*X222992D01*
G54D142*X227607Y416852D02*X228393D01*
X227607Y420000D02*X228393D01*
X253607Y409852D02*X254393D01*
X253607Y413000D02*X254393D01*
X253607Y416852D02*X254393D01*
X253607Y420000D02*X254393D01*
X236607Y409852D02*X237393D01*
X236607Y413000D02*X237393D01*
X236607Y416852D02*X237393D01*
X236607Y420000D02*X237393D01*
X247607Y409704D02*X248393D01*
X247607Y412852D02*X248393D01*
X247607Y416852D02*X248393D01*
X247607Y420000D02*X248393D01*
X242607Y409704D02*X243393D01*
X242607Y412852D02*X243393D01*
X242607Y416852D02*X243393D01*
X242607Y420000D02*X243393D01*
G54D145*X235000Y427100D02*Y424100D01*
X234300Y423400D02*X235000Y424100D01*
X234300Y427800D02*X235000Y427100D01*
G54D146*X234300Y429300D02*Y427800D01*
Y423400D02*Y422900D01*
G54D145*X234400Y426200D02*X235000Y426800D01*
X234400Y426200D02*X235000Y425600D01*
X234400Y425000D02*X235000Y424400D01*
X234400Y425000D02*X235000Y425600D01*
X232400Y427100D02*Y424000D01*
X233000Y423400D01*
X232400Y427100D02*X233000Y427700D01*
G54D146*Y429300D02*Y427700D01*
Y423400D02*Y422900D01*
G54D145*X232400Y426900D02*X233100Y426200D01*
X232400Y427100D02*Y426900D01*
Y425500D02*X233100Y426200D01*
X232400Y425700D02*X233100Y425000D01*
X232400Y424300D02*X233100Y425000D01*
X230000Y427100D02*Y424100D01*
X229300Y423400D02*X230000Y424100D01*
X229300Y427800D02*X230000Y427100D01*
G54D146*X229300Y429300D02*Y427800D01*
Y423400D02*Y422900D01*
G54D145*X229400Y426200D02*X230000Y426800D01*
X229400Y426200D02*X230000Y425600D01*
X229400Y425000D02*X230000Y424400D01*
X229400Y425000D02*X230000Y425600D01*
X227400Y427100D02*Y424000D01*
X228000Y423400D01*
X227400Y427100D02*X228000Y427700D01*
G54D146*Y429300D02*Y427700D01*
Y423400D02*Y422900D01*
G54D145*X227400Y426900D02*X228100Y426200D01*
X227400Y427100D02*Y426900D01*
Y425500D02*X228100Y426200D01*
X227400Y425700D02*X228100Y425000D01*
X227400Y424300D02*X228100Y425000D01*
X216500Y441100D02*Y438100D01*
X215800Y437400D02*X216500Y438100D01*
X215800Y441800D02*X216500Y441100D01*
G54D146*X215800Y443300D02*Y441800D01*
Y437400D02*Y436900D01*
G54D145*X215900Y440200D02*X216500Y440800D01*
X215900Y440200D02*X216500Y439600D01*
X215900Y439000D02*X216500Y438400D01*
X215900Y439000D02*X216500Y439600D01*
X213900Y441100D02*Y438000D01*
X214500Y437400D01*
X213900Y441100D02*X214500Y441700D01*
G54D146*Y443300D02*Y441700D01*
Y437400D02*Y436900D01*
G54D145*X213900Y440900D02*X214600Y440200D01*
X213900Y441100D02*Y440900D01*
Y439500D02*X214600Y440200D01*
X213900Y439700D02*X214600Y439000D01*
X213900Y438300D02*X214600Y439000D01*
X245000Y427100D02*Y424100D01*
X244300Y423400D02*X245000Y424100D01*
X244300Y427800D02*X245000Y427100D01*
G54D146*X244300Y429300D02*Y427800D01*
Y423400D02*Y422900D01*
G54D145*X244400Y426200D02*X245000Y426800D01*
X244400Y426200D02*X245000Y425600D01*
X244400Y425000D02*X245000Y424400D01*
X244400Y425000D02*X245000Y425600D01*
X242400Y427100D02*Y424000D01*
X243000Y423400D01*
X242400Y427100D02*X243000Y427700D01*
G54D146*Y429300D02*Y427700D01*
Y423400D02*Y422900D01*
G54D145*X242400Y426900D02*X243100Y426200D01*
X242400Y427100D02*Y426900D01*
Y425500D02*X243100Y426200D01*
X242400Y425700D02*X243100Y425000D01*
X242400Y424300D02*X243100Y425000D01*
X250000Y427100D02*Y424100D01*
X249300Y423400D02*X250000Y424100D01*
X249300Y427800D02*X250000Y427100D01*
G54D146*X249300Y429300D02*Y427800D01*
Y423400D02*Y422900D01*
G54D145*X249400Y426200D02*X250000Y426800D01*
X249400Y426200D02*X250000Y425600D01*
X249400Y425000D02*X250000Y424400D01*
X249400Y425000D02*X250000Y425600D01*
X247400Y427100D02*Y424000D01*
X248000Y423400D01*
X247400Y427100D02*X248000Y427700D01*
G54D146*Y429300D02*Y427700D01*
Y423400D02*Y422900D01*
G54D145*X247400Y426900D02*X248100Y426200D01*
X247400Y427100D02*Y426900D01*
Y425500D02*X248100Y426200D01*
X247400Y425700D02*X248100Y425000D01*
X247400Y424300D02*X248100Y425000D01*
X260000Y427100D02*Y424100D01*
X259300Y423400D02*X260000Y424100D01*
X259300Y427800D02*X260000Y427100D01*
G54D146*X259300Y429300D02*Y427800D01*
Y423400D02*Y422900D01*
G54D145*X259400Y426200D02*X260000Y426800D01*
X259400Y426200D02*X260000Y425600D01*
X259400Y425000D02*X260000Y424400D01*
X259400Y425000D02*X260000Y425600D01*
X257400Y427100D02*Y424000D01*
X258000Y423400D01*
X257400Y427100D02*X258000Y427700D01*
G54D146*Y429300D02*Y427700D01*
Y423400D02*Y422900D01*
G54D145*X257400Y426900D02*X258100Y426200D01*
X257400Y427100D02*Y426900D01*
Y425500D02*X258100Y426200D01*
X257400Y425700D02*X258100Y425000D01*
X257400Y424300D02*X258100Y425000D01*
G54D141*X214008Y380982D02*X214992D01*
X214008Y386100D02*X214992D01*
X219008Y380982D02*X219992D01*
X219008Y386100D02*X219992D01*
G54D142*X232107Y413000D02*X232893D01*
X232107Y409852D02*X232893D01*
X259064Y400191D02*X259850D01*
X259064Y397043D02*X259850D01*
G54D145*X265000Y427100D02*Y424100D01*
X264300Y423400D02*X265000Y424100D01*
X264300Y427800D02*X265000Y427100D01*
G54D146*X264300Y429300D02*Y427800D01*
Y423400D02*Y422900D01*
G54D145*X264400Y426200D02*X265000Y426800D01*
X264400Y426200D02*X265000Y425600D01*
X264400Y425000D02*X265000Y424400D01*
X264400Y425000D02*X265000Y425600D01*
X262400Y427100D02*Y424000D01*
X263000Y423400D01*
X262400Y427100D02*X263000Y427700D01*
G54D146*Y429300D02*Y427700D01*
Y423400D02*Y422900D01*
G54D145*X262400Y426900D02*X263100Y426200D01*
X262400Y427100D02*Y426900D01*
Y425500D02*X263100Y426200D01*
X262400Y425700D02*X263100Y425000D01*
X262400Y424300D02*X263100Y425000D01*
M02*
