G04 start of page 9 for group -4078 idx -4078 *
G04 Title: (unknown), bottomsilk *
G04 Creator: pcb 1.99z *
G04 CreationDate: Thu 27 Nov 2014 11:47:05 PM GMT UTC *
G04 For: commonadmin *
G04 Format: Gerber/RS-274X *
G04 PCB-Dimensions (mil): 3000.00 2500.00 *
G04 PCB-Coordinate-Origin: lower left *
%MOIN*%
%FSLAX25Y25*%
%LNBOTTOMSILK*%
%ADD129C,0.0050*%
%ADD128C,0.0040*%
%ADD127C,0.0080*%
%ADD126C,0.0060*%
G54D126*X105700Y224400D02*X104900Y223600D01*
X105700Y227900D02*Y224400D01*
X105000Y228600D02*X105700Y227900D01*
X101700Y227800D02*X102400Y228500D01*
X101700Y227800D02*Y224300D01*
X102400Y223600D02*X101700Y224300D01*
X95700Y224400D02*X94900Y223600D01*
X95700Y227900D02*Y224400D01*
X95000Y228600D02*X95700Y227900D01*
X91700Y227800D02*X92400Y228500D01*
X91700Y227800D02*Y224300D01*
X92400Y223600D02*X91700Y224300D01*
X100700Y224400D02*X99900Y223600D01*
X100700Y227900D02*Y224400D01*
X100000Y228600D02*X100700Y227900D01*
X96700Y227800D02*X97400Y228500D01*
X96700Y227800D02*Y224300D01*
X97400Y223600D02*X96700Y224300D01*
G54D127*X83755Y150336D02*Y149550D01*
X78245Y150336D02*Y149550D01*
G54D126*X178200Y224400D02*X177400Y223600D01*
X178200Y227900D02*Y224400D01*
X177500Y228600D02*X178200Y227900D01*
X174200Y227800D02*X174900Y228500D01*
X174200Y227800D02*Y224300D01*
X174900Y223600D02*X174200Y224300D01*
X168200Y224400D02*X167400Y223600D01*
X168200Y227900D02*Y224400D01*
X167500Y228600D02*X168200Y227900D01*
X164200Y227800D02*X164900Y228500D01*
X164200Y227800D02*Y224300D01*
X164900Y223600D02*X164200Y224300D01*
X173200Y224400D02*X172400Y223600D01*
X173200Y227900D02*Y224400D01*
X172500Y228600D02*X173200Y227900D01*
X169200Y227800D02*X169900Y228500D01*
X169200Y227800D02*Y224300D01*
X169900Y223600D02*X169200Y224300D01*
X265700Y223900D02*X264900Y223100D01*
X265700Y227400D02*Y223900D01*
X265000Y228100D02*X265700Y227400D01*
X261700Y227300D02*X262400Y228000D01*
X261700Y227300D02*Y223800D01*
X262400Y223100D02*X261700Y223800D01*
X235700Y223900D02*X234900Y223100D01*
X235700Y227400D02*Y223900D01*
X235000Y228100D02*X235700Y227400D01*
X231700Y227300D02*X232400Y228000D01*
X231700Y227300D02*Y223800D01*
X232400Y223100D02*X231700Y223800D01*
X230700Y223900D02*X229900Y223100D01*
X230700Y227400D02*Y223900D01*
X230000Y228100D02*X230700Y227400D01*
X226700Y227300D02*X227400Y228000D01*
X226700Y227300D02*Y223800D01*
X227400Y223100D02*X226700Y223800D01*
X217200Y237900D02*X216400Y237100D01*
X217200Y241400D02*Y237900D01*
X216500Y242100D02*X217200Y241400D01*
X213200Y241300D02*X213900Y242000D01*
X213200Y241300D02*Y237800D01*
X213900Y237100D02*X213200Y237800D01*
X245700Y223900D02*X244900Y223100D01*
X245700Y227400D02*Y223900D01*
X245000Y228100D02*X245700Y227400D01*
X241700Y227300D02*X242400Y228000D01*
X241700Y227300D02*Y223800D01*
X242400Y223100D02*X241700Y223800D01*
X250700Y223900D02*X249900Y223100D01*
X250700Y227400D02*Y223900D01*
X250000Y228100D02*X250700Y227400D01*
X246700Y227300D02*X247400Y228000D01*
X246700Y227300D02*Y223800D01*
X247400Y223100D02*X246700Y223800D01*
X260700Y223900D02*X259900Y223100D01*
X260700Y227400D02*Y223900D01*
X260000Y228100D02*X260700Y227400D01*
X256700Y227300D02*X257400Y228000D01*
X256700Y227300D02*Y223800D01*
X257400Y223100D02*X256700Y223800D01*
G54D128*X104228Y160950D02*X105528D01*
X103528Y160250D02*X104228Y160950D01*
X103528Y157650D02*Y160250D01*
Y157650D02*X104228Y156950D01*
X105528D01*
X108228Y158950D02*X108728Y159450D01*
X107228Y158950D02*X108228D01*
X106728Y159450D02*X107228Y158950D01*
X106728Y159450D02*Y160450D01*
X107228Y160950D01*
X108728Y158950D02*Y160450D01*
X109228Y160950D01*
X107228D02*X108228D01*
X108728Y160450D01*
X110428Y157450D02*X110928Y156950D01*
X111928D01*
X112428Y157450D01*
X111928Y160950D02*X112428Y160450D01*
X110928Y160950D02*X111928D01*
X110428Y160450D02*X110928Y160950D01*
Y158750D02*X111928D01*
X112428Y157450D02*Y158250D01*
Y159250D02*Y160450D01*
Y159250D02*X111928Y158750D01*
X112428Y158250D02*X111928Y158750D01*
X75991Y161350D02*X77291D01*
X75291Y160650D02*X75991Y161350D01*
X75291Y158050D02*Y160650D01*
Y158050D02*X75991Y157350D01*
X77291D01*
X78991Y159850D02*Y162850D01*
X78491Y159350D02*X78991Y159850D01*
X79491Y159350D01*
X80491D01*
X80991Y159850D01*
Y160850D01*
X80491Y161350D02*X80991Y160850D01*
X79491Y161350D02*X80491D01*
X78991Y160850D02*X79491Y161350D01*
X82191Y157850D02*X82691Y157350D01*
X84191D01*
X84691Y157850D01*
Y158850D01*
X82191Y161350D02*X84691Y158850D01*
X82191Y161350D02*X84691D01*
X67450Y145909D02*X71450D01*
X67450D02*Y147909D01*
X65950Y149609D02*X68950D01*
X69450Y149109D02*X68950Y149609D01*
X69450Y150109D01*
Y151109D01*
X68950Y151609D01*
X67950D02*X68950D01*
X67450Y151109D02*X67950Y151609D01*
X67450Y150109D02*Y151109D01*
X67950Y149609D02*X67450Y150109D01*
X70650Y152809D02*X71450Y153609D01*
X67450D02*X71450D01*
X67450Y152809D02*Y154309D01*
X79150Y147493D02*Y148793D01*
X79850Y146793D02*X79150Y147493D01*
X79850Y146793D02*X82450D01*
X83150Y147493D01*
Y148793D01*
X77650Y150493D02*X80650D01*
X81150Y149993D02*X80650Y150493D01*
X81150Y150993D01*
Y151993D01*
X80650Y152493D01*
X79650D02*X80650D01*
X79150Y151993D02*X79650Y152493D01*
X79150Y150993D02*Y151993D01*
X79650Y150493D02*X79150Y150993D01*
X82350Y153693D02*X83150Y154493D01*
X79150D02*X83150D01*
X79150Y153693D02*Y155193D01*
X110876Y160950D02*X112176D01*
X110176Y160250D02*X110876Y160950D01*
X110176Y157650D02*Y160250D01*
Y157650D02*X110876Y156950D01*
X112176D01*
X114876Y158950D02*X115376Y159450D01*
X113876Y158950D02*X114876D01*
X113376Y159450D02*X113876Y158950D01*
X113376Y159450D02*Y160450D01*
X113876Y160950D01*
X115376Y158950D02*Y160450D01*
X115876Y160950D01*
X113876D02*X114876D01*
X115376Y160450D01*
X117076Y157450D02*X117576Y156950D01*
X119076D01*
X119576Y157450D01*
Y158450D01*
X117076Y160950D02*X119576Y158450D01*
X117076Y160950D02*X119576D01*
X135976Y159350D02*X137276D01*
X135276Y158650D02*X135976Y159350D01*
X135276Y156050D02*Y158650D01*
Y156050D02*X135976Y155350D01*
X137276D01*
X138976Y157850D02*Y159350D01*
Y157850D02*X139476Y157350D01*
X139976D01*
X140476Y157850D01*
Y159350D01*
Y157850D02*X140976Y157350D01*
X141476D01*
X141976Y157850D01*
Y159350D01*
X138476Y157350D02*X138976Y157850D01*
X143176Y155850D02*X143676Y155350D01*
X144676D01*
X145176Y155850D01*
X144676Y159350D02*X145176Y158850D01*
X143676Y159350D02*X144676D01*
X143176Y158850D02*X143676Y159350D01*
Y157150D02*X144676D01*
X145176Y155850D02*Y156650D01*
Y157650D02*Y158850D01*
Y157650D02*X144676Y157150D01*
X145176Y156650D02*X144676Y157150D01*
X106043Y151850D02*Y155850D01*
X108043D01*
X110743Y153850D02*X111243Y154350D01*
X109743Y153850D02*X110743D01*
X109243Y154350D02*X109743Y153850D01*
X109243Y154350D02*Y155350D01*
X109743Y155850D01*
X111243Y153850D02*Y155350D01*
X111743Y155850D01*
X109743D02*X110743D01*
X111243Y155350D01*
X112943Y152350D02*X113443Y151850D01*
X114443D01*
X114943Y152350D01*
X114443Y155850D02*X114943Y155350D01*
X113443Y155850D02*X114443D01*
X112943Y155350D02*X113443Y155850D01*
Y153650D02*X114443D01*
X114943Y152350D02*Y153150D01*
Y154150D02*Y155350D01*
Y154150D02*X114443Y153650D01*
X114943Y153150D02*X114443Y153650D01*
X187650Y150776D02*X189150D01*
X187650D02*X187150Y151276D01*
Y151776D01*
X187650Y152276D01*
X189150D01*
X187650D02*X187150Y152776D01*
Y153276D01*
X187650Y153776D01*
X189150D01*
G54D129*X190050Y154976D02*X190150D01*
G54D128*X187150D02*X188650D01*
X187650Y155976D02*X190650Y158976D01*
X191150Y160176D02*Y162176D01*
X190650Y162676D01*
X189650D02*X190650D01*
X189150Y162176D02*X189650Y162676D01*
X189150Y160676D02*Y162176D01*
X187150Y160676D02*X191150D01*
X189150Y161476D02*X187150Y162676D01*
X188650Y163876D02*X191150Y165876D01*
X188650Y163876D02*Y166376D01*
X187150Y165876D02*X191150D01*
X223150Y149776D02*X224650D01*
X223150D02*X222650Y150276D01*
Y150776D01*
X223150Y151276D01*
X224650D01*
X223150D02*X222650Y151776D01*
Y152276D01*
X223150Y152776D01*
X224650D01*
G54D129*X225550Y153976D02*X225650D01*
G54D128*X222650D02*X224150D01*
X223150Y154976D02*X226150Y157976D01*
X226650Y159176D02*Y161176D01*
X226150Y161676D01*
X225150D02*X226150D01*
X224650Y161176D02*X225150Y161676D01*
X224650Y159676D02*Y161176D01*
X222650Y159676D02*X226650D01*
X224650Y160476D02*X222650Y161676D01*
X226650Y162876D02*Y164876D01*
X224650Y162876D02*X226650D01*
X224650D02*X225150Y163376D01*
Y164376D01*
X224650Y164876D01*
X223150D02*X224650D01*
X222650Y164376D02*X223150Y164876D01*
X222650Y163376D02*Y164376D01*
X223150Y162876D02*X222650Y163376D01*
X263350Y215276D02*Y216776D01*
X261150Y215276D02*Y217276D01*
Y215276D02*X265150D01*
Y217276D01*
X263150Y218476D02*X261150Y220476D01*
Y218476D02*X263150Y220476D01*
X264350Y221676D02*X265150Y222476D01*
X261150D02*X265150D01*
X261150Y221676D02*Y223176D01*
X261650Y224376D02*X264650Y227376D01*
X265150Y228576D02*Y230576D01*
X264650Y231076D01*
X263650D02*X264650D01*
X263150Y230576D02*X263650Y231076D01*
X263150Y229076D02*Y230576D01*
X261150Y229076D02*X265150D01*
X263150Y229876D02*X261150Y231076D01*
X261650Y232276D02*X261150Y232776D01*
X261650Y232276D02*X262450D01*
X263150Y232976D01*
Y233576D01*
X262450Y234276D01*
X261650D02*X262450D01*
X261150Y233776D02*X261650Y234276D01*
X261150Y232776D02*Y233776D01*
X263850Y232276D02*X263150Y232976D01*
X263850Y232276D02*X264650D01*
X265150Y232776D01*
Y233776D01*
X264650Y234276D01*
X263850D02*X264650D01*
X263150Y233576D02*X263850Y234276D01*
X268150Y222709D02*Y224209D01*
X270350Y222209D02*Y224209D01*
X266350D02*X270350D01*
X266350Y222209D02*Y224209D01*
X268350Y221009D02*X270350Y219009D01*
Y221009D02*X268350Y219009D01*
X267150Y217809D02*X266350Y217009D01*
X270350D01*
Y216309D02*Y217809D01*
X269850Y215109D02*X266850Y212109D01*
X266350Y210909D02*X270350D01*
X266350D02*X268350Y209409D01*
X266350Y207909D01*
X270350D01*
X266850Y206709D02*X269850D01*
X266850D02*X266350Y206209D01*
Y205209D02*Y206209D01*
Y205209D02*X266850Y204709D01*
X269850D01*
X270350Y205209D02*X269850Y204709D01*
X270350Y205209D02*Y206209D01*
X269850Y206709D02*X270350Y206209D01*
X266350Y203509D02*X270350Y202509D01*
X266350Y201509D01*
X266850Y200309D02*X266350Y199809D01*
Y198309D02*Y199809D01*
Y198309D02*X266850Y197809D01*
X267850D01*
X270350Y200309D02*X267850Y197809D01*
X270350D02*Y200309D01*
X254350Y208776D02*Y210276D01*
X252150Y208776D02*Y210776D01*
Y208776D02*X256150D01*
Y210776D01*
X254150Y211976D02*X252150Y213976D01*
Y211976D02*X254150Y213976D01*
X255350Y215176D02*X256150Y215976D01*
X252150D02*X256150D01*
X252150Y215176D02*Y216676D01*
X252650Y217876D02*X255650Y220876D01*
X252150Y222776D02*Y224076D01*
X252850Y222076D02*X252150Y222776D01*
X252850Y222076D02*X255450D01*
X256150Y222776D01*
Y224076D01*
Y225276D02*Y227276D01*
X254150Y225276D02*X256150D01*
X254150D02*X254650Y225776D01*
Y226776D01*
X254150Y227276D01*
X252650D02*X254150D01*
X252150Y226776D02*X252650Y227276D01*
X252150Y225776D02*Y226776D01*
X252650Y225276D02*X252150Y225776D01*
X254350Y215776D02*Y217276D01*
X252150Y215776D02*Y217776D01*
Y215776D02*X256150D01*
Y217776D01*
X254150Y218976D02*X252150Y220976D01*
Y218976D02*X254150Y220976D01*
X255350Y222176D02*X256150Y222976D01*
X252150D02*X256150D01*
X252150Y222176D02*Y223676D01*
X252650Y224876D02*X255650Y227876D01*
X256150Y229076D02*Y231076D01*
X255650Y231576D01*
X254650D02*X255650D01*
X254150Y231076D02*X254650Y231576D01*
X254150Y229576D02*Y231076D01*
X252150Y229576D02*X256150D01*
X254150Y230376D02*X252150Y231576D01*
X256150Y232776D02*Y234776D01*
X254150Y232776D02*X256150D01*
X254150D02*X254650Y233276D01*
Y234276D01*
X254150Y234776D01*
X252650D02*X254150D01*
X252150Y234276D02*X252650Y234776D01*
X252150Y233276D02*Y234276D01*
X252650Y232776D02*X252150Y233276D01*
X259107Y199767D02*Y201267D01*
X261307Y199267D02*Y201267D01*
X257307D02*X261307D01*
X257307Y199267D02*Y201267D01*
X259307Y198067D02*X261307Y196067D01*
Y198067D02*X259307Y196067D01*
X258107Y194867D02*X257307Y194067D01*
X261307D01*
Y193367D02*Y194867D01*
X260807Y192167D02*X257807Y189167D01*
X257307Y185967D02*Y187967D01*
Y185967D02*X257807Y185467D01*
X258807D01*
X259307Y185967D02*X258807Y185467D01*
X259307Y185967D02*Y187467D01*
X257307D02*X261307D01*
X259307Y186667D02*X261307Y185467D01*
X257307Y182767D02*X257807Y182267D01*
X257307Y182767D02*Y183767D01*
X257807Y184267D02*X257307Y183767D01*
X257807Y184267D02*X260807D01*
X261307Y183767D01*
X259107Y182767D02*X259607Y182267D01*
X259107Y182767D02*Y184267D01*
X261307Y182767D02*Y183767D01*
Y182767D02*X260807Y182267D01*
X259607D02*X260807D01*
X98350Y215776D02*Y217276D01*
X96150Y215776D02*Y217776D01*
Y215776D02*X100150D01*
Y217776D01*
X98150Y218976D02*X96150Y220976D01*
Y218976D02*X98150Y220976D01*
X99650Y222176D02*X100150Y222676D01*
Y223676D01*
X99650Y224176D01*
X96150Y223676D02*X96650Y224176D01*
X96150Y222676D02*Y223676D01*
X96650Y222176D02*X96150Y222676D01*
X98350D02*Y223676D01*
X98850Y224176D02*X99650D01*
X96650D02*X97850D01*
X98350Y223676D01*
X98850Y224176D02*X98350Y223676D01*
X96650Y225376D02*X99650Y228376D01*
X100150Y229576D02*Y231576D01*
X99650Y232076D01*
X98650D02*X99650D01*
X98150Y231576D02*X98650Y232076D01*
X98150Y230076D02*Y231576D01*
X96150Y230076D02*X100150D01*
X98150Y230876D02*X96150Y232076D01*
X99350Y233276D02*X100150Y234076D01*
X96150D02*X100150D01*
X96150Y233276D02*Y234776D01*
X98350Y209276D02*Y210776D01*
X96150Y209276D02*Y211276D01*
Y209276D02*X100150D01*
Y211276D01*
X98150Y212476D02*X96150Y214476D01*
Y212476D02*X98150Y214476D01*
X99650Y215676D02*X100150Y216176D01*
Y217176D01*
X99650Y217676D01*
X96150Y217176D02*X96650Y217676D01*
X96150Y216176D02*Y217176D01*
X96650Y215676D02*X96150Y216176D01*
X98350D02*Y217176D01*
X98850Y217676D02*X99650D01*
X96650D02*X97850D01*
X98350Y217176D01*
X98850Y217676D02*X98350Y217176D01*
X96650Y218876D02*X99650Y221876D01*
X96150Y223776D02*Y225076D01*
X96850Y223076D02*X96150Y223776D01*
X96850Y223076D02*X99450D01*
X100150Y223776D01*
Y225076D01*
X99350Y226276D02*X100150Y227076D01*
X96150D02*X100150D01*
X96150Y226276D02*Y227776D01*
X103350Y209276D02*Y210776D01*
X101150Y209276D02*Y211276D01*
Y209276D02*X105150D01*
Y211276D01*
X103150Y212476D02*X101150Y214476D01*
Y212476D02*X103150Y214476D01*
X104650Y215676D02*X105150Y216176D01*
Y217176D01*
X104650Y217676D01*
X101150Y217176D02*X101650Y217676D01*
X101150Y216176D02*Y217176D01*
X101650Y215676D02*X101150Y216176D01*
X103350D02*Y217176D01*
X103850Y217676D02*X104650D01*
X101650D02*X102850D01*
X103350Y217176D01*
X103850Y217676D02*X103350Y217176D01*
X101650Y218876D02*X104650Y221876D01*
X101150Y223776D02*Y225076D01*
X101850Y223076D02*X101150Y223776D01*
X101850Y223076D02*X104450D01*
X105150Y223776D01*
Y225076D01*
X104650Y226276D02*X105150Y226776D01*
Y228276D01*
X104650Y228776D01*
X103650D02*X104650D01*
X101150Y226276D02*X103650Y228776D01*
X101150Y226276D02*Y228776D01*
X103350Y215776D02*Y217276D01*
X101150Y215776D02*Y217776D01*
Y215776D02*X105150D01*
Y217776D01*
X103150Y218976D02*X101150Y220976D01*
Y218976D02*X103150Y220976D01*
X104650Y222176D02*X105150Y222676D01*
Y223676D01*
X104650Y224176D01*
X101150Y223676D02*X101650Y224176D01*
X101150Y222676D02*Y223676D01*
X101650Y222176D02*X101150Y222676D01*
X103350D02*Y223676D01*
X103850Y224176D02*X104650D01*
X101650D02*X102850D01*
X103350Y223676D01*
X103850Y224176D02*X103350Y223676D01*
X101650Y225376D02*X104650Y228376D01*
X105150Y229576D02*Y231576D01*
X104650Y232076D01*
X103650D02*X104650D01*
X103150Y231576D02*X103650Y232076D01*
X103150Y230076D02*Y231576D01*
X101150Y230076D02*X105150D01*
X103150Y230876D02*X101150Y232076D01*
X104650Y233276D02*X105150Y233776D01*
Y235276D01*
X104650Y235776D01*
X103650D02*X104650D01*
X101150Y233276D02*X103650Y235776D01*
X101150Y233276D02*Y235776D01*
X71350Y182909D02*Y184409D01*
X69150Y182909D02*Y184909D01*
Y182909D02*X73150D01*
Y184909D01*
X71150Y186109D02*X69150Y188109D01*
Y186109D02*X71150Y188109D01*
X72650Y189309D02*X73150Y189809D01*
Y190809D01*
X72650Y191309D01*
X69150Y190809D02*X69650Y191309D01*
X69150Y189809D02*Y190809D01*
X69650Y189309D02*X69150Y189809D01*
X71350D02*Y190809D01*
X71850Y191309D02*X72650D01*
X69650D02*X70850D01*
X71350Y190809D01*
X71850Y191309D02*X71350Y190809D01*
X69650Y192509D02*X72650Y195509D01*
X69150Y196709D02*X73150D01*
X69150D02*Y198709D01*
X72350Y199909D02*X73150Y200709D01*
X69150D02*X73150D01*
X69150Y199909D02*Y201409D01*
X77350Y182909D02*Y184409D01*
X75150Y182909D02*Y184909D01*
Y182909D02*X79150D01*
Y184909D01*
X77150Y186109D02*X75150Y188109D01*
Y186109D02*X77150Y188109D01*
X78650Y189309D02*X79150Y189809D01*
Y190809D01*
X78650Y191309D01*
X75150Y190809D02*X75650Y191309D01*
X75150Y189809D02*Y190809D01*
X75650Y189309D02*X75150Y189809D01*
X77350D02*Y190809D01*
X77850Y191309D02*X78650D01*
X75650D02*X76850D01*
X77350Y190809D01*
X77850Y191309D02*X77350Y190809D01*
X75650Y192509D02*X78650Y195509D01*
X75150Y197409D02*Y198709D01*
X75850Y196709D02*X75150Y197409D01*
X75850Y196709D02*X78450D01*
X79150Y197409D01*
Y198709D01*
X78650Y199909D02*X79150Y200409D01*
Y201409D01*
X78650Y201909D01*
X75150Y201409D02*X75650Y201909D01*
X75150Y200409D02*Y201409D01*
X75650Y199909D02*X75150Y200409D01*
X77350D02*Y201409D01*
X77850Y201909D02*X78650D01*
X75650D02*X76850D01*
X77350Y201409D01*
X77850Y201909D02*X77350Y201409D01*
X143850Y182909D02*Y184409D01*
X141650Y182909D02*Y184909D01*
Y182909D02*X145650D01*
Y184909D01*
X143650Y186109D02*X141650Y188109D01*
Y186109D02*X143650Y188109D01*
X145150Y189309D02*X145650Y189809D01*
Y191309D01*
X145150Y191809D01*
X144150D02*X145150D01*
X141650Y189309D02*X144150Y191809D01*
X141650Y189309D02*Y191809D01*
X142150Y193009D02*X145150Y196009D01*
X141650Y197209D02*X145650D01*
X141650D02*Y199209D01*
X144850Y200409D02*X145650Y201209D01*
X141650D02*X145650D01*
X141650Y200409D02*Y201909D01*
X149850Y182909D02*Y184409D01*
X147650Y182909D02*Y184909D01*
Y182909D02*X151650D01*
Y184909D01*
X149650Y186109D02*X147650Y188109D01*
Y186109D02*X149650Y188109D01*
X151150Y189309D02*X151650Y189809D01*
Y191309D01*
X151150Y191809D01*
X150150D02*X151150D01*
X147650Y189309D02*X150150Y191809D01*
X147650Y189309D02*Y191809D01*
X148150Y193009D02*X151150Y196009D01*
X147650Y197909D02*Y199209D01*
X148350Y197209D02*X147650Y197909D01*
X148350Y197209D02*X150950D01*
X151650Y197909D01*
Y199209D01*
X151150Y200409D02*X151650Y200909D01*
Y201909D01*
X151150Y202409D01*
X147650Y201909D02*X148150Y202409D01*
X147650Y200909D02*Y201909D01*
X148150Y200409D02*X147650Y200909D01*
X149850D02*Y201909D01*
X150350Y202409D02*X151150D01*
X148150D02*X149350D01*
X149850Y201909D01*
X150350Y202409D02*X149850Y201909D01*
X170850Y215776D02*Y217276D01*
X168650Y215776D02*Y217776D01*
Y215776D02*X172650D01*
Y217776D01*
X170650Y218976D02*X168650Y220976D01*
Y218976D02*X170650Y220976D01*
X172150Y222176D02*X172650Y222676D01*
Y224176D01*
X172150Y224676D01*
X171150D02*X172150D01*
X168650Y222176D02*X171150Y224676D01*
X168650Y222176D02*Y224676D01*
X169150Y225876D02*X172150Y228876D01*
X172650Y230076D02*Y232076D01*
X172150Y232576D01*
X171150D02*X172150D01*
X170650Y232076D02*X171150Y232576D01*
X170650Y230576D02*Y232076D01*
X168650Y230576D02*X172650D01*
X170650Y231376D02*X168650Y232576D01*
X171850Y233776D02*X172650Y234576D01*
X168650D02*X172650D01*
X168650Y233776D02*Y235276D01*
X170850Y209276D02*Y210776D01*
X168650Y209276D02*Y211276D01*
Y209276D02*X172650D01*
Y211276D01*
X170650Y212476D02*X168650Y214476D01*
Y212476D02*X170650Y214476D01*
X172150Y215676D02*X172650Y216176D01*
Y217676D01*
X172150Y218176D01*
X171150D02*X172150D01*
X168650Y215676D02*X171150Y218176D01*
X168650Y215676D02*Y218176D01*
X169150Y219376D02*X172150Y222376D01*
X168650Y224276D02*Y225576D01*
X169350Y223576D02*X168650Y224276D01*
X169350Y223576D02*X171950D01*
X172650Y224276D01*
Y225576D01*
X171850Y226776D02*X172650Y227576D01*
X168650D02*X172650D01*
X168650Y226776D02*Y228276D01*
X175850Y215776D02*Y217276D01*
X173650Y215776D02*Y217776D01*
Y215776D02*X177650D01*
Y217776D01*
X175650Y218976D02*X173650Y220976D01*
Y218976D02*X175650Y220976D01*
X177150Y222176D02*X177650Y222676D01*
Y224176D01*
X177150Y224676D01*
X176150D02*X177150D01*
X173650Y222176D02*X176150Y224676D01*
X173650Y222176D02*Y224676D01*
X174150Y225876D02*X177150Y228876D01*
X177650Y230076D02*Y232076D01*
X177150Y232576D01*
X176150D02*X177150D01*
X175650Y232076D02*X176150Y232576D01*
X175650Y230576D02*Y232076D01*
X173650Y230576D02*X177650D01*
X175650Y231376D02*X173650Y232576D01*
X177150Y233776D02*X177650Y234276D01*
Y235776D01*
X177150Y236276D01*
X176150D02*X177150D01*
X173650Y233776D02*X176150Y236276D01*
X173650Y233776D02*Y236276D01*
X175850Y209276D02*Y210776D01*
X173650Y209276D02*Y211276D01*
Y209276D02*X177650D01*
Y211276D01*
X175650Y212476D02*X173650Y214476D01*
Y212476D02*X175650Y214476D01*
X177150Y215676D02*X177650Y216176D01*
Y217676D01*
X177150Y218176D01*
X176150D02*X177150D01*
X173650Y215676D02*X176150Y218176D01*
X173650Y215676D02*Y218176D01*
X174150Y219376D02*X177150Y222376D01*
X173650Y224276D02*Y225576D01*
X174350Y223576D02*X173650Y224276D01*
X174350Y223576D02*X176950D01*
X177650Y224276D01*
Y225576D01*
X177150Y226776D02*X177650Y227276D01*
Y228776D01*
X177150Y229276D01*
X176150D02*X177150D01*
X173650Y226776D02*X176150Y229276D01*
X173650Y226776D02*Y229276D01*
X222150Y222709D02*Y224209D01*
X224350Y222209D02*Y224209D01*
X220350D02*X224350D01*
X220350Y222209D02*Y224209D01*
X222350Y221009D02*X224350Y219009D01*
Y221009D02*X222350Y219009D01*
X221150Y217809D02*X220350Y217009D01*
X224350D01*
Y216309D02*Y217809D01*
X223850Y215109D02*X220850Y212109D01*
X220350Y210909D02*X224350D01*
X220350D02*X222350Y209409D01*
X220350Y207909D01*
X224350D01*
X220850Y206709D02*X223850D01*
X220850D02*X220350Y206209D01*
Y205209D02*Y206209D01*
Y205209D02*X220850Y204709D01*
X223850D01*
X224350Y205209D02*X223850Y204709D01*
X224350Y205209D02*Y206209D01*
X223850Y206709D02*X224350Y206209D01*
X220350Y203509D02*X224350Y202509D01*
X220350Y201509D01*
X221150Y200309D02*X220350Y199509D01*
X224350D01*
Y198809D02*Y200309D01*
X228350Y215276D02*Y216776D01*
X226150Y215276D02*Y217276D01*
Y215276D02*X230150D01*
Y217276D01*
X228150Y218476D02*X226150Y220476D01*
Y218476D02*X228150Y220476D01*
X229350Y221676D02*X230150Y222476D01*
X226150D02*X230150D01*
X226150Y221676D02*Y223176D01*
X226650Y224376D02*X229650Y227376D01*
X230150Y228576D02*Y230576D01*
X229650Y231076D01*
X228650D02*X229650D01*
X228150Y230576D02*X228650Y231076D01*
X228150Y229076D02*Y230576D01*
X226150Y229076D02*X230150D01*
X228150Y229876D02*X226150Y231076D01*
Y232776D02*X230150Y234776D01*
Y232276D02*Y234776D01*
X214850Y181391D02*Y182891D01*
X212650Y181391D02*Y183391D01*
Y181391D02*X216650D01*
Y183391D01*
X214650Y184591D02*X212650Y186591D01*
Y184591D02*X214650Y186591D01*
X215850Y187791D02*X216650Y188591D01*
X212650D02*X216650D01*
X212650Y187791D02*Y189291D01*
X213150Y190491D02*X216150Y193491D01*
X212650Y194691D02*X216650D01*
X212650D02*Y196691D01*
X215850Y197891D02*X216650Y198691D01*
X212650D02*X216650D01*
X212650Y197891D02*Y199391D01*
X219850Y180891D02*Y182391D01*
X217650Y180891D02*Y182891D01*
Y180891D02*X221650D01*
Y182891D01*
X219650Y184091D02*X217650Y186091D01*
Y184091D02*X219650Y186091D01*
X220850Y187291D02*X221650Y188091D01*
X217650D02*X221650D01*
X217650Y187291D02*Y188791D01*
X218150Y189991D02*X221150Y192991D01*
X217650Y194891D02*Y196191D01*
X218350Y194191D02*X217650Y194891D01*
X218350Y194191D02*X220950D01*
X221650Y194891D01*
Y196191D01*
X220850Y197391D02*X221650Y198191D01*
X217650D02*X221650D01*
X217650Y197391D02*Y198891D01*
X232150Y212576D02*Y214076D01*
X234350Y212076D02*Y214076D01*
X230350D02*X234350D01*
X230350Y212076D02*Y214076D01*
X232350Y210876D02*X234350Y208876D01*
Y210876D02*X232350Y208876D01*
X231150Y207676D02*X230350Y206876D01*
X234350D01*
Y206176D02*Y207676D01*
X233850Y204976D02*X230850Y201976D01*
X230350Y198776D02*Y200776D01*
Y198776D02*X230850Y198276D01*
X231850D01*
X232350Y198776D02*X231850Y198276D01*
X232350Y198776D02*Y200276D01*
X230350D02*X234350D01*
X232350Y199476D02*X234350Y198276D01*
X231150Y197076D02*X230350Y196276D01*
X234350D01*
Y195576D02*Y197076D01*
X237350Y208776D02*Y210276D01*
X235150Y208776D02*Y210776D01*
Y208776D02*X239150D01*
Y210776D01*
X237150Y211976D02*X235150Y213976D01*
Y211976D02*X237150Y213976D01*
X238350Y215176D02*X239150Y215976D01*
X235150D02*X239150D01*
X235150Y215176D02*Y216676D01*
X235650Y217876D02*X238650Y220876D01*
X235150Y222776D02*Y224076D01*
X235850Y222076D02*X235150Y222776D01*
X235850Y222076D02*X238450D01*
X239150Y222776D01*
Y224076D01*
X238650Y225276D02*X239150Y225776D01*
Y227276D01*
X238650Y227776D01*
X237650D02*X238650D01*
X235150Y225276D02*X237650Y227776D01*
X235150Y225276D02*Y227776D01*
X237350Y215276D02*Y216776D01*
X235150Y215276D02*Y217276D01*
Y215276D02*X239150D01*
Y217276D01*
X237150Y218476D02*X235150Y220476D01*
Y218476D02*X237150Y220476D01*
X238350Y221676D02*X239150Y222476D01*
X235150D02*X239150D01*
X235150Y221676D02*Y223176D01*
X235650Y224376D02*X238650Y227376D01*
X239150Y228576D02*Y230576D01*
X238650Y231076D01*
X237650D02*X238650D01*
X237150Y230576D02*X237650Y231076D01*
X237150Y229076D02*Y230576D01*
X235150Y229076D02*X239150D01*
X237150Y229876D02*X235150Y231076D01*
X238650Y232276D02*X239150Y232776D01*
Y234276D01*
X238650Y234776D01*
X237650D02*X238650D01*
X235150Y232276D02*X237650Y234776D01*
X235150Y232276D02*Y234776D01*
X243350Y215776D02*Y217276D01*
X241150Y215776D02*Y217776D01*
Y215776D02*X245150D01*
Y217776D01*
X243150Y218976D02*X241150Y220976D01*
Y218976D02*X243150Y220976D01*
X244350Y222176D02*X245150Y222976D01*
X241150D02*X245150D01*
X241150Y222176D02*Y223676D01*
X241650Y224876D02*X244650Y227876D01*
X245150Y229076D02*Y231076D01*
X244650Y231576D01*
X243650D02*X244650D01*
X243150Y231076D02*X243650Y231576D01*
X243150Y229576D02*Y231076D01*
X241150Y229576D02*X245150D01*
X243150Y230376D02*X241150Y231576D01*
X244650Y232776D02*X245150Y233276D01*
Y234276D01*
X244650Y234776D01*
X241150Y234276D02*X241650Y234776D01*
X241150Y233276D02*Y234276D01*
X241650Y232776D02*X241150Y233276D01*
X243350D02*Y234276D01*
X243850Y234776D02*X244650D01*
X241650D02*X242850D01*
X243350Y234276D01*
X243850Y234776D02*X243350Y234276D01*
X248350Y208128D02*Y209628D01*
X246150Y208128D02*Y210128D01*
Y208128D02*X250150D01*
Y210128D01*
X248150Y211328D02*X246150Y213328D01*
Y211328D02*X248150Y213328D01*
X249350Y214528D02*X250150Y215328D01*
X246150D02*X250150D01*
X246150Y214528D02*Y216028D01*
X246650Y217228D02*X249650Y220228D01*
X246150Y222128D02*Y223428D01*
X246850Y221428D02*X246150Y222128D01*
X246850Y221428D02*X249450D01*
X250150Y222128D01*
Y223428D01*
X247650Y224628D02*X250150Y226628D01*
X247650Y224628D02*Y227128D01*
X246150Y226628D02*X250150D01*
X248350Y215276D02*Y216776D01*
X246150Y215276D02*Y217276D01*
Y215276D02*X250150D01*
Y217276D01*
X248150Y218476D02*X246150Y220476D01*
Y218476D02*X248150Y220476D01*
X249350Y221676D02*X250150Y222476D01*
X246150D02*X250150D01*
X246150Y221676D02*Y223176D01*
X246650Y224376D02*X249650Y227376D01*
X250150Y228576D02*Y230576D01*
X249650Y231076D01*
X248650D02*X249650D01*
X248150Y230576D02*X248650Y231076D01*
X248150Y229076D02*Y230576D01*
X246150Y229076D02*X250150D01*
X248150Y229876D02*X246150Y231076D01*
X247650Y232276D02*X250150Y234276D01*
X247650Y232276D02*Y234776D01*
X246150Y234276D02*X250150D01*
X243350Y208628D02*Y210128D01*
X241150Y208628D02*Y210628D01*
Y208628D02*X245150D01*
Y210628D01*
X243150Y211828D02*X241150Y213828D01*
Y211828D02*X243150Y213828D01*
X244350Y215028D02*X245150Y215828D01*
X241150D02*X245150D01*
X241150Y215028D02*Y216528D01*
X241650Y217728D02*X244650Y220728D01*
X241150Y222628D02*Y223928D01*
X241850Y221928D02*X241150Y222628D01*
X241850Y221928D02*X244450D01*
X245150Y222628D01*
Y223928D01*
X244650Y225128D02*X245150Y225628D01*
Y226628D01*
X244650Y227128D01*
X241150Y226628D02*X241650Y227128D01*
X241150Y225628D02*Y226628D01*
X241650Y225128D02*X241150Y225628D01*
X243350D02*Y226628D01*
X243850Y227128D02*X244650D01*
X241650D02*X242850D01*
X243350Y226628D01*
X243850Y227128D02*X243350Y226628D01*
X58350Y126709D02*X62350D01*
Y124709D02*Y126709D01*
X60350Y122009D02*X60850Y121509D01*
X60350Y122009D02*Y123009D01*
X60850Y123509D02*X60350Y123009D01*
X60850Y123509D02*X61850D01*
X62350Y123009D01*
X60350Y121509D02*X61850D01*
X62350Y121009D01*
Y122009D02*Y123009D01*
Y122009D02*X61850Y121509D01*
X59150Y119809D02*X58350Y119009D01*
X62350D01*
Y118309D02*Y119809D01*
X72709Y126150D02*Y129650D01*
Y126150D02*X72209Y125650D01*
X71209D02*X72209D01*
X71209D02*X70709Y126150D01*
Y129650D01*
X69509Y126150D02*Y127650D01*
Y126150D02*X69009Y125650D01*
X68009D02*X69009D01*
X68009D02*X67509Y126150D01*
Y127650D01*
X66309Y128850D02*X65509Y129650D01*
Y125650D02*Y129650D01*
X64809Y125650D02*X66309D01*
X72709Y119150D02*Y122650D01*
Y119150D02*X72209Y118650D01*
X71209D02*X72209D01*
X71209D02*X70709Y119150D01*
Y122650D01*
X69509Y119150D02*Y120650D01*
Y119150D02*X69009Y118650D01*
X68009D02*X69009D01*
X68009D02*X67509Y119150D01*
Y120650D01*
X66309Y122150D02*X65809Y122650D01*
X64309D02*X65809D01*
X64309D02*X63809Y122150D01*
Y121150D02*Y122150D01*
X66309Y118650D02*X63809Y121150D01*
Y118650D02*X66309D01*
X114076Y124650D02*X116076D01*
X114076D02*X113576Y124150D01*
Y123150D02*Y124150D01*
X114076Y122650D02*X113576Y123150D01*
X114076Y122650D02*X115576D01*
Y120650D02*Y124650D01*
X114776Y122650D02*X113576Y120650D01*
G54D129*X112376Y123550D02*Y123650D01*
G54D128*Y120650D02*Y122150D01*
X111376Y123850D02*X110576Y124650D01*
Y120650D02*Y124650D01*
X109876Y120650D02*X111376D01*
X107702Y142591D02*Y143891D01*
X107002Y144591D02*X107702Y143891D01*
X104402Y144591D02*X107002D01*
X104402D02*X103702Y143891D01*
Y142591D02*Y143891D01*
X105702Y141391D02*X107202D01*
X107702Y140891D01*
Y139891D02*Y140891D01*
Y139891D02*X107202Y139391D01*
X105702D02*X107202D01*
X104502Y138191D02*X103702Y137391D01*
X107702D01*
Y136691D02*Y138191D01*
X140002Y124109D02*Y125409D01*
X140702Y123409D02*X140002Y124109D01*
X140702Y123409D02*X143302D01*
X144002Y124109D01*
Y125409D01*
X142002Y128109D02*X141502Y128609D01*
X142002Y127109D02*Y128109D01*
X141502Y126609D02*X142002Y127109D01*
X140502Y126609D02*X141502D01*
X140502D02*X140002Y127109D01*
X140502Y128609D02*X142002D01*
X140502D02*X140002Y129109D01*
Y127109D02*Y128109D01*
X140502Y128609D01*
X141502Y130309D02*X144002Y132309D01*
X141502Y130309D02*Y132809D01*
X140002Y132309D02*X144002D01*
X145740Y67272D02*X147240D01*
X147740Y67772D02*X147240Y67272D01*
X147740Y67772D02*Y68772D01*
X147240Y69272D01*
X146240D02*X147240D01*
X146240D02*X145740Y68772D01*
Y68272D02*X147740D01*
X145740D02*Y68772D01*
X144040Y67772D02*Y71272D01*
Y67772D02*X143540Y67272D01*
Y69772D02*X144540D01*
X142540Y67272D02*Y71272D01*
Y68772D02*X142040Y69272D01*
X141040D02*X142040D01*
X141040D02*X140540Y68772D01*
Y67272D02*Y68772D01*
X139340Y67772D02*X138840Y67272D01*
X139340Y67772D02*Y70772D01*
X138840Y71272D01*
X137840D02*X138840D01*
X137840D02*X137340Y70772D01*
Y67772D02*Y70772D01*
X137840Y67272D02*X137340Y67772D01*
X137840Y67272D02*X138840D01*
X139340Y68272D02*X137340Y70272D01*
X136140Y67772D02*X133140Y70772D01*
X129940Y67272D02*X131240D01*
X131940Y67972D02*X131240Y67272D01*
X131940Y67972D02*Y70572D01*
X131240Y71272D01*
X129940D02*X131240D01*
X128240Y65772D02*Y68772D01*
X128740Y69272D02*X128240Y68772D01*
X127740Y69272D01*
X126740D02*X127740D01*
X126740D02*X126240Y68772D01*
Y67772D02*Y68772D01*
X126740Y67272D02*X126240Y67772D01*
X126740Y67272D02*X127740D01*
X128240Y67772D02*X127740Y67272D01*
X125040Y70472D02*X124240Y71272D01*
Y67272D02*Y71272D01*
X123540Y67272D02*X125040D01*
X145092Y17772D02*X146592D01*
X147092Y18272D02*X146592Y17772D01*
X147092Y18272D02*Y19272D01*
X146592Y19772D01*
X145592D02*X146592D01*
X145592D02*X145092Y19272D01*
Y18772D02*X147092D01*
X145092D02*Y19272D01*
X143392Y18272D02*Y21772D01*
Y18272D02*X142892Y17772D01*
Y20272D02*X143892D01*
X141892Y17772D02*Y21772D01*
Y19272D02*X141392Y19772D01*
X140392D02*X141392D01*
X140392D02*X139892Y19272D01*
Y17772D02*Y19272D01*
X138692Y18272D02*X138192Y17772D01*
X138692Y18272D02*Y21272D01*
X138192Y21772D01*
X137192D02*X138192D01*
X137192D02*X136692Y21272D01*
Y18272D02*Y21272D01*
X137192Y17772D02*X136692Y18272D01*
X137192Y17772D02*X138192D01*
X138692Y18772D02*X136692Y20772D01*
X135492Y18272D02*X132492Y21272D01*
X129292Y21772D02*X131292D01*
X129292D02*X128792Y21272D01*
Y20272D02*Y21272D01*
X129292Y19772D02*X128792Y20272D01*
X129292Y19772D02*X130792D01*
Y17772D02*Y21772D01*
X129992Y19772D02*X128792Y17772D01*
X127092Y16272D02*Y19272D01*
X127592Y19772D02*X127092Y19272D01*
X126592Y19772D01*
X125592D02*X126592D01*
X125592D02*X125092Y19272D01*
Y18272D02*Y19272D01*
X125592Y17772D02*X125092Y18272D01*
X125592Y17772D02*X126592D01*
X127092Y18272D02*X126592Y17772D01*
X123892Y19272D02*X121892Y21772D01*
X121392Y19272D02*X123892D01*
X121892Y17772D02*Y21772D01*
X97240Y10772D02*X98740D01*
X99240Y11272D02*X98740Y10772D01*
X99240Y11272D02*Y12272D01*
X98740Y12772D01*
X97740D02*X98740D01*
X97740D02*X97240Y12272D01*
Y11772D02*X99240D01*
X97240D02*Y12272D01*
X95540Y11272D02*Y14772D01*
Y11272D02*X95040Y10772D01*
Y13272D02*X96040D01*
X94040Y10772D02*Y14772D01*
Y12272D02*X93540Y12772D01*
X92540D02*X93540D01*
X92540D02*X92040Y12272D01*
Y10772D02*Y12272D01*
X90840Y11272D02*X90340Y10772D01*
X90840Y11272D02*Y14272D01*
X90340Y14772D01*
X89340D02*X90340D01*
X89340D02*X88840Y14272D01*
Y11272D02*Y14272D01*
X89340Y10772D02*X88840Y11272D01*
X89340Y10772D02*X90340D01*
X90840Y11772D02*X88840Y13772D01*
X87640Y11272D02*X84640Y14272D01*
X81440Y14772D02*X83440D01*
X81440D02*X80940Y14272D01*
Y13272D02*Y14272D01*
X81440Y12772D02*X80940Y13272D01*
X81440Y12772D02*X82940D01*
Y10772D02*Y14772D01*
X82140Y12772D02*X80940Y10772D01*
X79240Y9272D02*Y12272D01*
X79740Y12772D02*X79240Y12272D01*
X78740Y12772D01*
X77740D02*X78740D01*
X77740D02*X77240Y12272D01*
Y11272D02*Y12272D01*
X77740Y10772D02*X77240Y11272D01*
X77740Y10772D02*X78740D01*
X79240Y11272D02*X78740Y10772D01*
X74540Y14772D02*X74040Y14272D01*
X74540Y14772D02*X75540D01*
X76040Y14272D02*X75540Y14772D01*
X76040Y11272D02*Y14272D01*
Y11272D02*X75540Y10772D01*
X74540Y12972D02*X74040Y12472D01*
X74540Y12972D02*X76040D01*
X74540Y10772D02*X75540D01*
X74540D02*X74040Y11272D01*
Y12472D01*
X145092Y62272D02*X146592D01*
X147092Y62772D02*X146592Y62272D01*
X147092Y62772D02*Y63772D01*
X146592Y64272D01*
X145592D02*X146592D01*
X145592D02*X145092Y63772D01*
Y63272D02*X147092D01*
X145092D02*Y63772D01*
X143392Y62772D02*Y66272D01*
Y62772D02*X142892Y62272D01*
Y64772D02*X143892D01*
X141892Y62272D02*Y66272D01*
Y63772D02*X141392Y64272D01*
X140392D02*X141392D01*
X140392D02*X139892Y63772D01*
Y62272D02*Y63772D01*
X138692Y62772D02*X138192Y62272D01*
X138692Y62772D02*Y65772D01*
X138192Y66272D01*
X137192D02*X138192D01*
X137192D02*X136692Y65772D01*
Y62772D02*Y65772D01*
X137192Y62272D02*X136692Y62772D01*
X137192Y62272D02*X138192D01*
X138692Y63272D02*X136692Y65272D01*
X135492Y62772D02*X132492Y65772D01*
X129292Y66272D02*X131292D01*
X129292D02*X128792Y65772D01*
Y64772D02*Y65772D01*
X129292Y64272D02*X128792Y64772D01*
X129292Y64272D02*X130792D01*
Y62272D02*Y66272D01*
X129992Y64272D02*X128792Y62272D01*
X127092Y60772D02*Y63772D01*
X127592Y64272D02*X127092Y63772D01*
X126592Y64272D01*
X125592D02*X126592D01*
X125592D02*X125092Y63772D01*
Y62772D02*Y63772D01*
X125592Y62272D02*X125092Y62772D01*
X125592Y62272D02*X126592D01*
X127092Y62772D02*X126592Y62272D01*
X123892Y65772D02*X123392Y66272D01*
X121892D02*X123392D01*
X121892D02*X121392Y65772D01*
Y64772D02*Y65772D01*
X123892Y62272D02*X121392Y64772D01*
Y62272D02*X123892D01*
X92666Y49398D02*Y50898D01*
X93166Y48898D02*X92666Y49398D01*
X93166Y48898D02*X94166D01*
X94666Y49398D01*
Y50398D01*
X94166Y50898D01*
X93666Y48898D02*Y50898D01*
X94166D01*
X93166Y52598D02*X96666D01*
X93166D02*X92666Y53098D01*
X95166Y52098D02*Y53098D01*
X92666Y54098D02*X96666D01*
X94166D02*X94666Y54598D01*
Y55598D01*
X94166Y56098D01*
X92666D02*X94166D01*
X93166Y57298D02*X92666Y57798D01*
X93166Y57298D02*X96166D01*
X96666Y57798D01*
Y58798D01*
X96166Y59298D01*
X93166D02*X96166D01*
X92666Y58798D02*X93166Y59298D01*
X92666Y57798D02*Y58798D01*
X93666Y57298D02*X95666Y59298D01*
X93166Y60498D02*X96166Y63498D01*
X96666Y64698D02*Y66698D01*
X96166Y67198D01*
X95166D02*X96166D01*
X94666Y66698D02*X95166Y67198D01*
X94666Y65198D02*Y66698D01*
X92666Y65198D02*X96666D01*
X94666Y65998D02*X92666Y67198D01*
X91166Y68898D02*X94166D01*
X94666Y68398D02*X94166Y68898D01*
X94666Y69398D01*
Y70398D01*
X94166Y70898D01*
X93166D02*X94166D01*
X92666Y70398D02*X93166Y70898D01*
X92666Y69398D02*Y70398D01*
X93166Y68898D02*X92666Y69398D01*
X96666Y72098D02*Y74098D01*
X94666Y72098D02*X96666D01*
X94666D02*X95166Y72598D01*
Y73598D01*
X94666Y74098D01*
X93166D02*X94666D01*
X92666Y73598D02*X93166Y74098D01*
X92666Y72598D02*Y73598D01*
X93166Y72098D02*X92666Y72598D01*
X206866Y30846D02*Y32346D01*
X206366Y32846D02*X206866Y32346D01*
X205366Y32846D02*X206366D01*
X205366D02*X204866Y32346D01*
Y31346D02*Y32346D01*
Y31346D02*X205366Y30846D01*
X205866D02*Y32846D01*
X205366Y30846D02*X205866D01*
X202866Y29146D02*X206366D01*
X206866Y28646D01*
X204366D02*Y29646D01*
X202866Y27646D02*X206866D01*
X205366D02*X204866Y27146D01*
Y26146D02*Y27146D01*
Y26146D02*X205366Y25646D01*
X206866D01*
X206366Y24446D02*X206866Y23946D01*
X203366Y24446D02*X206366D01*
X203366D02*X202866Y23946D01*
Y22946D02*Y23946D01*
Y22946D02*X203366Y22446D01*
X206366D01*
X206866Y22946D02*X206366Y22446D01*
X206866Y22946D02*Y23946D01*
X205866Y24446D02*X203866Y22446D01*
X206366Y21246D02*X203366Y18246D01*
X206866Y15046D02*Y16346D01*
X206166Y17046D02*X206866Y16346D01*
X203566Y17046D02*X206166D01*
X203566D02*X202866Y16346D01*
Y15046D02*Y16346D01*
X206866Y11846D02*Y13346D01*
X206366Y13846D02*X206866Y13346D01*
X205366Y13846D02*X206366D01*
X205366D02*X204866Y13346D01*
Y12346D02*Y13346D01*
Y12346D02*X205366Y11846D01*
X205866D02*Y13846D01*
X205366Y11846D02*X205866D01*
X203366Y10646D02*X202866Y10146D01*
Y9146D02*Y10146D01*
Y9146D02*X203366Y8646D01*
X206866Y9146D02*X206366Y8646D01*
X206866Y9146D02*Y10146D01*
X206366Y10646D02*X206866Y10146D01*
X204666Y9146D02*Y10146D01*
X203366Y8646D02*X204166D01*
X205166D02*X206366D01*
X205166D02*X204666Y9146D01*
X204166Y8646D02*X204666Y9146D01*
X178166Y45898D02*Y47398D01*
X178666Y45398D02*X178166Y45898D01*
X178666Y45398D02*X179666D01*
X180166Y45898D01*
Y46898D01*
X179666Y47398D01*
X179166Y45398D02*Y47398D01*
X179666D01*
X178666Y49098D02*X182166D01*
X178666D02*X178166Y49598D01*
X180666Y48598D02*Y49598D01*
X178166Y50598D02*X182166D01*
X179666D02*X180166Y51098D01*
Y52098D01*
X179666Y52598D01*
X178166D02*X179666D01*
X178666Y53798D02*X178166Y54298D01*
X178666Y53798D02*X181666D01*
X182166Y54298D01*
Y55298D01*
X181666Y55798D01*
X178666D02*X181666D01*
X178166Y55298D02*X178666Y55798D01*
X178166Y54298D02*Y55298D01*
X179166Y53798D02*X181166Y55798D01*
X178666Y56998D02*X181666Y59998D01*
X182166Y61198D02*Y63198D01*
X181666Y63698D01*
X180666D02*X181666D01*
X180166Y63198D02*X180666Y63698D01*
X180166Y61698D02*Y63198D01*
X178166Y61698D02*X182166D01*
X180166Y62498D02*X178166Y63698D01*
Y65398D02*Y66898D01*
X178666Y64898D02*X178166Y65398D01*
X178666Y64898D02*X179666D01*
X180166Y65398D01*
Y66398D01*
X179666Y66898D01*
X179166Y64898D02*Y66898D01*
X179666D01*
X181366Y68098D02*X182166Y68898D01*
X178166D02*X182166D01*
X178166Y68098D02*Y69598D01*
X173166Y45898D02*Y47398D01*
X173666Y45398D02*X173166Y45898D01*
X173666Y45398D02*X174666D01*
X175166Y45898D01*
Y46898D01*
X174666Y47398D01*
X174166Y45398D02*Y47398D01*
X174666D01*
X173666Y49098D02*X177166D01*
X173666D02*X173166Y49598D01*
X175666Y48598D02*Y49598D01*
X173166Y50598D02*X177166D01*
X174666D02*X175166Y51098D01*
Y52098D01*
X174666Y52598D01*
X173166D02*X174666D01*
X173666Y53798D02*X173166Y54298D01*
X173666Y53798D02*X176666D01*
X177166Y54298D01*
Y55298D01*
X176666Y55798D01*
X173666D02*X176666D01*
X173166Y55298D02*X173666Y55798D01*
X173166Y54298D02*Y55298D01*
X174166Y53798D02*X176166Y55798D01*
X173666Y56998D02*X176666Y59998D01*
X177166Y61198D02*Y63198D01*
X176666Y63698D01*
X175666D02*X176666D01*
X175166Y63198D02*X175666Y63698D01*
X175166Y61698D02*Y63198D01*
X173166Y61698D02*X177166D01*
X175166Y62498D02*X173166Y63698D01*
Y65398D02*Y66898D01*
X173666Y64898D02*X173166Y65398D01*
X173666Y64898D02*X174666D01*
X175166Y65398D01*
Y66398D01*
X174666Y66898D01*
X174166Y64898D02*Y66898D01*
X174666D01*
X176666Y68098D02*X177166Y68598D01*
Y70098D01*
X176666Y70598D01*
X175666D02*X176666D01*
X173166Y68098D02*X175666Y70598D01*
X173166Y68098D02*Y70598D01*
X218166Y27046D02*Y28546D01*
X218666Y26546D02*X218166Y27046D01*
X218666Y26546D02*X219666D01*
X220166Y27046D01*
Y28046D01*
X219666Y28546D01*
X219166Y26546D02*Y28546D01*
X219666D01*
X218666Y30246D02*X222166D01*
X218666D02*X218166Y30746D01*
X220666Y29746D02*Y30746D01*
X218166Y31746D02*X222166D01*
X219666D02*X220166Y32246D01*
Y33246D01*
X219666Y33746D01*
X218166D02*X219666D01*
X218666Y34946D02*X218166Y35446D01*
X218666Y34946D02*X221666D01*
X222166Y35446D01*
Y36446D01*
X221666Y36946D01*
X218666D02*X221666D01*
X218166Y36446D02*X218666Y36946D01*
X218166Y35446D02*Y36446D01*
X219166Y34946D02*X221166Y36946D01*
X218666Y38146D02*X221666Y41146D01*
X218166Y43046D02*Y44346D01*
X218866Y42346D02*X218166Y43046D01*
X218866Y42346D02*X221466D01*
X222166Y43046D01*
Y44346D01*
X218166Y46046D02*Y47546D01*
X218666Y45546D02*X218166Y46046D01*
X218666Y45546D02*X219666D01*
X220166Y46046D01*
Y47046D01*
X219666Y47546D01*
X219166Y45546D02*Y47546D01*
X219666D01*
X221666Y48746D02*X222166Y49246D01*
Y50746D01*
X221666Y51246D01*
X220666D02*X221666D01*
X218166Y48746D02*X220666Y51246D01*
X218166Y48746D02*Y51246D01*
Y44413D02*Y45913D01*
X218666Y43913D02*X218166Y44413D01*
X218666Y43913D02*X219666D01*
X220166Y44413D01*
Y45413D01*
X219666Y45913D01*
X219166Y43913D02*Y45913D01*
X219666D01*
X218666Y47613D02*X222166D01*
X218666D02*X218166Y48113D01*
X220666Y47113D02*Y48113D01*
X218166Y49113D02*X222166D01*
X219666D02*X220166Y49613D01*
Y50613D01*
X219666Y51113D01*
X218166D02*X219666D01*
X218666Y52313D02*X218166Y52813D01*
X218666Y52313D02*X221666D01*
X222166Y52813D01*
Y53813D01*
X221666Y54313D01*
X218666D02*X221666D01*
X218166Y53813D02*X218666Y54313D01*
X218166Y52813D02*Y53813D01*
X219166Y52313D02*X221166Y54313D01*
X218666Y55513D02*X221666Y58513D01*
X218166Y60413D02*Y61713D01*
X218866Y59713D02*X218166Y60413D01*
X218866Y59713D02*X221466D01*
X222166Y60413D01*
Y61713D01*
X218166Y63413D02*Y64913D01*
X218666Y62913D02*X218166Y63413D01*
X218666Y62913D02*X219666D01*
X220166Y63413D01*
Y64413D01*
X219666Y64913D01*
X219166Y62913D02*Y64913D01*
X219666D01*
X221366Y66113D02*X222166Y66913D01*
X218166D02*X222166D01*
X218166Y66113D02*Y67613D01*
X198166Y27046D02*Y28546D01*
X198666Y26546D02*X198166Y27046D01*
X198666Y26546D02*X199666D01*
X200166Y27046D01*
Y28046D01*
X199666Y28546D01*
X199166Y26546D02*Y28546D01*
X199666D01*
X198666Y30246D02*X202166D01*
X198666D02*X198166Y30746D01*
X200666Y29746D02*Y30746D01*
X198166Y31746D02*X202166D01*
X199666D02*X200166Y32246D01*
Y33246D01*
X199666Y33746D01*
X198166D02*X199666D01*
X198666Y34946D02*X198166Y35446D01*
X198666Y34946D02*X201666D01*
X202166Y35446D01*
Y36446D01*
X201666Y36946D01*
X198666D02*X201666D01*
X198166Y36446D02*X198666Y36946D01*
X198166Y35446D02*Y36446D01*
X199166Y34946D02*X201166Y36946D01*
X198666Y38146D02*X201666Y41146D01*
X198166Y43046D02*Y44346D01*
X198866Y42346D02*X198166Y43046D01*
X198866Y42346D02*X201466D01*
X202166Y43046D01*
Y44346D01*
X198166Y46046D02*Y47546D01*
X198666Y45546D02*X198166Y46046D01*
X198666Y45546D02*X199666D01*
X200166Y46046D01*
Y47046D01*
X199666Y47546D01*
X199166Y45546D02*Y47546D01*
X199666D01*
Y48746D02*X202166Y50746D01*
X199666Y48746D02*Y51246D01*
X198166Y50746D02*X202166D01*
X193166Y27046D02*Y28546D01*
X193666Y26546D02*X193166Y27046D01*
X193666Y26546D02*X194666D01*
X195166Y27046D01*
Y28046D01*
X194666Y28546D01*
X194166Y26546D02*Y28546D01*
X194666D01*
X193666Y30246D02*X197166D01*
X193666D02*X193166Y30746D01*
X195666Y29746D02*Y30746D01*
X193166Y31746D02*X197166D01*
X194666D02*X195166Y32246D01*
Y33246D01*
X194666Y33746D01*
X193166D02*X194666D01*
X193666Y34946D02*X193166Y35446D01*
X193666Y34946D02*X196666D01*
X197166Y35446D01*
Y36446D01*
X196666Y36946D01*
X193666D02*X196666D01*
X193166Y36446D02*X193666Y36946D01*
X193166Y35446D02*Y36446D01*
X194166Y34946D02*X196166Y36946D01*
X193666Y38146D02*X196666Y41146D01*
X193166Y43046D02*Y44346D01*
X193866Y42346D02*X193166Y43046D01*
X193866Y42346D02*X196466D01*
X197166Y43046D01*
Y44346D01*
X193166Y46046D02*Y47546D01*
X193666Y45546D02*X193166Y46046D01*
X193666Y45546D02*X194666D01*
X195166Y46046D01*
Y47046D01*
X194666Y47546D01*
X194166Y45546D02*Y47546D01*
X194666D01*
X197166Y48746D02*Y50746D01*
X195166Y48746D02*X197166D01*
X195166D02*X195666Y49246D01*
Y50246D01*
X195166Y50746D01*
X193666D02*X195166D01*
X193166Y50246D02*X193666Y50746D01*
X193166Y49246D02*Y50246D01*
X193666Y48746D02*X193166Y49246D01*
X135925Y76472D02*X137425D01*
X135425Y75972D02*X135925Y76472D01*
X135425Y74972D02*Y75972D01*
Y74972D02*X135925Y74472D01*
X136925D01*
X137425Y74972D01*
X135425Y75472D02*X137425D01*
Y74972D02*Y75472D01*
X139125Y72472D02*Y75972D01*
X139625Y76472D01*
X138625Y73972D02*X139625D01*
X140625Y72472D02*Y76472D01*
Y74972D02*X141125Y74472D01*
X142125D01*
X142625Y74972D01*
Y76472D01*
X143825Y75972D02*X144325Y76472D01*
X143825Y72972D02*Y75972D01*
Y72972D02*X144325Y72472D01*
X145325D01*
X145825Y72972D01*
Y75972D01*
X145325Y76472D02*X145825Y75972D01*
X144325Y76472D02*X145325D01*
X143825Y75472D02*X145825Y73472D01*
X147025Y75972D02*X150025Y72972D01*
X151225Y72472D02*Y76472D01*
X153225D01*
X154925Y74972D02*Y77972D01*
X154425Y74472D02*X154925Y74972D01*
X155425Y74472D01*
X156425D01*
X156925Y74972D01*
Y75972D01*
X156425Y76472D02*X156925Y75972D01*
X155425Y76472D02*X156425D01*
X154925Y75972D02*X155425Y76472D01*
X158125Y73272D02*X158925Y72472D01*
Y76472D01*
X158125D02*X159625D01*
X173166Y27046D02*Y28546D01*
X173666Y26546D02*X173166Y27046D01*
X173666Y26546D02*X174666D01*
X175166Y27046D01*
Y28046D01*
X174666Y28546D01*
X174166Y26546D02*Y28546D01*
X174666D01*
X173666Y30246D02*X177166D01*
X173666D02*X173166Y30746D01*
X175666Y29746D02*Y30746D01*
X173166Y31746D02*X177166D01*
X174666D02*X175166Y32246D01*
Y33246D01*
X174666Y33746D01*
X173166D02*X174666D01*
X173666Y34946D02*X173166Y35446D01*
X173666Y34946D02*X176666D01*
X177166Y35446D01*
Y36446D01*
X176666Y36946D01*
X173666D02*X176666D01*
X173166Y36446D02*X173666Y36946D01*
X173166Y35446D02*Y36446D01*
X174166Y34946D02*X176166Y36946D01*
X173666Y38146D02*X176666Y41146D01*
X173166Y43046D02*Y44346D01*
X173866Y42346D02*X173166Y43046D01*
X173866Y42346D02*X176466D01*
X177166Y43046D01*
Y44346D01*
X173166Y46046D02*Y47546D01*
X173666Y45546D02*X173166Y46046D01*
X173666Y45546D02*X174666D01*
X175166Y46046D01*
Y47046D01*
X174666Y47546D01*
X174166Y45546D02*Y47546D01*
X174666D01*
X173166Y49246D02*X177166Y51246D01*
Y48746D02*Y51246D01*
X178166Y27046D02*Y28546D01*
X178666Y26546D02*X178166Y27046D01*
X178666Y26546D02*X179666D01*
X180166Y27046D01*
Y28046D01*
X179666Y28546D01*
X179166Y26546D02*Y28546D01*
X179666D01*
X178666Y30246D02*X182166D01*
X178666D02*X178166Y30746D01*
X180666Y29746D02*Y30746D01*
X178166Y31746D02*X182166D01*
X179666D02*X180166Y32246D01*
Y33246D01*
X179666Y33746D01*
X178166D02*X179666D01*
X178666Y34946D02*X178166Y35446D01*
X178666Y34946D02*X181666D01*
X182166Y35446D01*
Y36446D01*
X181666Y36946D01*
X178666D02*X181666D01*
X178166Y36446D02*X178666Y36946D01*
X178166Y35446D02*Y36446D01*
X179166Y34946D02*X181166Y36946D01*
X178666Y38146D02*X181666Y41146D01*
X178166Y43046D02*Y44346D01*
X178866Y42346D02*X178166Y43046D01*
X178866Y42346D02*X181466D01*
X182166Y43046D01*
Y44346D01*
X178166Y46046D02*Y47546D01*
X178666Y45546D02*X178166Y46046D01*
X178666Y45546D02*X179666D01*
X180166Y46046D01*
Y47046D01*
X179666Y47546D01*
X179166Y45546D02*Y47546D01*
X179666D01*
X182166Y50246D02*X181666Y50746D01*
X182166Y49246D02*Y50246D01*
X181666Y48746D02*X182166Y49246D01*
X178666Y48746D02*X181666D01*
X178666D02*X178166Y49246D01*
X180366Y50246D02*X179866Y50746D01*
X180366Y48746D02*Y50246D01*
X178166Y49246D02*Y50246D01*
X178666Y50746D01*
X179866D01*
X156866Y42550D02*Y44050D01*
X156366Y44550D02*X156866Y44050D01*
X155366Y44550D02*X156366D01*
X155366D02*X154866Y44050D01*
Y43050D02*Y44050D01*
Y43050D02*X155366Y42550D01*
X155866D02*Y44550D01*
X155366Y42550D02*X155866D01*
X152866Y40850D02*X156366D01*
X156866Y40350D01*
X154366D02*Y41350D01*
X152866Y39350D02*X156866D01*
X155366D02*X154866Y38850D01*
Y37850D02*Y38850D01*
Y37850D02*X155366Y37350D01*
X156866D01*
X156366Y36150D02*X156866Y35650D01*
X153366Y36150D02*X156366D01*
X153366D02*X152866Y35650D01*
Y34650D02*Y35650D01*
Y34650D02*X153366Y34150D01*
X156366D01*
X156866Y34650D02*X156366Y34150D01*
X156866Y34650D02*Y35650D01*
X155866Y36150D02*X153866Y34150D01*
X156366Y32950D02*X153366Y29950D01*
X152866Y26750D02*Y28750D01*
Y26750D02*X153366Y26250D01*
X154366D01*
X154866Y26750D02*X154366Y26250D01*
X154866Y26750D02*Y28250D01*
X152866D02*X156866D01*
X154866Y27450D02*X156866Y26250D01*
Y23050D02*Y24550D01*
X156366Y25050D02*X156866Y24550D01*
X155366Y25050D02*X156366D01*
X155366D02*X154866Y24550D01*
Y23550D02*Y24550D01*
Y23550D02*X155366Y23050D01*
X155866D02*Y25050D01*
X155366Y23050D02*X155866D01*
X153366Y21850D02*X152866Y21350D01*
Y20350D02*Y21350D01*
Y20350D02*X153366Y19850D01*
X156866Y20350D02*X156366Y19850D01*
X156866Y20350D02*Y21350D01*
X156366Y21850D02*X156866Y21350D01*
X154666Y20350D02*Y21350D01*
X153366Y19850D02*X154166D01*
X155166D02*X156366D01*
X155166D02*X154666Y20350D01*
X154166Y19850D02*X154666Y20350D01*
X156866Y49698D02*Y51198D01*
X156366Y51698D02*X156866Y51198D01*
X155366Y51698D02*X156366D01*
X155366D02*X154866Y51198D01*
Y50198D02*Y51198D01*
Y50198D02*X155366Y49698D01*
X155866D02*Y51698D01*
X155366Y49698D02*X155866D01*
X152866Y47998D02*X156366D01*
X156866Y47498D01*
X154366D02*Y48498D01*
X152866Y46498D02*X156866D01*
X155366D02*X154866Y45998D01*
Y44998D02*Y45998D01*
Y44998D02*X155366Y44498D01*
X156866D01*
X156366Y43298D02*X156866Y42798D01*
X153366Y43298D02*X156366D01*
X153366D02*X152866Y42798D01*
Y41798D02*Y42798D01*
Y41798D02*X153366Y41298D01*
X156366D01*
X156866Y41798D02*X156366Y41298D01*
X156866Y41798D02*Y42798D01*
X155866Y43298D02*X153866Y41298D01*
X156366Y40098D02*X153366Y37098D01*
X152866Y33898D02*Y35898D01*
Y33898D02*X153366Y33398D01*
X154366D01*
X154866Y33898D02*X154366Y33398D01*
X154866Y33898D02*Y35398D01*
X152866D02*X156866D01*
X154866Y34598D02*X156866Y33398D01*
Y30198D02*Y31698D01*
X156366Y32198D02*X156866Y31698D01*
X155366Y32198D02*X156366D01*
X155366D02*X154866Y31698D01*
Y30698D02*Y31698D01*
Y30698D02*X155366Y30198D01*
X155866D02*Y32198D01*
X155366Y30198D02*X155866D01*
X155366Y28998D02*X152866Y26998D01*
X155366Y26498D02*Y28998D01*
X152866Y26998D02*X156866D01*
X153166Y27046D02*Y28546D01*
X153666Y26546D02*X153166Y27046D01*
X153666Y26546D02*X154666D01*
X155166Y27046D01*
Y28046D01*
X154666Y28546D01*
X154166Y26546D02*Y28546D01*
X154666D01*
X153666Y30246D02*X157166D01*
X153666D02*X153166Y30746D01*
X155666Y29746D02*Y30746D01*
X153166Y31746D02*X157166D01*
X154666D02*X155166Y32246D01*
Y33246D01*
X154666Y33746D01*
X153166D02*X154666D01*
X153666Y34946D02*X153166Y35446D01*
X153666Y34946D02*X156666D01*
X157166Y35446D01*
Y36446D01*
X156666Y36946D01*
X153666D02*X156666D01*
X153166Y36446D02*X153666Y36946D01*
X153166Y35446D02*Y36446D01*
X154166Y34946D02*X156166Y36946D01*
X153666Y38146D02*X156666Y41146D01*
X153166Y43046D02*Y44346D01*
X153866Y42346D02*X153166Y43046D01*
X153866Y42346D02*X156466D01*
X157166Y43046D01*
Y44346D01*
X153166Y46046D02*Y47546D01*
X153666Y45546D02*X153166Y46046D01*
X153666Y45546D02*X154666D01*
X155166Y46046D01*
Y47046D01*
X154666Y47546D01*
X154166Y45546D02*Y47546D01*
X154666D01*
X153666Y48746D02*X153166Y49246D01*
X153666Y48746D02*X154466D01*
X155166Y49446D01*
Y50046D01*
X154466Y50746D01*
X153666D02*X154466D01*
X153166Y50246D02*X153666Y50746D01*
X153166Y49246D02*Y50246D01*
X155866Y48746D02*X155166Y49446D01*
X155866Y48746D02*X156666D01*
X157166Y49246D01*
Y50246D01*
X156666Y50746D01*
X155866D02*X156666D01*
X155166Y50046D02*X155866Y50746D01*
X133792Y21972D02*X135292D01*
X133292Y21472D02*X133792Y21972D01*
X133292Y20472D02*Y21472D01*
Y20472D02*X133792Y19972D01*
X134792D01*
X135292Y20472D01*
X133292Y20972D02*X135292D01*
Y20472D02*Y20972D01*
X136992Y17972D02*Y21472D01*
X137492Y21972D01*
X136492Y19472D02*X137492D01*
X138492Y17972D02*Y21972D01*
Y20472D02*X138992Y19972D01*
X139992D01*
X140492Y20472D01*
Y21972D01*
X141692Y21472D02*X142192Y21972D01*
X141692Y18472D02*Y21472D01*
Y18472D02*X142192Y17972D01*
X143192D01*
X143692Y18472D01*
Y21472D01*
X143192Y21972D02*X143692Y21472D01*
X142192Y21972D02*X143192D01*
X141692Y20972D02*X143692Y18972D01*
X144892Y21472D02*X147892Y18472D01*
X149792Y21972D02*X151092D01*
X149092Y21272D02*X149792Y21972D01*
X149092Y18672D02*Y21272D01*
Y18672D02*X149792Y17972D01*
X151092D01*
X152792Y20472D02*Y23472D01*
X152292Y19972D02*X152792Y20472D01*
X153292Y19972D01*
X154292D01*
X154792Y20472D01*
Y21472D01*
X154292Y21972D02*X154792Y21472D01*
X153292Y21972D02*X154292D01*
X152792Y21472D02*X153292Y21972D01*
X155992Y18472D02*X156492Y17972D01*
X157992D01*
X158492Y18472D01*
Y19472D01*
X155992Y21972D02*X158492Y19472D01*
X155992Y21972D02*X158492D01*
X134440Y26472D02*X135940D01*
X133940Y25972D02*X134440Y26472D01*
X133940Y24972D02*Y25972D01*
Y24972D02*X134440Y24472D01*
X135440D01*
X135940Y24972D01*
X133940Y25472D02*X135940D01*
Y24972D02*Y25472D01*
X137640Y22472D02*Y25972D01*
X138140Y26472D01*
X137140Y23972D02*X138140D01*
X139140Y22472D02*Y26472D01*
Y24972D02*X139640Y24472D01*
X140640D01*
X141140Y24972D01*
Y26472D01*
X142340Y25972D02*X142840Y26472D01*
X142340Y22972D02*Y25972D01*
Y22972D02*X142840Y22472D01*
X143840D01*
X144340Y22972D01*
Y25972D01*
X143840Y26472D02*X144340Y25972D01*
X142840Y26472D02*X143840D01*
X142340Y25472D02*X144340Y23472D01*
X145540Y25972D02*X148540Y22972D01*
X149740Y22472D02*X151740D01*
X152240Y22972D01*
Y23972D01*
X151740Y24472D02*X152240Y23972D01*
X150240Y24472D02*X151740D01*
X150240Y22472D02*Y26472D01*
X151040Y24472D02*X152240Y26472D01*
X153940Y24972D02*Y27972D01*
X153440Y24472D02*X153940Y24972D01*
X154440Y24472D01*
X155440D01*
X155940Y24972D01*
Y25972D01*
X155440Y26472D02*X155940Y25972D01*
X154440Y26472D02*X155440D01*
X153940Y25972D02*X154440Y26472D01*
X157140Y22972D02*X157640Y22472D01*
X158640D01*
X159140Y22972D01*
X158640Y26472D02*X159140Y25972D01*
X157640Y26472D02*X158640D01*
X157140Y25972D02*X157640Y26472D01*
Y24272D02*X158640D01*
X159140Y22972D02*Y23772D01*
Y24772D02*Y25972D01*
Y24772D02*X158640Y24272D01*
X159140Y23772D02*X158640Y24272D01*
X134440Y70972D02*X135940D01*
X133940Y70472D02*X134440Y70972D01*
X133940Y69472D02*Y70472D01*
Y69472D02*X134440Y68972D01*
X135440D01*
X135940Y69472D01*
X133940Y69972D02*X135940D01*
Y69472D02*Y69972D01*
X137640Y66972D02*Y70472D01*
X138140Y70972D01*
X137140Y68472D02*X138140D01*
X139140Y66972D02*Y70972D01*
Y69472D02*X139640Y68972D01*
X140640D01*
X141140Y69472D01*
Y70972D01*
X142340Y70472D02*X142840Y70972D01*
X142340Y67472D02*Y70472D01*
Y67472D02*X142840Y66972D01*
X143840D01*
X144340Y67472D01*
Y70472D01*
X143840Y70972D02*X144340Y70472D01*
X142840Y70972D02*X143840D01*
X142340Y69972D02*X144340Y67972D01*
X145540Y70472D02*X148540Y67472D01*
X149740Y66972D02*X151740D01*
X152240Y67472D01*
Y68472D01*
X151740Y68972D02*X152240Y68472D01*
X150240Y68972D02*X151740D01*
X150240Y66972D02*Y70972D01*
X151040Y68972D02*X152240Y70972D01*
X153940Y69472D02*Y72472D01*
X153440Y68972D02*X153940Y69472D01*
X154440Y68972D01*
X155440D01*
X155940Y69472D01*
Y70472D01*
X155440Y70972D02*X155940Y70472D01*
X154440Y70972D02*X155440D01*
X153940Y70472D02*X154440Y70972D01*
X157140Y67772D02*X157940Y66972D01*
Y70972D01*
X157140D02*X158640D01*
M02*
