M48
INCH
T79C0.013
T78C0.126
T77C0.039
T76C0.063
T75C0.128
T74C0.035
T73C0.050
T72C0.030
T71C0.038
%
T79
X004250Y031850
X004900Y033450
X005500Y033750
X005800Y032100
X006850Y032750
X006850Y032050
X006900Y029600
X007150Y036100
X007900Y032750
X008000Y038350
X008100Y035860
X008100Y035250
X008100Y034640
X008350Y030400
X008650Y032200
X008750Y034900
X009000Y034400
X009150Y026600
X009350Y033350
X009350Y032050
X009400Y035600
X009450Y034100
X009452Y024812
X009550Y042900
X009550Y041750
X009600Y033750
X009750Y031650
X009800Y040900
X009800Y039650
X010002Y021262
X010050Y042900
X010300Y040900
X010335Y034400
X010335Y034050
X010350Y036000
X010350Y030400
X010550Y042900
X010550Y041750
X010600Y037100
X010750Y039650
X010835Y036140
X010950Y035000
X010952Y025712
X011135Y032000
X011175Y036140
X011485Y032000
X011515Y036140
X011550Y027600
X011850Y032000
X012000Y034950
X012150Y033600
X012350Y030300
X012750Y037200
X012952Y022562
X013002Y024712
X013050Y035800
X013102Y021212
X013150Y038250
X013152Y026712
X013350Y032000
X013352Y021812
X013400Y033900
X013452Y021262
X013500Y034750
X013700Y033600
X013700Y032000
X014000Y033300
X014050Y036100
X014400Y033300
X014450Y036600
X014485Y032800
X014500Y032350
X014602Y027162
X015250Y038350
X015502Y025212
X015502Y023762
X015502Y023312
X015502Y022612
X015750Y035750
X015800Y033300
X016000Y036250
X016000Y031250
X016002Y025212
X016500Y037000
X016600Y034850
X016600Y033750
X016600Y032850
X016800Y042900
X016800Y041750
X017000Y037000
X017000Y035600
X017002Y025212
X017002Y022612
X017050Y040900
X017050Y039650
X017050Y033750
X017050Y032850
X017300Y042900
X017500Y037000
X017500Y035600
X017500Y034550
X017500Y033750
X017500Y032850
X017502Y025212
X017502Y023312
X017502Y022612
X017550Y040900
X017752Y024662
X017800Y042900
X017800Y041750
X018000Y039650
X018000Y037000
X018000Y035600
X018000Y034550
X018000Y033750
X018000Y032850
X018002Y025212
X018002Y023312
X018002Y022612
X018502Y022612
X018900Y035050
X019000Y037000
X019002Y025212
X019002Y022612
X019500Y037000
X019502Y023312
X019502Y022612
X019950Y028700
X020000Y037000
X020002Y023312
X020002Y022612
X020450Y035800
X020450Y027850
X020500Y030600
X020500Y029100
X020502Y023312
X020502Y022612
X020900Y024900
X021002Y022612
X021250Y029500
X021250Y028600
X021450Y038098
X021502Y025212
X021502Y022612
X021700Y044250
X021850Y034350
X022002Y025212
X022002Y024212
X022002Y023312
X022002Y022612
X022150Y034650
X022250Y042600
X022250Y038100
X022500Y031350
X022600Y038110
X022800Y035750
X023050Y042850
X023250Y038050
X023450Y035300
X023450Y034900
X023550Y042850
X023700Y040800
X024300Y040800
X024550Y042850
X024800Y040800
X025050Y042850
X025200Y031400
X025400Y040800
X025500Y037000
X025700Y035300
X025700Y034800
X025700Y034300
X025700Y033300
X025700Y032800
X025700Y032300
X026050Y042850
X026200Y037500
X026250Y035950
X026500Y034300
X026500Y033300
X026550Y042850
X026550Y037950
X026850Y042600
T72
X011350Y030700
X013350Y030700
X018480Y036100
X018480Y027440
X018752Y021212
X019270Y036100
X019270Y027440
X020060Y036100
X020060Y027440
X020752Y021212
X020850Y036100
X020850Y027440
X021640Y036100
X021640Y027440
X022430Y036100
X022430Y027440
X023220Y036100
X023220Y027440
X024010Y036100
X024010Y027440
X024800Y036100
X024800Y027440
X025590Y036100
X025590Y027440
T74
X008300Y043350
X008800Y044350
X009300Y043350
X009800Y044350
X010300Y043350
X010800Y044350
X011300Y043350
X011800Y044350
X013550Y026200
X013550Y025200
X013550Y024200
X013550Y023200
X014550Y025700
X014550Y024700
X014550Y023700
X014550Y022700
X015550Y043350
X016050Y044350
X016550Y043350
X017050Y044350
X017550Y043350
X018050Y044350
X018550Y043350
X019050Y044350
X022800Y043350
X023300Y044350
X023800Y043350
X024300Y044350
X024800Y043350
X025300Y044350
X025800Y043350
X026300Y044350
T71
X005350Y031100
X005350Y030100
X006350Y031100
X006350Y030100
X007000Y036700
X007000Y033750
X007350Y031100
X007350Y030100
X007352Y027462
X007352Y026462
X007352Y025462
X007352Y024462
X007352Y023462
X008000Y036700
X008000Y033750
X008352Y027462
X008352Y026462
X008352Y025462
X008352Y024462
X008352Y023462
T77
X009452Y027062
X009452Y026062
X009452Y022842
X009452Y021842
T73
X015750Y034750
X024400Y035450
X025850Y031600
T76
X006946Y039649
X012251Y027503
X012251Y021401
X013146Y039649
X014196Y039649
X020396Y039649
X021446Y039649
X027646Y039649
T78
X011050Y026700
X011050Y022200
T75
X007800Y040850
X012300Y040850
X015050Y040850
X019550Y040850
X022300Y040850
X026800Y040850
M30
