G04 start of page 11 for group -4014 idx -4014 *
G04 Title: (unknown), bottompaste *
G04 Creator: pcb 1.99z *
G04 CreationDate: Sat 15 Nov 2014 07:16:55 AM GMT UTC *
G04 For: commonadmin *
G04 Format: Gerber/RS-274X *
G04 PCB-Dimensions (mil): 4500.00 4500.00 *
G04 PCB-Coordinate-Origin: lower left *
%MOIN*%
%FSLAX25Y25*%
%LNBOTTOMPASTE*%
%ADD145R,0.0060X0.0060*%
%ADD144C,0.0060*%
%ADD143R,0.0510X0.0510*%
%ADD142R,0.4000X0.4000*%
%ADD141R,0.0197X0.0197*%
%ADD140R,0.0295X0.0295*%
G54D140*X60008Y326118D02*X60992D01*
X60008Y321000D02*X60992D01*
X72118Y327992D02*Y327008D01*
X67000Y327992D02*Y327008D01*
X72118Y320992D02*Y320008D01*
X67000Y320992D02*Y320008D01*
G54D141*X114500Y322893D02*Y322107D01*
X111352Y322893D02*Y322107D01*
G54D140*X106634Y354492D02*Y353508D01*
X111752Y354492D02*Y353508D01*
G54D141*X105104Y359493D02*Y358707D01*
X108252Y359493D02*Y358707D01*
X111752Y359493D02*Y358707D01*
X114900Y359493D02*Y358707D01*
G54D140*X105360Y344000D02*X106344D01*
X105360Y338882D02*X106344D01*
X141360Y324000D02*X142344D01*
X141360Y329118D02*X142344D01*
G54D141*X136852Y357893D02*Y357107D01*
X140000Y357893D02*Y357107D01*
G54D142*X26000Y319828D02*X26500D01*
G54D140*X73182Y358992D02*Y358008D01*
X78300Y358992D02*Y358008D01*
X74308Y346500D02*X75292D01*
X74308Y351618D02*X75292D01*
X68808Y346500D02*X69792D01*
X68808Y351618D02*X69792D01*
X128508Y443000D02*X129492D01*
X128508Y437882D02*X129492D01*
X122508Y443000D02*X123492D01*
X122508Y437882D02*X123492D01*
G54D143*X113500Y435100D02*X115500D01*
X113500Y442500D02*X115500D01*
G54D141*X101607Y401500D02*X102393D01*
X101607Y398352D02*X102393D01*
X106107D02*X106893D01*
X106107Y401500D02*X106893D01*
X96607Y401648D02*X97393D01*
X96607Y398500D02*X97393D01*
X92107D02*X92893D01*
X92107Y401648D02*X92893D01*
G54D144*X111000Y401900D02*Y398900D01*
Y401900D02*X111700Y402600D01*
X111000Y398900D02*X111700Y398200D01*
G54D145*Y396700D01*
Y403100D02*Y402600D01*
G54D144*X111000Y399200D02*X111600Y399800D01*
X111000Y400400D02*X111600Y399800D01*
X111000Y401600D02*X111600Y401000D01*
X111000Y400400D02*X111600Y401000D01*
X113600Y402000D02*Y398900D01*
X113000Y402600D02*X113600Y402000D01*
X113000Y398300D02*X113600Y398900D01*
G54D145*X113000Y398300D02*Y396700D01*
Y403100D02*Y402600D01*
G54D144*X112900Y399800D02*X113600Y399100D01*
Y398900D01*
X112900Y399800D02*X113600Y400500D01*
X112900Y401000D02*X113600Y400300D01*
X112900Y401000D02*X113600Y401700D01*
X100000Y409400D02*Y406400D01*
Y409400D02*X100700Y410100D01*
X100000Y406400D02*X100700Y405700D01*
G54D145*Y404200D01*
Y410600D02*Y410100D01*
G54D144*X100000Y406700D02*X100600Y407300D01*
X100000Y407900D02*X100600Y407300D01*
X100000Y409100D02*X100600Y408500D01*
X100000Y407900D02*X100600Y408500D01*
X102600Y409500D02*Y406400D01*
X102000Y410100D02*X102600Y409500D01*
X102000Y405800D02*X102600Y406400D01*
G54D145*X102000Y405800D02*Y404200D01*
Y410600D02*Y410100D01*
G54D144*X101900Y407300D02*X102600Y406600D01*
Y406400D01*
X101900Y407300D02*X102600Y408000D01*
X101900Y408500D02*X102600Y407800D01*
X101900Y408500D02*X102600Y409200D01*
X90500Y409400D02*Y406400D01*
Y409400D02*X91200Y410100D01*
X90500Y406400D02*X91200Y405700D01*
G54D145*Y404200D01*
Y410600D02*Y410100D01*
G54D144*X90500Y406700D02*X91100Y407300D01*
X90500Y407900D02*X91100Y407300D01*
X90500Y409100D02*X91100Y408500D01*
X90500Y407900D02*X91100Y408500D01*
X93100Y409500D02*Y406400D01*
X92500Y410100D02*X93100Y409500D01*
X92500Y405800D02*X93100Y406400D01*
G54D145*X92500Y405800D02*Y404200D01*
Y410600D02*Y410100D01*
G54D144*X92400Y407300D02*X93100Y406600D01*
Y406400D01*
X92400Y407300D02*X93100Y408000D01*
X92400Y408500D02*X93100Y407800D01*
X92400Y408500D02*X93100Y409200D01*
X251543Y417908D02*Y414908D01*
Y417908D02*X252243Y418608D01*
X251543Y414908D02*X252243Y414208D01*
G54D145*Y412708D01*
Y419108D02*Y418608D01*
G54D144*X251543Y415208D02*X252143Y415808D01*
X251543Y416408D02*X252143Y415808D01*
X251543Y417608D02*X252143Y417008D01*
X251543Y416408D02*X252143Y417008D01*
X254143Y418008D02*Y414908D01*
X253543Y418608D02*X254143Y418008D01*
X253543Y414308D02*X254143Y414908D01*
G54D145*X253543Y414308D02*Y412708D01*
Y419108D02*Y418608D01*
G54D144*X253443Y415808D02*X254143Y415108D01*
Y414908D01*
X253443Y415808D02*X254143Y416508D01*
X253443Y417008D02*X254143Y416308D01*
X253443Y417008D02*X254143Y417708D01*
X264000Y402900D02*Y399900D01*
Y402900D02*X264700Y403600D01*
X264000Y399900D02*X264700Y399200D01*
G54D145*Y397700D01*
Y404100D02*Y403600D01*
G54D144*X264000Y400200D02*X264600Y400800D01*
X264000Y401400D02*X264600Y400800D01*
X264000Y402600D02*X264600Y402000D01*
X264000Y401400D02*X264600Y402000D01*
X266600Y403000D02*Y399900D01*
X266000Y403600D02*X266600Y403000D01*
X266000Y399300D02*X266600Y399900D01*
G54D145*X266000Y399300D02*Y397700D01*
Y404100D02*Y403600D01*
G54D144*X265900Y400800D02*X266600Y400100D01*
Y399900D01*
X265900Y400800D02*X266600Y401500D01*
X265900Y402000D02*X266600Y401300D01*
X265900Y402000D02*X266600Y402700D01*
X246343Y417958D02*Y414958D01*
Y417958D02*X247043Y418658D01*
X246343Y414958D02*X247043Y414258D01*
G54D145*Y412758D01*
Y419158D02*Y418658D01*
G54D144*X246343Y415258D02*X246943Y415858D01*
X246343Y416458D02*X246943Y415858D01*
X246343Y417658D02*X246943Y417058D01*
X246343Y416458D02*X246943Y417058D01*
X248943Y418058D02*Y414958D01*
X248343Y418658D02*X248943Y418058D01*
X248343Y414358D02*X248943Y414958D01*
G54D145*X248343Y414358D02*Y412758D01*
Y419158D02*Y418658D01*
G54D144*X248243Y415858D02*X248943Y415158D01*
Y414958D01*
X248243Y415858D02*X248943Y416558D01*
X248243Y417058D02*X248943Y416358D01*
X248243Y417058D02*X248943Y417758D01*
X241543Y418408D02*Y415408D01*
Y418408D02*X242243Y419108D01*
X241543Y415408D02*X242243Y414708D01*
G54D145*Y413208D01*
Y419608D02*Y419108D01*
G54D144*X241543Y415708D02*X242143Y416308D01*
X241543Y416908D02*X242143Y416308D01*
X241543Y418108D02*X242143Y417508D01*
X241543Y416908D02*X242143Y417508D01*
X244143Y418508D02*Y415408D01*
X243543Y419108D02*X244143Y418508D01*
X243543Y414808D02*X244143Y415408D01*
G54D145*X243543Y414808D02*Y413208D01*
Y419608D02*Y419108D01*
G54D144*X243443Y416308D02*X244143Y415608D01*
Y415408D01*
X243443Y416308D02*X244143Y417008D01*
X243443Y417508D02*X244143Y416808D01*
X243443Y417508D02*X244143Y418208D01*
X234000Y418400D02*Y415400D01*
Y418400D02*X234700Y419100D01*
X234000Y415400D02*X234700Y414700D01*
G54D145*Y413200D01*
Y419600D02*Y419100D01*
G54D144*X234000Y415700D02*X234600Y416300D01*
X234000Y416900D02*X234600Y416300D01*
X234000Y418100D02*X234600Y417500D01*
X234000Y416900D02*X234600Y417500D01*
X236600Y418500D02*Y415400D01*
X236000Y419100D02*X236600Y418500D01*
X236000Y414800D02*X236600Y415400D01*
G54D145*X236000Y414800D02*Y413200D01*
Y419600D02*Y419100D01*
G54D144*X235900Y416300D02*X236600Y415600D01*
Y415400D01*
X235900Y416300D02*X236600Y417000D01*
X235900Y417500D02*X236600Y416800D01*
X235900Y417500D02*X236600Y418200D01*
X223500Y403900D02*Y400900D01*
Y403900D02*X224200Y404600D01*
X223500Y400900D02*X224200Y400200D01*
G54D145*Y398700D01*
Y405100D02*Y404600D01*
G54D144*X223500Y401200D02*X224100Y401800D01*
X223500Y402400D02*X224100Y401800D01*
X223500Y403600D02*X224100Y403000D01*
X223500Y402400D02*X224100Y403000D01*
X226100Y404000D02*Y400900D01*
X225500Y404600D02*X226100Y404000D01*
X225500Y400300D02*X226100Y400900D01*
G54D145*X225500Y400300D02*Y398700D01*
Y405100D02*Y404600D01*
G54D144*X225400Y401800D02*X226100Y401100D01*
Y400900D01*
X225400Y401800D02*X226100Y402500D01*
X225400Y403000D02*X226100Y402300D01*
X225400Y403000D02*X226100Y403700D01*
G54D140*X274008Y445518D02*X274992D01*
X274008Y440400D02*X274992D01*
X269008Y445518D02*X269992D01*
X269008Y440400D02*X269992D01*
G54D143*X262000Y438000D02*X264000D01*
X262000Y445400D02*X264000D01*
G54D141*X255607Y401648D02*X256393D01*
X255607Y398500D02*X256393D01*
X255607Y408648D02*X256393D01*
X255607Y405500D02*X256393D01*
X245607Y401648D02*X246393D01*
X245607Y398500D02*X246393D01*
X245607Y408796D02*X246393D01*
X245607Y405648D02*X246393D01*
X240607Y401648D02*X241393D01*
X240607Y398500D02*X241393D01*
X240607Y408796D02*X241393D01*
X240607Y405648D02*X241393D01*
X230607Y401648D02*X231393D01*
X230607Y398500D02*X231393D01*
X230607Y408648D02*X231393D01*
X230607Y405500D02*X231393D01*
G54D143*X270500Y384500D02*X272500D01*
X270500Y391900D02*X272500D01*
G54D141*X263107Y387648D02*X263893D01*
X263107Y384500D02*X263893D01*
X220000Y382893D02*Y382107D01*
X216852Y382893D02*Y382107D01*
G54D143*X216500Y391000D02*X218500D01*
X216500Y398400D02*X218500D01*
G54D144*X274543Y404908D02*Y401908D01*
Y404908D02*X275243Y405608D01*
X274543Y401908D02*X275243Y401208D01*
G54D145*Y399708D01*
Y406108D02*Y405608D01*
G54D144*X274543Y402208D02*X275143Y402808D01*
X274543Y403408D02*X275143Y402808D01*
X274543Y404608D02*X275143Y404008D01*
X274543Y403408D02*X275143Y404008D01*
X277143Y405008D02*Y401908D01*
X276543Y405608D02*X277143Y405008D01*
X276543Y401308D02*X277143Y401908D01*
G54D145*X276543Y401308D02*Y399708D01*
Y406108D02*Y405608D01*
G54D144*X276443Y402808D02*X277143Y402108D01*
Y401908D01*
X276443Y402808D02*X277143Y403508D01*
X276443Y404008D02*X277143Y403308D01*
X276443Y404008D02*X277143Y404708D01*
G54D140*X200508Y443000D02*X201492D01*
X200508Y437882D02*X201492D01*
X194508Y443000D02*X195492D01*
X194508Y437882D02*X195492D01*
G54D143*X185500Y435100D02*X187500D01*
X185500Y442500D02*X187500D01*
G54D141*X173607Y401500D02*X174393D01*
X173607Y398352D02*X174393D01*
X178107D02*X178893D01*
X178107Y401500D02*X178893D01*
X168607Y401648D02*X169393D01*
X168607Y398500D02*X169393D01*
X164107D02*X164893D01*
X164107Y401648D02*X164893D01*
G54D144*X183000Y401900D02*Y398900D01*
Y401900D02*X183700Y402600D01*
X183000Y398900D02*X183700Y398200D01*
G54D145*Y396700D01*
Y403100D02*Y402600D01*
G54D144*X183000Y399200D02*X183600Y399800D01*
X183000Y400400D02*X183600Y399800D01*
X183000Y401600D02*X183600Y401000D01*
X183000Y400400D02*X183600Y401000D01*
X185600Y402000D02*Y398900D01*
X185000Y402600D02*X185600Y402000D01*
X185000Y398300D02*X185600Y398900D01*
G54D145*X185000Y398300D02*Y396700D01*
Y403100D02*Y402600D01*
G54D144*X184900Y399800D02*X185600Y399100D01*
Y398900D01*
X184900Y399800D02*X185600Y400500D01*
X184900Y401000D02*X185600Y400300D01*
X184900Y401000D02*X185600Y401700D01*
X172000Y409400D02*Y406400D01*
Y409400D02*X172700Y410100D01*
X172000Y406400D02*X172700Y405700D01*
G54D145*Y404200D01*
Y410600D02*Y410100D01*
G54D144*X172000Y406700D02*X172600Y407300D01*
X172000Y407900D02*X172600Y407300D01*
X172000Y409100D02*X172600Y408500D01*
X172000Y407900D02*X172600Y408500D01*
X174600Y409500D02*Y406400D01*
X174000Y410100D02*X174600Y409500D01*
X174000Y405800D02*X174600Y406400D01*
G54D145*X174000Y405800D02*Y404200D01*
Y410600D02*Y410100D01*
G54D144*X173900Y407300D02*X174600Y406600D01*
Y406400D01*
X173900Y407300D02*X174600Y408000D01*
X173900Y408500D02*X174600Y407800D01*
X173900Y408500D02*X174600Y409200D01*
X162500Y409400D02*Y406400D01*
Y409400D02*X163200Y410100D01*
X162500Y406400D02*X163200Y405700D01*
G54D145*Y404200D01*
Y410600D02*Y410100D01*
G54D144*X162500Y406700D02*X163100Y407300D01*
X162500Y407900D02*X163100Y407300D01*
X162500Y409100D02*X163100Y408500D01*
X162500Y407900D02*X163100Y408500D01*
X165100Y409500D02*Y406400D01*
X164500Y410100D02*X165100Y409500D01*
X164500Y405800D02*X165100Y406400D01*
G54D145*X164500Y405800D02*Y404200D01*
Y410600D02*Y410100D01*
G54D144*X164400Y407300D02*X165100Y406600D01*
Y406400D01*
X164400Y407300D02*X165100Y408000D01*
X164400Y408500D02*X165100Y407800D01*
X164400Y408500D02*X165100Y409200D01*
G54D141*X188607Y352352D02*X189393D01*
X188607Y355500D02*X189393D01*
X224107Y351352D02*X224893D01*
X224107Y354500D02*X224893D01*
G54D140*X136016Y275114D02*Y274130D01*
X141134Y275114D02*Y274130D01*
G54D141*X219623Y228122D02*X220409D01*
X219623Y231270D02*X220409D01*
G54D140*X219524Y244504D02*X220508D01*
X219524Y249622D02*X220508D01*
G54D141*X179623Y246974D02*X180409D01*
X179623Y250122D02*X180409D01*
X174623Y246974D02*X175409D01*
X174623Y250122D02*X175409D01*
X154623Y242974D02*X155409D01*
X154623Y239826D02*X155409D01*
X154623Y250122D02*X155409D01*
X154623Y246974D02*X155409D01*
X199623Y228122D02*X200409D01*
X199623Y231270D02*X200409D01*
X194623Y228122D02*X195409D01*
X194623Y231270D02*X195409D01*
X154623Y228122D02*X155409D01*
X154623Y231270D02*X155409D01*
X174623Y228122D02*X175409D01*
X174623Y231270D02*X175409D01*
X179623Y228122D02*X180409D01*
X179623Y231270D02*X180409D01*
X204623D02*X205409D01*
X204623Y228122D02*X205409D01*
X146164Y269515D02*Y268729D01*
X143016Y269515D02*Y268729D01*
X134868Y220515D02*Y219729D01*
X138016Y220515D02*Y219729D01*
X135516Y225015D02*Y224229D01*
X138664Y225015D02*Y224229D01*
X145516Y220015D02*Y219229D01*
X142368Y220015D02*Y219229D01*
X135516Y269515D02*Y268729D01*
X138664Y269515D02*Y268729D01*
X145516Y264515D02*Y263729D01*
X142368Y264515D02*Y263729D01*
X94123Y250474D02*X94909D01*
X94123Y253622D02*X94909D01*
X97664Y213015D02*Y212229D01*
X94516Y213015D02*Y212229D01*
M02*
