G04 start of page 11 for group -4014 idx -4014 *
G04 Title: (unknown), bottompaste *
G04 Creator: pcb 1.99z *
G04 CreationDate: Thu 19 Mar 2015 06:29:08 PM GMT UTC *
G04 For: commonadmin *
G04 Format: Gerber/RS-274X *
G04 PCB-Dimensions (mil): 3000.00 2500.00 *
G04 PCB-Coordinate-Origin: lower left *
%MOIN*%
%FSLAX25Y25*%
%LNBOTTOMPASTE*%
%ADD146R,0.0060X0.0060*%
%ADD145C,0.0060*%
%ADD144R,0.0512X0.0512*%
%ADD143R,0.4000X0.4000*%
%ADD142R,0.0197X0.0197*%
%ADD141R,0.0295X0.0295*%
G54D141*X60008Y126118D02*X60992D01*
X60008Y121000D02*X60992D01*
X72118Y127992D02*Y127008D01*
X67000Y127992D02*Y127008D01*
X72118Y120992D02*Y120008D01*
X67000Y120992D02*Y120008D01*
G54D142*X114500Y122893D02*Y122107D01*
X111352Y122893D02*Y122107D01*
G54D141*X106634Y154492D02*Y153508D01*
X111752Y154492D02*Y153508D01*
G54D142*X105104Y159493D02*Y158707D01*
X108252Y159493D02*Y158707D01*
X111752Y159493D02*Y158707D01*
X114900Y159493D02*Y158707D01*
G54D141*X105360Y144000D02*X106344D01*
X105360Y138882D02*X106344D01*
X141360Y124000D02*X142344D01*
X141360Y129118D02*X142344D01*
G54D142*X136852Y157893D02*Y157107D01*
X140000Y157893D02*Y157107D01*
G54D143*X26000Y119828D02*X26500D01*
G54D141*X75882Y159992D02*Y159008D01*
X81000Y159992D02*Y159008D01*
X68808Y146500D02*X69792D01*
X68808Y151618D02*X69792D01*
G54D142*X188607Y152352D02*X189393D01*
X188607Y155500D02*X189393D01*
X224107Y151352D02*X224893D01*
X224107Y154500D02*X224893D01*
G54D141*X136016Y75114D02*Y74130D01*
X141134Y75114D02*Y74130D01*
G54D142*X219623Y28122D02*X220409D01*
X219623Y31270D02*X220409D01*
G54D141*X219524Y44504D02*X220508D01*
X219524Y49622D02*X220508D01*
G54D142*X179623Y46974D02*X180409D01*
X179623Y50122D02*X180409D01*
X174623Y46974D02*X175409D01*
X174623Y50122D02*X175409D01*
X154623Y42974D02*X155409D01*
X154623Y39826D02*X155409D01*
X154623Y50122D02*X155409D01*
X154623Y46974D02*X155409D01*
X199623Y28122D02*X200409D01*
X199623Y31270D02*X200409D01*
X194623Y28122D02*X195409D01*
X194623Y31270D02*X195409D01*
X154623Y28122D02*X155409D01*
X154623Y31270D02*X155409D01*
X174623Y28122D02*X175409D01*
X174623Y31270D02*X175409D01*
X179623Y28122D02*X180409D01*
X179623Y31270D02*X180409D01*
X204623D02*X205409D01*
X204623Y28122D02*X205409D01*
X146164Y69515D02*Y68729D01*
X143016Y69515D02*Y68729D01*
X134868Y20515D02*Y19729D01*
X138016Y20515D02*Y19729D01*
X135516Y25015D02*Y24229D01*
X138664Y25015D02*Y24229D01*
X145516Y20015D02*Y19229D01*
X142368Y20015D02*Y19229D01*
X135516Y69515D02*Y68729D01*
X138664Y69515D02*Y68729D01*
X145516Y64515D02*Y63729D01*
X142368Y64515D02*Y63729D01*
X94123Y50474D02*X94909D01*
X94123Y53622D02*X94909D01*
X97664Y13015D02*Y12229D01*
X94516Y13015D02*Y12229D01*
G54D144*X80607Y146400D02*X81393D01*
X80607Y153486D02*X81393D01*
G54D141*X70508Y183500D02*X71492D01*
X70508Y188618D02*X71492D01*
X76508Y183500D02*X77492D01*
X76508Y188618D02*X77492D01*
G54D142*X97607Y217352D02*X98393D01*
X97607Y220500D02*X98393D01*
X97607Y210852D02*X98393D01*
X97607Y214000D02*X98393D01*
X102607Y217352D02*X103393D01*
X102607Y220500D02*X103393D01*
X102607Y210852D02*X103393D01*
X102607Y214000D02*X103393D01*
G54D145*X95000Y227600D02*Y224600D01*
X94300Y223900D02*X95000Y224600D01*
X94300Y228300D02*X95000Y227600D01*
G54D146*X94300Y229800D02*Y228300D01*
Y223900D02*Y223400D01*
G54D145*X94400Y226700D02*X95000Y227300D01*
X94400Y226700D02*X95000Y226100D01*
X94400Y225500D02*X95000Y224900D01*
X94400Y225500D02*X95000Y226100D01*
X92400Y227600D02*Y224500D01*
X93000Y223900D01*
X92400Y227600D02*X93000Y228200D01*
G54D146*Y229800D02*Y228200D01*
Y223900D02*Y223400D01*
G54D145*X92400Y227400D02*X93100Y226700D01*
X92400Y227600D02*Y227400D01*
Y226000D02*X93100Y226700D01*
X92400Y226200D02*X93100Y225500D01*
X92400Y224800D02*X93100Y225500D01*
X100000Y227600D02*Y224600D01*
X99300Y223900D02*X100000Y224600D01*
X99300Y228300D02*X100000Y227600D01*
G54D146*X99300Y229800D02*Y228300D01*
Y223900D02*Y223400D01*
G54D145*X99400Y226700D02*X100000Y227300D01*
X99400Y226700D02*X100000Y226100D01*
X99400Y225500D02*X100000Y224900D01*
X99400Y225500D02*X100000Y226100D01*
X97400Y227600D02*Y224500D01*
X98000Y223900D01*
X97400Y227600D02*X98000Y228200D01*
G54D146*Y229800D02*Y228200D01*
Y223900D02*Y223400D01*
G54D145*X97400Y227400D02*X98100Y226700D01*
X97400Y227600D02*Y227400D01*
Y226000D02*X98100Y226700D01*
X97400Y226200D02*X98100Y225500D01*
X97400Y224800D02*X98100Y225500D01*
X105000Y227600D02*Y224600D01*
X104300Y223900D02*X105000Y224600D01*
X104300Y228300D02*X105000Y227600D01*
G54D146*X104300Y229800D02*Y228300D01*
Y223900D02*Y223400D01*
G54D145*X104400Y226700D02*X105000Y227300D01*
X104400Y226700D02*X105000Y226100D01*
X104400Y225500D02*X105000Y224900D01*
X104400Y225500D02*X105000Y226100D01*
X102400Y227600D02*Y224500D01*
X103000Y223900D01*
X102400Y227600D02*X103000Y228200D01*
G54D146*Y229800D02*Y228200D01*
Y223900D02*Y223400D01*
G54D145*X102400Y227400D02*X103100Y226700D01*
X102400Y227600D02*Y227400D01*
Y226000D02*X103100Y226700D01*
X102400Y226200D02*X103100Y225500D01*
X102400Y224800D02*X103100Y225500D01*
G54D141*X143008Y183500D02*X143992D01*
X143008Y188618D02*X143992D01*
X149008Y183500D02*X149992D01*
X149008Y188618D02*X149992D01*
G54D142*X170107Y217352D02*X170893D01*
X170107Y220500D02*X170893D01*
X170107Y210852D02*X170893D01*
X170107Y214000D02*X170893D01*
X175107Y217352D02*X175893D01*
X175107Y220500D02*X175893D01*
X175107Y210852D02*X175893D01*
X175107Y214000D02*X175893D01*
G54D145*X167500Y227600D02*Y224600D01*
X166800Y223900D02*X167500Y224600D01*
X166800Y228300D02*X167500Y227600D01*
G54D146*X166800Y229800D02*Y228300D01*
Y223900D02*Y223400D01*
G54D145*X166900Y226700D02*X167500Y227300D01*
X166900Y226700D02*X167500Y226100D01*
X166900Y225500D02*X167500Y224900D01*
X166900Y225500D02*X167500Y226100D01*
X164900Y227600D02*Y224500D01*
X165500Y223900D01*
X164900Y227600D02*X165500Y228200D01*
G54D146*Y229800D02*Y228200D01*
Y223900D02*Y223400D01*
G54D145*X164900Y227400D02*X165600Y226700D01*
X164900Y227600D02*Y227400D01*
Y226000D02*X165600Y226700D01*
X164900Y226200D02*X165600Y225500D01*
X164900Y224800D02*X165600Y225500D01*
X172500Y227600D02*Y224600D01*
X171800Y223900D02*X172500Y224600D01*
X171800Y228300D02*X172500Y227600D01*
G54D146*X171800Y229800D02*Y228300D01*
Y223900D02*Y223400D01*
G54D145*X171900Y226700D02*X172500Y227300D01*
X171900Y226700D02*X172500Y226100D01*
X171900Y225500D02*X172500Y224900D01*
X171900Y225500D02*X172500Y226100D01*
X169900Y227600D02*Y224500D01*
X170500Y223900D01*
X169900Y227600D02*X170500Y228200D01*
G54D146*Y229800D02*Y228200D01*
Y223900D02*Y223400D01*
G54D145*X169900Y227400D02*X170600Y226700D01*
X169900Y227600D02*Y227400D01*
Y226000D02*X170600Y226700D01*
X169900Y226200D02*X170600Y225500D01*
X169900Y224800D02*X170600Y225500D01*
X177500Y227600D02*Y224600D01*
X176800Y223900D02*X177500Y224600D01*
X176800Y228300D02*X177500Y227600D01*
G54D146*X176800Y229800D02*Y228300D01*
Y223900D02*Y223400D01*
G54D145*X176900Y226700D02*X177500Y227300D01*
X176900Y226700D02*X177500Y226100D01*
X176900Y225500D02*X177500Y224900D01*
X176900Y225500D02*X177500Y226100D01*
X174900Y227600D02*Y224500D01*
X175500Y223900D01*
X174900Y227600D02*X175500Y228200D01*
G54D146*Y229800D02*Y228200D01*
Y223900D02*Y223400D01*
G54D145*X174900Y227400D02*X175600Y226700D01*
X174900Y227600D02*Y227400D01*
Y226000D02*X175600Y226700D01*
X174900Y226200D02*X175600Y225500D01*
X174900Y224800D02*X175600Y225500D01*
G54D142*X262607Y216852D02*X263393D01*
X262607Y220000D02*X263393D01*
G54D141*X268008Y223618D02*X268992D01*
X268008Y218500D02*X268992D01*
X222008Y223618D02*X222992D01*
X222008Y218500D02*X222992D01*
G54D142*X227607Y216852D02*X228393D01*
X227607Y220000D02*X228393D01*
X253607Y209852D02*X254393D01*
X253607Y213000D02*X254393D01*
X253607Y216852D02*X254393D01*
X253607Y220000D02*X254393D01*
X236607Y209852D02*X237393D01*
X236607Y213000D02*X237393D01*
X236607Y216852D02*X237393D01*
X236607Y220000D02*X237393D01*
X247607Y209704D02*X248393D01*
X247607Y212852D02*X248393D01*
X247607Y216852D02*X248393D01*
X247607Y220000D02*X248393D01*
X242607Y209704D02*X243393D01*
X242607Y212852D02*X243393D01*
X242607Y216852D02*X243393D01*
X242607Y220000D02*X243393D01*
G54D145*X235000Y227100D02*Y224100D01*
X234300Y223400D02*X235000Y224100D01*
X234300Y227800D02*X235000Y227100D01*
G54D146*X234300Y229300D02*Y227800D01*
Y223400D02*Y222900D01*
G54D145*X234400Y226200D02*X235000Y226800D01*
X234400Y226200D02*X235000Y225600D01*
X234400Y225000D02*X235000Y224400D01*
X234400Y225000D02*X235000Y225600D01*
X232400Y227100D02*Y224000D01*
X233000Y223400D01*
X232400Y227100D02*X233000Y227700D01*
G54D146*Y229300D02*Y227700D01*
Y223400D02*Y222900D01*
G54D145*X232400Y226900D02*X233100Y226200D01*
X232400Y227100D02*Y226900D01*
Y225500D02*X233100Y226200D01*
X232400Y225700D02*X233100Y225000D01*
X232400Y224300D02*X233100Y225000D01*
X230000Y227100D02*Y224100D01*
X229300Y223400D02*X230000Y224100D01*
X229300Y227800D02*X230000Y227100D01*
G54D146*X229300Y229300D02*Y227800D01*
Y223400D02*Y222900D01*
G54D145*X229400Y226200D02*X230000Y226800D01*
X229400Y226200D02*X230000Y225600D01*
X229400Y225000D02*X230000Y224400D01*
X229400Y225000D02*X230000Y225600D01*
X227400Y227100D02*Y224000D01*
X228000Y223400D01*
X227400Y227100D02*X228000Y227700D01*
G54D146*Y229300D02*Y227700D01*
Y223400D02*Y222900D01*
G54D145*X227400Y226900D02*X228100Y226200D01*
X227400Y227100D02*Y226900D01*
Y225500D02*X228100Y226200D01*
X227400Y225700D02*X228100Y225000D01*
X227400Y224300D02*X228100Y225000D01*
X216500Y241100D02*Y238100D01*
X215800Y237400D02*X216500Y238100D01*
X215800Y241800D02*X216500Y241100D01*
G54D146*X215800Y243300D02*Y241800D01*
Y237400D02*Y236900D01*
G54D145*X215900Y240200D02*X216500Y240800D01*
X215900Y240200D02*X216500Y239600D01*
X215900Y239000D02*X216500Y238400D01*
X215900Y239000D02*X216500Y239600D01*
X213900Y241100D02*Y238000D01*
X214500Y237400D01*
X213900Y241100D02*X214500Y241700D01*
G54D146*Y243300D02*Y241700D01*
Y237400D02*Y236900D01*
G54D145*X213900Y240900D02*X214600Y240200D01*
X213900Y241100D02*Y240900D01*
Y239500D02*X214600Y240200D01*
X213900Y239700D02*X214600Y239000D01*
X213900Y238300D02*X214600Y239000D01*
X245000Y227100D02*Y224100D01*
X244300Y223400D02*X245000Y224100D01*
X244300Y227800D02*X245000Y227100D01*
G54D146*X244300Y229300D02*Y227800D01*
Y223400D02*Y222900D01*
G54D145*X244400Y226200D02*X245000Y226800D01*
X244400Y226200D02*X245000Y225600D01*
X244400Y225000D02*X245000Y224400D01*
X244400Y225000D02*X245000Y225600D01*
X242400Y227100D02*Y224000D01*
X243000Y223400D01*
X242400Y227100D02*X243000Y227700D01*
G54D146*Y229300D02*Y227700D01*
Y223400D02*Y222900D01*
G54D145*X242400Y226900D02*X243100Y226200D01*
X242400Y227100D02*Y226900D01*
Y225500D02*X243100Y226200D01*
X242400Y225700D02*X243100Y225000D01*
X242400Y224300D02*X243100Y225000D01*
X250000Y227100D02*Y224100D01*
X249300Y223400D02*X250000Y224100D01*
X249300Y227800D02*X250000Y227100D01*
G54D146*X249300Y229300D02*Y227800D01*
Y223400D02*Y222900D01*
G54D145*X249400Y226200D02*X250000Y226800D01*
X249400Y226200D02*X250000Y225600D01*
X249400Y225000D02*X250000Y224400D01*
X249400Y225000D02*X250000Y225600D01*
X247400Y227100D02*Y224000D01*
X248000Y223400D01*
X247400Y227100D02*X248000Y227700D01*
G54D146*Y229300D02*Y227700D01*
Y223400D02*Y222900D01*
G54D145*X247400Y226900D02*X248100Y226200D01*
X247400Y227100D02*Y226900D01*
Y225500D02*X248100Y226200D01*
X247400Y225700D02*X248100Y225000D01*
X247400Y224300D02*X248100Y225000D01*
X260000Y227100D02*Y224100D01*
X259300Y223400D02*X260000Y224100D01*
X259300Y227800D02*X260000Y227100D01*
G54D146*X259300Y229300D02*Y227800D01*
Y223400D02*Y222900D01*
G54D145*X259400Y226200D02*X260000Y226800D01*
X259400Y226200D02*X260000Y225600D01*
X259400Y225000D02*X260000Y224400D01*
X259400Y225000D02*X260000Y225600D01*
X257400Y227100D02*Y224000D01*
X258000Y223400D01*
X257400Y227100D02*X258000Y227700D01*
G54D146*Y229300D02*Y227700D01*
Y223400D02*Y222900D01*
G54D145*X257400Y226900D02*X258100Y226200D01*
X257400Y227100D02*Y226900D01*
Y225500D02*X258100Y226200D01*
X257400Y225700D02*X258100Y225000D01*
X257400Y224300D02*X258100Y225000D01*
G54D141*X214008Y180982D02*X214992D01*
X214008Y186100D02*X214992D01*
X219008Y180982D02*X219992D01*
X219008Y186100D02*X219992D01*
G54D142*X232107Y213000D02*X232893D01*
X232107Y209852D02*X232893D01*
X259064Y200191D02*X259850D01*
X259064Y197043D02*X259850D01*
G54D145*X265000Y227100D02*Y224100D01*
X264300Y223400D02*X265000Y224100D01*
X264300Y227800D02*X265000Y227100D01*
G54D146*X264300Y229300D02*Y227800D01*
Y223400D02*Y222900D01*
G54D145*X264400Y226200D02*X265000Y226800D01*
X264400Y226200D02*X265000Y225600D01*
X264400Y225000D02*X265000Y224400D01*
X264400Y225000D02*X265000Y225600D01*
X262400Y227100D02*Y224000D01*
X263000Y223400D01*
X262400Y227100D02*X263000Y227700D01*
G54D146*Y229300D02*Y227700D01*
Y223400D02*Y222900D01*
G54D145*X262400Y226900D02*X263100Y226200D01*
X262400Y227100D02*Y226900D01*
Y225500D02*X263100Y226200D01*
X262400Y225700D02*X263100Y225000D01*
X262400Y224300D02*X263100Y225000D01*
M02*
