G04 start of page 6 for group -4063 idx -4063 *
G04 Title: (unknown), componentmask *
G04 Creator: pcb 1.99z *
G04 CreationDate: Sun 16 Nov 2014 06:19:35 AM GMT UTC *
G04 For: commonadmin *
G04 Format: Gerber/RS-274X *
G04 PCB-Dimensions (mil): 4500.00 4500.00 *
G04 PCB-Coordinate-Origin: lower left *
%MOIN*%
%FSLAX25Y25*%
%LNTOPMASK*%
%ADD102R,0.0300X0.0300*%
%ADD101C,0.0450*%
%ADD100C,0.0300*%
%ADD99C,0.0600*%
%ADD98R,0.0257X0.0257*%
%ADD97R,0.0187X0.0187*%
%ADD96R,0.0670X0.0670*%
%ADD95R,0.0572X0.0572*%
%ADD94R,0.0594X0.0594*%
%ADD93R,0.0430X0.0430*%
%ADD92R,0.0547X0.0547*%
%ADD91R,0.0355X0.0355*%
%ADD90C,0.1517*%
%ADD89C,0.0611*%
%ADD88C,0.0651*%
%ADD87C,0.0500*%
%ADD86C,0.0887*%
%ADD85C,0.1536*%
%ADD84C,0.0851*%
%ADD83C,0.0810*%
%ADD82C,0.0610*%
%ADD81C,0.0660*%
%ADD80C,0.0001*%
G54D80*G36*
X66700Y340800D02*Y334200D01*
X73300D01*
Y340800D01*
X66700D01*
G37*
G54D81*X80000Y337500D03*
G54D80*G36*
X66700Y370300D02*Y363700D01*
X73300D01*
Y370300D01*
X66700D01*
G37*
G54D81*X80000Y367000D03*
G54D80*G36*
X70200Y314300D02*Y307700D01*
X76800D01*
Y314300D01*
X70200D01*
G37*
G36*
X110450Y310050D02*Y303950D01*
X116550D01*
Y310050D01*
X110450D01*
G37*
G54D82*X133500Y307000D03*
G54D81*X63500Y311000D03*
Y301000D03*
X53500D03*
Y311000D03*
G54D83*X157500Y347500D03*
G54D84*X88000Y443500D03*
X83000Y433500D03*
X93000D03*
X98000Y443500D03*
X108000D03*
X118000D03*
X103000Y433500D03*
X113000D03*
G54D85*X78000Y408500D03*
G54D86*X69457Y396492D03*
G54D85*X123000Y408500D03*
X150500D03*
X195500D03*
G54D86*X131465Y396492D03*
X141957D03*
X203965D03*
X214457D03*
G54D84*X160500Y443500D03*
X170500D03*
X155500Y433500D03*
X165500D03*
X175500D03*
X185500D03*
G54D85*X223000Y408500D03*
X268000D03*
G54D86*X276465Y396492D03*
G54D84*X180500Y443500D03*
X190500D03*
X233000D03*
X243000D03*
X253000D03*
X263000D03*
X228000Y433500D03*
X238000D03*
X248000D03*
X258000D03*
G54D87*X255900Y274400D03*
X248000D03*
X240100D03*
X232200Y361000D03*
X224300D03*
X216400D03*
X208500D03*
X200600D03*
X192700D03*
X184800D03*
G54D83*X258500Y316000D03*
G54D80*G36*
X253400Y363500D02*Y358500D01*
X258400D01*
Y363500D01*
X253400D01*
G37*
G54D87*X248000Y361000D03*
X240100D03*
G54D83*X244000Y354500D03*
G54D81*X73500Y301000D03*
G54D80*G36*
X70216Y277922D02*Y271322D01*
X76816D01*
Y277922D01*
X70216D01*
G37*
G54D81*X73516Y264622D03*
Y254622D03*
X83516D03*
Y264622D03*
X73516Y244622D03*
Y234622D03*
X83516D03*
Y244622D03*
Y274622D03*
G54D88*X94516Y270622D03*
Y260622D03*
Y218417D03*
Y228417D03*
G54D87*X232200Y274400D03*
X224300D03*
X216400D03*
X208500D03*
X200600D03*
X192700D03*
X184800D03*
G54D80*G36*
X184466Y215172D02*Y209072D01*
X190566D01*
Y215172D01*
X184466D01*
G37*
G54D82*X207516Y212122D03*
G54D89*X145500Y257000D03*
X135500Y262000D03*
Y252000D03*
Y242000D03*
X145500Y247000D03*
Y237000D03*
Y227000D03*
X135500Y232000D03*
G54D90*X110500Y267000D03*
Y222000D03*
G54D86*X122508Y275031D03*
Y214008D03*
G54D91*X97352Y365492D02*Y364508D01*
X102470Y365492D02*Y364508D01*
G54D92*X97454Y349949D02*X101880D01*
X97454Y346800D02*X101880D01*
X97454Y356248D02*X101880D01*
X97454Y353099D02*X101880D01*
G54D93*X79800Y346400D02*X82200D01*
X79800Y352500D02*X82200D01*
X79800Y358600D02*X82200D01*
G54D94*X4736Y334528D02*X34264D01*
X10642Y324685D02*X34264D01*
G54D95*X67000Y320893D02*Y320107D01*
G54D94*X10642Y314843D02*X34264D01*
X4736Y305000D02*X34264D01*
G54D95*X67000Y327893D02*Y327107D01*
X74086Y320893D02*Y320107D01*
Y327893D02*Y327107D01*
G54D92*X97454Y337351D02*X101880D01*
X97454Y334201D02*X101880D01*
X97454Y331052D02*X101880D01*
X97454Y327902D02*X101880D01*
X97454Y324752D02*X101880D01*
X97454Y343650D02*X101880D01*
X97454Y340500D02*X101880D01*
G54D96*X68800Y355500D02*Y349500D01*
G54D97*X108604Y318028D02*Y313602D01*
X111753Y318028D02*Y313602D01*
X114903Y318028D02*Y313602D01*
X118052Y318028D02*Y313602D01*
X121202Y318028D02*Y313602D01*
G54D98*X121352Y308893D02*Y308107D01*
X124500Y308893D02*Y308107D01*
X126000Y303393D02*Y302607D01*
X129148Y303393D02*Y302607D01*
X121648Y303393D02*Y302607D01*
X118500Y303393D02*Y302607D01*
G54D97*X124352Y318028D02*Y313602D01*
X127501Y318028D02*Y313602D01*
X130651Y318028D02*Y313602D01*
X133800Y318028D02*Y313602D01*
X136950Y318028D02*Y313602D01*
X140100Y318028D02*Y313602D01*
G54D99*X155000Y317500D02*X161000D01*
X160000Y309000D02*Y303000D01*
X165000Y309000D02*Y303000D01*
X170000Y309000D02*Y303000D01*
X175000Y309000D02*Y303000D01*
X180000Y309000D02*Y303000D01*
X185000Y309000D02*Y303000D01*
X190000Y309000D02*Y303000D01*
G54D100*X285000Y346500D02*Y329400D01*
X274600D02*X285000D01*
X274600Y319500D02*X285000D01*
X274600Y329400D02*Y319500D01*
G54D101*X263500Y335500D02*X265000D01*
X263500Y340500D02*X265000D01*
G54D100*X263000Y338000D02*X285000D01*
G54D101*X265000Y346500D02*Y340500D01*
Y346500D02*X284000D01*
G54D100*X285000Y319500D02*Y310800D01*
X274600D02*X285000D01*
X274600D02*Y300900D01*
G54D101*X265000Y335500D02*Y282000D01*
G54D100*X274600Y300900D02*X285000D01*
Y292200D01*
X278500D02*X285000D01*
G54D99*X225000Y309000D02*Y303000D01*
X230000Y309000D02*Y303000D01*
X235000Y309000D02*Y303000D01*
X240000Y309000D02*Y303000D01*
X245000Y309000D02*Y303000D01*
X250000Y309000D02*Y303000D01*
X255000Y309000D02*Y303000D01*
X254000Y353000D02*X260000D01*
X254000Y348000D02*X260000D01*
X254000Y343000D02*X260000D01*
X254000Y338000D02*X260000D01*
X254000Y333000D02*X260000D01*
X254000Y328000D02*X260000D01*
X254000Y323000D02*X260000D01*
G54D91*X204508Y293441D02*X205492D01*
X204508Y298559D02*X205492D01*
G54D98*X199107Y298500D02*X199893D01*
X199107Y295352D02*X199893D01*
X199107Y292000D02*X199893D01*
X189607Y298500D02*X190393D01*
X189607Y295352D02*X190393D01*
X194107Y298500D02*X194893D01*
X194107Y295352D02*X194893D01*
X189607Y292000D02*X190393D01*
X189607Y288852D02*X190393D01*
X194107Y292000D02*X194893D01*
G54D99*X195000Y309000D02*Y303000D01*
X200000Y309000D02*Y303000D01*
G54D98*X194107Y288852D02*X194893D01*
X199107D02*X199893D01*
G54D102*X220016Y260122D02*Y254122D01*
X215016Y260122D02*Y254122D01*
X210016Y260122D02*Y254122D01*
X205016Y260122D02*Y254122D01*
X200016Y260122D02*Y254122D01*
Y224122D02*Y218122D01*
X205016Y224122D02*Y218122D01*
X210016Y224122D02*Y218122D01*
X215016Y224122D02*Y218122D01*
X220016Y224122D02*Y218122D01*
G54D99*X205000Y309000D02*Y303000D01*
X210000Y309000D02*Y303000D01*
X215000Y309000D02*Y303000D01*
X220000Y309000D02*Y303000D01*
G54D102*X195016Y260122D02*Y254122D01*
X190016Y260122D02*Y254122D01*
X185016Y260122D02*Y254122D01*
X180016Y260122D02*Y254122D01*
X155016Y224122D02*Y218122D01*
X160016Y224122D02*Y218122D01*
X165016Y224122D02*Y218122D01*
X170016Y224122D02*Y218122D01*
X175016Y224122D02*Y218122D01*
X180016Y224122D02*Y218122D01*
X195016Y224122D02*Y218122D01*
X185016Y224122D02*Y218122D01*
X190016Y224122D02*Y218122D01*
X175016Y260122D02*Y254122D01*
X170016Y260122D02*Y254122D01*
X165016Y260122D02*Y254122D01*
X160016Y260122D02*Y254122D01*
X155016Y260122D02*Y254122D01*
G54D97*X140100Y367398D02*Y362972D01*
G54D99*X160000Y373000D02*Y367000D01*
X165000Y373000D02*Y367000D01*
X170000Y373000D02*Y367000D01*
X175000Y373000D02*Y367000D01*
X180000Y373000D02*Y367000D01*
X185000Y373000D02*Y367000D01*
X190000Y373000D02*Y367000D01*
X195000Y373000D02*Y367000D01*
X200000Y373000D02*Y367000D01*
X205000Y373000D02*Y367000D01*
X210000Y373000D02*Y367000D01*
X215000Y373000D02*Y367000D01*
X220000Y373000D02*Y367000D01*
X225000Y373000D02*Y367000D01*
X230000Y373000D02*Y367000D01*
X235000Y373000D02*Y367000D01*
X240000Y373000D02*Y367000D01*
X245000Y373000D02*Y367000D01*
X255000Y373000D02*Y367000D01*
X250000Y373000D02*Y367000D01*
G54D97*X146824Y324752D02*X151250D01*
X146824Y327901D02*X151250D01*
X146824Y331051D02*X151250D01*
G54D99*X155000Y333000D02*X161000D01*
G54D97*X146824Y334200D02*X151250D01*
X146824Y337350D02*X151250D01*
X146824Y340500D02*X151250D01*
X146824Y343649D02*X151250D01*
X146824Y346799D02*X151250D01*
X146824Y349948D02*X151250D01*
X146824Y353098D02*X151250D01*
X146824Y356248D02*X151250D01*
G54D98*X108204Y371393D02*Y370607D01*
X111352Y371393D02*Y370607D01*
X117852Y371393D02*Y370607D01*
X114704Y371393D02*Y370607D01*
G54D97*X136951Y367398D02*Y362972D01*
X133801Y367398D02*Y362972D01*
X130652Y367398D02*Y362972D01*
X127502Y367398D02*Y362972D01*
X124352Y367398D02*Y362972D01*
X121203Y367398D02*Y362972D01*
X118053Y367398D02*Y362972D01*
X114904Y367398D02*Y362972D01*
X111754Y367398D02*Y362972D01*
X108604Y367398D02*Y362972D01*
M02*
